<svg xmlns="http://www.w3.org/2000/svg" width="91" height="112.8" viewBox="0 0 91 112.8">
  <path fill="#FFF" stroke="#00A78E" stroke-width="1.323" stroke-miterlimit="10" d="M82.4 62.6s1.2-11.1 4.7-8c2.8 2.6 4.2 14.4 2.5 22.7-.8 3.7-5.2 7.9-7 6.1-1.9-1.8-.2-20.8-.2-20.8"/>
  <path fill="#FFF" d="M8.3 63.5S6.7 52.4 3 55.6C-.8 59-.4 73.2.9 78.4c.9 3.7 5.8 7.7 7.8 5.9 2-1.9-.4-20.8-.4-20.8"/>
  <path fill="#FFF" d="M6.6 45c0 3.9-2.5 35.1 8.4 48.8 6.2 7.8 14.9 15.3 19.9 16.5 8.2 1.9 13.5 3.4 20.8 1.8 7.2-1.6 17.9-9.1 24.4-23.7C83.2 81.5 91.7 27 76 11.6 65.7 1.5 43.2 2.8 34.4 3.2 25.6 3.5 6.2 6.7 6.6 45"/>
  <path fill="#00A78E" stroke="#FFF" stroke-miterlimit="10" d="M7.9 63.7c-.8-.8-1.2-1.8-1.3-2.9-.3-6.2-1.1-28-.3-34.2 1-7.3-2.1-3.1 9.9-15.3C24 3.3 29.1 5.5 32 1.7c2.9-3.8 32.4 2 31.2 5 5.6-3.7 8.5-1.2 8.5-1.2S95-.1 86.4 57.5l-.8 5.1c-4.4.5-.5-1.4-1-22.4-.8-29-30-17.7-40-18.3-12.1-.7-31.7-3.9-34.4 11.8C8 46.5 8.5 57.4 8.8 60.9c.1.8-.1 1.6-.5 2.3l-.4.5z"/>
  <path fill="#00A78E" d="M30.5 89.5s12.5 5.1 24.9 2.8c12.4-2.3 8.1-.1 6.2.1-1.9.3-18.5 9.6-31.1-2.9"/>
  <path opacity=".5" fill="#00A78E" d="M37.7 96.9s1 .6 2.6 1.2c.8.3 1.8.6 2.8.8 1 .2 2.2.4 3.3.5.8.1 1.7.1 2.5.1 1.4 0 2.7-.1 3.7-.2 1.7-.2 2.8-.5 2.8-.5s-1.1-.1-2.8-.3c-.8-.1-1.8-.1-2.8-.2-1-.1-2.1-.1-3.2-.2-2.2-.2-4.4-.4-6.1-.6-1.7-.4-2.8-.6-2.8-.6"/>
  <path fill="#00A78E" d="M42.6 75l3 .5c.9.1 2 .2 3 .1.5-.1 1-.2 1.2-.5.2-.1.2-.1.2-.2v-.1s0-.1 0 0v-.1l.1-.2c.1-.3.1-.5.1-.8.1-1.2 0-2.4 0-3.5-.1-1.1-.1-2.2-.2-3.1-.1-1.8-.2-3.1-.2-3.1s.5 1.2.9 3c.2.9.4 2 .6 3.1.2 1.2.3 2.4.2 3.7-.1.3-.1.8-.2 1l-.1.2v.2l-.1.2c-.1.2-.2.4-.4.5-.6.6-1.4.7-2 .8-.6 0-1.2 0-1.8-.1-.5-.1-1-.2-1.5-.4-1.7-.5-2.8-1.2-2.8-1.2zM31.4 59.6c0 2.1-1.7 3.8-3.9 3.8-2.1 0-3.9-1.7-3.9-3.8 0-2.1 1.7-3.8 3.9-3.8s3.9 1.7 3.9 3.8"/>
  <path fill="#FFF" d="M26 59.6c0 .7-.4 1.3-.9 1.3s-.9-.6-.9-1.3c0-.7.4-1.3.9-1.3.5-.1.9.5.9 1.3"/>
  <path fill="#00A78E" d="M16.7 61.9l.2-.2c1-.9 5.6-4.6 10.6-4.6 2.9 0 6 1.2 8.8 4.9l.9-1.1c-3-4.1-6.6-5.5-9.8-5.4-6.3 0-11.6 5-11.6 5.1l.9 1.3zm47.1-2.8c0 2.1 1.7 3.8 3.9 3.8s3.9-1.7 3.9-3.8c0-2.1-1.7-3.8-3.9-3.8-2.2-.1-3.9 1.7-3.9 3.8"/>
  <path fill="#FFF" d="M66.7 59c0 .7-.4 1.3-.9 1.3s-.9-.6-.9-1.3c0-.7.4-1.3.9-1.3s.9.6.9 1.3"/>
  <path fill="#00A78E" d="M79.3 60.1S74 55 67.7 55c-3.2 0-6.7 1.4-9.8 5.4l.9 1.1c2.8-3.7 5.9-4.9 8.8-4.9 2.9 0 5.6 1.2 7.6 2.4 1 .6 1.8 1.2 2.4 1.6.3.2.5.4.6.5l.2.2.9-1.2zM35.1 35.4s4.9 4.4.8 5.2c-4.2.8-10.9-.7-14 0-3 .7-8.9 3-8.9 3l-.4-2.5s8.1-7.6 22.5-5.7zM57.5 37s-4.8 4.2-.6 5.2c4.2.9 10.9-.3 14 .5 3.1.8 9 3.3 9 3.3l.3-2.5s-8.4-8-22.7-6.5z"/>
</svg>