<svg xmlns="http://www.w3.org/2000/svg" width="136.8" height="370.1" viewBox="0 0 136.8 370.1">
  <path fill="#FFF" d="M24.7 261.1c.9 1.8 1.3 3.5-1 3.6l-.7-.8-4-5-1 1.5c-.6.9-.7 1.9-.3 2.9.3.7.7 1.6 1 2.1.2.4.5.8 1 1l2.7 1.7c.6.4.4 1 .3 1.5l-.4.4c-.5.5-1.5.6-2.2.2l-3-1.9c-.3-.1-.5-.2-.7-.4l-4.8-6.6c-.3-.4-.8-2.3-.8-2.7l1.6-7.5c0-.2.1-1.8 0-2L4 217.7l-.3-5.6s-.5-27.9 1.3-27.6l17.1 2.9c1.3.2-2.1 14.9-2.1 14.9-1.5 7.1-2.1 9.5-2.3 13.7l3.5 34c0 .2 0 .3.1.5l3.4 10.6zm87.6-2.7c-.9 1.8-1.3 3.5 1 3.6l.7-.8 4-5 1 1.5c.6.9.7 1.9.3 2.9-.3.7-.7 1.6-1 2.1-.2.4-.5.8-1 1l-2.7 1.7c-.6.4-.4 1-.3 1.5l.4.4c.5.5 1.5.6 2.2.2l3-1.9c.3-.1.5-.2.7-.4l4.8-6.6c.3-.4.8-2.3.8-2.7l-1.6-7.5c0-.2-.1-1.8 0-2l8.6-31.2.3-5.6s.5-27.9-1.3-27.6l-17.1 2.9c-1.3.2 2.1 14.9 2.1 14.9 1.5 7.1 2.1 9.5 2.3 13.7l-3.5 34c0 .2 0 .3-.1.5l-3.6 10.4z"/>
  <path fill="#FFF" stroke="#00AB9F" stroke-width="1.589" stroke-miterlimit="10" d="M6.4 132s56.1-32.5 121.4 2.9l8.3 64.1-7.2 47.2-15.1-2.8.6-34.4-3.8-42.3s-1 30.1-2.2 47.3c-1.3 18.8-10.1 36.7-10.1 36.7H34s-6.8-28-6.4-40c.4-13.9.1-41.1.1-41.1l-7.2 45 4 28.9-17 .6-6.7-30.3L6.4 132z"/>
  <path fill="none" stroke="#00AB9F" stroke-width="2.777" stroke-miterlimit="10" d="M68.6 124.5L67.4 250"/>
  <path fill="#FFF" d="M119.5 370s-1.4-10.7-23.3-9.7h-.4l1.3-108H35.7l3.8 108c-21.1 1.1-22.8 8-23.6 9.8l26.3-.1h21.4s-.1-.4-.3-1v-94.4c0-2.5.9-4.5 3.7-4.5 2.8 0 3.7 2 3.7 4.5v95.5h1.2v.1l47.6-.2zM41 156.7c-.6-.9-14-21.7-7-34.5 3.4-6.2 10.9-9.4 22.4-9.4h.7c.1 0 3.5-.1 8.1-.1 10.4 0 23.7.6 28.6 3.3 1.3.4 7.2 2.6 9 8.6 1.8 6-1 13.5-8.5 22.4l-.4.4-2.1-1.8.4-.4c6.8-8.1 9.5-14.8 8-19.8-1.6-5.1-7.1-6.8-7.3-6.8l-.2-.1c-3.4-1.9-13.1-3-27.6-3-4.5 0-7.8.1-7.9.1h-.7c-10.4 0-17.1 2.7-20 7.9-6.2 11.3 6.8 31.5 6.9 31.7l.3.5-2.3 1.5-.4-.5z"/>
  <path fill="#00AB9F" d="M65.2 113.3c9.2 0 23.5.5 28.4 3.2.9.3 6.9 2.3 8.7 8.3 1.8 5.8-1 13.2-8.4 21.9l-1.3-1.1c7-8.3 9.7-15.1 8.1-20.4-1.7-5.4-7.6-7.2-7.7-7.2l-.2-.1c-4.5-2.6-18.7-3-27.8-3-4.6 0-7.9.1-8 .1h-.7c-10.6 0-17.5 2.8-20.5 8.2-6.4 11.7 6.8 32 6.9 32.2l-1.4.9c-.6-.9-13.8-21.4-7-34 3.3-6 10.7-9.1 21.9-9.1h.7c.6.2 3.8.1 8.3.1m0-1.2c-4.4 0-7.6.1-8.1.1h-.7c-11.7 0-19.4 3.2-22.9 9.7-7.2 13.1 6.5 34.2 7 35.1l.6.9.9-.6 1.4-.9.9-.6-.6-.9c-.1-.2-12.9-20.1-6.9-31.1 2.8-5.1 9.3-7.6 19.5-7.6h.7s3.3-.1 7.9-.1c14.3 0 24 1 27.2 2.9h.2l.2.1h.2s5.4 1.6 6.9 6.4c1.5 4.8-1.2 11.3-7.9 19.3l-.7.8.8.7 1.3 1.1.9.7.7-.9c7.6-9.1 10.5-16.8 8.6-23-1.9-6.2-7.9-8.5-9.3-9-5-2.5-18.4-3.1-28.8-3.1z"/>
  <circle fill="#FFF" stroke="#00AB9F" stroke-width="1.589" stroke-miterlimit="10" cx="42.2" cy="156" r="6.5"/>
  <circle fill="#00AB9F" cx="42.2" cy="156" r="4.4"/>
  <path fill="#FFF" d="M95.4 173.4c15.5-9.7-.3-29.6-.3-29.6s-24.9 2.6-20.7 20.5"/>
  <path fill="#FFF" d="M94 172.2l.5-.3c3.3-2.1 5.3-4.8 5.8-8.1 1.2-7.2-4-15.4-6-18.1-3.3.5-12.5 2.5-16.7 8.3-1.9 2.8-2.5 6.1-1.6 9.9l.1.5-3.3.8-.1-.5c-1.1-4.8-.4-9.1 2.1-12.7 5.9-8.3 19.5-9.8 20-9.9l.9-.1.6.7c.4.5 9 11.4 7.2 21.6-.7 4.3-3.2 7.9-7.4 10.5l-.5.3-1.6-2.9z"/>
  <path fill="#00AB9F" d="M95.6 142.6l.4.5c.4.5 8.8 11.2 7.1 21.2-.7 4.2-3.1 7.6-7.2 10.1l-1.2-2c3.4-2.2 5.5-5 6.1-8.5 1.3-7.8-4.7-16.6-6.3-18.8-2.7.4-12.9 2.3-17.4 8.6-2 2.9-2.6 6.4-1.7 10.4l-2.3.5c-1.1-4.7-.4-8.8 2-12.2 5.7-8.1 19.1-9.6 19.6-9.7l.9-.1m.5-1.2l-.6.1-.6.1c-.6.1-14.4 1.6-20.4 10.1-2.6 3.7-3.4 8.1-2.2 13.1l.3 1.1 1.1-.3 2.3-.5 1.1-.3-.3-1.1c-.9-3.7-.4-6.9 1.5-9.5 3.9-5.5 12.9-7.5 15.9-8 1.8 2.6 6.9 10.6 5.7 17.4-.5 3.2-2.4 5.8-5.6 7.8l-.9.6.6.9 1.2 2 .6.9.9-.6c4.3-2.7 6.9-6.3 7.7-10.8 1.8-10.4-7-21.6-7.4-22l-.4-.5-.5-.5z"/>
  <g fill="#00AB9F">
    <circle cx="74.2" cy="163.4" r="3.2"/>
    <circle cx="93.9" cy="174" r="3.2"/>
  </g>
  <path fill="#FFF" stroke="#00AB9F" stroke-width="1.589" stroke-miterlimit="10" d="M60.4 110.1s.3 10.6-4.7 13.5c-4.5 2.6 1.9 3.5 1.9 3.5l10.8-5.2s4.6 6.4 11.8 3.5c-9.5-2.6-.3-2.8-.3-2.8l-1.7-11-17.8-1.5z"/>
  <path fill="#00AB9F" stroke="#FFF" stroke-width=".632" stroke-miterlimit="10" d="M86.2 123.2c-.1-3.2.3-8.2-3.3-9.3-4.1-1.3-9.6 2.9-12.3 5.3-.6-.7-1.3-1.1-2.2-1-.9-.1-1.6.3-2.2 1 .9-1.1-9.7-5.6-11-5.5-4.5.3-4.5 6-4.6 9.5-.1 3.5-.7 7.1 1.5 8.4 3.6 2.1 11.3-.2 14.7-4.2.5.4 1 .6 1.6.6.6 0 1.2-.2 1.6-.6 3.3 3.9 10.8 5.9 14.5 4.1 2.4-1.3 1.8-4.6 1.7-8.3z"/>
  <path d="M75.3 125.4l.4.1c-.3-.1-.6-.3-.9-.4.2 0 .4.2.5.3zm-2.8-3.2s0 .1 0 0l4.3-.2c-1.1-.6-3.1 0-4.3.2zm-3.3 4c1.1-.6 1.5-1.9 1.4-3.1-.1.9-.5 2.6-1.4 3.1zm5.6-1.2c-.6-.4-1.2-.9-1.8-1.3.6.5 1.2 1 1.8 1.3zm5.4 1.4l-4.5-.9c1.4.6 3 .9 4.5.9 0 .1.1 0 0 0zm-13-6c-.2 1.7-.7 3.6.4 5l.1.1c-.5-1.7-.3-3.3-.5-5.1zm-2.2 2.5c-1.8-.3-4.1-1.7-5.8-.7l5.8.7c0 .1 0 0 0 0zm.5.8c-2.8 1.6-5.5 1.5-8.6 1.6 2.6 1.9 6.1-.2 8.6-1.6zm9.7-4.1c-.6.3-1.1.6-1.6 1l5.9-2.3c-1.5 0-3 .7-4.3 1.3zm-17-.5c1.3.1 2.7.2 3.9.8 1.3.6 2.6 1.5 3.5 2.6-1.7-2.4-4.4-3.5-7.4-3.4z" fill="#FFF"/>
  <path fill="#FFF" stroke="#00AB9F" stroke-width="1.323" stroke-miterlimit="10" d="M105.1 59.7s1.2-11.1 4.7-8c2.8 2.6 4.2 14.4 2.5 22.7-.8 3.7-5.2 7.9-7 6.1-1.9-1.8-.2-20.8-.2-20.8"/>
  <path fill="#FFF" d="M31 60.6s-1.6-11.1-5.3-7.9c-3.8 3.4-3.4 17.6-2.1 22.8.9 3.7 5.8 7.7 7.8 5.9 2-1.9-.4-20.8-.4-20.8"/>
  <path fill="#FFF" d="M29.3 42.1c0 3.9-2.5 35.1 8.4 48.8 6.2 7.8 14.9 15.3 19.9 16.5 8.2 1.9 13.5 3.4 20.8 1.8 7.2-1.6 17.9-9.1 24.4-23.7 3.1-6.9 11.6-61.5-4.1-76.9C88.4-1.4 65.9-.1 57.1.3c-8.8.4-28.2 3.5-27.8 41.8"/>
  <path fill="#00AB9F" d="M53.1 87.4s12.7 4.5 25 1.7c12.3-2.9 8.1-.5 6.2-.2-1.9.3-18.1 10.4-31.2-1.5"/>
  <path opacity=".5" fill="#00AB9F" d="M60.3 95.4s1.1.5 2.7.8c.8.1 1.8.3 2.9.3 1.1.1 2.2 0 3.3 0 .8-.1 1.7-.2 2.5-.3 1.4-.2 2.6-.5 3.7-.8 1.6-.5 2.7-1 2.7-1s-1.1 0-2.8.2c-.8.1-1.8.2-2.8.3-1 .1-2.1.2-3.2.3-2.2.2-4.4.3-6.1.3-1.7-.1-2.9-.1-2.9-.1"/>
  <path fill="#00AB9F" d="M65.3 72.1l3 .5c.9.1 2 .2 3 .1.5-.1 1-.2 1.2-.5.1-.1.1-.1.1-.2v-.1s0-.1 0 0v-.1l.1-.2c.1-.3.1-.5.1-.8.1-1.2 0-2.4 0-3.5-.1-1.1-.1-2.2-.2-3.1-.1-1.8-.2-3.1-.2-3.1s.5 1.2.9 3c.2.9.4 2 .6 3.1.2 1.2.3 2.4.2 3.7-.1.3-.1.8-.2 1l.1.3v.2l-.1.2c-.1.2-.2.4-.4.5-.6.6-1.4.7-2 .8-.6 0-1.2 0-1.8-.1-.5-.1-1-.2-1.5-.4-1.8-.6-2.9-1.3-2.9-1.3zM54.1 56.7c0 2.1-1.7 3.8-3.9 3.8-2.1 0-3.9-1.7-3.9-3.8 0-2.1 1.7-3.8 3.9-3.8s3.9 1.7 3.9 3.8"/>
  <path fill="#FFF" d="M48.7 56.7c0 .7-.4 1.3-.9 1.3s-.9-.6-.9-1.3c0-.7.4-1.3.9-1.3.5-.1.9.5.9 1.3"/>
  <path fill="#00AB9F" d="M39.4 59l.2-.2c1-.9 5.6-4.6 10.6-4.6 2.9 0 6 1.2 8.8 4.9l.9-1.1c-3-4.1-6.6-5.5-9.8-5.4-6.3 0-11.6 5-11.6 5.1l.9 1.3z"/>
  <path opacity=".5" fill="#00AB9F" d="M39.8 64s1 .6 2.7 1c.8.2 1.8.4 2.9.6 1.1.2 2.2.2 3.3.3.8 0 1.7 0 2.5-.1 1.4-.1 2.7-.3 3.7-.5 1.7-.3 2.7-.7 2.7-.7s-1.1-.1-2.8-.1h-6.2c-2.2 0-4.4-.1-6.1-.2-1.6-.1-2.7-.3-2.7-.3"/>
  <path fill="#00AB9F" d="M86.5 56.2c0 2.1 1.7 3.8 3.9 3.8s3.9-1.7 3.9-3.8c0-2.1-1.7-3.8-3.9-3.8-2.2-.1-3.9 1.7-3.9 3.8"/>
  <path fill="#FFF" d="M89.4 56.1c0 .7-.4 1.3-.9 1.3s-.9-.6-.9-1.3c0-.7.4-1.3.9-1.3s.9.6.9 1.3"/>
  <path fill="#00AB9F" d="M102 57.2s-5.3-5.1-11.6-5.1c-3.2 0-6.7 1.4-9.8 5.4l.9 1.1c2.8-3.7 5.9-4.9 8.8-4.9 2.9 0 5.6 1.2 7.6 2.4 1 .6 1.8 1.2 2.4 1.6.3.2.5.4.6.5l.2.2.9-1.2z"/>
  <path opacity=".5" fill="#00AB9F" d="M81.4 64.4s1 .5 2.7.8c.8.2 1.8.3 2.9.4 1.1.1 2.2.1 3.3 0 .8 0 1.7-.1 2.5-.2 1.4-.2 2.6-.5 3.7-.7 1.6-.4 2.7-.9 2.7-.9s-1.1 0-2.8.1c-.8.1-1.8.1-2.8.2-1 .1-2.1.1-3.2.2-2.2.1-4.4.2-6.1.2-1.8-.1-2.9-.1-2.9-.1"/>
  <path fill="#00AB9F" d="M57.8 32.6s4.9 4.4.8 5.2c-4.2.8-10.9-.7-14 0-3 .7-8.9 3-8.9 3l-.4-2.5c0-.1 8.1-7.7 22.5-5.7zm22.4 1.5s-4.8 4.2-.6 5.2c4.2.9 10.9-.3 14 .5 3.1.8 9 3.3 9 3.3l.3-2.5s-8.4-8-22.7-6.5z"/>
  <path opacity=".5" fill="#00AB9F" d="M59.6 11.4s1 .6 2.6 1.2c.8.3 1.8.6 2.8.8 1 .2 2.2.4 3.3.5.8.1 1.7.1 2.5.1 1.4 0 2.7-.1 3.7-.2 1.7-.2 2.8-.5 2.8-.5s-1.1-.1-2.8-.3c-.8-.1-1.8-.1-2.8-.2-1-.1-2.1-.1-3.2-.2-2.2-.2-4.4-.4-6.1-.6-1.7-.5-2.8-.6-2.8-.6m18.8 15.9s-1-.6-2.6-1.2c-.8-.3-1.8-.6-2.8-.8-1-.2-2.2-.4-3.3-.5-.8-.1-1.7-.1-2.5-.1-1.4 0-2.7.1-3.7.2-1.7.2-2.8.5-2.8.5s1.1.1 2.8.3c.8.1 1.8.1 2.8.2 1 .1 2.1.1 3.2.2 2.2.2 4.4.4 6.1.6 1.6.4 2.8.6 2.8.6m10.7-7s-2.1-.6-5.5-1.2c-1.7-.3-3.8-.6-6-.8-2.2-.2-4.6-.4-7-.5-1.8-.1-3.6-.1-5.3-.1-2.9 0-5.7.1-7.9.2-3.6.2-5.9.5-5.9.5s2.4.1 5.9.3c1.8.1 3.8.1 6 .2s4.5.1 6.9.2c4.7.2 9.3.4 12.8.6 3.6.4 6 .6 6 .6"/>
  <path d="M24.8 27.6s-12 3.7-10.3 11.1 5.1 7 5.1 7-6.9 6.3-2.3 9.2 8.6 0 8.6 0 10.8 2.6 6.4-7.8 0-13.2 0-13.2 4.2-9.8-7.5-6.3zm88.7 0s12 3.7 10.3 11.1c-1.7 7.4-5.1 7-5.1 7s6.9 6.3 2.3 9.2c-4.7 2.9-8.6 0-8.6 0s-10.8 2.6-6.4-7.8 0-13.2 0-13.2-4.2-9.8 7.5-6.3z" fill="#00AB9F" stroke="#FFF" stroke-miterlimit="10"/>
  <g fill="#00AB9F">
    <path d="M113.9 54.7c-.1-.6-.5-1.2-1-1.7-2.6-2.7-4.8-5.6-8.5-6.9-5.2-1.9-11.8-2.2-17.3-2.1-4.7.1-10 1-13.1 5-1.3 1.6-2.7 2.5-4.8 2.4v3.8h.1c1.4 0 2.4.5 2.9 1.7.4 1 .7 2 1 3 1.3 4.3 3.1 8.6 6.4 11.8 3.8 3.8 9.5 4.5 14.7 4.6 4.1 0 8.4-.9 11.7-3.5 3.7-3 5.1-8 5.8-12.5.2-.9.4-1.5 1.4-1.6.3 0 .7-.4.7-.7 0-1.1.1-2.2 0-3.3zm-4.9 4.8c-.2 2.6-.4 6.5-1.7 8.9-.3.5-.7 1-1 1.4-6.8 7.7-22.5 4.7-27.3-2.1-2.2-3-3.1-7.8-3.4-11.6-1-10.6 14-10.6 21-9.8 3.6.4 8.1 1.1 10.4 4.1 1.9 2.6 2.2 5.9 2 9.1z"/>
    <path d="M25.1 58c0 .2.4.6.7.7 1 .1 1.3.6 1.4 1.6.7 4.5 2.1 9.5 5.8 12.5 3.2 2.6 7.6 3.6 11.7 3.5 5.2-.1 10.9-.8 14.7-4.6 3.3-3.2 5.1-7.4 6.4-11.8.3-1 .6-2 1-3 .5-1.3 1.5-1.7 2.9-1.7h.1v-3.8c-2.1.1-3.5-.8-4.8-2.4-3.1-4-8.4-4.9-13.1-5-5.5-.2-12.1.1-17.3 2.1-3.7 1.4-5.9 4.2-8.5 6.9-.4.5-.9 1.1-1 1.7-.1 1.1-.1 2.2 0 3.3zm6.9-7.5c2.3-3 6.9-3.7 10.4-4.1 7-.8 22-.9 21 9.8-.3 3.7-1.2 8.5-3.4 11.6-4.8 6.8-20.5 9.8-27.3 2.1-.4-.4-.7-.9-1-1.4-1.4-2.3-1.5-6.2-1.7-8.9-.3-3.3.1-6.6 2-9.1z"/>
  </g>
</svg>