<svg xmlns="http://www.w3.org/2000/svg" width="136.8" height="162.4" viewBox="0 0 136.8 162.4">
  <path fill="#FFF" d="M24.7 153.1c.9 1.8 1.3 3.5-1 3.6l-.7-.8-4-5-1 1.5c-.6.9-.7 1.9-.3 2.9.3.7.7 1.6 1 2.1.2.4.5.8 1 1l2.7 1.7c.6.4.4 1 .3 1.5l-.4.4c-.5.5-1.5.6-2.2.2l-3-1.9c-.3-.1-.5-.2-.7-.4l-4.8-6.6c-.3-.4-.8-2.3-.8-2.7l1.6-7.5c0-.2.1-1.8 0-2L4 109.8l-.3-5.6S3.2 76.3 5 76.6l17.1 2.9c1.3.2-2.1 14.9-2.1 14.9-1.5 7.1-2.1 9.5-2.3 13.7l3.5 34c0 .2 0 .3.1.5l3.4 10.5zm87.6-2.6c-.9 1.8-1.3 3.5 1 3.6l.7-.8 4-5 1 1.5c.6.9.7 1.9.3 2.9-.3.7-.7 1.6-1 2.1-.2.4-.5.8-1 1l-2.7 1.7c-.6.4-.4 1-.3 1.5l.4.4c.5.5 1.5.6 2.2.2l3-1.9c.3-.1.5-.2.7-.4l4.8-6.6c.3-.4.8-2.3.8-2.7l-1.6-7.5c0-.2-.1-1.8 0-2l8.6-31.2.3-5.6s.5-27.9-1.3-27.6L115.1 77c-1.3.2 2.1 14.9 2.1 14.9 1.5 7.1 2.1 9.5 2.3 13.7l-3.5 34c0 .2 0 .3-.1.5l-3.6 10.4z"/>
  <path fill="#FFF" stroke="#00A78E" stroke-width="1.589" stroke-miterlimit="10" d="M6.4 24s56.1-32.5 121.4 2.9l8.3 64.1-7.2 47.2-15.1-2.8.6-34.4-3.8-42.3s-1 30.1-2.2 47.3c-1.3 18.8-10.1 36.7-10.1 36.7H34s-6.8-28-6.4-40c.4-13.9.1-41.1.1-41.1l-7.2 45 4 28.9-17 .6-6.7-30.3L6.4 24z"/>
  <path fill="none" stroke="#00A78E" stroke-width="2.777" stroke-miterlimit="10" d="M65.6 93.7V152"/>
  <path fill="#00A78E" d="M75.3 84.3L65.1 98.4 54.9 84.3l10.2-52.1"/>
  <path fill="#FFF" stroke="#00A78E" stroke-width="1.589" stroke-miterlimit="10" d="M57.5.9s.3 10.6-4.7 13.5c-4.5 2.6-6.5 3.2-6.5 3.2L64.6 35s14-12.8 21.2-15.7c-9.5-2.6-8.8-5.8-8.8-5.8l-1.7-11L57.5.9z"/>
  <path fill="#00A78E" d="M65.105 18.25l8.414 8.416-8.42 8.414-8.42-8.414z"/>
</svg>