<svg xmlns="http://www.w3.org/2000/svg" viewBox="0 0 98.8 392.7">
  <path fill="#FFF" d="M40.1 392.5s-.6-5.7-10.7-5.2-10.8 4.3-11.2 5.3m14.8.1L28 313l-6.2-61.6c-1.2-13.4-1.1-15.7 0-19.8.5-1.8 1.8-6.3 1.8-6.3l48.8.1s1.3 4.9 1.6 5.8c1.2 3.4 3.2 10.3 1.1 20.7l-9.7 61.8-8.4 78.6h-7.7l3.4-90.6-1.4-51.4c0-2.7-.4-3.3-2.3-3.3h-1c-1.9 0-2.5 1-2.5 3.7l-2.9 51.6-2.1 90-7.5.4zm17-.2s.6-5.7 10.7-5.2 10.8 4.3 11.2 5.3"/>
  <path fill="#FFF" stroke="#00A78E" stroke-width="2.188" stroke-miterlimit="10" d="M43.4 121.9s-2.2 4.2-4.8 8.5c-2.6 4.2-8.8 9.3-8.8 9.3s8.5 6.7 19.5 6.5c8.9-.2 13-.9 20.2-6.5-8.4-1.8-9.7-6.4-11.1-9.5-2-4.4-2.5-8.1-1.7-8.2-8.9.2-13.3-.1-13.3-.1z"/>
  <path fill="#FFF" d="M81.6 279.9c-.9 0-1.3-.4-1.5-.8-.2-.3-.3-.9.2-1.7.7-1.1 1.2-1.4 1.8-1.8.4-.3 1-.6 2-1.5 2.3-2.2 2.7-3 2.3-5.3-.1-.4-.1-.7-.1-1-.1-.4-.1-.8-.2-.9-.1 0-1.4-.3-1.4-.3h-.3c-.8 0-.9 1.6-1 3.3 0 1.3-.1 2.7-1.4 2.7-.3 0-.6-.1-1-.4-.2-.2-.4-.3-.5-.5.4 3.9 0 4-.7 4.2h-.3c-.6 0-1.9-.3-5-.9-6.2-1.3-17.9-3.8-26.2-3.8s-20.5 2.4-27.8 3.8c-3.4.7-4.9 1-5.5 1h-.3c-.7-.2-1-.2-.7-3.6-.3.2-.6.4-.9.4-1.3 0-1.3-1.4-1.4-2.7 0-1.7-.2-3.3-1-3.3h-.5c-.5.1-1.1.2-1.2.3 0 0 0 .5-.1.9 0 .3-.1.6-.1 1-.3 2.3 0 3.2 2.3 5.3 1 .9 1.5 1.3 2 1.5.7.4 1.1.7 1.8 1.8.5.8.4 1.3.2 1.7-.2.3-.6.8-1.5.8-1.6 0-4.5-1.3-6.3-2.7-3-2.4-6.1-9.4-6.5-11.3s2.4-8.4 3.5-10.6l-2.3-41c-.1-6.6-1.3-64.4 3.1-69.5 4.5-5.2 18-5.7 18.6-5.7h.1l1.5.1c1-.1 1.7-.1 1.7-.1h.1l20.5 1.4 20.5-1.4h.1s.6 0 1.6.1l1.6-.1h.1c.6 0 14 .6 18.6 5.7 4.4 5.1 3.3 62.9 3.1 69.4l-2.3 41c1 2.3 3.9 8.8 3.5 10.7-.4 1.9-3.5 8.9-6.5 11.3-1.8 1.3-4.7 2.5-6.3 2.5zm-7.3-98.2c-.6 3.2-1.4 4.9-2 6.2-.5 1.1-.9 1.9-1 3.2-.6 7.1 3.4 36 6.3 57 1.1 8 1.9 13.6 2.4 17.6 0-.3.1-.6.1-.9.1-.5.1-1 .2-1.6.4-3.6 1.8-6.2 4.1-7.4.7-3.3-3.3-28.5-6-43.9l-4.1-30.2zM11.1 256c2.3 1.2 3.7 3.8 4.1 7.4 0 .2 0 .5.1.7.5-3.8 1.3-8.8 2.2-15.5 3.1-21.2 7.3-50.2 6.7-57.4-.1-1.3-.5-2.1-1-3.2-.6-1.3-1.4-3-2-6.2L17.1 212c-2.7 15.5-6.7 40.7-6 44z"/>
  <path fill="#00A78E" d="M71.5 140s13.6.5 17.8 5.4c4.3 4.9 2.9 68.8 2.9 68.8l-2.3 41.2s3.9 8.5 3.5 10.2c-.4 1.8-3.4 8.5-6.1 10.8-1.8 1.5-4.5 2.5-5.7 2.5-.6 0-.9-.3-.5-.9 1.2-1.8 1.4-1 3.7-3.2 2.5-2.3 3-3.5 2.6-6.2s0-2.5-2.4-3c-.2 0-.4-.1-.5-.1-2.9 0-1.4 6-2.3 6-.1 0-.2 0-.3-.2-1.6-1.3-1-4.1-.6-8 .4-3.6 1.8-5.8 3.8-6.7 2-.9-5.7-44.8-5.7-44.8l-5.3-38.6c-.6 14.1-3.5 13.4-3.9 17.8-1 12.1 10.7 83.5 9.5 83.8h-.1c-1.8 0-19.4-4.8-31.2-4.8-11.7 0-31.4 4.8-33.3 4.8H15c-1.2-.3 11-71.7 10-83.8-.4-4.4-3.2-3.7-3.9-17.8l-5.3 38.6s-7.7 43.9-5.7 44.8 3.4 3.1 3.8 6.7c.4 3.9 1 6.6-.6 8-.1.1-.2.2-.3.2-.9 0 .6-6-2.3-6-.2 0-.3 0-.5.1-2.4.5-2 .3-2.4 3s.2 3.9 2.6 6.2c2.3 2.2 2.5 1.4 3.7 3.2.4.6.1.9-.5.9-1.2 0-3.9-1-5.7-2.5-2.7-2.2-5.7-9-6.1-10.8s3.5-10.2 3.5-10.2L3 214.2s-1.4-63.8 2.9-68.8c4.3-4.9 17.8-5.4 17.8-5.4l1.6.1c1-.1 1.7-.1 1.7-.1l20.5 1.4L68 140s.6 0 1.7.1l1.8-.1m-3.3-2l-20.5 1.4-20.4-1.4h-.2s-.6 0-1.6.1l-1.4-.1h-.2c-1.5.1-14.6.7-19.3 6.1-.9 1.1-3.2 3.6-3.5 37.5-.2 16.4.2 32.4.2 32.6L3.5 255c-1.9 4.1-3.9 9.1-3.4 11.1.4 1.8 3.5 9.2 6.8 11.9 2 1.6 5.1 3 7 3 1.5 0 2.1-.8 2.4-1.3s.6-1.5-.2-2.7l-.1-.1c.9-.1 2.4-.4 5.1-.9 6.8-1.3 19.4-3.8 27.6-3.8s19.8 2.5 26 3.8c3 .7 4.3.9 5 1 0 0 0 .1-.1.1-.8 1.2-.5 2.2-.2 2.7s.9 1.3 2.4 1.3c1.8 0 5-1.3 7-3 3.3-2.7 6.4-10 6.8-11.9s-1.6-7-3.4-11l2.3-40.7c0-.2.4-16.2.2-32.6-.4-33.9-2.6-36.4-3.6-37.5-4.7-5.4-17.8-6-19.3-6.1h-.2l-1.4.1c-1-.1-1.6-.1-1.6-.1l-.4-.3zm12 121.5c-.5-3.4-1-7.3-1.6-11.4-2.9-21-6.9-49.8-6.3-56.8.1-1.2.4-1.8.9-2.9.2-.5.5-1.1.8-1.7l3.5 25.5c3.2 18.5 6.2 39 6 43.1-1.5 1-2.6 2.4-3.3 4.2zM12 255.4c-.2-4.2 2.8-24.6 6-43.1l3.5-25.5c.3.7.5 1.2.8 1.7.5 1.1.8 1.7.9 2.9.6 7-3.6 36-6.7 57.2-.5 3.7-1 7.2-1.5 10.3-.7-1.6-1.7-2.8-3-3.5zm-1.8 12.3c.1 0 .3-.1.5-.1h.1c.2.6.2 1.7.2 2.3 0 1.2.1 3.6 2.2 3.7v.7c-.3-.2-.6-.5-1-.9-2.2-2-2.3-2.6-2-4.5.1-.4.1-.7.1-1-.2 0-.2-.1-.1-.2zm72 5.9c2.3 0 2.3-2.5 2.4-3.7 0-.5 0-1.7.2-2.3h.1c.2 0 .3.1.5.1v.2c0 .3.1.6.1 1 .3 1.9.1 2.4-2 4.5-.7.7-1.2 1-1.6 1.3v-1.1h.3z"/>
  <path fill="#D20962" stroke="#00A78E" stroke-width="2" stroke-miterlimit="10" d="M29.8 139.7l-3.2 6.5 17.6 8.4 5.1-8.4zm39.5 0l3.1 6.5-17.5 8.4-5.1-8.4z"/>
  <path fill="none" stroke="#00A78E" stroke-width="2" stroke-miterlimit="10" d="M49.8 146.2v123.9"/>
  <path fill="#00A78E" d="M45.4 165.4c1.9 0 1.9-3 0-3-2 0-2 3 0 3zm0 24.6c1.9 0 1.9-3 0-3-2 0-2 3 0 3zm0 24.6c1.9 0 1.9-3 0-3-2 0-2 3 0 3zm0 24.6c1.9 0 1.9-3 0-3-2 0-2 3 0 3zm0 24.6c1.9 0 1.9-3 0-3-2 0-2 3 0 3z"/>
  <path fill="#D20962" stroke="#00A78E" stroke-width="2" stroke-miterlimit="10" d="M4.2 251.2h7.1v6H4.2zm79.9 0h7.1v6h-7.1z"/>
  <path fill="none" stroke="#00A78E" stroke-width="2" stroke-miterlimit="10" d="M21 255.1l20.1-8.5m33.8 8.5l-20.2-8.5"/>
  <circle fill="#00A78E" stroke="#FFF" stroke-miterlimit="10" cx="74.6" cy="24.2" r="23.7"/>
  <path fill="#FFF" d="M8.1 62.7c3.6-38.7 17.5-42 27.6-42.5s36-2.1 47.8 10.5c8.9 9.5 8.7 11.4 4.9 40.2-2 15.2.4 20.8-14.9 36.7-15.1 15.7-14.4 13.6-31 13.6-4 0-11.3-4.8-21.4-14.2C5.6 92.6 8.5 78.7 8.1 73.9"/>
  <path d="M85.1 71.3s1.2-11.1 4.7-8c2.8 2.6 4.2 14.4 2.5 22.7-.8 3.7-5.2 7.9-7 6.1-1.9-1.8-.2-20.8-.2-20.8m-74 .9s-1.6-11.1-5.3-7.9C2 67.7 2.4 81.9 3.7 87.1c.9 3.7 5.8 7.7 7.8 5.9 1.9-1.9-.4-20.8-.4-20.8" fill="#FFF"/>
  <path fill="#00A78E" d="M37.5 103.4s14.9 7.3 23.6-4.5c-6.3 20.2-25.4 3.1-23.6 4.5z"/>
  <path fill="#FFF" d="M49 80.1s2.6 7.6 4.8 10.1c8.2 9-14.4 7.6-8.7 4.3"/>
  <path fill="#00A78E" d="M49 80.1s.2.4.7 1.1c.2.4.4.8.7 1.3s.6 1.1.9 1.7c.3.6.7 1.3 1.1 2 .4.7.8 1.4 1.3 2.1s.9 1.2 1.6 2c.6.8 1.2 1.8 1.4 3.1.1.7-.1 1.4-.5 2s-.8 1-1.3 1.3c-1 .6-2 .8-2.9 1-1.9.3-3.6.1-5.1-.2-.7-.2-1.4-.4-1.9-.7-.3-.1-.5-.3-.7-.6-.2-.2-.3-.6-.2-.9.2-.5.6-.6.8-.7s.3-.1.3-.1-.1.1-.3.2-.4.4-.5.7c-.1.3.3.5.8.6.5.2 1.1.2 1.8.2 1.3 0 3 0 4.6-.5.8-.2 1.6-.5 2.2-.9.6-.5.9-.9.8-1.4 0-.6-.5-1.3-1-2-.5-.6-1.2-1.5-1.7-2.3-.9-1.6-1.5-3.2-1.9-4.6-.8-2.4-1-4.4-1-4.4zm-12.2-7.6c0 2.4-2.2 4.4-4.8 4.4-2.7 0-4.8-2-4.8-4.4s2.2-4.4 4.8-4.4 4.8 2 4.8 4.4"/>
  <path fill="#FFF" d="M35.2 72.5c0 .7-.4 1.3-.9 1.3s-.9-.6-.9-1.3c0-.7.4-1.3.9-1.3s.9.6.9 1.3"/>
  <path fill="#00A78E" d="M40.5 72.7s-.4-.3-1-.8-1.6-1.1-2.7-1.6c-.6-.3-1.2-.5-1.8-.8-.7-.2-1.3-.4-2.1-.5-.7-.1-1.4-.1-2.2 0-.7 0-1.5.3-2.2.5-.7.3-1.4.6-2.1 1.1-.7.4-1.3.9-1.9 1.5-.6.5-1.3 1.2-2 1.6-.4.2-.8.4-1.1.5-.4.1-.7.2-1.1.2-1.4.1-2.5-.2-3.1-.6-.7-.4-1-.8-1-.8s.4.2 1.1.3c.7.1 1.7 0 2.8-.4.3-.1.6-.2.8-.4.3-.2.6-.3.8-.5.5-.4.9-1 1.6-1.7s1.3-1.4 2.1-1.9c.7-.6 1.6-1 2.5-1.4.9-.3 1.8-.6 2.7-.6.9-.1 1.8.1 2.6.3.4.1.8.2 1.2.4.4.2.7.4 1.1.5.7.4 1.3.8 1.9 1.3.6.4 1 .9 1.4 1.4.4.4.7.9 1 1.2.5.7.7 1.2.7 1.2m2.1-14.2s2.2 3.3-5.1 2.9c-7.3-.4-12.3-7.1-16.3-3.5s-9.9 4.3-4.5 1 4.7-6 12-4.3 13.7 2.6 13.9 3.9zm18.6 13.6c0 2.4 2.2 4.4 4.8 4.4 2.7 0 4.8-2 4.8-4.4s-2.2-4.4-4.8-4.4c-2.6 0-4.8 2-4.8 4.4"/>
  <path fill="#FFF" d="M69.4 72.5c0 .7-.4 1.3-.9 1.3s-.9-.6-.9-1.3c0-.7.4-1.3.9-1.3s.9.6.9 1.3"/>
  <path fill="#00A78E" d="M57.1 72.2s.4-.3 1-.8 1.6-1.1 2.7-1.6c.6-.3 1.2-.5 1.8-.8.7-.2 1.4-.4 2.1-.5s1.5-.1 2.2 0c.7 0 1.5.3 2.2.5.7.3 1.4.6 2.1 1.1.7.4 1.3.9 1.9 1.5.6.5 1.3 1.2 2.1 1.6.4.2.8.4 1.1.5.4.1.7.2 1.1.2 1.4.1 2.5-.2 3.2-.6s1-.8 1-.8-.4.2-1.1.3c-.7.1-1.7 0-2.8-.4-.3-.1-.6-.2-.8-.4-.3-.2-.6-.3-.8-.5-.5-.4-.9-1-1.7-1.7-.7-.7-1.3-1.4-2.1-1.9-.8-.6-1.6-1-2.5-1.4-.9-.3-1.8-.6-2.7-.6-.9-.1-1.8.1-2.6.3-.4.1-.8.2-1.2.4-.4.2-.7.4-1.1.5-.7.4-1.3.8-1.9 1.3-.6.4-1 .9-1.4 1.4-.4.4-.7.9-1 1.2-.5.8-.8 1.2-.8 1.2M54.7 58s-2.2 3.4 5.1 2.4S72 52.2 76 55.5s9.9 3.4 4.5.6c-5.4-2.9-4.8-5.6-12-3.3-7.2 2.4-13.5 3.9-13.8 5.2z"/>
  <path fill="#00A78E" stroke="#FFF" stroke-miterlimit="10" d="M66.8 32.6s16.3 13.5 18 24.4-.1 31.7-.1 31.7 6.5-19.2 7.5-28c.7-5.9.8-14.1.3-21.8C92 31.1 82.6 22.4 75 23h-.3c-11.6 1.1-7.9 9.6-7.9 9.6z"/>
  <path fill="#00A78E" stroke="#FFF" stroke-miterlimit="10" d="M6.8 63.7S7.1 26.5 29.4 21s45.3 2 45.3 2S57.3 56.3 6.8 63.7z"/>
</svg>