<?xml version="1.0" encoding="utf-8"?>
<!-- Generator: Adobe Illustrator 19.0.0, SVG Export Plug-In . SVG Version: 6.00 Build 0)  -->
<svg version="1.1" id="Layer_1" xmlns="http://www.w3.org/2000/svg" xmlns:xlink="http://www.w3.org/1999/xlink" x="0px" y="0px"
	 viewBox="-233 219.3 132.2 162.7" style="enable-background:new -233 219.3 132.2 162.7;" xml:space="preserve">
<style type="text/css">
	.st0{fill:#FFFFFF;}
	.st1{fill:none;stroke:#00A78E;stroke-width:3;stroke-linejoin:bevel;stroke-miterlimit:10;}
	.st2{fill:#00A78E;}
	.st3{fill:none;stroke:#00A78E;stroke-width:2;stroke-miterlimit:10;}
</style>
<path class="st0" d="M-197.1,337.7c2.9,1.7,5.3,2.7,7.2,3.1c1.6,0.3,2.8,0.1,3.4-0.8c1.5-1.8,1-6.2,0.5-8.1l-0.5-2.5l-20.1,1.4
	c0.2,1,0.3,1.1,0.5,1.2C-204.6,332.9-202.1,334.5-197.1,337.7"/>
<path class="st1" d="M-197.1,337.7c2.9,1.7,5.3,2.7,7.2,3.1c1.6,0.3,2.8,0.1,3.4-0.8c1.5-1.8,1-6.2,0.5-8.1l-0.5-2.5l-20.1,1.4
	c0.2,1,0.3,1.1,0.5,1.2C-204.6,332.9-202.1,334.5-197.1,337.7z"/>
<path class="st0" d="M-168.4,348.1c0,0.4,0.9,11.8,13.9,21.2l3.4,2.6c1.4,1.1,0.9,2.3,0.7,3.1l-0.4,0.7l19.4-4.4l-37-27.7V348.1
	L-168.4,348.1z"/>
<path class="st1" d="M-168.4,348.1c0,0.4,0.9,11.8,13.9,21.2l3.4,2.6c1.4,1.1,0.9,2.3,0.7,3.1l-0.4,0.7l19.4-4.4l-37-27.7V348.1
	L-168.4,348.1z"/>
<path class="st0" d="M-110.6,297.9c-1.2-1.4-2.6-2.7-4.2-3.8l-101.1-72.3l-11,2.1c-2.4,0.1-3.9,2-3.9,4.8v60.8
	c0,4.7,3.7,11.1,8.4,14.5l100.8,73.6c2.6,1.9,5.3,2.6,7.1,1.7l0.6-0.3v0.1l10.8-3.8v-63.1C-103.1,307.5-107.1,301.8-110.6,297.9
	 M-114.7,374.2c0,2.2-1.2,3.3-3.2,2.7c-0.8-0.2-1.7-0.7-2.7-1.4L-221.3,302c-3.7-2.7-6.9-8.1-6.9-11.8v-60.9c0-0.9,0.2-2.1,1.2-2.6
	h0.1l1-0.2c1,0,2.2,0.6,3.5,1.5l100.8,73.6c3.5,2.6,6.5,7.5,6.9,11.1C-114.7,312.7-114.7,374.2-114.7,374.2z M-105.6,373.3l-6.6,2.3
	V314c0-4.7-3.7-11.1-8.4-14.5l-101.1-73.9l5.8-1.1l0.3,0.2l99.8,71.4c1.3,1,2.5,2.1,3.6,3.3c4.2,4.9,6.6,9.3,6.6,12.2
	C-105.6,311.6-105.6,373.3-105.6,373.3z"/>
<path class="st2" d="M-109.7,297.2c-1.3-1.5-2.8-2.9-4.5-4.1l-101.4-72.5l-0.3-0.2l-11.3,2.1c-3,0.2-4.8,2.4-4.8,5.8v60.8
	c0,5.2,4,12.2,9.1,15.9l32.2,23.5l0.5,2.8l0.2,1.1c0.2,1.3,0.3,4.2-0.9,5.3c-0.5,0.5-1.4,0.6-2.5,0.3c-1.3-0.4-3-1.2-5-2.5
	c-3.4-2.4-5-3.7-6-4.3c-0.1-0.1-0.2-0.2-0.3-0.2c-0.1-0.1-0.1-0.1-0.2-0.1c0,0-0.2-0.1-0.5-0.3c-0.4-0.2-0.8-0.2-1.2-0.1l-1.4,0.7
	c-0.5,0.3-0.8,0.8-0.6,1.4c0.1,0.7,0.5,1.2,1,1.7l0.7,0.6c0.3,0.2,0.5,0.4,0.8,0.6c0.8,0.6,2,1.4,3.7,2.7c0.6,0.5,1.3,0.9,1.8,1.3
	c5.3,3.8,11.8,8.6,11.8,8.6l32.6,23.8l3.4,2.5l1.8,1.2l1-2c0.2-0.4,0.8-1.5-0.7-3.1l-3.4-2.6c-12.8-9.4-11.9-20-11.9-20.4l0.1-0.8
	l32.8,23.9l11,8.1c1.5,1.1,2.9,1.8,4.3,2.1c1.5,0.4,2.9,0.3,4-0.1l12.1-4.2v-64C-101.8,307.4-106.1,301.3-109.7,297.2 M-103.1,375.3
	l-10.8,3.8V379l-0.6,0.3c-1.8,0.8-4.4,0.2-7.1-1.7L-222.4,304c-4.7-3.4-8.4-9.8-8.4-14.5v-60.8c0-2.9,1.5-4.7,3.9-4.8l11-2.1
	l101.1,72.3c1.5,1.1,3,2.4,4.2,3.8c3.4,3.9,7.5,9.6,7.5,14.3L-103.1,375.3L-103.1,375.3z M-151.7,371.1c1.1,1,0.9,1.5,0.7,1.9
	l-0.5,1l-1.1-0.8l-0.4-0.3l-35.2-25.7c0,0-6.5-4.8-11.9-8.6l-1.8-1.2c-1.7-1.3-2.9-2.1-3.7-2.7c-0.3-0.2-0.5-0.4-0.8-0.6l-0.2-0.1
	c-0.8-0.7-1-1-0.8-1.7l0.2-0.9l1,0.3c0.1,0,0.2,0,0.6,0.3l0.2,0.1c0.1,0,0.1,0.1,0.3,0.2c0.9,0.6,2.6,1.9,6,4.3
	c2.1,1.4,4,2.3,5.4,2.7c1.6,0.4,2.7,0.3,3.5-0.5c1.6-1.5,1.4-5,1.2-6.2l-0.4-2.5l22.1,16.1l-0.1,0.9c0,0.5-0.9,11.9,12.8,22l2.5,1.8
	L-151.7,371.1L-151.7,371.1z"/>
<path class="st3" d="M-109.7,297.2c-1.3-1.5-2.8-2.9-4.5-4.1l-101.4-72.5l-0.3-0.2l-11.3,2.1c-3,0.2-4.8,2.4-4.8,5.8v60.8
	c0,5.2,4,12.2,9.1,15.9l32.2,23.5l0.5,2.8l0.2,1.1c0.2,1.3,0.3,4.2-0.9,5.3c-0.5,0.5-1.4,0.6-2.5,0.3c-1.3-0.4-3-1.2-5-2.5
	c-3.4-2.4-5-3.7-6-4.3c-0.1-0.1-0.2-0.2-0.3-0.2c-0.1-0.1-0.1-0.1-0.2-0.1c0,0-0.2-0.1-0.5-0.3c-0.4-0.2-0.8-0.2-1.2-0.1l-1.4,0.7
	c-0.5,0.3-0.8,0.8-0.6,1.4c0.1,0.7,0.5,1.2,1,1.7l0.7,0.6c0.3,0.2,0.5,0.4,0.8,0.6c0.8,0.6,2,1.4,3.7,2.7c0.6,0.5,1.3,0.9,1.8,1.3
	c5.3,3.8,11.8,8.6,11.8,8.6l32.6,23.8l3.4,2.5l1.8,1.2l1-2c0.2-0.4,0.8-1.5-0.7-3.1l-3.4-2.6c-12.8-9.4-11.9-20-11.9-20.4l0.1-0.8
	l32.8,23.9l11,8.1c1.5,1.1,2.9,1.8,4.3,2.1c1.5,0.4,2.9,0.3,4-0.1l12.1-4.2v-64C-101.8,307.4-106.1,301.3-109.7,297.2L-109.7,297.2z
	 M-103.1,375.3l-10.8,3.8V379l-0.6,0.3c-1.8,0.8-4.4,0.2-7.1-1.7L-222.4,304c-4.7-3.4-8.4-9.8-8.4-14.5v-60.8c0-2.9,1.5-4.7,3.9-4.8
	l11-2.1l101.1,72.3c1.5,1.1,3,2.4,4.2,3.8c3.4,3.9,7.5,9.6,7.5,14.3L-103.1,375.3L-103.1,375.3z M-151.7,371.1
	c1.1,1,0.9,1.5,0.7,1.9l-0.5,1l-1.1-0.8l-0.4-0.3l-35.2-25.7c0,0-6.5-4.8-11.9-8.6l-1.8-1.2c-1.7-1.3-2.9-2.1-3.7-2.7
	c-0.3-0.2-0.5-0.4-0.8-0.6l-0.2-0.1c-0.8-0.7-1-1-0.8-1.7l0.2-0.9l1,0.3c0.1,0,0.2,0,0.6,0.3l0.2,0.1c0.1,0,0.1,0.1,0.3,0.2
	c0.9,0.6,2.6,1.9,6,4.3c2.1,1.4,4,2.3,5.4,2.7c1.6,0.4,2.7,0.3,3.5-0.5c1.6-1.5,1.4-5,1.2-6.2l-0.4-2.5l22.1,16.1l-0.1,0.9
	c0,0.5-0.9,11.9,12.8,22l2.5,1.8L-151.7,371.1L-151.7,371.1z"/>
<path class="st0" d="M-112.2,299.4c-1-1.2-2.2-2.3-3.6-3.3l-99.8-71.4l-0.3-0.2l-5.8,1.1l101.2,73.9c4.7,3.4,8.4,9.8,8.4,14.5v61.5
	l6.6-2.3v-61.7C-105.6,308.6-108,304.2-112.2,299.4"/>
<path class="st2" d="M-121.6,301.5l-100.8-73.6c-1.2-0.9-2.4-1.4-3.5-1.4l-1,0.2h-0.1c-1,0.5-1.2,1.7-1.2,2.6v60.8
	c0,3.7,3.2,9.1,6.9,11.8l100.8,73.6c0.9,0.7,1.9,1.2,2.7,1.4c2,0.5,3.2-0.5,3.2-2.7v-61.5C-115.1,309-118.1,304.1-121.6,301.5"/>
<path class="st0" d="M-167.3,347l0.1-0.9l-22.1-16.1l0.4,2.5c0.2,1.2,0.4,4.8-1.2,6.2c-0.8,0.7-1.9,0.9-3.5,0.5
	c-1.5-0.4-3.3-1.3-5.4-2.7c-3.4-2.5-5.1-3.7-6-4.3c-0.1-0.1-0.2-0.1-0.3-0.2l-0.2-0.1c-0.5-0.3-0.5-0.3-0.6-0.3l-1-0.3l-0.2,0.9
	c-0.2,0.6,0,1,0.8,1.7l0.2,0.1c0.3,0.2,0.5,0.4,0.8,0.6c0.8,0.6,2,1.4,3.7,2.7c0.6,0.4,1.2,0.9,1.8,1.2c5.3,3.9,11.9,8.6,11.9,8.6
	l35.1,25.8l0.4,0.3l1.1,0.8l0.5-1c0.2-0.4,0.4-0.8-0.7-1.9l-0.3-0.2l-2.5-1.8C-168.2,359-167.3,347.5-167.3,347 M-169.9,357.8
	c-8.6-6.3-17.1-12.5-17.2-12.6l-4.1-3l1.2-0.3c0.7-0.2,1.4-0.5,1.9-1c1.4-1.3,1.8-3.4,1.9-4.9l0.1-0.9l16.3,11.9v0.4
	c0,2.1,0.5,6.4,3.3,11.5l1.2,2.1L-169.9,357.8z"/>
<path class="st2" d="M-166.6,358.9c-2.7-5-3.2-9.3-3.3-11.5V347l-16.3-11.9l-0.1,0.9c-0.1,1.5-0.5,3.6-1.9,4.9
	c-0.5,0.5-1.2,0.8-1.9,1l-1.2,0.3l4.1,3c0.1,0.1,8.6,6.2,17.2,12.6l4.5,3.3L-166.6,358.9L-166.6,358.9z"/>
<path class="st0" d="M-223.7,232.7l99.7,73c1.4,1.3,4.1,4.5,4.1,7v45.9l-103.5-76.1L-223.7,232.7 M-225.4,228.2
	c-1.9,0-1.2,3.7-1.2,4.4l0.2,51.5l109.6,80.5v-51.9c0-4.7-5.2-9.3-5.2-9.3L-222.2,230C-223.7,228.7-224.7,228.2-225.4,228.2"/>
</svg>
