<svg xmlns="http://www.w3.org/2000/svg" width="185.3" height="614.8" viewBox="0 0 185.3 614.8">
  <path fill="#FFF" d="M156.4 449.5c-1 0-2-.4-2.7-1l-.8-.8-.2-.5c-.2-.8-.8-2.3.9-3.4l4.4-2.9c.6-.3 1-.8 1.2-1.2l1.5-3.5c.5-1.2.4-2.5-.4-3.6l-.8-1.2-6.9 9h-.5c-1.7 0-2.8-.5-3.4-1.5-.8-1.3-.6-3.1.7-5.8l5.3-17.3c.1-.2.1-.3.1-.5l4.6-55.7c-.4-3.1-1.4-7.3-2.8-12.6-.1-.2-.1-.4-.1-.5-3.6-11.7-9.5-31.7-8.1-34.1.2-.3.5-.6.9-.6l28.1-5.5h.2c1.3 0 2.7 0 5 23.6 1.1 11.2 1.8 22.5 1.8 22.6l-.2 9.3-13 51.6c0 .3.1 2.5.1 2.8l2.8 12.1c.2 1.2-.8 4.6-1.3 5.4l-7.7 11c-.4.5-.9.9-1.6 1.1l-4.7 3.2c-.8.3-1.6.5-2.4.5"/>
  <path fill="#00AB9F" d="M177.4 307.3c2.8 0 5.8 45.2 5.8 45.2l-.2 9.1-13 51.4c-.1.4.1 2.9.1 3.3l2.8 12.2c.1.8-.7 3.9-1.2 4.5l-7.7 11c-.3.4-.7.6-1.1.7L158 448c-.5.3-1.1.5-1.6.5-.7 0-1.4-.3-1.9-.7l-.6-.6c-.3-.8-.7-1.7.4-2.5l4.4-2.9c.8-.4 1.3-1 1.6-1.7.4-.9 1-2.3 1.5-3.5.7-1.5.5-3.2-.5-4.7l-1.7-2.4-6.4 8.4-1.1 1.4h-.1c-3.6 0-3.1-2.9-1.7-5.8l5.3-17.4c.1-.3.1-.5.1-.8l4.6-55.8c-.8-5.6-2.9-13.1-3-13.3 0 0-10.2-32.9-8.1-33.3l28.2-5.6c-.1 0-.1 0 0 0m0-2.2h-.5l-27.9 5.5c-.7.1-1.3.5-1.6 1.2-.6 1.1-1.3 2.2 3.4 19.2 2.2 7.7 4.5 15.3 4.6 15.8 0 .1.1.3.1.5 1.4 5.1 2.3 9.3 2.7 12.3l-4.6 55.5v.3l-5.3 17.3c-.9 1.9-1.9 4.7-.6 6.8.6.9 1.8 2 4.3 2h1.2l.6-.8 1.1-1.4 4.6-6c.6.8.7 1.7.3 2.5-.5 1.2-1.1 2.6-1.5 3.5-.1.2-.4.5-.7.7h-.2l-4.4 2.9c-2.3 1.6-1.6 3.9-1.3 4.7l.1.2.2.5.4.4.6.6c.9.8 2.1 1.3 3.4 1.3 1 0 2-.3 2.8-.8l4.6-3.1c.8-.3 1.5-.8 2-1.4l7.7-11c.7-1 1.7-4.7 1.5-6.1v-.2l-2.8-12.1c0-.4-.1-2-.1-2.5l13-51.3.1-.2v-.2l.2-9.1v-.2c0-.1-.8-11.5-1.8-22.6-.6-6.6-1.3-11.9-1.9-15.7-1.1-6.4-1.9-9-4.3-9"/>
  <path fill="#FFF" d="M152.8 118.6s2-18.2 7.7-13.1c4.7 4.2 6.8 23.7 4 37.2-1.2 6.1-8.5 12.9-11.5 9.9-3-2.9-.2-34-.2-34"/>
  <path fill="none" stroke="#00A78E" stroke-width="2.168" stroke-miterlimit="10" d="M152.8 118.6s2-18.2 7.7-13.1c4.7 4.2 6.8 23.7 4 37.2-1.2 6.1-8.5 12.9-11.5 9.9-3-2.9-.2-34-.2-34"/>
  <path fill="#FFF" d="M31.5 115.4s-2.6-18.1-8.7-12.9c-6.3 5.5-5.7 28.8-3.5 37.3 1.5 6 9.5 12.7 12.7 9.6 3.3-2.9-.5-34-.5-34"/>
  <path fill="#FFF" d="M28.7 89.8c.1 6.4-4.1 57.6 13.7 80 10.1 12.8 24.4 25 32.6 27 13.4 3.1 22.2 5.5 34 3 11.9-2.5 29.3-15 40-38.8 5.1-11.4 19-100.7-6.7-125.9-16.9-16.5-53.8-14.5-68.1-13.8-14.3.5-46.1 5.6-45.5 68.5m58.1 523.9s-2-15.5-33.8-14.1C21.3 601 18.8 611.2 17.6 614m148.8.5s-2-15.6-33.9-14.2c-31.9 1.4-34.3 11.7-35.5 14.4"/>
  <path fill="#FFF" d="M47.3 613.8l-6.7-193h100.5l-2.2 193H97.7V457.4c0-4.1-1.5-7.5-6.1-7.5s-6.1 3.3-6.1 7.5v156.4H47.3z"/>
  <path fill="#00A78E" d="M122 115c-.1 3.5 2.7 6.4 6.2 6.5 3.5.1 6.5-2.6 6.6-6.1.1-3.5-2.7-6.4-6.2-6.5-3.6-.1-6.5 2.6-6.6 6.1"/>
  <path fill="#00A78E" d="M146.3 115.9c-.1-.1-8.4-8.5-18.7-8.9-5.3-.2-11.1 1.9-16.3 8.4l1.5 1.9c4.8-6 9.9-7.8 14.7-7.6 4.7.1 9.1 2.2 12.3 4.3 1.6 1 2.9 2.1 3.8 2.8.5.4.8.7 1 .9l.3.3 1.4-2.1z"/>
  <path fill="#FFF" d="M126.7 115c0 1.2-.7 2.2-1.5 2.1-.8 0-1.4-1-1.4-2.2 0-1.2.7-2.2 1.5-2.1.8 0 1.4 1 1.4 2.2"/>
  <path fill="#00A78E" d="M63.8 115.6c-.1 3.5-3.1 6.2-6.6 6.1-3.5-.1-6.3-3-6.2-6.5.1-3.5 3.1-6.2 6.6-6.1 3.6.1 6.4 3 6.2 6.5"/>
  <path fill="#00A78E" d="M39.7 117.3l.4-.3c1.7-1.4 9.4-7.2 17.6-6.9 4.8.2 9.8 2.3 14.2 8.6l1.6-1.8c-4.7-6.8-10.4-9.3-15.7-9.5-10.3-.3-19.2 7.6-19.3 7.6l1.2 2.3z"/>
  <path fill="#FFF" d="M55 115.1c0 1.2-.7 2.2-1.6 2.1-.8 0-1.4-1-1.4-2.2 0-1.2.7-2.2 1.6-2.1.8 0 1.4 1 1.4 2.2"/>
  <path fill="#00A78E" d="M75.7 73.2s9.1 5.9 2.5 8.2c-6.5 2.3-17.9 1.6-22.6 3.4-4.7 1.8-13.8 7-13.8 7l-1.2-4c0 .1 11.3-14.3 35.1-14.6m36.5 6s-7.8 6.9-1 8.5c6.9 1.5 17.9-.5 22.9.7 5 1.3 14.8 5.4 14.8 5.4l.5-4.1s-13.7-13-37.2-10.5"/>
  <path fill="#00AB9F" d="M87.7 144.4s.5.1 1.4.2c.9.1 2.1.4 3.6.5 1.5.2 3.2.3 4.9.1.8-.1 1.6-.4 2-.8.1 0 .1-.1.1-.2s.1-.1.1-.2v-.1.1-.1l.1-.4c.2-.5.1-.9.2-1.3.1-.9.1-1.9.1-2.9s0-1.9-.1-2.9c-.1-1.9-.2-3.6-.3-5.1-.2-3-.3-5.1-.3-5.1s.8 1.9 1.5 4.9c.2.7.4 1.6.5 2.4.2.9.3 1.8.4 2.7.1 1 .3 1.9.3 3 .1 1 .1 2.1 0 3.2-.1.6-.2 1.2-.3 1.7l-.1.4v.2l-.1.2c-.1.3-.4.6-.6.9-.5.5-1.1.8-1.7 1-.6.2-1.1.2-1.7.3-1.1.1-2-.1-2.9-.2-.9-.2-1.7-.4-2.5-.6-1.5-.5-2.7-1-3.5-1.3-.7-.3-1.1-.6-1.1-.6m-10.3 27.9s19.1 6.1 34.3.2c-2 4.6-21.6 13.6-34.3-.2"/>
  <path fill="#00A78E" d="M26 101s-11.8-30.6-9.4-42.9c2.4-12.2 8.4-23.3 30-42.9C60.7 2.4 85.6.2 88.4 3.3c4.2 4.8 11.5 6.9 16.8.8 5.2-6 23.8-2.1 21.5 2.9 9.9-5.7 16.9 4.9 16.9 4.9s37.4 4.8 17 101.7c-1.8 8.5-3.9 18.2-3.9 18.2-7.6.5-.8-11.3.4-47 1.6-49.3-44.1-38.5-61-40.4-20.5-2.3-54.9-5-61 21.4-6.1 26.4-3.3 62-3.3 62l-5.6 5.8V101z"/>
  <path fill="none" stroke="#FFF" stroke-width="2.168" stroke-miterlimit="10" d="M26 101s-11.8-30.6-9.4-42.9c2.4-12.2 8.4-23.3 30-42.9C60.7 2.4 85.6.2 88.4 3.3c4.2 4.8 11.5 6.9 16.8.8 5.2-6 23.8-2.1 21.5 2.9 9.9-5.7 16.9 4.9 16.9 4.9s37.4 4.8 17 101.7c-1.8 8.5-3.9 18.2-3.9 18.2-7.6.5-.8-11.3.4-47 1.6-49.3-44.1-38.5-61-40.4-20.5-2.3-54.9-5-61 21.4-6.1 26.4-3.3 62-3.3 62l-5.6 5.8V101z"/>
  <path fill="#FFF" d="M79.6 201.1s.5 17.4-7.7 22.2c-7.3 4.3-10.7 5.2-10.7 5.2s36 14.4 64.8 2.8c-15.5-4.2-14.5-9.6-14.5-9.6l-2.8-18-29.1-2.6z"/>
  <path fill="none" stroke="#00A78E" stroke-width="2.604" stroke-miterlimit="10" d="M79.6 201.1s.5 17.4-7.7 22.2c-7.3 4.3-10.7 5.2-10.7 5.2s36 14.4 64.8 2.8c-15.5-4.2-14.5-9.6-14.5-9.6l-2.8-18-29.1-2.6z"/>
  <path fill="#FFF" d="M180.5 305.4l-36.1 8.3-4-17.1 4.1 41.7c.5 7.1.8 30.1-.8 50.9l-3.5 27.7H41.8l-3.6-32.6c-1.1-17.2.1-42.7.7-49.3l5.7-38.9-4.8 16-34.5-8.2s3.7-12.6 16.1-39.4c12.4-26.8 39.9-36.2 39.9-36.2l33.2 5.3 31.6-2.6s29.3 7.4 41.7 34.2c12.4 26.8 12.4 39.7 12.4 39.7"/>
  <path fill="none" stroke="#00A78E" stroke-width="2.168" stroke-miterlimit="10" d="M180.5 305.4l-36.1 8.3-4-17.1 4.1 41.7c.5 7.1.8 30.1-.8 50.9l-3.5 27.7H41.8l-3.6-32.6c-1.1-17.2.1-42.7.7-49.3l5.7-38.9-4.8 16-34.5-8.2s3.7-12.6 16.1-39.4c12.4-26.8 39.9-36.2 39.9-36.2l33.2 5.3 31.6-2.6s29.3 7.4 41.7 34.2c12.4 26.8 12.4 39.7 12.4 39.7"/>
  <path fill="#FFF" d="M156.4 449.5c-1 0-2-.4-2.7-1l-.8-.8-.2-.5c-.2-.8-.8-2.3.9-3.4l4.4-2.9c.6-.3 1-.8 1.2-1.2l1.5-3.5c.5-1.2.4-2.5-.4-3.6l-.8-1.2-6.9 9h-.5c-1.7 0-2.8-.5-3.4-1.5-.8-1.3-.6-3.1.7-5.8l5.3-17.3c.1-.2.1-.3.1-.5l4.6-55.7c-.4-3.1-1.4-7.3-2.8-12.6-.1-.2-.1-.4-.1-.5-3.6-11.7-9.5-31.7-8.1-34.1.2-.3.5-.6.9-.6l28.1-5.5h.2c1.3 0 2.7 0 5 23.6 1.1 11.2 1.8 22.5 1.8 22.6l-.2 9.3-13 51.6c0 .3.1 2.5.1 2.8l2.8 12.1c.2 1.2-.8 4.6-1.3 5.4l-7.7 11c-.4.5-.9.9-1.6 1.1l-4.7 3.2c-.8.3-1.6.5-2.4.5"/>
  <path fill="#00A78E" d="M177.4 307.3c2.8 0 5.8 45.2 5.8 45.2l-.2 9.1-13 51.4c-.1.4.1 2.9.1 3.3l2.8 12.2c.1.7-.7 3.9-1.2 4.5l-7.7 11c-.3.4-.7.6-1.1.7L158 448c-.5.3-1.1.5-1.6.5-.7 0-1.4-.3-1.9-.7l-.6-.6c-.3-.8-.7-1.7.4-2.5l4.4-2.9c.8-.4 1.3-1 1.6-1.7.4-.9 1-2.3 1.5-3.5.7-1.5.5-3.2-.5-4.7l-1.7-2.4-6.4 8.4-1.1 1.4h-.1c-3.6 0-3.1-2.9-1.7-5.8l5.3-17.4c.1-.3.1-.5.1-.8l4.6-55.8c-.8-5.6-2.9-13.1-3-13.3 0 0-10.2-32.9-8.1-33.3l28.2-5.6c-.1 0-.1 0 0 0m0-2.2h-.5l-27.9 5.5c-.7.1-1.3.5-1.6 1.2-.6 1.1-1.3 2.2 3.4 19.2 2.2 7.7 4.5 15.3 4.6 15.8 0 .1.1.3.1.5 1.4 5.1 2.3 9.3 2.7 12.3l-4.6 55.5v.3l-5.3 17.3c-.9 1.9-1.9 4.7-.6 6.8.6.9 1.8 2 4.3 2h1.2l.6-.8 1.1-1.4 4.6-6c.6.8.7 1.7.3 2.5-.5 1.2-1.1 2.6-1.5 3.5-.1.2-.4.5-.7.7h-.2l-4.4 2.9c-2.3 1.6-1.6 3.9-1.3 4.7l.1.2.2.5.4.4.6.6c.9.8 2.1 1.3 3.4 1.3 1 0 2-.3 2.8-.8l4.6-3.1c.8-.3 1.5-.8 2-1.4l7.7-11c.7-1 1.7-4.7 1.5-6.1v-.2l-2.8-12.1c0-.4-.1-2-.1-2.5l13-51.3.1-.2v-.2l.2-9.1v-.2c0-.1-.8-11.5-1.8-22.6-.6-6.6-1.3-11.9-1.9-15.7-1.1-6.4-1.9-9-4.3-9"/>
  <path fill="#FFF" d="M28.9 448.5c-.8 0-1.6-.2-2.2-.6l-4.7-3.2c-.7-.2-1.2-.6-1.6-1.1l-7.7-11c-.6-.8-1.5-4.2-1.3-5.3l2.9-12.3c0-.3.2-2.4.1-2.8l-13-51.5-.2-9.2c0-.2.8-11.5 1.8-22.7 2.3-23.6 3.7-23.6 5-23.6h.2l27.9 5.5c.4.1.7.3.9.6 1.4 2.4-4.5 22.4-8.1 34.1 0 .1-.1.3-.1.5-1.4 5.2-2.3 9.5-2.8 12.6l4.6 55.7c0 .2 0 .4.1.5L36 432c1.3 2.7 1.5 4.5.7 5.8-.6 1-1.7 1.5-3.4 1.5h-.5l-.4-.4-6.6-8.6-.8 1.2c-.8 1.1-.9 2.4-.4 3.6l1.5 3.5c.2.5.6.9 1.2 1.2l4.4 2.9c1.6 1.1 1.1 2.7.9 3.5l-.2.5-.8.8c-.7.6-1.7 1-2.7 1"/>
  <path fill="#00A78E" d="M7.9 306.3c.1 0 .1 0 0 0l28 5.5c2.2.4-8.1 33.3-8.1 33.3 0 .2-2.2 7.8-3 13.3l4.6 55.8c0 .3.1.5.1.8l5.3 17.4c1.4 2.9 2 5.8-1.7 5.8H33l-1.1-1.4-6.4-8.4-1.7 2.4c-1 1.4-1.2 3.1-.5 4.7.5 1.2 1.1 2.6 1.5 3.5.3.7.9 1.3 1.6 1.7l4.4 2.9c1 .7.6 1.6.4 2.5l-.6.6c-.5.5-1.2.7-1.9.7-.6 0-1.1-.2-1.6-.5l-4.8-3.3c-.5-.1-.9-.3-1.1-.7l-7.7-11c-.5-.7-1.3-3.8-1.2-4.5l2.8-12.2c.1-.4.2-2.9.1-3.3l-13-51.4-.2-9.1c.2 0 3.1-45.1 5.9-45.1m0-2.2c-2.4 0-3.2 2.6-4.2 8.9-.6 3.8-1.2 9.1-1.9 15.7-1 11.2-1.8 22.5-1.8 22.6v.2l.2 9.1v.2l.1.2 13 51.3c0 .5-.1 2-.1 2.5L10.3 427v.2c-.2 1.4.8 5 1.5 6.1l7.7 11c.5.7 1.2 1.2 2 1.4l4.5 3.1c.8.6 1.8.8 2.8.8 1.3 0 2.6-.5 3.5-1.4l.6-.6.4-.4.2-.5.1-.2c.3-.9 1-3.1-1.3-4.7l-4.4-2.9h-.2c-.3-.2-.6-.4-.7-.7-.4-.9-1-2.3-1.5-3.5-.4-.8-.3-1.7.3-2.5l4.6 6 1.1 1.4.6.8h1.2c2.5 0 3.7-1.1 4.3-2 1.3-2.1.3-4.8-.6-6.8l-5.3-17.3c0-.1 0-.2-.1-.3L27 358.4c.4-3 1.4-7.2 2.7-12.3.1-.2.1-.3.1-.5.1-.5 2.5-8 4.6-15.8 4.7-16.9 4-18.1 3.4-19.2-.4-.6-.9-1-1.6-1.2l-28-5.5c.1.2-.1.2-.3.2"/>
  <path fill-rule="evenodd" clip-rule="evenodd" fill="#00A78E" d="M164.2 98.3c-.7-.8-2.9-1.2-3.9-1.4-4.7-.9-9.7-1-14.4-1.4-6.6-.6-13.4-.7-20-.3-5.9.3-11.6 1.4-17.2 3-5 1.4-10.2 3.6-15.5 3.8v7.5c1.4 0 2.6.1 3.5 1.1 2.4 2.6 3.5 8.3 5.7 13.5 3.4 8 8.3 13.6 16.2 16.7 10.4 4.1 26.5 2.9 33.9-6.8 2-2.6 3.4-5.9 4.3-9.2 1.3-4.9 1.6-9.9 2.5-13.5.3-1.3.8-2.5 1.7-3.5.8-.8 2.1-.8 2.6-1.9.4-.7.5-2.2.6-3 .1-1.2 1-3.5 0-4.6m-9.9 18.4c-.6 7.1-3.6 14.6-9.7 18.8-6.8 4.6-16.7 4.5-24.1 1.8-5.6-2-9.4-6.2-12.1-11.4-1.1-2-1.8-4.4-2.4-6.6-1.1-4.1-1.8-8.9.4-12.7 1.2-2.1 3.3-3.7 5.6-4.8 2.1-1 4.5-1.6 6.5-2 4.9-.8 10.2-1 15.2-.9 6.2.1 12.3.5 17 5 3.4 3.4 4 8.4 3.6 12.8m3.3-13.9c-.9-.1-2.7-.3-3.3-.9-1.2-1.3 2.3-1.3 3.3-1.2.9.1 2.6.3 3.2.9 1.2 1.3-2.2 1.3-3.2 1.2"/>
  <path fill-rule="evenodd" clip-rule="evenodd" fill="#00A78E" d="M22.3 102.9c.1.8.2 2.3.6 3 .6 1.1 1.9 1.1 2.6 1.9.9 1 1.4 2.2 1.7 3.5.9 3.6 1.2 8.6 2.5 13.5.9 3.4 2.3 6.6 4.3 9.2 7.4 9.7 23.5 10.9 33.9 6.8 7.9-3.1 12.8-8.7 16.2-16.7 2.2-5.2 3.3-10.9 5.7-13.5.9-1 2.1-1 3.5-1.1V102c-5.3-.2-10.5-2.4-15.5-3.8-5.7-1.6-11.4-2.7-17.2-3-6.6-.4-13.4-.3-20 .3-4.8.5-9.9.6-14.6 1.5-1 .2-3.3.6-3.9 1.4-.9 1 0 3.3.2 4.5m13.3 1.1c4.7-4.5 10.8-4.9 17-5 5-.1 10.2.1 15.2.9 2.1.3 4.4 1 6.5 2 2.3 1.1 4.4 2.7 5.6 4.8 2.2 3.8 1.6 8.6.4 12.7-.6 2.2-1.3 4.6-2.4 6.6-2.8 5.2-6.5 9.3-12.1 11.4-7.5 2.7-17.4 2.8-24.1-1.8-6.1-4.2-9-11.7-9.7-18.8-.3-4.5.2-9.5 3.6-12.8m-10-2.4c.6-.6 2.3-.8 3.2-.9 1-.1 4.5-.1 3.3 1.2-.6.6-2.4.9-3.3.9-1 .1-4.5.1-3.2-1.2"/>
  <path fill="#00AB9F" d="M98.5 150.7c-2.6 3.4-2.7 8.8-.2 12.3 3 4.2 10.2 5.9 15.5 6.5 6.1.7 12.9.3 18.9-.9 4.7-.9 8.6-3.3 9.7-7.5 0-.2-.2-.3-.3-.2-3.9 2.6-10.2 1.1-13.6-1.4-3.5-2.6-6-6-9.9-8.2-5.9-3.3-14.8-6-20.1-.6-.2.2.2.4.4.2 6.8-7 19.4-.4 24.9 4.8 2.4 2.3 4.7 5 8.2 6.2 2.6.9 6.9 1.1 9.4-.1.8-.4.4-.1.2.6-.4 1.2-1.4 2.2-2.4 3.1-1.7 1.5-4.2 2.2-6.5 2.7-5 1.1-10.6 1.3-15.7 1.1-6-.2-12.3-1.7-16.8-5.2-3.9-3.1-3.9-9.6-1.1-13.3 0-.1-.4-.3-.6-.1"/>
  <path fill="#00A78E" d="M96.6 150.5c1.4-.3 2.8-.3 4.3-.3.7 0 1.4.1 2.1.2 4.8.3 9.8.7 14.2 2.3.6.2 1.3.4 1.9.7 1.8.5 3.4 1.4 4.9 2.6l1.5 1.2c3.1 2.8 6.6 7.4 11.5 6-4.6-.3-7.5-3.6-10.9-6-.5-.4-1.1-.8-1.6-1.2-2.2-1.6-4.5-2.9-7.2-3.6-.6-.2-1.3-.4-2-.6-3.3-.9-6.7-1.2-10.2-1.6l-2.1-.3c-2.1-.2-4.3-.1-6.5.6-.1-.1.2-.1.1 0m-2 2.2c-1.3 5.1 1.8 9.8 6.1 12.3.6.4 1.3.7 1.9 1 2.9 1.1 5.9 2.7 9.1 2.9.8.1 1.5.3 2.3.4 4.3.9 8.3 1.3 12.5.8.6-.1 1.1-.1 1.7-.1h3.8c-2.3-.7-4.6-.7-7-.2-.7 0-1.3.1-2 .1-3.3 0-6.8-.4-10.1-1.2-.5-.1-.9-.2-1.4-.3-2-.4-4-1-6.1-1.7-.8-.3-1.6-.7-2.3-1-5.7-1.9-8.6-7.1-8.5-13"/>
  <path fill="#00A78E" d="M94.8 152.2c.2 3.8 1.9 7.7 4.9 10.4.5.4 1 .9 1.6 1.2 2.9 1.8 6 3.2 9.2 4 .6.2 1.3.3 1.9.5 1.3.3 2.6.3 3.6 1-2-.7-3.6-1.3-5.6-2-.7-.2-1.3-.4-2-.6-2.6-.8-5.2-1.8-7.6-3.4-.6-.4-1.1-.9-1.5-1.4-2.4-2.6-3.7-6.3-4.5-9.7m8.2-1.7c3.1.5 6.3 1 9.3 1.9.8.2 1.5.5 2.2.8 3.8 1.7 7.4 4 11.1 6.1.6.4 1.1.6 1.6.9 2.6 1.3 5.5 3.6 8.8 2.9-2.9-.7-5.9-1.6-8.5-3.5-.6-.3-1.1-.7-1.7-1-3.3-2-6.6-3.9-10.3-5.4-.7-.3-1.3-.6-2-.9-3.4-1.3-7-2.2-10.7-2.3-.2.1.2.4.2.5m-7.7 1.5c1.3.4 2.5.8 3.8 1.1.6.2 1.3.3 1.9.5 3.6.4 6.4 2.4 9.1 4.6.5.4 1.1.9 1.6 1.3 2.9 2.8 6.3 4.8 10.1 6 .8.2 1.5.4 2.3.6 6 1.3 13.9 3 18.8-1.9-5.6 3.6-12.7 3.3-18.9 1.4-.7-.2-1.5-.4-2.2-.7-3.6-1.3-6.9-3.3-9.8-6-.4-.4-.9-.8-1.4-1.2-.5-.4-.9-.9-1.4-1.3-2.6-2-6.2-2.6-9.2-3.7-.8-.2-1.5-.4-2.3-.6-.7-.2-1.5-.4-2.2-.6-.1.2-.1.2-.2.5"/>
  <path fill="#00A78E" d="M104.8 150.8c2.3.7 4.4 1.6 6.4 2.7.7.4 1.3.7 2 1.1 3.1 1.6 6.1 3.4 9.2 4.9.6.3 1.2.6 1.9.9 6.2 2.7 14.7 5.4 20.2.5-5.9 3.9-14.4 2.6-20.1-1.2l-1.8-.9c-3-1.5-6-3.1-9-4.8-.7-.4-1.4-.7-2.1-1.1-2.1-1-4.3-1.9-6.6-2.5 0 0 0 .3-.1.4"/>
  <path fill="#00A78E" d="M95.2 151.9c.7 1.3 1.7 2.3 2.7 3.2.5.4 1.1.8 1.7 1.2 3.5 2 7 4.1 10.6 5.8.6.3 1.1.6 1.7.9 3 1.7 6.3 3 9.6 3.8.7.2 1.4.3 2 .4 6.2 1.5 13.4 1.8 18.9-1.8-5.2 2.3-11.1 2.9-16.6 1.8-.7-.1-1.4-.2-2.1-.4-5-1-9.8-3.2-14.3-5.7-.6-.3-1.2-.7-1.9-1-1.8-1-3.7-2.1-5.5-3.1-.5-.3-1.1-.7-1.7-1-1.7-1.2-3.5-2.5-5.1-4.1m.2-.3c2.6-.4 5-.2 7.3.5.7.2 1.3.3 2 .6 2.4.6 4.5 1.9 6.4 3.3.6.5 1.3 1 1.8 1.5 3.1 3.6 7.2 6.4 11.7 7.7.6.2 1.2.4 1.7.5 5.7.9 11.9 1.2 16.8-1.8-5.9 2-12.4 2.6-18.2.6-.6-.2-1.3-.4-1.9-.7-3.2-1.3-6.2-3.4-8.7-5.9-.5-.4-1-.9-1.6-1.3-2.4-1.9-5-3.7-8.1-4.5-.7-.2-1.3-.4-2.1-.6-2.4-.7-4.7-.7-7.1.1"/>
  <path fill="#00A78E" d="M95.9 150.8c2-.5 4.1-.7 6.1-.4.7.1 1.3.2 1.9.4 2.3.7 4.3 1.9 6.3 3.3.7.5 1.3.9 1.9 1.4 3.6 2.8 7.8 5 12.2 6.5.7.3 1.3.5 1.9.7 5.7 2.3 12.9 2.7 18.1-.9-5.9 2.6-12.4 3.3-18.2.6-.6-.2-1.2-.5-1.8-.7-4.1-1.7-7.9-4-11.6-6.3l-1.8-1.2c-1.8-1.2-3.6-2.3-5.6-3.2-.5-.2-1.1-.3-1.7-.5-2.4-.9-5.1-.9-7.7.3m-.7.8c.6 2.3 1.6 4.3 2.8 6.1.4.6.9 1.2 1.4 1.7 3.2 3.5 7.3 6.2 11.9 7.6l1.8.6c4.4 1.3 8.8 2 13.2 1.7.7 0 1.4 0 2-.1 5-.3 10.3.1 13.8-3.5-4.6 2.6-9.5 3.3-14.6 3.1-.6 0-1.2 0-1.8.1-5.4.3-11-.7-16-2.7-.6-.2-1.3-.5-1.9-.8-3.1-1.5-5.8-3.7-8-6.4-.5-.6-.9-1.1-1.4-1.7-1.3-1.8-2.3-3.8-3-5.9l-.2.2"/>
  <path fill="#00A78E" d="M95.7 152.6c1.5 1.4 2.9 3 4.4 4.5.5.5.9 1 1.3 1.5 1.7 2 3.6 3.5 5.7 4.8.7.4 1.4.8 2.2 1.1 4.6 2.3 9.7 3.9 14.8 4.3.7 0 1.5.1 2.1.1 5-.1 10.3.3 14.8-2.4-4.2 1.3-8.5 2.3-13.1 2h-2.1c-4.7.1-9.5-1.1-14-3.3-.6-.3-1.2-.7-1.9-1.1-4-2.2-7.5-5.4-11-8.6-.6-.5-1.1-1.1-1.6-1.6-.5-.6-1-1.2-1.4-1.8.2.3-.1.3-.2.5m-.1-.4c.6.4 1.3.7 1.9 1 .6.3 1.3.6 2 1 3.9 1.9 7.7 3.9 11.6 6.1.6.4 1.1.7 1.7 1.1 2.9 1.9 5.5 4.1 8.8 5.5-3.3-2.6-7.2-3.9-10.3-6.9l-1.8-1.2c-3.1-1.9-6.3-3.7-9.7-5.1-.7-.3-1.4-.5-2.1-.8-.7-.3-1.4-.5-2.1-.7"/>
  <path fill="none" d="M98.5 150.7c-2.7 3.5-2.7 8.8-.2 12.3 3 4.2 10.2 5.9 15.5 6.5 6.1.7 12.9.3 18.9-.9 4.7-.9 8.6-3.3 9.7-7.5 0-.2-.2-.3-.3-.2-3.9 2.6-10.2 1.1-13.6-1.4-3.5-2.6-6-6-9.9-8.2-3.4-1.9-7.9-3.7-12.1-3.7-3 0-5.8.9-8 3.1"/>
  <path fill="#00AB9F" d="M94.8 150.7c2.6 3.4 2.7 8.8.2 12.3-3 4.2-10.2 5.9-15.5 6.5-6.1.7-12.9.3-18.9-.9-4.7-.9-8.6-3.3-9.7-7.5 0-.2.2-.3.3-.2 3.9 2.6 10.2 1.1 13.6-1.4 3.5-2.6 6-6 9.9-8.2 5.8-3.3 14.8-6 20.1-.6.2.2-.2.4-.4.2-6.8-7-19.4-.4-24.9 4.8-2.4 2.3-4.7 5-8.2 6.2-2.6.9-6.9 1.1-9.4-.1-.8-.4-.4-.1-.2.6.4 1.2 1.4 2.2 2.4 3.1 1.7 1.5 4.2 2.2 6.5 2.7 5 1.1 10.6 1.3 15.7 1.1 6-.2 12.3-1.7 16.8-5.2 3.9-3.1 3.9-9.6 1.1-13.3 0-.1.4-.3.6-.1"/>
  <path fill="#00A78E" d="M94.6 151.1c-3.7-.5-7.6-.2-11.1.2-.7.1-1.3.2-2 .3-4.2.5-8.2 1.6-12 3.1-.7.3-1.3.7-1.9 1.1-3 2.1-5.6 5.1-9.2 6.4-.6.2-1.2.3-1.9.4-.6 0-1.3-.1-2-.3 1-.1 2-.2 3-.4.5-.1.9-.2 1.4-.3 3.2-1.8 5.8-4.6 8.9-6.6.6-.4 1.3-.7 1.9-1 2.8-1 5.8-1.7 8.8-2.2.8-.1 1.5-.2 2.3-.3 4.5-1.2 9.1-1.2 13.7-.8 0-.1 0 .2.1.4m2 2.1c.8 5.2-1.5 10.4-6.3 12.4-.7.4-1.5.7-2.3 1-2.4 1.1-5.2 1.8-8.1 2.3-.9.2-1.8.3-2.7.4-4.6.4-8.9 1.4-13.5.5-.7-.2-1.4-.2-2.1-.1-.7 0-1.5 0-2.1-.3h2.1c4.1.3 8.4.3 12.6-.2.9-.1 1.7-.3 2.6-.4 3.6-.4 7.1-1.2 10-2.3.7-.3 1.5-.6 2.1-.9 4.8-1.8 8.7-7.1 7.1-12.6.4.2.4.2.6.2"/>
  <path fill="#00A78E" d="M96.4 152.7c-.6 5.7-3.6 11.3-9.5 13.3-.6.1-1.2.2-1.9.6-.6.2-1.3.4-1.9.6-1.9.6-3.9 1.1-5.9 1.6-.8.2-1.5.5-2.2.7.1-.1-.2-.4-.2-.4 1.3-.3 2.6-1 3.8-1.2.7-.2 1.3-.3 2-.5s1.3-.4 2-.6c.7-.2 1.3-.4 2-.6 6.6-1.3 10.8-7.2 11.5-13.7 0 0 .3.3.3.2m-7.5-1.8c-2.9 0-5.8.6-8.5 1.5-.7.2-1.4.5-2.1.7-2 .8-4 1.8-5.9 2.8-.6.3-1.1.7-1.7 1-4.4 2.4-8.4 5.2-13.5 5.6-.5.1-1.1.1-1.6.2.6-.3 1.2-.6 1.8-.7.6-.2 1.2-.3 1.8-.4 3.3-.9 6.3-2.5 9.3-4.1l1.8-.9c3.7-1.9 7.3-3.8 11.3-4.8.8-.2 1.5-.4 2.3-.6 1.4-.3 3.4-1.3 5-.3"/>
  <path fill="#00A78E" d="M95.9 152.5c-5 1-9.9 2.3-13.6 5.7-.5.4-1.1.8-1.7 1.2-2.3 1.7-4.7 3.4-7.2 4.6-.6.3-1.2.6-1.9.9-3.1 1.4-6.5 2.2-10.1 1.9-.7 0-1.4-.1-2.2-.2-3.9-.2-7.7-1.3-11.2-2.7 3.1.4 6.1 1.6 9.3 2.1.6.1 1.3.2 1.9.2 5 .4 10.2-.6 14.6-3 .6-.3 1.2-.6 1.7-.9.6-.5 1.3-.9 1.9-1.4.6-.5 1.3-.9 1.9-1.4 4.7-3.7 10.3-7 16.6-7"/>
  <path fill="#00A78E" d="M87.2 151.2c-2.6.7-5.2 2-7.4 3.2-.6.3-1.2.6-1.8 1-1.8 1-3.6 1.9-5.4 2.7-.6.3-1.1.6-1.7.9-4.5 2.1-9 4.2-14 3.8h-2.1c-2.9-.1-5.6-.7-8.1-2 2.3.7 4.7 1.2 7.1 1.5.8.1 1.6.1 2.4.1 4.3.2 8.4-1 12.3-2.7.7-.3 1.3-.6 2-.9 3.5-1.4 6.8-4.2 10.3-5.8.7-.3 1.4-.7 2.1-.9 1.4-.6 2.7-.9 4.3-.9"/>
  <path fill="#00A78E" d="M96 152.4c-4.1 4.7-9.7 7.6-15.1 9.8-.7.3-1.5.7-2.2 1-1.5.7-3 1.3-4.5 2.1-.7.3-1.3.6-2 .8-3.4 1.3-7 2-10.8 1.8h-1.8c-3.8-.2-7.5-1.5-10.7-3.2 3.5 1.2 7.2 2.5 11 2.7.7.1 1.4.2 2.1.2 3.4.2 6.7-.6 9.8-1.9.6-.2 1.2-.5 1.9-.8 1.9-1 3.8-1.8 5.8-2.6.6-.3 1.3-.6 1.9-.8 5.6-1.8 9.5-6 14.6-9.1"/>
  <path fill="#00A78E" d="M95.8 152.1c-5.9-.6-11.8 1.3-16.1 5.6-.7.5-1.3 1-2 1.5-2 1.5-3.9 2.9-6.1 3.9-.7.4-1.5.8-2.3 1.1-3.9 1.7-8 2.4-12.4 1.1-.8-.1-1.6-.2-2.4-.4-2.3-.4-4.6-1.1-6.8-1.7 3.5 0 6.9.8 10.4 1.2.7.1 1.3.2 1.9.3 3.7.9 7 .1 10.1-1.3.6-.3 1.2-.6 1.8-1 2.9-2.1 5.7-4.7 8.7-6.7.6-.4 1.1-.8 1.7-1.2 4.2-2.4 8.8-4 13.7-2.7.1.1-.2.4-.2.3"/>
  <path fill="#00A78E" d="M95.3 151.4c-6-1.8-11.6 1.1-15.9 4.7-.6.5-1.3.9-1.9 1.4-1.9 1.4-3.9 2.6-6 3.4l-2.1.9c-3.5 1.4-7.1 2.2-10.9 2h-2c-3.4-.1-6.7-.7-9.8-2.4 3.3.8 6.5 1.5 9.8 1.8.6.1 1.3.1 1.9.1 4.6.2 8.9-1.1 13-3 .7-.3 1.3-.6 1.9-.9 2.6-1 5-2.9 7.4-4.5.6-.4 1.2-.9 1.7-1.3 3.6-2.7 8.5-4.7 12.9-2.2"/>
  <path fill="#00A78E" d="M96 152.1c-1.9 4.6-4.5 9.2-9.2 11.6-.6.4-1.3.7-2 1.1-2.1 1.2-4.4 2-6.8 2.6-.8.2-1.5.4-2.3.6-4.5 1.1-9.1 1.4-13.5.8-.6-.1-1.3-.1-2-.1-4.1-.2-8.3-.9-11.3-3.9 2.6 1.6 5.5 2.6 8.4 3.1.7.1 1.5.2 2.2.3 6.1.5 12.3.8 18.3-1.3.7-.2 1.5-.4 2.2-.7 1.4-.4 2.7-.9 4-1.6.6-.3 1.2-.6 1.8-1 4.3-2.9 7.9-6.8 9.5-12 .1.3.8.3.7.5"/>
  <path fill="#00A78E" d="M95.4 153c-3.9 4-7.5 8.9-12.9 10.9l-1.8.9c-1.2.6-2.5 1.1-3.8 1.6-.7.3-1.4.5-2 .8-4.8 1.7-10 2.4-15.1 1.2-.7 0-1.3-.1-2-.2-2.7-.4-5.3-1.1-7.7-2.6 3.3.8 6.4 1.8 9.7 2.2.6.1 1.3.2 1.9.3 4.9.5 9.6-.1 13.9-1.7.6-.2 1.2-.5 1.8-.7.8-.3 1.6-.5 2.3-.9.8-.3 1.5-.7 2.2-1 5.4-2.5 8.6-7.7 13.5-10.8"/>
  <path fill="#00A78E" d="M95.6 152.7c-5 2.1-9.6 4.7-14.1 7-.6.3-1.3.7-1.9 1.1-1.9 1.1-3.7 2.3-5.4 3.8-.4.3-.9.6-1.3.9-.9.5-1.9.9-3.1 1.1 1-.4 1.9-.9 2.8-1.5.5-.3.9-.6 1.4-.9l5.7-3.6c.6-.4 1.3-.8 1.9-1.1 4.5-2.7 9.1-5.3 14-7.3-.2.3-.2.3 0 .5"/>
  <path fill="none" d="M74.8 151.3c-4 2.3-6.4 5.6-9.9 8.2-3.4 2.5-9.7 4-13.6 1.4-.2-.1-.4.1-.3.2 1.1 4.2 5 6.5 9.7 7.5 6 1.2 12.8 1.6 18.9.9 5.2-.6 12.5-2.3 15.5-6.5 2.5-3.5 2.4-8.8-.2-12.3-2.2-2.2-4.9-3.1-7.9-3.1-4.3 0-8.8 1.7-12.2 3.7"/>
  <path fill="#00A78E" d="M120.5 230.1c-.2-5 .4-12.8-5.1-14.4-6.4-2-14.8 4.5-19.1 8.2-.9-1-2-1.7-3.4-1.5-1.4-.2-2.5.5-3.4 1.5 1.4-1.7-15.1-8.7-17-8.6-6.9.5-7 9.3-7.1 14.8-.2 5.4-1.1 11 2.3 13 5.6 3.2 17.5-.4 22.8-6.6.8.6 1.6 1 2.6.9.9.1 1.8-.3 2.6-.9 5.2 6.1 16.8 9.2 22.4 6.3 3.4-1.9 2.6-7 2.4-12.7"/>
  <path fill="none" stroke="#FFF" stroke-width=".632" stroke-miterlimit="10" d="M120.5 230.1c-.2-5 .4-12.8-5.1-14.4-6.4-2-14.8 4.5-19.1 8.2-.9-1-2-1.7-3.4-1.5-1.4-.2-2.5.5-3.4 1.5 1.4-1.7-15.1-8.7-17-8.6-6.9.5-7 9.3-7.1 14.8-.2 5.4-1.1 11 2.3 13 5.6 3.2 17.5-.4 22.8-6.6.8.6 1.6 1 2.6.9.9.1 1.8-.3 2.6-.9 5.2 6.1 16.8 9.2 22.4 6.3 3.4-1.9 2.6-7 2.4-12.7z"/>
  <path fill="#FFF" d="M103.6 233.5l.6.1c-.5-.2-.9-.4-1.4-.7.3.2.6.4.8.6m-4.3-4.9l6.6-.3c-1.7-1.1-4.8 0-6.6.3m-5.2 6.1c1.7-.9 2.3-3 2.2-4.8-.1 1.5-.7 4.1-2.2 4.8m8.7-1.8c-.9-.7-1.9-1.4-2.8-2 .9.8 1.8 1.4 2.8 2m8.4 2.1l-7-1.4c2.2 1 4.7 1.4 7 1.6.1-.1.1-.2 0-.2M91 225.8c-.3 2.6-1.1 5.5.6 7.8l.1.1c-.7-2.7-.3-5.2-.5-7.9-.1-.1-.2-.1-.2 0m-3.5 3.9c-2.7-.5-6.3-2.6-9.1-1.1l9.1 1.1c.1.1.1 0 0 0m.8 1.2c-4.4 2.5-8.6 2.4-13.4 2.4 4.2 3 9.6-.2 13.4-2.4m15.1-6.3c-.9.4-1.7.9-2.5 1.6l9.1-3.6c-2.2-.2-4.6 1-6.6 2m-26.3-.9c2 .2 4.3.3 6.1 1.2 2.1 1 4 2.3 5.5 4h.1c-2.9-3.6-7.1-5.3-11.7-5.2"/>
</svg>