<svg xmlns="http://www.w3.org/2000/svg" width="241.6" height="385" viewBox="0 0 241.6 385">
  <path fill="#FFF" d="M103.4 195.7c6.1-7 24.8-7.7 24.8-7.7l31.5 2.2 31.4-2.2s19.2.7 25.3 7.7c6.1 7 4.1 97.5 4.1 97.5l-3.3 58.4s5.5 12 5 14.5-4.8 12.1-8.7 15.3c-3.9 3.2-10.4 4.9-8.8 2.4 1.7-2.5 1.9-1.4 5.2-4.5 3.5-3.3 4.3-5 3.7-8.8-.6-3.8 0-3.6-3.5-4.3-5.5-1.1-2.2 10.1-4.4 8.2-2.2-1.9-1.4-5.9-.8-11.3.5-5.1 2.6-8.3 5.4-9.5 2.8-1.3-8.1-63.6-8.1-63.6l-7.5-54.7c-.9 20-4.9 19-5.5 25.2-1.4 17.2 5.4 54.2 3.7 54.5-3 .6-69.4 4.2-71.8 3.2-2.7-1.1 6-37.1 4.6-59.9-.4-6-5.6-8.3-4.7-25.8"/>
  <path fill="#FFF" d="M195.9 337.4l-1.7-17.6s-.2-2.3-1.2-7.8c-.1-.6-.8-3-.8-3l-62.5-5 66.2 33.4zM21.1 160.3c-4.1 1.6-5.9 1-9.6.3-3.8-.7-5.1-2-7.1-6.4-1.9-4.1-.7-4-2.6-6.4-1.9-2.4-2.3 4.4-.6 9.1 1.8 4.7 9.4 11.8 11.7 13.1 2.2 1.3 15.4 0 15.4 0L54 211s74.7 2.5 83.3-1c8.6-3.5 15.2-21 15.2-21l-35.1-2.1-54.5 7.9s-32.3-29.5-34.2-31.9c-1.4-1.6-7.6-2.6-7.6-2.6m130.1 2.1s-3.1 5.9-6.8 12.1c-3.6 6-12.5 13.1-12.5 13.1s12.1 9.6 27.7 9.2c12.7-.3 18.4-1.3 28.7-9.3-11.8-2.6-13.7-9-15.7-13.4-2.8-6.3-3.6-11.4-2.4-11.7-12.7.4-19 0-19 0"/>
  <path fill="none" stroke="#00A78E" stroke-width="2.96" stroke-miterlimit="10" d="M151.2 162.4s-3.1 5.9-6.8 12.1c-3.6 6-12.5 13.1-12.5 13.1s12.1 9.6 27.7 9.2c12.7-.3 18.4-1.3 28.7-9.3-11.8-2.6-13.7-9-15.7-13.4-2.8-6.3-3.6-11.4-2.4-11.7-12.7.4-19 0-19 0z"/>
  <path fill="#FFF" d="M101.1 94.3c.6 6.9-3.5 26.5 18.5 47 14.3 13.3 24.8 20.1 30.4 20.1 23.5 0 22.4 2.9 43.9-19.3 21.7-22.5 18.4-30.5 21.2-52.1 5.3-40.8 5.7-43.5-7-57-16.8-17.9-53.6-15.6-67.8-14.9-14.3.7-34.1 5.4-39.1 60.3v15.9z"/>
  <path fill="#00A78E" d="M135 95.1c0 3.5-3.1 6.3-6.9 6.3-3.8 0-6.9-2.8-6.9-6.3s3.1-6.3 6.9-6.3c3.8 0 6.9 2.8 6.9 6.3"/>
  <path fill="#00A78E" d="M147 92.5s-.5-.4-1.4-1.1c-.9-.7-2.2-1.5-3.8-2.3-.8-.4-1.7-.7-2.6-1.1-.9-.3-1.9-.5-2.9-.7-1-.1-2-.1-3.1 0-1.1 0-2.1.4-3.1.8-1 .5-2 .8-3 1.6-1 .6-1.9 1.3-2.7 2.1-.8.7-1.8 1.7-2.9 2.3-.5.3-1.1.5-1.6.7l-1.5.3c-1.9.2-3.5-.3-4.5-.9-1-.6-1.4-1.2-1.4-1.2s.6.3 1.6.4c1 .1 2.4 0 4-.6.4-.1.8-.3 1.2-.5.5-.3.8-.4 1.2-.8.8-.6 1.3-1.5 2.3-2.4.9-.9 1.8-2 3-2.7 1.1-.9 2.3-1.4 3.5-2 1.3-.4 2.5-.8 3.8-.8 1.3-.2 2.5.1 3.7.4.6.2 1.2.3 1.7.5.5.3 1.1.5 1.6.8 1 .6 1.9 1.2 2.6 1.9.8.6 1.4 1.3 2 2 .6.6 1 1.2 1.4 1.7.6 1 .9 1.6.9 1.6"/>
  <path fill="#FFF" d="M126.3 95.7c0 1.3-.6 2.3-1.4 2.3-.8 0-1.4-1-1.4-2.3 0-1.3.6-2.3 1.4-2.3.8 0 1.4 1 1.4 2.3"/>
  <path fill="#00A78E" d="M150 69.3s3.9 4-6.4 5.2c-10.3 1.2-18.9-7.1-23.6-1.1-4.7 6-12.8 8.3-6.1 2.4 6.7-5.9 5.2-9.5 15.8-8.8 10.5.6 19.6.5 20.3 2.3m17.2 2.5s-3.1 4.9 7.2 3.5 17.3-11.6 23-6.9c5.7 4.7 14 4.9 6.4.8-7.6-4.1-6.8-8-17-4.7-10.2 3.2-19.2 5.4-19.6 7.3m-8.1 31.3s.4.6.9 1.6c.3.5.6 1.1 1 1.9.4.7.8 1.5 1.3 2.4.5.9 1 1.8 1.5 2.8.6 1 1.1 2 1.8 3 .2.3.3.5.5.7.2.2.3.5.5.7l.6.7c.2.2.5.5.7.8.9 1.2 1.8 2.5 1.9 4.3.1.9-.2 1.9-.7 2.7-.5.8-1.2 1.4-1.9 1.8-1.4.8-2.8 1.2-4.1 1.4-2.7.4-5.1.2-7.2-.2-1-.2-1.9-.5-2.7-.9-.4-.2-.8-.5-1-.8-.3-.3-.4-.9-.3-1.2.3-.7.8-.8 1.1-1 .3-.1.4-.2.4-.2s-.1.1-.4.3c-.2.2-.6.6-.7 1-.1.4.5.7 1.2.9.7.2 1.6.3 2.6.4 1 .1 2 0 3.1-.1s2.2-.3 3.4-.5c1.1-.3 2.3-.7 3.1-1.3.9-.6 1.3-1.3 1.2-2.1-.1-.8-.7-1.9-1.4-2.8-.2-.2-.3-.4-.6-.7l-.3-.3-.3-.4-.6-.9c-.2-.3-.4-.6-.5-.9-.7-1.2-1.2-2.3-1.6-3.4-.4-1.1-.8-2.1-1.1-3.1-1.1-3.8-1.4-6.6-1.4-6.6m-16.3 33s21.1 10.4 33.5-6.4c-8.9 28.6-36 4.4-33.5 6.4m29.5-43.6c0 3.5 3.1 6.3 6.9 6.3 3.8 0 6.9-2.8 6.9-6.3s-3.1-6.3-6.9-6.3c-3.9.1-6.9 2.9-6.9 6.3"/>
  <path fill="#00A78E" d="M170.6 91.9s.5-.4 1.4-1.1c.9-.7 2.2-1.5 3.8-2.3.8-.4 1.7-.7 2.6-1.1.9-.3 1.9-.5 2.9-.7 1-.1 2.1-.1 3.1 0 1.1 0 2.1.4 3.1.8 1 .5 2.1.8 3 1.6 1 .6 1.9 1.3 2.8 2.1.8.7 1.8 1.7 2.9 2.3.5.3 1.1.5 1.6.7.6.1 1 .2 1.5.3 1.9.2 3.5-.3 4.5-.9 1-.6 1.4-1.2 1.4-1.2s-.6.3-1.6.4c-1 .1-2.5 0-4-.6-.4-.1-.8-.3-1.2-.5-.5-.3-.8-.4-1.2-.8-.8-.6-1.3-1.5-2.3-2.4-.9-.9-1.9-2-3-2.7-1.1-.9-2.3-1.4-3.5-2-1.3-.4-2.5-.8-3.8-.8-1.3-.2-2.5.1-3.7.4-.6.2-1.2.3-1.7.5-.5.3-1.1.5-1.6.8-1 .6-1.9 1.2-2.7 1.9-.8.6-1.4 1.3-2 2-.6.6-1 1.2-1.4 1.7-.5 1-.9 1.6-.9 1.6"/>
  <path fill="#FFF" d="M173.1 92.5c0 1.3.6 2.3 1.4 2.3.8 0 1.4-1 1.4-2.3 0-1.3-.6-2.3-1.4-2.3-.8.1-1.4 1.1-1.4 2.3"/>
  <path fill="#00A78E" d="M163.5 5.5c-19 6.1-41.1-4.1-59 4.7-14.2 7-20.8 24-21.6 39.9-.8 15.8 3 31.6 3.4 47.4.2 9.9-2.1 21.7-11.1 25.9 3.3 4.7 12.3.3 15.1 7.2 1.3 3.3.6 7-1.5 9.8-3.8 5.2-10.5 7.2-15.2 11.5-1.5 1.4-2.4 3.3-2.3 5.3.4 5.4 7.2 6.3 12.2 5.6 10.6-1.5 21-4.5 30.7-8.9 4.2 4.8 2.2 12.8-2.5 17.1-1.9 1.7-4 3-6.4 4-2.4 1.1-1.6 4.7 1 4.6 10.2-.2 20.4-3.6 28.5-9.8.2 2.2 0 4.4-.6 6.5-.6 2.3 1.6 6.6 3.8 5.7 2-.9 7.5-2.7 8.8-4.5 2.5-3.3 3.3-5.8 5.3-12.3.3-1.1-3.7-3.2-3.9-4.3-.3-1.4-1.4-2.4-2.5-3.4-9.8-8.3-21.7-14.7-29.1-25.2-8.4-11.9-9.9-27.2-11.1-41.7-.9-10.6-.6-23.5 8.5-28.9 2.8-1.7 6.2-2.3 9.2-3.6 9.2-4 14.7-14.9 12.5-24.7-2.2 10.5 7.2 20.6 17.6 23.4 10.4 2.8 21.4.5 32.1-1 4.3-.6 8.7-1.1 12.8.4 8.9 3.2 12.2 14.1 12.8 23.5.5 8.3-.2 16.6-.9 24.8-.5 5.5-1.1 11.5-4.8 15.6-2.8 3.1-6.9 4.6-10.3 7-3.4 2.4-6.2 6.8-4.5 10.6.7 1.5 2 2.7 2.3 4.4.4 1.8-5.9 2.3-7 3.8-3.3 4.3-2.5 8.9-6.7 12.3-5.1 4.2-9.9 9.4-10.2 16.4-.2 4.3 2 8.5 5.9 10.3 7.8 3.5 15.5-5.1 23.8-7.1 1.1-.3 2.2-.4 3.2 0 1.3.5 2.2 1.6 3.1 2.7 4.7 5 12.9 6.4 19 3.2.8-.4 1.7-1 2.2-1.8 1.2-1.9.4-4.5-1.2-6.1-1.5-1.6-3.6-2.6-5.5-3.9-8.9-6.3-9.1-21.6-.4-28.1 2.5-1.9 5.5-3 8.2-4.7 13.4-8.1 16.6-28.9 6.4-40.6-1.9-2.2-4.2-4.2-5.4-6.8-2.7-6.1 1.5-12.8 4.4-18.7 6.2-12.6 5.7-30.3-6.1-38-3-2-6.4-3.1-9.6-4.7-14.6-7.2-24-23.2-39.6-27.8C172 1 165.6 1.1 161.7 5"/>
  <path fill="#FFF" d="M163.1 4.1c-15.9 4.7-32.3-1-48.4 1.5-13.5 2.1-23.4 11-28.6 23.4-6.4 15.2-4.8 31.7-3 47.7 1.5 13.4 6.6 37.6-8.5 45.4-.9.5-.9 1.7-.3 2.4 1.9 2.2 4.4 2.7 7.2 3 2.3.3 4.4.3 6.2 1.9 3.5 3.2 1.5 8.6-1.3 11.5-4.7 5-17.3 8-16.4 16.6.7 6.5 8.5 7.3 13.7 6.7 10.9-1.3 21.5-4.7 31.5-9.1l-2.1-.5c5.7 7.7-1.1 15-7.6 18.7-2.4 1.3-4.2 4.1-1.8 6.6 2.8 2.8 10.1.6 13.3-.2 6.8-1.6 13.1-4.6 18.8-8.7-.8-.4-1.5-.9-2.3-1.3.2 3.8-2.6 11.9 3.1 13.6 3.2.9 9.7-2.8 11.7-5.2 2.3-2.7 6.3-10.6 5.3-14-.5-1.8-3.1-3.3-4.2-4.8-2-2.7-4.5-4.7-7.2-6.8-6.9-5.3-14.3-10.1-20.3-16.5-6.3-6.8-9.9-15.2-11.9-24.1-1.8-8.3-2.7-17-3.1-25.5-.3-7.1-.1-16 5.3-21.4 3.4-3.4 8.3-4 12.5-6 3.2-1.5 5.9-3.9 8.1-6.7 4.3-5.6 5.8-12.6 4.5-19.4-.3-1.4-2.7-1.5-2.9 0-1.3 8.2 2.6 15.5 9.1 20.5 8 6.1 18.1 6.7 27.7 5.8 10.4-1 25.1-6.8 32.8 2.9 6.6 8.4 6 20.8 5.5 30.8-.3 6.1-.4 12.7-1.8 18.6-1.7 7.3-6.4 9.5-12.1 13.2-2.9 1.9-5.6 4.4-6.6 7.9-.4 1.3-.6 2.7-.3 4.1.5 2.3 3.1 4.2.8 5.8-2.4 1.7-4.1 1-5.8 3.8-1.1 1.7-1.6 3.7-2.3 5.5-1.3 3.4-3.5 5.2-6.1 7.7-5.4 5.3-10.2 13.5-6.5 21.1 3.8 7.6 12 7.1 18.6 3.9 4.8-2.3 11.1-7.8 16.2-3.7 3.5 2.8 6.2 5.1 10.8 5.7 5.2.7 15.4-1.1 13.8-8.4-.9-4-4.8-5.5-7.7-7.7-4.1-3.1-6.1-8.2-6.1-13.3.1-5.3 2.5-10.2 7-13.1 3.7-2.4 7.8-3.9 11.1-7 5.3-5 8.4-12.2 8.9-19.5.5-6.9-1.3-13.9-5.6-19.4-1.7-2.1-3.9-3.9-5.3-6.2-2.3-4-1-8.4.7-12.3 1.9-4.3 4.3-8.2 5.6-12.7 2.4-8.2 2.4-17.8-1.8-25.5-5.2-9.5-16.1-11.1-24.2-17.1-8.7-6.4-15.7-15-25.2-20.2-7.6-4.2-17.4-6.4-24.6-.3-1.5 1.3.7 3.4 2.1 2.1 8.5-7.4 21-.1 28.2 5.7 6.1 4.9 11.6 10.6 17.9 15.3 7.6 5.6 18.4 7.3 23.1 16 4 7.4 3.7 16.7 1.1 24.5-2.5 7.6-9.9 16-6.4 24.5 1.3 3 3.7 5 5.8 7.5 2.7 3.2 4.5 7.1 5.2 11.3 1.4 8.2-1 17.4-6.8 23.4-5.2 5.3-13.2 6.5-17.2 13.2-3.3 5.5-3.6 12.7-1 18.5 1.1 2.4 2.6 4.6 4.6 6.3 1.3 1.1 2.8 1.8 4.1 2.8 2.8 2 4.3 5.6.5 7.8-1.3.8-3.2 1-4.7 1.1-5.6.2-8.9-2.6-12.8-6-2.6-2.3-5.3-2-8.4-.9-7.2 2.5-22.8 14.7-25.6 0-2.1-11 10.1-15 13.4-23.6 1-2.6 1.5-5.8 4.3-7.2 1.2-.6 2.6-.7 3.8-1.3 1.4-.8 2.3-1.4 2.2-3.2-.1-1.4-1.3-2.5-1.9-3.6-1.9-4.1.4-7.4 3.6-9.8 3.6-2.7 7.9-4.2 10.8-7.7 5.2-6.3 4.9-16 5.4-23.7 1-14.1 2.2-40.2-17.1-42.9-5.1-.7-10.4.5-15.4 1.3-6.4.9-12.8 1.9-19.3 1.3-11.5-.9-25.4-9.4-23.2-22.7h-2.9c1.4 7.2-1.1 14.6-6.5 19.5-5 4.6-12.4 4.6-17.4 9.2-8.3 7.7-7 21.1-6.1 31.3 1.2 13.3 2.9 27.3 10.6 38.5 3.7 5.4 8.6 9.9 13.7 13.9 5.4 4.2 12.8 8 17.1 13.3.8 1 1.2 2.3 2.1 3.2 1 1.1 2.4 1.5 2.5 3 .2 2.3-2.1 6.9-3.3 8.8-1.6 2.6-5.4 5.4-8.6 5.7-4.2.4-2-7.5-2.2-10.4 0-1-1.3-2-2.3-1.3-5 3.6-10.4 6.4-16.4 8-2.4.6-7.3 2.4-9.7 1.6-4.5-1.6 1.8-3.6 3.4-4.9 5.9-4.7 8.9-13.5 4-20-.5-.7-1.2-.9-2.1-.5-9.6 4.3-20.5 7.9-31 8.9-1.7.1-3.6.2-5.3-.3-.8-.2-1.9-.5-2.6-1-2.8-2.1-.9-6.1 1.1-8 2.9-2.7 6.8-4.3 10-6.7 4.9-3.7 8.9-10.1 5.7-16.2-3.3-6.3-11.1-2.4-15-6.9l-.3 2.4c11.8-6.1 12.3-21.2 11.5-32.9-1.2-17.4-5.6-35.2-1.6-52.6 3.6-15.8 13.9-28.9 30.7-30.9 15.8-1.9 31.7 3.3 47.3-1.4 2.1-.7 1.3-3.6-.6-3"/>
</svg>