<svg xmlns="http://www.w3.org/2000/svg" width="591.4" height="515.9" viewBox="0 0 591.4 515.9">
  <path fill="#00A78E" d="M372.2 84.1s1.6-25.4-.5-35.8c-2-10.4-3-18.6-21.3-35.2-12-10.9-28.8-14.4-31.2-11.7-3.6 4.1-16.7 9.2-21.1 4-4.5-5.2-24.5 9.5-24.5 9.5s-32.9-2.3-15.5 79.9c1.5 7.2 3.3 15.5 3.3 15.5 6.4.4 4.7-9.6 3.7-39.9-1.4-41.8 33.4-32.6 47.7-34.3 17.4-1.9 37.1-4.2 42.3 18.2 4.6 19.8 14.6 23.2 12.3 52.6l4.8 4.9V84.1z"/>
  <path fill="none" stroke="#FFF" stroke-miterlimit="10" d="M372.2 84.1s1.6-25.4-.5-35.8c-2-10.4-3-18.6-21.3-35.2-12-10.9-28.8-14.4-31.2-11.7-3.6 4.1-16.7 9.2-21.1 4-4.5-5.2-24.5 9.5-24.5 9.5s-32.9-2.3-15.5 79.9c1.5 7.2 3.3 15.5 3.3 15.5 6.4.4 4.7-9.6 3.7-39.9-1.4-41.8 33.4-32.6 47.7-34.3 17.4-1.9 37.1-4.2 42.3 18.2 4.6 19.8 14.6 23.2 12.3 52.6l4.8 4.9V84.1z"/>
  <path fill="#FFF" d="M258 368.3c1.2 2.4 1.7 4.8-1.3 4.8l-.9-1.1-5.4-6.8-1.4 2c-.8 1.2-.9 2.6-.4 3.9.5 1 1 2.1 1.3 2.9.3.6.7 1 1.4 1.4l3.7 2.3c.9.6.5 1.3.3 2l-.5.5c-.7.7-2 .9-2.9.3l-4.1-2.6c-.4-.1-.7-.2-1-.5l-6.5-9c-.4-.5-1.1-3.1-1-3.7l2.2-10.2c0-.3.1-2.4 0-2.7l-11.6-42.2-.3-7.5s-.6-37.7 1.7-37.3l23.2 4c1.8.3-2.8 20.1-2.8 20.1-2 9.6-2.8 12.9-3.2 18.6l4.7 46c0 .2 0 .4.1.6l4.7 14.2zm118.5-3.6c-1.2 2.4-1.7 4.8 1.3 4.8l.9-1.1 5.4-6.8 1.4 2c.8 1.2.9 2.6.4 3.9-.5 1-1 2.1-1.3 2.9-.3.6-.7 1-1.4 1.4l-3.7 2.3c-.9.6-.5 1.3-.3 2l.5.5c.7.7 2 .9 2.9.3l4.1-2.6c.4-.1.7-.2 1-.5l6.5-9c.4-.5 1.1-3.1 1-3.7l-2.2-10.2c0-.3-.1-2.4 0-2.7l11.6-42.2.3-7.5s.6-37.7-1.7-37.3l-23.2 4c-1.8.3 2.8 20.1 2.8 20.1 2 9.6 2.8 12.9 3.2 18.6l-4.7 46c0 .2 0 .4-.1.6l-4.7 14.2z"/>
  <path fill="#FFF" d="M233.2 193.5s75.9-44 164.3 3.9l11.3 86.7L399 348l-20.4-3.8.9-46.5-5.1-57.3s-1.4 40.7-2.9 64.1c-1.7 25.5-13.7 49.6-13.7 49.6h-87s-9.2-38-8.7-54.1c.6-18.8.2-55.6.2-55.6l-9.8 60.9 5.4 39.1-23.1.8-9-41 7.4-110.7z"/>
  <path fill="none" stroke="#00A78E" stroke-width="1.589" stroke-miterlimit="10" d="M233.2 193.5s75.9-44 164.3 3.9l11.3 86.7L399 348l-20.4-3.8.9-46.5-5.1-57.3s-1.4 40.7-2.9 64.1c-1.7 25.5-13.7 49.6-13.7 49.6h-87s-9.2-38-8.7-54.1c.6-18.8.2-55.6.2-55.6l-9.8 60.9 5.4 39.1-23.1.8-9-41 7.4-110.7z"/>
  <path fill="#FFF" d="M280.2 226.9c-.8-1.2-18.9-29.3-9.5-46.5 4.6-8.3 14.7-12.6 30.2-12.6h.9c.2 0 4.7-.2 10.9-.2 14 0 32.1.8 38.7 4.4 1.7.5 9.6 3.4 12.1 11.6 2.5 8-1.4 18.2-11.5 30.2l-.4.4-2.6-2.2.4-.4c9.3-11.1 13-20.2 10.8-27-2.2-7-9.9-9.3-10-9.4l-.2-.2c-6.1-3.5-26.1-4.1-37.4-4.1-6.3 0-10.7.2-10.8.2h-.9c-14.1 0-23.3 3.6-27.2 10.8-8.4 15.4 9.2 42.8 9.4 43.1l.3.5-2.8 1.8-.4-.4z"/>
  <path fill="#00A78E" d="M312.8 168.1c12.4 0 31.8.6 38.5 4.4 1.2.4 9.3 3.2 11.8 11.2 2.4 7.8-1.4 17.8-11.4 29.7l-1.7-1.5c9.4-11.2 13.1-20.5 10.9-27.6-2.3-7.4-10.3-9.7-10.4-9.7l-.3-.1c-6.1-3.5-25.3-4.1-37.6-4.1-6.2 0-10.7.1-10.8.2h-.9c-14.4 0-23.7 3.7-27.7 11.1-8.6 15.8 9.2 43.4 9.4 43.7l-1.9 1.2c-.8-1.2-18.7-29-9.5-46 4.5-8.2 14.5-12.3 29.7-12.3h.9c.5 0 4.9-.2 11-.2m0-1.1c-6.1 0-10.5.2-11 .2h-.9c-15.7 0-26 4.3-30.7 12.9-9.6 17.5 8.7 45.9 9.5 47.1l.6.9.9-.6 1.9-1.2.9-.6-.6-.9c-.2-.3-17.6-27.4-9.3-42.5 3.8-7 12.8-10.5 26.7-10.5h.9s4.5-.2 10.7-.2c19.5 0 32.6 1.4 37.1 4h.2l.3.1h.2c.1 0 7.6 2.3 9.6 9 2.1 6.7-1.6 15.6-10.7 26.5l-.7.9.8.7 1.7 1.5.8.7.7-.9c10.2-12.1 14.1-22.5 11.6-30.7-2.5-8.3-10.5-11.3-12.4-11.9-6.6-3.7-24.8-4.5-38.8-4.5"/>
  <path fill="none" stroke="#00A78E" stroke-width="2.777" stroke-miterlimit="10" d="M313.3 177.1v189.7"/>
  <path fill="#FFF" d="M290.4 225.9c0 4.9-3.9 8.8-8.8 8.8s-8.8-3.9-8.8-8.8 3.9-8.8 8.8-8.8 8.8 4 8.8 8.8"/>
  <circle fill="none" stroke="#00A78E" stroke-width="1.589" stroke-miterlimit="10" cx="281.6" cy="225.9" r="8.8"/>
  <path fill="#00A78E" d="M287.5 225.9c0 3.3-2.6 5.9-5.9 5.9-3.3 0-5.9-2.6-5.9-5.9 0-3.3 2.6-5.9 5.9-5.9 3.3 0 5.9 2.7 5.9 5.9"/>
  <path fill="#FFF" d="M362.9 93.9s1.7-15 6.3-10.8c3.8 3.5 5.7 19.5 3.3 30.8-1 5-7 10.7-9.5 8.2s-.1-28.2-.1-28.2m-100.3 1.2s-2.2-15-7.1-10.7c-5.2 4.5-4.7 23.8-2.9 30.9 1.2 5 7.9 10.5 10.5 7.9 2.7-2.5-.5-28.1-.5-28.1"/>
  <path fill="#FFF" d="M260.3 70.1c.1 5.3-3.4 47.6 11.3 66.1 8.4 10.5 20.1 20.7 26.9 22.3 11.1 2.6 18.3 4.6 28.1 2.5 9.8-2.1 24.2-12.4 33.1-32.1 4.2-9.4 15.7-83.2-5.5-104.1-13.9-13.7-44.5-11.9-56.3-11.4-11.8.6-38.1 4.8-37.6 56.7"/>
  <path fill="#00A78E" d="M337.7 87.8c0 2.9 2.4 5.2 5.3 5.2s5.3-2.3 5.3-5.2c0-2.9-2.4-5.2-5.3-5.2-3 0-5.3 2.3-5.3 5.2"/>
  <path fill="#00A78E" d="M358.7 89.1c-.1 0-7.2-6.8-15.7-6.9-4.4 0-9.1 1.9-13.2 7.4l1.3 1.5c3.8-5.1 8-6.7 12-6.7 3.9 0 7.6 1.6 10.3 3.2 1.4.8 2.5 1.6 3.2 2.2.4.3.7.6.9.7l.3.3.9-1.7z"/>
  <path fill="#FFF" d="M341.6 87.7c0 1-.5 1.8-1.2 1.8s-1.2-.8-1.2-1.8.5-1.8 1.2-1.8c.6 0 1.2.8 1.2 1.8"/>
  <path fill="#00A78E" d="M289.8 88.5c0 2.9-2.4 5.2-5.3 5.2s-5.3-2.3-5.3-5.2c0-2.9 2.4-5.2 5.3-5.2s5.3 2.4 5.3 5.2"/>
  <path fill="#00A78E" d="M269.8 91.7l.3-.3c1.4-1.2 7.6-6.2 14.4-6.2 4 0 8.2 1.6 12 6.7l1.3-1.5c-4.1-5.5-8.9-7.4-13.2-7.4-8.5 0-15.6 6.8-15.7 6.9l.9 1.8z"/>
  <path fill="#FFF" d="M282.5 88.4c0 1-.5 1.8-1.2 1.8s-1.2-.8-1.2-1.8.6-1.8 1.2-1.8 1.2.8 1.2 1.8"/>
  <path fill="#00A78E" d="M298.9 57.2s6.7 5.9 1.1 7c-5.6 1.1-14.8-.9-18.9 0-4.1.9-12.1 4-12.1 4l-.5-3.4c-.1 0 10.9-10.3 30.4-7.6m30.2 2s-6.5 5.7-.8 7c5.7 1.3 14.8-.4 18.9.7 4.1 1.1 12.2 4.5 12.2 4.5l.4-3.4c.1 0-11.2-10.8-30.7-8.8M309 110.7s.4.1 1.1.2c.7.2 1.7.3 3 .5 1.2.2 2.7.3 4.1.2.7-.1 1.4-.3 1.8-.7.1-.1.2-.2.2-.3v-.1s0-.1 0 0v-.1l.1-.3c.1-.4.1-.8.2-1.1.1-1.6 0-3.2 0-4.8-.1-1.6-.2-3-.3-4.3-.2-2.5-.3-4.2-.3-4.2s.1.4.3 1.1c.2.7.5 1.7.8 3 .3 1.2.5 2.7.7 4.3.2 1.6.3 3.3.2 5-.1.5-.1 1-.2 1.3l-.1.3v.2l-.1.2c-.1.2-.3.5-.5.7-.8.8-1.8.9-2.6 1-.8.1-1.6 0-2.4-.2-.7-.1-1.4-.3-2-.5-1.2-.3-2.2-.8-2.9-1-.7-.2-1.1-.4-1.1-.4"/>
  <path fill="#FFF" d="M302.4 162.1s-13.8 15.8-6.4 18.3c1.6.5 4.7-.5 4.7-.5l13.2-2.8s5.1 6 14.8 2.1c-12.8-3.5 0 0 0 0l-2.3-14.9-24-2.2z"/>
  <path fill="none" stroke="#00A78E" stroke-width="1.589" stroke-miterlimit="10" d="M302.4 162.1s-13.8 15.8-6.4 18.3c1.6.5 4.7-.5 4.7-.5l13.2-2.8s5.1 6 14.8 2.1c-12.8-3.5 0 0 0 0l-2.3-14.9-24-2.2z"/>
  <path fill="#00A78E" d="M291.7 134.8s17.9 3.6 33.9-2.6c15.9-6.2 10.7-2.2 8.2-1.4-2.4.8-22.1 17.4-42.1 4"/>
  <path fill="#32CFB6" d="M304.4 144.1s1.5.4 3.8.5c1.2 0 2.5 0 3.9-.2 1.4-.1 3-.4 4.5-.7l3.3-.9c1.8-.6 3.4-1.2 4.7-1.8 2.1-1 3.4-1.8 3.4-1.8s-1.5.3-3.7.8c-1.1.3-2.4.6-3.8.9-1.4.3-2.8.7-4.3 1-2.9.7-5.8 1.2-8.1 1.6-2.2.4-3.7.6-3.7.6M326.7 50s-1.3-.9-3.5-1.6c-1.1-.4-2.4-.7-3.8-1-1.4-.3-2.9-.5-4.5-.6-1.1-.1-2.3-.1-3.4-.1-1.9 0-3.6.1-5.1.3-2.3.3-3.8.7-3.8.7s1.5.2 3.8.3c1.1.1 2.4.2 3.9.3 1.4.1 2.9.2 4.4.3 3 .2 6 .6 8.2.9 2.3.3 3.8.5 3.8.5m14.5-9.4s-2.8-.9-7.4-1.6c-2.3-.4-5.1-.7-8.1-1-3-.3-6.2-.5-9.5-.6-2.4-.1-4.8-.1-7.1-.1-4 0-7.7.1-10.7.3-4.8.3-8 .7-8 .7s3.3.2 8 .3c2.4.1 5.2.2 8.2.3 3 .1 6.1.2 9.3.3 6.3.2 12.6.6 17.3.9 4.8.2 8 .5 8 .5"/>
  <path fill="#FFF" d="M353.7 249.5c21-13.1-.4-40-.4-40s-33.7 3.6-28 27.7"/>
  <path fill="#FFF" d="M352.1 248l.5-.3c4.5-2.8 7.2-6.6 8-11.2 1.7-9.9-5.6-21.2-8.2-24.8-4.3.7-17.1 3.3-22.8 11.4-2.7 3.8-3.4 8.3-2.2 13.6l.1.5-4.1 1-.1-.5c-1.5-6.5-.6-12.2 2.8-17 7.9-11.1 26.2-13.2 27-13.3l1.2-.1.7.9c.5.6 12.1 15.4 9.8 29.1-1 5.8-4.3 10.5-9.9 14l-.5.3-2.3-3.6z"/>
  <path fill="#00A78E" d="M354 207.9l.5.7c.5.6 12 15.2 9.6 28.7-1 5.7-4.2 10.3-9.7 13.7l-1.7-2.7c4.7-2.9 7.4-6.8 8.3-11.5 1.8-10.5-6.3-22.5-8.5-25.5-3.6.5-17.5 3.1-23.5 11.7-2.8 3.9-3.5 8.6-2.3 14l-3 .7c-1.5-6.3-.6-11.9 2.8-16.6 7.8-10.9 25.8-13 26.6-13.1l.9-.1m.5-1.2l-.6.1-.9.1c-.8.1-19.3 2.2-27.4 13.5-3.5 4.9-4.5 10.8-2.9 17.5l.3 1.1 1.1-.3 3-.7 1.1-.3-.3-1.1c-1.2-5.1-.5-9.5 2.1-13.1 5.5-7.8 18.2-10.4 22.1-11.1 2.3 3.3 9.5 14.5 7.9 24.1-.8 4.4-3.4 8-7.8 10.8l-.9.6.6.9 1.7 2.7.6.9.9-.6c5.7-3.6 9.2-8.4 10.2-14.4 2.4-13.9-9.4-28.9-9.9-29.5l-.5-.7-.4-.5z"/>
  <path fill="#00A78E" d="M329.2 235.7c.2 2.4-1.6 4.4-3.9 4.6s-4.4-1.6-4.6-3.9c-.2-2.4 1.6-4.4 3.9-4.6 2.4-.2 4.4 1.5 4.6 3.9m26.7 14.3c.2 2.4-1.6 4.4-3.9 4.6s-4.4-1.6-4.6-3.9c-.2-2.4 1.6-4.4 3.9-4.6 2.3-.2 4.4 1.5 4.6 3.9"/>
  <path fill="#FFF" d="M386.3 515.7s-1.9-14.4-31.5-13.2h-.5l1.7-146.2h-83.1l5.1 146.3c-28.6 1.4-30.8 10.8-32 13.3l35.6-.1h28.5v-.1h.4s-.1-.5-.4-1.4V386.5c0-3.4 1.2-6.2 5-6.2s5 2.8 5 6.2v129.2h1.7s0 .1-.1.1l64.6-.1zM33.1 368.3c1.2 2.4 1.7 4.8-1.3 4.8l-.9-1.1-5.4-6.8-1.4 2c-.8 1.2-.9 2.6-.4 3.9.5 1 1 2.1 1.3 2.9.3.6.7 1 1.4 1.4l3.7 2.3c.9.6.5 1.3.3 2l-.5.5c-.7.7-2 .9-2.9.3l-4.1-2.6c-.4-.1-.7-.2-1-.5l-6.5-9c-.4-.5-1.1-3.1-1-3.7l2.2-10.2c0-.3.1-2.4 0-2.7L5.1 309.5l-.4-7.5s-.6-37.7 1.7-37.3l23.2 4c1.8.3-2.8 20.1-2.8 20.1-2 9.6-2.8 12.9-3.2 18.6l4.7 46c0 .2 0 .4.1.6l4.7 14.3zm118.6-3.6c-1.2 2.4-1.7 4.8 1.3 4.8l.9-1.1 5.4-6.8 1.4 2c.8 1.2.9 2.6.4 3.9-.5 1-1 2.1-1.3 2.9-.3.6-.7 1-1.4 1.4l-3.7 2.3c-.9.6-.5 1.3-.3 2l.5.5c.7.7 2 .9 2.9.3l4.1-2.6c.4-.1.7-.2 1-.5l6.5-9c.4-.5 1.1-3.1 1-3.7l-2.2-10.2c0-.3-.1-2.4 0-2.7l11.6-42.2.3-7.5s.6-37.7-1.7-37.3l-23.2 4c-1.8.3 2.8 20.1 2.8 20.1 2 9.6 2.8 12.9 3.2 18.6l-4.7 46c0 .2 0 .4-.1.6l-4.7 14.2z"/>
  <path fill="#FFF" d="M8.3 193.5s75.9-44 164.3 3.9l11.3 86.7-9.8 63.9-20.4-3.8.9-46.5-5.1-57.3s-1.4 40.7-2.9 64.1c-1.7 25.5-13.7 49.6-13.7 49.6h-87s-9.2-38-8.7-54.1c.6-18.8.2-55.6.2-55.6l-9.8 60.9 5.4 39.1-23.2.6-9-41 7.5-110.5z"/>
  <path fill="none" stroke="#00A78E" stroke-width="1.589" stroke-miterlimit="10" d="M8.3 193.5s75.9-44 164.3 3.9l11.3 86.7-9.8 63.9-20.4-3.8.9-46.5-5.1-57.3s-1.4 40.7-2.9 64.1c-1.7 25.5-13.7 49.6-13.7 49.6h-87s-9.2-38-8.7-54.1c.6-18.8.2-55.6.2-55.6l-9.8 60.9 5.4 39.1-23.2.6-9-41 7.5-110.5z"/>
  <path fill="#FFF" d="M55.4 226.9c-.8-1.2-18.9-29.3-9.5-46.5 4.6-8.3 14.7-12.6 30.2-12.6h.9c.2 0 4.7-.2 10.9-.2 14 0 32.1.8 38.7 4.4 1.7.5 9.6 3.4 12.1 11.6 2.5 8-1.4 18.2-11.5 30.2l-.4.4-2.6-2.2.4-.4c9.3-11.1 13-20.2 10.8-27-2.2-7-9.9-9.3-10-9.4l-.3-.1C119 171.6 99 171 87.7 171c-6.3 0-10.7.2-10.8.2H76c-14.1 0-23.3 3.6-27.2 10.8-8.4 15.4 9.2 42.8 9.4 43.1l.3.5-2.8 1.8-.3-.5z"/>
  <path fill="#00A78E" d="M88 168.1c12.4 0 31.8.6 38.5 4.4 1.2.4 9.3 3.2 11.8 11.2 2.4 7.8-1.4 17.8-11.4 29.7l-1.7-1.5c9.4-11.2 13.1-20.5 10.9-27.6-2.3-7.4-10.3-9.7-10.4-9.7l-.3-.1c-6.1-3.5-25.3-4.1-37.6-4.1-6.2 0-10.7.1-10.8.2h-.9c-14.4 0-23.7 3.7-27.7 11.1-8.6 15.8 9.2 43.4 9.4 43.7l-1.9 1.2c-.8-1.2-18.7-29-9.5-46 4.5-8.2 14.5-12.3 29.7-12.3h.9c.5 0 4.9-.2 11-.2m0-1.1c-6.1 0-10.5.2-11 .2h-.9c-15.7 0-26 4.3-30.7 12.9-9.6 17.5 8.7 45.9 9.5 47.1l.6.9.9-.6 1.9-1.2.9-.6-.6-.9c-.2-.3-17.6-27.4-9.3-42.5 3.8-7 12.8-10.5 26.7-10.5h.9s4.5-.2 10.7-.2c19.5 0 32.6 1.4 37.1 4h.2l.3.1h.2c.1 0 7.6 2.3 9.6 9 2.1 6.7-1.6 15.6-10.7 26.5l-.7.9.8.7 1.7 1.5.8.7.7-.9c10.2-12.1 14.1-22.5 11.6-30.7-2.5-8.3-10.5-11.3-12.4-11.9-6.7-3.7-24.8-4.5-38.8-4.5"/>
  <path fill="#00A78E" d="M101.7 275l-13.8 19.2L74 275l13.9-70.4"/>
  <path fill="none" stroke="#00A78E" stroke-width="2.777" stroke-miterlimit="10" d="M88.5 287.8v79"/>
  <path fill="#FFF" d="M65.6 225.9c0 4.9-3.9 8.8-8.8 8.8s-8.8-3.9-8.8-8.8 3.9-8.8 8.8-8.8 8.8 4 8.8 8.8"/>
  <circle fill="none" stroke="#00A78E" stroke-width="1.589" stroke-miterlimit="10" cx="56.8" cy="225.9" r="8.8"/>
  <path fill="#00A78E" d="M62.7 225.9c0 3.3-2.6 5.9-5.9 5.9-3.3 0-5.9-2.6-5.9-5.9 0-3.3 2.6-5.9 5.9-5.9 3.3 0 5.9 2.7 5.9 5.9"/>
  <path fill="#FFF" d="M138 93.9s1.7-15 6.3-10.8c3.8 3.5 5.7 19.5 3.3 30.8-1 5-7 10.7-9.5 8.2-2.4-2.5-.1-28.2-.1-28.2M37.8 95.1s-2.2-15-7.2-10.7c-5.2 4.5-4.7 23.8-2.9 30.9 1.2 5 7.9 10.5 10.5 7.9 2.8-2.5-.4-28.1-.4-28.1"/>
  <path fill="#FFF" d="M35.5 70.1c.1 5.3-3.4 47.6 11.3 66.1 8.4 10.5 20.1 20.7 26.9 22.3 11.1 2.6 18.3 4.6 28.1 2.5 9.8-2.1 24.2-12.4 33.1-32.1 4.2-9.4 15.7-83.2-5.5-104.1-13.9-13.7-44.5-11.9-56.3-11.4-11.9.6-38.1 4.8-37.6 56.7"/>
  <path fill="#00A78E" d="M112.9 89.1c0 2.9 2.4 5.2 5.3 5.2s5.3-2.3 5.3-5.2c0-2.9-2.4-5.2-5.3-5.2-3 0-5.3 2.4-5.3 5.2"/>
  <path fill="#00A78E" d="M133.9 90.5c-.1 0-7.2-6.8-15.7-6.9-4.4 0-9.1 1.9-13.2 7.4l1.3 1.5c3.8-5.1 8-6.7 12-6.7 3.9 0 7.6 1.6 10.3 3.2 1.4.8 2.5 1.6 3.2 2.2.4.3.7.6.9.7l.3.3.9-1.7z"/>
  <path fill="#FFF" d="M116.8 89c0 1-.5 1.8-1.2 1.8s-1.2-.8-1.2-1.8.5-1.8 1.2-1.8c.6 0 1.2.8 1.2 1.8"/>
  <path fill="#00A78E" d="M69 89.9c0 2.9-2.4 5.2-5.3 5.2s-5.3-2.3-5.3-5.2c0-2.9 2.4-5.2 5.3-5.2 3 0 5.3 2.3 5.3 5.2"/>
  <path fill="#00A78E" d="M49.1 93l.3-.3c1.4-1.2 7.6-6.2 14.4-6.2 4 0 8.2 1.6 12 6.7l1.3-1.5c-4.1-5.5-8.9-7.4-13.2-7.4-8.5 0-15.6 6.8-15.7 6.9l.9 1.8z"/>
  <path fill="#FFF" d="M61.7 89.8c0 1-.5 1.8-1.2 1.8s-1.2-.8-1.2-1.8.6-1.8 1.2-1.8c.7 0 1.2.8 1.2 1.8"/>
  <path fill="#00A78E" d="M74.1 57.2s6.7 5.9 1.1 7c-5.6 1.1-14.8-.9-18.9 0-4.1.9-12.1 4-12.1 4l-.5-3.4c-.1 0 10.9-10.3 30.4-7.6m30.2 2s-6.5 5.7-.8 7c5.7 1.3 14.8-.4 18.9.7 4.1 1.1 12.2 4.5 12.2 4.5l.4-3.4c.1 0-11.3-10.8-30.7-8.8m-20.1 51.5s.4.1 1.1.2c.7.2 1.7.3 3 .5 1.2.2 2.7.3 4.1.2.7-.1 1.4-.3 1.8-.7.1-.1.2-.2.2-.3v-.1s0-.1 0 0v-.1l.1-.3c.1-.4.1-.8.2-1.1.1-1.6 0-3.2 0-4.8-.1-1.6-.2-3-.3-4.3-.2-2.5-.3-4.2-.3-4.2s.1.4.3 1.1c.2.7.5 1.7.8 3 .3 1.2.5 2.7.7 4.3.2 1.6.3 3.3.2 5-.1.5-.1 1-.2 1.3l-.1.3v.2l-.1.2c-.1.2-.3.5-.5.7-.8.8-1.8.9-2.6 1-.8.1-1.6 0-2.4-.2-.7-.1-1.4-.3-2-.5-1.2-.3-2.2-.8-2.9-1-.7-.2-1.1-.4-1.1-.4"/>
  <path fill="#FFF" d="M77.6 162.1s.4 14.3-6.4 18.3c-6.1 3.6-8.8 4.3-8.8 4.3l24.8 23.6s19-17.3 28.7-21.3c-12.8-3.5-12-7.9-12-7.9l-2.3-14.9-24-2.1z"/>
  <path fill="none" stroke="#00A78E" stroke-width="1.589" stroke-miterlimit="10" d="M77.6 162.1s.4 14.3-6.4 18.3c-6.1 3.6-8.8 4.3-8.8 4.3l24.8 23.6s19-17.3 28.7-21.3c-12.8-3.5-12-7.9-12-7.9l-2.3-14.9-24-2.1z"/>
  <path fill="#00A78E" d="M67.7 130.4s16.9 6.9 33.8 3.8c16.8-3.1 10.9-.1 8.4.2-2.6.3-25.1 12.9-42.2-4"/>
  <path fill="#32CFB6" d="M77.6 140.4s1.3.9 3.5 1.6c1.1.4 2.4.7 3.8 1 1.4.3 2.9.5 4.5.6 1.1.1 2.3.1 3.4.1 1.9 0 3.6-.1 5.1-.3 2.3-.3 3.8-.7 3.8-.7s-1.5-.2-3.8-.3c-1.1-.1-2.4-.2-3.9-.3-1.4-.1-2.9-.2-4.4-.3-3-.2-6-.6-8.2-.9-2.3-.3-3.8-.5-3.8-.5"/>
  <path fill="#00A78E" d="M87.873 185.567l11.384 11.385-11.384 11.384-11.385-11.384z"/>
  <path fill="#FFF" d="M128.8 249.5c21-13.1-.4-40-.4-40s-33.7 3.6-28 27.7"/>
  <path fill="#FFF" d="M127.2 248l.5-.3c4.5-2.8 7.2-6.6 8-11.2 1.7-9.9-5.6-21.2-8.2-24.8-4.3.7-17.1 3.3-22.8 11.4-2.7 3.8-3.4 8.3-2.2 13.6l.1.5-4.1 1-.1-.5c-1.5-6.5-.6-12.2 2.8-17 7.9-11.1 26.2-13.2 27-13.3l1.2-.1.7.9c.5.6 12.1 15.4 9.8 29.1-1 5.8-4.3 10.5-9.9 14l-.5.3-2.3-3.6z"/>
  <path fill="#00A78E" d="M129.2 207.9l.5.7c.5.6 12 15.2 9.6 28.7-1 5.7-4.2 10.3-9.7 13.7l-1.7-2.7c4.7-2.9 7.4-6.8 8.3-11.5 1.8-10.5-6.3-22.5-8.5-25.5-3.6.5-17.5 3.1-23.5 11.7-2.8 3.9-3.5 8.6-2.3 14l-3 .7c-1.5-6.3-.6-11.9 2.8-16.6 7.8-10.9 25.8-13 26.6-13.1l.9-.1m.5-1.2l-.6.1-.9.1c-.8.1-19.3 2.2-27.4 13.5-3.5 4.9-4.5 10.8-2.9 17.5l.3 1.1 1.1-.3 3-.7 1.1-.3-.3-1.1c-1.2-5.1-.5-9.5 2.1-13.1 5.5-7.8 18.2-10.4 22.1-11.1 2.3 3.3 9.5 14.5 7.9 24.1-.8 4.4-3.4 8-7.8 10.8l-.9.6.6.9 1.7 2.7.6.9.9-.6c5.7-3.6 9.2-8.4 10.2-14.4 2.4-13.9-9.4-28.9-9.9-29.5l-.5-.7-.4-.5z"/>
  <path fill="#00A78E" d="M104.4 235.7c.2 2.4-1.6 4.4-3.9 4.6s-4.4-1.6-4.6-3.9c-.2-2.4 1.6-4.4 3.9-4.6 2.3-.2 4.4 1.5 4.6 3.9M131 250c.2 2.4-1.6 4.4-3.9 4.6-2.3.2-4.4-1.6-4.6-3.9-.2-2.4 1.6-4.4 3.9-4.6 2.4-.2 4.5 1.5 4.6 3.9"/>
  <path fill="#FFF" d="M161.5 515.7s-1.9-14.4-31.5-13.2h-.5l1.7-146.2H48.1l5.1 146.3c-28.6 1.4-30.8 10.8-32 13.3l35.6-.1h28.5v-.1h.4s-.1-.5-.4-1.4V386.5c0-3.4 1.2-6.2 5-6.2s5 2.8 5 6.2v129.2H97s0 .1-.1.1l64.6-.1z"/>
  <path fill="#00A78E" d="M37.3 95.4c-1-1-1.6-2.4-1.7-3.9-.4-8.4-1.5-37.9-.4-46.3 1.3-9.8-2.8-4.1 13.4-20.7 10.6-10.9 17.5-7.9 21.4-13 3.9-5.1 43.8 2.7 42.2 6.8 7.6-5 11.5-1.6 11.5-1.6S155.1 9 143.4 87l-1 6.8c-6 .7-.6-1.9-1.4-30.3-1-39.2-40.6-24-54.1-24.7-16.4-.9-42.9-5.3-46.5 16-3 17.4-2.3 32.1-2 36.8.1 1.1-.2 2.2-.7 3.1l-.4.7z"/>
  <path fill="none" stroke="#FFF" stroke-miterlimit="10" d="M37.3 95.4c-1-1-1.6-2.4-1.7-3.9-.4-8.4-1.5-37.9-.4-46.3 1.3-9.8-2.8-4.1 13.4-20.7 10.6-10.9 17.5-7.9 21.4-13 3.9-5.1 43.8 2.7 42.2 6.8 7.6-5 11.5-1.6 11.5-1.6S155.1 9 143.4 87l-1 6.8c-6 .7-.6-1.9-1.4-30.3-1-39.2-40.6-24-54.1-24.7-16.4-.9-42.9-5.3-46.5 16-3 17.4-2.3 32.1-2 36.8.1 1.1-.2 2.2-.7 3.1l-.4.7z"/>
  <path fill="#00A78E" d="M337.4 178.2c-.1-4.4.3-11.1-4.4-12.6-5.6-1.7-13 3.9-16.7 7.2-.8-.9-1.8-1.5-3-1.3-1.2-.1-2.2.4-3 1.3 1.2-1.5-13.2-7.6-14.9-7.5-6.1.4-6.1 8.1-6.2 12.9-.2 4.7-1 9.6 2 11.3 4.9 2.8 15.3-.3 19.9-5.7.7.5 1.4.8 2.2.8.8 0 1.6-.3 2.2-.8 4.5 5.3 14.7 8 19.6 5.5 3.2-1.7 2.5-6.1 2.3-11.1"/>
  <path fill="none" stroke="#FFF" stroke-width=".632" stroke-miterlimit="10" d="M337.4 178.2c-.1-4.4.3-11.1-4.4-12.6-5.6-1.7-13 3.9-16.7 7.2-.8-.9-1.8-1.5-3-1.3-1.2-.1-2.2.4-3 1.3 1.2-1.5-13.2-7.6-14.9-7.5-6.1.4-6.1 8.1-6.2 12.9-.2 4.7-1 9.6 2 11.3 4.9 2.8 15.3-.3 19.9-5.7.7.5 1.4.8 2.2.8.8 0 1.6-.3 2.2-.8 4.5 5.3 14.7 8 19.6 5.5 3.2-1.7 2.5-6.1 2.3-11.1z"/>
  <path fill="#FFF" d="M318.9 176.9l5.8-.2m-8.4 1.3c-.1 1.3-.6 3.5-1.9 4.2 1.5-.8 2-2.6 1.9-4.2m13 4.5l-6.1-1.2c2 .8 4.1 1.2 6.1 1.4m-17.2-1.5c.1.1.1.1 0 0-.5-2.3-.2-4.4-.4-6.8m-3.1 3.4c-2.4-.5-5.5-2.3-7.9-.9m8.6 2c-3.8 2.2-7.5 2.1-11.7 2.1m22.7-6.3l8-3.2m-23.4 2.1c1.8.9 3.5 2 4.8 3.5 0 0 .1 0 0 0"/>
  <path fill-rule="evenodd" clip-rule="evenodd" fill="#00A78E" d="M373.8 76.5c-.6-.6-2.5-1-3.3-1.1-3.9-.7-8.2-.8-12.2-1.2-5.6-.5-11.3-.6-16.9-.3-5 .3-9.8 1.2-14.5 2.5-4.2 1.2-8.6 3-13.1 3.2v6.3c1.2 0 2.2.1 2.9.9 2 2.1 2.9 7 4.8 11.3 2.9 6.7 7 11.4 13.7 14 8.8 3.5 22.3 2.4 28.6-5.7 1.7-2.2 2.9-4.9 3.6-7.7 1.1-4.1 1.4-8.3 2.1-11.3.3-1 .7-2.1 1.4-2.9.6-.7 1.7-.7 2.2-1.6.3-.6.4-1.9.5-2.5.2-1.2.9-3.1.2-3.9m-8.5 15.3c-.5 6-3 12.2-8.2 15.7-5.7 3.9-14.1 3.8-20.4 1.5-4.7-1.7-7.9-5.2-10.2-9.5-.9-1.7-1.5-3.7-2-5.5-1-3.4-1.5-7.4.4-10.6 1-1.8 2.8-3.1 4.8-4 1.8-.8 3.8-1.4 5.5-1.7 4.2-.7 8.6-.8 12.8-.7 5.3.1 10.4.4 14.4 4.2 2.8 2.7 3.3 6.9 2.9 10.6m2.8-11.6c-.7 0-2.3-.2-2.8-.8-1-1.1 1.9-1.1 2.8-1 .7.1 2.2.2 2.7.7 1.1 1.2-1.8 1.2-2.7 1.1m-114.1.1c.1.7.2 1.9.5 2.5.5.9 1.6.9 2.2 1.6.7.8 1.2 1.9 1.4 2.9.7 3 1 7.2 2.1 11.3.7 2.8 1.9 5.5 3.6 7.7 6.3 8.1 19.8 9.1 28.6 5.7 6.7-2.6 10.8-7.3 13.7-14 1.9-4.3 2.8-9.2 4.8-11.3.8-.8 1.8-.9 2.9-.9v-6.3c-4.4-.2-8.8-2-13.1-3.2-4.8-1.3-9.6-2.3-14.5-2.5-5.6-.3-11.3-.2-16.9.3-4 .4-8.2.4-12.2 1.2-.8.2-2.7.5-3.3 1.1-.8.9 0 2.8.2 3.9m11.2.9c4-3.8 9.1-4.1 14.4-4.2 4.2-.1 8.6.1 12.8.7 1.8.3 3.7.8 5.5 1.7 2 .9 3.7 2.2 4.8 4 1.8 3.2 1.3 7.2.4 10.6-.5 1.8-1.1 3.8-2 5.5-2.3 4.3-5.5 7.8-10.2 9.5-6.3 2.3-14.7 2.4-20.4-1.5-5.1-3.5-7.6-9.8-8.2-15.7-.4-3.7 0-7.9 2.9-10.6m-8.5-2c.5-.5 2-.7 2.7-.7.8-.1 3.8-.1 2.8 1-.5.5-2 .7-2.8.8-.8 0-3.7 0-2.7-1.1"/>
  <path fill-rule="evenodd" clip-rule="evenodd" fill="#FFF" d="M263.2 78.9c.1.7-1.4 1.3-3.3 1.5-1.9.2-3.5-.2-3.6-.9-.1-.7 1.4-1.3 3.3-1.5 1.9-.1 3.5.3 3.6.9m108.4.9c-.1.6-1.7.9-3.6.7-1.9-.3-3.4-1-3.3-1.7.1-.6 1.7-.9 3.6-.7 2 .3 3.4 1 3.3 1.7"/>
  <path fill="#FFF" d="M465.7 77.9c4.7-51 23.1-55.4 36.4-56.1 13.3-.6 47.5-2.7 63.1 13.9 11.8 12.5 11.4 15.1 6.5 53.1-2.6 20.1.5 27.5-19.7 48.5-20 20.7-19 18-40.8 18-5.2 0-15-6.3-28.3-18.7-20.5-19.1-16.6-37.4-17.2-43.8m43.6 420.3s-.9-7.6-14.1-6.9c-13.3.7-14.3 5.7-14.8 7m18.1.3L492 408.3l-8.1-81.3c-1.6-17.7-1.5-20.7 0-26.1.7-2.4 2.3-8.3 2.3-8.3l64.4.1s1.7 6.5 2.1 7.7c1.6 4.5 4.2 13.7 1.5 27.4l-12.8 81.5L530.2 513h-10.1l4.5-119.5-1.8-67.8c0-3.6-.5-4.3-3-4.3h-1.4c-2.5 0-3.3 1.3-3.3 4.9l-3.8 68.2-2.7 118.8-10.1.2zm19.9-.4s.9-7.6 14.1-6.9c13.3.7 14.3 5.7 14.8 7"/>
  <path fill="#FFF" d="M562.7 364.3c-1 0-1.5-.4-1.7-.8-.2-.4-.3-1 .2-1.9.9-1.4 1.5-1.8 2.3-2.3.6-.4 1.3-.8 2.6-2.1 3.1-2.9 3.6-4.2 3.2-7.3-.1-.5-.1-.9-.2-1.3-.1-.6-.2-1.3-.3-1.4-.1-.1-.9-.3-1.7-.5l-.3-.1c-.2 0-.3-.1-.5-.1-1.2 0-1.5 1.7-1.6 4.7 0 1.7-.1 3.3-1.5 3.3-.4 0-.7-.1-1-.4-.7-.6-1.1-1.3-1.4-2.2.7 6.7.4 6.8-.5 6.9h-.3c-.7 0-2.6-.4-6.5-1.2-8.2-1.8-23.6-5.1-34.6-5.1s-27.1 3.2-36.7 5.1c-4.4.9-6.5 1.3-7.3 1.3h-.3c-.8-.2-1.1-.2-.6-5.3l-.6.6c-.3.3-.7.4-1 .4-1.4 0-1.4-1.6-1.5-3.3-.1-2.9-.4-4.7-1.6-4.7-.1 0-.3 0-.5.1l-.3.1c-.8.2-1.6.3-1.7.5-.1.1-.2.8-.3 1.4 0 .4-.1.8-.2 1.3-.5 3.2.1 4.4 3.2 7.3 1.3 1.2 2 1.7 2.6 2.1.9.5 1.4.9 2.3 2.3.6.9.4 1.5.2 1.9-.2.4-.7.8-1.7.8-1.8 0-5.6-1.4-8.2-3.6-3.9-3.2-7.9-12.3-8.4-14.8-.5-2.4 3.2-11 4.6-13.9l-3.1-54.1c-.2-8.7-1.7-84.9 4.1-91.5 5.9-6.7 23.5-7.4 24.3-7.5h.1l2 .1c1.4-.1 2.2-.1 2.2-.1h.1l27 1.9 27.1-1.9h.1s.8 0 2.2.1l2.1-.1h.1c.7 0 18.4.7 24.3 7.5 5.8 6.6 4.2 82.8 4.1 91.4l-3.1 54.2c1.3 2.9 5.1 11.5 4.6 13.9-.5 2.5-4.6 11.6-8.4 14.8-2.4 2-6.1 3.5-8 3.5M553 232.9c-.8 5.6-2 8.2-3 10.2-.7 1.5-1.2 2.5-1.3 4.4-.8 9.4 4.5 47.5 8.4 75.3 1.8 13 2.9 21.3 3.6 26.6 0-1.3.2-2.9.4-4.5.1-.7.2-1.3.2-2.1.5-4.7 2.4-8.1 5.3-9.6 1-3.7-4.2-37.5-7.8-58.2l-5.8-42.1zm-83.6 100.3c3 1.5 4.9 4.9 5.3 9.6.1.7.1 1.4.2 2.1.1.5.1 1 .2 1.4.7-5.2 1.8-12.5 3.3-23 4.1-28 9.7-66.3 8.9-75.8-.2-1.8-.6-2.9-1.3-4.4-.9-2-2.1-4.6-3-10.2l-5.7 42.1c-3.7 20.7-9 54.5-7.9 58.2"/>
  <path fill="#00A78E" d="M549.4 180s17.9.6 23.5 7.1c5.7 6.5 3.8 90.7 3.8 90.7l-3.1 54.4s5.2 11.2 4.6 13.5c-.5 2.4-4.5 11.2-8.1 14.2-2.4 2-5.9 3.3-7.5 3.3-.8 0-1.2-.3-.6-1.1 1.5-2.4 1.8-1.3 4.8-4.2 3.3-3.1 4-4.7 3.5-8.2-.5-3.5 0-3.3-3.2-4-.2-.1-.5-.1-.7-.1-3.8 0-1.9 7.9-3.1 7.9-.1 0-.2-.1-.4-.2-2.1-1.8-1.3-5.5-.8-10.5.5-4.7 2.4-7.7 5-8.9 2.6-1.2-7.5-59.2-7.5-59.2l-6.9-50.9c-.8 18.6-4.6 17.7-5.1 23.5-1.3 16 14.2 110.2 12.6 110.5h-.1c-2.3 0-25.6-6.3-41.1-6.3s-41.5 6.3-44 6.3h-.1c-1.6-.3 14.6-94.6 13.3-110.5-.5-5.8-4.2-4.9-5.1-23.5l-6.9 50.9s-10.1 58-7.5 59.2c2.6 1.2 4.5 4.1 5 8.9.5 5.1 1.3 8.8-.8 10.5-.2.1-.3.2-.4.2-1.2 0 .7-7.9-3.1-7.9-.2 0-.4 0-.7.1-3.2.7-2.7.4-3.2 4-.5 3.5.2 5.1 3.5 8.2 3 2.9 3.3 1.8 4.8 4.2.5.8.2 1.1-.6 1.1-1.6 0-5.1-1.4-7.5-3.3-3.6-3-7.6-11.8-8.1-14.2-.5-2.4 4.6-13.5 4.6-13.5l-3.1-54.4s-1.9-84.2 3.8-90.7c5.7-6.5 23.5-7.1 23.5-7.1l2.1.1c1.4-.1 2.2-.1 2.2-.1l27.1 1.9 27.1-1.9s.8 0 2.2.1l2.3-.1m-4.3-2h-.1l-27 1.9-27-1.9h-.2s-.8 0-2.2.1l-2-.1h-.2c-.8 0-18.8.8-25 7.8-1.2 1.4-2.5 4.6-3.5 18.1-.6 7.8-.9 18.3-1 31-.2 21.7.2 42.8.2 43l3 53.9c-2 4.5-5.1 11.8-4.6 14.3.5 2.4 4.6 11.9 8.8 15.3 2.6 2.1 6.5 3.8 8.8 3.8 1.6 0 2.3-.8 2.6-1.3.3-.5.6-1.5-.3-2.9-.3-.5-.6-.8-.8-1.1h.4c.9 0 2.8-.4 7.5-1.3 9-1.8 25.6-5 36.5-5 10.9 0 26.2 3.3 34.4 5.1 4.1.9 5.9 1.3 6.7 1.3.2 0 .4 0 .5-.1.4-.1.7-.2.9-.4-.4.4-.8.9-1.3 1.6-.9 1.3-.6 2.4-.3 2.9s1 1.3 2.6 1.3c2.3 0 6.2-1.7 8.8-3.8 4.2-3.4 8.2-12.9 8.8-15.3.6-2.5-2.5-9.9-4.6-14.3l3.1-53.9c0-.2.5-21.3.2-43-.1-12.7-.5-23.2-1-31-1-13.5-2.3-16.7-3.5-18.1-6.2-7.1-24.2-7.8-25-7.8h-.2l-2 .1c-1.3-.1-2.1-.1-2.2-.1l.2-.1zm15.5 162.7c-.7-5.2-1.5-11.3-2.5-18.1-3.9-27.8-9.1-65.8-8.4-75.1.1-1.7.6-2.6 1.2-4 .6-1.2 1.2-2.6 1.8-4.8l5 36.3c4.3 24.7 8.4 52.5 7.9 57.4-2.5 1.7-4.2 4.5-5 8.3m-90.3-8.1c-.5-4.9 3.6-32.7 7.9-57.4l5-36.3c.6 2.1 1.3 3.5 1.8 4.8.7 1.4 1.1 2.4 1.2 4 .8 9.4-4.8 47.6-8.9 75.6-.9 5.9-1.7 11.4-2.3 16.1-.8-3.2-2.5-5.5-4.7-6.8m96.2 15.1h.3l.3.1c.4.1.8.2 1.1.2 0 .2.1.5.1.7 0 .4.1.8.2 1.3.4 2.6.1 3.6-2.9 6.5-1.2 1.2-1.9 1.6-2.5 1.9-.5.3-.9.5-1.3.9.7-.8.7-2.2.5-4 .4.2.7.3 1.1.3 2.4 0 2.4-2.6 2.5-4.3.1-.8.1-3.1.6-3.6m-98.7.3c.3-.1.7-.1 1.1-.2l.3-.1h.3c.5.5.5 2.8.5 3.7 0 1.7.1 4.3 2.5 4.3h.4c-.1 1.1-.2 2.1.1 2.9 0 0-.1 0-.1-.1-.6-.3-1.2-.8-2.5-1.9-3-2.9-3.3-3.8-2.9-6.5.1-.5.1-.9.2-1.3.1-.3.1-.6.1-.8"/>
  <path fill="#FFF" d="M512.3 156.1s-2.9 5.5-6.4 11.3c-3.4 5.6-11.6 12.2-11.6 12.2s11.2 8.9 25.7 8.6c11.8-.3 17.1-1.2 26.7-8.6-11-2.4-12.8-8.4-14.6-12.5-2.6-5.8-3.4-10.6-2.3-10.9-11.6.2-17.5-.1-17.5-.1"/>
  <path fill="none" stroke="#00AB9F" stroke-width="2.188" stroke-miterlimit="10" d="M512.3 156.1s-2.9 5.5-6.4 11.3c-3.4 5.6-11.6 12.2-11.6 12.2s11.2 8.9 25.7 8.6c11.8-.3 17.1-1.2 26.7-8.6-11-2.4-12.8-8.4-14.6-12.5-2.6-5.8-3.4-10.6-2.3-10.9-11.6.2-17.5-.1-17.5-.1z"/>
  <path fill="#00A78E" d="M503.6 90.9c0 3.2-2.9 5.8-6.4 5.8-3.5 0-6.4-2.6-6.4-5.8 0-3.2 2.9-5.8 6.4-5.8 3.5 0 6.4 2.6 6.4 5.8"/>
  <path fill="#00A78E" d="M508.5 91.1s-.5-.4-1.3-1-2.1-1.4-3.5-2.1c-.7-.4-1.6-.7-2.4-1-.9-.3-1.8-.5-2.7-.6-.9-.1-1.9-.1-2.9 0-1 0-1.9.4-2.9.7-.9.4-1.9.8-2.8 1.4-.9.5-1.7 1.2-2.5 1.9-.8.6-1.7 1.6-2.7 2.1-.5.3-1 .5-1.5.6-.5.1-1 .2-1.4.3-1.8.2-3.2-.3-4.2-.9-.9-.6-1.3-1.1-1.3-1.1s.5.3 1.5.4c.9.1 2.3 0 3.7-.5.4-.1.7-.3 1.1-.5.4-.2.7-.4 1.1-.7.7-.6 1.2-1.4 2.2-2.3.9-.9 1.7-1.8 2.8-2.5 1-.8 2.1-1.3 3.2-1.8 1.2-.3 2.3-.7 3.5-.7 1.2-.2 2.3.1 3.4.3.5.2 1.1.3 1.6.5.5.3 1 .5 1.4.7.9.5 1.7 1.1 2.5 1.7.7.6 1.3 1.3 1.9 1.8.5.6.9 1.2 1.3 1.6.6 1.1.9 1.7.9 1.7"/>
  <path fill="#00A78E" d="M495 88.7c0 1.2-.6 2.1-1.3 2.1-.7 0-1.3-1-1.3-2.1 0-1.2.6-2.1 1.3-2.1.8 0 1.3 1 1.3 2.1m16.2-19.3s3.6 3.8-6 4.8c-9.6 1.1-17.6-6.6-22-1-4.4 5.6-11.9 7.7-5.7 2.2s4.9-8.8 14.7-8.2c9.8.6 18.3.5 19 2.2m16 2.4s-2.9 4.6 6.7 3.2c9.6-1.3 16.1-10.8 21.4-6.5s13.1 4.6 6 .8-6.3-7.4-15.8-4.4c-9.6 3.1-17.9 5.1-18.3 6.9"/>
  <path fill="#FFF" d="M519.7 100.9s3.4 10.1 6.4 13.3c10.9 11.9-19 10-11.4 5.7"/>
  <path fill="#00A78E" d="M519.7 100.9s.3.6.8 1.5c.5 1 1.2 2.4 2.1 4 .4.8.9 1.7 1.4 2.6.5.9 1 1.9 1.7 2.8.3.5.6.9 1 1.3l.3.3.3.4c.2.2.4.5.6.8.8 1 1.6 2.3 1.7 3.9.1.8-.1 1.7-.6 2.4-.4.7-1 1.2-1.6 1.6-1.2.7-2.5 1.1-3.7 1.3-2.4.4-4.7.2-6.6-.1-.9-.2-1.8-.5-2.5-.8-.4-.2-.7-.4-1-.7-.3-.3-.4-.7-.2-1.1.3-.6.7-.8 1-.9.3-.1.4-.2.4-.2l-.3.3c-.2.2-.6.5-.7.9-.1.4.4.8 1.1 1 .7.2 1.5.3 2.4.4.9.1 1.9.1 2.9 0s2.1-.2 3.2-.5 2.1-.6 3-1.2c.8-.6 1.3-1.3 1.2-2.2-.1-.9-.7-1.9-1.3-2.8-.2-.2-.3-.4-.5-.7l-.3-.3-.3-.4c-.2-.3-.4-.5-.6-.8-.2-.3-.4-.5-.5-.8-.6-1.1-1.1-2.1-1.5-3.1-.4-1-.8-2-1.1-2.9-1.4-3.4-1.8-6-1.8-6m-15.2 30.7s19.7 9.6 31.1-6c-8.2 26.7-33.4 4.2-31.1 6m31.3-41.3c0 3.2 2.9 5.8 6.4 5.8 3.5 0 6.4-2.6 6.4-5.8 0-3.2-2.9-5.8-6.4-5.8-3.6 0-6.4 2.6-6.4 5.8"/>
  <path fill="#00A78E" d="M530.4 90.5s.5-.4 1.3-1 2.1-1.4 3.6-2.1c.7-.4 1.6-.7 2.4-1 .9-.3 1.8-.5 2.7-.6.9-.1 1.9-.1 2.9 0 1 0 2 .4 2.9.7.9.4 1.9.8 2.8 1.5.9.5 1.8 1.2 2.6 1.9.8.6 1.7 1.6 2.7 2.1.5.3 1.1.5 1.5.6.5.1 1 .2 1.4.3 1.8.2 3.3-.3 4.2-.9.9-.6 1.3-1.1 1.3-1.1s-.5.3-1.5.4c-.9.1-2.3 0-3.8-.5-.4-.1-.7-.3-1.1-.5-.4-.2-.7-.4-1.1-.7-.7-.6-1.2-1.4-2.2-2.3-.9-.9-1.7-1.8-2.8-2.5-1-.8-2.1-1.3-3.3-1.8-1.2-.3-2.4-.7-3.6-.7-1.2-.2-2.4.1-3.5.3-.5.2-1.1.3-1.6.5-.5.3-1 .5-1.5.7-.9.5-1.8 1.1-2.5 1.7-.7.6-1.3 1.3-1.9 1.8-.5.6-.9 1.2-1.3 1.6-.3 1-.6 1.6-.6 1.6m7.5-1.8c0 1.2.6 2.1 1.3 2.1.7 0 1.3-1 1.3-2.1 0-1.2-.6-2.1-1.3-2.1-.7 0-1.3.9-1.3 2.1"/>
  <path fill="#00A78E" d="M492.3 38.3c3.5 12.3 2.1 23.4-4.3 34.5-3.9 6.8-10 12.3-13.6 19.3-3.6 6.9-4 16.7 2.2 21.4.1 0 0 .1-.1.1-2.6-.2-4.7 2.5-4.8 5.1-.1 2.7 1.2 5.2 2.7 7.5 3.9 6.4 9.4 13 16.9 13.5-11 6.7-27.1 2.8-33.8-8.3-1.9-3.1-3-6.6-4.1-10.1-5.8-18.8-9.4-38.9-5.4-58.2 4-19.3 16.9-37.6 35.6-43.8 3.7-1.2 1 4.3 4.5 7.2.3.2 3.4 3.3 3.4 7.2 0 1.5.1 3 .7 4.3 3.2 6.9 10.9 10.1 18.2 12 8 2.1 16.2 3.4 24.4 3.8 3.2.2 6.5.2 9.5 1.5 1.9.9 3.6 2.2 5.2 3.7 8.7 8 15.2 19 15.9 30.8.7 12.1-5.6 24.9-16.8 29.9l13.2 1.2c-1.4 6.3-5.1 12.2-10.3 16.1-2.5 1.9-6.3 5.1-8.4 7.3-1.2 1.3-1.9 1.2.4 2.3.9.5 4 5.4 4 6.5 0 .5-.4 1-.7 1.4l-6.5 7.2c19.5 1.2 39-11.9 45.3-30.4 2.3-6.8 3-14.1 3.7-21.2.9-8.9 1.2-17.9 1.1-26.9-.1-7.4.6-15.2-1.3-22.5-2.3-9-8.3-16.6-14-23.8-2.2-2.8-4.6-5.5-7.1-8-4.8-4.8-10.4-9.6-17.1-11.7-3.5-1.1-7.3-1.5-11-1.8-14.6-1.2-29.3-1.7-43.9-1.5-4.1.1-10.4 1.9-12.5 5.4"/>
  <path fill="#FFF" d="M491.6 38.5c4.1 15.7-.1 29.5-9.9 42-5.8 7.4-12.4 15.7-10.2 25.8.4 1.9 1.2 3.7 2.3 5.3.2.2 1.4 2 1.4 1.5 0-.1-.2-.2-.3 0 0 .1-2 1.2-2.2 1.5-.6.7-1.1 1.6-1.4 2.4-.5 1.7-.3 3.4.2 5 2.5 8.4 10.9 17.4 19.8 18.4-.1-.5-.3-.9-.4-1.4-8.9 5.1-20.5 3.9-28.3-2.8-8.5-7.3-10.7-21.6-12.9-32.1-4.6-22.3-3.8-46.6 9.9-65.7 2.8-3.8 6-7.3 9.6-10.3 2.1-1.8 4.4-3.3 6.9-4.7 1.5-.9 5.9-3.8 7.6-3.4 2 .5 1.4 3.1 2.1 4.7.5 1 1 1.5 1.6 2.3 1.8 2.3 2.7 3.4 3.2 6.7.3 1.7.1 3 .8 4.7C494.5 46 503.8 49.1 511 51c5 1.3 10.1 2.2 15.2 2.9 6.7.8 14.5-.2 20.2 3.8 19.7 13.7 27 49.4 1.7 61.4-.7.3-.3 1.3.4 1.4l6.6.6c1.5.1 3.1.1 4.5.4 2.2.5 1.8-.5.8 1.4-2.8 5.6-5 10-10 14-3.1 2.5-6.9 5-9.2 8.3-.1.2-.1.6 0 .8 1.9 2.6 6.6 4.9 4.4 8.6-1.4 2.4-4.1 4.6-6 6.7-.4.5-.1 1.3.5 1.3 14.8.6 29.3-6.1 38.6-17.6 11.1-13.8 11.6-33.2 12.1-50.1.3-9.9 1-20.6-.5-30.4-1.3-8.5-5.7-15.8-10.8-22.6-5.2-7-10.9-13.8-17.8-19.2-6.7-5.2-13.7-7.2-22-7.9-12.1-1.1-24.2-1.5-36.3-1.5-7 0-16.1-.6-20.8 5.8-.6.8.7 1.5 1.3.8 5.1-6.9 16.9-5.1 24.2-5 8.6.1 17.2.5 25.8 1.1 9.5.7 18.3 1.6 26.1 7.5 6.3 4.7 11.5 10.7 16.3 16.9 5.1 6.5 10.1 13.6 12 21.8 2 8.7 1.2 18.2 1.1 27.1-.1 8.6-.6 17.1-1.5 25.6-.9 8.4-2.4 16.8-6.7 24.1-8.4 14.2-24.6 23-41.1 22.2.2.4.4.9.5 1.3 2-2.2 7.4-6.1 7.4-9.3 0-2.8-3.5-4.6-4.2-6.8-.9-3 6.3-7.2 8.6-9 3.7-3.1 6.7-7 8.5-11.5.5-1.2 2.3-4.3.9-5.4-1-.8-4.7-.5-5.9-.6l-7.6-.7c.1.5.3.9.4 1.4 20.7-9.8 20.6-36.3 8.8-53-2.9-4-6.3-8.2-10.4-11-4.9-3.5-10.6-3.1-16.4-3.5C518.1 52 494 49.8 491.9 34c-.4-3.3-1.8-5.1-3.7-7.8-1.6-2.3-1.4-2.6-2-4.8-.1-.5-.1-1.3-.5-1.8-.6-.7-.8-.8-1.7-1-3.2-.6-9.1 3.6-11.6 5.2-4.9 3.1-9.1 7.1-12.7 11.6-15.5 19.4-16.8 44.9-12.1 68.4 2.4 11.8 4.7 27.4 15.1 35 8.3 6 19.6 6.8 28.5 1.8.7-.4.3-1.3-.4-1.4-5.5-.6-9.5-4-12.8-8.1-2.7-3.4-11-15.5-1.9-16.4.4 0 .6-.2.7-.6 0 0 0-.1.1-.1.1-.2 0-.6-.2-.7-13.4-11.5 3.9-27.8 10.2-37.6 7.4-11.3 9.1-24.3 5.7-37.2.2-1.3-1.3-.9-1 0m2.7 141.1l-4.1 8.6 23.2 11 6.7-11"/>
  <path fill="none" stroke="#00A78E" stroke-width="2" stroke-miterlimit="10" d="M494.3 179.6l-4.1 8.6 23.2 11 6.7-11z"/>
  <path fill="#FFF" d="M546.4 179.6l4.2 8.6-23.2 11-6.7-11"/>
  <path fill="none" stroke="#00A78E" stroke-width="2" stroke-miterlimit="10" d="M546.4 179.6l4.2 8.6-23.2 11-6.7-11z"/>
  <path fill="#FFF" d="M520.7 188.2v163.4"/>
  <path fill="none" stroke="#00A78E" stroke-width="2" stroke-miterlimit="10" d="M520.7 188.2v163.4"/>
  <path fill="#00A78E" d="M514.9 213c1.9 0 1.9-3 0-3s-1.9 3 0 3m0 32.5c1.9 0 1.9-3 0-3s-1.9 3 0 3m0 32.4c1.9 0 1.9-3 0-3s-1.9 3 0 3m0 32.4c1.9 0 1.9-3 0-3s-1.9 3 0 3m0 32.5c1.9 0 1.9-3 0-3s-1.9 3 0 3"/>
  <path fill="#FFF" d="M460.6 326.6h9.4v7.9h-9.4z"/>
  <path fill="none" stroke="#00A78E" stroke-width="2" stroke-miterlimit="10" d="M460.6 326.6h9.4v7.9h-9.4z"/>
  <path fill="#FFF" d="M566 320.4h9.4v7.9H566z"/>
  <path fill="none" stroke="#00A78E" stroke-width="2" stroke-miterlimit="10" d="M566 320.4h9.4v7.9H566z"/>
  <path fill="#FFF" d="M482.7 331.9l26.6-11.3"/>
  <path fill="none" stroke="#00A78E" stroke-width="2" stroke-miterlimit="10" d="M482.7 331.9l26.6-11.3"/>
  <path fill="#FFF" d="M553.8 331.9l-26.6-11.3"/>
  <path fill="none" stroke="#00A78E" stroke-width="2" stroke-miterlimit="10" d="M553.8 331.9l-26.6-11.3"/>
  <path fill="#FFF" d="M501.6 90.9c0 1-.5 1.8-1.2 1.8s-1.2-.8-1.2-1.8.5-1.8 1.2-1.8c.6 0 1.2.8 1.2 1.8m45.5 0c0 1-.5 1.8-1.2 1.8s-1.2-.8-1.2-1.8.5-1.8 1.2-1.8 1.2.8 1.2 1.8"/>
</svg>