<svg xmlns="http://www.w3.org/2000/svg" width="505.5" height="494.2" viewBox="0 0 505.5 494.2">
  <path fill="#FFF" d="M279.9 232.2l-38.3-9.8h-.1c-.6 0-1.7.1-1.9.1l-9 2.1h-.4c-.9 0-3.1-.6-3.8-1.1l-8.2-5.8c-.4-.3-.7-.7-.9-1.3l-2.3-3.5c-.8-1.2-.7-2.9.3-3.9l.6-.6.4-.1c.3-.1.7-.2 1.1-.2.5 0 1.2.2 1.7.9l2.1 3.3c.2.4.5.7.8.9l2.6 1.1c.3.1.6.2 1 .2.5 0 1-.2 1.5-.5l.7-.5-6.6-5.1v-.5c0-1.1.3-1.9.8-2.4.3-.3.9-.7 1.8-.7.8 0 1.8.3 3.1.9l12.9 4c.1 0 .2.1.4.1l41.4 3.4c2.3-.3 5.4-1 9.3-2.1.2 0 .3-.1.4-.1.9-.3 20.2-6.3 24.3-6.3 1.2 0 1.6.6 1.7 1l4.1 21c.1.3 0 .7-.2 1-1.6 2.1-22.1 3.8-34.2 4.6l-7.1-.1z"/>
  <path fill="#00A78E" d="M315.5 205.8c.4 0 .7.1.7.2l4.1 21c.4 2.1-33.6 4.4-33.6 4.4l-6.8-.2-38.2-9.8h-.4c-.6 0-1.8.1-2 .1l-9.1 2.1h-.1c-.7 0-2.8-.6-3.2-.9l-8.2-5.8c-.3-.2-.4-.5-.5-.9l-2.4-3.6c-.5-.8-.4-2 .2-2.7l.4-.5c.3-.1.7-.2 1-.2.3 0 .6.1.9.5l2.1 3.3c.3.6.8 1 1.3 1.2.7.3 1.7.8 2.6 1.1.4.2.9.3 1.4.3.7 0 1.4-.2 2.1-.7l1.8-1.3-6.2-4.8-1-.8c0-1.6.7-2.1 1.6-2.1.8 0 1.7.3 2.7.8l13 4c.2.1.4.1.6.1l41.5 3.4c4.1-.6 9.7-2.2 9.9-2.2-.2.3 19.8-6 23.8-6m0-2v2-2c-4.2 0-22.4 5.7-24.6 6.4-.1 0-.2 0-.3.1-3.8 1-6.8 1.7-9.1 2l-41.2-3.4h-.1l-12.8-3.9c-1.3-.6-2.5-.9-3.4-.9-1.3 0-2.1.5-2.5 1-.7.7-1.1 1.8-1.1 3.1v1l.8.6 1 .8 4 3.1c-.2.1-.3.1-.5.1s-.4 0-.6-.1c-.9-.4-1.9-.8-2.6-1.1-.1 0-.2-.2-.3-.4v-.2l-2.1-3.3c-.6-.9-1.5-1.4-2.5-1.4-.6 0-1.1.2-1.4.3h-.2l-.5.2-.4.4-.4.5c-1.3 1.3-1.5 3.5-.4 5.1l2.3 3.4c.2.7.6 1.3 1.2 1.6l8.2 5.8c.9.6 3.4 1.2 4.4 1.2h.6l9-2.1c.3 0 1.2-.1 1.7-.1h.1l38.1 9.7.2.1h.2l6.8.2h.2c.1 0 8.1-.5 16.2-1.3 17.2-1.7 18-2.7 18.7-3.6.4-.5.6-1.2.4-1.8l-4.1-21c-.4-.7-.8-2.1-3-2.1"/>
  <path fill="#FFF" d="M344.5 108.3s-1.5-13.6-5.7-9.8c-3.5 3.2-5.1 17.8-3 27.9.9 4.5 6.3 9.7 8.6 7.4 2.2-2.2.1-25.5.1-25.5"/>
  <path fill="none" stroke="#00AB9F" stroke-width="2.562" stroke-miterlimit="10" d="M344.5 108.3s-1.5-13.6-5.7-9.8c-3.5 3.2-5.1 17.8-3 27.9.9 4.5 6.3 9.7 8.6 7.4 2.2-2.2.1-25.5.1-25.5"/>
  <path fill="#FFF" d="M434.6 106s2-13.6 6.4-9.7c4.7 4.1 4.2 21.6 2.6 28-1.1 4.5-7.1 9.5-9.5 7.2-2.3-2.3.5-25.5.5-25.5"/>
  <path fill="#FFF" d="M436.7 86.7c0 4.8 3.1 43.2-10.2 60.1-7.5 9.6-18.1 18.8-24.2 20.2-10 2.4-16.5 4.1-25.3 2.2-8.8-1.9-21.8-11.2-29.8-29.1-3.8-8.5-14.1-75.6 5-94.5 12.5-12.4 40-10.8 50.7-10.4 10.7.5 34.3 4.3 33.8 51.5m-8.8 248.4h-74.7l32.2 27.5c0-3.1 1.1-5.6 4.5-5.6s38 4.3 38 7.4v-29.3z"/>
  <path fill="#00A78E" d="M363.7 105.4c0 2.6-2.1 4.7-4.7 4.7s-4.7-2.1-4.7-4.7 2.1-4.7 4.7-4.7 4.7 2.1 4.7 4.7"/>
  <path fill="#00A78E" d="M352.3 103.8c.1 0 6.5-6.2 14.1-6.2 3.9 0 8.2 1.7 11.9 6.7l-1.1 1.4c-3.4-4.6-7.2-6.1-10.8-6.1-3.5 0-6.8 1.5-9.2 2.9-1.2.7-2.2 1.5-2.9 2-.3.3-.6.5-.8.7l-.3.2-.9-1.6z"/>
  <path fill="#FFF" d="M355.6 105.7c0 .9.5 1.6 1.1 1.6.6 0 1.1-.7 1.1-1.6 0-.9-.5-1.6-1.1-1.6-.6 0-1.1.7-1.1 1.6"/>
  <path fill="#00A78E" d="M400.2 105c0 2.6 2.1 4.7 4.7 4.7s4.7-2.1 4.7-4.7-2.1-4.7-4.7-4.7-4.7 2.1-4.7 4.7"/>
  <path fill="#00A78E" d="M423.3 105.5l-.3-.2c-1.2-1.1-6.8-5.6-12.9-5.6-3.6 0-7.3 1.5-10.8 6.1l-1.1-1.4c3.7-5 8-6.7 11.9-6.7 7.7 0 14.1 6.2 14.1 6.2l-.9 1.6z"/>
  <path fill="#FFF" d="M401.6 106c0 .9.5 1.6 1.1 1.6.6 0 1.1-.7 1.1-1.6 0-.9-.5-1.6-1.1-1.6-.6 0-1.1.7-1.1 1.6"/>
  <path fill="#00A78E" d="M399.7 77.4s-6 5.4-1 6.4c5.1 1 13.3-.8 17 0 3.7.8 10.9 3.7 10.9 3.7l.5-3.1s-9.8-9.5-27.4-7m-24.9-.6s5.8 5.2.8 6.3c-5.1 1.2-13.3-.3-17 .6-3.7 1-11 4.1-11 4.1l-.4-3.1c0 .1 10.1-9.7 27.6-7.9m18.1 50.9l-.9.6c-.6.3-1.5.8-2.6 1.2-.6.2-1.2.4-1.9.5-.7.1-1.4.3-2.3.2-.4 0-.9-.1-1.3-.2-.5-.1-1-.4-1.4-.9-.2-.2-.4-.5-.5-.8l-.1-.1v-.3l-.1-.3-.1-.3-.1-.4-.1-.7c-.1-1.7 0-3.2.3-4.7.2-1.4.5-2.7.9-3.9.3-1.1.7-2 .9-2.6.3-.6.4-1 .4-1s0 .4.1 1.1v2.8c0 1.1 0 2.5-.1 3.8 0 1.4-.1 2.9 0 4.2 0 .5.2 1.4.3 1.4.1.2.6.4 1.2.5 1.2.2 2.5.1 3.6.1 2.3-.1 3.8-.2 3.8-.2m9.4 8.4s-16.8 7-30.5 1.1c1.9 4.1 20.2 14.1 30.5-1.1"/>
  <path fill="#FFF" d="M398.9 170.3s-.4 13 5.7 16.6c5.5 3.2 7.9 3.9 7.9 3.9s-26.8 10.8-48.2 2.1c11.5-3.2 10.8-7.2 10.8-7.2l2.1-13.5 21.7-1.9z"/>
  <path fill="none" stroke="#00A78E" stroke-width="2" stroke-miterlimit="10" d="M398.9 170.3s-.4 13 5.7 16.6c5.5 3.2 7.9 3.9 7.9 3.9s-26.8 10.8-48.2 2.1c11.5-3.2 10.8-7.2 10.8-7.2l2.1-13.5 21.7-1.9z"/>
  <path fill="#FFF" d="M432.1 345.8c-1 2.2-1.4 4.4 1.4 4.3l.8-1.1 4.6-6.4 1.3 1.8c.8 1.1.9 2.3.5 3.5-.4.9-.8 2-1.1 2.7-.2.5-.6 1-1.2 1.3l-3.2 2.2c-.8.6-.4 1.2-.2 1.9l.5.4c.7.6 1.8.7 2.6.1l3.5-2.5c.3-.1.7-.3.8-.5l5.5-8.4c.3-.5.9-2.8.8-3.4l-2.4-9.1c0-.3-.2-2.2-.1-2.4l8.7-38.8v-6.8s-1-34.3-3.1-33.8l-20.7 4.6c-1.6.4 3.4 18.1 3.4 18.1 2.2 8.6 3 11.6 3.6 16.7l-2.3 41.9c0 .2 0 .4-.1.6l-3.6 13.1z"/>
  <path fill="none" stroke="#00A78E" stroke-width="2" stroke-miterlimit="10" d="M432.1 345.8c-1 2.2-1.4 4.4 1.4 4.3l.8-1.1 4.6-6.4 1.3 1.8c.8 1.1.9 2.3.5 3.5-.4.9-.8 2-1.1 2.7-.2.5-.6 1-1.2 1.3l-3.2 2.2c-.8.6-.4 1.2-.2 1.9l.5.4c.7.6 1.8.7 2.6.1l3.5-2.5c.3-.1.7-.3.8-.5l5.5-8.4c.3-.5.9-2.8.8-3.4l-2.4-9.1c0-.3-.2-2.2-.1-2.4l8.7-38.8v-6.8s-1-34.3-3.1-33.8l-20.7 4.6c-1.6.4 3.4 18.1 3.4 18.1 2.2 8.6 3 11.6 3.6 16.7l-2.3 41.9c0 .2 0 .4-.1.6l-3.6 13.1z"/>
  <path fill="#00A78E" d="M440.6 89.7s8.7-22.6 6.9-31.7c-1.7-9-2.5-22.9-22-31.7s-18.8-4.5-21.2-9.6-2.8 2.8-2.8 2.8l-4.9-8.3s.3 4-1.7 6.4c-3.1 3.5-6-5.1-5.5-11.3-2.6 9.6-2.9 16.4-6.7 11.9-3.8-4.5-5.1-15.8-2.2-17-8.6 5.1-14.5 17.2-12.8 20.9-7.3-4.2-7.3-7.9-7.3-7.9l-3.2 7.4s-29.9 5.8-14.9 77.4c1.3 6.3 2.8 13.5 2.8 13.5 5.5.3.6-8.4-.3-34.7-1.2-36.4 32.3-28.4 44.7-29.8 15-1.7 40.1-3.7 44.6 15.8s2.4 45.8 2.4 45.8l4.1 4.3V89.7z"/>
  <path fill="none" stroke="#FFF" stroke-width="2.523" stroke-miterlimit="10" d="M440.6 89.7s8.7-22.6 6.9-31.7c-1.7-9-2.5-22.9-22-31.7s-18.8-4.5-21.2-9.6-2.8 2.8-2.8 2.8l-4.9-8.3s.3 4-1.7 6.4c-3.1 3.5-6-5.1-5.5-11.3-2.6 9.6-2.9 16.4-6.7 11.9-3.8-4.5-5.1-15.8-2.2-17-8.6 5.1-14.5 17.2-12.8 20.9-7.3-4.2-7.3-7.9-7.3-7.9l-3.2 7.4s-29.9 5.8-14.9 77.4c1.3 6.3 2.8 13.5 2.8 13.5 5.5.3.6-8.4-.3-34.7-1.2-36.4 32.3-28.4 44.7-29.8 15-1.7 40.1-3.7 44.6 15.8s2.4 45.8 2.4 45.8l4.1 4.3V89.7z"/>
  <path fill="#00A78E" d="M337.6 99.1c.1.3.5.6.8.6 2.1.1 1.8 0 2.6 1.4.4.7.7 1.2 1.4 1.5 2.5 1.1 3.1.8 3.9 3.7.5 1.7 2 4.8 3.1 6.2 2.1 2.7 5.3 4.1 8.8 4.6 4.5.5 9 .4 13.4-.7 4.1-1 6.8-3.7 8.8-7.3 1.3-2.5 2.1-5.2 2.3-8 .2-2.7 2.4-4.1 5-4.2h3.2c2.7.1 4.8 1.5 5 4.2.2 2.8.9 5.5 2.3 8 1.9 3.6 4.7 6.3 8.8 7.3 4.4 1.1 8.9 1.3 13.4.7 3.5-.4 6.7-1.9 8.8-4.6 1.1-1.4 2.6-4.5 3.1-6.2.8-2.8 1.5-2.6 3.9-3.7.7-.3 1-.9 1.4-1.5.8-1.5.5-1.4 2.6-1.4.3 0 .7-.4.8-.6.4-1.9-.3-3.2-2.1-4-.4-.2-.8-.4-1.2-.5-9.3-3.2-18.8-4.9-28.6-4.4-4.2.2-8.4.9-12.2 2.7-1.3.6-2.5 1.2-2.6 2.9-1.5-.3-8.4-.3-9.9 0 0-1.7-1.3-2.3-2.6-2.9-3.9-1.8-8-2.4-12.2-2.7-9.8-.5-19.3 1.2-28.6 4.4-.4.1-.8.3-1.2.5-1.9.8-2.6 2-2.2 4m63.1-4.5c5.2-2.2 10.5-2.5 16.1-2.1 6.2.5 14.3 2.6 15 9.8.2 1.8-.3 3.7-.9 5.4-1.6 4.9-4.7 8.1-10.1 8.7-4.2.4-8.5.6-12.7-.2-5.5-1.1-8.8-4.9-10.6-10-.5-1.3-.7-2.8-.9-4.2-.7-4 1.2-6.2 4.1-7.4m-53.9 7.7c.6-7.2 8.7-9.3 15-9.8 5.5-.5 10.9-.1 16.1 2.1 2.9 1.2 4.8 3.4 4.2 7.3-.2 1.4-.4 2.9-.9 4.2-1.8 5.1-5 8.9-10.6 10-4.2.8-8.4.7-12.7.2-5.4-.6-8.5-3.8-10.1-8.7-.7-1.6-1.2-3.5-1-5.3"/>
  <path fill="#d20962" d="M304.8 199.1l17 34.4 30.5-6.7-1.8 46.5c-.4 5.3-.6 22.6.6 38.2l2.6 20.8H427l2.7-24.4c.8-12.9-.1-32.1-.5-37l-4.2-29.2 3.5 12 25.7-6.1s-2.7-9.5-11.9-29.6-29.6-27.2-29.6-27.2l-24.7 4-23.5-1.9s-19.5-6.5-39.4 3.4c-19.8 9.8-20.3 2.8-20.3 2.8"/>
  <path fill="none" stroke="#00A78E" stroke-width="2" stroke-miterlimit="10" d="M304.8 199.1l17 34.4 30.5-6.7-1.8 46.5c-.4 5.3-.6 22.6.6 38.2l2.6 20.8H427l2.7-24.4c.8-12.9-.1-32.1-.5-37l-4.2-29.2 3.5 12 25.7-6.1s-2.7-9.5-11.9-29.6-29.6-27.2-29.6-27.2l-24.7 4-23.5-1.9s-19.5-6.5-39.4 3.4c-19.8 9.8-20.3 2.8-20.3 2.8"/>
  <path fill="#FFF" d="M494.3 373.3l-193 1.2-172.1-128 81.6-4.6"/>
  <path fill="none" stroke="#00A78E" stroke-width="5" stroke-miterlimit="10" d="M494.3 373.3l-193 1.2-172.1-128 81.6-4.6z"/>
  <path fill="#FFF" d="M393.1 232.2l.2 2.6c-.3.1-1.2.3-2.5.3-2.6 0-4-1.1-4-3.8 0-2.1 0-4.4.1-5.7h-1.3v-2c2-.3 2.7-1.5 3-3.7h2.2c-.1.9-.1 2.3-.1 3.2h2.4v2.6h-2.4v4.6c0 1.8.4 2.3 1.6 2.3.1-.1.5-.2.8-.4m12.4-2.8v-2.3c0-3-1.3-4.3-5-4.3-2.1 0-3.5.4-5.8.4.1 2.1.1 4.7.1 6.3 0 1.6-.1 4.6-.1 5.5h3.9c-.1-.9-.2-3.7-.2-5.5 0-1 0-2.3.1-4 .4-.1.9-.2 1.4-.2 1.4 0 1.8.7 1.8 2.5v1.8c0 1.6-.1 4.6-.1 5.5h3.9v-5.7m-26.4.5h-1.5v.1c0 1.7 1.1 2.8 3.1 2.8 1.2 0 2.3-.4 3.2-.9l.1 2.6c-.8.4-2.4.6-3.9.6-4.1 0-6.1-1.4-6.5-5.3-.5 0-1.2 0-2.2-.1 0 .7-.1 1.3-.1 1.8 0 1 0 2.3.2 3.3-2.3 0-4 .3-5.8.3-3.4 0-4.6-1.4-4.6-3.8 0-2.3 1.9-3.6 6-3.6h.6v-.2c0-1.7-.5-2.3-2.2-2.3-1.2 0-2.4.4-3.2.9l-.1-2.6c1-.4 2.5-.7 4.3-.7 3.6 0 5 1.2 5 4.5v.5c.9 0 1.5 0 2.1.1.4-3.3 2-5.1 6-5.1 3.3 0 4.9 1.4 4.9 3.6.1 2.3-1.8 3.5-5.4 3.5m-11.3 2.8c-.1-.8 0-2 0-2.9h-.5c-1.7 0-2.4.6-2.4 1.6 0 1.1.5 1.5 1.8 1.5.4-.1.8-.1 1.1-.2m10.8-4.8c1.6 0 2.3-.5 2.3-1.7 0-.8-.6-1.3-1.4-1.3-1.5 0-2 1.2-2 2.9v.1h1.1m38.8 7c-2.3 0-4 .3-5.8.3-3.4 0-4.6-1.4-4.6-3.8 0-2.3 1.9-3.6 6-3.6h.6v-.2c0-1.7-.5-2.3-2.2-2.3-1.2 0-2.4.4-3.2.9l-.1-2.6c1-.4 2.5-.7 4.3-.7 3.6 0 5 1.2 5 4.5 0 1.8-.1 3.3-.1 4.4-.1.7-.1 2.1.1 3.1m-3.8-2.2c-.1-.8 0-2 0-2.9h-.5c-1.7 0-2.4.6-2.4 1.6 0 1.1.5 1.5 1.8 1.5.3-.1.8-.1 1.1-.2m4.6-8.4c-.1-.1-.1-.2-.2-.3 0-.1-.1-.3-.1-.4 0-.1 0-.3.1-.4 0-.1.1-.2.2-.3s.2-.2.3-.2c.1-.1.3-.1.4-.1.2 0 .3 0 .4.1.1.1.2.1.3.2s.1.2.2.3c0 .1.1.3.1.4 0 .1 0 .3-.1.4 0 .1-.1.2-.2.3s-.2.2-.3.2c-.1.1-.3.1-.4.1-.2 0-.3 0-.4-.1-.1 0-.2-.1-.3-.2m.4.1c.1 0 .2.1.3.1.1 0 .2 0 .3-.1.1 0 .2-.1.2-.2.1-.1.1-.2.2-.3 0-.1.1-.2.1-.3 0-.1 0-.2-.1-.3 0-.1-.1-.2-.2-.3-.1-.1-.2-.1-.2-.2-.1 0-.2-.1-.3-.1-.1 0-.2 0-.3.1-.1 0-.2.1-.2.2-.1.1-.1.2-.2.3 0 .1-.1.2-.1.3 0 .2 0 .3.1.5.1.1.2.2.4.3m-.1-1.4h.4c.2 0 .3 0 .4.1.1.1.1.2.1.3v.1s0 .1-.1.1l-.1.1h-.1l.3.5h-.3l-.1-.1-.2-.4h-.2v.5h-.2V223zm.4.5c.2 0 .3-.1.3-.2s0-.1-.1-.1c0 0-.1-.1-.2-.1h-.2v.4h.2zM112.5 123.2s1.5-13.6 5.8-9.8c3.5 3.2 5.1 17.8 3 27.9-.9 4.5-6.4 9.7-8.6 7.4-2.3-2.2-.2-25.5-.2-25.5m-91-2.4s-2-13.6-6.5-9.7c-4.7 4.1-4.2 21.6-2.6 28 1.1 4.5 7.2 9.5 9.6 7.2 2.3-2.2-.5-25.5-.5-25.5"/>
  <path fill="#FFF" d="M19.4 101.6c0 4.8-3.1 43.2 10.3 60.1 7.6 9.6 18.3 18.8 24.5 20.2 10.1 2.4 16.6 4.1 25.5 2.2 8.9-1.9 22-11.2 30-29.1 3.8-8.5 14.3-75.6-5-94.5C92 48 64.3 49.6 53.5 50.1c-10.7.5-34.6 4.3-34.1 51.5"/>
  <path fill="#00A78E" d="M85.5 117.5c0 2.6 2.1 4.7 4.8 4.7 2.6 0 4.8-2.1 4.8-4.7s-2.1-4.7-4.8-4.7c-2.6 0-4.8 2.1-4.8 4.7"/>
  <path fill="#00A78E" d="M104.6 118.7c-.1 0-6.5-6.2-14.3-6.2-4 0-8.3 1.7-12 6.7l1.2 1.4c3.5-4.6 7.2-6.1 10.9-6.1 3.5 0 6.9 1.5 9.3 2.9 1.2.7 2.2 1.5 2.9 2 .3.3.6.5.8.7l.3.2.9-1.6z"/>
  <path fill="#FFF" d="M89.1 117.4c0 .9-.5 1.6-1.1 1.6-.6 0-1.1-.7-1.1-1.6 0-.9.5-1.6 1.1-1.6.6-.1 1.1.7 1.1 1.6"/>
  <path fill="#00A78E" d="M53.3 117.5c0 2.6-2.1 4.7-4.8 4.7-2.6 0-4.8-2.1-4.8-4.7s2.1-4.7 4.8-4.7c2.6 0 4.8 2.1 4.8 4.7"/>
  <path fill="#00A78E" d="M35.1 120.3l.3-.2c1.3-1.1 6.9-5.6 13.1-5.6 3.6 0 7.4 1.5 10.9 6.1l1.1-1.4c-3.7-5-8.1-6.7-12-6.7-7.7 0-14.2 6.2-14.3 6.2l.9 1.6z"/>
  <path fill="#FFF" d="M46.6 117.4c0 .9-.5 1.6-1.1 1.6-.6 0-1.1-.7-1.1-1.6 0-.9.5-1.6 1.1-1.6.6-.1 1.1.7 1.1 1.6"/>
  <path fill="#00A78E" d="M56.4 96.6s6.1 5.4 1 6.4-13.5-.8-17.2 0c-3.7.8-11 3.7-11 3.7l-.5-3.1c.1 0 10-9.4 27.7-7m25.5-5s-5.9 5.2-.8 6.3c5.1 1.2 13.4-.3 17.2.6 3.8 1 11.1 4.1 11.1 4.1l.4-3.1c0 .1-10.3-9.7-27.9-7.9"/>
  <path fill="#00AB9F" d="M63.6 142.5s1.5.1 3.8.3c1.1.1 2.4.1 3.6-.1.6-.1 1.1-.3 1.2-.5l.1-.1s-.1.2 0 .1v-.1l.1-.3c.1-.4.1-.6.1-.9.1-1.4.1-2.9 0-4.2 0-1.4-.1-2.7-.1-3.9V130c0-.7.1-1.1.1-1.1s.2.3.4 1c.3.6.6 1.5.9 2.7.3 1.1.7 2.4.9 3.9.2 1.4.4 3 .3 4.7-.1.5-.1 1-.2 1.3l-.1.3v.2l-.1.2c-.1.3-.3.6-.6.8-.4.5-1 .7-1.5.9-.5.1-.9.2-1.3.2-1.7 0-3-.4-4.1-.8-1.1-.4-2-.8-2.6-1.2-.6-.3-.9-.6-.9-.6"/>
  <path fill="#00A78E" d="M54.1 151s16.9 7 30.8 1.1c-2 4-20.4 14.1-30.8-1.1m-36.7-41s-8.9-23-7.1-32.2c1.8-9.2 6.3-17.5 22.5-32.2 10.6-9.6 29.3-11.3 31.4-8.9 3.2 3.6 8.6 5.2 12.6.6 3.9-4.6 17.9-1.6 16.1 2.1 7.5-4.3 12.7 3.7 12.7 3.7s28.1 3.6 12.7 76.3c-1.3 6.4-2.9 13.7-2.9 13.7-5.7.4-.6-8.5.3-35.3 1.2-37-33.1-28.9-45.8-30.3-15.4-1.7-41.2-3.7-45.8 16.1-4.6 19.8-2.5 46.5-2.5 46.5l-4.2 4.3V110z"/>
  <path fill="none" stroke="#FFF" stroke-width="2.562" stroke-miterlimit="10" d="M17.4 110s-8.9-23-7.1-32.2c1.8-9.2 6.3-17.5 22.5-32.2 10.6-9.6 29.3-11.3 31.4-8.9 3.2 3.6 8.6 5.2 12.6.6 3.9-4.6 17.9-1.6 16.1 2.1 7.5-4.3 12.7 3.7 12.7 3.7s28.1 3.6 12.7 76.3c-1.3 6.4-2.9 13.7-2.9 13.7-5.7.4-.6-8.5.3-35.3 1.2-37-33.1-28.9-45.8-30.3-15.4-1.7-41.2-3.7-45.8 16.1-4.6 19.8-2.5 46.5-2.5 46.5l-4.2 4.3V110z"/>
  <path fill="#FFF" d="M57.6 185.1s.4 13-5.8 16.6c-5.5 3.2-8 3.9-8 3.9s27 10.8 48.6 2.1c-11.6-3.2-10.9-7.2-10.9-7.2L79.4 187l-21.8-1.9z"/>
  <path fill="none" stroke="#00A78E" stroke-width="2" stroke-miterlimit="10" d="M57.6 185.1s.4 13-5.8 16.6c-5.5 3.2-8 3.9-8 3.9s27 10.8 48.6 2.1c-11.6-3.2-10.9-7.2-10.9-7.2L79.4 187l-21.8-1.9z"/>
  <path fill="#FFF" d="M133.3 263.4l-27.1 6.2-3-12.8 3.1 31.3c.4 5.3.6 22.6-.6 38.2l-2.7 20.8H29.2l-2.7-24.4c-.8-12.9.1-32.1.5-37l4.3-29.2-3.6 12-25.9-6.1s2.7-9.5 12.1-29.6c9.3-20.1 29.9-27.2 29.9-27.2l24.9 4 23.7-1.9s22 5.5 31.3 25.6 9.3 29.8 9.3 29.8"/>
  <path fill="none" stroke="#00A78E" stroke-width="2" stroke-miterlimit="10" d="M133.3 263.4l-27.1 6.2-3-12.8 3.1 31.3c.4 5.3.6 22.6-.6 38.2l-2.7 20.8H29.2l-2.7-24.4c-.8-12.9.1-32.1.5-37l4.3-29.2-3.6 12-25.9-6.1s2.7-9.5 12.1-29.6c9.3-20.1 29.9-27.2 29.9-27.2l24.9 4 23.7-1.9s22 5.5 31.3 25.6 9.3 29.8 9.3 29.8"/>
  <path fill="#FFF" d="M24 360.7c1 2.2 1.4 4.4-1.4 4.3l-.8-1.1-4.7-6.4-1.3 1.8c-.8 1-1 2.3-.5 3.5.4.9.8 2 1.1 2.7.2.5.6 1 1.2 1.3l3.2 2.2c.8.6.4 1.2.2 1.9l-.5.4c-.7.6-1.9.7-2.7.1l-3.6-2.5c-.3-.1-.7-.3-.8-.5L8 360c-.3-.5-.9-2.8-.8-3.4l2.4-9.1c0-.3.2-2.2.1-2.4L1 306.3v-6.8s1-34.3 3.1-33.8l20.9 4.6c1.6.4-3.4 18.1-3.4 18.1-2.3 8.6-3.1 11.6-3.6 16.7l2.4 41.9c0 .2 0 .4.1.6l3.5 13.1z"/>
  <path fill="none" stroke="#00A78E" stroke-width="2" stroke-miterlimit="10" d="M24 360.7c1 2.2 1.4 4.4-1.4 4.3l-.8-1.1-4.7-6.4-1.3 1.8c-.8 1-1 2.3-.5 3.5.4.9.8 2 1.1 2.7.2.5.6 1 1.2 1.3l3.2 2.2c.8.6.4 1.2.2 1.9l-.5.4c-.7.6-1.9.7-2.7.1l-3.6-2.5c-.3-.1-.7-.3-.8-.5L8 360c-.3-.5-.9-2.8-.8-3.4l2.4-9.1c0-.3.2-2.2.1-2.4L1 306.3v-6.8s1-34.3 3.1-33.8l20.9 4.6c1.6.4-3.4 18.1-3.4 18.1-2.3 8.6-3.1 11.6-3.6 16.7l2.4 41.9c0 .2 0 .4.1.6l3.5 13.1z"/>
  <path fill="#FFF" d="M115.6 373.2c-.8 0-1.6-.3-2.2-.8l-.6-.6-.1-.4c-.2-.6-.6-1.9.7-2.8l3.3-2.2c.4-.2.7-.5.9-.8l1.1-2.6c.4-.8.3-1.7-.3-2.5l-.5-.7-5.1 6.6h-.5c-1.3 0-2.2-.4-2.7-1.2-.6-1-.5-2.5.5-4.5l4-13c0-.1.1-.2.1-.4l3.4-41.8c-.3-2.3-1-5.5-2.1-9.4 0-.2-.1-.3-.1-.4-3.3-10.8-7.1-24-6.1-25.7.2-.3.5-.5.8-.6l21.1-4.2h.1c1.1 0 3.1 0 5.3 34.8l-.2 7-9.8 38.7c0 .2.1 1.8.1 2.1l2.1 9.1c.1.9-.6 3.5-1 4.2l-5.8 8.3c-.3.4-.7.7-1.3.9l-3.5 2.3c-.4.4-1 .6-1.6.6"/>
  <path fill="#00A78E" d="M131.3 266.3c2.1 0 4.3 33.9 4.3 33.9l-.2 6.8-9.8 38.6c-.1.3 0 2.2.1 2.4l2.1 9.2c.1.6-.5 2.9-.9 3.4l-5.8 8.3c-.2.3-.5.4-.9.5l-3.6 2.4c-.4.2-.8.4-1.2.4-.5 0-1.1-.2-1.5-.6l-.5-.4c-.2-.6-.5-1.3.3-1.8l3.3-2.2c.6-.3 1-.8 1.2-1.3.3-.7.8-1.8 1.1-2.6.5-1.2.4-2.4-.4-3.5l-1.3-1.8-4.8 6.3-.8 1h-.1c-2.7 0-2.3-2.1-1.2-4.4l4-13.1c.1-.2.1-.4.1-.6l3.4-41.9c-.6-4.2-2.2-9.8-2.2-10 0 0-7.7-24.7-6.1-25l21.4-4m0-2h-.4l-21 4.1c-.6.1-1.1.5-1.5 1-.5.8-1.5 2.5 6 26.5 0 .1.1.2.1.3 1 3.8 1.7 6.9 2 9.2l-3.4 41.6v.1l-4 12.9c-.7 1.5-1.5 3.7-.4 5.4.5.8 1.5 1.7 3.5 1.7h1.1l.6-.8.8-1 3.1-4.1c.1.3.1.7 0 1.1l-1.1 2.5-.1.2c0 .1-.2.2-.4.3h-.2l-3.3 2.2c-1.3.9-1.7 2.2-1.1 4v.2l.2.5.4.4.5.4c.7.7 1.8 1.1 2.8 1.1.8 0 1.6-.2 2.3-.7l3.4-2.3c.7-.2 1.3-.7 1.6-1.2l5.8-8.3c.6-.9 1.4-3.7 1.2-4.8v-.2l-2.1-9.1c0-.3-.1-1.4-.1-1.8l9.7-38.4.1-.2v-.2l.2-6.8v-.2c0-.1-.6-8.6-1.4-17-.5-5-.9-8.9-1.4-11.8-.6-4.2-1.2-6.8-3.5-6.8"/>
  <path fill="#FFF" d="M249.2 299.3c2.9 1.7 5.3 2.7 7.2 3.1 1.6.3 2.8.1 3.4-.8 1.5-1.8 1-6.2.5-8.1l-.5-2.5-20.1 1.4c.2 1 .3 1.1.5 1.2 1.5.8 4 2.5 9 5.7"/>
  <path fill="none" stroke="#00A78E" stroke-width="3" stroke-linejoin="bevel" stroke-miterlimit="10" d="M249.2 299.3c2.9 1.7 5.3 2.7 7.2 3.1 1.6.3 2.8.1 3.4-.8 1.5-1.8 1-6.2.5-8.1l-.5-2.5-20.1 1.4c.2 1 .3 1.1.5 1.2 1.5.8 4 2.5 9 5.7z"/>
  <path fill="#FFF" d="M277.9 309.6c0 .4.9 11.8 13.9 21.2l3.4 2.6c1.4 1.1.9 2.3.7 3.1l-.4.7 19.4-4.4-37-27.7v4.5z"/>
  <path fill="none" stroke="#00A78E" stroke-width="3" stroke-linejoin="bevel" stroke-miterlimit="10" d="M277.9 309.6c0 .4.9 11.8 13.9 21.2l3.4 2.6c1.4 1.1.9 2.3.7 3.1l-.4.7 19.4-4.4-37-27.7v4.5z"/>
  <path fill="#FFF" d="M335.8 259.5c-1.2-1.4-2.6-2.7-4.2-3.8l-101.1-72.3-11 2.1c-2.4.1-3.9 2-3.9 4.8v60.8c0 4.7 3.7 11.1 8.4 14.5l100.8 73.6c2.6 1.9 5.3 2.6 7.1 1.7l.6-.3v.1l10.8-3.8v-63.2c0-4.6-4.1-10.3-7.5-14.2m-4.2 76.3c0 2.2-1.2 3.3-3.2 2.7-.8-.2-1.7-.7-2.7-1.4L225 263.6c-3.7-2.7-6.9-8.1-6.9-11.8V191c0-.9.2-2.2 1.2-2.7h.1l1-.2c1 0 2.2.6 3.5 1.5l100.8 73.6c3.5 2.6 6.5 7.5 6.9 11.1v61.5zm9.1-1l-6.6 2.3v-61.5c0-4.7-3.7-11.1-8.4-14.5l-101.2-73.9 5.8-1.1.3.2 99.8 71.4c1.3 1 2.5 2.1 3.6 3.3 4.2 4.9 6.6 9.3 6.6 12.2v61.6z"/>
  <path fill="#00A78E" d="M336.6 258.7c-1.3-1.5-2.8-2.9-4.5-4.1l-101.4-72.5-.3-.2-11.4 2.2c-2.9.1-4.8 2.4-4.8 5.8v60.8c0 5.2 4 12.2 9.1 15.9l32.2 23.5.5 2.8.2 1.1c.2 1.3.3 4.2-.9 5.3-.5.5-1.4.6-2.5.3-1.3-.4-3-1.2-5-2.5-3.4-2.4-5-3.7-6-4.3-.1-.1-.2-.2-.3-.2-.1-.1-.1-.1-.2-.1 0 0-.2-.1-.5-.3-.4-.2-.8-.2-1.2-.1l-1.4.7c-.5.3-.8.8-.6 1.4.1.7.5 1.2 1 1.7l.7.6c.3.2.5.4.8.6.8.6 2 1.4 3.7 2.7.6.5 1.3.9 1.8 1.3 5.3 3.8 11.8 8.6 11.8 8.6l32.6 23.8 3.4 2.5 1.8 1.2 1-2c.2-.4.8-1.5-.7-3.1l-3.4-2.6c-12.9-9.4-12.1-20.1-12.1-20.5l.1-.8 32.8 23.9 11 8.1c1.5 1.1 2.9 1.8 4.3 2.1 1.5.4 2.9.3 4-.1l12.1-4.2v-63.9c.2-5.2-4.1-11.2-7.7-15.4m6.7 78.2l-10.8 3.8v-.1l-.6.3c-1.8.8-4.4.2-7.1-1.7L224 265.6c-4.7-3.4-8.4-9.8-8.4-14.5v-60.8c0-2.9 1.5-4.7 3.9-4.8l11-2.1 101.1 72.3c1.5 1.1 3 2.4 4.2 3.8 3.4 3.9 7.5 9.6 7.5 14.3v63.1zm-48.6-4.3c1.1 1 .9 1.5.7 1.9l-.5 1-1.1-.8-.4-.3-35.2-25.7s-6.5-4.8-11.9-8.6l-1.8-1.2c-1.7-1.3-2.9-2.1-3.7-2.7-.3-.2-.5-.4-.8-.6l-.2-.1c-.8-.7-1-1-.8-1.7l.2-.9 1 .3c.1 0 .2 0 .6.3l.2.1c.1 0 .1.1.3.2.9.6 2.6 1.9 6 4.3 2.1 1.4 4 2.3 5.4 2.7 1.6.4 2.7.3 3.5-.5 1.6-1.5 1.4-5 1.2-6.2l-.4-2.5 22.1 16.1-.1.9c0 .5-.9 11.9 12.8 22l2.5 1.8.4.2z"/>
  <path fill="none" stroke="#00A78E" stroke-width="2" stroke-miterlimit="10" d="M336.6 258.7c-1.3-1.5-2.8-2.9-4.5-4.1l-101.4-72.5-.3-.2-11.4 2.2c-2.9.1-4.8 2.4-4.8 5.8v60.8c0 5.2 4 12.2 9.1 15.9l32.2 23.5.5 2.8.2 1.1c.2 1.3.3 4.2-.9 5.3-.5.5-1.4.6-2.5.3-1.3-.4-3-1.2-5-2.5-3.4-2.4-5-3.7-6-4.3-.1-.1-.2-.2-.3-.2-.1-.1-.1-.1-.2-.1 0 0-.2-.1-.5-.3-.4-.2-.8-.2-1.2-.1l-1.4.7c-.5.3-.8.8-.6 1.4.1.7.5 1.2 1 1.7l.7.6c.3.2.5.4.8.6.8.6 2 1.4 3.7 2.7.6.5 1.3.9 1.8 1.3 5.3 3.8 11.8 8.6 11.8 8.6l32.6 23.8 3.4 2.5 1.8 1.2 1-2c.2-.4.8-1.5-.7-3.1l-3.4-2.6c-12.9-9.4-12.1-20.1-12.1-20.5l.1-.8 32.8 23.9 11 8.1c1.5 1.1 2.9 1.8 4.3 2.1 1.5.4 2.9.3 4-.1l12.1-4.2v-63.9c.2-5.2-4.1-11.2-7.7-15.4zm6.7 78.2l-10.8 3.8v-.1l-.6.3c-1.8.8-4.4.2-7.1-1.7L224 265.6c-4.7-3.4-8.4-9.8-8.4-14.5v-60.8c0-2.9 1.5-4.7 3.9-4.8l11-2.1 101.1 72.3c1.5 1.1 3 2.4 4.2 3.8 3.4 3.9 7.5 9.6 7.5 14.3v63.1zm-48.6-4.3c1.1 1 .9 1.5.7 1.9l-.5 1-1.1-.8-.4-.3-35.2-25.7s-6.5-4.8-11.9-8.6l-1.8-1.2c-1.7-1.3-2.9-2.1-3.7-2.7-.3-.2-.5-.4-.8-.6l-.2-.1c-.8-.7-1-1-.8-1.7l.2-.9 1 .3c.1 0 .2 0 .6.3l.2.1c.1 0 .1.1.3.2.9.6 2.6 1.9 6 4.3 2.1 1.4 4 2.3 5.4 2.7 1.6.4 2.7.3 3.5-.5 1.6-1.5 1.4-5 1.2-6.2l-.4-2.5 22.1 16.1-.1.9c0 .5-.9 11.9 12.8 22l2.5 1.8.4.2z"/>
  <path fill="#FFF" d="M334.1 260.9c-1-1.2-2.2-2.3-3.6-3.3l-99.8-71.4-.3-.2-5.8 1.1L325.8 261c4.7 3.4 8.4 9.8 8.4 14.5V337l6.6-2.3V273c-.1-2.8-2.5-7.2-6.7-12.1"/>
  <path fill="#00A78E" d="M324.7 263.1L224 189.5c-1.3-.9-2.5-1.5-3.5-1.5l-1 .2h-.1c-1 .5-1.2 1.7-1.2 2.7v60.8c0 3.7 3.2 9.1 6.9 11.8l100.8 73.6c.9.7 1.9 1.2 2.7 1.4 2 .5 3.2-.5 3.2-2.7v-61.5c-.6-3.7-3.6-8.7-7.1-11.2"/>
  <path fill="#FFF" d="M279.1 308.6l.1-.9-22.1-16.1.4 2.5c.2 1.2.4 4.8-1.2 6.2-.8.7-1.9.9-3.5.5-1.5-.4-3.3-1.3-5.4-2.7-3.4-2.5-5.1-3.7-6-4.3-.1-.1-.2-.1-.3-.2l-.2-.1c-.5-.3-.5-.3-.6-.3l-1-.3-.2.9c-.2.6 0 1 .8 1.7l.2.1c.3.2.5.4.8.6.8.6 2 1.4 3.7 2.7.6.4 1.2.9 1.8 1.2 5.3 3.9 11.9 8.6 11.9 8.6l35.2 25.7.4.3 1.1.8.5-1c.2-.4.4-.8-.7-1.9l-.3-.2-2.5-1.8c-13.9-10.1-13-21.5-12.9-22m-2.6 10.7c-8.6-6.3-17.1-12.5-17.2-12.6l-4.1-3 1.2-.3c.7-.2 1.4-.5 1.9-1 1.4-1.3 1.8-3.4 1.9-4.9l.1-.9 16.3 11.9v.4c0 2.1.5 6.4 3.3 11.5l1.2 2.1-4.6-3.2z"/>
  <path fill="#00A78E" d="M279.8 320.4c-2.7-5-3.2-9.3-3.3-11.5v-.4l-16.3-11.9-.1.9c-.1 1.5-.5 3.6-1.9 4.9-.5.5-1.2.8-1.9 1l-1.2.3 4.1 3c.1.1 8.6 6.2 17.2 12.6l4.5 3.3-1.1-2.2z"/>
  <path fill="#FFF" d="M33 494.2l-5.1-144.8h75.4l-1.7 144.8H70.8V376.8c0-3.1-1.1-5.6-4.6-5.6-3.5 0-4.6 2.5-4.6 5.6v117.4H33z"/>
  <path fill="#FFF" d="M57.8 494s-1.6-12.2-26.6-11.1c-25 1.1-27 9.1-27.9 11.3m127.6-.2s-1.6-12.2-26.6-11.1c-25 1.1-26.9 9.2-27.9 11.3m146.3-300l99.7 73c1.4 1.3 4.1 4.5 4.1 7v45.9L222.9 244l-.2-49.8m-1.8-4.5c-1.9 0-1.2 3.7-1.2 4.4l.2 51.5 109.6 80.5v-51.9c0-4.7-5.2-9.3-5.2-9.3l-100.2-73.3c-1.5-1.4-2.5-1.9-3.2-1.9"/>
  <text transform="matrix(1 .73 0 1 256.16 251.24)" fill="#FFF" font-family="'Foco-Bold'" font-size="15">aetna</text>
</svg>