<svg xmlns="http://www.w3.org/2000/svg" width="1003.4" height="396.5" viewBox="0 0 1003.4 396.5"><g fill="none" stroke="#FFF" stroke-width="5" stroke-linecap="round" stroke-miterlimit="10"><path d="M924.4 62.8v.1"/><path stroke-dasharray="0.2642,21.134" d="M914.3 81.5l-35.9 65.8"/><path d="M873.3 156.6v.1"/></g><g fill="none" stroke="#FFF" stroke-width="5" stroke-linecap="round" stroke-miterlimit="10"><path d="M72.8 193.1v-.2"/><path stroke-dasharray="0.2483,19.8672" d="M70.2 173.2l-6.4-50"/><path d="M62.5 113.4v-.2"/></g><g fill="none" stroke="#FFF" stroke-width="5" stroke-linecap="round" stroke-miterlimit="10"><path d="M110.6 251.2h.1"/><path stroke-dasharray="0.2487,19.8986" d="M127.7 261.6l43 26.4"/><path d="M179.2 293.2l.1.1"/></g><g fill="none" stroke="#FFF" stroke-width="5" stroke-linecap="round" stroke-miterlimit="10"><path stroke-dasharray="0.2438,19.5062" d="M346.3 197.5l-57.6 67.9"/><path d="M282.4 272.9l-.1.1"/></g><g fill="none" stroke="#FFF" stroke-width="5" stroke-linecap="round" stroke-miterlimit="10"><path d="M487.8 155.1h.1"/><path stroke-dasharray="0.2411,19.2873" d="M503 167.2l68.6 55.1"/><path d="M579.1 228.4l.1.1"/></g><g fill="none" stroke="#FFF" stroke-width="5" stroke-linecap="round" stroke-miterlimit="10"><path d="M710.3 235l.1-.1"/><path stroke-dasharray="0.2776,22.2087" d="M732 229.7l54.8-13.2"/><path d="M797.6 213.9h.1"/></g><g fill="none" stroke="#FFF" stroke-width="5" stroke-linecap="round" stroke-miterlimit="10"><path d="M883.2 238.4v.1"/><path stroke-dasharray="0.2309,18.4759" d="M896 251.9l45.2 47.5"/><path d="M947.6 306.1l.1.1"/></g><path fill="#FFF" d="M55.9 117.7C25.1 117.7 0 92.6 0 61.8 0 31 25.1 5.9 55.9 5.9s55.9 25.1 55.9 55.9c0 30.8-25.1 55.9-55.9 55.9zm0-104.5C29.1 13.2 7.3 35 7.3 61.8s21.8 48.6 48.6 48.6 48.6-21.8 48.6-48.6-21.8-48.6-48.6-48.6z"/><path fill="#FFF" d="M77.7 67c-5.3 0-9.6 4.3-9.6 9.6 0 2.1.7 4.1 1.9 5.7-1.8 1.1-3.7 1.7-5.8 1.7-6.3 0-11.6-5.7-12.9-13.2 10.3-3 18.1-15.4 18.1-30.2 0-1.4-.9-2.6-2.3-3l-5.5-1.5c-.8-1.7-2.5-2.9-4.4-2.9-2.7 0-4.9 2.2-4.9 4.9s2.2 4.9 4.9 4.9c1 0 1.9-.3 2.7-.8l3.2.9c-.8 12.2-7.7 21.8-16.1 22.3-8.4-.4-15.3-10.1-16.1-22.3l3.1-.9c.8.5 1.7.8 2.7.8 2.7 0 4.9-2.2 4.9-4.9s-2.2-4.9-4.9-4.9c-2 0-3.7 1.2-4.4 2.9l-5.4 1.5c-1.4.4-2.3 1.6-2.3 3 0 15.9 9 29 20.5 30.7 1.7 10.7 9.6 18.9 19.1 18.9 4.2 0 8.1-1.6 11.3-4.3.7.2 1.5.3 2.3.3 5.3 0 9.6-4.3 9.6-9.6-.1-5.3-4.4-9.6-9.7-9.6z"/><circle fill="#00AB9F" cx="77.7" cy="76.5" r="4.6"/><path fill="#FFF" d="M77.5 273C54.6 273 36 254.3 36 231.5c0-22.9 18.6-41.5 41.5-41.5s41.5 18.6 41.5 41.5c0 22.8-18.6 41.5-41.5 41.5zm0-77.6c-19.9 0-36.1 16.2-36.1 36.1s16.2 36.1 36.1 36.1 36.1-16.2 36.1-36.1-16.2-36.1-36.1-36.1z"/><path fill="#FFF" d="M96.4 225.1H83.9v-12.5c0-1.5-1.2-2.7-2.7-2.7h-7.4c-1.5 0-2.7 1.2-2.7 2.7v12.5H58.6c-1.5 0-2.7 1.2-2.7 2.7v7.4c0 1.5 1.2 2.7 2.7 2.7h12.5v12.5c0 1.5 1.2 2.7 2.7 2.7h7.4c1.5 0 2.7-1.2 2.7-2.7v-12.5h12.5c1.5 0 2.7-1.2 2.7-2.7v-7.4c0-1.5-1.2-2.7-2.7-2.7zm142 171.4c-39.5 0-71.7-32.1-71.7-71.7 0-39.5 32.1-71.7 71.7-71.7 39.5 0 71.7 32.1 71.7 71.7 0 39.5-32.2 71.7-71.7 71.7zm0-134c-34.3 0-62.3 27.9-62.3 62.3s27.9 62.3 62.3 62.3 62.3-27.9 62.3-62.3-28-62.3-62.3-62.3z"/><path fill="#FFF" d="M271 313.8h-21.6v-21.6c0-2.6-2.1-4.7-4.7-4.7H232c-2.6 0-4.7 2.1-4.7 4.7v21.6h-21.6c-2.6 0-4.7 2.1-4.7 4.7v12.7c0 2.6 2.1 4.7 4.7 4.7h21.6v21.6c0 2.6 2.1 4.7 4.7 4.7h12.7c2.6 0 4.7-2.1 4.7-4.7v-21.6H271c2.6 0 4.7-2.1 4.7-4.7v-12.7c0-2.6-2.1-4.7-4.7-4.7zm141.9-105.6c-49.2 0-89.3-40.1-89.3-89.3 0-49.2 40.1-89.3 89.3-89.3 49.2 0 89.3 40.1 89.3 89.3.1 49.2-40 89.3-89.3 89.3zm0-167c-42.8 0-77.6 34.8-77.6 77.6s34.8 77.6 77.6 77.6 77.6-34.8 77.6-77.6-34.8-77.6-77.6-77.6z"/><path fill="#FFF" d="M453.6 105.1h-26.9V78.2c0-3.2-2.6-5.8-5.8-5.8H405c-3.2 0-5.8 2.6-5.8 5.8v26.9h-26.9c-3.2 0-5.8 2.6-5.8 5.8v15.9c0 3.2 2.6 5.8 5.8 5.8h26.9v26.9c0 3.2 2.6 5.8 5.8 5.8h15.9c3.2 0 5.8-2.6 5.8-5.8v-26.9h26.9c3.2 0 5.8-2.6 5.8-5.8v-15.9c0-3.2-2.6-5.8-5.8-5.8zm190.7 222.4c-41 0-74.3-33.3-74.3-74.3s33.3-74.3 74.3-74.3 74.3 33.3 74.3 74.3c0 40.9-33.3 74.3-74.3 74.3zm0-138.9c-35.6 0-64.6 29-64.6 64.6s29 64.6 64.6 64.6 64.6-29 64.6-64.6-29-64.6-64.6-64.6z"/><path fill="#FFF" d="M673.3 260c-7.1 0-12.8 5.7-12.8 12.8 0 2.8.9 5.5 2.5 7.6-2.3 1.5-5 2.3-7.7 2.3-8.4 0-15.4-7.5-17.1-17.5 13.7-4 24.1-20.5 24.1-40.1 0-1.9-1.2-3.5-3-4l-7.3-2c-1-2.3-3.3-3.8-5.9-3.8-3.6 0-6.5 2.9-6.5 6.5s2.9 6.5 6.5 6.5c1.3 0 2.6-.4 3.6-1.1l4.2 1.2c-1.1 16.2-10.2 29-21.4 29.6-11.2-.6-20.4-13.4-21.4-29.6l4.2-1.2c1 .7 2.3 1.1 3.6 1.1 3.6 0 6.5-2.9 6.5-6.5s-2.9-6.5-6.5-6.5c-2.6 0-4.9 1.6-5.9 3.9l-7.2 2c-1.8.5-3 2.1-3 4 0 21.1 12 38.6 27.3 40.8 2.2 14.3 12.7 25.1 25.4 25.1 5.6 0 10.8-2.1 15.1-5.7 1 .2 2 .4 3 .4 7.1 0 12.8-5.7 12.8-12.8-.3-7.2-6-13-13.1-13z"/><path fill="#00AB9F" d="M679.5 272.6c0 3.4-2.8 6.2-6.2 6.2-3.4 0-6.2-2.8-6.2-6.2 0-3.4 2.8-6.2 6.2-6.2 3.4.1 6.2 2.8 6.2 6.2z"/><g fill="#FFF"><path d="M848.2 256.8c-30.4 0-55.1-24.7-55.1-55.1 0-30.4 24.7-55.1 55.1-55.1 30.4 0 55.1 24.7 55.1 55.1.1 30.4-24.7 55.1-55.1 55.1zm0-103c-26.4 0-47.9 21.5-47.9 47.9s21.5 47.9 47.9 47.9 47.9-21.5 47.9-47.9-21.4-47.9-47.9-47.9z"/><path d="M873.3 193.2h-16.6v-16.6c0-2-1.6-3.6-3.6-3.6h-9.8c-2 0-3.6 1.6-3.6 3.6v16.6h-16.6c-2 0-3.6 1.6-3.6 3.6v9.8c0 2 1.6 3.6 3.6 3.6h16.6v16.6c0 2 1.6 3.6 3.6 3.6h9.8c2 0 3.6-1.6 3.6-3.6v-16.6h16.6c2 0 3.6-1.6 3.6-3.6v-9.8c0-2-1.6-3.6-3.6-3.6z"/></g><path fill="#FFF" d="M969.9 362.1c-18.5 0-33.6-15.1-33.6-33.6s15.1-33.6 33.6-33.6 33.6 15.1 33.6 33.6c-.1 18.6-15.1 33.6-33.6 33.6zm0-62.7c-16.1 0-29.2 13.1-29.2 29.2s13.1 29.2 29.2 29.2 29.2-13.1 29.2-29.2-13.1-29.2-29.2-29.2z"/><path fill="#FFF" d="M983 331.7c-3.2 0-5.8 2.6-5.8 5.8 0 1.3.4 2.5 1.1 3.4-1.1.7-2.2 1-3.5 1-3.8 0-6.9-3.4-7.7-7.9 6.2-1.8 10.9-9.3 10.9-18.1 0-.8-.6-1.6-1.4-1.8l-3.3-.9c-.5-1-1.5-1.7-2.7-1.7-1.6 0-2.9 1.3-2.9 2.9 0 1.6 1.3 2.9 2.9 2.9.6 0 1.2-.2 1.6-.5l1.9.5c-.5 7.3-4.6 13.1-9.7 13.4-5.1-.3-9.2-6-9.7-13.4l1.9-.5c.5.3 1 .5 1.6.5 1.6 0 2.9-1.3 2.9-2.9 0-1.6-1.3-2.9-2.9-2.9-1.2 0-2.2.7-2.7 1.7l-3.3.9c-.8.2-1.4 1-1.4 1.8 0 9.5 5.4 17.4 12.3 18.4 1 6.4 5.8 11.3 11.5 11.3 2.5 0 4.9-1 6.8-2.6.4.1.9.2 1.4.2 3.2 0 5.8-2.6 5.8-5.8.2-3.1-2.4-5.7-5.6-5.7z"/><circle fill="#00AB9F" cx="983" cy="337.4" r="2.8"/><path fill="#FFF" d="M936.3 67.1c-18.5 0-33.6-15.1-33.6-33.6S917.8-.1 936.3-.1s33.6 15.1 33.6 33.6c0 18.6-15.1 33.6-33.6 33.6zm0-62.7c-16.1 0-29.2 13.1-29.2 29.2s13.1 29.2 29.2 29.2 29.2-13.1 29.2-29.2-13.1-29.2-29.2-29.2z"/><path fill="#FFF" d="M949.4 36.7c-3.2 0-5.8 2.6-5.8 5.8 0 1.3.4 2.5 1.1 3.4-1.1.7-2.2 1-3.5 1-3.8 0-6.9-3.4-7.7-7.9 6.2-1.8 10.9-9.3 10.9-18.1 0-.8-.6-1.6-1.4-1.8l-3.3-.9c-.5-1-1.5-1.7-2.7-1.7-1.6 0-2.9 1.3-2.9 2.9 0 1.6 1.3 2.9 2.9 2.9.6 0 1.2-.2 1.6-.5l1.9.5c-.5 7.3-4.6 13.1-9.7 13.4-5.1-.3-9.2-6-9.7-13.4l1.9-.5c.5.3 1 .5 1.6.5 1.6 0 2.9-1.3 2.9-2.9 0-1.6-1.3-2.9-2.9-2.9-1.2 0-2.2.7-2.7 1.7l-3.3.9c-.8.2-1.4 1-1.4 1.8 0 9.5 5.4 17.4 12.3 18.4 1 6.4 5.8 11.3 11.5 11.3 2.5 0 4.9-1 6.8-2.6.4.1.9.2 1.4.2 3.2 0 5.8-2.6 5.8-5.8.2-3.1-2.4-5.7-5.6-5.7z"/><circle fill="#00AB9F" cx="949.4" cy="42.4" r="2.8"/></svg>