<svg xmlns="http://www.w3.org/2000/svg" width="148.4" height="497.4" viewBox="0 0 148.4 497.4"><path fill="#FFF" d="M121.3 96.4s1.7-14.7 6.2-10.6c3.8 3.4 5.5 19.2 3.3 30.2-1 4.9-6.9 10.4-9.3 8-2.5-2.4-.2-27.6-.2-27.6m-98.2-2.5s-2.1-14.7-7-10.4c-5.1 4.4-4.6 23.3-2.9 30.2 1.2 4.9 7.7 10.2 10.3 7.8 2.7-2.5-.4-27.6-.4-27.6"/><path fill="#FFF" d="M20.8 73.1c.1 5.2-3.3 46.6 11.1 64.8 8.2 10.3 19.7 20.3 26.4 21.8 10.9 2.5 17.9 4.5 27.5 2.4 9.6-2.1 23.7-12.1 32.4-31.4 4.1-9.2 15.4-81.5-5.4-102-13.6-13.3-43.5-11.6-55.1-11.1-11.7.5-37.4 4.6-36.9 55.5m15.1 424.3l-5.5-156.3h81.4L110 497.4H76.7V370.7c0-3.3-1.2-6-4.9-6s-4.9 2.7-4.9 6v126.6h-31z"/><path fill="#00A78E" d="M92.2 90.3c0 2.8 2.3 5.1 5.2 5.1 2.9 0 5.2-2.3 5.2-5.1s-2.3-5.1-5.2-5.1c-2.9 0-5.2 2.3-5.2 5.1"/><path fill="#00A78E" d="M112.8 91.6c-.1 0-7-6.7-15.4-6.7-4.3 0-8.9 1.8-13 7.2l1.2 1.5c3.7-5 7.8-6.5 11.7-6.5 3.8 0 7.4 1.6 10.1 3.2 1.3.8 2.4 1.6 3.2 2.2.4.3.7.5.9.7l.3.3 1-1.9z"/><path fill="#FFF" d="M96 90.2c0 1-.5 1.8-1.2 1.8s-1.2-.8-1.2-1.8.5-1.8 1.2-1.8 1.2.8 1.2 1.8"/><path fill="#00A78E" d="M57.4 90.3c0 2.8-2.3 5.1-5.2 5.1-2.9 0-5.2-2.3-5.2-5.1s2.3-5.1 5.2-5.1c2.9 0 5.2 2.3 5.2 5.1"/><path fill="#00A78E" d="M37.8 93.3l.3-.3c1.4-1.2 7.4-6.1 14.1-6 3.9 0 8 1.6 11.7 6.5l1.2-1.5c-4-5.4-8.7-7.2-13-7.2-8.4 0-15.3 6.7-15.4 6.7l1.1 1.8z"/><path fill="#FFF" d="M50.2 90.2c0 1-.5 1.8-1.2 1.8s-1.2-.8-1.2-1.8.5-1.8 1.2-1.8 1.2.8 1.2 1.8"/><path fill="#00A78E" d="M60.8 67.8s6.6 5.8 1 6.9c-5.5 1-14.5-.9-18.5 0s-11.9 4-11.9 4l-.4-3.4s10.7-10.2 29.8-7.5m27.5-5.4s-6.4 5.6-.8 6.8c5.6 1.3 14.5-.4 18.6.7 4.1 1 12 4.4 12 4.4l.4-3.3c-.1 0-11.2-10.6-30.2-8.6m-19.7 54.9s.4 0 1.1.1c.7.1 1.7.2 2.9.3 1.2.1 2.6.2 3.9 0 .6-.1 1.2-.3 1.4-.6 0-.1.1-.1.1-.2 0 0-.1.2 0 .1v-.1l.1-.3c.1-.4.1-.7.2-1 .1-1.5.1-3.1 0-4.6 0-1.5-.1-2.9-.1-4.2v-4.2s.2.4.5 1.1c.3.7.6 1.7 1 2.9s.7 2.6.9 4.2c.2 1.6.4 3.2.3 5-.1.5-.1 1.1-.3 1.4l-.1.3v.2l-.1.2c-.1.3-.3.6-.6.8-.5.5-1 .7-1.5.9-.5.1-1 .2-1.4.2-.9 0-1.7-.1-2.4-.2s-1.4-.4-2-.6c-1.2-.4-2.1-.9-2.8-1.2-.8-.2-1.1-.5-1.1-.5m-10.3 9.1s18.3 7.6 33.2 1.2c-2.1 4.4-22 15.2-33.2-1.2"/><path fill="#00A78E" d="M18.6 82.2S9 57.4 11 47.5c1.9-9.9 6.8-18.9 24.3-34.7C46.7 2.4 66.9.6 69.2 3.2c3.4 3.9 9.3 5.6 13.6.6 4.3-5 19.3-1.8 17.4 2.3 8-4.6 13.7 3.9 13.7 3.9s30.3 3.9 13.7 82.3c-1.5 6.9-3.2 14.7-3.2 14.7-6.1.4-.6-9.2.3-38.1 1.3-39.8-35.7-31-49.4-32.6-16.6-1.9-44.4-4-49.4 17.4s-2.7 50.2-2.7 50.2l-4.6 4.7V82.2z"/><path fill="none" stroke="#FFF" stroke-width="2.562" stroke-miterlimit="10" d="M18.6 82.2S9 57.4 11 47.5c1.9-9.9 6.8-18.9 24.3-34.7C46.7 2.4 66.9.6 69.2 3.2c3.4 3.9 9.3 5.6 13.6.6 4.3-5 19.3-1.8 17.4 2.3 8-4.6 13.7 3.9 13.7 3.9s30.3 3.9 13.7 82.3c-1.5 6.9-3.2 14.7-3.2 14.7-6.1.4-.6-9.2.3-38.1 1.3-39.8-35.7-31-49.4-32.6-16.6-1.9-44.4-4-49.4 17.4s-2.7 50.2-2.7 50.2l-4.6 4.7V82.2z"/><path fill="#FFF" d="M62 163.3s.4 14.1-6.2 17.9c-5.9 3.5-8.7 4.2-8.7 4.2s29.2 11.7 52.5 2.2c-12.6-3.4-11.7-7.7-11.7-7.7l-2.2-14.6-23.7-2z"/><path fill="none" stroke="#00A78E" stroke-width="2" stroke-miterlimit="10" d="M62 163.3s.4 14.1-6.2 17.9c-5.9 3.5-8.7 4.2-8.7 4.2s29.2 11.7 52.5 2.2c-12.6-3.4-11.7-7.7-11.7-7.7l-2.2-14.6-23.7-2z"/><path fill="#FFF" d="M143.8 247.7l-29.2 6.7-3.2-13.8 3.4 33.8c.4 5.7.7 24.4-.7 41.2l-2.9 22.4H31.4l-2.9-26.4c-.9-13.9.1-34.6.6-39.9l4.6-31.5-3.9 13-28-6.6s3-10.2 13-31.9 32.3-29.3 32.3-29.3l26.8 4.3 25.6-2.1s23.7 6 33.8 27.7c10 21.7 10 32.1 10 32.1"/><path fill="none" stroke="#00A78E" stroke-width="2" stroke-miterlimit="10" d="M143.8 247.7l-29.2 6.7-3.2-13.8 3.4 33.8c.4 5.7.7 24.4-.7 41.2l-2.9 22.4H31.4l-2.9-26.4c-.9-13.9.1-34.6.6-39.9l4.6-31.5-3.9 13-28-6.6s3-10.2 13-31.9 32.3-29.3 32.3-29.3l26.8 4.3 25.6-2.1s23.7 6 33.8 27.7c10 21.7 10 32.1 10 32.1"/><path fill="#FFF" d="M25.8 352.7c1.1 2.4 1.5 4.8-1.5 4.7l-.8-1.1-5-6.9-1.4 1.9c-.8 1.1-1 2.5-.5 3.8.4 1 .8 2.1 1.2 2.9.2.6.7 1.1 1.3 1.4l3.5 2.4c.8.6.5 1.3.2 2l-.5.5c-.7.7-2 .8-2.9.2l-3.8-2.7c-.4-.1-.7-.3-.9-.6l-6-9.1c-.4-.5-.9-3.1-.8-3.7l2.6-9.9c.1-.3.2-2.3.2-2.6L1 294v-7.4s1.1-37 3.4-36.5l22.5 4.9c1.7.4-3.7 19.6-3.7 19.6-2.4 9.3-3.3 12.5-3.9 18l2.5 45.2c0 .2 0 .4.1.6l3.9 14.3z"/><path fill="none" stroke="#00A78E" stroke-width="2" stroke-miterlimit="10" d="M25.8 352.7c1.1 2.4 1.5 4.8-1.5 4.7l-.8-1.1-5-6.9-1.4 1.9c-.8 1.1-1 2.5-.5 3.8.4 1 .8 2.1 1.2 2.9.2.6.7 1.1 1.3 1.4l3.5 2.4c.8.6.5 1.3.2 2l-.5.5c-.7.7-2 .8-2.9.2l-3.8-2.7c-.4-.1-.7-.3-.9-.6l-6-9.1c-.4-.5-.9-3.1-.8-3.7l2.6-9.9c.1-.3.2-2.3.2-2.6L1 294v-7.4s1.1-37 3.4-36.5l22.5 4.9c1.7.4-3.7 19.6-3.7 19.6-2.4 9.3-3.3 12.5-3.9 18l2.5 45.2c0 .2 0 .4.1.6l3.9 14.3z"/><path fill="#FFF" d="M124.6 366.1c-.9 0-1.7-.3-2.3-.9l-.7-.6-.1-.4c-.2-.6-.6-2 .7-2.9l3.6-2.3c.5-.3.8-.6 1-1l1.2-2.9c.4-.9.3-1.9-.3-2.8l-.6-.8-5.5 7.2h-.5c-1.4 0-2.4-.4-2.9-1.3-.7-1.1-.5-2.6.5-4.8l4.3-14c0-.1.1-.3.1-.4l3.7-45.1c-.4-2.5-1.1-5.9-2.2-10.1 0-.2-.1-.3-.1-.4-3.6-11.6-7.7-25.8-6.6-27.7.2-.3.5-.5.8-.6l22.7-4.5h.1c1.2 0 2.3 0 4.2 19.2.9 9.1 1.5 18.2 1.5 18.3l-.2 7.6-10.5 41.8c0 .3.1 2 .1 2.2l2.3 9.8c.1 1-.6 3.8-1.1 4.5l-6.2 8.9c-.3.4-.8.8-1.3.9l-3.8 2.5c-.5.4-1.2.6-1.9.6"/><path fill="#00A78E" d="M141.6 250.8c2.3 0 4.7 36.6 4.7 36.6l-.2 7.4-10.5 41.7c-.1.3 0 2.3.1 2.6l2.3 9.9c.1.6-.6 3.1-.9 3.7l-6.2 8.9c-.2.3-.5.5-.9.6l-3.9 2.6c-.4.3-.9.4-1.3.4-.6 0-1.2-.2-1.6-.6l-.5-.5c-.2-.7-.6-1.4.3-2l3.5-2.3c.6-.3 1.1-.8 1.3-1.4.3-.8.8-1.9 1.2-2.9.5-1.2.4-2.6-.4-3.8l-1.4-1.9-5.2 6.8-.9 1.1h-.1c-2.9 0-2.5-2.3-1.3-4.7l4.3-14.1c.1-.2.1-.4.1-.6l3.7-45.2c-.6-4.5-2.4-10.6-2.4-10.8 0 0-8.3-26.6-6.5-27l22.7-4.5m0-2h-.4l-22.6 4.5c-.6.1-1.1.5-1.5 1.1-.5.9-1.1 1.9 2.7 15.7 1.7 6.2 3.6 12.4 3.8 12.8 0 .1.1.2.1.4 1.1 4.1 1.9 7.5 2.2 9.9l-3.7 44.9v.2l-4.3 14c-.8 1.6-1.6 3.9-.5 5.7.5.8 1.5 1.7 3.7 1.7h1.1l.6-.8.9-1.1 3.5-4.6c.2.4.3.9.1 1.5l-1.1 2.5-.2.4c-.1.1-.2.3-.5.4h-.2l-3.5 2.3c-2 1.4-1.4 3.4-1.2 4.1l.1.2.2.5.4.4.5.5c.8.7 1.8 1.2 3 1.2.9 0 1.7-.2 2.4-.7l3.7-2.5c.7-.2 1.3-.7 1.7-1.3l6.2-8.9c.6-.9 1.4-3.9 1.3-5.1v-.2l-2.3-9.8c0-.4-.1-1.5-.1-1.9l10.5-41.5.1-.2v-.2l.2-7.4v-.2c0-.1-.6-9.3-1.5-18.3-.5-5.4-1-9.6-1.5-12.7-1.1-5.3-1.8-7.5-3.9-7.5"/><path fill="#FFF" d="M60.3 497.2s-1.7-13.2-28.7-12c-27 1.2-29 9.9-30.1 12.2m146.9-.2s-1.7-13.2-28.7-12c-27 1.2-29 9.9-30.1 12.2"/></svg>