<svg xmlns="http://www.w3.org/2000/svg" width="181.7" height="610.6" viewBox="0 0 181.7 610.6"><path fill="#FFF" d="M148.9 117.9s2-18.1 7.6-13c4.6 4.2 6.8 23.5 4 37-1.2 6-8.4 12.8-11.4 9.9-3-2.9-.2-33.9-.2-33.9"/><path fill="none" stroke="#00A78E" stroke-width="2.157" stroke-miterlimit="10" d="M148.9 117.9s2-18.1 7.6-13c4.6 4.2 6.8 23.5 4 37-1.2 6-8.4 12.8-11.4 9.9-3-2.9-.2-33.9-.2-33.9"/><path fill="#FFF" d="M28.2 114.8s-2.6-18-8.6-12.8c-6.3 5.5-5.6 28.7-3.5 37.1 1.5 6 9.5 12.6 12.7 9.6 3.2-3-.6-33.9-.6-33.9"/><path fill="#FFF" d="M25.4 89.3c.1 6.3-4.1 57.3 13.7 79.6 10.1 12.7 24.3 24.9 32.4 26.8 13.4 3.1 22 5.5 33.8 3 11.8-2.5 29.1-14.9 39.8-38.6 5.1-11.3 18.9-100.1-6.7-125.3C121.7 18.4 85 20.5 70.7 21.1c-14.3.6-45.9 5.7-45.3 68.2m18.5 521.3l-6.7-192h100l-2.2 192H94.1V455c0-4.1-1.5-7.4-6-7.4-4.6 0-6 3.3-6 7.4v155.6H43.9z"/><path fill="#00A78E" d="M113.1 110.4c0 3.5 2.8 6.3 6.3 6.3s6.3-2.8 6.3-6.3-2.8-6.2-6.3-6.2c-3.4-.1-6.3 2.7-6.3 6.2"/><path fill="#00A78E" d="M138.4 112c-.1-.1-8.6-8.2-18.9-8.3-5.3 0-11 2.3-15.9 8.9l1.5 1.8c4.6-6.1 9.6-8 14.4-8 4.7 0 9.1 1.9 12.4 3.9 1.6 1 3 2 3.9 2.7.5.4.8.7 1.1.9l.3.3 1.2-2.2z"/><path fill="#FFF" d="M117.8 110.3c0 1.2-.7 2.2-1.5 2.2s-1.5-1-1.5-2.2c0-1.2.7-2.2 1.5-2.2.9 0 1.5 1 1.5 2.2"/><path fill="#00A78E" d="M70.3 110.4c0 3.5-2.8 6.3-6.3 6.3s-6.3-2.8-6.3-6.3 2.8-6.2 6.3-6.2c3.5-.1 6.3 2.7 6.3 6.2"/><path fill="#00A78E" d="M46.3 114.2l.4-.3c1.7-1.5 9.1-7.5 17.3-7.4 4.8 0 9.8 2 14.4 8l1.5-1.8c-5-6.6-10.7-8.9-15.9-8.9-10.3 0-18.8 8.2-18.9 8.3l1.2 2.1z"/><path fill="#FFF" d="M61.5 110.3c0 1.2-.7 2.2-1.5 2.2s-1.5-1-1.5-2.2c0-1.2.7-2.2 1.5-2.2.9 0 1.5 1 1.5 2.2"/><path fill="#00A78E" d="M74.6 82.8s8.1 7.2 1.3 8.4c-6.8 1.3-17.8-1.1-22.8 0-4.9 1.1-14.6 4.9-14.6 4.9l-.6-4.1s13.2-12.5 36.7-9.2m33.7-6.6s-7.8 6.9-1 8.4 17.8-.5 22.8.8 14.7 5.4 14.7 5.4l.5-4c0-.1-13.6-13-37-10.6m-24.2 67.4s.5.1 1.4.2c.9.1 2.1.4 3.6.5 1.5.2 3.2.3 4.9.1.8-.1 1.6-.4 2-.8.1 0 .1-.1.1-.2s.1-.1.1-.2v-.1.1-.1l.1-.4c.2-.5.1-.9.2-1.3.1-.9.1-1.9.1-2.9s0-1.9-.1-2.9c-.1-1.9-.2-3.6-.3-5.1-.2-3-.3-5.1-.3-5.1s.8 1.9 1.5 4.9c.2.7.4 1.5.5 2.4.2.9.3 1.8.4 2.7.1 1 .3 1.9.3 3 .1 1 .1 2.1 0 3.1-.1.6-.1 1.2-.3 1.7l-.1.4v.2l-.1.2c-.1.3-.4.6-.6.9-.5.5-1.1.8-1.7 1-.6.2-1.1.2-1.6.3-1 .1-2-.1-2.9-.2-.9-.1-1.7-.4-2.4-.6-1.5-.5-2.7-1-3.5-1.3-.9-.2-1.3-.5-1.3-.5m-12.6 11.2s22.4 9.3 40.8 1.5c-2.6 5.3-27.1 18.6-40.8-1.5"/><path fill="#00A78E" d="M22.8 100.5S11 70 13.4 57.9s8.4-23.2 29.9-42.6C57.3 2.5 82.1.3 84.8 3.4c4.2 4.8 11.4 6.9 16.7.8 5.2-6.1 23.7-2.2 21.4 2.8 9.9-5.7 16.8 4.8 16.8 4.8s37.2 4.7 16.9 101.1c-1.8 8.5-3.9 18.1-3.9 18.1-7.5.5-.8-11.2.4-46.7 1.6-49-43.9-38.3-60.7-40.2-20.4-2.2-54.6-4.9-60.7 21.4-6.1 26.3-3.3 61.6-3.3 61.6l-5.6 5.7v-32.3z"/><path fill="none" stroke="#FFF" stroke-width="2.157" stroke-miterlimit="10" d="M22.8 100.5S11 70 13.4 57.9s8.4-23.2 29.9-42.6C57.3 2.5 82.1.3 84.8 3.4c4.2 4.8 11.4 6.9 16.7.8 5.2-6.1 23.7-2.2 21.4 2.8 9.9-5.7 16.8 4.8 16.8 4.8s37.2 4.7 16.9 101.1c-1.8 8.5-3.9 18.1-3.9 18.1-7.5.5-.8-11.2.4-46.7 1.6-49-43.9-38.3-60.7-40.2-20.4-2.2-54.6-4.9-60.7 21.4-6.1 26.3-3.3 61.6-3.3 61.6l-5.6 5.7v-32.3z"/><path fill="#FFF" d="M76.1 200.1s.5 17.3-7.7 22c-7.3 4.3-10.6 5.2-10.6 5.2s35.8 14.3 64.5 2.7c-15.4-4.2-14.4-9.5-14.4-9.5l-2.7-17.9-29.1-2.5z"/><path fill="none" stroke="#00A78E" stroke-width="2.59" stroke-miterlimit="10" d="M76.1 200.1s.5 17.3-7.7 22c-7.3 4.3-10.6 5.2-10.6 5.2s35.8 14.3 64.5 2.7c-15.4-4.2-14.4-9.5-14.4-9.5l-2.7-17.9-29.1-2.5z"/><path fill="#FFF" d="M176.5 303.8l-35.9 8.3-3.9-17 4.1 41.5c.5 7.1.8 30-.8 50.7l-3.5 27.6h-98l-3.6-32.4c-1.1-17.1.1-42.5.7-49l5.7-38.7-4.7 15.9-34.3-8.1s3.6-12.6 16-39.2c12.3-26.7 39.7-36 39.7-36l33 5.3 31.5-2.5s29.2 7.3 41.5 34 12.3 39.5 12.3 39.5"/><path fill="none" stroke="#00A78E" stroke-width="2.157" stroke-miterlimit="10" d="M176.5 303.8l-35.9 8.3-3.9-17 4.1 41.5c.5 7.1.8 30-.8 50.7l-3.5 27.6h-98l-3.6-32.4c-1.1-17.1.1-42.5.7-49l5.7-38.7-4.7 15.9-34.3-8.1s3.6-12.6 16-39.2c12.3-26.7 39.7-36 39.7-36l33 5.3 31.5-2.5s29.2 7.3 41.5 34 12.3 39.5 12.3 39.5"/><path fill="#FFF" d="M31.6 432.8c1.4 3 1.8 5.9-1.9 5.7l-1-1.4-6.2-8.5-1.8 2.4c-1 1.4-1.3 3.1-.7 4.6.5 1.2 1 2.6 1.4 3.5.3.7.8 1.3 1.6 1.7l4.3 3c1 .7.6 1.6.3 2.5l-.6.6c-.9.8-2.5.9-3.5.2l-4.7-3.3c-.5-.1-.9-.3-1.1-.7L10.4 432c-.4-.7-1.2-3.8-1-4.5l3.2-12.1c.1-.4.3-2.9.2-3.2L1.1 360.6v-9.1s1.3-45.4 4.1-44.8l27.7 6.1c2.1.5-4.5 24-4.5 24-3 11.4-4.1 15.4-4.8 22.1l3.1 55.6c0 .3 0 .5.1.8l4.8 17.5z"/><path fill="none" stroke="#00A78E" stroke-width="2.157" stroke-miterlimit="10" d="M31.6 432.8c1.4 3 1.8 5.9-1.9 5.7l-1-1.4-6.2-8.5-1.8 2.4c-1 1.4-1.3 3.1-.7 4.6.5 1.2 1 2.6 1.4 3.5.3.7.8 1.3 1.6 1.7l4.3 3c1 .7.6 1.6.3 2.5l-.6.6c-.9.8-2.5.9-3.5.2l-4.7-3.3c-.5-.1-.9-.3-1.1-.7L10.4 432c-.4-.7-1.2-3.8-1-4.5l3.2-12.1c.1-.4.3-2.9.2-3.2L1.1 360.6v-9.1s1.3-45.4 4.1-44.8l27.7 6.1c2.1.5-4.5 24-4.5 24-3 11.4-4.1 15.4-4.8 22.1l3.1 55.6c0 .3 0 .5.1.8l4.8 17.5z"/><path fill="#FFF" d="M153 449.1c-1 0-2-.4-2.7-1l-.8-.8-.2-.5c-.2-.8-.8-2.3.8-3.4l4.4-2.9c.6-.3 1-.8 1.2-1.2l1.5-3.5c.5-1.2.4-2.5-.4-3.6l-.8-1.2-5.5 7.2-1.4 1.8h-.5c-1.7 0-2.8-.5-3.4-1.5-.8-1.3-.6-3.1.7-5.8l5.3-17.3c.1-.2.1-.3.1-.5l4.5-55.4c-.4-3.1-1.4-7.3-2.8-12.5-.1-.2-.1-.4-.1-.5-3.6-11.6-9.5-31.5-8.1-33.9.2-.3.5-.6.9-.6l27.9-5.5h.2c1.3 0 2.7 0 5 23.4 1.1 11.1 1.8 22.4 1.8 22.5l-.2 9.3-13 51.3c0 .3.1 2.5.1 2.8l2.8 12.1c.2 1.2-.7 4.5-1.3 5.4l-7.6 11c-.4.5-.9.9-1.6 1.1l-4.7 3.1c-.6.4-1.3.6-2.1.6"/><path fill="#00A78E" d="M173.8 307.6c2.8 0 5.7 44.9 5.7 44.9l-.2 9.1-12.9 51.2c-.1.4.1 2.9.1 3.2l2.8 12.2c.1.7-.7 3.8-1.2 4.5l-7.6 11c-.3.4-.7.6-1.1.7l-4.8 3.2c-.5.3-1 .5-1.6.5-.7 0-1.4-.3-1.9-.7l-.6-.6c-.3-.8-.7-1.7.4-2.5l4.4-2.9c.8-.4 1.3-1 1.6-1.7.4-.9 1-2.3 1.5-3.5.7-1.5.5-3.2-.5-4.6l-1.7-2.4-6.4 8.3-1.1 1.4h-.1c-3.6 0-3.1-2.8-1.7-5.8l5.3-17.3c.1-.3.1-.5.1-.8l4.6-55.5c-.8-5.5-2.9-13-2.9-13.3 0 0-10.2-32.7-8-33.1l27.8-5.5m0-2.1h-.5l-27.8 5.5c-.7.1-1.2.5-1.6 1.2-.6 1-1.3 2.2 3.4 19.1 2.1 7.7 4.5 15.2 4.6 15.7 0 .1.1.3.1.5 1.4 5.1 2.3 9.2 2.7 12.2l-4.5 55.2v.3l-5.2 17.2c-.9 1.9-1.9 4.6-.6 6.7.6.9 1.8 2 4.2 2h1.1l.6-.8 1.1-1.4 4.6-6c.6.8.7 1.7.3 2.5-.5 1.2-1.1 2.6-1.5 3.5-.1.2-.4.5-.7.7h-.2l-4.4 2.9c-2.3 1.6-1.6 3.8-1.3 4.7l.1.2.2.5.4.4.6.6c.9.8 2.1 1.3 3.4 1.3 1 0 2-.3 2.8-.8l4.5-3.1c.8-.3 1.5-.8 2-1.4l7.6-11c.7-1 1.7-4.7 1.5-6v-.2l-2.8-12.1c0-.4-.1-2-.1-2.5l12.9-51 .1-.2v-.2l.2-9.1v-.2c0-.1-.7-11.4-1.8-22.5-.6-6.6-1.3-11.8-1.9-15.6-.9-6.2-1.7-8.8-4.1-8.8"/><path fill="#FFF" d="M76.2 610.3s-2.1-16.2-35.2-14.7c-33.2 1.4-35.7 12.1-37 15m169.1-.3s-2.1-16.2-35.2-14.7c-33.1 1.4-35.7 12.1-36.9 15"/></svg>