<!-- Generator: Adobe Illustrator 18.1.1, SVG Export Plug-In  -->
<svg version="1.1"
	 xmlns="http://www.w3.org/2000/svg" xmlns:xlink="http://www.w3.org/1999/xlink" xmlns:a="http://ns.adobe.com/AdobeSVGViewerExtensions/3.0/"
	 x="0px" y="0px" width="308.5px" height="191.2px" viewBox="0 0 308.5 191.2" enable-background="new 0 0 308.5 191.2"
	 xml:space="preserve">
<defs>
</defs>
<path fill="#FFFFFF" stroke="#00A78E" stroke-width="3" stroke-miterlimit="10" d="M305.1,50.5L143.7,1.6L3.4,95.1l26.1,8.9l6,40.7
	c-3.2,1.9-5,5.5-4.5,9.4c0.5,3.2,2.5,5.7,5.1,7c-2.5,9.9-4,15.9-6.7,26.8c12.8,3.2,20.1,2.1,31.4-4.6c-5.8-9.6-9-15-14.2-23.7
	c2.2-2,3.4-5.1,2.9-8.2c-0.6-3.9-3.4-6.8-7-7.7L37,106.6l29.3,10L63,94.1l3.9-2.3c0.2-0.1,0.3-0.2,0.5-0.3c0,0,0.2-0.1,0.2-0.1
	c26.4-15.1,53.1-26.4,86-31.2c32.9-4.9,61.8-1.8,91.4,5l0.2,0c0.1,0,0.3,0.1,0.5,0.1l4.3,1l3.2,21.5L305.1,50.5z"/>
<path fill="#FFFFFF" stroke="#00A78E" stroke-width="3" stroke-miterlimit="10" d="M153.8,62.2C121.5,67,91.6,77.7,65.6,92.8
	c-0.2,0.1-0.4,0.2-0.6,0.4l7.8,53.3l182.7-27.3l-7.8-53.3c-0.2-0.1-0.4-0.1-0.6-0.1C217.8,58.9,186.2,57.4,153.8,62.2"/>
</svg>
