<!-- Generator: Adobe Illustrator 18.1.1, SVG Export Plug-In  -->
<svg version="1.1"
	 xmlns="http://www.w3.org/2000/svg" xmlns:xlink="http://www.w3.org/1999/xlink" xmlns:a="http://ns.adobe.com/AdobeSVGViewerExtensions/3.0/"
	 x="0px" y="0px" width="144.1px" height="191.1px" viewBox="0 0 144.1 191.1" enable-background="new 0 0 144.1 191.1"
	 xml:space="preserve">
<defs>
</defs>
<path fill="#FFFFFF" d="M130.8,111.6c0,0,3.2-17,8.2-11.8c4.1,4.3,4.8,22.8,1.1,35.4c-1.6,5.6-8.9,11.5-11.6,8.5
	C125.9,140.8,130.8,111.6,130.8,111.6"/>
<path fill="#FFFFFF" d="M17.2,111.7c0,0-3.2-17-8.1-11.8c-4.1,4.3-4.8,22.8-1.3,35.4c1.6,5.6,8.9,11.6,11.5,8.6
	C22,140.8,17.2,111.7,17.2,111.7"/>
<path fill="#FFFFFF" d="M56.6,107.4c0,0-2.5-17.1-8.2-12.2c-5.9,5.2-5.3,27.2-3.3,35.3c1.4,5.7,9,12,12,9.1
	C60.2,136.7,56.6,107.4,56.6,107.4"/>
<path fill="#FFFFFF" stroke="#00A78E" stroke-width="2" stroke-miterlimit="10" d="M12.7,84.8c0.1,6-3.9,54.4,13,75.6
	c9.6,12.1,23.4,22.5,30.8,25.5c10.7,4.4,20.9,5.2,32.2,2.8c11.2-2.4,27.7-14.1,37.8-36.7c4.8-10.7,18-95.2-6.3-119
	C104.2,17.4,69.3,19.4,55.8,20C42.2,20.6,12.2,25.4,12.7,84.8"/>
<path fill="#00A78E" d="M104.1,106.9c0,3.3,2.7,5.9,6,5.9c3.3,0,6-2.7,6-5.9c0-3.3-2.7-5.9-6-5.9
	C106.8,100.9,104.1,103.6,104.1,106.9"/>
<path fill="#00A78E" d="M120.1,106.4c-0.1,0-8.2-7.8-18-7.9c-5,0-10.4,2.1-15.2,8.4l1.5,1.8c4.4-5.8,9.1-7.6,13.7-7.6
	c4.4,0,8.7,1.8,11.8,3.7c1.6,0.9,2.8,1.9,3.7,2.5c0.4,0.3,0.8,0.6,1,0.8l0.3,0.3L120.1,106.4z"/>
<path fill="#FFFFFF" d="M108.6,106.8c0,1.1-0.6,2.1-1.4,2.1c-0.8,0-1.4-0.9-1.4-2.1c0-1.1,0.6-2.1,1.4-2.1
	C107.9,104.7,108.6,105.6,108.6,106.8"/>
<path fill="#00A78E" d="M63.4,106.9c0,3.3-2.7,5.9-6,5.9c-3.3,0-6-2.7-6-5.9c0-3.3,2.7-5.9,6-5.9C60.7,100.9,63.4,103.6,63.4,106.9"
	/>
<path fill="#00A78E" d="M32.6,108.4l0.3-0.3c1.6-1.4,8.7-7.1,16.4-7.1c4.6,0,9.3,1.9,13.7,7.6l1.4-1.8c-4.7-6.3-10.2-8.4-15.1-8.4
	c-9.8,0-17.9,7.8-18,7.9L32.6,108.4z"/>
<path fill="#FFFFFF" d="M55.1,106.8c0,1.1-0.6,2.1-1.4,2.1c-0.8,0-1.4-0.9-1.4-2.1c0-1.1,0.6-2.1,1.4-2.1
	C54.4,104.7,55.1,105.6,55.1,106.8"/>
<path fill="#00A78E" d="M59.5,78.6c0,0,7.7,6.8,1.2,8c-6.4,1.2-17-1.1-21.6,0c-4.7,1-13.9,4.6-13.9,4.6l-0.6-3.9
	C24.6,87.4,37.2,75.5,59.5,78.6"/>
<path fill="#00A78E" d="M91.5,72.4c0,0-7.4,6.5-1,8c6.5,1.5,16.9-0.4,21.7,0.8c4.7,1.2,14,5.1,14,5.1l0.5-3.8
	C126.7,82.4,113.7,70.1,91.5,72.4"/>
<path fill="#00A78E" d="M68.5,136.5c0,0,0.5,0.1,1.3,0.2c0.8,0.1,2,0.3,3.4,0.5c1.4,0.2,3.1,0.3,4.7,0.1c0.8-0.1,1.5-0.4,1.9-0.8
	c0.1-0.1,0.2-0.2,0.2-0.3l0-0.1l0,0l0,0c0,0,0,0.1,0,0.1l0,0l0-0.1l0.1-0.3c0.2-0.5,0.1-0.8,0.2-1.2c0.1-0.9,0.1-1.8,0.1-2.7
	c0-0.9,0-1.8-0.1-2.7c-0.1-1.8-0.2-3.4-0.3-4.9c-0.2-2.9-0.2-4.8-0.2-4.8s0.7,1.8,1.4,4.6c0.3,1.4,0.7,3.1,0.9,4.9
	c0.1,0.9,0.2,1.8,0.3,2.8c0,1,0,2,0,3c-0.1,0.5-0.1,1.2-0.3,1.6l-0.1,0.3l0,0.1l0,0l0,0.1l0,0l0,0l-0.1,0.2
	c-0.1,0.3-0.3,0.6-0.6,0.8c-0.5,0.5-1.1,0.8-1.6,0.9c-0.5,0.2-1.1,0.2-1.6,0.3c-1,0.1-1.9-0.1-2.8-0.2c-0.8-0.1-1.6-0.4-2.3-0.6
	c-1.4-0.4-2.5-0.9-3.3-1.3C68.9,136.7,68.5,136.5,68.5,136.5"/>
<path fill="#00A78E" d="M56.5,147.1c0,0,21.3,8.8,38.7,1.4C92.8,153.5,69.6,166.2,56.5,147.1"/>
<path fill="#00A78E" stroke="#FFFFFF" stroke-width="2" stroke-miterlimit="10" d="M10.2,95.5c0,0-11.2-28.9-8.9-40.5
	c2.3-11.6,8-22,28.4-40.5C43,2.3,66.6,0.2,69.2,3.2C73.2,7.8,80.1,9.7,85,4c5-5.8,22.6-2.1,20.3,2.6c9.4-5.4,15.9,4.6,15.9,4.6
	s35.4,4.5,16,96.1c-1.7,8-3.7,17.2-3.7,17.2c-7.2,0.4-0.8-10.7,0.4-44.4c1.5-46.6-41.7-36.4-57.7-38.2C57,39.8,24.5,37.2,18.7,62.2
	c-4.1,17.8-4,38.9-3.5,50.2c0.2,4.8,0.4,5.4-2.9,8.8l-1,0L10.2,95.5z"/>
</svg>
