<!-- Generator: Adobe Illustrator 18.1.1, SVG Export Plug-In  -->
<svg version="1.1"
	 xmlns="http://www.w3.org/2000/svg" xmlns:xlink="http://www.w3.org/1999/xlink" xmlns:a="http://ns.adobe.com/AdobeSVGViewerExtensions/3.0/"
	 x="0px" y="0px" width="297.7px" height="411.3px" viewBox="0 0 297.7 411.3" enable-background="new 0 0 297.7 411.3"
	 xml:space="preserve">
<defs>
</defs>
<path fill="#FFFFFF" d="M181.2,53.6c0.2,0,9.1-0.3,15.4-1.4L250.7,30c-0.7-3.8,0.5-7.7,0.5-7.7l7.4-17c3.1-3.3,5.4,1.5,5.4,1.5
	l-2.6,8.1c0.2,2.2,2,1.1,2,1.1L285.1,0c4.1,0.6,2.7,4,2.7,4l-13.7,10c-0.4,3.3,1.9,2.3,1.9,2.3l16.3-11.9c4.1-0.7,2.7,3.7,2.7,3.7
	l-16.6,12.2c-0.1,1.8,1.5,1.7,1.5,1.7l14.6-10.7c4.9,0.4,3,4,3,4l-15.7,11.5c-0.8,3,1.5,2.1,1.5,2.1l10.9-8c4.9,1,3.1,3.9,2,4.7
	c-6.9,5-17.1,13.3-23.3,17c-5,3.1-9.5,2-12.5,0.5c-1,0.2-2.5,0.6-2.7,0.8l-51,31.7l-9.7,3.4c0,0-50.3,12.5-50.7,9.3l-3.7-32
	C142.3,53.9,181.2,53.6,181.2,53.6"/>
<path fill="#FFFFFF" d="M80.4,411.1c0,0-2.2-16.5-36-15.1c-33.8,1.5-36.4,12.4-37.7,15.3"/>
<path fill="#FFFFFF" d="M167,411.1c0,0-2.2-16.5-36-15.1c-33.8,1.5-36.4,12.4-37.7,15.3"/>
<path fill="#FFFFFF" d="M43.7,411.2l-5.4-186.4h93l-1.1,186.4H91.4V263.4c0-3.9-1.4-7-5.7-7c-4.3,0-5.7,3.2-5.7,7v147.8H43.7z"/>
<path fill="#FFFFFF" d="M74,16.7c0-0.3,28.9,0.9,28.9,0.9s-0.3,28.8,16,33l-9.1,13l-28-0.8l-17.9-2.8l-5.6-13
	C58.3,46.9,74.5,35.6,74,16.7z"/>
<path fill="#FFFFFF" d="M31,242.6c1.4,2.8,1.9,5.5-1.6,5.5l-1-1.3l-6.1-7.9l-1.6,2.3c-0.9,1.3-1.1,2.9-0.5,4.4
	c0.5,1.1,1.1,2.4,1.4,3.3c0.3,0.7,0.8,1.2,1.5,1.6l4.1,2.7c1,0.7,0.6,1.5,0.3,2.3l-0.6,0.5c-0.8,0.8-2.3,0.9-3.4,0.3l-4.6-3.1
	c-0.4-0.1-0.8-0.3-1.1-0.6l-7.3-10.4c-0.4-0.6-1.2-3.6-1.1-4.3l2.7-11.6c0.1-0.4,0.2-2.7,0.1-3.1L0.2,174.7L0,166.1
	c0,0,4.8-47.2,7.5-46.7l26.4,5.2c2,0.4-9.6,35.5-9.6,35.5c0,0.2-2.1,7.3-2.8,12.6l4.3,52.7c0,0.2,0.1,0.5,0.1,0.7L31,242.6z"/>
<path id="shirt_2_" fill="#FFFFFF" stroke="#00A78E" stroke-width="2" stroke-miterlimit="10" d="M176.4,86.7c0,0-30,10.5-42,18.5
	c-1.5,7,1.3,45.7,1.3,45.7c0.5,6.7,0.8,28.5-0.8,48.1l-3.3,26.2H38.5l-3.4-30.8c-1-16.2,0.1-40.4,0.7-46.6l5.4-36.8l-4.5,15.2
	L4,118.6c0,0,3.5-11.9,15.2-37.3C30.9,56,59.1,45.9,59.1,45.9s15.8,6.4,29.2,6.3s29.9-2.4,29.9-2.4s0.9,0.7,21.3-1.5
	c14-1.5,31,2,31,2L176.4,86.7z"/>
</svg>
