<!-- Generator: Adobe Illustrator 18.1.1, SVG Export Plug-In  -->
<svg version="1.1"
	 xmlns="http://www.w3.org/2000/svg" xmlns:xlink="http://www.w3.org/1999/xlink" xmlns:a="http://ns.adobe.com/AdobeSVGViewerExtensions/3.0/"
	 x="0px" y="0px" width="246.7px" height="499.6px" viewBox="0 0 246.7 499.6" enable-background="new 0 0 246.7 499.6"
	 xml:space="preserve">
<defs>
</defs>
<path fill="#FFFFFF" d="M178.7,111.4c0.2-0.2,6.7-6.3,10.7-11.2l26-52.4c-3-2.4-4.7-6.2-4.7-6.2L204.9,24c0.2-4.5,5-2.4,5-2.4
	l3.4,7.8c1.6,1.5,2.3-0.5,2.3-0.5l5.8-26.3c3.5-2.2,4.7,1.2,4.7,1.2l-3.7,16.5c1.9,2.7,3,0.5,3,0.5l4.4-19.7c2.7-3.2,4.4,1,4.4,1
	l-4.5,20.1c1.2,1.4,2.2,0.3,2.2,0.3L235.9,5c4-2.9,4.9,1.1,4.9,1.1l-4.2,19c1.4,2.8,2.5,0.6,2.5,0.6l2.9-13.2
	c4.4-2.5,4.9,0.9,4.6,2.2c-1.8,8.3-4.1,21.3-6.3,28.2c-1.7,5.6-5.8,7.8-9,8.6c-0.6,0.8-1.4,2.1-1.5,2.4l-17.4,57.5l-5.1,9
	c0,0-29.6,42.6-32,40.4L151.4,139C149.5,137.3,178.7,111.4,178.7,111.4"/>
<path fill="#FFFFFF" d="M80.4,499.3c0,0-2.2-16.5-36-15.1c-33.8,1.5-36.4,12.4-37.7,15.3"/>
<path fill="#FFFFFF" d="M167,499.3c0,0-2.2-16.5-36-15.1c-33.8,1.5-36.4,12.4-37.7,15.3"/>
<path fill="#FFFFFF" d="M43.7,499.4L38.3,313h93l-1.1,186.4H91.4V351.6c0-3.9-1.4-7-5.7-7c-4.3,0-5.7,3.2-5.7,7v147.8H43.7z"/>
<path fill="#FFFFFF" d="M74,104.9c0-0.3,28.9,0.9,28.9,0.9s-0.3,28.8,16,33l-9.1,13l-28-0.8l-17.9-2.8l-5.6-13
	C58.3,135.2,74.5,123.8,74,104.9z"/>
<path fill="#FFFFFF" d="M31,330.8c1.4,2.8,1.9,5.5-1.6,5.5l-1-1.3l-6.1-7.9l-1.6,2.3c-0.9,1.3-1.1,2.9-0.5,4.4
	c0.5,1.1,1.1,2.4,1.4,3.3c0.3,0.7,0.8,1.2,1.5,1.6l4.1,2.7c1,0.7,0.6,1.5,0.3,2.3l-0.6,0.5c-0.8,0.8-2.3,0.9-3.4,0.3l-4.6-3.1
	c-0.4-0.1-0.8-0.3-1.1-0.6l-7.3-10.4c-0.4-0.6-1.2-3.6-1.1-4.3l2.7-11.6c0.1-0.4,0.2-2.7,0.1-3.1L0.2,262.9L0,254.3
	c0,0,4.8-47.2,7.5-46.7l26.4,5.2c2,0.4-9.6,35.5-9.6,35.5c0,0.2-2.1,7.3-2.8,12.6l4.3,52.7c0,0.2,0.1,0.5,0.1,0.7L31,330.8z"/>
<path id="shirt_2_" fill="#FFFFFF" stroke="#00A78E" stroke-width="2" stroke-miterlimit="10" d="M185.9,164.9c0,0-15.5,20.5-55,30
	c-1.5,7,4.8,44.2,4.8,44.2c0.5,6.7,0.8,28.5-0.8,48.1l-3.3,26.2H38.5l-3.4-30.8c-1-16.2,0.1-40.4,0.7-46.6l5.4-36.8l-4.5,15.2
	L4,206.8c0,0,3.5-11.9,15.2-37.3c11.7-25.3,39.9-35.4,39.9-35.4s15.8,6.4,29.2,6.3s29.9-2.4,29.9-2.4s6.8,1.5,26.8-3
	c10.4-2.3,19.5-12.5,19.5-12.5L185.9,164.9z"/>
</svg>
