<?xml version="1.0" encoding="utf-8"?>
<!-- Generator: Adobe Illustrator 19.0.0, SVG Export Plug-In . SVG Version: 6.00 Build 0)  -->
<svg version="1.1" id="Layer_1" xmlns="http://www.w3.org/2000/svg" xmlns:xlink="http://www.w3.org/1999/xlink" x="0px" y="0px"
	 viewBox="0 0 374.9 197.1" enable-background="new 0 0 374.9 197.1" xml:space="preserve">
<g>
	<circle fill="#FFFFFF" cx="33.7" cy="170.1" r="8.2"/>
	<circle fill="#FFFFFF" cx="40.7" cy="167.1" r="8.2"/>
	<ellipse fill="#FFFFFF" cx="41.5" cy="173.1" rx="9" ry="8.2"/>
</g>
<g>
	<circle fill="#FFFFFF" cx="5" cy="178.5" r="5"/>
	
		<ellipse transform="matrix(0.9947 -0.1024 0.1024 0.9947 -18.3777 1.9627)" fill="#FFFFFF" cx="9.9" cy="180.1" rx="7.2" ry="5.3"/>
	<ellipse transform="matrix(0.6474 0.7622 -0.7622 0.6474 142.1003 59.5076)" fill="#FFFFFF" cx="6.7" cy="183.3" rx="5.5" ry="5"/>
</g>
<g>
	<ellipse fill="#FFFFFF" cx="160.2" cy="115.2" rx="62.4" ry="59.9"/>
	<ellipse fill="#FFFFFF" cx="293.2" cy="134.7" rx="62.4" ry="59.9"/>
	<ellipse fill="#FFFFFF" cx="287.3" cy="63.4" rx="46.5" ry="44.6"/>
	<ellipse fill="#FFFFFF" cx="203.6" cy="59.9" rx="77.9" ry="59.9"/>
	<ellipse fill="#FFFFFF" cx="219.9" cy="137.2" rx="68.7" ry="59.9"/>
	
		<ellipse transform="matrix(0.8432 -0.5376 0.5376 0.8432 -56.0243 105.1027)" fill="#FFFFFF" cx="152.2" cy="148.6" rx="40.2" ry="46"/>
	
		<ellipse transform="matrix(-0.2658 -0.964 0.964 -0.2658 330.4502 430.7956)" fill="#FFFFFF" cx="329.3" cy="89.6" rx="40.2" ry="46"/>
</g>
<g>
	<circle fill="#FFFFFF" cx="67.8" cy="145.9" r="11.2"/>
	<ellipse fill="#FFFFFF" cx="73.3" cy="139.6" rx="11.2" ry="13.4"/>
	<ellipse fill="#FFFFFF" cx="78.6" cy="150" rx="12.4" ry="11.2"/>
</g>
<g>
	<path fill="#00A78E" d="M318.8,90.9l-84.6-39.4L150,91.6l13.6,6.9l0.1,22.8c-1.9,0.8-3.2,2.6-3.2,4.8c0,1.8,0.9,3.3,2.3,4.3
		c-2.1,5.2-3.4,8.4-5.8,14.2c6.8,2.8,10.8,2.7,17.6-0.1c-2.4-5.7-3.7-8.9-5.9-14.1c1.4-0.9,2.2-2.5,2.2-4.3c0-2.2-1.3-4-3.2-4.8
		l-0.1-20.8l15.3,7.8l-0.1-12.6l2.3-0.9c0.1,0,0.2-0.1,0.3-0.1c0,0,0.1,0,0.1,0c15.6-6.2,31.2-10.3,49.6-10.4
		c18.4-0.1,34,3.9,49.6,9.9l0.1,0c0.1,0,0.2,0.1,0.3,0.1l2.3,0.9l0.1,12L318.8,90.9z M234.4,90.6c-16.3,0.1-31.8,3.2-45.7,8.7
		c-0.1,0-0.2,0.1-0.3,0.1l0.1,26.6l92.2-0.4L280.5,99c-0.1,0-0.2-0.1-0.3-0.1C266.2,93.5,250.7,90.5,234.4,90.6z"/>
</g>
</svg>
