<!-- Generator: Adobe Illustrator 18.1.1, SVG Export Plug-In  -->
<svg version="1.1"
	 xmlns="http://www.w3.org/2000/svg" xmlns:xlink="http://www.w3.org/1999/xlink" xmlns:a="http://ns.adobe.com/AdobeSVGViewerExtensions/3.0/"
	 x="0px" y="0px" width="173.6px" height="580.3px" viewBox="0 0 173.6 580.3" enable-background="new 0 0 173.6 580.3"
	 xml:space="preserve">
<defs>
</defs>
<path fill="#FFFFFF" d="M80.4,580c0,0-2.2-16.5-36-15.1c-33.8,1.5-36.4,12.4-37.7,15.3"/>
<path fill="#FFFFFF" d="M167,580c0,0-2.2-16.5-36-15.1c-33.8,1.5-36.4,12.4-37.7,15.3"/>
<path fill="#FFFFFF" d="M43.7,580.1l-5.4-186.4h93l-1.1,186.4H91.4V432.3c0-3.9-1.4-7-5.7-7c-4.3,0-5.7,3.2-5.7,7v147.8H43.7z"/>
<path fill="#FFFFFF" d="M74,185.6c0-0.3,28.9,0.9,28.9,0.9s-0.3,28.8,16,33l-9.1,13l-28-0.8l-17.9-2.8l-5.6-13
	C58.3,215.9,74.5,204.6,74,185.6z"/>
<path id="down_L_1_" fill="#FFFFFF" d="M144.6,412.2c-1.3,2.8-1.7,5.6,1.8,5.5l1-1.3l5.9-8l1.7,2.2c1,1.3,1.2,2.9,0.6,4.4
	c-0.5,1.1-1,2.5-1.4,3.4c-0.3,0.7-0.8,1.2-1.5,1.7l-4.1,2.8c-1,0.7-0.6,1.5-0.3,2.3l0.6,0.5c0.9,0.8,2.3,0.9,3.4,0.2l4.5-3.2
	c0.4-0.1,0.8-0.3,1.1-0.7l7-10.6c0.4-0.6,1.1-3.6,1-4.3l-3-11.5c-0.1-0.4-0.3-2.7-0.2-3.1l11-48.9v-8.6c0,0-2.3-47.2-4.9-46.6
	l-26.3,5.8c-2,0.5,5.3,26.8,5.3,26.8c2.8,10.9,3.9,14.6,4.6,21l-3,52.8c0,0.2,0,0.5-0.1,0.7L144.6,412.2z"/>
<path fill="#FFFFFF" d="M31,411.5c1.4,2.8,1.9,5.5-1.6,5.5l-1-1.3l-6.1-7.9l-1.6,2.3c-0.9,1.3-1.1,2.9-0.5,4.4
	c0.5,1.1,1.1,2.4,1.4,3.3c0.3,0.7,0.8,1.2,1.5,1.6l4.1,2.7c1,0.7,0.6,1.5,0.3,2.3l-0.6,0.5c-0.8,0.8-2.3,0.9-3.4,0.3l-4.6-3.1
	c-0.4-0.1-0.8-0.3-1.1-0.6l-7.3-10.4c-0.4-0.6-1.2-3.6-1.1-4.3l2.7-11.6c0.1-0.4,0.2-2.7,0.1-3.1L0.2,343.6L0,335
	c0,0,4.8-47.2,7.5-46.7l26.4,5.2c2,0.4-9.6,35.5-9.6,35.5c0,0.2-2.1,7.3-2.8,12.6l4.3,52.7c0,0.2,0.1,0.5,0.1,0.7L31,411.5z"/>
<path id="shirt_2_" fill="#FFFFFF" stroke="#00A78E" stroke-width="2" stroke-miterlimit="10" d="M169.7,288.7l-34.1,7.9l-3.7-16.1
	l3.9,39.4c0.5,6.7,0.8,28.5-0.8,48.1l-3.3,26.2H38.5l-3.4-30.8c-1-16.2,0.1-40.4,0.7-46.6l5.4-36.8l-4.5,15.2L4,287.5
	c0,0,3.5-11.9,15.2-37.3c11.7-25.3,39.9-35.4,39.9-35.4s15.8,6.4,29.2,6.3s29.9-2.4,29.9-2.4s27.7,7,39.4,32.3
	c11.7,25.3,11.7,37.5,11.7,37.5"/>
<g>
	<path fill="#FFFFFF" d="M144.2,111.7c0,0,3.2-17,8.2-11.8c4.1,4.3,4.8,22.8,1.1,35.4c-1.6,5.6-8.9,11.5-11.6,8.5
		C139.3,140.8,144.2,111.7,144.2,111.7"/>
	<path fill="#FFFFFF" d="M30.6,111.7c0,0-3.2-17-8.1-11.8c-4.1,4.3-4.8,22.8-1.3,35.4c1.6,5.6,8.9,11.6,11.5,8.6
		C35.4,140.8,30.6,111.7,30.6,111.7"/>
	<path fill="#FFFFFF" d="M70,107.4c0,0-2.5-17.1-8.2-12.2c-5.9,5.2-5.3,27.2-3.3,35.3c1.4,5.7,9,12,12,9.1
		C73.6,136.8,70,107.4,70,107.4"/>
	<path fill="#FFFFFF" stroke="#00A78E" stroke-width="2" stroke-miterlimit="10" d="M26.1,84.9c0.1,6-3.9,54.4,13,75.6
		c9.6,12.1,23.4,22.5,30.8,25.5c10.7,4.4,20.9,5.2,32.2,2.8c11.2-2.4,27.7-14.1,37.8-36.7c4.8-10.7,18-95.2-6.3-119
		C117.6,17.5,82.7,19.4,69.2,20C55.6,20.6,25.5,25.4,26.1,84.9"/>
	<path fill="#00A78E" d="M109.5,104.9c0,3.3,2.7,5.9,6,5.9c3.3,0,6-2.7,6-5.9c0-3.3-2.7-5.9-6-5.9C112.2,99,109.5,101.6,109.5,104.9
		"/>
	<path fill="#00A78E" d="M133.5,106.4c-0.1,0-8.2-7.8-18-7.9c-5,0-10.4,2.1-15.2,8.4l1.5,1.8c4.4-5.8,9.1-7.6,13.7-7.6
		c4.4,0,8.7,1.8,11.8,3.7c1.6,0.9,2.8,1.9,3.7,2.5c0.4,0.3,0.8,0.6,1,0.8l0.3,0.3L133.5,106.4z"/>
	<path fill="#FFFFFF" d="M114,104.8c0,1.1-0.6,2.1-1.4,2.1c-0.8,0-1.4-0.9-1.4-2.1c0-1.1,0.6-2.1,1.4-2.1
		C113.3,102.7,114,103.6,114,104.8"/>
	<path fill="#00A78E" d="M68.8,104.9c0,3.3-2.7,5.9-6,5.9c-3.3,0-6-2.7-6-5.9c0-3.3,2.7-5.9,6-5.9C66.1,99,68.8,101.6,68.8,104.9"/>
	<path fill="#00A78E" d="M46,108.5l0.3-0.3c1.6-1.4,8.7-7.1,16.4-7.1c4.6,0,9.3,1.9,13.7,7.6l1.4-1.8c-4.7-6.3-10.2-8.4-15.1-8.4
		c-9.8,0-17.9,7.8-18,7.9L46,108.5z"/>
	<path fill="#FFFFFF" d="M60.5,104.8c0,1.1-0.6,2.1-1.4,2.1c-0.8,0-1.4-0.9-1.4-2.1c0-1.1,0.6-2.1,1.4-2.1
		C59.8,102.7,60.5,103.6,60.5,104.8"/>
	<path fill="#00A78E" d="M72.8,78.6c0,0,7.7,6.8,1.2,8c-6.4,1.2-17-1.1-21.6,0c-4.7,1-13.9,4.6-13.9,4.6L38,87.4
		C38,87.4,50.5,75.5,72.8,78.6"/>
	<path fill="#00A78E" d="M104.9,72.4c0,0-7.4,6.5-1,8c6.5,1.5,16.9-0.4,21.7,0.8c4.7,1.2,14,5.1,14,5.1l0.5-3.8
		C140,82.4,127.1,70.1,104.9,72.4"/>
	<path fill="#00A78E" d="M81.9,136.5c0,0,0.5,0.1,1.3,0.2c0.8,0.1,2,0.3,3.4,0.5c1.4,0.2,3.1,0.3,4.7,0.1c0.8-0.1,1.5-0.4,1.9-0.8
		c0.1-0.1,0.2-0.2,0.2-0.3l0-0.1l0,0l0,0c0,0,0,0.1,0,0.1l0,0l0-0.1l0.1-0.3c0.2-0.5,0.1-0.8,0.2-1.2c0.1-0.9,0.1-1.8,0.1-2.7
		c0-0.9,0-1.8-0.1-2.7c-0.1-1.8-0.2-3.4-0.3-4.9c-0.2-2.9-0.2-4.8-0.2-4.8s0.7,1.8,1.4,4.6c0.3,1.4,0.7,3.1,0.9,4.9
		c0.1,0.9,0.2,1.8,0.3,2.8c0,1,0,2,0,3c-0.1,0.5-0.1,1.2-0.3,1.6l-0.1,0.3l0,0.1l0,0l0,0.1l0,0l0,0l-0.1,0.2
		c-0.1,0.3-0.3,0.6-0.6,0.8c-0.5,0.5-1.1,0.8-1.6,0.9c-0.5,0.2-1.1,0.2-1.6,0.3c-1,0.1-1.9-0.1-2.8-0.2c-0.8-0.1-1.6-0.4-2.3-0.6
		c-1.4-0.4-2.5-0.9-3.3-1.3C82.3,136.7,81.9,136.5,81.9,136.5"/>
	<path fill="#00A78E" d="M69.9,147.1c0,0,21.3,8.8,38.7,1.4C106.2,153.6,83,166.2,69.9,147.1"/>
	<path fill="#00A78E" stroke="#FFFFFF" stroke-width="2" stroke-miterlimit="10" d="M23.6,95.5c0,0-11.2-28.9-8.9-40.5
		c2.3-11.6,8-22,28.4-40.5C56.4,2.4,80,0.3,82.6,3.3c4,4.5,10.9,6.5,15.8,0.7c5-5.8,22.6-2.1,20.3,2.6c9.4-5.4,15.9,4.6,15.9,4.6
		s35.4,4.5,16,96.1c-1.7,8-3.7,17.2-3.7,17.2c-7.2,0.4-0.8-10.7,0.4-44.4C149,33.5,105.7,43.7,89.8,42c-19.4-2.2-51.8-4.7-57.7,20.3
		c-4.1,17.8-4,38.9-3.5,50.2c0.2,4.8,0.4,5.4-2.9,8.8l-1,0L23.6,95.5z"/>
	<path display="none" fill="none" stroke="#FFFFFF" stroke-width="2.049" stroke-miterlimit="10" d="M23.6,95.5
		c0,0-11.2-28.9-8.9-40.5c2.3-11.6,8-22,28.4-40.5C56.4,2.4,80,0.3,82.6,3.3c4,4.5,10.9,6.5,15.8,0.7c5-5.8,22.6-2.1,20.3,2.6
		c9.4-5.4,15.9,4.6,15.9,4.6s35.4,4.5,16,96.1c-1.7,8-3.7,17.2-3.7,17.2c-7.2,0.4-0.8-10.7,0.4-44.4C149,33.5,105.7,43.7,89.8,42
		c-19.4-2.2-51.8-4.7-57.7,20.3c-5.8,25-3.2,58.6-3.2,58.6l-5.3,5.5V95.5z"/>
</g>
</svg>
