<svg xmlns="http://www.w3.org/2000/svg" viewBox="-163 206.7 272.9 188.3"><path fill="#D20962" d="M-163 206.7h272.9V395H-163V206.7z"/><path fill="none" d="M-120.2 247H81.6v107.6h-201.8V247z"/><path d="M-96.9 255.9c-.8-.6-1.9-1.2-3.3-1.8-1.4-.6-3-.8-4.7-.8-1.4 0-2.5.2-3.5.5-.9.3-1.7.8-2.3 1.3-.6.5-1 1.2-1.2 1.9-.3.7-.4 1.5-.4 2.2 0 1 .2 1.8.6 2.6.4.7 1 1.3 1.7 1.9.8.5 1.7 1 2.7 1.5s2.3.9 3.7 1.3c1.3.4 2.7 1 3.9 1.6 1.3.6 2.4 1.4 3.3 2.3.9.9 1.7 2 2.3 3.3.6 1.3.9 2.8.9 4.5 0 2-.3 3.7-1 5.2s-1.6 2.8-2.8 3.8c-1.2 1-2.6 1.8-4.2 2.3-1.6.5-3.5.8-5.4.8-2.2 0-4.2-.2-6.1-.7-1.9-.5-3.4-1.1-4.4-1.9-1-.6-1.5-1.4-1.5-2.2 0-.4.2-1 .5-1.7.4-.7.8-1.3 1.2-1.9 1.3 1 2.8 1.9 4.5 2.7 1.8.8 3.6 1.2 5.7 1.2 1.5 0 2.8-.2 3.9-.6 1-.4 1.8-.9 2.5-1.5.6-.6 1.1-1.4 1.3-2.2.3-.8.4-1.7.4-2.5 0-1.1-.2-2.1-.5-2.9-.3-.8-.8-1.5-1.5-2.1s-1.5-1.1-2.5-1.6-2.1-.9-3.4-1.3c-1.5-.4-2.9-.9-4.2-1.5-1.3-.5-2.5-1.2-3.6-2.1-1-.9-1.9-1.9-2.5-3.1-.6-1.2-.9-2.8-.9-4.6 0-1.8.3-3.4 1-4.7.7-1.4 1.5-2.5 2.7-3.4 1.1-.9 2.5-1.6 4-2.1s3.2-.7 5-.7c1.5 0 3 .2 4.7.6 1.7.4 3.1.9 4.3 1.6.6.4 1.2.8 1.6 1.3.4.5.7 1 .7 1.6 0 .5-.2 1-.6 1.5-.4.6-.8 1.1-1.4 1.7-.2-.2-.3-.3-.6-.5-.1-.4-.3-.6-.6-.8zm10.4-3.2c.3 0 .5-.1.7-.1h.4c1.2 0 2.1.3 2.9.9.7.6 1.1 1.6 1.1 3.1v4.6h8.8v4.3h-8.8v15.3c0 3.2 1.3 4.9 3.9 4.9.6 0 1.2-.1 1.8-.3.6-.2 1.1-.5 1.5-.8.5-.3.8-.6 1.1-.9.3-.3.5-.5.5-.6.5.6.9 1.2 1.2 1.7.3.6.5 1.1.5 1.6 0 .4-.2.7-.5 1.2-.4.4-.9.8-1.5 1.2-.6.4-1.4.7-2.3.9-.9.2-1.9.4-3.1.4-2.1 0-3.7-.4-4.9-1.2-1.2-.8-2.1-1.9-2.6-3.3-.3-.8-.4-1.6-.5-2.5-.1-.9-.1-1.8-.1-2.6v-27.8zm21 8.3c.3 0 .5-.1.7-.1h.4c1.2 0 2.1.3 2.9.9.7.6 1.1 1.6 1.1 3.1v13.8c0 1.5.1 2.8.3 3.7.2.9.7 1.6 1.3 2.1.6.4 1.2.7 1.9.9.7.2 1.5.2 2.4.2 1.1 0 2-.1 2.9-.4.9-.3 1.7-.7 2.3-1.1.6-.4 1.1-.9 1.5-1.4.4-.5.5-.9.5-1.3V261c.3 0 .5-.1.7-.1h.4c1.2 0 2.1.3 2.9.9.7.6 1.1 1.6 1.1 3.1v24.2h-5v-2.6c-.8.9-1.9 1.7-3.3 2.4s-3.3 1.1-5.5 1.1c-2.3 0-4.1-.4-5.3-1.1-1.3-.7-2.2-1.6-2.8-2.7-.6-1.1-1-2.3-1.1-3.7-.1-1.3-.2-2.6-.2-3.8V261zm50.4 25.8c-.3.3-.7.7-1.2 1.1s-1 .8-1.7 1.1c-.7.3-1.4.6-2.2.8s-1.7.3-2.7.3c-1.5 0-3-.3-4.5-.8-1.4-.5-2.7-1.3-3.8-2.5-1.1-1.1-1.9-2.6-2.6-4.5-.6-1.8-.9-4.1-.9-6.7 0-2.6.3-4.9 1-6.8s1.5-3.5 2.6-4.7c1.1-1.2 2.4-2.1 3.8-2.7 1.4-.6 2.9-.9 4.5-.9 1.8 0 3.3.3 4.5.9s2.3 1.3 3.1 2V247c.3 0 .5-.1.7-.1h.4c1.2 0 2.1.3 2.9.9.7.6 1.1 1.6 1.1 3.1V289H-15v-2.2zm-.1-18.8l-.9-.9c-.4-.3-.9-.7-1.4-1-.6-.3-1.2-.6-2-.8-.8-.2-1.6-.3-2.6-.3-2.3 0-4 .8-5.3 2.5-1.3 1.7-2 4.2-2 7.6 0 1.5.1 3 .4 4.3.2 1.3.7 2.4 1.2 3.4.6 1 1.4 1.7 2.3 2.3 1 .5 2.2.8 3.6.8.9 0 1.8-.1 2.6-.4.8-.2 1.5-.5 2.1-.9.6-.4 1-.8 1.4-1.2.3-.5.5-.9.5-1.4v-14zm17.5 8.2c.1 2.9.9 5.2 2.3 7 1.4 1.8 3.6 2.6 6.5 2.6 1.1 0 2.1-.1 3-.4.9-.2 1.6-.5 2.3-.9.6-.3 1.2-.7 1.6-1.1.4-.4.8-.8 1-1.1.4.6.8 1.1 1.2 1.8.3.6.5 1.1.5 1.5 0 .3-.1.6-.3 1-.2.3-.5.7-1 1-.9.7-2.1 1.2-3.5 1.7s-3.1.7-5.2.7c-1.9 0-3.6-.3-5.3-.8s-3.1-1.4-4.3-2.6c-1.2-1.2-2.2-2.7-2.9-4.7-.7-1.9-1.1-4.3-1.1-7 0-2.5.4-4.6 1.1-6.5.7-1.8 1.7-3.3 2.9-4.5 1.2-1.2 2.5-2 4.1-2.6 1.5-.6 3.1-.8 4.7-.8 2 0 3.7.3 5.2 1 1.4.7 2.6 1.6 3.5 2.7.9 1.1 1.6 2.4 2 3.9.4 1.5.7 3 .7 4.6v1.7c0 .6-.1 1.1-.1 1.6H2.3zm13.9-3.8c0-1.1-.1-2.1-.3-3-.2-.9-.6-1.7-1.1-2.4-.5-.7-1.2-1.2-2-1.6-.9-.4-1.9-.6-3.1-.6-2.1 0-3.7.7-5.1 2-1.3 1.3-2.1 3.2-2.2 5.6h13.8zm11.9-11.2c.3 0 .5-.1.7-.1h.4c.9 0 1.7.2 2.5.7.7.5 1.2 1.2 1.3 2.3.9-.9 2.1-1.7 3.7-2.4s3.4-1.1 5.5-1.1c2.7 0 4.7.6 6.2 1.8 1.4 1.2 2.4 2.7 2.8 4.5.2.8.3 1.7.4 2.6 0 1 .1 1.9.1 2.8v16.9h-5v-18.9c0-.7-.1-1.3-.3-1.9-.3-1-.9-1.8-1.8-2.4-.9-.6-2.1-.8-3.8-.8-1.1 0-2.2.1-3.1.4-.9.2-1.7.6-2.3.9-.6.4-1.1.9-1.5 1.4-.4.5-.5 1-.5 1.5v19.8h-5v-28zm32.1-8.5c.3 0 .5-.1.7-.1h.4c1.2 0 2.1.3 2.9.9.7.6 1.1 1.6 1.1 3.1v4.6h8.8v4.3h-8.8v15.3c0 3.2 1.3 4.9 3.9 4.9.6 0 1.2-.1 1.8-.3.6-.2 1.1-.5 1.5-.8.5-.3.8-.6 1.1-.9.3-.3.5-.5.5-.6.5.6.9 1.2 1.2 1.7.3.6.5 1.1.5 1.6 0 .4-.2.7-.5 1.2-.4.4-.9.8-1.5 1.2-.6.4-1.4.7-2.3.9s-1.9.4-3.1.4c-2.1 0-3.7-.4-4.9-1.2s-2.1-1.9-2.6-3.3c-.3-.8-.4-1.6-.5-2.5-.1-.9-.1-1.8-.1-2.6v-27.8zm-175.7 56.1c.2 0 .5-.1.8-.1h.7c.4 0 .8 0 1.2.1.4.1.8.3 1.2.5.4.3.7.6.9 1.1.2.5.4 1.1.4 1.9v13.2h18.9v-16.9c.2 0 .5-.1.8-.1h.7c.4 0 .8 0 1.2.1.4.1.8.3 1.2.5.4.3.7.6.9 1.1.2.5.4 1.1.4 1.9v36.1h-5.2v-18.4h-18.9v18.4h-5.2v-39.4zm42 26.8c.1 2.9.9 5.2 2.3 7 1.4 1.8 3.6 2.6 6.5 2.6 1.1 0 2.1-.1 3-.4.9-.2 1.6-.5 2.3-.9.6-.3 1.2-.7 1.6-1.1s.8-.8 1-1.1c.4.6.8 1.1 1.2 1.8.3.6.5 1.1.5 1.5 0 .3-.1.6-.3 1-.2.3-.5.7-1 1-.9.7-2.1 1.2-3.5 1.7s-3.1.7-5.2.7c-1.9 0-3.6-.3-5.3-.8-1.6-.5-3.1-1.4-4.3-2.6-1.2-1.2-2.2-2.7-2.9-4.7-.7-1.9-1.1-4.3-1.1-7 0-2.5.4-4.6 1.1-6.5.7-1.8 1.7-3.3 2.9-4.5 1.2-1.2 2.5-2 4.1-2.6 1.5-.6 3.1-.8 4.7-.8 2 0 3.7.3 5.2 1 1.4.7 2.6 1.6 3.5 2.7.9 1.1 1.6 2.4 2 3.9.4 1.5.7 3 .7 4.6v1.7c0 .6-.1 1.1-.1 1.6h-18.9zm13.9-3.8c0-1.1-.1-2.1-.3-3-.2-.9-.6-1.7-1.1-2.4-.5-.7-1.2-1.2-2-1.6-.9-.4-1.9-.6-3.1-.6-2.1 0-3.7.7-5.1 2-1.3 1.3-2.1 3.2-2.2 5.6h13.8zm13-4.9c-.3-.5-.6-1.1-.8-1.7-.2-.6-.3-1.1-.3-1.4 0-.5.3-1 .9-1.5.6-.5 1.5-.9 2.5-1.2 1-.4 2.1-.6 3.4-.8 1.2-.2 2.4-.3 3.6-.3 2 0 3.7.2 5 .7 1.3.4 2.4 1.1 3.3 2 .8.9 1.4 2 1.8 3.3.3 1.3.5 2.8.5 4.5v11.7c0 .9 0 1.7.1 2.2.1.5.2.9.4 1.2.2.3.5.4.9.5.4.1.9.1 1.5.1v2.4c-.4.1-.8.2-1.3.3-.5.1-1 .1-1.6.1-1.2 0-2.3-.2-3.2-.7-.9-.5-1.4-1.4-1.6-2.6-1 1-2.2 1.8-3.6 2.5s-3.2 1-5.5 1c-1 0-2.1-.1-3.1-.4-1-.2-2-.7-2.8-1.3-.9-.6-1.6-1.5-2.1-2.6-.6-1.1-.8-2.4-.8-4.1 0-2.1.5-3.7 1.6-5 1-1.3 2.3-2.3 3.9-3.1 1.5-.8 3.2-1.3 5-1.5 1.8-.3 3.4-.4 4.8-.5h1.2c.5 0 .9 0 1.2.1v-.9c0-1.8-.4-3.1-1.3-4.1-.9-.9-2.5-1.4-4.9-1.4-1.8 0-3.3.2-4.5.7-1.2.5-2.4 1.1-3.6 1.9h-.6zm14.9 7.6h-1.7c-1.3 0-2.6.1-3.9.2s-2.5.5-3.6.9-1.9 1-2.6 1.8c-.7.8-1 1.8-1 3s.4 2.2 1.1 3.1c.7.9 2 1.4 4 1.4 1 0 2-.1 2.9-.4.9-.3 1.8-.7 2.5-1.1.7-.4 1.3-.9 1.7-1.4.4-.5.6-1 .6-1.5v-6zm13.9-28c.3 0 .5-.1.7-.1h.4c1.2 0 2.1.3 2.9.9.7.6 1.1 1.6 1.1 3.1V343c0 .6 0 1.1.1 1.5 0 .4.1.8.3 1s.5.5.8.6c.4.1.9.2 1.6.2v2.1c-.4.1-.8.2-1.5.3-.6.1-1.2.1-1.8.1-1.1 0-2-.2-2.6-.5-.6-.4-1.1-.8-1.4-1.4-.3-.6-.5-1.3-.5-2-.1-.7-.1-1.5-.1-2.2v-36.2zm14.3 5.6c.3 0 .5-.1.7-.1h.4c1.2 0 2.1.3 2.9.9.7.6 1.1 1.6 1.1 3.1v4.6h8.8v4.3H1.5v15.3c0 3.2 1.3 4.9 3.9 4.9.6 0 1.2-.1 1.8-.3.6-.2 1.1-.5 1.5-.8.5-.3.8-.6 1.1-.9s.5-.5.5-.6c.5.6.9 1.2 1.2 1.7.3.6.5 1.1.5 1.6 0 .4-.2.7-.5 1.2-.4.4-.9.8-1.5 1.2-.6.4-1.4.7-2.3.9-.9.2-1.9.4-3.1.4-2.1 0-3.7-.4-4.9-1.2-1.2-.8-2.1-1.9-2.6-3.3-.3-.8-.4-1.6-.5-2.5-.1-.9-.1-1.8-.1-2.6v-27.8zm21.2-5.6c.3 0 .5-.1.7-.1h.4c1.2 0 2.1.3 2.8.9.7.6 1.1 1.6 1.1 3.1v13.1c1-1.1 2.3-2 3.9-2.6 1.6-.6 3.3-.9 5-.9 2.8 0 4.9.6 6.3 1.9s2.4 2.7 2.8 4.4c.2.8.3 1.7.4 2.6 0 1 .1 1.9.1 2.8v16.9h-5v-18.9c0-.7-.1-1.3-.3-1.9-.3-1-.9-1.8-1.7-2.4-.9-.6-2.2-.8-3.9-.8-1.1 0-2.2.1-3.1.4-.9.3-1.7.6-2.3 1-.7.4-1.2.9-1.5 1.4-.4.5-.5 1-.5 1.5v19.7h-5v-42.1z" fill="#FFF"/></svg>