<svg xmlns="http://www.w3.org/2000/svg" width="298.5" height="245.8" viewBox="0 0 298.5 245.8"><path fill="#32CFB6" d="M16.5 43.5h265.4v202.3H16.5zm282 0H0L16.5 0H282"/><path fill="#32CFB6" d="M0 43.5h298.5v12.7H0z"/><path d="M26.5 56.2H57v39H26.5zm53.7 0h30.5v39H80.2zm53.6 0h30.5v39h-30.5zm53.6 0h30.5v39h-30.5zm53.6 0h30.5v39H241zM26.5 103.7H57v39H26.5zm53.7 0h30.5v39H80.2zm53.6 0h30.5v39h-30.5zm53.6 0h30.5v39h-30.5zm53.6 0h30.5v39H241zM26.5 151.1H57v39H26.5zm53.7 0h30.5v39H80.2zm53.6 0h30.5v39h-30.5zm53.6 0h30.5v39h-30.5zm53.6 0h30.5v39H241zM26.5 198.6H57v39H26.5zm53.7 0h30.5v39H80.2zm53.6 0h30.5v39h-30.5zm53.6 0h30.5v39h-30.5zm53.6 0h30.5v39H241z" fill="#00A78E"/></svg>