<svg xmlns="http://www.w3.org/2000/svg" width="59.5" height="63.4" viewBox="0 0 59.5 63.4"><path fill="#00A78E" d="M28.6 55.2v8.2h5V55l5.9-11.6-7.7 5v-4.2h-3v5l-10.6-7.7"/><path fill="#55E1C8" d="M53 16.2c.1-.1.1-.2.2-.3 1.5-2.9-1.4-7.3-6.4-9.7-2.9-1.4-5.8-1.9-8.1-1.4-.6-3.1-4.9-5.2-10.1-4.8-4.3.3-7.9 2.4-8.9 4.9-2-.7-4.5-.7-7.1.2-4.4 1.7-7 5.5-5.8 8.5.1.3.2.5.4.7-2.6.4-5 2.2-6.3 4.8-2.1 4.2-.6 9 3.2 10.8.6.3 1.3.5 2 .6-1 2.6-.5 5.8 1.6 8 2.9 3.1 7.8 3.4 10.9.5.3-.3.6-.6.9-1 1.3 3.3 7.8 5.4 15.4 4.8 6.8-.5 12.4-3 14-6 2.6-.1 5.1-1 7.1-2.8 4.5-4.1 4.6-11.1.4-15.6-1-.8-2.1-1.6-3.4-2.2"/></svg>