<svg xmlns="http://www.w3.org/2000/svg" width="53.1" height="58" viewBox="0 0 53.1 58"><path fill="#00A78E" d="M38.8 23.2c.3-.2.7-.2.9.1l.1.1c.2.3.1.7-.2.9l-13.1 9.4c-.3.2-.7.2-.9-.1v-.1c-.2-.3-.1-.7.2-.9l13-9.4z"/><path fill="#55E1C8" d="M19.3 27.8c0 5.2-4.3 9.5-9.6 9.5S.1 33 .1 27.8s4.3-9.5 9.6-9.5c5.2 0 9.6 4.3 9.6 9.5m33.8-7.2c0-5.5-4.5-10-10.2-10s-10.2 4.5-10.2 10c0 2.6 1 5 2.7 6.8.6-.2 1.3-.3 2-.3 2.6 0 4.9 1.4 6.2 3.5 5.3-.3 9.5-4.7 9.5-10"/><path fill="#55E1C8" d="M43.6 33.6c0 3.4-2.8 6.1-6.2 6.1-3.4 0-6.2-2.7-6.2-6.1 0-3.4 2.8-6.1 6.2-6.1 3.4 0 6.2 2.8 6.2 6.1m-3.8-23.1C38 4.4 32.3 0 25.5 0c-8.2 0-14.8 6.6-14.8 14.6 0 1.1.1 2.2.4 3.2 5 .9 8.7 5.1 8.8 10.3 1.8.7 3.7 1.1 5.7 1.1 3.2 0 6.1-1 8.5-2.6-1.2-1.7-1.9-3.8-1.9-6-.1-4.8 3.1-8.8 7.6-10.1"/><path fill="#00A78E" d="M26.8 24c0-.8-.6-1.4-1.4-1.4h-.2c-.8 0-1.5.6-1.5 1.4v34h3.1V24zm-1.2 14.2c.3.2.3.6 0 1l-.1.1c-.3.4-.7.5-1 .3L12.4 31c-.3-.2-.3-.6 0-1l.1-.1c.3-.4.7-.5 1-.3l12.1 8.6z"/><path fill="#00A78E" d="M35.5 35.4c.2-.2.6-.1.8.1l.1.1c.2.3.2.6 0 .8l-9.6 8.4c-.2.2-.6.1-.8-.1l-.1-.1c-.2-.3-.2-.6 0-.8l9.6-8.4z"/></svg>