<svg xmlns="http://www.w3.org/2000/svg" width="45.2" height="48.1" viewBox="0 0 45.2 48.1"><path fill="#00A78E" d="M21.7 41.9v6.2h3.8v-6.4l4.5-8.8-5.9 3.8v-3.2h-2.2v3.8l-8.1-5.8"/><path fill="#55E1C8" d="M40.3 12.3c0-.1.1-.1.1-.2 1.1-2.2-1-5.5-4.8-7.4-2.2-1.1-4.4-1.4-6.1-1.1C29 1.3 25.6-.3 21.8 0c-3.3.3-6 1.8-6.7 3.7-1.5-.6-3.4-.5-5.4.2C6.4 5.2 4.4 8 5.3 10.4l.3.6c-2 .3-3.8 1.6-4.8 3.7-1.6 3.2-.5 6.9 2.4 8.2.5.2 1 .4 1.5.5-.8 2-.4 4.4 1.2 6.1 2.2 2.4 5.9 2.6 8.3.4l.7-.7c1 2.5 5.9 4.1 11.7 3.6 5.2-.4 9.4-2.3 10.7-4.6 1.9-.1 3.9-.8 5.4-2.2 3.4-3.1 3.5-8.4.3-11.8-.9-.8-1.8-1.4-2.7-1.9"/></svg>