<svg xmlns="http://www.w3.org/2000/svg" viewBox="-151 152.3 296.6 296.7">
  <path fill="#FFF" d="M-136.4 239.8h258.3v187.1h-258.3z"/>
  <path fill="none" stroke="#00AB9F" stroke-width="5.739" stroke-miterlimit="10" d="M-136.4 239.8h258.3v187.1h-258.3z"/>
  <path fill="#00A78E" d="M-86.2 224.6c-2.9 0-5.3-2.4-5.3-5.3v-53.8c0-2.9 2.4-5.3 5.3-5.3h10.7c2.9 0 5.3 2.4 5.3 5.3v53.8c0 2.9-2.4 5.3-5.3 5.3h-10.7z"/>
  <path fill="#FFF" d="M-75.6 163.1c1.3 0 2.4 1.1 2.4 2.4v53.8c0 1.3-1.1 2.4-2.4 2.4h-10.6c-1.3 0-2.4-1.1-2.4-2.4v-53.8c0-1.3 1.1-2.4 2.4-2.4h10.6m0-5.7h-10.6c-4.5 0-8.2 3.7-8.2 8.2v53.7c0 4.5 3.7 8.2 8.2 8.2h10.7c4.5 0 8.2-3.7 8.2-8.2v-53.8c-.1-4.5-3.7-8.1-8.3-8.1"/>
  <path fill="#00A78E" d="M57 224.6c-2.9 0-5.3-2.4-5.3-5.3v-53.8c0-2.9 2.4-5.3 5.3-5.3h10.7c2.9 0 5.3 2.4 5.3 5.3v53.8c0 2.9-2.4 5.3-5.3 5.3H57z"/>
  <path fill="#FFF" d="M67.6 163.1c1.3 0 2.4 1.1 2.4 2.4v53.8c0 1.3-1.1 2.4-2.4 2.4H57c-1.3 0-2.4-1.1-2.4-2.4v-53.8c0-1.3 1.1-2.4 2.4-2.4h10.6m0-5.7H57c-4.5 0-8.2 3.7-8.2 8.2v53.7c0 4.5 3.7 8.2 8.2 8.2h10.7c4.5 0 8.2-3.7 8.2-8.2v-53.8c-.1-4.5-3.7-8.1-8.3-8.1"/>
  <path fill="#00A78E" d="M-115.6 446.1c-17.9 0-32.5-14.6-32.5-32.5V207.7c0-17.9 14.6-32.5 32.5-32.5H-95v44.1c0 4.8 3.9 8.8 8.8 8.8h10.7c4.8 0 8.8-3.9 8.8-8.8v-44.1h115v44.1c0 4.8 3.9 8.8 8.8 8.8h10.7c4.8 0 8.8-3.9 8.8-8.8v-44.1h33.8c17.9 0 32.5 14.6 32.5 32.5v205.9c0 17.9-14.6 32.5-32.5 32.5h-226zm23.8-186.7c-14.8 0-26.8 12-26.8 26.8v102c0 14.8 12 26.8 26.8 26.8H86.5c14.8 0 26.8-12 26.8-26.8v-102c0-14.8-12-26.8-26.8-26.8H-91.8z"/>
  <path fill="#FFF" d="M110.2 178.1c16.3 0 29.7 13.4 29.7 29.7v205.9c0 16.3-13.4 29.7-29.7 29.7h-225.8c-16.3 0-29.7-13.4-29.7-29.7v-206c0-16.3 13.4-29.7 29.7-29.7h17.7v41.3c0 6.4 5.2 11.7 11.7 11.7h10.7c6.4 0 11.7-5.2 11.7-11.7v-41.2H45.4v41.2c0 6.4 5.2 11.7 11.7 11.7h10.7c6.4 0 11.7-5.2 11.7-11.7v-41.2h30.7m-202 239.8H86.5c16.3 0 29.7-13.4 29.7-29.7v-102c0-16.3-13.4-29.7-29.7-29.7H-91.8c-16.3 0-29.7 13.4-29.7 29.7v102c0 16.3 13.3 29.7 29.7 29.7m202-245.6H73.6v47c0 3.3-2.7 5.9-5.9 5.9H57c-3.3 0-5.9-2.7-5.9-5.9v-47H-69.6v47c0 3.3-2.7 5.9-5.9 5.9h-10.7c-3.3 0-5.9-2.7-5.9-5.9v-47h-23.5c-19.5 0-35.4 15.9-35.4 35.4v205.9c0 19.5 15.9 35.4 35.4 35.4h225.8c19.5 0 35.4-15.9 35.4-35.4V207.7c0-19.5-15.9-35.4-35.4-35.4m-202 239.8c-13.2 0-23.9-10.7-23.9-23.9v-102c0-13.2 10.7-23.9 23.9-23.9H86.5c13.2 0 23.9 10.7 23.9 23.9v102c0 13.2-10.7 23.9-23.9 23.9H-91.8z"/>
  <path fill="#00A78E" d="M-86.5 296.9h16.6v16.6h-16.6zm24.3 0h16.6v16.6h-16.6zm24.4 0h16.6v16.6h-16.6zm24.4 0H3.2v16.6h-16.6zm24.3 0h16.6v16.6H10.9zm24.4 0h16.6v16.6H35.3zm24.3 0h16.6v16.6H59.6zm-146.1 21.5h16.6V335h-16.6zm24.3 0h16.6V335h-16.6zm24.4 0h16.6V335h-16.6zm24.4 0H3.2V335h-16.6zm24.3 0h16.6V335H10.9zm24.4 0h16.6V335H35.3zm24.3 0h16.6V335H59.6zm-146.1 21.5h16.6v16.6h-16.6zm24.3 0h16.6v16.6h-16.6zm24.4 0h16.6v16.6h-16.6zm24.4 0H3.2v16.6h-16.6zm24.3 0h16.6v16.6H10.9zm24.4 0h16.6v16.6H35.3zm24.3 0h16.6v16.6H59.6zm-146.1 21.5h16.6V378h-16.6zm24.3 0h16.6V378h-16.6zm24.4 0h16.6V378h-16.6zm24.4 0H3.2V378h-16.6zm24.3 0h16.6V378H10.9zm24.4 0h16.6V378H35.3zm24.3 0h16.6V378H59.6zm-146.1 21.5h16.6v16.6h-16.6zm24.3 0h16.6v16.6h-16.6zm-3.9-110.6l-.6-.6s-.5-.4-.8-.6c-.3-.2-.6-.3-1-.4-.4-.1-.8-.2-1.3-.2-1 0-1.8.2-2.4.6-.6.4-1.1.9-1.5 1.5s-.6 1.3-.8 2.1c-.2.8-.2 1.6-.2 2.4 0 .8.1 1.6.3 2.4.2.8.5 1.5.9 2.1.4.6.9 1.1 1.6 1.5.7.4 1.5.6 2.4.6.5 0 1-.1 1.4-.2.4-.2.8-.3 1.1-.5.3-.2.6-.4.8-.6l.4-.4c.2.1.4.3.6.6s.3.5.3.7c0 .3-.1.5-.3.7-.1.1-.2.2-.5.4-.2.2-.5.4-.9.5-.4.2-.8.3-1.3.5-.5.1-1.1.2-1.8.2-1.2 0-2.3-.2-3.2-.6-.9-.4-1.6-1-2.2-1.7-.6-.7-1-1.6-1.3-2.6-.3-1-.4-2.1-.4-3.3s.1-2.3.4-3.3c.3-1 .7-1.9 1.3-2.7.6-.7 1.3-1.3 2.2-1.8.9-.4 1.9-.6 3.2-.6.6 0 1.2.1 1.8.2.6.1 1.1.3 1.5.6.4.2.8.5 1.1.7.3.3.4.5.4.8 0 .2-.1.4-.2.7-.1.2-.3.4-.4.6h-.6zm3.7-4.2h.5c.5 0 .9.1 1.2.4.3.2.4.7.4 1.3v13.8c0 .2.1.3.1.4l.3.3c.2.1.4.1.7.1v.9c-.1 0-.3.1-.6.1h-.7c-.5 0-.8-.1-1.1-.2-.2-.1-.4-.3-.6-.6-.1-.2-.2-.5-.2-.8v-15.7zm6.2 8.3c-.1-.2-.2-.4-.3-.7-.1-.2-.1-.4-.1-.6 0-.2.1-.4.4-.6s.6-.3 1-.5c.4-.1.9-.3 1.4-.3s1-.1 1.5-.1c.8 0 1.5.1 2 .3.5.2 1 .4 1.3.8.3.4.6.8.7 1.3.1.5.2 1.1.2 1.8v5.6c0 .2.1.4.2.5.1.1.2.2.4.2h.6v1c-.1 0-.3.1-.5.1h-.6c-.5 0-.9-.1-1.3-.3-.4-.2-.6-.6-.6-1.1-.4.4-.9.7-1.4 1-.6.3-1.3.4-2.2.4-.4 0-.8 0-1.3-.1-.4-.1-.8-.3-1.2-.5s-.6-.6-.9-1c-.2-.4-.3-1-.3-1.7 0-.8.2-1.5.6-2 .4-.5.9-.9 1.6-1.2s1.3-.5 2-.6c.7-.1 1.4-.2 2-.2h1v-.4c0-.7-.2-1.3-.5-1.6-.3-.4-1-.6-2-.6-.7 0-1.3.1-1.8.3-.5.2-1 .4-1.4.8h-.5zm6.1 3.1h-.7c-.5 0-1 0-1.6.1-.5.1-1 .2-1.4.4-.4.2-.8.4-1.1.7-.3.3-.4.7-.4 1.2s.1.9.4 1.3.8.6 1.6.6c.4 0 .8-.1 1.2-.2s.7-.3 1-.4c.3-.2.5-.4.7-.6s.3-.4.3-.6v-2.5zm11.8-3c-.3-.3-.7-.6-1.2-.9s-1.1-.4-1.7-.4c-.2 0-.4 0-.7.1s-.5.1-.7.2c-.2.1-.4.3-.5.4s-.2.4-.2.7c0 .3.1.5.2.6.1.2.3.3.5.5.2.1.5.2.8.3l.9.3c.5.1.9.3 1.4.4l1.2.6c.3.3.6.6.8 1 .2.4.3.9.3 1.5s-.1 1.1-.4 1.5c-.2.4-.6.8-1 1.1-.4.3-.9.5-1.4.7-.5.2-1.1.2-1.7.2-.6 0-1.1 0-1.5-.1-.4-.1-.8-.2-1.1-.3-.4-.2-.7-.3-.8-.5-.2-.2-.2-.3-.2-.5s.1-.4.2-.6c.1-.2.3-.5.4-.8.1.1.3.2.5.3.2.1.4.3.7.4l.9.3s.7.1 1.1.1c.3 0 .6 0 .8-.1.3-.1.5-.1.7-.3.2-.1.4-.3.5-.5.1-.2.2-.5.2-.8s-.1-.6-.2-.8-.3-.4-.6-.5c-.2-.1-.5-.3-.8-.3-.3-.1-.6-.2-.9-.2-.5-.1-.9-.2-1.3-.4s-.8-.4-1.1-.6-.6-.6-.8-.9-.3-.8-.3-1.4c0-.5.1-1 .3-1.4.2-.4.5-.7.9-1 .4-.3.8-.5 1.3-.6.5-.1 1-.2 1.5-.2.6 0 1.2.1 1.7.2s.9.3 1.2.5c.3.2.5.3.6.5.1.2.2.3.2.4 0 .2 0 .4-.1.6-.1.2-.2.5-.3.7h-.3zm10.1 0c-.3-.3-.7-.6-1.2-.9s-1.1-.4-1.7-.4c-.2 0-.4 0-.7.1s-.5.1-.7.2c-.2.1-.4.3-.5.4s-.2.4-.2.7c0 .3.1.5.2.6.1.2.3.3.5.5.2.1.5.2.8.3l.9.3c.5.1.9.3 1.4.4l1.2.6c.3.3.6.6.8 1 .2.4.3.9.3 1.5s-.1 1.1-.4 1.5c-.2.4-.6.8-1 1.1-.4.3-.9.5-1.4.7-.5.2-1.1.2-1.7.2-.6 0-1.1 0-1.5-.1-.4-.1-.8-.2-1.1-.3-.4-.2-.7-.3-.8-.5-.2-.2-.2-.3-.2-.5s.1-.4.2-.6c.1-.2.3-.5.4-.8.1.1.3.2.5.3.2.1.4.3.7.4l.9.3s.7.1 1.1.1c.3 0 .6 0 .8-.1.3-.1.5-.1.7-.3.2-.1.4-.3.5-.5.1-.2.2-.5.2-.8s-.1-.6-.2-.8-.3-.4-.6-.5c-.2-.1-.5-.3-.8-.3-.3-.1-.6-.2-.9-.2-.5-.1-.9-.2-1.3-.4s-.8-.4-1.1-.6-.6-.6-.8-.9-.3-.8-.3-1.4c0-.5.1-1 .3-1.4.2-.4.5-.7.9-1 .4-.3.8-.5 1.3-.6.5-.1 1-.2 1.5-.2.6 0 1.2.1 1.7.2s.9.3 1.2.5c.3.2.5.3.6.5.1.2.2.3.2.4 0 .2 0 .4-.1.6-.1.2-.2.5-.3.7h-.3zm14.8 0c-.3-.3-.7-.6-1.2-.9s-1.1-.4-1.7-.4c-.2 0-.4 0-.7.1s-.5.1-.7.2c-.2.1-.4.3-.5.4s-.2.4-.2.7c0 .3.1.5.2.6.1.2.3.3.5.5.2.1.5.2.8.3l.9.3c.5.1.9.3 1.4.4l1.2.6c.3.3.6.6.8 1 .2.4.3.9.3 1.5s-.1 1.1-.4 1.5c-.2.4-.6.8-1 1.1-.4.3-.9.5-1.4.7-.5.2-1.1.2-1.7.2-.6 0-1.1 0-1.5-.1-.4-.1-.8-.2-1.1-.3-.4-.2-.7-.3-.8-.5-.2-.2-.2-.3-.2-.5s.1-.4.2-.6c.1-.2.3-.5.4-.8.1.1.3.2.5.3.2.1.4.3.7.4l.9.3s.7.1 1.1.1c.3 0 .6 0 .8-.1.3-.1.5-.1.7-.3.2-.1.4-.3.5-.5.1-.2.2-.5.2-.8s-.1-.6-.2-.8-.3-.4-.6-.5c-.2-.1-.5-.3-.8-.3-.3-.1-.6-.2-.9-.2-.5-.1-.9-.2-1.3-.4s-.8-.4-1.1-.6-.6-.6-.8-.9-.3-.8-.3-1.4c0-.5.1-1 .3-1.4.2-.4.5-.7.9-1 .4-.3.8-.5 1.3-.6.5-.1 1-.2 1.5-.2.6 0 1.2.1 1.7.2s.9.3 1.2.5c.3.2.5.3.6.5.1.2.2.3.2.4 0 .2 0 .4-.1.6-.1.2-.2.5-.3.7h-.3zm11.6.2c-.3-.3-.6-.6-1.1-.9-.4-.3-1-.4-1.8-.4-.6 0-1.1.1-1.6.3-.4.2-.8.5-1.1.9s-.5.8-.6 1.3c-.1.5-.2 1-.2 1.6 0 .6.1 1.1.2 1.7.1.5.3 1 .6 1.4s.6.7 1.1.9c.4.2 1 .3 1.6.3.4 0 .8-.1 1.2-.2.3-.1.6-.3.9-.5.3-.2.6-.4.8-.7.1.1.1.1.2.3l.3.3s.2.2.2.4c.1.1.1.2.1.4s-.2.5-.5.8c-.3.3-.7.5-1.3.7-.6.2-1.3.3-2.1.3-.5 0-1.1-.1-1.7-.2-.6-.1-1.2-.4-1.7-.9-.5-.4-1-1-1.4-1.8-.4-.8-.6-1.8-.6-3.1 0-1.2.2-2.2.6-2.9s.9-1.4 1.4-1.8c.6-.4 1.2-.7 1.8-.9.6-.2 1.2-.3 1.7-.3.6 0 1.1.1 1.5.2s.8.3 1.2.5c.3.2.6.4.8.6.2.2.3.4.3.6 0 .2-.1.4-.2.6-.1.2-.3.4-.4.6h-.2zm3.4-8.6h.5c.5 0 .9.1 1.2.4.3.2.4.7.4 1.3v5.3c.4-.5.9-.8 1.6-1.1.6-.2 1.3-.4 2-.4 1.1 0 2 .3 2.6.8s1 1.1 1.1 1.8c.1.3.1.7.1 1.1v7.9h-2v-7.6c0-.3-.1-.5-.1-.8-.1-.4-.3-.7-.7-1-.4-.2-.9-.3-1.6-.3-.5 0-.9.1-1.2.2-.4.1-.7.2-.9.4-.3.2-.5.3-.6.6-.1.2-.2.4-.2.6v8h-2v-17.2zm14.6 11.8c0 1.2.4 2.1.9 2.8.6.7 1.4 1.1 2.6 1.1.4 0 .8 0 1.2-.1.4-.1.7-.2.9-.3.3-.1.5-.3.6-.4l.4-.4c.2.2.3.5.5.7s.2.5.2.6c0 .1 0 .3-.1.4s-.2.3-.4.4c-.4.3-.8.5-1.4.7-.6.2-1.3.3-2.1.3s-1.5-.1-2.1-.3-1.2-.6-1.7-1c-.5-.5-.9-1.1-1.2-1.9-.3-.8-.4-1.7-.4-2.8 0-1 .1-1.9.4-2.6.3-.7.7-1.3 1.2-1.8s1-.8 1.6-1c.6-.2 1.3-.3 1.9-.3.8 0 1.5.1 2.1.4s1.1.6 1.4 1.1.6 1 .8 1.6.3 1.2.3 1.9v.7c0 .2 0 .5-.1.7h-7.5zm5.6-1.6c0-.4 0-.8-.1-1.2s-.2-.7-.4-1c-.2-.3-.5-.5-.8-.7-.3-.2-.8-.2-1.3-.2-.8 0-1.5.3-2.1.8s-.8 1.3-.9 2.3h5.6zm12.2 5.9c-.1.1-.3.3-.5.4-.2.2-.4.3-.7.4l-.9.3s-.7.1-1.1.1c-.6 0-1.2-.1-1.8-.3s-1.1-.5-1.5-1c-.4-.5-.8-1.1-1-1.8s-.4-1.7-.4-2.7c0-1.1.1-2 .4-2.7.3-.8.6-1.4 1.1-1.9.4-.5 1-.9 1.5-1.1.6-.2 1.2-.4 1.8-.4.7 0 1.3.1 1.8.4.5.2.9.5 1.2.8v-6.6h.5c.5 0 .9.1 1.2.4.3.2.4.7.4 1.3v15.4h-2v-1zm-.1-7.6l-.3-.3c-.2-.1-.3-.3-.6-.4-.2-.1-.5-.2-.8-.3-.3-.1-.6-.1-1-.1-.9 0-1.6.3-2.2 1-.5.7-.8 1.7-.8 3.1 0 .6 0 1.2.1 1.7s.3 1 .5 1.4c.2.4.6.7.9.9.4.2.9.3 1.5.3.4 0 .7 0 1.1-.1.3-.1.6-.2.9-.4.2-.1.4-.3.6-.5s.2-.4.2-.6v-5.7zm5.5-2.9h.5c.5 0 .9.1 1.2.4.3.2.4.7.4 1.3v5.6c0 .6 0 1.1.1 1.5.1.4.3.6.5.8.2.2.5.3.8.4.3.1.6.1 1 .1s.8-.1 1.2-.2c.4-.1.7-.3.9-.4.3-.2.5-.4.6-.6.1-.2.2-.4.2-.5v-8.3h.5c.5 0 .9.1 1.2.4.3.2.4.7.4 1.3v9.8h-2v-1.1c-.3.4-.8.7-1.3 1s-1.3.4-2.2.4c-.9 0-1.6-.1-2.2-.4s-.9-.7-1.1-1.1-.4-.9-.4-1.5c0-.5-.1-1.1-.1-1.5v-7.4zm13-5.6h.5c.5 0 .9.1 1.2.4.3.2.4.7.4 1.3v13.8c0 .2.1.3.1.4l.3.3c.2.1.4.1.7.1v.9c-.1 0-.3.1-.6.1h-.7c-.5 0-.8-.1-1.1-.2-.2-.1-.4-.3-.6-.6-.1-.2-.2-.5-.2-.8v-15.7zm7 11.8c0 1.2.4 2.1.9 2.8.6.7 1.4 1.1 2.6 1.1.4 0 .8 0 1.2-.1.4-.1.7-.2.9-.3.3-.1.5-.3.6-.4l.4-.4c.2.2.3.5.5.7s.2.5.2.6c0 .1 0 .3-.1.4s-.2.3-.4.4c-.4.3-.8.5-1.4.7-.6.2-1.3.3-2.1.3s-1.5-.1-2.1-.3-1.2-.6-1.7-1c-.5-.5-.9-1.1-1.2-1.9-.3-.8-.4-1.7-.4-2.8 0-1 .1-1.9.4-2.6.3-.7.7-1.3 1.2-1.8s1-.8 1.6-1c.6-.2 1.3-.3 1.9-.3.8 0 1.5.1 2.1.4s1.1.6 1.4 1.1.6 1 .8 1.6.3 1.2.3 1.9v.7c0 .2 0 .5-.1.7h-7.5zm5.6-1.6c0-.4 0-.8-.1-1.2s-.2-.7-.4-1c-.2-.3-.5-.5-.8-.7-.3-.2-.8-.2-1.3-.2-.8 0-1.5.3-2.1.8s-.8 1.3-.9 2.3H65z"/>
  <path fill="#FFF" d="M-31.4 203.3h-.3c-3.7 0-6.8-3.1-6.8-6.8v-37c0-3.7 3.1-6.8 6.8-6.8h.3c3.7 0 6.8 3.1 6.8 6.8v37c0 3.8-3.1 6.8-6.8 6.8"/>
  <path fill="none" stroke="#00A78E" stroke-width=".811" stroke-miterlimit="10" d="M-31.4 203.3h-.3c-3.7 0-6.8-3.1-6.8-6.8v-37c0-3.7 3.1-6.8 6.8-6.8h.3c3.7 0 6.8 3.1 6.8 6.8v37c0 3.8-3.1 6.8-6.8 6.8z"/>
  <path fill="#FFF" d="M-16 207.2h-1.8c-3.7 0-6.8-3.1-6.8-6.8v-40.9c0-3.7 3.1-6.8 6.8-6.8h1.8c3.7 0 6.8 3.1 6.8 6.8v40.9c-.1 3.8-3.1 6.8-6.8 6.8"/>
  <path fill="none" stroke="#00A78E" stroke-width=".886" stroke-miterlimit="10" d="M-16 207.2h-1.8c-3.7 0-6.8-3.1-6.8-6.8v-40.9c0-3.7 3.1-6.8 6.8-6.8h1.8c3.7 0 6.8 3.1 6.8 6.8v40.9c-.1 3.8-3.1 6.8-6.8 6.8z"/>
  <path fill="#FFF" d="M-2.2 202.3h-.2c-3.7 0-6.8-3.1-6.8-6.8v-36c0-3.7 3.1-6.8 6.8-6.8h.2c3.7 0 6.8 3.1 6.8 6.8v36c0 3.8-3.1 6.8-6.8 6.8"/>
  <path fill="none" stroke="#00A78E" stroke-width=".802" stroke-miterlimit="10" d="M-2.2 202.3h-.2c-3.7 0-6.8-3.1-6.8-6.8v-36c0-3.7 3.1-6.8 6.8-6.8h.2c3.7 0 6.8 3.1 6.8 6.8v36c0 3.8-3.1 6.8-6.8 6.8z"/>
  <path fill="#FFF" d="M11.1 194.1c-3.6 0-6.6-3-6.6-6.6v-28.2c0-3.6 3-6.6 6.6-6.6s6.6 3 6.6 6.6v28.2c0 3.6-3 6.6-6.6 6.6"/>
  <path fill="none" stroke="#00A78E" stroke-width=".714" stroke-miterlimit="10" d="M11.1 194.1c-3.6 0-6.6-3-6.6-6.6v-28.2c0-3.6 3-6.6 6.6-6.6s6.6 3 6.6 6.6v28.2c0 3.6-3 6.6-6.6 6.6z"/>
  <path fill="#FFF" d="M-26.6 188.3c0-1.6-1.2-3-2.7-3h-4.5c-1.5 0-2.7 1.4-2.7 3v7.9c0 2.6 2.2 4.7 4.9 4.7s4.9-2.1 4.9-4.7v-1.1c.1-2.3.1-4.5.1-6.8"/>
  <path fill="none" stroke="#00A78E" stroke-width=".994" stroke-miterlimit="10" d="M-26.6 188.3c0-1.6-1.2-3-2.7-3h-4.5c-1.5 0-2.7 1.4-2.7 3v7.9c0 2.6 2.2 4.7 4.9 4.7s4.9-2.1 4.9-4.7v-1.1c.1-2.3.1-4.5.1-6.8z"/>
  <path fill="#FFF" d="M-11.5 192.1c0-1.6-1.4-3-3-3h-4.9c-1.7 0-3 1.4-3 3v7.9c0 2.6 2.4 4.7 5.5 4.7 3 0 5.5-2.1 5.5-4.7v-1.1c-.1-2.3-.1-4.6-.1-6.8"/>
  <path fill="none" stroke="#00A78E" stroke-width="1.047" stroke-miterlimit="10" d="M-11.5 192.1c0-1.6-1.4-3-3-3h-4.9c-1.7 0-3 1.4-3 3v7.9c0 2.6 2.4 4.7 5.5 4.7 3 0 5.5-2.1 5.5-4.7v-1.1c-.1-2.3-.1-4.6-.1-6.8z"/>
  <path fill="#FFF" d="M2.7 187.6c0-1.6-1.2-3-2.7-3h-4.4c-1.5 0-2.7 1.4-2.7 3v7.9c0 2.6 2.2 4.7 4.9 4.7s4.9-2.1 4.9-4.7v-7.9"/>
  <path fill="none" stroke="#00A78E" stroke-width=".993" stroke-miterlimit="10" d="M2.7 187.6c0-1.6-1.2-3-2.7-3h-4.4c-1.5 0-2.7 1.4-2.7 3v7.9c0 2.6 2.2 4.7 4.9 4.7s4.9-2.1 4.9-4.7v-7.9z"/>
  <path fill="#FFF" d="M15.8 179.7c0-1.5-1.2-2.8-2.6-2.8H9c-1.4 0-2.6 1.2-2.6 2.8v7.3c0 2.4 2.1 4.3 4.7 4.3s4.7-1.9 4.7-4.3v-7.3"/>
  <path fill="none" stroke="#00A78E" stroke-width=".932" stroke-miterlimit="10" d="M15.8 179.7c0-1.5-1.2-2.8-2.6-2.8H9c-1.4 0-2.6 1.2-2.6 2.8v7.3c0 2.4 2.1 4.3 4.7 4.3s4.7-1.9 4.7-4.3v-7.3z"/>
</svg>