<svg xmlns="http://www.w3.org/2000/svg" width="40.4" height="40.4" viewBox="0 0 40.4 40.4"><path fill="#00A78E" d="M38.7 24.2l-2.3-1.5c.3-1.9.2-3.7-.1-5.5l2.2-1.6c1.1-.5 1.8-1.4 1.5-2.1l-1.4-3.2c-.3-.7-1.4-.8-2.5-.3l-2.7.5c-1.1-1.5-2.4-2.8-4-3.8l.4-2.7c.4-1.1.3-2.3-.4-2.5L26.2.2c-.7-.3-1.6.4-2 1.6l-1.5 2.3c-1.9-.3-3.7-.2-5.5.1L15.6 2C15 .7 14.1 0 13.4.3l-3.2 1.4c-.6.3-.8 1.4-.3 2.5l.5 2.7C9 8 7.7 9.3 6.6 10.9l-2.7-.4c-1.1-.4-2.3-.3-2.5.4L.1 14.1c-.3.7.4 1.6 1.6 2L4 17.6c-.3 1.9-.2 3.7.1 5.5l-2.2 1.6C.8 25.2.1 26.1.4 26.8L1.8 30c.3.7 1.4.8 2.5.3l2.7-.5c1.1 1.5 2.4 2.8 4 3.8l-.4 2.7c-.4 1.1-.3 2.3.4 2.5l3.2 1.3c.7.3 1.6-.4 2-1.6l1.5-2.3c1.9.3 3.7.2 5.5-.1l1.6 2.2c.5 1.1 1.4 1.8 2.1 1.5l3.2-1.4c.7-.3.8-1.4.3-2.5l-.5-2.7c1.5-1.1 2.8-2.4 3.8-4l2.7.4c1.1.4 2.3.3 2.5-.4l1.3-3.2c.4-.4-.3-1.4-1.5-1.8zm-23.5 8.5C8.3 30 4.9 22.2 7.6 15.2c2.7-6.9 10.6-10.3 17.5-7.6 6.9 2.7 10.3 10.6 7.6 17.5-2.7 7-10.5 10.4-17.5 7.6z"/><path fill="#00A78E" d="M24.2 10c-5.6-2.2-12 .5-14.2 6.2-2.2 5.6.5 12 6.2 14.2 5.6 2.2 12-.5 14.2-6.2 2.2-5.6-.6-12-6.2-14.2zm-4.1 17.2c-3.9-.1-7-3.3-6.9-7.2.1-3.9 3.3-7 7.2-6.9 3.9.1 7 3.3 6.9 7.2-.1 3.9-3.3 7-7.2 6.9z"/></svg>