<svg xmlns="http://www.w3.org/2000/svg" width="167.7" height="222.2" viewBox="0 0 167.7 222.2"><path fill="#FFF" stroke="#00A78E" stroke-width="2.862" stroke-miterlimit="10" d="M159.7 115.9c-1.4-1.3-2.6-1.2-3.6-.4 1.2-30.2-1.8-62.8-16.3-77-18.5-18.2-59.1-15.9-74.9-15.2-15.8.7-50.7 6.3-50 75.4 0 2-.3 8-.4 16.1-1.5-2.7-3.5-4.3-6-2.1-6.9 6-6.2 31.7-3.9 41 1.7 6.6 10.5 13.9 14 10.6.2-.2.5-.6.6-1.1 2.3 9 5.7 17.2 10.7 23.5 11.2 14 26.8 27.5 35.8 29.6 14.8 3.5 24.4 6.1 37.4 3.3s32.2-16.4 44-42.7c.9-2 2.1-6.4 3.3-12.3.2 1.6.6 2.7 1.1 3.2 3.3 3.3 11.3-4.2 12.6-10.9 3.1-15 .7-36.4-4.4-41z"/><path fill="#00A78E" stroke="#FFF" stroke-width="2.383" stroke-miterlimit="10" d="M11.9 111s-13-33.6-10.4-47.1c2.6-13.5 9.3-25.6 33-47.1C50 2.7 77.4.3 80.5 3.8c4.6 5.3 12.6 7.6 18.4.8 5.8-6.7 26.2-2.4 23.6 3.1 10.9-6.3 18.5 5.4 18.5 5.4s41.1 5.2 18.7 111.7c-2 9.4-4.3 20-4.3 20-8.3.5-.9-12.4.4-51.6 1.8-54.1-48.5-42.3-67.1-44.4-22.5-2.5-60.3-5.5-67 23.6-6.8 29-3.7 68.1-3.7 68.1l-6.2 6.3V111z"/><path fill="#00A78E" d="M65.8 171s24.8 10.3 45 1.6c-2.8 6-29.9 20.7-45-1.6zm13.9-12.3s.6.1 1.5.3c1 .2 2.3.4 4 .6 1.6.2 3.6.4 5.4.2.9-.1 1.8-.4 2.2-.9.1-.1.1-.1.1-.2s.1-.1.1-.2v-.1.1-.2l.1-.4.1-.4v-.4l.1-.7c.1-1 .1-2.1.1-3.2s0-2.1-.1-3.2c-.1-2.1-.2-4-.3-5.7-.2-3.3-.3-5.6-.3-5.6s.8 2.1 1.6 5.4c.2.8.4 1.7.6 2.7.2 1 .4 2 .5 3 .1 1.1.3 2.1.3 3.3.1 1.1.1 2.3 0 3.5-.1.6-.2 1.4-.3 1.8l-.1.4v.3l-.1.3c-.1.2-.2.4-.3.5-.1.2-.2.3-.4.5-.5.6-1.2.9-1.9 1.1-.6.2-1.2.3-1.8.3-1.2.1-2.2-.1-3.2-.2-1-.2-1.9-.4-2.7-.7-1.6-.5-2.9-1.1-3.8-1.5-.9-.4-1.4-.7-1.4-.7zM64.5 122c0 3.8-3.1 6.9-7 6.9s-7-3.1-7-6.9 3.1-6.9 7-6.9 7 3.1 7 6.9"/><path fill="#FFF" d="M54.8 121.8c0 1.3-.7 2.4-1.6 2.4-.9 0-1.6-1.1-1.6-2.4 0-1.3.7-2.4 1.6-2.4.8 0 1.6 1.1 1.6 2.4"/><path fill="#00A78E" d="M111.8 122c0 3.8 3.1 6.9 7 6.9s7-3.1 7-6.9-3.1-6.9-7-6.9-7 3.1-7 6.9"/><path fill="#FFF" d="M117 121.8c0 1.3-.7 2.4-1.6 2.4-.9 0-1.6-1.1-1.6-2.4 0-1.3.7-2.4 1.6-2.4.8 0 1.6 1.1 1.6 2.4"/><path fill="#00A78E" d="M37.9 126.1l.4-.4c1.8-1.6 10.1-8.2 19.1-8.2 5.3 0 10.9 2.2 15.9 8.9l1.7-2c-5.5-7.3-11.8-9.8-17.6-9.8-11.3 0-20.8 9.1-20.9 9.1l1.4 2.4zm101.8-2.4c-.1-.1-9.6-9.1-20.9-9.1-5.8 0-12.1 2.5-17.6 9.8l1.7 2c5.1-6.7 10.6-8.9 15.9-8.9 5.2 0 10.1 2.1 13.7 4.3 1.8 1.1 3.3 2.2 4.3 3 .5.4.9.7 1.2 1l.4.4 1.3-2.5zM69.2 91.4s8.9 7.9 1.4 9.3c-7.5 1.4-19.7-1.2-25.2 0s-16.1 5.4-16.1 5.4l-.7-4.5s14.6-13.8 40.6-10.2zm37.2-7.2s-8.6 7.6-1.1 9.3c7.5 1.7 19.7-.5 25.2.9s16.3 6 16.3 6l.5-4.5c0-.1-15.1-14.4-40.9-11.7z"/></svg>