<svg xmlns="http://www.w3.org/2000/svg" width="131" height="65" viewBox="0 0 131 65"><path fill="#FFF" d="M128.7 1.8l-.7-.4c-.9 0-1.9-.2-2.3 1l-1.6 5c-.2.8-.6 1.5-1.2 2-.8.6-2 1.6-3 2.4-1.3 1-3 1.3-4.6.7l-2.8-1-4.8-1.4-3.7-6.3c-.8-3-1.9-3.3-3.6-1.9-.7.6-1.2 1.4-1.2 2.4l-.6 7.2c-.2.2-.5.3-.7.3l-52.3 19C38.9 32 34.8 32.2 23 32.6h-.6C23 30 8.3 30.2 4.1 42.2S1 63.6 1 63.6c.2 2.9 44.1-9.1 44.1-9.1l8.7-2.6 45.8-26.1c.3-.2 2.8-.7 3.2-.8l12.5-.5c.7-.1 3.5-1.7 4-2.3l8.5-10.3c.3-.3.4-.8.3-1.3l1.8-5.5c.4-1.2-.2-2.7-1.2-3.3"/><path fill="none" stroke="#00A78E" stroke-width="2" stroke-linecap="round" stroke-miterlimit="10" d="M1 63.6c.2 2.9 44.1-9.1 44.1-9.1l8.7-2.6 45.8-26.1c.3-.2 2.8-.7 3.2-.8l12.5-.5c.7-.1 3.5-1.7 4-2.3l8.5-10.3c.3-.3.4-.8.3-1.3l1.8-5.5c.4-1.2-.2-2.7-1.2-3.3"/><path fill="none" stroke="#00A78E" stroke-width="2" stroke-linecap="round" stroke-miterlimit="10" d="M128.7 1.8l-.7-.4c-.9 0-1.9-.2-2.3 1l-1.6 5c-.2.8-.6 1.5-1.2 2-.8.6-2 1.6-3 2.4-1.3 1-3 1.3-4.6.7l-2.8-1-4.8-1.4-3.7-6.3c-.8-3-1.9-3.3-3.6-1.9-.7.6-1.2 1.4-1.2 2.4l-.6 7.2c-.2.2-.5.3-.7.3l-52.3 19C38.9 32 34.8 32.2 23 32.6h-.6"/><path fill="#FFF" stroke="#00A78E" stroke-width="2" stroke-miterlimit="10" d="M126.2 5.8l-23 1.7c-.5 0-1-.4-1-.9l-.1-1c0-.5.4-1 .9-1l23-1.7c.5 0 1 .4 1 .9l.1 1c0 .5-.4.9-.9 1z"/></svg>