<svg xmlns="http://www.w3.org/2000/svg" width="26.1" height="41.7" viewBox="0 0 26.1 41.7"><path fill="#FFF" d="M2.6 7.7v29.5c0 .3.1.5.1.8 0 2 6.4 3.4 10.2 3.6 5.8.4 10.8-1.3 10.8-3.3V7.7H2.6z"/><path fill="#32CFB6" d="M25.6 1.8c0 1-5.6 1.8-12.6 1.8C6.1 3.5.5 2.7.5 1.8.5.8 6.1 0 13.1 0 20 0 25.6.8 25.6 1.8"/><path fill="#FFF" d="M13.1 3.5C6.1 3.5.5 2.7.5 1.8v7.5c0 1 5.6 1.8 12.6 1.8 6.9 0 12.6-.8 12.6-1.8V1.8c-.1.9-5.7 1.7-12.6 1.7"/><path fill="none" stroke="#00AB9F" stroke-miterlimit="10" d="M13.1 3.5C6.1 3.5.5 2.7.5 1.8v7.5c0 1 5.6 1.8 12.6 1.8 6.9 0 12.6-.8 12.6-1.8V1.8c-.1.9-5.7 1.7-12.6 1.7z"/><path fill="#00A78E" d="M20 22.5h-4.1v-4.1c0-.5-.4-.9-.9-.9h-3.8c-.5 0-.9.4-.9.9v4.1H6.2c-.5 0-.9.4-.9.9v3.8c0 .5.4.9.9.9h4.1v4.1c0 .5.4.9.9.9H15c.5 0 .9-.4.9-.9v-4.1H20c.5 0 .9-.4.9-.9v-3.8c-.1-.5-.5-.9-.9-.9"/></svg>