<svg xmlns="http://www.w3.org/2000/svg" width="222.9" height="610.6" viewBox="0 0 222.9 610.6">
  <path fill="#00BBA2" d="M101.2 268.9l-30.1-7.1-30.2 7.1h-.6v10.9H101v-10.9"/>
  <path fill="#00A78E" d="M3.7 345h18.6v23.7H3.7zm0-34.3h18.6v23.7H3.7zM45.3 345h18.5v23.7H45.3zm0-34.3h18.5v23.7H45.3zm58.3 90.5H88.9V382c0-3.2 3.3-5.8 7.4-5.8 4.1 0 7.3 2.6 7.3 5.8v19.2zM87 345h18.5v23.7H87zm0-34.3h18.5v23.7H87zm58.2 90.5h-14.7V382c0-3.2 3.3-5.8 7.4-5.8 4.1 0 7.3 2.6 7.3 5.8v19.2zM128.6 345h18.5v23.7h-18.5zm0-34.3h18.5v23.7h-18.5zm58.3 90.5h-14.7V382c0-3.2 3.3-5.8 7.4-5.8 4 0 7.3 2.6 7.3 5.8v19.2zM170.3 345h18.5v23.7h-18.5zm0-34.3h18.5v23.7h-18.5zm27.6 34.3h17.9v31.2h-17.9zm0-34.3h17.9v19.1h-17.9z"/>
  <path fill="#00A78E" d="M156 385.6c.3-.2.7-.2.9.1l.1.1c.2.3.1.7-.2.9l-13.1 9.4c-.3.2-.7.2-.9-.1v-.1c-.2-.3-.1-.7.2-.9l13-9.4z"/>
  <path fill="#55E1C8" d="M136.4 390.2c0 5.2-4.3 9.5-9.6 9.5s-9.6-4.3-9.6-9.5 4.3-9.5 9.6-9.5 9.6 4.2 9.6 9.5m33.9-7.3c0-5.5-4.5-10-10.2-10-5.6 0-10.2 4.5-10.2 10 0 2.6 1 5 2.7 6.8.6-.2 1.3-.3 2-.3 2.6 0 4.9 1.4 6.2 3.5 5.3-.3 9.5-4.6 9.5-10"/>
  <path fill="#55E1C8" d="M160.7 396c0 3.4-2.8 6.1-6.2 6.1-3.4 0-6.2-2.7-6.2-6.1 0-3.3 2.8-6.1 6.2-6.1 3.5 0 6.2 2.7 6.2 6.1m-3.8-23.1c-1.8-6.1-7.5-10.5-14.2-10.5-8.2 0-14.8 6.6-14.8 14.6 0 1.1.1 2.2.4 3.2 5 .9 8.7 5.1 8.8 10.3 1.8.7 3.7 1.1 5.7 1.1 3.2 0 6.1-1 8.5-2.6-1.2-1.7-1.9-3.8-1.9-6-.1-4.8 3.1-8.9 7.5-10.1"/>
  <path fill="#00A78E" d="M143.9 386.3c0-.8-.6-1.4-1.4-1.4h-.2c-.8 0-1.5.6-1.5 1.4v34h3.1v-34zm-1.1 14.3c.3.2.3.6 0 1l-.1.1c-.3.4-.7.5-1 .3l-12.2-8.6c-.3-.2-.3-.6 0-1l.1-.1c.3-.4.7-.5 1-.3l12.2 8.6z"/>
  <path fill="#00A78E" d="M152.7 397.7c.2-.2.6-.1.8.1l.1.1c.2.3.2.6 0 .8l-9.6 8.4c-.2.2-.6.1-.8-.1l-.1-.1c-.2-.3-.2-.6 0-.8l9.6-8.4z"/>
  <path fill="#00AB9F" d="M104.3 239.6h18.6v23.7h-18.6zm41.7 0h18.5v23.7H146z"/>
  <path fill="#FFF" d="M190.1 117.9s2-18.1 7.6-13c4.6 4.2 6.8 23.5 4 37-1.2 6-8.4 12.8-11.4 9.9-3-2.9-.2-33.9-.2-33.9m-120.7-3.1s-2.6-18-8.6-12.8c-6.3 5.5-5.6 28.7-3.5 37.1 1.5 6 9.5 12.6 12.7 9.6 3.2-3-.6-33.9-.6-33.9"/>
  <path fill="#FFF" d="M66.6 89.3c.1 6.3-4.1 57.3 13.7 79.6 10.1 12.7 24.3 24.9 32.4 26.8 13.4 3.1 22 5.5 33.8 3 11.8-2.5 29.1-14.9 39.8-38.6 5.1-11.3 18.9-100.1-6.7-125.3-16.8-16.5-53.5-14.4-67.8-13.7-14.2.6-45.8 5.7-45.2 68.2m18.5 521.3l-6.7-192h100l-2.2 192h-40.9V455c0-4.1-1.5-7.4-6-7.4-4.6 0-6 3.3-6 7.4v155.6H85.1z"/>
  <path fill="#00A78E" d="M154.4 110.4c0 3.5 2.8 6.3 6.3 6.3s6.3-2.8 6.3-6.3-2.8-6.2-6.3-6.2c-3.5-.1-6.3 2.7-6.3 6.2"/>
  <path fill="#00A78E" d="M179.6 112c-.1-.1-8.6-8.2-18.9-8.3-5.3 0-11 2.3-15.9 8.9l1.5 1.8c4.6-6.1 9.6-8 14.4-8 4.7 0 9.1 1.9 12.4 3.9 1.6 1 3 2 3.9 2.7.5.4.8.7 1.1.9l.3.3 1.2-2.2z"/>
  <path fill="#FFF" d="M159 110.3c0 1.2-.7 2.2-1.5 2.2s-1.5-1-1.5-2.2c0-1.2.7-2.2 1.5-2.2.9 0 1.5 1 1.5 2.2"/>
  <path fill="#00A78E" d="M111.6 110.4c0 3.5-2.8 6.3-6.3 6.3s-6.3-2.8-6.3-6.3 2.8-6.2 6.3-6.2c3.4-.1 6.3 2.7 6.3 6.2"/>
  <path fill="#00A78E" d="M87.5 114.2l.4-.3c1.7-1.5 9.1-7.5 17.3-7.4 4.8 0 9.8 2 14.4 8l1.5-1.8c-5-6.6-10.7-8.9-15.9-8.9-10.3 0-18.8 8.2-18.9 8.3l1.2 2.1z"/>
  <path fill="#FFF" d="M102.7 110.3c0 1.2-.7 2.2-1.5 2.2s-1.5-1-1.5-2.2c0-1.2.7-2.2 1.5-2.2.9 0 1.5 1 1.5 2.2"/>
  <path fill="#00A78E" d="M115.8 82.8s8.1 7.2 1.3 8.4c-6.8 1.3-17.8-1.1-22.8 0-4.9 1.1-14.6 4.9-14.6 4.9l-.6-4.1s13.2-12.5 36.7-9.2m33.7-6.6s-7.8 6.9-1 8.4 17.8-.5 22.8.8 14.7 5.4 14.7 5.4l.5-4c0-.1-13.6-13-37-10.6m-24.2 67.4s.5.1 1.4.2c.9.1 2.1.4 3.6.5 1.5.2 3.2.3 4.9.1.8-.1 1.6-.4 2-.8.1 0 .1-.1.1-.2s.1-.1.1-.2v-.1.1-.1l.1-.4c.2-.5.1-.9.2-1.3.1-.9.1-1.9.1-2.9s0-1.9-.1-2.9c-.1-1.9-.2-3.6-.3-5.1-.2-3-.3-5.1-.3-5.1s.8 1.9 1.5 4.9c.2.7.4 1.5.5 2.4.2.9.3 1.8.4 2.7.1 1 .3 1.9.3 3 .1 1 .1 2.1 0 3.1-.1.6-.1 1.2-.3 1.7l-.1.4v.2l-.1.2c-.1.3-.4.6-.6.9-.5.5-1.1.8-1.7 1-.6.2-1.1.2-1.6.3-1 .1-2-.1-2.9-.2-.9-.1-1.7-.4-2.4-.6-1.5-.4-2.7-1-3.5-1.3-.9-.2-1.3-.5-1.3-.5m-12.6 11.2s22.4 9.3 40.8 1.5c-2.6 5.3-27.1 18.6-40.8-1.5"/>
  <path fill="#00A78E" d="M64 100.5S52.2 70 54.6 57.9 63 34.7 84.5 15.2C98.5 2.5 123.3.3 126 3.4c4.2 4.8 11.4 6.9 16.7.8 5.2-6.1 23.7-2.2 21.4 2.8 9.9-5.7 16.8 4.8 16.8 4.8s37.2 4.7 16.9 101.1c-1.8 8.5-3.9 18.1-3.9 18.1-7.5.5-.8-11.2.4-46.7 1.6-49-43.9-38.3-60.7-40.2-20.4-2.3-54.6-4.9-60.7 21.3-6.1 26.3-3.3 61.6-3.3 61.6l-5.6 5.7v-32.2z"/>
  <path fill="none" stroke="#FFF" stroke-width="2.157" stroke-miterlimit="10" d="M64 100.5S52.2 70 54.6 57.9 63 34.7 84.5 15.2C98.5 2.5 123.3.3 126 3.4c4.2 4.8 11.4 6.9 16.7.8 5.2-6.1 23.7-2.2 21.4 2.8 9.9-5.7 16.8 4.8 16.8 4.8s37.2 4.7 16.9 101.1c-1.8 8.5-3.9 18.1-3.9 18.1-7.5.5-.8-11.2.4-46.7 1.6-49-43.9-38.3-60.7-40.2-20.4-2.3-54.6-4.9-60.7 21.3-6.1 26.3-3.3 61.6-3.3 61.6l-5.6 5.7v-32.2z"/>
  <path fill="#FFF" d="M117.3 200.1s.5 17.3-7.7 22c-7.3 4.3-10.6 5.2-10.6 5.2s35.8 14.3 64.5 2.7c-15.4-4.2-14.4-9.5-14.4-9.5l-2.7-17.9-29.1-2.5z"/>
  <path fill="none" stroke="#00A78E" stroke-width="2.59" stroke-miterlimit="10" d="M117.3 200.1s.5 17.3-7.7 22c-7.3 4.3-10.6 5.2-10.6 5.2s35.8 14.3 64.5 2.7c-15.4-4.2-14.4-9.5-14.4-9.5l-2.7-17.9-29.1-2.5z"/>
  <path fill="#FFF" d="M217.7 303.8l-35.9 8.3-3.9-17 4.1 41.5c.5 7.1.8 30-.8 50.7l-3.5 27.6h-98L76 382.5c-1.1-17.1.1-42.5.7-49l5.7-38.7-4.7 15.9-34.3-8.1s3.6-12.6 16-39.2c12.3-26.7 39.7-36 39.7-36l33 5.3 31.5-2.5s29.2 7.3 41.5 34 12.3 39.5 12.3 39.5"/>
  <path fill="none" stroke="#00A78E" stroke-width="2.157" stroke-miterlimit="10" d="M217.7 303.8l-35.9 8.3-3.9-17 4.1 41.5c.5 7.1.8 30-.8 50.7l-3.5 27.6h-98L76 382.5c-1.1-17.1.1-42.5.7-49l5.7-38.7-4.7 15.9-34.3-8.1s3.6-12.6 16-39.2c12.3-26.7 39.7-36 39.7-36l33 5.3 31.5-2.5s29.2 7.3 41.5 34 12.3 39.5 12.3 39.5"/>
  <path fill="#FFF" d="M194.2 449.1c-1 0-2-.4-2.7-1l-.8-.8-.2-.5c-.2-.8-.8-2.3.8-3.4l4.4-2.9c.6-.3 1-.8 1.2-1.2l1.5-3.5c.5-1.2.4-2.5-.4-3.6l-.8-1.2-6.9 9h-.5c-1.7 0-2.8-.5-3.4-1.5-.8-1.3-.6-3.1.7-5.8l5.3-17.3c.1-.2.1-.3.1-.5l4.5-55.4c-.4-3.1-1.4-7.3-2.8-12.5-.1-.2-.1-.4-.1-.5-3.6-11.6-9.5-31.5-8.1-33.9.2-.3.5-.6.9-.6l27.9-5.5h.2c1.3 0 2.7 0 5 23.4 1.1 11.1 1.8 22.4 1.8 22.5l-.2 9.3-13 51.3c0 .3.1 2.5.1 2.8l2.8 12.1c.2 1.2-.7 4.5-1.3 5.4l-7.6 11c-.4.5-.9.9-1.6 1.1l-4.7 3.1c-.5.4-1.3.6-2.1.6"/>
  <path fill="#00A78E" d="M215 307.6c2.8 0 5.7 44.9 5.7 44.9l-.2 9.1-12.9 51.2c-.1.4.1 2.9.1 3.2l2.8 12.2c.1.7-.7 3.8-1.2 4.5l-7.6 11c-.3.4-.7.6-1.1.7l-4.8 3.2c-.5.3-1 .5-1.6.5-.7 0-1.4-.3-1.9-.7l-.6-.6c-.3-.8-.7-1.7.4-2.5l4.4-2.9c.8-.4 1.3-1 1.6-1.7.4-.9 1-2.3 1.5-3.5.7-1.5.5-3.2-.5-4.6l-1.7-2.4-6.4 8.3-1.1 1.4h-.1c-3.6 0-3.1-2.8-1.7-5.8l5.3-17.3c.1-.3.1-.5.1-.8l4.6-55.5c-.8-5.5-2.9-13-2.9-13.3 0 0-10.2-32.7-8-33.1l27.8-5.5m0-2.1h-.5l-27.8 5.5c-.7.1-1.2.5-1.6 1.1-.6 1-1.3 2.2 3.4 19.1 2.1 7.7 4.5 15.2 4.6 15.7 0 .1.1.3.1.5 1.4 5.1 2.3 9.2 2.7 12.3l-4.5 55.2v.3l-5.2 17.2c-.9 1.9-1.9 4.6-.6 6.7.6.9 1.8 2 4.2 2h1.1l.6-.8 1.1-1.4 4.6-6c.6.8.7 1.7.3 2.5l-1.5 3.5c-.1.2-.4.5-.7.7h-.2l-4.4 2.9c-2.3 1.6-1.6 3.8-1.3 4.7l.1.2.2.5.4.4.6.6c.9.8 2.1 1.3 3.4 1.3 1 0 2-.3 2.8-.8l4.5-3.1c.8-.3 1.5-.8 2-1.4l7.6-11c.7-1 1.7-4.7 1.5-6v-.2l-2.8-12.1c0-.4-.1-2-.1-2.5l12.9-51 .1-.2v-.2l.2-9.1v-.2c0-.1-.7-11.4-1.8-22.5-.6-6.6-1.3-11.8-1.9-15.6-.9-6.2-1.7-8.8-4.1-8.8"/>
  <path fill="#FFF" d="M123.1 610.3s-2.1-16.2-35.2-14.7c-33.1 1.4-35.7 12.1-36.9 15m156.4-.3s-2.1-16.2-35.2-14.7c-33.1 1.4-35.7 12.1-36.9 15M12.6 271.9l36.6-13.4-7.2-16.9s-15.1-23.6-2.6-41.2c3.7-5.3 14-13.7 25.8.1.6.7 1.4 1.5 1.9 2.5 9.4 20.3 6.3 27.9 6.5 36.8.2 11.6 2.6 19.9 10.4 28.6 6.7 7.5 11.7 24.7 5.2 39.9 0 0-1 31-6.2 31.8l-67.5-16.2"/>
  <path fill="#00A78E" d="M12.6 271.9l9.1-3.6 9.1-3.5 18.2-7-.5 1.1c-2.5-5.6-4.9-11.2-7.4-16.8l.1.2c-2.2-3.5-3.8-7.1-5.2-10.9-1.3-3.8-2.3-7.7-2.7-11.8-.3-4.1-.1-8.2 1.2-12.2.6-2 1.4-3.9 2.5-5.7.5-.9 1.1-1.8 1.7-2.6.7-.9 1.4-1.7 2.1-2.4 1.5-1.5 3.2-2.8 5.2-3.7 2-.9 4.2-1.5 6.4-1.4 2.3 0 4.5.7 6.4 1.6 1.9 1 3.7 2.3 5.2 3.7.8.7 1.5 1.4 2.2 2.2l1 1.1c.3.4.7.8 1.1 1.3.2.3.4.5.5.9l.2.4.2.3.6 1.3 1.2 2.7c1.5 3.7 2.8 7.5 3.8 11.5.9 4 1.4 8.1 1.2 12.1 0 2-.2 4-.2 5.9-.1 1.9-.1 3.8 0 5.7.2 3.8.7 7.6 1.8 11.2 1.1 3.6 2.8 6.9 5 10 .5.8 1.1 1.5 1.7 2.2l1.9 2.2c1.4 1.7 2.5 3.4 3.4 5.3 1.9 3.7 3.1 7.6 3.9 11.7 1.5 8 .8 16.5-2.5 24.1l.1-.6c-.1 2.8-.3 5.6-.5 8.3-.2 2.8-.5 5.5-.9 8.3-.4 2.8-.8 5.5-1.4 8.3-.3 1.4-.7 2.8-1.2 4.2-.3.7-.6 1.4-1 2.1-.2.4-.5.7-.9 1.1-.4.3-.9.7-1.6.8h-.3l-.2-.1-17.1-4.3c-5.6-1.4-11.2-2.9-16.8-4.3l-16.8-4.4c-5.6-1.4-11.2-3-16.8-4.5 5.7 1.2 11.3 2.4 17 3.6l17 3.7c5.7 1.2 11.3 2.5 16.9 3.8l16.9 3.8h-.5s.4-.2.7-.7c.3-.5.5-1 .8-1.6.4-1.2.8-2.5 1-3.8.6-2.6.9-5.3 1.2-8.1.3-2.7.5-5.4.7-8.2.2-2.7.3-5.5.4-8.2v-.3l.1-.3c2.9-6.9 3.5-14.8 2-22.2-.7-3.7-1.9-7.3-3.6-10.6-.8-1.6-1.9-3.2-3-4.6l-2-2.3c-.6-.8-1.3-1.6-1.9-2.4-2.4-3.3-4.3-7.1-5.5-11-1.2-4-1.8-8-2-12.1-.1-1.9-.1-4.1 0-6.1s.2-3.9.3-5.8c.1-3.8-.3-7.6-1.1-11.3-.8-3.7-2.1-7.4-3.5-10.9-.3-.9-.7-1.8-1.1-2.7-.4-.8-.8-2-1.1-2.4-.2-.3-.5-.6-.8-1l-1-1.1c-.6-.7-1.3-1.4-1.9-2-2.7-2.5-5.9-4.4-9.3-4.5-3.4-.1-6.7 1.6-9.3 4.1-.6.6-1.3 1.3-1.8 2-.3.4-.5.7-.8 1.1-.2.4-.5.8-.8 1.2-1 1.6-1.7 3.3-2.3 5-1.2 3.5-1.5 7.3-1.3 11.1.3 3.8 1.1 7.5 2.3 11.2 1.2 3.6 2.8 7.2 4.7 10.5l.1.1v.1c2.3 5.7 4.6 11.3 6.9 17l.3.8-.8.3-18.5 6.5-9.2 3.2-9.2 3.1z"/>
  <path fill="#FFF" d="M35.2 264.9s-25.8 6.8-28 10.3c0 0-10.8 14.1 2 21.1 0 0-2.4-4.1-8.6 8.4 0 0-4.5 13.5 9.6 20l-9.8-6s1.2 33.6 9.7 32.7c0 0-3.4 12.3 11.8 17.5 0 0 30.8 13.4 57.2 0 0 0 8.7-6.1 0-18.6 0 0 12.6-6.9-1.3-23.4 0 0 7.8-10.4.4-22.5 0 0 11.3-15.2-10.4-31.2l-32.6-8.3zm-20 100.3s31.4 24.7 63 7c0 0 9.4-9.1 1.9-20.8"/>
  <path fill="#00A78E" d="M15.2 365.2c1.2.7 2.4 1.4 3.7 2 1.2.6 2.5 1.3 3.7 1.9 1.3.6 2.5 1.1 3.8 1.7l3.9 1.5c2.6.9 5.2 1.8 7.9 2.4 1.3.3 2.6.6 4 .9 1.3.3 2.7.5 4 .6 2.7.3 5.4.5 8.1.5 1.3 0 2.7-.1 4-.2 1.3-.1 2.7-.3 4-.5 2.7-.4 5.3-1.1 7.8-2 1.3-.4 2.5-.9 3.8-1.5 1.2-.5 2.5-1.1 3.7-1.7l-.3.2c.2-.2.6-.6.8-.9.3-.3.6-.7.8-1 .5-.7 1-1.5 1.4-2.2.9-1.5 1.5-3.2 1.7-5 .1-.4.1-.9.2-1.3 0-.4.1-.9 0-1.3 0-.4 0-.9-.1-1.4 0-.5-.1-.9-.2-1.4-.2-.9-.4-1.8-.7-2.7-.1-.5-.3-.9-.5-1.3s-.4-.9-.6-1.3c.3.4.6.8.8 1.1.3.4.5.8.8 1.2.5.8.9 1.7 1.2 2.6.7 1.8 1 3.8.9 5.9-.1 2-.6 4-1.4 5.9-.4.9-.9 1.8-1.4 2.7-.3.4-.6.9-.9 1.3-.3.4-.6.8-1 1.2l-.1.1-.2.1c-1.2.7-2.5 1.5-3.8 2.1-1.3.6-2.6 1.2-4 1.7-1.3.5-2.7 1-4.1 1.4-1.4.4-2.8.7-4.2 1-2.8.5-5.8.8-8.6.8-1.4 0-2.9 0-4.3-.2-1.4-.1-2.9-.3-4.3-.5-2.8-.5-5.6-1.2-8.4-2-2.7-.9-5.4-1.9-7.9-3.2-1.3-.6-2.5-1.3-3.8-2-1.2-.7-2.4-1.4-3.6-2.2-2.2-1.3-4.5-3-6.6-5"/>
  <path fill="#FFF" d="M16.9 271.2s33.8-6.1 58.5 6.5c0 0 16.5 18.2 0 26.9 0 0-31.2 1.3-46.8-3.9"/>
  <path fill="#00A78E" d="M16.9 271.2c2.4-.6 4.9-1 7.4-1.4 1.2-.2 2.5-.3 3.7-.5 1.2-.2 2.5-.2 3.7-.3 1.2-.1 2.5-.2 3.8-.2 1.3-.1 2.5-.1 3.8-.1h3.8c1.3 0 2.5 0 3.8.1l3.8.3c1.3.1 2.5.3 3.8.5l1.9.2 1.9.4c1.2.3 2.5.4 3.7.8l3.7 1c1.2.3 2.4.8 3.6 1.2 1.2.4 2.4.8 3.6 1.4l3.5 1.6.3.1.2.3c.5.6.9 1.1 1.4 1.6.4.5.8 1.1 1.2 1.7.8 1.1 1.5 2.3 2.2 3.5.3.6.7 1.2.9 1.9.3.6.6 1.3.8 2 .2.7.5 1.4.6 2.1.2.7.3 1.4.4 2.1.1.7.2 1.5.2 2.2 0 .8-.1 1.5-.2 2.3l-.2 1.1c-.1.4-.2.7-.3 1.1-.1.4-.3.7-.4 1.1-.1.4-.3.7-.5 1-.4.7-.9 1.3-1.3 1.9-.5.5-1 1.1-1.6 1.6-.6.5-1.2.9-1.8 1.3-.6.4-1.2.7-1.9 1.1l-.3.2h-6.3c-2 0-4-.1-5.9-.1-3.9-.1-7.9-.3-11.8-.8-1-.1-2-.2-2.9-.3-1-.1-2-.2-2.9-.3l-2.9-.4c-1-.1-1.9-.3-2.9-.5s-1.9-.4-2.9-.6c-1-.2-1.9-.4-2.9-.7-1-.3-1.9-.5-2.8-.8l-2.8-1 2.9.6c1 .2 1.9.3 2.9.5s1.9.3 2.9.4c1 .1 1.9.2 2.9.3 1 .1 1.9.2 2.9.2l2.9.2 2.9.1c1 0 2 .1 2.9.1 2 .1 3.9.1 5.9.1h5.9l5.9-.1c1.9-.1 3.9-.1 5.8-.2l-.7.2c.5-.3 1.1-.6 1.5-1 .5-.4 1-.7 1.4-1.1.5-.4.8-.8 1.2-1.2.3-.5.7-.9.9-1.4.1-.2.3-.5.4-.7.1-.3.2-.5.3-.8.1-.3.2-.5.2-.8l.2-.8c.1-.6.1-1.1.1-1.7 0-.6 0-1.1-.1-1.7-.3-2.3-1.3-4.6-2.5-6.8-.6-1.1-1.2-2.2-2-3.2-.4-.5-.7-1-1.1-1.5-.4-.5-.8-1-1.2-1.4l.5.4-3.3-1.5c-1.1-.5-2.2-.9-3.4-1.4-1.1-.4-2.2-.9-3.4-1.2l-3.5-1c-1.2-.3-2.4-.6-3.6-.8l-1.8-.4-1.8-.3c-1.2-.2-2.4-.5-3.6-.6l-3.7-.5c-1.2-.2-2.4-.2-3.7-.4-1.2-.1-2.5-.2-3.7-.3-1.2-.1-2.5-.2-3.7-.2-1.2 0-2.5-.1-3.7-.1h-3.7c-1.2 0-2.5 0-3.7.1-1.2 0-2.5.1-3.7.2-1.5-.2-2.8-.1-4 0"/>
  <path fill="#FFF" d="M77.5 307.2s6.1 13 0 21.7c0 0-17.2 10-52.8-2.6"/>
  <path fill="#00A78E" d="M77.5 307.2c.5.8.9 1.7 1.3 2.5.4.9.7 1.8 1.1 2.7.3.9.6 1.8.8 2.8.1.5.2.9.3 1.4l.2 1.5c0 .5.1 1 .1 1.5.1.5 0 1 0 1.5s0 1-.1 1.5-.1 1-.2 1.5l-.4 1.5c-.1.5-.3 1-.5 1.5s-.4 1-.6 1.4c-.2.5-.5.9-.8 1.4l-.2.3-.4.2c-1.2.7-2.2 1.1-3.4 1.5-1.1.4-2.2.8-3.4 1.1-1.1.3-2.3.5-3.4.8-1.2.2-2.3.3-3.5.5-1.2.1-2.3.2-3.5.3h-3.5c-1.2 0-2.3-.1-3.5-.1-.6 0-1.2-.1-1.7-.1l-1.7-.2c-1.1-.2-2.3-.3-3.4-.4-1.1-.2-2.3-.4-3.4-.6-.6-.1-1.1-.2-1.7-.3l-1.7-.4-3.3-.9c-1.1-.3-2.2-.7-3.3-1.1l-3.2-1.1c-2.1-.9-4.2-1.8-6.2-2.8 2.2.4 4.4.9 6.6 1.4l3.3.6c1.1.2 2.2.5 3.3.6 1.1.2 2.2.3 3.3.5l1.6.3c.6.1 1.1.1 1.7.2 1.1.1 2.2.2 3.3.4 1.1.1 2.2.2 3.3.2l1.7.1h1.7c1.1 0 2.2.1 3.3.1l3.3-.1c1.1-.1 2.2-.2 3.3-.2 1.1-.1 2.2-.3 3.2-.4 1.1-.2 2.1-.4 3.2-.6 1.1-.2 2.1-.5 3.1-.8.5-.2 1-.3 1.5-.5s1-.4 1.4-.6l-.5.5c.2-.4.4-.7.7-1 .3-.3.4-.7.6-1.1.2-.4.4-.7.5-1.2l.4-1.2c.1-.4.2-.8.3-1.3.1-.4.2-.9.2-1.3.1-.4.1-.9.1-1.3l.1-1.3v-1.4c0-.5 0-.9-.1-1.4l-.3-2.7c-.1-.9-.3-1.8-.5-2.7.1-1.4-.1-2.3-.4-3.2"/>
  <path fill="#FFF" d="M80.2 330.6s10.1 10.8 0 20.8c0 0-15.6 11.3-53.4 0"/>
  <path fill="#00A78E" d="M80.2 330.6c.7.6 1.4 1.4 2 2.2l.9 1.2c.3.4.5.8.8 1.3.3.4.4.9.7 1.4.2.5.4.9.5 1.4.2.5.3 1 .4 1.5.1.5.2 1 .2 1.5s.1 1 .1 1.6l-.1 1.6c-.1.5-.2 1-.3 1.6-.1.5-.3 1-.5 1.5s-.4 1-.7 1.5l-.8 1.4c-.2.5-.6.8-.9 1.3l-1 1.2-.1.1-.1.1c-.6.4-1.1.7-1.7 1-.5.3-1.1.5-1.6.8l-1.7.7c-.6.2-1.1.4-1.7.6-1.1.4-2.3.6-3.4 1-1.2.2-2.3.5-3.5.7-1.2.2-2.3.4-3.5.4l-3.5.2h-3.5c-1.2 0-2.3-.1-3.5-.2-1.2-.1-2.3-.1-3.5-.3-1.2-.1-2.3-.3-3.4-.5-1.2-.1-2.3-.4-3.4-.7-1.1-.2-2.3-.5-3.4-.7-2.2-.6-4.4-1.2-6.6-1.9-2.2-.8-4.3-1.6-6.4-2.5 2.3.3 4.5.7 6.8 1.1l3.2.3 3.4.5c1.1.1 2.2.2 3.4.4 1.1.1 2.2.3 3.4.3 1.1.1 2.2.1 3.4.2 1.1.1 2.2.1 3.4.1 1.1 0 2.2.1 3.3 0l3.3-.1 3.3-.3 3.3-.4c1.1-.2 2.2-.4 3.2-.6 1.1-.3 2.1-.5 3.2-.8.5-.2 1-.3 1.6-.5l1.5-.5 1.5-.6c.5-.2 1-.5 1.3-.7l-.2.2c.3-.3.6-.6.9-1 .3-.3.7-.6.9-1l.8-1.1c.3-.3.4-.8.6-1.1.2-.4.4-.8.5-1.2.1-.4.3-.8.4-1.2l.2-1.3c.1-.4.1-.9.1-1.3v-1.3c0-.5-.1-.9-.2-1.4-.1-.4-.1-.9-.3-1.4-.1-.4-.2-.9-.4-1.3s-.3-.9-.5-1.3-.4-.9-.6-1.3c-.5-.8-.9-1.6-1.5-2.4m-42.1-99.4s-.1.9.1 2.3c.1.3.1.7.3 1.1.1.4.3.8.4 1.2.2.4.4.8.6 1.1l.4.5.4.5c.3.4.7.6 1 .9.4.2.7.4 1.1.7.4.2.7.3 1.1.5.3.2.7.3 1 .4l.9.3c.3.1.5.1.7.2.4.1.6.2.6.2v.1h-.6c-.4 0-1 0-1.7-.1-.4-.1-.7-.1-1.1-.3-.4-.1-.8-.3-1.2-.5-.4-.3-.8-.5-1.2-.8-.3-.4-.7-.6-1-1l-.4-.6-.4-.6c-.3-.4-.4-.9-.6-1.3-.1-.4-.3-.8-.3-1.2-.1-.4-.1-.8-.2-1.1-.2-1.6 0-2.5.1-2.5zm35.8-5.5s.3.9.5 2.2c.1.7.2 1.4.2 2.3 0 .8-.1 1.8-.3 2.6-.1.4-.3.9-.4 1.3l-.6 1.2c-.3.3-.5.7-.9.9-.3.3-.6.5-.9.7-.3.2-.6.3-.9.4-.3.1-.5.1-.7.2-.4.1-.6.1-.6.1v-.1s.2-.1.5-.3l.6-.3c.2-.2.4-.3.7-.5.3-.2.5-.4.7-.7.3-.2.5-.6.7-.9.3-.3.4-.7.6-1 .2-.4.3-.8.5-1.2.2-.8.4-1.7.5-2.5 0-.4 0-.8.1-1.2v-1.1c-.2-1.2-.4-2.1-.3-2.1zM67.8 284s.9.9 1.8 2.6c.5.8.9 1.9 1.2 3 .2.6.3 1.2.4 1.8.1.6.2 1.3.2 1.9 0 .6 0 1.3-.1 1.9 0 .3-.1.6-.1.9-.1.3-.1.6-.2.9-.1.6-.3 1.1-.6 1.6-.1.3-.2.5-.3.7-.1.2-.3.4-.4.6-.3.4-.5.8-.7 1.1-.2.3-.5.5-.7.7l-.6.6s.1-.3.4-.8c.1-.2.3-.5.4-.9.2-.3.3-.7.4-1.2.1-.2.2-.4.2-.7.1-.2.1-.5.2-.7.1-.5.3-1 .3-1.6 0-.3.1-.5.1-.8 0-.3 0-.6.1-.9.1-.6 0-1.2 0-1.7 0-.6-.1-1.2-.1-1.8-.1-.6-.2-1.1-.3-1.7-.1-.5-.2-1.1-.4-1.6-.1-.5-.3-1-.4-1.4-.3-1.3-.8-2.5-.8-2.5m-1.5 26.6s.9.7 1.7 2.2c.4.7.9 1.6 1.2 2.6.2.5.3 1 .4 1.6.1.6.2 1.1.2 1.7 0 .6 0 1.2-.1 1.7 0 .6-.2 1.1-.3 1.6-.1.5-.4 1-.6 1.4l-.3.6c-.1.2-.3.4-.4.5-.3.3-.5.7-.7.9l-.6.6c-.4.3-.6.5-.6.5s.1-.3.4-.7c.1-.2.3-.5.4-.7.2-.3.3-.6.4-1 .2-.4.3-.8.4-1.2.1-.4.3-.9.4-1.4 0-.2.1-.5.1-.7 0-.2 0-.5.1-.8 0-.3.1-.5.1-.8v-.8c0-.5-.1-1-.1-1.5l-.3-1.5c-.1-.5-.2-.9-.4-1.4-.1-.4-.3-.8-.4-1.2-.5-1.2-1-2.2-1-2.2"/>
  <path fill="#00A78E" d="M74.9 335.4s.9.7 1.7 2.2c.4.7.9 1.6 1.2 2.6.2.5.3 1 .4 1.6.1.6.2 1.1.2 1.7 0 .6 0 1.2-.1 1.7 0 .6-.2 1.1-.3 1.6-.1.5-.4 1-.6 1.4l-.3.6c-.1.2-.3.4-.4.5-.3.3-.5.7-.7.9l-.6.6c-.4.3-.6.5-.6.5s.1-.3.4-.7c.1-.2.3-.5.4-.7.2-.3.3-.6.4-1 .2-.4.3-.8.4-1.2.1-.4.3-.9.4-1.4 0-.2.1-.5.1-.7 0-.2 0-.5.1-.8 0-.3.1-.5.1-.8v-.8c0-.5-.1-1-.1-1.5l-.3-1.5c-.1-.5-.2-.9-.4-1.4-.1-.4-.3-.8-.4-1.2-.5-1.2-1-2.2-1-2.2m-4.2 28.5s.7.4 1.6 1.3c.2.2.4.5.6.8.2.3.4.6.6 1 .2.3.3.8.5 1.2.1.4.2.8.2 1.3v.7l-.1.6c0 .4-.3.8-.4 1.2-.1.4-.4.7-.6 1-.2.3-.5.5-.7.8-.2.2-.4.4-.7.5-.2.1-.4.3-.5.4-.3.2-.5.3-.5.3s.1-.2.3-.4c.1-.1.2-.3.4-.5s.3-.4.5-.7c.1-.3.4-.5.5-.8.1-.3.3-.6.4-.9.1-.3.2-.7.2-1l.1-.5v-.5c0-.4-.1-.7-.1-1.1-.1-.3-.2-.7-.3-1-.1-.3-.3-.7-.4-.9-.1-.3-.3-.6-.4-.8-.7-1.3-1.2-2-1.2-2"/>
</svg>