<svg xmlns="http://www.w3.org/2000/svg" width="142" height="54.8" viewBox="0 0 142 54.8"><path fill="#FFF" d="M62.7 45.4h24.9v9.4H62.7z"/><path fill="#00AB9F" d="M140.2 51.1V23.9h1.1v-1.6h.6l-4-2.9H12.4l-4 2.9H9v1.6h1.1v27.2H8.3v3.7h55.6v-5.7c0-1.4 1.2-2.5 2.8-2.5 1.5 0 2.8 1.1 2.8 2.5v5.7h3v-5.7c0-1.4 1.2-2.5 2.8-2.5 1.5 0 2.8 1.1 2.8 2.5v5.7h3v-5.7c0-1.4 1.2-2.5 2.8-2.5 1.5 0 2.8 1.1 2.8 2.5v5.7h55.6v-3.7h-2.1z"/><path fill="#00AB9F" d="M40.1 16.6l-7.6-1.8-7.6 1.8h-.1v2.8H40v-2.8m85.5 0l-7.5-1.8-7.6 1.8h-.2v2.8h15.3v-2.8m-31-3.6c-2-5.9-9.6-10.3-18.9-10.5V0h-1.1v2.6c-9.1.1-16.7 4.6-18.7 10.4h.1v7h38.6v-7z"/><path fill="#FFF" d="M19.8 49.8h-3.7V45c0-.8.8-1.4 1.8-1.4s1.8.6 1.8 1.4v4.8zm-4.2-14.1h4.7v6h-4.7zm0-8.6h4.7v6h-4.7zm14.6 22.7h-3.7V45c0-.8.8-1.4 1.8-1.4s1.8.6 1.8 1.4v4.8zM26 35.7h4.7v6H26zm0-8.6h4.7v6H26zm14.7 22.7H37V45c0-.8.8-1.4 1.8-1.4s1.8.6 1.8 1.4v4.8zm-4.2-14.1h4.7v6h-4.7zm0-8.6h4.7v6h-4.7zm14.6 22.7h-3.7V45c0-.8.8-1.4 1.8-1.4s1.8.6 1.8 1.4v4.8zm-4.2-14.1h4.7v6h-4.7zm0-8.6h4.7v6h-4.7zm14.7 22.7h-3.7V45c0-.8.8-1.4 1.8-1.4s1.8.6 1.8 1.4v4.8zm-4.2-14.1h4.7v6h-4.7zm0-8.6h4.7v6h-4.7zm6.9 8.6h4.5v7.8h-4.5zm0-8.6h4.5v4.8h-4.5zm8.6 8.6h4.5v7.8h-4.5zm0-8.6h4.5v4.8h-4.5zm8.6 8.6H86v7.8h-4.5zm0-8.6H86v4.8h-4.5zm10.9 22.7h-3.7V45c0-.8.8-1.4 1.8-1.4s1.8.6 1.8 1.4v4.8zm-4.2-14.1h4.7v6h-4.7zm0-8.6h4.7v6h-4.7zm14.7 22.7h-3.7V45c0-.8.8-1.4 1.8-1.4s1.8.6 1.8 1.4v4.8zm-4.2-14.1h4.7v6h-4.7zm0-8.6h4.7v6h-4.7zm14.6 22.7h-3.7V45c0-.8.8-1.4 1.8-1.4s1.8.6 1.8 1.4v4.8zm-4.1-14.1h4.7v6h-4.7zm0-8.6h4.7v6h-4.7zm14.6 22.7h-3.7V45c0-.8.8-1.4 1.8-1.4s1.8.6 1.8 1.4v4.8zm-4.2-14.1h4.7v6h-4.7zm0-8.6h4.7v6h-4.7zm14.6 22.7h-3.7V45c0-.8.8-1.4 1.8-1.4s1.8.6 1.8 1.4v4.8zm-4.1-14.1h4.7v6h-4.7zm0-8.6h4.7v6h-4.7zM86 15c0 .4-.3.7-.7.7H65c-.4 0-.7-.3-.7-.7v-3.5c0-.4.3-.7.7-.7h20.3c.4 0 .7.3.7.7V15z"/><path fill="#00AB9F" d="M.3 48.5l-.3.1"/></svg>