<svg xmlns="http://www.w3.org/2000/svg" width="563.7" height="521.9" viewBox="0 0 563.7 521.9">
  <path fill="#FFF" d="M323 195.7c6.1-7 24.8-7.7 24.8-7.7l31.5 2.2 31.4-2.2s19.2.7 25.3 7.7c6.1 7 4.1 97.5 4.1 97.5l-3.3 58.4s5.5 12 5 14.5-4.8 12.1-8.7 15.3c-3.9 3.2-10.4 4.9-8.8 2.4 1.7-2.5 1.9-1.4 5.2-4.5 3.5-3.3 4.3-5 3.7-8.8-.6-3.8 0-3.6-3.5-4.3-5.5-1.1-2.2 10.1-4.4 8.2-2.2-1.9-1.4-5.9-.8-11.3.5-5.1 2.6-8.3 5.4-9.5 2.8-1.3-8.1-63.6-8.1-63.6l-7.5-54.7c-.9 20-4.9 19-5.5 25.2-1.4 17.2 5.4 54.2 3.7 54.5-3 .6-69.4 4.2-71.8 3.2-2.7-1.1 6-37.1 4.6-59.9-.4-6-5.6-8.3-4.7-25.8"/>
  <path fill="#FFF" d="M415.6 337.4l-1.7-17.6s-.2-2.3-1.2-7.8c-.1-.6-.8-3-.8-3l-62.5-5 66.2 33.4zm-239.8-87.3c-16.2-1.1-35.9-2.8-37.6-5-.3-.4-.4-.8-.3-1.2l4.5-22.7c.1-.5.5-1.3 2-1.3 4.5 0 24.4 6.1 26.7 6.9.1 0 .2.1.4.1 4.2 1.1 7.6 1.9 10.1 2.2l45.2-3.7c.1 0 .3 0 .3-.1l14.1-4.3c1.4-.6 2.5-1 3.4-1 1.1 0 1.8.4 2.1.8.6.6.9 1.6.9 2.8v.6l-1.6 1.2-5.4 4.2.5.4c.5.3 1 .5 1.5.5.3 0 .7-.1 1-.2l2.9-1.2c.3-.1.6-.4.8-.8l2.4-3.6c.6-.9 1.4-1.1 2-1.1.5 0 .9.1 1.3.3l.5.2.7.7c1.1 1.2 1.3 3.1.4 4.5l-2.5 3.8c-.2.6-.5 1.1-1 1.4l-9 6.2c-.8.6-3.4 1.2-4.3 1.2h-.4l-9.9-2.3c-.3 0-1.4-.1-2-.1h-.2l-41.9 10.6h-7.6z"/>
  <path fill="#00A78E" d="M144.4 221.1c4.5 0 26.3 6.8 26.3 6.8.2 0 6.3 1.8 10.8 2.4l45.4-3.7c.2 0 .4 0 .6-.1l14.2-4.3c1.1-.5 2.1-.9 2.9-.9 1.1 0 1.8.6 1.8 2.3l-1.1.9-6.8 5.2 2 1.4c.7.5 1.5.7 2.3.7.5 0 1-.1 1.5-.3 1-.4 2.1-.9 2.9-1.2.6-.2 1-.7 1.4-1.3l2.3-3.6c.3-.4.6-.5.9-.5.4 0 .7.1 1.1.3l.5.5c.7.7.8 2 .2 2.9l-2.7 3.9c-.1.4-.3.7-.6.9l-9 6.2c-.5.3-2.8.9-3.5.9h-.1l-9.9-2.3c-.2 0-1.5-.1-2.2-.1h-.4l-41.8 10.6-7.4.2s-37.2-2.4-36.7-4.7l4.5-22.7c-.1-.3.2-.4.6-.4m0-2.5c-2.6 0-3.2 1.8-3.3 2.3l-4.5 22.8c-.2.8 0 1.6.5 2.3.9 1.1 1.8 2.3 20.8 4.1 8.9.8 17.7 1.4 17.8 1.4h.2l7.4-.2h.3l.3-.1 41.6-10.5c.5 0 1.4.1 1.8.1l9.8 2.3h.7c1.1 0 4-.7 5-1.4l9-6.2c.7-.5 1.2-1.1 1.4-1.9l2.4-3.6c1.3-1.9 1-4.5-.5-6.1l-.5-.5-.5-.5-.6-.2-.2-.1c-.4-.1-1-.3-1.7-.3-1.1 0-2.1.5-2.8 1.3 0-1.5-.4-2.8-1.3-3.6-.5-.5-1.5-1.2-3.1-1.2-1.1 0-2.4.3-3.9 1l-14 4.3h-.1l-45.1 3.7c-2.4-.4-5.7-1.1-9.8-2.2-.1 0-.3-.1-.4-.1-3.4-1.2-22.1-6.9-26.7-6.9m99.3 10.3l3.2-2.5.4-.3-.9 1.3-.1.1v.1c-.1.2-.2.2-.2.2-.6.4-1.5.8-2.4 1.1"/>
  <path fill="#FFF" d="M122.2 119s1.7-14.8 6.2-10.7c3.8 3.4 5.6 19.2 3.3 30.3-1 4.9-6.9 10.5-9.4 8.1-2.4-2.4-.1-27.7-.1-27.7"/>
  <path fill="none" stroke="#00A78E" stroke-width="2.562" stroke-miterlimit="10" d="M122.2 119s1.7-14.8 6.2-10.7c3.8 3.4 5.6 19.2 3.3 30.3-1 4.9-6.9 10.5-9.4 8.1-2.4-2.4-.1-27.7-.1-27.7"/>
  <path fill="#FFF" d="M23.5 116.4s-2.2-14.7-7-10.5c-5.1 4.5-4.6 23.4-2.9 30.4 1.2 4.9 7.8 10.3 10.4 7.8 2.6-2.4-.5-27.7-.5-27.7"/>
  <path fill="#FFF" d="M21.2 95.6c.1 5.2-3.4 46.8 11.2 65.1 8.3 10.4 19.8 20.4 26.5 21.9 10.9 2.6 18 4.5 27.7 2.4 9.6-2.1 23.8-12.2 32.6-31.6 4.2-9.2 15.5-81.9-5.5-102.4-13.8-13.5-43.8-11.8-55.5-11.2-11.7.5-37.5 4.6-37 55.8m15.1 426.3l-5.5-157h81.8l-1.8 157H77.4V394.6c0-3.3-1.2-6.1-4.9-6.1s-4.9 2.7-4.9 6.1v127.2H36.3z"/>
  <path fill="#00A78E" d="M101.1 115.8c0 2.8 2.3 5.1 5.2 5.1 2.9 0 5.2-2.3 5.2-5.1s-2.3-5.1-5.2-5.1c-2.8 0-5.2 2.3-5.2 5.1"/>
  <path fill="#00A78E" d="M113.6 114.1c-.1 0-7.1-6.7-15.5-6.8-4.3 0-9 1.8-13 7.3l1.3 1.5c3.7-5 7.9-6.6 11.8-6.6 3.8 0 7.5 1.6 10.1 3.2 1.3.8 2.4 1.6 3.2 2.2.4.3.7.5.9.7l.3.3.9-1.8z"/>
  <path fill="#FFF" d="M110 116.1c0 1-.5 1.8-1.2 1.8s-1.2-.8-1.2-1.8.5-1.8 1.2-1.8c.6.1 1.2.9 1.2 1.8"/>
  <path fill="#00A78E" d="M61.1 115.4c0 2.8-2.3 5.1-5.2 5.1-2.9 0-5.2-2.3-5.2-5.1s2.3-5.1 5.2-5.1c2.9 0 5.2 2.3 5.2 5.1"/>
  <path fill="#00A78E" d="M35.9 115.9l.3-.3c1.4-1.2 7.5-6.1 14.2-6.1 3.9 0 8 1.6 11.8 6.6l1.2-1.5c-4.1-5.4-8.7-7.3-13-7.3-8.4 0-15.4 6.7-15.5 6.8l1 1.8z"/>
  <path fill="#FFF" d="M59.7 116.5c0 1-.5 1.8-1.2 1.8s-1.2-.8-1.2-1.8.5-1.8 1.2-1.8c.6 0 1.2.8 1.2 1.8"/>
  <path fill="#00A78E" d="M61.7 85.5s6.6 5.9 1 6.9c-5.5 1.1-14.6-.9-18.6 0-4 .9-11.9 4-11.9 4l-.5-3.4s10.8-10.2 30-7.5m27.2-.7s-6.4 5.6-.8 6.9c5.6 1.3 14.6-.4 18.6.7 4.1 1 12.1 4.4 12.1 4.4l.4-3.3s-11.1-10.7-30.3-8.7M69.2 140s.4 0 1.1.1c.7.1 1.8.2 3 .3 1.2.1 2.6.2 3.9 0 .6-.1 1.2-.3 1.4-.6 0-.1.1-.1.1-.2 0 0-.1.2 0 .1v-.1l.1-.3c.1-.2.1-.4.1-.5l.1-.5c.1-1.5.1-3.1 0-4.6 0-1.5-.1-2.9-.1-4.2v-4.2s.2.4.5 1.1.6 1.7 1 2.9.7 2.6.9 4.2c.2 1.6.4 3.3.3 5.1-.1.5-.1 1.1-.3 1.4l-.1.3v.2l-.1.2c-.1.3-.3.6-.6.8-.5.5-1 .7-1.5.9-.5.1-1 .2-1.4.2-.9 0-1.7-.1-2.4-.2s-1.4-.4-2-.6c-1.2-.4-2.2-.9-2.8-1.2-.9-.4-1.2-.6-1.2-.6m-10.3 9.1s18.3 7.6 33.3 1.2c-2.1 4.4-22.1 15.3-33.3-1.2"/>
  <path fill="#FFF" d="M62.6 186.2s.4 14.1-6.3 18c-6 3.5-8.7 4.3-8.7 4.3s29.3 11.7 52.7 2.2c-12.6-3.4-11.8-7.8-11.8-7.8l-2.2-14.6-23.7-2.1z"/>
  <path fill="none" stroke="#00A78E" stroke-width="3.076" stroke-miterlimit="10" d="M62.6 186.2s.4 14.1-6.3 18c-6 3.5-8.7 4.3-8.7 4.3s29.3 11.7 52.7 2.2c-12.6-3.4-11.8-7.8-11.8-7.8l-2.2-14.6-23.7-2.1z"/>
  <path fill="#FFF" d="M26.2 376.5c1.1 2.4 1.5 4.8-1.5 4.7l-.8-1.1-5-6.9-1.4 1.9c-.8 1.1-1 2.5-.5 3.8.4 1 .9 2.1 1.2 2.9.2.6.7 1.1 1.3 1.4l3.5 2.4c.8.6.5 1.3.2 2l-.5.5c-.7.7-2 .8-2.9.2l-3.9-2.7c-.4-.1-.7-.3-.9-.6l-6-9.1c-.4-.5-1-3.1-.8-3.7l2.6-9.9c.1-.3.2-2.3.2-2.6l-9.5-42.1v-7.4s1.1-37.1 3.4-36.6l22.6 5c1.8.4-3.7 19.7-3.7 19.7-2.4 9.4-3.3 12.6-3.9 18.1l2.6 45.4c0 .2 0 .4.1.6l3.6 14.1z"/>
  <path fill="none" stroke="#00A78E" stroke-width="2.562" stroke-miterlimit="10" d="M26.2 376.5c1.1 2.4 1.5 4.8-1.5 4.7l-.8-1.1-5-6.9-1.4 1.9c-.8 1.1-1 2.5-.5 3.8.4 1 .9 2.1 1.2 2.9.2.6.7 1.1 1.3 1.4l3.5 2.4c.8.6.5 1.3.2 2l-.5.5c-.7.7-2 .8-2.9.2l-3.9-2.7c-.4-.1-.7-.3-.9-.6l-6-9.1c-.4-.5-1-3.1-.8-3.7l2.6-9.9c.1-.3.2-2.3.2-2.6l-9.5-42.1v-7.4s1.1-37.1 3.4-36.6l22.6 5c1.8.4-3.7 19.7-3.7 19.7-2.4 9.4-3.3 12.6-3.9 18.1l2.6 45.4c0 .2 0 .4.1.6l3.6 14.1z"/>
  <path fill="#FFF" d="M70.1 521.7s-1.7-13.2-28.8-12.1c-27.1 1.2-29.2 9.9-30.2 12.3m138.3-.2s-1.7-13.2-28.8-12.1c-27.1 1.2-29.2 9.9-30.2 12.3"/>
  <path fill="#00A78E" d="M16.9 98.8S7.4 74.3 9.3 64.5c1.9-9.8 2.7-24.8 24.1-34.3 21.3-9.5 20.6-4.9 23.2-10.4 2.5-5.5 3.1 3.1 3.1 3.1l5.3-9s-.3 4.4 1.9 6.9c3.4 3.8 6.5-5.5 6.1-12.3 2.8 10.4 3.1 17.8 7.3 12.9 4.2-4.9 5.6-17.2 2.4-18.4 9.4 5.5 15.9 18.7 14 22.7 8-4.6 8-8.6 8-8.6l3.6 8s32.7 6.3 16.3 83.9c-1.4 6.8-3.1 14.6-3.1 14.6-6.1.4-.6-9.1.3-37.6 1.3-39.5-35.3-30.8-48.9-32.3-16.4-1.8-43.9-4-48.9 17.2-4.9 21.2-2.7 49.6-2.7 49.6l-4.5 4.6V98.8z"/>
  <path fill="none" stroke="#FFF" stroke-width="2.523" stroke-miterlimit="10" d="M16.9 98.8S7.4 74.3 9.3 64.5c1.9-9.8 2.7-24.8 24.1-34.3 21.3-9.5 20.6-4.9 23.2-10.4 2.5-5.5 3.1 3.1 3.1 3.1l5.3-9s-.3 4.4 1.9 6.9c3.4 3.8 6.5-5.5 6.1-12.3 2.8 10.4 3.1 17.8 7.3 12.9 4.2-4.9 5.6-17.2 2.4-18.4 9.4 5.5 15.9 18.7 14 22.7 8-4.6 8-8.6 8-8.6l3.6 8s32.7 6.3 16.3 83.9c-1.4 6.8-3.1 14.6-3.1 14.6-6.1.4-.6-9.1.3-37.6 1.3-39.5-35.3-30.8-48.9-32.3-16.4-1.8-43.9-4-48.9 17.2-4.9 21.2-2.7 49.6-2.7 49.6l-4.5 4.6V98.8z"/>
  <path fill="#00A78E" d="M127.4 104.6c-.5-.2-.9-.4-1.4-.5-10.2-3.4-20.6-5.3-31.3-4.7-4.6.2-9.1 1-13.4 2.9-1.4.6-2.8 1.3-2.8 3.1-1.6-.3-9.2-.3-10.8 0 0-1.8-1.4-2.5-2.8-3.1-4.3-1.9-8.8-2.6-13.4-2.9-10.7-.5-21.1 1.3-31.3 4.7-.5.2-.9.3-1.4.5-2 .9-2.7 2.3-2.3 4.4.1.3.6.7.9.7 2.3.1 1.9 0 2.9 1.6.4.7.8 1.3 1.5 1.7 2.7 1.2 3.4.9 4.3 4 .5 1.8 2.2 5.2 3.4 6.7 2.3 2.9 5.8 4.5 9.6 4.9 4.9.6 9.8.4 14.6-.8 4.5-1.1 7.5-4 9.6-7.9 1.4-2.7 2.3-5.6 2.5-8.7.2-2.9 2.6-4.5 5.5-4.5h3.6c2.9.1 5.3 1.6 5.5 4.5.2 3.1 1 6 2.5 8.7 2.1 3.9 5.1 6.8 9.6 7.9 4.8 1.2 9.7 1.4 14.6.8 3.8-.5 7.3-2 9.6-4.9 1.2-1.5 2.9-4.9 3.4-6.7.8-3.1 1.6-2.8 4.3-4 .8-.4 1.1-1 1.5-1.7.9-1.6.6-1.5 2.9-1.6.3 0 .8-.4.9-.7.4-2.1-.3-3.5-2.3-4.4m-62.2 7.5c-.3 1.5-.5 3.1-1 4.6-2 5.6-5.5 9.7-11.6 10.9-4.6.9-9.2.7-13.9.3-5.9-.6-9.3-4.1-11.1-9.4-.6-1.9-1.2-3.9-1-5.8.7-7.8 9.5-10.1 16.4-10.6 6.1-.5 11.9-.1 17.6 2.3 3.2 1.1 5.3 3.4 4.6 7.7m53.4 6.2c-1.8 5.3-5.2 8.8-11.1 9.4-4.6.5-9.3.7-13.9-.3-6.1-1.2-9.6-5.3-11.6-10.9-.5-1.4-.7-3-1-4.6-.7-4.3 1.4-6.6 4.5-7.9 5.6-2.4 11.5-2.8 17.6-2.3 6.8.6 15.7 2.8 16.4 10.6.3 2.1-.3 4.2-.9 6"/>
  <path fill="#FFF" d="M552.5 391.3l-209.2 1.3-186.6-138.8 88.5-5"/>
  <path fill="none" stroke="#00A78E" stroke-width="5" stroke-miterlimit="10" d="M552.5 391.3l-209.2 1.3-186.6-138.8 88.5-5z"/>
  <path fill="#7AC143" d="M277.1 233.7l-26.9.2-23.9-17.8 11.3-.6"/>
  <path fill="none" stroke="#00A78E" stroke-width=".641" stroke-miterlimit="10" d="M277.1 233.7l-26.9.2-23.9-17.8 11.3-.6z"/>
  <path fill="#5E9732" d="M281.7 234.7l-26.8-.9-23.2-18.7 11.4-.2"/>
  <path fill="none" stroke="#00A78E" stroke-width=".641" stroke-miterlimit="10" d="M281.7 234.7l-26.8-.9-23.2-18.7 11.4-.2z"/>
  <path fill="#FFF" d="M240.7 160.3c-4.1 1.6-5.9 1-9.6.3-3.8-.7-5.1-2-7.1-6.4-1.9-4.1-.7-4-2.6-6.4-1.9-2.4-2.3 4.4-.6 9.1 1.8 4.7 9.4 11.8 11.7 13.1 2.2 1.3 15.4 0 15.4 0l25.7 41s74.7 2.5 83.3-1c8.6-3.5 15.2-21 15.2-21l-35.1-2.1-54.5 7.9s-32.3-29.5-34.2-31.9c-1.4-1.6-7.6-2.6-7.6-2.6m130.1 2.1s-3.1 5.9-6.8 12.1c-3.6 6-12.5 13.1-12.5 13.1s12.1 9.6 27.7 9.2c12.7-.3 18.4-1.3 28.7-9.3-11.8-2.6-13.7-9-15.7-13.4-2.8-6.3-3.6-11.4-2.4-11.7-12.7.4-19 0-19 0"/>
  <path fill="none" stroke="#00A78E" stroke-width="2.96" stroke-miterlimit="10" d="M370.8 162.4s-3.1 5.9-6.8 12.1c-3.6 6-12.5 13.1-12.5 13.1s12.1 9.6 27.7 9.2c12.7-.3 18.4-1.3 28.7-9.3-11.8-2.6-13.7-9-15.7-13.4-2.8-6.3-3.6-11.4-2.4-11.7-12.7.4-19 0-19 0z"/>
  <path fill="#FFF" d="M320.8 94.3c.6 6.9-3.5 26.5 18.5 47 14.3 13.3 24.8 20.1 30.4 20.1 23.5 0 22.4 2.9 43.9-19.3 21.7-22.5 18.4-30.5 21.2-52.1 5.3-40.8 5.7-43.5-7-57C411 15.1 374.2 17.4 360 18.1c-14.3.7-34.1 5.4-39.1 60.3v15.9z"/>
  <path fill="#00A78E" d="M354.6 95.1c0 3.5-3.1 6.3-6.9 6.3-3.8 0-6.9-2.8-6.9-6.3s3.1-6.3 6.9-6.3c3.8 0 6.9 2.8 6.9 6.3"/>
  <path fill="#00A78E" d="M366.7 92.5s-.5-.4-1.4-1.1c-.9-.7-2.2-1.5-3.8-2.3-.8-.4-1.7-.7-2.6-1.1-.9-.3-1.9-.5-2.9-.7-1-.1-2-.1-3.1 0-1.1 0-2.1.4-3.1.8-1 .5-2 .8-3 1.6-1 .6-1.9 1.3-2.7 2.1-.8.7-1.8 1.7-2.9 2.3-.5.3-1.1.5-1.6.7l-1.5.3c-1.9.2-3.5-.3-4.5-.9-1-.6-1.4-1.2-1.4-1.2s.6.3 1.6.4c1 .1 2.4 0 4-.6.4-.1.8-.3 1.2-.5.5-.3.8-.4 1.2-.8.8-.6 1.3-1.5 2.3-2.4.9-.9 1.8-2 3-2.7 1.1-.9 2.3-1.4 3.5-2 1.3-.4 2.5-.8 3.8-.8 1.3-.2 2.5.1 3.7.4.6.2 1.2.3 1.7.5.5.3 1.1.5 1.6.8 1 .6 1.9 1.2 2.6 1.9.8.6 1.4 1.3 2 2 .6.6 1 1.2 1.4 1.7.6 1 .9 1.6.9 1.6"/>
  <path fill="#FFF" d="M346 95.7c0 1.3-.6 2.3-1.4 2.3-.8 0-1.4-1-1.4-2.3 0-1.3.6-2.3 1.4-2.3.7 0 1.4 1 1.4 2.3"/>
  <path fill="#00A78E" d="M369.6 69.3s3.9 4-6.4 5.2c-10.3 1.2-18.9-7.1-23.6-1.1-4.7 6-12.8 8.3-6.1 2.4 6.7-5.9 5.2-9.5 15.8-8.8 10.5.6 19.6.5 20.3 2.3m17.3 2.5s-3.1 4.9 7.2 3.5 17.3-11.6 23-6.9c5.7 4.7 14 4.9 6.4.8-7.6-4.1-6.8-8-17-4.7-10.3 3.2-19.2 5.4-19.6 7.3m-8.1 31.3s.4.6.9 1.6c.3.5.6 1.1 1 1.9.4.7.8 1.5 1.3 2.4.5.9 1 1.8 1.5 2.8.6 1 1.1 2 1.8 3 .2.3.3.5.5.7.2.2.3.5.5.7l.6.7c.2.2.5.5.7.8.9 1.2 1.8 2.5 1.9 4.3.1.9-.2 1.9-.7 2.7-.5.8-1.2 1.4-1.9 1.8-1.4.8-2.8 1.2-4.1 1.4-2.7.4-5.1.2-7.2-.2-1-.2-1.9-.5-2.7-.9-.4-.2-.8-.5-1-.8-.3-.3-.4-.9-.3-1.2.3-.7.8-.8 1.1-1 .3-.1.4-.2.4-.2s-.1.1-.4.3c-.2.2-.6.6-.7 1-.1.4.5.7 1.2.9.7.2 1.6.3 2.6.4 1 .1 2 0 3.1-.1s2.2-.3 3.4-.5c1.1-.3 2.3-.7 3.1-1.3.9-.6 1.3-1.3 1.2-2.1-.1-.8-.7-1.9-1.4-2.8-.2-.2-.3-.4-.6-.7l-.3-.3-.3-.4-.6-.9c-.2-.3-.4-.6-.5-.9-.7-1.2-1.2-2.3-1.6-3.4-.4-1.1-.8-2.1-1.1-3.1-1.1-3.8-1.4-6.6-1.4-6.6m-16.3 33s21.1 10.4 33.5-6.4c-9 28.6-36 4.4-33.5 6.4m29.4-43.6c0 3.5 3.1 6.3 6.9 6.3 3.8 0 6.9-2.8 6.9-6.3s-3.1-6.3-6.9-6.3c-3.8.1-6.9 2.9-6.9 6.3"/>
  <path fill="#00A78E" d="M390.3 91.9s.5-.4 1.4-1.1c.9-.7 2.2-1.5 3.8-2.3.8-.4 1.7-.7 2.6-1.1.9-.3 1.9-.5 2.9-.7 1-.1 2.1-.1 3.1 0 1.1 0 2.1.4 3.1.8 1 .5 2.1.8 3 1.6 1 .6 1.9 1.3 2.8 2.1.8.7 1.8 1.7 2.9 2.3.5.3 1.1.5 1.6.7.6.1 1 .2 1.5.3 1.9.2 3.5-.3 4.5-.9 1-.6 1.4-1.2 1.4-1.2s-.6.3-1.6.4c-1 .1-2.5 0-4-.6-.4-.1-.8-.3-1.2-.5-.5-.3-.8-.4-1.2-.8-.8-.6-1.3-1.5-2.3-2.4-.9-.9-1.9-2-3-2.7-1.1-.9-2.3-1.4-3.5-2-1.3-.4-2.5-.8-3.8-.8-1.3-.2-2.5.1-3.7.4-.6.2-1.2.3-1.7.5-.5.3-1.1.5-1.6.8-1 .6-1.9 1.2-2.7 1.9-.8.6-1.4 1.3-2 2-.6.6-1 1.2-1.4 1.7-.6 1-.9 1.6-.9 1.6"/>
  <path fill="#FFF" d="M392.8 92.5c0 1.3.6 2.3 1.4 2.3.8 0 1.4-1 1.4-2.3 0-1.3-.6-2.3-1.4-2.3-.8.1-1.4 1.1-1.4 2.3m-166.4 33.1v29.5c0 .3.1.5.1.8 0 2 6.4 3.4 10.2 3.6 5.8.4 10.8-1.3 10.8-3.3v-30.6h-21.1z"/>
  <path fill="#32CFB6" d="M249.4 119.7c0 1-5.6 1.8-12.6 1.8-6.9 0-12.6-.8-12.6-1.8s5.6-1.8 12.6-1.8 12.6.8 12.6 1.8"/>
  <path fill="#FFF" d="M236.9 121.4c-6.9 0-12.6-.8-12.6-1.8v7.5c0 1 5.6 1.8 12.6 1.8 6.9 0 12.6-.8 12.6-1.8v-7.5c-.1 1-5.7 1.8-12.6 1.8"/>
  <path fill="none" stroke="#00AB9F" stroke-miterlimit="10" d="M236.9 121.4c-6.9 0-12.6-.8-12.6-1.8v7.5c0 1 5.6 1.8 12.6 1.8 6.9 0 12.6-.8 12.6-1.8v-7.5c-.1 1-5.7 1.8-12.6 1.8z"/>
  <path fill="#FFF" d="M237.7 241.4l-9.9-2.8c-.3 0-2.3-.2-2.6-.1L183.3 249l-7.4.2s-37.2-2.4-36.7-4.7l4.5-22.7c.4-1.8 27.1 6.6 27.1 6.6.2 0 6.3 1.8 10.8 2.4L227 227c.2 0 .4-.1.6-.1l14.2-4.3c2.4-1.2 4.8-1.6 4.7 1.4l-1.1.9-5.8 4.6"/>
  <path fill="none" stroke="#00A78E" stroke-width="2" stroke-linecap="round" stroke-miterlimit="10" d="M237.7 241.4l-9.9-2.8c-.3 0-2.3-.2-2.6-.1L183.3 249l-7.4.2s-37.2-2.4-36.7-4.7l4.5-22.7c.4-1.8 27.1 6.6 27.1 6.6.2 0 6.3 1.8 10.8 2.4L227 227c.2 0 .4-.1.6-.1l14.2-4.3c2.4-1.2 4.8-1.6 4.7 1.4l-1.1.9-5.8 4.6"/>
  <path fill="#d20962" d="M165.5 217.4L147 254.7l-33.3-7.3 1.9 50.5c.4 5.8.7 24.5-.7 41.4l-2.9 22.6H31.8l-2.9-26.5c-.9-14 .1-34.8.6-40.1l4.6-31.7-3.9 13-28-6.6s3-10.3 13.1-32.1 32.4-29.5 32.4-29.5l27 4.3 25.7-2.1s21.3-7 43.1 3.7c21.6 10.7 22 3.1 22 3.1"/>
  <path fill="none" stroke="#00A78E" stroke-width="2.562" stroke-miterlimit="10" d="M165.5 217.4L147 254.7l-33.3-7.3 1.9 50.5c.4 5.8.7 24.5-.7 41.4l-2.9 22.6H31.8l-2.9-26.5c-.9-14 .1-34.8.6-40.1l4.6-31.7-3.9 13-28-6.6s3-10.3 13.1-32.1 32.4-29.5 32.4-29.5l27 4.3 25.7-2.1s21.3-7 43.1 3.7c21.6 10.7 22 3.1 22 3.1"/>
  <path fill="#FFF" d="M76.1 255.6l.2 2.9c-.3.1-1.4.3-2.7.3-2.8 0-4.4-1.2-4.4-4.1 0-2.3 0-4.8.1-6.2h-1.5v-2.2c2.2-.4 2.9-1.6 3.2-4h2.4c-.1 1-.2 2.4-.2 3.4h2.6v2.8h-2.6v5c0 1.9.4 2.5 1.7 2.5.5-.1 1-.2 1.2-.4m13.6-3.1V250c0-3.2-1.4-4.7-5.4-4.7-2.3 0-3.9.4-6.4.4.1 2.3.1 5.1.1 6.8 0 1.8-.1 4.9-.1 6h4.3c-.1-1-.2-4-.2-6 0-1.1 0-2.5.1-4.3.4-.1 1-.3 1.6-.3 1.5 0 2 .7 2 2.7v1.9c0 1.8-.1 4.9-.1 6h4.3c-.1-1-.2-4-.2-6m-28.9.6h-1.7v.1c0 1.8 1.2 3 3.4 3 1.3 0 2.6-.4 3.4-.9l.2 2.9c-.9.4-2.6.7-4.3.7-4.5 0-6.7-1.6-7.1-5.8-.5 0-1.3-.1-2.4-.1 0 .7-.1 1.4-.1 1.9 0 1 0 2.5.2 3.6-2.5 0-4.4.3-6.4.3-3.7 0-5-1.5-5-4.1 0-2.5 2.1-3.9 6.6-3.9h.6v-.3c0-1.8-.6-2.5-2.4-2.5-1.3 0-2.6.5-3.5.9l-.2-2.9c1-.4 2.7-.7 4.7-.7 4 0 5.4 1.3 5.4 4.9v.6c1 0 1.7 0 2.3.1.4-3.5 2.2-5.5 6.6-5.5 3.7 0 5.3 1.5 5.3 3.9.4 2.5-1.6 3.8-5.6 3.8m-12.3 3c-.1-.9 0-2.1 0-3.2H48c-1.9 0-2.6.6-2.6 1.7 0 1.2.6 1.6 2 1.6.3.1.8 0 1.1-.1m11.8-5.2c1.7 0 2.6-.6 2.6-1.8 0-.9-.6-1.4-1.5-1.4-1.6 0-2.2 1.3-2.2 3.1v.1h1.1m42.4 7.6c-2.5 0-4.4.3-6.4.3-3.7 0-5-1.5-5-4.1 0-2.5 2.1-3.9 6.6-3.9h.6v-.3c0-1.8-.5-2.5-2.4-2.5-1.3 0-2.6.5-3.5.9l-.2-2.9c1-.4 2.7-.7 4.7-.7 4 0 5.4 1.3 5.4 4.9 0 1.9-.1 3.6-.1 4.7.1 1 .1 2.5.3 3.6m-4.1-2.4c-.1-.9 0-2.1 0-3.2h-.5c-1.9 0-2.6.6-2.6 1.7 0 1.2.6 1.6 2 1.6.2.1.7 0 1.1-.1m5-9.1c-.1-.1-.2-.2-.2-.4 0-.1-.1-.3-.1-.4 0-.2 0-.3.1-.4 0-.1.1-.3.2-.4.1-.1.2-.2.3-.2.1-.1.3-.1.4-.1s.3 0 .4.1c.1.1.2.1.3.2.1.1.2.2.2.4 0 .1.1.3.1.4 0 .2 0 .3-.1.4 0 .1-.1.3-.2.4-.1.1-.2.2-.3.2-.1.1-.3.1-.4.1s-.3 0-.4-.1c-.1 0-.2-.1-.3-.2m.4.1c.1.1.2.1.4.1.1 0 .3 0 .4-.1.1-.1.2-.1.3-.2.1-.1.1-.2.2-.3 0-.1.1-.2.1-.4 0-.1 0-.2-.1-.4 0-.1-.1-.2-.2-.3-.1-.1-.2-.2-.3-.2-.1-.1-.2-.1-.4-.1-.1 0-.3 0-.4.1-.1.1-.2.1-.3.2-.1.1-.1.2-.2.3 0 .1-.1.2-.1.4s0 .4.1.5c.3.2.4.3.5.4m0-1.5h.4c.2 0 .3 0 .4.1.1.1.1.2.1.3v.2s0 .1-.1.1l-.1.1h-.1l.3.5h-.3s-.1 0-.1-.1l-.3-.5h-.2v.5-1.2zm.4.6c.2 0 .3-.1.3-.2s0-.1-.1-.2c0 0-.1-.1-.2-.1h-.2v.4h.2z"/>
  <path fill="#00A78E" d="M243.8 140.4h-4.1v-4.1c0-.5-.4-.9-.9-.9H235c-.5 0-.9.4-.9.9v4.1H230c-.5 0-.9.4-.9.9v3.8c0 .5.4.9.9.9h4.1v4.1c0 .5.4.9.9.9h3.8c.5 0 .9-.4.9-.9V146h4.1c.5 0 .9-.4.9-.9v-3.8c-.1-.5-.4-.9-.9-.9M383.2 5.5c-19 6.1-41.1-4.1-59 4.7-14.2 7-20.8 24-21.6 39.9-.8 15.8 3 31.6 3.4 47.4.2 9.9-2.1 21.7-11.1 25.9 3.3 4.7 12.3.3 15.1 7.2 1.3 3.3.6 7-1.5 9.8-3.8 5.2-10.5 7.2-15.2 11.5-1.5 1.4-2.4 3.3-2.3 5.3.4 5.4 7.2 6.3 12.2 5.6 10.6-1.5 21-4.5 30.7-8.9 4.2 4.8 2.2 12.8-2.5 17.1-1.9 1.7-4 3-6.4 4-2.4 1.1-1.6 4.7 1 4.6 10.2-.2 20.4-3.6 28.5-9.8.2 2.2 0 4.4-.6 6.5-.6 2.3 1.6 6.6 3.8 5.7 2-.9 7.5-2.7 8.8-4.5 2.5-3.3 3.3-5.8 5.3-12.3.3-1.1-3.7-3.2-3.9-4.3-.3-1.4-1.4-2.4-2.5-3.4-9.8-8.3-21.7-14.7-29.1-25.2-8.4-11.9-9.9-27.2-11.1-41.7-.9-10.6-.6-23.5 8.5-28.9 2.8-1.7 6.2-2.3 9.2-3.6 9.2-4 14.7-14.9 12.5-24.7-2.2 10.5 7.2 20.6 17.6 23.4 10.4 2.8 21.4.5 32.1-1 4.3-.6 8.7-1.1 12.8.4 8.9 3.2 12.2 14.1 12.8 23.5.5 8.3-.2 16.6-.9 24.8-.5 5.5-1.1 11.5-4.8 15.6-2.8 3.1-6.9 4.6-10.3 7-3.4 2.4-6.2 6.8-4.5 10.6.7 1.5 2 2.7 2.3 4.4.4 1.8-5.9 2.3-7 3.8-3.3 4.3-2.5 8.9-6.7 12.3-5.1 4.2-9.9 9.4-10.2 16.4-.2 4.3 2 8.5 5.9 10.3 7.8 3.5 15.5-5.1 23.8-7.1 1.1-.3 2.2-.4 3.2 0 1.3.5 2.2 1.6 3.1 2.7 4.7 5 12.9 6.4 19 3.2.8-.4 1.7-1 2.2-1.8 1.2-1.9.4-4.5-1.2-6.1-1.5-1.6-3.6-2.6-5.5-3.9-8.9-6.3-9.1-21.6-.4-28.1 2.5-1.9 5.5-3 8.2-4.7 13.4-8.1 16.6-28.9 6.4-40.6-1.9-2.2-4.2-4.2-5.4-6.8-2.7-6.1 1.5-12.8 4.4-18.7 6.2-12.6 5.7-30.3-6.1-38-3-2-6.4-3.1-9.6-4.7-14.2-7.3-23.6-23.4-39.2-28-5.3-1.5-11.7-1.4-15.6 2.5"/>
  <path fill="#FFF" d="M382.8 4.1c-15.9 4.7-32.3-1-48.4 1.5-13.5 2.1-23.4 11-28.6 23.4-6.4 15.2-4.8 31.7-3 47.7 1.5 13.4 6.6 37.6-8.5 45.4-.9.5-.9 1.7-.3 2.4 1.9 2.2 4.4 2.7 7.2 3 2.3.3 4.4.3 6.2 1.9 3.5 3.2 1.5 8.6-1.3 11.5-4.7 5-17.3 8-16.4 16.6.7 6.5 8.5 7.3 13.7 6.7 10.9-1.3 21.5-4.7 31.5-9.1l-2.1-.5c5.7 7.7-1.1 15-7.6 18.7-2.4 1.3-4.2 4.1-1.8 6.6 2.8 2.8 10.1.6 13.3-.2 6.8-1.6 13.1-4.6 18.8-8.7-.8-.4-1.5-.9-2.3-1.3.2 3.8-2.6 11.9 3.1 13.6 3.2.9 9.7-2.8 11.7-5.2 2.3-2.7 6.3-10.6 5.3-14-.5-1.8-3.1-3.3-4.2-4.8-2-2.7-4.5-4.7-7.2-6.8-6.9-5.3-14.3-10.1-20.3-16.5-6.3-6.8-9.9-15.2-11.9-24.1-1.8-8.3-2.7-17-3.1-25.5-.3-7.1-.1-16 5.3-21.4 3.4-3.4 8.3-4 12.5-6 3.2-1.5 5.9-3.9 8.1-6.7 4.3-5.6 5.8-12.6 4.5-19.4-.3-1.4-2.7-1.5-2.9 0-1.3 8.2 2.6 15.5 9.1 20.5 8 6.1 18.1 6.7 27.7 5.8 10.4-1 25.1-6.8 32.8 2.9 6.6 8.4 6 20.8 5.5 30.8-.3 6.1-.4 12.7-1.8 18.6-1.7 7.3-6.4 9.5-12.1 13.2-2.9 1.9-5.6 4.4-6.6 7.9-.4 1.3-.6 2.7-.3 4.1.5 2.3 3.1 4.2.8 5.8-2.4 1.7-4.1 1-5.8 3.8-1.1 1.7-1.6 3.7-2.3 5.5-1.3 3.4-3.5 5.2-6.1 7.7-5.4 5.3-10.2 13.5-6.5 21.1 3.8 7.6 12 7.1 18.6 3.9 4.8-2.3 11.1-7.8 16.2-3.7 3.5 2.8 6.2 5.1 10.8 5.7 5.2.7 15.4-1.1 13.8-8.4-.9-4-4.8-5.5-7.7-7.7-4.1-3.1-6.1-8.2-6.1-13.3.1-5.3 2.5-10.2 7-13.1 3.7-2.4 7.8-3.9 11.1-7 5.3-5 8.4-12.2 8.9-19.5.5-6.9-1.3-13.9-5.6-19.4-1.7-2.1-3.9-3.9-5.3-6.2-2.3-4-1-8.4.7-12.3 1.9-4.3 4.3-8.2 5.6-12.7 2.4-8.2 2.4-17.8-1.8-25.5-5.2-9.5-16.1-11.1-24.2-17.1-8.7-6.4-15.7-15-25.2-20.2-7.6-4.2-17.4-6.4-24.6-.3-1.5 1.3.7 3.4 2.1 2.1 8.5-7.4 21-.1 28.2 5.7 6.1 4.9 11.6 10.6 17.9 15.3 7.6 5.6 18.4 7.3 23.1 16 4 7.4 3.7 16.7 1.1 24.5-2.5 7.6-9.9 16-6.4 24.5 1.3 3 3.7 5 5.8 7.5 2.7 3.2 4.5 7.1 5.2 11.3 1.4 8.2-1 17.4-6.8 23.4-5.2 5.3-13.2 6.5-17.2 13.2-3.3 5.5-3.6 12.7-1 18.5 1.1 2.4 2.6 4.6 4.6 6.3 1.3 1.1 2.8 1.8 4.1 2.8 2.8 2 4.3 5.6.5 7.8-1.3.8-3.2 1-4.7 1.1-5.6.2-8.9-2.6-12.8-6-2.6-2.3-5.3-2-8.4-.9-7.2 2.5-22.8 14.7-25.6 0-2.1-11 10.1-15 13.4-23.6 1-2.6 1.5-5.8 4.3-7.2 1.2-.6 2.6-.7 3.8-1.3 1.4-.8 2.3-1.4 2.2-3.2-.1-1.4-1.3-2.5-1.9-3.6-1.9-4.1.4-7.4 3.6-9.8 3.6-2.7 7.9-4.2 10.8-7.7 5.2-6.3 4.9-16 5.4-23.7 1-14.1 2.2-40.2-17.1-42.9-5.1-.7-10.4.5-15.4 1.3-6.4.9-12.8 1.9-19.3 1.3-11.5-.9-25.4-9.4-23.2-22.7h-2.9c1.4 7.2-1.1 14.6-6.5 19.5-5 4.6-12.4 4.6-17.4 9.2-8.3 7.7-7 21.1-6.1 31.3 1.2 13.3 2.9 27.3 10.6 38.5 3.7 5.4 8.6 9.9 13.7 13.9 5.4 4.2 12.8 8 17.1 13.3.8 1 1.2 2.3 2.1 3.2 1 1.1 2.4 1.5 2.5 3 .2 2.3-2.1 6.9-3.3 8.8-1.6 2.6-5.4 5.4-8.6 5.7-4.2.4-2-7.5-2.2-10.4 0-1-1.3-2-2.3-1.3-5 3.6-10.4 6.4-16.4 8-2.4.6-7.3 2.4-9.7 1.6-4.5-1.6 1.8-3.6 3.4-4.9 5.9-4.7 8.9-13.5 4-20-.5-.7-1.2-.9-2.1-.5-9.6 4.3-20.5 7.9-31 8.9-1.7.1-3.6.2-5.3-.3-.8-.2-1.9-.5-2.6-1-2.8-2.1-.9-6.1 1.1-8 2.9-2.7 6.8-4.3 10-6.7 4.9-3.7 8.9-10.1 5.7-16.2-3.3-6.3-11.1-2.4-15-6.9l-.3 2.4c11.8-6.1 12.3-21.2 11.5-32.9-1.2-17.4-5.6-35.2-1.6-52.6 3.6-15.8 13.9-28.9 30.7-30.9 15.8-1.9 31.7 3.3 47.3-1.4 2-.7 1.3-3.6-.6-3"/>
</svg>