<svg xmlns="http://www.w3.org/2000/svg" width="296.6" height="291.7" viewBox="0 0 296.6 291.7"><path fill="#FFF" d="M14.6 91.9h258.3v177.7H14.6z"/><path fill="none" stroke="#00AB9F" stroke-width="5.739" stroke-miterlimit="10" d="M14.6 91.9h258.3v177.7H14.6z"/><path fill="#00A78E" d="M64.8 67.3c-2.9 0-5.3-2.4-5.3-5.3V8.2c0-2.9 2.4-5.3 5.3-5.3h10.7c2.9 0 5.3 2.4 5.3 5.3V62c0 2.9-2.4 5.3-5.3 5.3H64.8z"/><path fill="#FFF" d="M75.4 5.7c1.3 0 2.4 1.1 2.4 2.4v53.8c0 1.3-1.1 2.4-2.4 2.4H64.8c-1.3 0-2.4-1.1-2.4-2.4V8.2c0-1.3 1.1-2.4 2.4-2.4h10.6m0-5.8H64.8c-4.5 0-8.2 3.7-8.2 8.2V62c0 4.5 3.7 8.2 8.2 8.2h10.7c4.5 0 8.2-3.7 8.2-8.2V8.2C83.6 3.7 80 0 75.4 0"/><path fill="#00A78E" d="M208 67.3c-2.9 0-5.3-2.4-5.3-5.3V8.2c0-2.9 2.4-5.3 5.3-5.3h10.7c2.9 0 5.3 2.4 5.3 5.3V62c0 2.9-2.4 5.3-5.3 5.3H208z"/><path fill="#FFF" d="M218.6 5.7c1.3 0 2.4 1.1 2.4 2.4v53.8c0 1.3-1.1 2.4-2.4 2.4H208c-1.3 0-2.4-1.1-2.4-2.4V8.2c0-1.3 1.1-2.4 2.4-2.4h10.6m0-5.8H208c-4.5 0-8.2 3.7-8.2 8.2V62c0 4.5 3.7 8.2 8.2 8.2h10.7c4.5 0 8.2-3.7 8.2-8.2V8.2c-.1-4.5-3.7-8.2-8.3-8.2"/><path fill="#00A78E" d="M35.4 288.8c-17.9 0-32.5-14.6-32.5-32.5V50.4c0-17.9 14.6-32.5 32.5-32.5H56V62c0 4.8 3.9 8.8 8.8 8.8h10.7c4.8 0 8.8-3.9 8.8-8.8V17.8h115v44.1c0 4.8 3.9 8.8 8.8 8.8h10.7c4.8 0 8.8-3.9 8.8-8.8V17.8h33.8c17.9 0 32.5 14.6 32.5 32.5v205.9c0 17.9-14.6 32.5-32.5 32.5h-226zM59.2 102c-14.8 0-26.8 12-26.8 26.8v102c0 14.8 12 26.8 26.8 26.8h178.3c14.8 0 26.8-12 26.8-26.8v-102c0-14.8-12-26.8-26.8-26.8H59.2z"/><path fill="#FFF" d="M261.2 20.7c16.3 0 29.7 13.4 29.7 29.7v205.9c0 16.3-13.4 29.7-29.7 29.7H35.4c-16.3 0-29.7-13.4-29.7-29.7V50.4c0-16.3 13.4-29.7 29.7-29.7h17.7V62c0 6.4 5.2 11.7 11.7 11.7h10.7c6.4 0 11.7-5.2 11.7-11.7V20.7h109.2V62c0 6.4 5.2 11.7 11.7 11.7h10.7c6.4 0 11.7-5.2 11.7-11.7V20.7h30.7m-202 239.8h178.3c16.3 0 29.7-13.4 29.7-29.7v-102c0-16.3-13.4-29.7-29.7-29.7H59.2c-16.3 0-29.7 13.4-29.7 29.7v102c0 16.3 13.3 29.7 29.7 29.7M261.2 15h-36.6v47c0 3.3-2.7 5.9-5.9 5.9H208c-3.3 0-5.9-2.7-5.9-5.9V15H81.4v47c0 3.3-2.7 5.9-5.9 5.9H64.8c-3.3 0-5.9-2.7-5.9-5.9V15H35.4C15.9 15 0 30.8 0 50.4v205.9c0 19.5 15.9 35.4 35.4 35.4h225.8c19.5 0 35.4-15.9 35.4-35.4V50.4c0-19.6-15.9-35.4-35.4-35.4m-202 239.8c-13.2 0-23.9-10.7-23.9-23.9v-102c0-13.2 10.7-23.9 23.9-23.9h178.3c13.2 0 23.9 10.7 23.9 23.9v102c0 13.2-10.7 23.9-23.9 23.9H59.2z"/><path fill="#00A78E" d="M64.5 139.5h16.6v16.6H64.5z"/><path fill="#D20962" d="M88.8 139.5h16.6v16.6H88.8zm24.4 0h16.6v16.6h-16.6z"/><path fill="#00A78E" d="M137.6 139.5h16.6v16.6h-16.6zm24.3 0h16.6v16.6h-16.6zm24.4 0h16.6v16.6h-16.6zm24.3 0h16.6v16.6h-16.6zM64.5 161h16.6v16.6H64.5zm24.3 0h16.6v16.6H88.8zm24.4 0h16.6v16.6h-16.6zm24.4 0h16.6v16.6h-16.6zm24.3 0h16.6v16.6h-16.6zm24.4 0h16.6v16.6h-16.6zm24.3 0h16.6v16.6h-16.6zM64.5 182.5h16.6v16.6H64.5zm24.3 0h16.6v16.6H88.8zm24.4 0h16.6v16.6h-16.6zm24.4 0h16.6v16.6h-16.6zm24.3 0h16.6v16.6h-16.6zm24.4 0h16.6v16.6h-16.6zm24.3 0h16.6v16.6h-16.6zM64.5 204.1h16.6v16.6H64.5zm24.3 0h16.6v16.6H88.8zm24.4 0h16.6v16.6h-16.6zm24.4 0h16.6v16.6h-16.6zm24.3 0h16.6v16.6h-16.6z"/><path fill="#D20962" d="M186.3 204.1h16.6v16.6h-16.6z"/><path fill="#00A78E" d="M210.6 204.1h16.6v16.6h-16.6zM64.5 225.6h16.6v16.6H64.5zm24.3 0h16.6v16.6H88.8z"/><text transform="translate(76.56 125.05)" fill="#00A78E" font-family="'Foco-Regular'" font-size="24">Appointments</text></svg>