<svg xmlns="http://www.w3.org/2000/svg" width="245.9" height="125.2" viewBox="0 0 245.9 125.2"><path fill="#FFF" d="M21.3 111c1.4 2.8 1.9 5.5-1.6 5.5l-1-1.3-6.1-7.9-1.6 2.3c-.9 1.3-1.1 2.9-.5 4.4.5 1.1 1.1 2.4 1.4 3.3.3.7.8 1.2 1.5 1.6l4.1 2.7c1 .7.6 1.5.3 2.3l-.6.5c-.8.8-2.3.9-3.4.3l-4.6-3.1c-.4-.1-.8-.3-1.1-.6L.8 110.6c-.4-.6-1.2-3.6-1.1-4.3l2.7-11.6c.1-.4.2-2.7.1-3.1l25.6-41.9 5-8.7S41.6-.7 44.3-.1L71 5.2c2 .4-9.6 35.5-9.6 35.5 0 .2-3.7 8.8-7.3 14.1l-37.9 39c0 .2.1.5.1.7l5 16.5zm203.3 0c-1.4 2.8-1.9 5.5 1.6 5.5l1-1.3 6.1-7.9 1.6 2.3c.9 1.3 1.1 2.9.5 4.4-.5 1.1-1.1 2.4-1.4 3.3-.3.7-.8 1.2-1.5 1.6l-4.1 2.7c-1 .7-.6 1.5-.3 2.3l.6.5c.8.8 2.3.9 3.4.3l4.6-3.1c.4-.1.8-.3 1.1-.6l7.3-10.4c.4-.6 1.2-3.6 1.1-4.3l-2.7-11.6c-.1-.4-.2-2.7-.1-3.1l-25.6-41.9-5-8.7S204.3-.7 201.6-.1l-26.4 5.2c-2 .4 9.6 35.5 9.6 35.5 0 .2 3.7 8.8 7.3 14.1l37.9 39c0 .2-.1.5-.1.7l-5.3 16.6z"/></svg>