<svg xmlns="http://www.w3.org/2000/svg" width="52.5" height="33.7" viewBox="0 0 52.5 33.7"><path fill="#00A78E" d="M46.1 33.7H6.4c-3.5 0-6.4-2.9-6.4-6.4V6.4C0 2.9 2.9 0 6.4 0H46c3.5 0 6.4 2.9 6.4 6.4v20.8c.1 3.6-2.8 6.5-6.3 6.5"/><path fill="#32CFB6" d="M38.7 16.8c0 6.9-5.6 12.4-12.4 12.4-6.9 0-12.4-5.6-12.4-12.4 0-6.9 5.6-12.4 12.4-12.4 6.8 0 12.4 5.6 12.4 12.4"/><circle fill="none" stroke="#FFF" stroke-width="2" stroke-miterlimit="10" cx="26.3" cy="16.8" r="12.4"/><path fill="#FFF" d="M41.7 4.2c0 1-.8 1.8-1.8 1.8s-1.8-.8-1.8-1.8.8-1.8 1.8-1.8 1.8.8 1.8 1.8"/></svg>