<svg xmlns="http://www.w3.org/2000/svg" width="53.5" height="34.7" viewBox="0 0 53.5 34.7"><path fill="#00A78E" stroke="#FFF" stroke-miterlimit="10" d="M46.6 34.2H6.9c-3.5 0-6.4-2.9-6.4-6.4V6.9C.5 3.4 3.4.5 6.9.5h39.6c3.5 0 6.4 2.9 6.4 6.4v20.8c.1 3.6-2.8 6.5-6.3 6.5"/><path fill="#32CFB6" d="M39.2 17.3c0 6.9-5.6 12.4-12.4 12.4-6.9 0-12.4-5.6-12.4-12.4 0-6.9 5.6-12.4 12.4-12.4 6.8 0 12.4 5.6 12.4 12.4"/><circle fill="none" stroke="#FFF" stroke-width="2" stroke-miterlimit="10" cx="26.8" cy="17.3" r="12.4"/><path fill="#FFF" d="M42.2 4.7c0 1-.8 1.8-1.8 1.8s-1.8-.8-1.8-1.8.8-1.8 1.8-1.8 1.8.8 1.8 1.8"/></svg>