<svg xmlns="http://www.w3.org/2000/svg" width="178.2" height="80.5" viewBox="0 0 178.2 80.5">
  <path fill="#00A78E" d="M141.604 61.408l-23.945-21.08 33.43-37.98 23.94 21.08z"/>
  <path fill="#FFF" d="M153.2 36.1c-1.3-1.1-3.2-1-4.3.3-.4.5-.7 1.1-.8 1.8-.7-.1-1.3-.4-1.8-.8-1.5-1.3-1.6-3.8-.3-5.9 3.1 1.4 7.6.1 10.7-3.4.3-.3.3-.8.1-1.2l-1-1.5c.2-.6 0-1.2-.5-1.6-.6-.6-1.6-.5-2.2.1-.6.6-.5 1.6.1 2.2.2.2.5.3.8.4l.6.9c-2.8 2.8-6.4 3.6-8.5 1.9-1.9-1.9-1.5-5.6.8-8.7l.9.5c.1.3.2.6.5.8.6.6 1.6.5 2.2-.1.6-.6.5-1.6-.1-2.2-.5-.4-1.1-.5-1.7-.2l-1.6-.8c-.4-.2-.9-.1-1.2.2-3.3 3.8-4 8.8-1.5 11.7-1.9 2.9-1.7 6.5.6 8.5 1 .9 2.3 1.3 3.6 1.4.1.2.3.4.5.5 1.3 1.1 3.2 1 4.3-.3 1.2-1.4 1.1-3.3-.2-4.5m-3.1 3.6c-.7-.6-.7-1.6-.1-2.3.6-.7 1.6-.7 2.3-.1.7.6.7 1.6.1 2.3-.6.6-1.7.7-2.3.1"/>
  <path fill="#FFF" d="M119.3 43.6c-1.6-1.4-1.6-4-.1-5.8l31.4-35.7c1.4-1.6 3.6-2 5.2-1.1l20.6 18.1c1.6 1.4 1.6 4 .1 5.8l-31.4 35.7c-1.6 1.8-4.2 2.1-5.8.7l-20-17.7zm13.7 1.7c-.1-.1-.3-.1-.4 0l-2.5 2.9c-.1.1-.1.3 0 .4l3 2.6c.1.1.3.1.4 0l2.5-2.9c.1-.1.1-.3 0-.4l-3-2.6zm37.3-20.9L152 8.3l-24.5 27.9 18.2 16.1 24.6-27.9zm-3.2-6.9c.1 0 .3-.1.5-.3.2-.2.3-.4.3-.5L160 9.8c-.1 0-.3.1-.5.3-.2.2-.3.4-.3.5l7.9 6.9z"/>
  <path fill="#00A78E" d="M176.2 19.6c1.4 1.2 1.4 3.5 0 5.1l-31.4 35.7c-1.4 1.6-3.6 1.9-5 .6l-20.2-17.7c-1.4-1.2-1.4-3.5 0-5.1L151 2.4c1.2-1.4 3.2-1.8 4.6-1l20.6 18.2m-17.3-8.7l7.9 6.9c.3.2.8 0 1.2-.4.4-.4.5-1 .3-1.2l-7.9-6.9c-.3-.2-.8 0-1.2.4-.5.5-.6 1-.3 1.2m-32.1 25.3l19 16.7L171 24.3 152 7.6l-25.2 28.6zm3 12.7l3 2.6c.3.3.8.2 1.1-.1l2.5-2.9c.3-.3.3-.8 0-1.1l-3-2.6c-.3-.3-.8-.2-1.1.1l-2.5 2.9c-.3.4-.3.9 0 1.1m47.1-30.1L156.3.7l-.1-.1h-.1c-1.8-1.1-4.3-.6-5.9 1.2l-31.4 35.7c-1.8 2-1.7 4.9.1 6.5l20.2 17.7c1.8 1.6 4.7 1.3 6.5-.7L177 25.3c1.7-2 1.7-4.9-.1-6.5m-17-8.4l7.3 6.4-7.3-6.4M152.1 9l17.5 15.4-23.9 27.1-17.5-15.4L152.1 9zm-19.2 36.8l2.6 2.3-2.2 2.5-2.6-2.3 2.2-2.5z"/>
  <path fill-rule="evenodd" clip-rule="evenodd" fill="#FFF" d="M155.5 46.4c-1.4-1.3-1.5-3.2-.3-4.8l.1-.1.1-.1c.1-.1.3-.2.4-.3.4-.3.8-.6 1.4-.7 2.5-.4 4.7-.8 6.8-1 1.4-.2 2.6.2 3.6 1 .8.7 1.3 1.7 1.3 2.9 0 1.1-.3 2.1-1.1 2.9-.8.9-2.1 1.4-3.4 1.4h-1.7c-1 0-2 0-3 .1-1.4.1-2.6-.2-3.8-1-.1 0-.3-.1-.4-.3"/>
  <path fill="#00A78E" d="M167.1 41.1c.7.6 1.1 1.4 1.1 2.4.1 2-1.5 3.5-3.8 3.5-1.6 0-3.2-.1-4.7.1-1.2.1-2.3-.2-3.3-.8-.1-.1-.3-.2-.4-.3-1.1-1-1.2-2.5-.2-3.8.5-.3 1-.8 1.6-.9 2.2-.4 4.5-.8 6.7-1 1.2-.2 2.3.1 3 .8m.9-1.1c-1.1-.9-2.5-1.4-4.1-1.2-2.1.2-4.4.6-6.8 1-.7.1-1.2.5-1.7.8-.1.1-.3.2-.4.3l-.2.1-.2.2c-1.5 1.9-1.3 4.2.4 5.7.2.1.4.3.5.4 1.3.9 2.7 1.2 4.2 1.1 1-.1 1.9-.1 3-.1h1.7c1.6 0 2.9-.6 3.9-1.6.9-.9 1.3-2.1 1.3-3.4 0-1.2-.6-2.4-1.6-3.3"/>
  <path fill-rule="evenodd" clip-rule="evenodd" fill="#FFF" d="M149.4 53.3c-.9-.8-1.3-1.7-1.2-2.6.1-1 .7-1.9 1.8-2.5.7-.4 1.5-.6 2.3-.8.2-.1.5-.1.7-.2.8-.2 1.6 0 2.3.6 1 .8 2.2 1.2 3.9 1.2h2.4l.2.4c.5.9.4 2-.2 3.1-.6 1-1.6 1.7-2.6 1.8-2 .2-4.1.1-6.1.1h-1.6c-.5 0-1-.3-1.4-.6-.2-.3-.4-.4-.5-.5"/>
  <path fill="#00A78E" d="M161.1 49.6c.8 1.6-.6 3.7-2.1 3.8-2.6.2-5.1.1-7.7.1-.3 0-.7-.3-1-.5-.1-.1-.3-.2-.4-.3-1.4-1.2-1.3-3 .5-4 .8-.5 1.8-.7 2.8-.9.6-.2 1.2 0 1.7.4 1.2 1 2.7 1.4 4.3 1.4h1.9m.9-1.4h-2.8c-1.5 0-2.6-.4-3.4-1.1-.9-.8-1.9-1-3-.7-.2.1-.4.1-.7.2-.8.2-1.7.4-2.5.9-1.2.8-2 1.8-2.1 3.1-.1 1.2.4 2.3 1.4 3.2.2.1.4.3.5.4.4.3 1 .7 1.8.7h1.6c2 0 4.1.1 6.2-.1 1.2-.1 2.4-.9 3.1-2.2.7-1.2.7-2.6.2-3.7l-.3-.7z"/>
  <path fill-rule="evenodd" clip-rule="evenodd" fill="#FFF" d="M143.6 59.3c-.7-.6-1-1.4-1-2.3.1-.9.8-2 2-2.7 1.2-.8 2.4-1 3.2-.7.2.1.4.2.5.3l.1.1.1.1c1.2 1.1 2.7 1.6 4.5 1.6h2.7v.7c.2 2.3-1.3 4-3.7 4.2-1.9.2-3.8.1-5.4.1-.7 0-1.5-.2-2.2-.6-.3-.4-.6-.6-.8-.8"/>
  <path fill="#00A78E" d="M155 56.3c.1 1.9-1.1 3.3-3.1 3.4-1.8.1-3.5.1-5.3.1-.6 0-1.3-.2-1.9-.6-.3-.2-.6-.3-.8-.5-.5-.4-.8-1-.7-1.7.1-1.5 2.8-3.3 4.3-2.8.1 0 .2.1.2.2l.2.2.1.1c1.4 1.2 3.1 1.8 5 1.8.7-.2 1.3-.2 2-.2m1.4-1.4h-3.3c-1.6 0-2.9-.4-4-1.4l-.1-.1h-.1l-.1-.1c-.1-.1-.4-.3-.7-.4-1.1-.4-2.5-.1-3.9.8s-2.2 2.1-2.3 3.3c-.1.8.1 1.9 1.2 2.9.3.2.6.5 1 .7.8.5 1.7.7 2.5.7 1.6 0 3.5.1 5.4-.1 2.8-.2 4.5-2.3 4.4-4.9v-1.4z"/>
  <path fill-rule="evenodd" clip-rule="evenodd" fill="#FFF" d="M167.7 36.5c1.2-1.3 2.3-2.6 3.4-3.8.4-.4 1.2-.7 1.7-.4.1.1.2.1.4.2.7.4 1.4.7 2 1.2.1.1.2.1.2.2 1 1 1.4 2.4 1 3.6-.4 1.3-1.4 2.2-2.8 2.6-.8.2-1.4.2-2 .1-1.1-.2-2.2-.5-3.3-.9-.5-.1-.9-.3-1.4-.4l-1.1-.3 1.9-2.1z"/>
  <path fill="#00A78E" d="M174.7 34.2l.2.2c1.8 1.8 1 4.3-1.5 4.9-.5.1-1.1.2-1.6.1-1.5-.3-3-.8-4.7-1.3 1.6-1.8 3-3.5 4.5-5.1.2-.2.7-.3.9-.2.7.5 1.5.9 2.2 1.4m.9-1c-.7-.6-1.4-1-2.1-1.3-.1-.1-.2-.1-.4-.2-.8-.4-2-.1-2.6.5-1.1 1.2-2.2 2.5-3.4 3.8-.4.4-.7.8-1.1 1.3l-1.5 1.7 2.2.6c.5.1 1 .3 1.4.4l3.3.9c.7.1 1.4.1 2.3-.1 1.7-.4 2.9-1.6 3.4-3.1.4-1.5 0-3.1-1.2-4.3-.1-.1-.2-.1-.3-.2"/>
  <path fill-rule="evenodd" clip-rule="evenodd" fill="#FFF" d="M104.7 48.6c4.7-8.3 6.7-14.1 11-21.7.6-1.1 1.5-2.3 2.5-3 3.5-2.4 6.9-4.8 10.6-6.8 5.1-2.8 10.5-5.1 15.7-7.7.6-.3 1.3-.6 1.9-.9 1.7 2.4 1.2 5.7-1.6 7.5-3.2 2-6.6 3.6-9.9 5.5-.5.3-1 .6-1.4 1-3.9 4.4-7.7 8.8-11.6 13.1-3.1 3.5-2.8 8 .9 11 4.8 3.9 9.5 7.8 13.8 12.1 1.6 1.6 3.4 2.4 5.6 2.4.7 0 1.5.6 2.2.5-.7.2-1.4.5-2 .7-5.5 1.7-9.9 3.5-15.6 4.2-1.1.1-.7 0-2.6.5-.2 0-1.8.3-2 .2-17.5-3-17.5-18.6-17.5-18.6"/>
  <path fill="#00A78E" d="M110.6 63.1c-6.7-5.9-6.8-14.1-6.8-14.5v-.2l.1-.2c2.4-4.3 4.1-7.9 5.8-11.4 1.6-3.4 3.1-6.6 5.2-10.3.6-1 1.5-2.4 2.8-3.3l.6-.4c3.2-2.2 6.6-4.5 10.1-6.4 3.6-2 7.4-3.8 11.1-5.5 1.6-.7 3.1-1.5 4.7-2.2.5-.2.9-.4 1.4-.6l1.3-.6.5.6c1 1.4 1.4 3.1 1.1 4.7-.3 1.7-1.3 3.2-2.9 4.1-2.2 1.4-4.4 2.6-6.6 3.7l-3.3 1.8c-.4.2-.8.5-1.1.8-1.9 2.1-3.8 4.3-5.7 6.5-2 2.2-3.9 4.4-5.9 6.7-1.3 1.5-2 3.2-1.9 4.9.1 1.8 1 3.4 2.7 4.8 2.6 2.1 5.3 4.3 8 6.7 2.2 1.9 4.1 3.7 5.9 5.5 1.4 1.4 3 2.1 4.9 2.2.5 0 1 .2 1.4.3.3.1.6.2.8.2l7.6-.3-7.3 2.1c-.4.1-.7.2-1.1.4-.3.1-.6.2-1 .3-1.3.4-2.5.8-3.7 1.2-3.9 1.3-7.6 2.5-12 3.1-.2 0-.4 0-.5.1-.5.1-.5.1-1.9.4-.1 0-2 .3-2.4.3-5-1.1-8.9-2.9-11.9-5.5zm-4.9-14.2c.1 1.3.7 8 6.2 12.8 2.7 2.4 6.3 4 10.6 4.8.3 0 1.5-.2 1.7-.2 1.5-.4 1.6-.4 2.2-.5.1 0 .3 0 .5-.1 4.3-.5 7.9-1.7 11.7-3 .8-.3 1.5-.5 2.3-.8-1.8-.3-3.3-1.2-4.7-2.6-1.7-1.7-3.6-3.5-5.8-5.4-2.7-2.3-5.4-4.6-7.9-6.6-2.1-1.7-3.2-3.8-3.4-6.1-.1-2.2.7-4.4 2.4-6.3 2-2.2 3.9-4.4 5.9-6.7 1.9-2.2 3.8-4.3 5.7-6.5.5-.6 1.1-.9 1.6-1.2l3.3-1.8c2.2-1.2 4.4-2.3 6.5-3.7 1.1-.7 1.8-1.7 2-2.9.2-.9 0-1.8-.3-2.6-.4.2-.8.4-1.1.5-1.6.8-3.1 1.5-4.7 2.2-3.6 1.7-7.4 3.5-11 5.4-3.4 1.8-6.7 4.1-9.9 6.3l-.6.4c-1 .7-1.8 1.8-2.2 2.7-2.1 3.7-3.6 6.8-5.1 10.2-1.8 3.8-3.5 7.4-5.9 11.7z"/>
  <path fill-rule="evenodd" clip-rule="evenodd" fill="#FFF" d="M0 23.5s10 42 13 45.3c3 3.3 13.3 9 13.3 9l16.3 2.7L119 62.8l-11.7-14.3L36 52.1 25.3 11.5 0 23.5z"/>
</svg>