<svg xmlns="http://www.w3.org/2000/svg" width="193.3" height="332.1" viewBox="0 0 193.3 332.1">
  <path fill="#FFF" d="M105.1 122.3c-4.7 0-8.5-4.1-8.5-9.1V9.8c0-4.5 3-8.2 7.1-9h62.4c4.7 0 8.5 4.1 8.5 9.1v103.2c0 5-3.8 9.1-8.5 9.1h-61zm26-17.1c-.5 0-.9.4-.9.9v8.3c0 .5.4.9.9.9h9c.5 0 .9-.4.9-.9v-8.3c0-.5-.4-.9-.9-.9h-9zm32.4-87.5h-55.8v81.2h55.8V17.7zm-39.8-9.1c-.1 0-.6.5-.6 1.5s.4 1.5.6 1.5h23.8c.1 0 .6-.5.6-1.5s-.4-1.5-.6-1.5h-23.8z"/>
  <path fill="#00A78E" d="M166.1 1.7c4.2 0 7.6 3.7 7.6 8.3v103.2c0 4.6-3.4 8.2-7.6 8.2h-60.9c-4.2 0-7.6-3.7-7.6-8.3V9.8c0-4.1 2.8-7.5 6.4-8.1h62.1m-42.4 10.7h23.8c.8 0 1.4-1 1.4-2.3s-.6-2.3-1.4-2.3h-23.8c-.8 0-1.4 1-1.4 2.3s.6 2.3 1.4 2.3m-16.8 87.3h57.4V16.9h-57.4v82.8zm24.2 16.4h9c1 0 1.7-.8 1.7-1.7v-8.3c0-1-.8-1.7-1.7-1.7h-9c-1 0-1.7.8-1.7 1.7v8.3c0 .9.8 1.7 1.7 1.7M166.1 0h-62.4c-4.5.8-7.8 4.9-7.8 9.8v103.3c0 5.5 4.2 9.9 9.3 9.9h60.9c5.1 0 9.3-4.4 9.3-9.9V9.9c0-5.4-4.2-9.9-9.3-9.9m-42 9.4h23c.1.1.1.4.1.7 0 .3-.1.5-.1.7h-23c-.1-.1-.1-.4-.1-.7 0-.3 0-.5.1-.7m-15.6 9.1h54.1V98h-54.1V18.5zm22.6 95.9l-.1-8.3s0-.1.1-.1h9s.1 0 .1.1v8.3s0 .1-.1.1h-9z"/>
  <path fill-rule="evenodd" clip-rule="evenodd" fill="#FFF" d="M169.4 69.3c-4.2 0-7.2-3-7.4-7.5v-.2l.1-.2.3-1.2c.3-1.1.5-2.2 1.3-3.2 3.6-4.6 7-8.6 10.3-12.3 2.1-2.3 4.8-3.6 7.5-3.6 2.4 0 4.7 1 6.5 2.8 1.6 1.7 2.5 4 2.4 6.4-.1 2.7-1.4 5.4-3.7 7.4-1 .9-1.9 1.7-2.9 2.6-1.8 1.5-3.6 3.1-5.2 4.8-2.2 2.3-4.7 3.6-7.8 4-.6.2-1 .2-1.4.2"/>
  <path fill="#00A78E" d="M181.5 42.4c2 0 4 .8 5.6 2.5 3.2 3.3 2.7 8.5-1.2 12.1-2.7 2.5-5.7 4.8-8.2 7.5-2 2.1-4.3 3.3-7.1 3.7-.4.1-.8.1-1.1.1-3.6 0-6-2.5-6.2-6.3.5-1.4.6-3 1.4-4 3.3-4.2 6.7-8.3 10.3-12.2 1.8-2.3 4.2-3.4 6.5-3.4m0-2.4c-3.1 0-6.1 1.4-8.4 4-3.3 3.7-6.7 7.7-10.4 12.3-.9 1.1-1.2 2.5-1.5 3.6-.1.4-.2.8-.3 1.1l-.1.4v.5c.3 5.2 3.8 8.6 8.7 8.6.5 0 1 0 1.5-.1 3.4-.5 6.2-1.9 8.5-4.4 1.6-1.7 3.3-3.2 5.2-4.7 1-.8 2-1.7 3-2.6 2.5-2.3 4-5.2 4.1-8.3.1-2.7-.9-5.3-2.8-7.2-2.1-2.1-4.8-3.2-7.5-3.2"/>
  <path fill-rule="evenodd" clip-rule="evenodd" fill="#FFF" d="M169.2 90.8c-2.5 0-4.6-.9-5.8-2.6-1.3-1.8-1.6-4.1-.7-6.7.6-1.8 1.6-3.4 2.7-4.9.3-.5.6-.9.9-1.4 1-1.6 2.5-2.3 4.7-2.4 3.1-.1 6-1.4 9-3.9l2.4-2.1 1.6-1.5.7.3c2.1.9 3.6 2.8 4.2 5.3.6 2.6-.1 5.1-1.6 6.7-3.3 3.5-7 6.6-10.6 9.6-1 .8-2 1.7-2.9 2.5-.9.7-2.1.9-3 1h-.1c-.6 0-1.1.1-1.5.1"/>
  <path fill="#00A78E" d="M184.2 66.6c3.9 1.6 4.6 7.5 2.2 10.1-4.1 4.3-8.9 8.1-13.4 12.1-.6.5-1.7.6-2.5.7-.4.1-.8.1-1.2.1-4.4 0-6.8-3.2-5.4-7.8.7-2.1 2.2-4 3.4-6 .8-1.3 2-1.8 3.7-1.8 3.8-.1 7-1.8 9.8-4.2 1.1-1.1 2.3-2.2 3.4-3.2m-.5-2.8l-1.1 1c-.3.3-.7.6-1.1 1l-2.4 2.1c-2.8 2.4-5.5 3.6-8.3 3.6-2.5.1-4.4 1.1-5.7 3-.3.5-.6.9-.9 1.4-1.1 1.6-2.2 3.2-2.8 5.2-.9 3-.6 5.7.9 7.8 1.5 2 3.9 3.1 6.8 3.1.5 0 1 0 1.5-.1h.1c1.1-.1 2.5-.3 3.7-1.3 1-.8 1.9-1.7 2.9-2.5 3.6-3.1 7.3-6.2 10.7-9.7 1.8-1.9 2.5-4.9 1.9-7.8-.6-2.9-2.4-5.1-4.9-6.2l-1.3-.6z"/>
  <path fill-rule="evenodd" clip-rule="evenodd" fill="#FFF" d="M168.3 110.3c-2.1 0-3.7-.8-4.9-2.4-1.3-1.7-1.5-4.5-.7-7.5s2.5-5.2 4.4-6c.4-.2.8-.2 1.1-.2h.8c4 0 7.4-1.4 10.6-4.3.8-.7 3.5-3.1 3.5-3.1l.9-.8.8.8c3.7 3.6 3.6 8.6-.1 12.5-3 3.1-6.4 6-9.2 8.4-1.2 1-2.9 1.8-4.7 2.2-1 .3-1.8.4-2.5.4"/>
  <path fill="#00A78E" d="M183.8 87.8c3.2 3.1 3.2 7.4-.1 10.8-2.8 3-6 5.7-9.1 8.3-1.1.9-2.7 1.6-4.1 1.9-.7.2-1.5.3-2.2.3-1.5 0-2.9-.5-4-1.9-2.2-2.9-.2-10.2 3.2-11.5.2-.1.4-.1.7-.1h.7c4.4 0 8.2-1.7 11.4-4.6 1.2-1.1 2.3-2.1 3.5-3.2m.1-3.3l-1.7 1.5-1.2 1-2.4 2.1c-3 2.7-6.2 4-9.8 4h-.8c-.4 0-.9 0-1.6.3-2.3.9-4.2 3.4-5.1 6.8-.9 3.4-.6 6.6.9 8.5 1.4 1.9 3.4 2.9 5.9 2.9.8 0 1.7-.1 2.7-.3 2-.4 3.8-1.3 5.2-2.4 2.9-2.4 6.3-5.3 9.3-8.5 4.2-4.4 4.2-10.1 0-14.2l-1.4-1.7z"/>
  <path fill-rule="evenodd" clip-rule="evenodd" fill="#FFF" d="M175.2 34.3c0-4.1 0-8 .1-11.9 0-1.1 1-2.6 2.1-2.9l.9-.2c1.7-.4 3.5-.9 5.3-.9h.7c3.2.2 5.8 1.8 7 4.4 1.2 2.6.9 5.8-1 8.4-1 1.5-2.1 2.5-3.1 3.1-2.3 1.2-4.6 2.4-7.1 3.6-1 .5-2 1-3.1 1.5l-1.8.9v-6z"/>
  <path fill="#00A78E" d="M183.6 19.5h.6c5.9.4 8.4 6.1 5.1 11-.7 1-1.6 2.1-2.7 2.7-3.2 1.7-6.4 3.2-10.2 5 0-5.7 0-10.8.1-15.9 0-.6.6-1.6 1.2-1.7 1.9-.5 3.9-1.1 5.9-1.1m0-2.4c-2 0-3.8.5-5.6.9-.3.1-.6.2-.9.2-1.7.4-3 2.5-3 4.1-.1 3.9-.1 7.8-.1 11.9v7.9l3.5-1.7c1.1-.5 2.1-1 3.1-1.5 2.5-1.2 4.9-2.3 7.2-3.6 1.2-.7 2.4-1.8 3.6-3.4 2.1-3 2.5-6.7 1.1-9.7-1.4-2.9-4.4-4.9-8-5.1h-.9"/>
  <path fill="#FFF" d="M86.8 176.2c0-3.9-.3-6.5-.7-10.4-.1-.9-.2-1.8-.3-2.8-.3-2.7-.7-5.5-1.2-8.2-.5-2.9-1-5.7-1.5-8.6-.6-2.9-1.1-5.9-1.8-8.8-.6-2.9-1.2-5.9-1.9-8.8-.6-2.8-1.3-5.7-1.9-8.5-.6-2.7-1.2-5.4-1.9-8.1-.6-2.5-1.1-4.9-1.7-7.4-.5-2-.9-4.1-1.4-6.1-.6-2.9-.9-6.2-.2-9.1 2.4-9.5 4.7-19.1 8.1-28.3C85.3 48.4 90.9 36 96.2 23.4c.6-1.5 1.3-3.1 2-4.6 6.8 1.5 11 8.2 8.8 15.5-2.5 8.4-3.8 16.6-6.8 24.8-.5 1.3-.9 2.6-.9 3.9-.1 13.7 0 27.3-.1 41 0 10.7 4.9 18 15.5 18h45.6c4.5 0 8.6-1.4 12-4.4 1.3-1.2 3.1-3.8 3.4-5 .2.2.2 3.3.4 3.5-.6 1.1-1 2.3-1.7 3.3-7 11.6-15.4 22.1-24.5 32.2-1.5 1.7-1.5 1.7-3.8 3.9-.3.3-.7.5-1.1.8-.9.6-1.8 1.3-2.8 1.9-1.3.9-2.7 1.8-4 2.8-1.6 1.1-3.3 2.2-4.9 3.4-1.8 1.2-3.6 2.5-5.3 3.7-1.8 1.2-3.6 2.5-5.4 3.7-1.7 1.2-3.4 2.3-5.1 3.5-1.4 1-2.9 2-4.3 3-1.1.8-2.1 1.5-3.2 2.3-.3.2-.6.4-.9.7-.3.2-.5.5-.8.7v-.1c-.3.1-.5.6-.6.8-.2.3-.4.7-.6 1-.3.4-.6.9-.8 1.4l-22.9 78.1-6.8 12.2S37 333.5 33.7 330.5L1.3 301.7c-2.5-2.3 36.6-37.8 36.6-37.8.2-.3 8.9-8.6 14.3-15.3l.3-.6.8-1.6c.4-.8.8-1.7 1.2-2.5.5-1.1 1.1-2.2 1.6-3.4.7-1.3 1.3-2.7 2-4l2.2-4.6c.8-1.7 1.6-3.4 2.4-5 .9-1.8 1.7-3.6 2.6-5.3.9-1.8 1.8-3.7 2.7-5.5.9-1.9 1.8-3.7 2.7-5.6.9-1.8 1.8-3.7 2.7-5.5.9-1.8 1.7-3.6 2.6-5.4.8-1.7 1.6-3.4 2.5-5.1.7-1.5 1.5-3.1 2.2-4.6.7-1.4 1.3-2.7 2-4.1.6-1.1 1.1-2.3 1.7-3.4l1.3-2.6c.3-.6.5-1.1.8-1.7.1-.2.3-.8.4-1 0-.7-.1-.9-.1-.9"/>
  <path fill="none" stroke="#00A78E" stroke-width="2.442" stroke-miterlimit="10" d="M86.8 176.2c0-3.9-.3-6.5-.7-10.4-.1-.9-.2-1.8-.3-2.8-.3-2.7-.7-5.5-1.2-8.2-.5-2.9-1-5.7-1.5-8.6-.6-2.9-1.1-5.9-1.8-8.8-.6-2.9-1.2-5.9-1.9-8.8-.6-2.8-1.3-5.7-1.9-8.5-.6-2.7-1.2-5.4-1.9-8.1-.6-2.5-1.1-4.9-1.7-7.4-.5-2-.9-4.1-1.4-6.1-.6-2.9-.9-6.2-.2-9.1 2.4-9.5 4.7-19.1 8.1-28.3C85.3 48.4 90.9 36 96.2 23.4c.6-1.5 1.3-3.1 2-4.6 6.8 1.5 11 8.2 8.8 15.5-2.5 8.4-3.8 16.6-6.8 24.8-.5 1.3-.9 2.6-.9 3.9-.1 13.7 0 27.3-.1 41 0 10.7 4.9 18 15.5 18h45.6c4.5 0 8.6-1.4 12-4.4 1.3-1.2 3.1-3.8 3.4-5 .2.2.2 3.3.4 3.5-.6 1.1-1 2.3-1.7 3.3-7 11.6-15.4 22.1-24.5 32.2-1.5 1.7-1.5 1.7-3.8 3.9-.3.3-.7.5-1.1.8-.9.6-1.8 1.3-2.8 1.9-1.3.9-2.7 1.8-4 2.8-1.6 1.1-3.3 2.2-4.9 3.4-1.8 1.2-3.6 2.5-5.3 3.7-1.8 1.2-3.6 2.5-5.4 3.7-1.7 1.2-3.4 2.3-5.1 3.5-1.4 1-2.9 2-4.3 3-1.1.8-2.1 1.5-3.2 2.3-.3.2-.6.4-.9.7-.3.2-.5.5-.8.7v-.1c-.3.1-.5.6-.6.8-.2.3-.4.7-.6 1-.3.4-.6.9-.8 1.4l-22.9 78.1-6.8 12.2S37 333.5 33.7 330.5L1.3 301.7c-2.5-2.3 36.6-37.8 36.6-37.8.2-.3 8.9-8.6 14.3-15.3l.3-.6.8-1.6c.4-.8.8-1.7 1.2-2.5.5-1.1 1.1-2.2 1.6-3.4.7-1.3 1.3-2.7 2-4l2.2-4.6c.8-1.7 1.6-3.4 2.4-5 .9-1.8 1.7-3.6 2.6-5.3.9-1.8 1.8-3.7 2.7-5.5.9-1.9 1.8-3.7 2.7-5.6.9-1.8 1.8-3.7 2.7-5.5.9-1.8 1.7-3.6 2.6-5.4.8-1.7 1.6-3.4 2.5-5.1.7-1.5 1.5-3.1 2.2-4.6.7-1.4 1.3-2.7 2-4.1.6-1.1 1.1-2.3 1.7-3.4l1.3-2.6c.3-.6.5-1.1.8-1.7.1-.2.3-.8.4-1 0-.7-.1-.9-.1-.9z"/>
  <path fill="#FFF" d="M149.7 64.3c-3.2 0-5.9 2.6-5.9 5.9 0 1.3.4 2.5 1.1 3.5-1.1.7-2.3 1.1-3.5 1.1-3.8 0-7-3.4-7.8-8 6.3-1.9 11-9.4 11-18.4 0-.9-.6-1.6-1.4-1.8l-3.4-.9c-.5-1-1.5-1.8-2.7-1.8-1.6 0-3 1.3-3 3s1.3 3 3 3c.6 0 1.2-.2 1.7-.5l1.9.5c-.5 7.4-4.7 13.3-9.8 13.6-5.1-.3-9.3-6.1-9.8-13.6l1.9-.5c.5.3 1 .5 1.6.5 1.6 0 3-1.3 3-3s-1.3-3-3-3c-1.2 0-2.2.7-2.7 1.8l-3.3.9c-.8.2-1.4 1-1.4 1.8 0 9.7 5.5 17.7 12.5 18.7 1 6.5 5.8 11.5 11.6 11.5 2.6 0 4.9-1 6.9-2.6.4.1.9.2 1.4.2 3.2 0 5.9-2.6 5.9-5.9.1-3.4-2.5-6-5.8-6m0 8.9c-1.7 0-3.1-1.4-3.1-3.1 0-1.7 1.4-3.1 3.1-3.1 1.7 0 3.1 1.4 3.1 3.1 0 1.8-1.4 3.1-3.1 3.1"/>
</svg>