<svg xmlns="http://www.w3.org/2000/svg" width="167.7" height="220.7" viewBox="0 0 167.7 220.7"><path fill="#FFF" d="M14.8 98.7c.1 7-4.5 63.3 15.1 87.9 11.2 14 26.8 27.5 35.8 29.6 14.8 3.5 24.4 6.1 37.4 3.3s32.2-16.4 44-42.7c5.6-12.5 20.9-110.7-7.4-138.4-18.5-18.2-59.1-15.9-74.9-15.2-15.7.8-50.6 6.4-50 75.5"/><path fill="#00A78E" d="M121.6 126.6c-.4 3.8 2.5 7.2 6.3 7.5 3.9.4 7.3-2.4 7.6-6.2.4-3.8-2.5-7.2-6.3-7.5-3.8-.4-7.2 2.4-7.6 6.2"/><path fill="#00A78E" d="M139.7 127.5c-.1-.1-8.7-9.9-20-11.1-5.8-.6-12.3 1.3-18.5 8.1l1.5 2.2c5.7-6.2 11.4-7.8 16.7-7.4 5.1.5 9.8 3.1 13.2 5.5 1.7 1.2 3.1 2.5 4 3.4l1.1 1.1.3.4 1.7-2.2z"/><path fill="#FFF" d="M133.6 130.2c-.6 1.2-1.8 1.7-2.6 1.3-.8-.4-.9-1.7-.3-2.9.6-1.2 1.8-1.7 2.6-1.3.8.5 1 1.8.3 2.9"/><path fill="#00A78E" d="M72.3 128.4c-.5 3.8-4 6.5-7.8 6s-6.6-4-6.1-7.7c.5-3.8 4-6.5 7.8-6 3.9.5 6.6 3.9 6.1 7.7"/><path fill="#00A78E" d="M37.8 125.9l.4-.3c2-1.4 11-6.9 20-5.7 5.3.7 10.5 3.5 14.7 10.8l1.9-1.8c-4.5-8-10.5-11.2-16.2-11.9-11.3-1.4-21.8 6.4-21.9 6.4l1.1 2.5z"/><path fill="#FFF" d="M69.9 131.5c-.7 1.1-1.9 1.6-2.7 1.1-.7-.5-.8-1.8 0-2.9.7-1.1 1.9-1.6 2.7-1.1.8.5.8 1.8 0 2.9"/><path fill="#00A78E" d="M69.2 91.4s8.9 7.9 1.4 9.3c-7.5 1.4-19.7-1.2-25.2 0s-16.1 5.4-16.1 5.4l-.7-4.5s14.6-13.8 40.6-10.2m45.5-5.2s-9.6 6.4-2.3 9.1c7.2 2.7 19.6 2.1 24.8 4.2 5.3 2.1 15.4 8.1 15.4 8.1l1.1-4.4s-13-16.3-39-17m-35 72.5s.6.1 1.5.3c1 .2 2.3.4 4 .6 1.6.2 3.6.4 5.4.2.9-.1 1.8-.4 2.2-.9.1-.1.1-.1.1-.2s.1-.1.1-.2v-.1.1-.1l.1-.4.1-.4v-.4l.1-.7c.1-1 .1-2.1.1-3.2s0-2.1-.1-3.2c-.1-2.1-.2-4-.3-5.7-.2-3.3-.3-5.6-.3-5.6s.8 2.1 1.6 5.4c.2.8.4 1.7.6 2.7.2 1 .4 2 .5 3 .1 1.1.3 2.1.3 3.3.1 1.1.1 2.3 0 3.5-.1.6-.2 1.4-.3 1.8l-.1.4v.2l-.1.3c-.1.2-.2.4-.3.5-.1.2-.2.3-.4.5-.5.6-1.2.9-1.9 1.1-.6.2-1.2.3-1.8.3-1.2.1-2.2-.1-3.2-.2-1-.2-1.9-.4-2.7-.7-1.6-.5-2.9-1.1-3.8-1.5-.9-.4-1.4-.7-1.4-.7M90.8 198s15.3 3.3 32.5-10.9c-4.7 7.7-19.6 15.2-32.5 10.9"/><path fill="#00A78E" d="M11.9 111s-13-33.6-10.4-47.1c2.6-13.5 9.3-25.6 33-47.1C50 2.7 77.4.3 80.5 3.8c4.6 5.3 12.6 7.6 18.4.8 5.8-6.7 26.2-2.4 23.6 3.1 10.9-6.3 18.5 5.4 18.5 5.4s41.1 5.2 18.7 111.7c-2 9.4-4.3 20-4.3 20-8.3.5-.9-12.4.4-51.7 1.8-54.1-48.5-42.3-67.1-44.4-22.5-2.5-60.3-5.5-67 23.6-6.8 29-3.7 68.1-3.7 68.1l-6.2 6.3V111z"/><path fill="none" stroke="#FFF" stroke-width="2.383" stroke-miterlimit="10" d="M11.9 111s-13-33.6-10.4-47.1c2.6-13.5 9.3-25.6 33-47.1C50 2.7 77.4.3 80.5 3.8c4.6 5.3 12.6 7.6 18.4.8 5.8-6.7 26.2-2.4 23.6 3.1 10.9-6.3 18.5 5.4 18.5 5.4s41.1 5.2 18.7 111.7c-2 9.4-4.3 20-4.3 20-8.3.5-.9-12.4.4-51.7 1.8-54.1-48.5-42.3-67.1-44.4-22.5-2.5-60.3-5.5-67 23.6-6.8 29-3.7 68.1-3.7 68.1l-6.2 6.3V111z"/><path fill="#00AB9F" d="M120.7 181.8s.2.9.7 2c.3.6.6 1.2 1.1 1.8.2.3.5.6.8.9.3.3.6.5.9.8.3.2.7.5 1 .6.4.2.7.4 1.1.5.4.1.7.3 1 .4.3.1.7.2 1 .3.6.2 1.1.3 1.5.4.4.1.6.2.6.2h-.6c-.4 0-.9.1-1.6 0-.3 0-.7-.1-1.1-.1l-1.2-.3c-.4-.1-.8-.3-1.2-.5-.4-.2-.8-.5-1.2-.7-.3-.3-.7-.6-1-.9-.3-.3-.6-.7-.8-1-.3-.3-.4-.7-.6-1.1-.1-.4-.3-.7-.3-1-.3-1.4-.1-2.3-.1-2.3"/></svg>