<svg xmlns="http://www.w3.org/2000/svg" width="295.5" height="677.2" viewBox="0 0 295.5 677.2">
  <path fill="#00BBA2" d="M66.4 179.9h81.3s-34.5-24.2-81.3 0"/>
  <path fill="#FFF" d="M237.2 174.1c.8 2.5-2.7 5.8-7.8 7.5-5.1 1.7-9.9 1-10.7-1.5-.8-2.5 2.7-5.8 7.8-7.5 5.1-1.7 9.9-1 10.7 1.5"/>
  <ellipse transform="rotate(-18 227.75 177.01)" fill="none" stroke="#00A78E" stroke-width=".901" stroke-miterlimit="10" cx="228" cy="177.1" rx="9.7" ry="4.7"/>
  <path fill="#FFF" d="M61.4 251.7s21.3 3.7 38.9 6.3c8.7 1.3 37.8-2.8 37.8-2.8l14.6 74.4 4.6 44.6c.6 7.6.9 32.2-.9 54.5l-3.9 29.6H42.7l-4-34.8c-1.2-18.4.1-45.7.8-52.7l6.4-41.6 15.5-77.5zm-9.9 423.8l-7.4-212.1h110.5l-2.5 212.1H107V503.6c0-4.5-1.6-8.2-6.7-8.2s-6.7 3.7-6.7 8.2v171.9H51.5z"/>
  <path fill="#FFF" d="M42.4 459.3l-4-35.8c-1.2-18.9.1-47 .8-54.2l6.3-42.8-5.2 17.6-38-9s4-13.9 17.7-43.3C33.6 262.4 63.8 252 63.8 252l36.4 5.8"/>
  <path fill="none" stroke="#00AB9F" stroke-width="2.383" stroke-miterlimit="10" d="M42.4 459.3l-4-35.8c-1.2-18.9.1-47 .8-54.2l6.3-42.8-5.2 17.6-38-9s4-13.9 17.7-43.3C33.6 262.4 63.8 252 63.8 252l36.4 5.8"/>
  <path fill="#FFF" d="M37.9 479.1c1.5 3.3 2 6.5-2.1 6.3l-1.1-1.6-6.8-9.4L26 477c-1.1 1.5-1.4 3.4-.7 5.1.5 1.3 1.2 2.9 1.6 3.9.3.8.9 1.4 1.7 1.9l4.7 3.3c1.1.8.6 1.8.3 2.7l-.7.6c-1 .9-2.7 1-3.9.2l-5.2-3.7c-.5-.1-1-.4-1.2-.8l-8.1-12.3c-.5-.7-1.3-4.2-1.1-5l3.5-13.4c.1-.4.3-3.2.2-3.6L4.2 399.4v-10s1.5-50.2 4.6-49.5l30.6 6.7c2.4.5-5 26.6-5 26.6-3.3 12.6-4.5 17-5.3 24.5l3.5 61.4c0 .3 0 .6.1.9l5.2 19.1z"/>
  <path fill="none" stroke="#00AB9F" stroke-width="2.383" stroke-miterlimit="10" d="M37.9 479.1c1.5 3.3 2 6.5-2.1 6.3l-1.1-1.6-6.8-9.4L26 477c-1.1 1.5-1.4 3.4-.7 5.1.5 1.3 1.2 2.9 1.6 3.9.3.8.9 1.4 1.7 1.9l4.7 3.3c1.1.8.6 1.8.3 2.7l-.7.6c-1 .9-2.7 1-3.9.2l-5.2-3.7c-.5-.1-1-.4-1.2-.8l-8.1-12.3c-.5-.7-1.3-4.2-1.1-5l3.5-13.4c.1-.4.3-3.2.2-3.6L4.2 399.4v-10s1.5-50.2 4.6-49.5l30.6 6.7c2.4.5-5 26.6-5 26.6-3.3 12.6-4.5 17-5.3 24.5l3.5 61.4c0 .3 0 .6.1.9l5.2 19.1z"/>
  <path fill="#FFF" d="M261 161.7s-13.6 2.7-13.5 10.2c.5 62.1 3.1 85.1 5.1 93.6-6.5-7.6-16.1-12.4-26.8-12.4-11.4 0-21.5 5.4-27.9 13.8-7.1-11.4-19.8-19-34.3-19-22.3 0-40.4 18.1-40.4 40.4 0 2.3.2 4.5.6 6.7l-5.2 1 9.6 30.3s71.4 19.2 167.4-22.8c-.1-.1-12.1-105-34.6-141.8"/>
  <path fill="#FFF" d="M270.9 167.3c0 9.1-11.3 16.6-25.2 16.6s-25.2-7.4-25.2-16.6c0-9.1 11.3-16.6 25.2-16.6s25.2 7.4 25.2 16.6"/>
  <ellipse fill="none" stroke="#00A78E" stroke-miterlimit="10" cx="245.7" cy="167.3" rx="25.2" ry="16.6"/>
  <path fill="#00A78E" d="M148.7 254.8s24-14 42.5 11c0 0-16-19.6-42.5-11m65.6 3.6s21.9-8 33.4 7.5c0-.1-8.2-11.5-33.4-7.5"/>
  <path fill="#FFF" d="M93.4 676.9s-2.7-20.9-45.6-19.1C4.9 659.7 1.6 673.5 0 677.2m201.3-.3s-2.8-20.9-45.6-19.1c-42.8 1.8-46.2 15.7-47.8 19.4m59.4-547.8s2.2-19.9 8.4-14.3c5.1 4.6 7.5 25.8 4.4 40.7-1.4 6.6-9.3 14.1-12.6 10.8-3.3-3.2-.2-37.2-.2-37.2M34.8 126s-2.9-19.8-9.5-14.1c-6.9 6-6.2 31.5-3.8 40.8 1.6 6.6 10.4 13.8 13.9 10.5 3.5-3.3-.6-37.2-.6-37.2"/>
  <path fill="#FFF" d="M31.7 98c.1 7-4.5 62.9 15 87.4 11.1 13.9 26.6 27.4 35.6 29.5 14.7 3.4 24.2 6 37.2 3.3 12.9-2.8 32-16.4 43.7-42.4 5.6-12.4 20.8-110-7.3-137.6-18.4-18.1-58.8-15.8-74.4-15.1-15.8.7-50.5 6.2-49.8 74.9"/>
  <path fill="#00A78E" d="M133.6 125.6c-.1 3.8 2.9 7 6.7 7.1 3.9.1 7.1-2.9 7.2-6.6.1-3.8-2.9-7-6.7-7.1-3.9-.2-7.1 2.8-7.2 6.6"/>
  <path fill="#00A78E" d="M160.1 126.5c-.1-.1-9.2-9.3-20.5-9.7-5.8-.2-12.1 2.1-17.8 9.2l1.6 2.1c5.2-6.5 10.8-8.5 16.1-8.3 5.1.2 9.9 2.4 13.4 4.7 1.8 1.1 3.2 2.2 4.2 3.1.5.4.9.8 1.1 1l.4.4 1.5-2.5z"/>
  <path fill="#FFF" d="M138.7 125.6c0 1.3-.8 2.4-1.7 2.3-.9 0-1.6-1.1-1.5-2.4 0-1.3.8-2.4 1.7-2.3.9 0 1.6 1.1 1.5 2.4"/>
  <path fill="#00A78E" d="M70.1 126.2c-.1 3.8-3.4 6.8-7.2 6.6-3.8-.1-6.9-3.3-6.7-7.1.1-3.8 3.4-6.8 7.2-6.6 3.8.1 6.8 3.3 6.7 7.1"/>
  <path fill="#00A78E" d="M43.8 128.1l.4-.3c1.9-1.6 10.3-7.8 19.3-7.5 5.3.2 10.7 2.5 15.5 9.4l1.7-2c-5.2-7.5-11.4-10.2-17.2-10.4-11.3-.4-21 8.3-21.1 8.4l1.4 2.4z"/>
  <path fill="#FFF" d="M60.4 125.7c0 1.3-.8 2.4-1.7 2.3-.9 0-1.6-1.1-1.5-2.4 0-1.3.8-2.4 1.7-2.3.9 0 1.6 1.1 1.5 2.4"/>
  <path fill="#00A78E" d="M83.1 79.8s9.9 6.4 2.8 9c-7.1 2.5-19.6 1.7-24.7 3.7-5.2 2-15 7.7-15 7.7l-1.3-4.3c-.2 0 12.1-15.7 38.2-16.1m39.8 6.7s-8.6 7.6-1.1 9.2c7.5 1.7 19.6-.6 25 .8 5.5 1.4 16.2 5.9 16.2 5.9l.5-4.4c.1 0-14.9-14.2-40.6-11.5m-26.8 71.2l1.5.3c1 .2 2.3.4 3.9.6 1.6.2 3.5.4 5.4.2.9-.1 1.8-.4 2.2-.9.1-.1.1-.1.1-.2.1-.1.1-.1.1-.2l.1-.1v.1-.1l.1-.4c.2-.6.1-1 .2-1.5.1-1 .1-2.1.1-3.2s-.1-2.1-.1-3.1c-.1-1-.1-2-.2-3-.1-.9-.1-1.8-.2-2.7-.2-3.3-.3-5.5-.3-5.5s.8 2.1 1.6 5.4c.2.8.4 1.7.6 2.6.2.9.4 1.9.5 3 .1 1 .3 2.1.3 3.2.1 1.1.1 2.3 0 3.4-.1.6-.2 1.3-.3 1.8l-.1.4v.2l-.1.3c-.1.2-.2.3-.3.5-.1.2-.2.3-.4.4-.5.6-1.2.9-1.8 1.1-.6.2-1.2.3-1.8.3-1.1.1-2.2-.1-3.2-.2-1-.2-1.9-.4-2.7-.6-1.6-.5-2.9-1-3.8-1.4-.9-.5-1.4-.7-1.4-.7m-11.2 30.5s20.9 6.7 37.5.2c-2.2 5-23.6 14.8-37.5-.2"/>
  <path fill="#00A78E" d="M28.8 110.3S15.9 76.9 18.5 63.5c2.6-13.4 9.2-25.4 32.8-46.8C66.7 2.7 93.9.3 97 3.7c4.6 5.2 12.6 7.5 18.3.8 5.7-6.7 26.1-2.4 23.5 3.1 10.9-6.3 18.4 5.3 18.4 5.3s40.9 5.2 18.5 111.1c-2 9.3-4.2 19.9-4.2 19.9-8.3.5-.9-12.4.4-51.3 1.8-53.8-48.2-42-66.7-44.1-22.4-2.6-59.9-5.5-66.6 23.3-6.7 28.9-3.6 67.7-3.6 67.7l-6.2 6.3v-35.5z"/>
  <path fill="none" stroke="#FFF" stroke-width="2.168" stroke-miterlimit="10" d="M28.8 110.3S15.9 76.9 18.5 63.5c2.6-13.4 9.2-25.4 32.8-46.8C66.7 2.7 93.9.3 97 3.7c4.6 5.2 12.6 7.5 18.3.8 5.7-6.7 26.1-2.4 23.5 3.1 10.9-6.3 18.4 5.3 18.4 5.3s40.9 5.2 18.5 111.1c-2 9.3-4.2 19.9-4.2 19.9-8.3.5-.9-12.4.4-51.3 1.8-53.8-48.2-42-66.7-44.1-22.4-2.6-59.9-5.5-66.6 23.3-6.7 28.9-3.6 67.7-3.6 67.7l-6.2 6.3v-35.5z"/>
  <path fill="#FFF" d="M87.3 219.7s.5 19-8.4 24.2c-8 4.7-11.7 5.7-11.7 5.7s39.3 15.8 70.8 3c-16.9-4.6-15.8-10.4-15.8-10.4l-3-19.7-31.9-2.8z"/>
  <path fill="none" stroke="#00A78E" stroke-width="2.604" stroke-miterlimit="10" d="M87.3 219.7s.5 19-8.4 24.2c-8 4.7-11.7 5.7-11.7 5.7s39.3 15.8 70.8 3c-16.9-4.6-15.8-10.4-15.8-10.4l-3-19.7-31.9-2.8z"/>
  <path fill-rule="evenodd" clip-rule="evenodd" fill="#00A78E" d="M179.8 107.3c-.7-.8-3.2-1.3-4.3-1.5-5.1-.9-10.6-1-15.8-1.5-7.2-.6-14.6-.7-21.8-.3-6.4.3-12.6 1.5-18.8 3.3-5.5 1.5-11.1 3.9-16.9 4.1v8.2c1.5 0 2.8.1 3.8 1.2 2.6 2.8 3.8 9.1 6.2 14.7 3.7 8.7 9.1 14.8 17.7 18.3 11.3 4.5 28.9 3.2 37-7.4 2.2-2.9 3.7-6.4 4.7-10.1 1.4-5.3 1.8-10.8 2.7-14.7.3-1.4.9-2.8 1.8-3.8.8-.9 2.2-.9 2.9-2.1.4-.8.5-2.4.6-3.3.2-1.4 1.2-3.9.2-5.1m-10.9 20.1c-.7 7.8-3.9 16-10.6 20.5-7.4 5.1-18.2 4.9-26.4 2-6.1-2.2-10.2-6.8-13.3-12.4-1.2-2.2-1.9-4.8-2.6-7.2-1.2-4.4-1.9-9.7.5-13.9 1.3-2.3 3.6-4 6.2-5.2 2.3-1.1 4.9-1.8 7.1-2.2 5.4-.9 11.1-1.1 16.6-1 6.8.2 13.4.5 18.6 5.5 3.7 3.6 4.3 9.1 3.9 13.9m3.6-15.1c-.9-.1-2.9-.3-3.6-1-1.3-1.5 2.5-1.4 3.6-1.3.9.1 2.8.3 3.5 1 1.4 1.3-2.4 1.3-3.5 1.3"/>
  <path fill-rule="evenodd" clip-rule="evenodd" fill="#00A78E" d="M24.7 112.4c.1.9.2 2.5.6 3.3.6 1.2 2.1 1.2 2.9 2.1 1 1.1 1.5 2.4 1.9 3.8.9 3.9 1.3 9.4 2.7 14.7 1 3.7 2.5 7.2 4.7 10.1 8.1 10.6 25.7 11.9 37 7.4 8.6-3.4 14-9.6 17.7-18.3 2.4-5.7 3.6-11.9 6.2-14.7 1-1 2.3-1.1 3.8-1.2v-8.2c-5.8-.2-11.4-2.6-16.9-4.1-6.2-1.7-12.4-3-18.8-3.3-7.3-.4-14.6-.3-21.8.3-5.2.5-10.7.6-15.8 1.5-1.1.2-3.6.7-4.3 1.5-1.1 1.2-.1 3.7.1 5.1m14.6 1.2c5.2-4.9 11.8-5.3 18.6-5.5 5.4-.1 11.2.1 16.6 1 2.3.4 4.8 1.1 7.1 2.2 2.6 1.2 4.8 2.9 6.2 5.2 2.4 4.2 1.7 9.4.5 13.9-.7 2.4-1.4 5-2.6 7.2-3 5.7-7.1 10.2-13.3 12.4-8.2 2.9-19 3.1-26.4-2-6.6-4.6-9.9-12.7-10.6-20.5-.4-4.9.2-10.4 3.9-13.9m-11-2.7c.7-.7 2.6-.9 3.5-1 1.1-.1 4.9-.1 3.6 1.3-.6.7-2.6 1-3.6 1-1.1.1-4.9.1-3.5-1.3"/>
  <path fill="#00AB9F" d="M108 164.6c-2.9 3.8-2.9 9.6-.2 13.4 3.2 4.6 11.2 6.5 16.9 7.1 6.7.8 14.1.3 20.7-1 5.2-1 9.4-3.6 10.6-8.2 0-.2-.2-.4-.4-.2-4.3 2.8-11.2 1.2-14.8-1.6-3.9-2.9-6.5-6.5-10.9-9-6.4-3.5-16.2-6.5-21.9-.5-.2.2.2.5.4.3 7.4-7.7 21.2-.5 27.2 5.2 2.7 2.5 5.1 5.4 9 6.7 2.8 1 7.5 1.2 10.2-.1.9-.4.5-.1.2.7-.5 1.3-1.5 2.4-2.6 3.4-1.9 1.6-4.6 2.4-7.1 3-5.4 1.2-11.5 1.4-17.1 1.2-6.5-.2-13.5-1.8-18.4-5.7-4.3-3.4-4.3-10.5-1.2-14.5 0-.2-.5-.5-.6-.2"/>
  <path fill="#00A78E" d="M106.7 163.5c2.2-1.2 4.6-1.9 7.1-2h2.4c3.1.2 6.3.9 9.5 2-2.1-1.4-4.6-1.4-6.9-2.1l-2.1-.3c-3.5-.3-7 .2-10.3 2 0 .1.4.4.3.4"/>
  <path fill="#00A78E" d="M106 164.2c2.7-1.2 5.6-1.5 8.6-1.4.7 0 1.5.1 2.2.1 4 .1 8.1.7 11.7 2.5.7.3 1.4.7 2.1 1.1 1.4.5 2.5 2.3 4.3 2.7-1.4-1.8-3.6-2.5-5.5-3.9-.8-.4-1.6-.7-2.4-1-4.1-1.4-8.6-1.6-12.9-1.8-.7 0-1.4-.1-2.2-.1-2.2 0-4.3.4-6.3 1.5.1 0 .4.3.4.3"/>
  <path fill="#00A78E" d="M105.9 164.3c1.6-.3 3.1-.4 4.6-.3.8 0 1.5.1 2.3.2 5.3.3 10.7.7 15.6 2.5.7.2 1.4.5 2 .7 2 .5 3.7 1.6 5.3 2.8.5.4 1.1.8 1.6 1.3 3.3 3 7.3 8 12.6 6.6-5-.4-8.2-3.9-12-6.6-.6-.5-1.2-.9-1.8-1.3-2.4-1.7-5-3.2-7.9-4-.7-.2-1.4-.5-2.1-.7-3.6-.9-7.4-1.3-11.1-1.7-.7-.1-1.5-.2-2.3-.3-2.3-.2-4.7-.1-7.1.7.1 0 .4 0 .3.1m-2.2 2.4c-1.4 5.6 2 10.7 6.7 13.5.7.4 1.4.7 2.1 1 3.2 1.2 6.4 3 10 3.1.9.1 1.7.3 2.5.5 4.7 1 9.1 1.4 13.7.9.6-.1 1.2-.1 1.8-.1h4.2c-2.5-.7-5-.7-7.6-.2-.7 0-1.5.1-2.2.1-3.7 0-7.4-.4-11.1-1.3-.5-.1-1-.2-1.6-.3-2.2-.4-4.4-1.1-6.6-1.8-.9-.4-1.7-.8-2.5-1.1-6.3-2.1-9.6-7.8-9.4-14.3"/>
  <path fill="#00A78E" d="M103.9 166.1c.2 4.2 2.1 8.5 5.3 11.4.5.5 1.1.9 1.7 1.4 3.2 2 6.6 3.4 10.1 4.4.7.2 1.4.4 2.1.5 1.4.4 2.9.4 3.9 1.1-2.1-.7-3.9-1.4-6.2-2.2-.7-.2-1.4-.4-2.2-.7-2.9-.9-5.7-2-8.3-3.7-.6-.5-1.2-1-1.7-1.6-2.4-2.8-3.8-6.8-4.7-10.6m8.9-1.8c3.4.5 6.9 1 10.2 2.1l2.4.9c4.2 1.8 8.1 4.4 12.1 6.7.7.4 1.2.7 1.7 1 2.8 1.4 6 3.9 9.6 3.2-3.2-.7-6.4-1.8-9.3-3.8-.6-.4-1.2-.7-1.9-1.1-3.7-2.1-7.3-4.3-11.3-5.9-.7-.3-1.4-.7-2.2-1-3.7-1.5-7.6-2.4-11.7-2.5.1 0 .4.3.4.4m-8.4 1.6c1.4.5 2.8.8 4.2 1.2.7.2 1.4.4 2.1.5 3.9.4 7 2.6 9.9 5 .6.5 1.2 1 1.7 1.4 3.1 3.1 6.9 5.3 11.1 6.6.8.3 1.7.5 2.5.7 6.6 1.5 15.2 3.3 20.5-2.1-6.1 3.9-13.9 3.6-20.7 1.5-.8-.2-1.6-.5-2.4-.7-3.9-1.4-7.5-3.7-10.7-6.6-.5-.4-1-.9-1.5-1.3-.5-.5-1-.9-1.5-1.4-2.9-2.1-6.8-2.9-10.1-4-.8-.2-1.7-.5-2.5-.7-.8-.2-1.6-.4-2.4-.7 0 .4 0 .4-.2.6"/>
  <path fill="#00A78E" d="M114.8 164.7c2.5.8 4.8 1.8 7 3 .7.4 1.5.8 2.2 1.2 3.3 1.8 6.6 3.7 10 5.3.7.3 1.4.7 2.1 1 6.8 3 16 5.9 22.1.5-6.4 4.3-15.7 2.9-21.9-1.3-.7-.3-1.3-.6-2-1-3.3-1.6-6.5-3.4-9.8-5.3-.7-.4-1.5-.8-2.3-1.2-2.3-1.1-4.7-2-7.2-2.7 0 0 0 .4-.2.5"/>
  <path fill="#00A78E" d="M104.4 165.8c.8 1.4 1.8 2.5 3 3.5.6.5 1.2.9 1.9 1.3 3.9 2.2 7.6 4.4 11.5 6.4.7.3 1.2.6 1.8.9 3.3 1.9 6.9 3.3 10.5 4.2.7.2 1.5.3 2.2.5 6.7 1.7 14.6 2 20.7-1.9-5.7 2.5-12.1 3.2-18.1 2-.7-.1-1.5-.2-2.3-.4-5.5-1.1-10.7-3.5-15.7-6.3-.7-.4-1.4-.7-2-1.1-2-1.1-4-2.3-6-3.4-.6-.4-1.2-.7-1.8-1.1-2.1-1.3-4-2.8-5.7-4.6m.2-.3c2.8-.5 5.5-.2 8 .5.8.2 1.5.4 2.2.6 2.6.7 4.9 2 7 3.6.7.5 1.4 1.1 2 1.6 3.4 3.9 7.9 7 12.8 8.4.7.2 1.3.4 1.9.5 6.2.9 13 1.3 18.3-1.9-6.4 2.1-13.6 2.9-19.9.7-.7-.2-1.4-.5-2.1-.8-3.5-1.4-6.8-3.7-9.5-6.4-.6-.5-1.1-.9-1.8-1.5-2.6-2.1-5.4-4-8.9-5-.7-.2-1.5-.4-2.3-.6-2.6-.5-5.2-.6-7.7.3"/>
  <path fill="#00A78E" d="M105.1 164.7c2.2-.6 4.5-.7 6.7-.4.7.1 1.4.2 2.1.4 2.5.8 4.7 2.1 6.9 3.6l2.1 1.5c4 3.1 8.5 5.5 13.3 7.1.8.3 1.5.5 2.1.8 6.2 2.6 14.1 2.9 19.8-1-6.4 2.9-13.6 3.6-19.8.6-.6-.2-1.3-.5-2-.8-4.5-1.8-8.7-4.4-12.6-6.9-.6-.4-1.3-.9-1.9-1.3-2-1.3-4-2.5-6.1-3.5-.6-.2-1.2-.4-1.9-.6-2.9-.8-5.9-.8-8.7.5m-.8.8c.6 2.5 1.7 4.7 3.1 6.7.5.7 1 1.3 1.5 1.9 3.5 3.8 8 6.8 13 8.3.7.2 1.3.5 2 .7 4.8 1.4 9.6 2.1 14.4 1.8.8-.1 1.5 0 2.2-.1 5.5-.3 11.2.1 15.1-3.9-5 2.9-10.4 3.6-16 3.4-.6 0-1.3 0-2 .1-5.8.3-12-.8-17.5-2.9l-2.1-.9c-3.4-1.6-6.4-4-8.8-7-.5-.6-1-1.2-1.5-1.9-1.4-2-2.5-4.1-3.3-6.4.2 0-.1.4-.1.2"/>
  <path fill="#00A78E" d="M104.9 166.6c1.6 1.5 3.2 3.2 4.8 4.9.5.6 1 1.1 1.5 1.6 1.8 2.2 3.9 3.9 6.3 5.2.8.5 1.6.9 2.4 1.2 5.1 2.5 10.6 4.3 16.1 4.7.8 0 1.6.1 2.3.1 5.5-.1 11.2.3 16.2-2.6-4.6 1.4-9.3 2.5-14.3 2.2h-2.3c-5.2.1-10.4-1.3-15.3-3.6l-2.1-1.2c-4.4-2.4-8.2-5.9-12-9.4l-1.8-1.8c-.6-.6-1.1-1.3-1.6-2 .2.5-.1.5-.2.7"/>
  <path fill="#00A78E" d="M104.8 166.2c.7.4 1.4.8 2.1 1.1.7.4 1.4.7 2.1 1 4.2 2 8.5 4.3 12.7 6.6.7.4 1.3.8 1.8 1.2 3.2 2 6.1 4.5 9.6 6-3.6-2.9-7.9-4.3-11.2-7.6-.6-.4-1.3-.8-2-1.3-3.4-2.1-6.9-4.1-10.6-5.6-.8-.3-1.5-.6-2.3-.8-.7-.2-1.4-.4-2.2-.6"/>
  <path fill="none" d="M108 164.5c-.1.1-.1.1 0 0m0 0c0 .1 0 .1 0 0-2.9 3.8-3 9.6-.3 13.5 3.2 4.6 11.2 6.5 16.9 7.1 6.7.8 14.1.3 20.7-1 5.2-1 9.4-3.6 10.6-8.2 0-.2-.2-.4-.4-.2-4.3 2.8-11.2 1.2-14.8-1.6-3.9-2.9-6.5-6.5-10.9-9-3.7-2.1-8.6-4-13.2-4-3.2.1-6.2 1-8.6 3.4"/>
  <path fill="#00A78E" d="M103.9 164.6c2.9 3.8 2.9 9.6.2 13.4-3.2 4.6-11.2 6.5-16.9 7.1-6.7.8-14.1.3-20.7-1-5.2-1-9.4-3.6-10.6-8.2 0-.2.2-.4.4-.2 4.3 2.8 11.2 1.2 14.8-1.6 3.9-2.9 6.5-6.5 10.9-9 6.3-3.5 16.1-6.5 21.9-.5.2.2-.2.5-.4.3-7.4-7.7-21.2-.5-27.2 5.2-2.7 2.5-5.1 5.4-9 6.7-2.8 1-7.5 1.2-10.2-.1-.9-.4-.5-.1-.2.7.5 1.3 1.5 2.4 2.6 3.4 1.9 1.6 4.6 2.4 7.1 3 5.4 1.2 11.5 1.4 17.1 1.2 6.5-.2 13.5-1.8 18.4-5.7 4.3-3.4 4.3-10.5 1.2-14.5 0-.2.4-.5.6-.2"/>
  <path fill="#00A78E" d="M102.9 164.2c-3.3-1.6-6.8-2.3-10.4-2.3-.7 0-1.4.1-2.1.1-2.1.2-4.1.8-6.1 1.6 1.4-1 3-1.5 4.6-1.9.8-.2 1.6-.2 2.4-.3 4.1 0 8.3.4 11.9 2.5 0 .1-.4.5-.3.3"/>
  <path fill="#00A78E" d="M103.5 164.9c-3.9-1.9-8.2-1.6-12-1.6-.8 0-1.6.1-2.4.1-4.1.4-8 1.7-11.5 4.2-.9.4-1.7.8-2.2 1.7.2-1.2.8-1.8 1.6-2.1.8-.4 1.7-.5 2.4-1.1 3.6-2.4 7.7-3.4 12-3.3h2.5c3.7.1 6.9.5 10.1 1.6-.1 0-.5.3-.5.5"/>
  <path fill="#00A78E" d="M103.7 164.9c-4.1-.6-8.3-.2-12.2.2-.7.1-1.4.2-2.2.3-4.5.6-8.9 1.8-13.1 3.4-.7.4-1.4.8-2.1 1.3-3.3 2.3-6.2 5.5-10 7-.6.2-1.3.4-2 .4s-1.4-.1-2.1-.3c1.1-.1 2.2-.2 3.3-.4.5-.1 1-.2 1.5-.4 3.5-1.9 6.3-5 9.7-7.2.7-.4 1.4-.8 2.1-1.1 3.1-1.1 6.3-1.9 9.6-2.4.8-.1 1.6-.3 2.5-.4 4.9-1.3 9.9-1.3 14.9-.9-.1 0-.1.3.1.5m2.2 2.4c.8 5.7-1.7 11.4-6.9 13.6-.8.4-1.6.8-2.5 1.1-2.6 1.2-5.7 2-8.9 2.5-1 .2-2 .3-2.9.4-5.1.5-9.7 1.6-14.7.6-.7-.2-1.5-.2-2.3-.1-.8 0-1.6 0-2.3-.3h2.3c4.5.4 9.1.4 13.8-.2 1-.1 1.9-.3 2.9-.4 3.9-.5 7.7-1.3 11-2.5.8-.3 1.6-.6 2.3-1 5.2-2 9.5-7.7 7.7-13.8.3 0 .3 0 .5.1"/>
  <path fill="#00A78E" d="M105.7 166.7c-.7 6.2-3.9 12.3-10.4 14.6-.7.2-1.3.2-2 .6-.7.2-1.4.5-2.1.7-2.1.6-4.3 1.2-6.5 1.8-.8.2-1.6.5-2.4.8.2-.1-.2-.4-.2-.4 1.4-.4 2.9-1.1 4.2-1.3.7-.2 1.4-.4 2.2-.6.7-.2 1.5-.4 2.2-.7.7-.2 1.4-.5 2.1-.7 7.2-1.4 11.8-7.9 12.6-15-.1 0 .3.4.3.2m-8.3-1.9c-3.2 0-6.4.7-9.3 1.6-.8.2-1.5.5-2.2.8-2.2.9-4.4 1.9-6.4 3-.6.4-1.2.7-1.9 1.1-4.8 2.6-9.2 5.7-14.7 6.1-.6.1-1.2.1-1.8.2.6-.4 1.3-.6 2-.8.7-.2 1.3-.3 2-.4 3.6-1 6.9-2.7 10.2-4.5.7-.3 1.3-.7 2-1 4-2.1 8-4.1 12.3-5.2.8-.2 1.7-.5 2.5-.7 1.5-.3 3.6-1.3 5.3-.2"/>
  <path fill="#00A78E" d="M105.1 166.5c-5.5 1.1-10.8 2.5-14.9 6.2-.6.4-1.2.9-1.8 1.4-2.6 1.8-5.1 3.7-7.9 5-.7.4-1.3.7-2 1-3.4 1.6-7.1 2.4-11.1 2-.8 0-1.5-.1-2.3-.2-4.2-.2-8.4-1.4-12.2-2.9 3.3.4 6.7 1.7 10.1 2.3l2.1.3c5.5.5 11.1-.6 16-3.2.7-.3 1.3-.7 1.9-1l2.1-1.5 2.1-1.5c4.9-4.3 11-7.9 17.9-7.9m-9.4-1.4c-2.8.7-5.7 2.2-8.1 3.5-.7.3-1.3.7-2 1.1-2 1.1-3.9 2.1-5.9 2.9-.6.3-1.2.6-1.9.9-4.9 2.3-9.8 4.6-15.3 4.2h-2.3c-3.1-.2-6.1-.8-8.8-2.2 2.5.8 5.1 1.4 7.7 1.6.9.1 1.7.1 2.6.2 4.7.2 9.2-1.1 13.5-2.9.7-.3 1.4-.6 2.1-1 3.9-1.6 7.4-4.5 11.2-6.4.7-.4 1.5-.7 2.2-1 1.8-.5 3.2-.9 5-.9"/>
  <path fill="#00A78E" d="M105.2 166.4c-4.5 5.1-10.6 8.3-16.5 10.7-.8.4-1.6.7-2.5 1.1-1.6.7-3.3 1.5-4.9 2.3-.7.3-1.5.6-2.2.9-3.7 1.4-7.6 2.2-11.8 1.9-.7 0-1.3 0-2-.1-4.1-.2-8.2-1.6-11.7-3.5 3.8 1.3 7.9 2.7 12 3 .8.1 1.6.2 2.3.2 3.7.2 7.3-.7 10.7-2 .7-.3 1.4-.6 2-.9 2.1-1 4.2-2 6.3-2.9l2.1-.9c6.3-1.8 10.6-6.5 16.2-9.8"/>
  <path fill="#00A78E" d="M105 166.1c-6.4-.7-12.8 1.5-17.6 6.1-.7.5-1.4 1.1-2.1 1.6-2.1 1.6-4.3 3.2-6.6 4.3-.8.4-1.7.9-2.5 1.2-4.2 1.8-8.8 2.6-13.5 1.2-.9-.1-1.7-.3-2.6-.4-2.6-.5-5.1-1.2-7.5-1.8 3.8 0 7.6.8 11.3 1.3l2.1.3c4 .9 7.7.2 11.1-1.5.7-.3 1.3-.7 2-1.1 3.2-2.3 6.2-5.1 9.5-7.4.6-.5 1.2-.9 1.9-1.3 4.6-2.6 9.6-4.4 15-3-.2.2-.5.6-.5.5"/>
  <path fill="#00A78E" d="M104.4 165.3c-6.6-2-12.7 1.2-17.3 5.2L85 172c-2.1 1.5-4.2 2.9-6.5 3.7-.7.3-1.5.7-2.3 1-3.8 1.5-7.8 2.4-11.9 2.1h-2.2c-3.7-.1-7.4-.8-10.7-2.6 3.6.9 7.1 1.6 10.7 2 .7.1 1.4.1 2.1.1 5 .2 9.7-1.2 14.2-3.3.8-.3 1.4-.7 2-1 2.8-1.1 5.4-3.1 8.1-5 .7-.5 1.3-.9 1.9-1.4 3.9-2.9 9.2-5 14-2.3"/>
  <path fill="#00A78E" d="M105.3 166.1c-2.1 5.1-4.9 10.1-10.1 12.7-.7.4-1.4.8-2.2 1.2-2.3 1.3-4.8 2.2-7.4 2.9-.8.2-1.7.5-2.5.7-4.9 1.2-9.9 1.5-14.8.9-.7-.1-1.4-.1-2.2-.2-4.5-.2-9.1-1-12.3-4.2 2.9 1.8 6 2.9 9.2 3.4.8.1 1.6.3 2.4.3 6.6.5 13.4.9 20-1.4.8-.2 1.6-.5 2.4-.7 1.5-.4 3-1 4.4-1.7.7-.4 1.3-.7 2-1.1 4.7-3.2 8.6-7.4 10.4-13.2 0 .1.7.1.7.4"/>
  <path fill="#00A78E" d="M104.6 167.1c-4.2 4.4-8.2 9.8-14.1 11.9-.7.3-1.3.7-2 1-1.4.6-2.7 1.2-4.1 1.7-.7.3-1.5.6-2.2.9-5.3 1.8-10.9 2.7-16.5 1.3-.7-.1-1.5-.1-2.2-.2-2.9-.4-5.8-1.2-8.5-2.8 3.6.9 7 1.9 10.6 2.4l2.1.3c5.4.6 10.5-.1 15.2-1.8.7-.2 1.3-.5 2-.8.9-.3 1.7-.6 2.5-.9.8-.3 1.6-.7 2.4-1.1 5.9-2.8 9.5-8.5 14.8-11.9"/>
  <path fill="#00A78E" d="M104.8 166.7c-5.5 2.3-10.5 5.2-15.4 7.7l-2.1 1.2c-2.1 1.2-4.1 2.6-6 4.2-.5.4-1 .7-1.5 1-1 .6-2.1 1-3.4 1.2 1.1-.5 2.1-1 3.1-1.6.5-.3 1-.6 1.5-1 2-1.4 4.1-2.7 6.2-3.9l2.1-1.2c4.9-3 9.9-5.8 15.3-8 0 .2 0 .2.2.4"/>
  <path fill="none" d="M103.9 164.6c-.1-.1-.1-.1 0 0-.1-.1-.1-.1 0 0m-21.9.6c-4.3 2.5-7 6.1-10.9 9-3.7 2.7-10.6 4.4-14.8 1.6-.2-.1-.4.1-.4.2 1.2 4.6 5.4 7.1 10.6 8.2 6.6 1.3 14 1.8 20.7 1 5.7-.7 13.7-2.5 16.9-7.1 2.7-3.8 2.7-9.7-.2-13.4-2.4-2.4-5.4-3.4-8.6-3.4-4.7-.1-9.6 1.7-13.3 3.9"/>
  <path fill="#00A78E" d="M132 251.3c-.2-5.4.4-13.9-5.5-15.8-7-2.1-16.2 4.9-20.9 9-1-1.1-2.2-1.8-3.7-1.7-1.5-.2-2.7.5-3.7 1.7 1.6-1.8-16.5-9.5-18.6-9.4-7.6.5-7.6 10.2-7.8 16.2-.2 5.9-1.2 12.1 2.5 14.2 6.1 3.5 19.1-.4 24.9-7.2.8.7 1.8 1 2.8 1 1 .1 2-.3 2.8-1 5.7 6.6 18.4 10.1 24.5 6.9 3.8-2.1 2.9-7.7 2.7-13.9"/>
  <path fill="none" stroke="#FFF" stroke-width=".632" stroke-miterlimit="10" d="M132 251.3c-.2-5.4.4-13.9-5.5-15.8-7-2.1-16.2 4.9-20.9 9-1-1.1-2.2-1.8-3.7-1.7-1.5-.2-2.7.5-3.7 1.7 1.6-1.8-16.5-9.5-18.6-9.4-7.6.5-7.6 10.2-7.8 16.2-.2 5.9-1.2 12.1 2.5 14.2 6.1 3.5 19.1-.4 24.9-7.2.8.7 1.8 1 2.8 1 1 .1 2-.3 2.8-1 5.7 6.6 18.4 10.1 24.5 6.9 3.8-2.1 2.9-7.7 2.7-13.9z"/>
  <path fill="#FFF" d="M113.6 255l.6.1c-.5-.2-1-.5-1.5-.7l.9.6m-4.8-5.3l7.2-.3c-1.8-1.2-5.2-.1-7.2.3m-5.7 6.7c1.9-1 2.6-3.3 2.4-5.3-.1 1.6-.7 4.4-2.4 5.3m9.6-2c-1-.7-2-1.5-3-2.2.9.8 1.9 1.5 3 2.2m9.1 2.2l-7.6-1.6c2.4 1 5.2 1.6 7.6 1.7.1.1.1 0 0-.1m-22.1-10c-.4 2.9-1.2 6 .6 8.5l.1.1c-.7-3-.3-5.7-.6-8.7 0 0-.1 0-.1.1m-3.7 4.2c-3-.6-6.9-2.8-9.9-1.1l9.9 1.1c0 .1 0 .1 0 0m.8 1.4c-4.8 2.7-9.4 2.6-14.6 2.6 4.6 3.3 10.5-.2 14.6-2.6m16.5-6.9c-1 .5-1.9 1-2.7 1.7l10-4c-2.5-.1-5.1 1.2-7.3 2.3m-28.7-1c2.2.2 4.7.3 6.7 1.3 2.3 1.1 4.3 2.5 6 4.4h.1c-3.3-4-7.8-5.8-12.8-5.7"/>
</svg>