<svg xmlns="http://www.w3.org/2000/svg" width="206.6" height="137.8" viewBox="0 0 206.6 137.8"><path fill="#FFF" d="M177.6 123.7c-1.3 2.8-1.7 5.6 1.8 5.5l1-1.3 5.9-8 1.7 2.2c1 1.3 1.2 2.9.6 4.4-.5 1.1-1 2.5-1.4 3.4-.3.7-.8 1.2-1.5 1.7l-4.1 2.8c-1 .7-.6 1.5-.3 2.3l.6.5c.9.8 2.3.9 3.4.2l4.5-3.2c.4-.1.8-.3 1.1-.7l7-10.6c.4-.6 1.1-3.6 1-4.3l-3-11.5c-.1-.4-.3-2.7-.2-3.1l11-48.9v-8.6S204.4-.7 201.8-.1l-26.3 5.8c-2 .5 5.3 26.8 5.3 26.8 2.8 10.9 3.9 14.6 4.6 21l-3 52.8c0 .2 0 .5-.1.7l-4.7 16.7zM21.3 111.9c1.4 2.8 1.9 5.5-1.6 5.5l-1-1.3-6.1-7.9-1.6 2.3c-.9 1.3-1.1 2.9-.5 4.4.5 1.1 1.1 2.4 1.4 3.3.3.7.8 1.2 1.5 1.6l4.1 2.7c1 .7.6 1.5.3 2.3l-.6.5c-.8.8-2.3.9-3.4.3l-4.6-3.1c-.4-.1-.8-.3-1.1-.6L.8 111.5c-.4-.6-1.2-3.6-1.1-4.3l2.7-11.6c.1-.4.2-2.7.1-3.1l25.6-41.9 5-8.7S41.6.2 44.3.8L71 6c2 .4-9.6 35.5-9.6 35.5 0 .2-3.7 8.8-7.3 14.1l-37.9 39c0 .2.1.5.1.7l5 16.6z"/></svg>