<svg xmlns="http://www.w3.org/2000/svg" width="280.5" height="137.9" viewBox="0 0 280.5 137.9"><path fill="#FFF" d="M251.5 123.8c-1.3 2.8-1.7 5.6 1.8 5.5l1-1.3 5.9-8 1.7 2.2c1 1.3 1.2 2.9.6 4.4-.5 1.1-1 2.5-1.4 3.4-.3.7-.8 1.2-1.5 1.7l-4.1 2.8c-1 .7-.6 1.5-.3 2.3l.6.5c.9.8 2.3.9 3.4.2l4.5-3.2c.4-.1.8-.3 1.1-.7l7-10.6c.4-.6 1.1-3.6 1-4.3l-3-11.5c-.1-.4-.3-2.7-.2-3.1l11-48.9v-8.6S278.3-.6 275.7 0l-26.3 5.8c-2 .5 5.3 26.8 5.3 26.8 2.8 10.9 3.9 14.6 4.6 21l-3 52.8c0 .2 0 .5-.1.7l-4.7 16.7zM0 63.7l30.2-3.4c.8.1 4.3-.4 5-.7l11.7-7c.4-.2 2.9-1.3 3.3-1.3l56.9 1.6c.2 0 9.3-3.2 9.4-3.2 0 0 33.4-47.1 32-49.3L118.4.1c-1.1-1.7-6.9 18.8-6.9 18.8-.2.1-6.1 12.2-9.2 14.4l-58.7 7.1c-.3.1-.6.2-.8.2l-19.5 2.1c-3.5-.1-6.6.6-5.4 3.6l1.8.4 10.6 2.2-2 2.3c-1.1 1.4-2.8 2.2-4.6 2.2-1.6 0-19.7 5.6-20.8 5.7L0 63.7z"/></svg>