<svg xmlns="http://www.w3.org/2000/svg" width="60.8" height="79.8" viewBox="0 0 60.8 79.8"><path fill="#00A78E" d="M51.8 79.8H12c-5 0-9-4-9-9V9c0-5 4-9 9-9h39.8c4.9 0 9 4 9 9v61.8c0 4.9-4.1 9-9 9"/><path fill="#FFF" d="M48.8 79.8H9c-5 0-9-4-9-9V9c0-5 4-9 9-9h39.8c4.9 0 9 4 9 9v61.8c0 4.9-4.1 9-9 9"/><path fill="#00A78E" d="M40.9 44.9c0 6.6-5.4 12-12 12s-12-5.4-12-12 5.4-12 12-12 12 5.3 12 12"/><path fill="#FFF" d="M31.9 44.3l-2-1.4c-.1-2.8-.4-4.9-.8-4.9s-.8 2.1-.9 4.8L26 44.2c-1 .4-1.7 1-1.6 1.4.2.4 1.1.4 2.1 0L28 45c0 1.7-.1 3.7 0 4.8h-1.7c-.4 0-.7.4-.7.9s.3.9.7.9l2.6-.9 2.6.8c.4 0 .7-.4.7-.9s-.3-.9-.7-.9h-1.7c.1-1.1.1-3 .1-4.7l1.3.6c1 .5 2 .5 2.1.1s-.4-.9-1.4-1.4"/><text transform="translate(8.11 23.04)"><tspan x="0" y="0" fill="#00A78E" font-family="'FranklinGothic-Book'" font-size="19">P</tspan><tspan x="9.3" y="0" fill="#00A78E" font-family="'FranklinGothic-Book'" font-size="19">ASS</tspan></text></svg>