<svg xmlns="http://www.w3.org/2000/svg" width="369.3" height="188.9" viewBox="0 0 369.3 188.9"><path fill="#32CFB6" d="M157.1 0s-44.6 9.9-69.9 21.2C43.3 40.8 13.8 33.9 13.8 33.9l3.3 26.7s97.6 14.5 100 2.7c1.8-8.8 16.1 124.9 16.1 124.9l99.8.8 13.5-123.7 114-12 2-26S299.2 4 212.4 3c-15.8-.2-35.2 5.6-55.3-3"/><text transform="translate(119.98 71.13)" fill="#FFF" font-family="'Foco-Bold'" font-size="30.478">COLLEGE</text><path fill="#32CFB6" stroke="#FCFCFC" stroke-width="2" stroke-miterlimit="10" d="M24.2 35.4L6.5 31.7 1.1 57.8 18 64.3zm328.1 17.7l15-2 1-21.7-14-4.3zM133 174.6l99.5-.5"/></svg>