<svg xmlns="http://www.w3.org/2000/svg" width="177.2" height="188.9" viewBox="0 0 177.2 188.9"><path fill="#32CFB6" d="M60.9 0S7.5 1.1 1.8 48.7c-5.7 47.6 3.5 135.9 3.5 135.9l23.5-2.5s6.1-81.6 8.5-93.5c1.8-8.8-.3 99.6-.3 99.6l99.8.8.3-101.3 10.5 92.6 21 2.9S208.6 1.8 116.3 3c-15.9.2-35.2 5.6-55.4-3"/><text transform="translate(23.86 71.13)" fill="#FFF" font-family="'Foco-Bold'" font-size="30.478">COLLEGE</text><path fill="#32CFB6" stroke="#FCFCFC" stroke-width="2" stroke-miterlimit="10" d="M2.3 169.6l2 18 26.5-3 1-18zm142.5-2.5l2 15 21.8 1 4.2-14zm-108 7.5l99.5-.5"/></svg>