<svg xmlns="http://www.w3.org/2000/svg" width="160.4" height="580.3" viewBox="0 0 160.4 580.3">
  <path fill="#FFF" d="M73.7 580s-2.2-16.5-36-15.1C3.9 566.4 1.3 577.4 0 580.3m160.4-.3s-2.2-16.5-36-15.1c-33.8 1.5-36.4 12.4-37.7 15.3"/>
  <path fill="#FFF" d="M37.1 580.1l-5.4-186.4h93l-1.1 186.4H84.8V432.3c0-3.9-1.4-7-5.7-7-4.3 0-5.7 3.2-5.7 7v147.8H37.1zm100.5-468.4s3.2-17 8.2-11.8c4.1 4.3 4.8 22.8 1.1 35.4-1.6 5.6-8.9 11.5-11.6 8.5-2.6-3 2.3-32.1 2.3-32.1m-113.6 0s-3.2-17-8.1-11.8c-4.1 4.3-4.8 22.8-1.3 35.4 1.6 5.6 8.9 11.6 11.5 8.6 2.7-3.1-2.1-32.2-2.1-32.2m39.4-4.3s-2.5-17.1-8.2-12.2c-5.9 5.2-5.3 27.2-3.3 35.3 1.4 5.7 9 12 12 9.1 3.1-2.8-.5-32.2-.5-32.2"/>
  <path fill="#FFF" stroke="#00A78E" stroke-width="2" stroke-miterlimit="10" d="M19.5 84.9c.1 6-3.9 54.4 13 75.6 9.6 12.1 23.4 22.5 30.8 25.5 10.7 4.4 20.9 5.2 32.2 2.8 11.2-2.4 27.7-14.1 37.8-36.7 4.8-10.7 18-95.2-6.3-119C111 17.5 76.1 19.4 62.5 20c-13.5.6-43.6 5.4-43 64.9"/>
  <path fill="#00A78E" d="M102.9 104.9c0 3.3 2.7 5.9 6 5.9s6-2.7 6-5.9c0-3.3-2.7-5.9-6-5.9s-6 2.6-6 5.9"/>
  <path fill="#00A78E" d="M126.9 106.4c-.1 0-8.2-7.8-18-7.9-5 0-10.4 2.1-15.2 8.4l1.5 1.8c4.4-5.8 9.1-7.6 13.7-7.6 4.4 0 8.7 1.8 11.8 3.7 1.6.9 2.8 1.9 3.7 2.5.4.3.8.6 1 .8l.3.3 1.2-2z"/>
  <path fill="#FFF" d="M107.3 104.8c0 1.1-.6 2.1-1.4 2.1-.8 0-1.4-.9-1.4-2.1 0-1.1.6-2.1 1.4-2.1.8 0 1.4.9 1.4 2.1"/>
  <path fill="#00A78E" d="M62.2 104.9c0 3.3-2.7 5.9-6 5.9s-6-2.7-6-5.9c0-3.3 2.7-5.9 6-5.9s6 2.6 6 5.9"/>
  <path fill="#00A78E" d="M39.4 108.5l.3-.3c1.6-1.4 8.7-7.1 16.4-7.1 4.6 0 9.3 1.9 13.7 7.6l1.4-1.8c-4.7-6.3-10.2-8.4-15.1-8.4-9.8 0-17.9 7.8-18 7.9l1.3 2.1z"/>
  <path fill="#FFF" d="M53.8 104.8c0 1.1-.6 2.1-1.4 2.1-.8 0-1.4-.9-1.4-2.1 0-1.1.6-2.1 1.4-2.1.8 0 1.4.9 1.4 2.1"/>
  <path fill="#00A78E" d="M66.2 78.6s7.7 6.8 1.2 8c-6.4 1.2-17-1.1-21.6 0-4.7 1-13.9 4.6-13.9 4.6l-.6-3.9c.1.1 12.6-11.8 34.9-8.7m32-6.2s-7.4 6.5-1 8c6.5 1.5 16.9-.4 21.7.8 4.7 1.2 14 5.1 14 5.1l.5-3.8c0-.1-12.9-12.4-35.2-10.1m-22.9 64.1s.5.1 1.3.2 2 .3 3.4.5 3.1.3 4.7.1c.8-.1 1.5-.4 1.9-.8.1-.1.2-.2.2-.3v-.1.1-.1l.1-.3c.2-.5.1-.8.2-1.2.1-.9.1-1.8.1-2.7 0-.9 0-1.8-.1-2.7-.1-1.8-.2-3.4-.3-4.9-.2-2.9-.2-4.8-.2-4.8s.7 1.8 1.4 4.6c.3 1.4.7 3.1.9 4.9.1.9.2 1.8.3 2.8v3c-.1.5-.1 1.2-.3 1.6l-.1.3v.2l-.1.2c-.1.3-.3.6-.6.8-.5.5-1.1.8-1.6.9-.5.2-1.1.2-1.6.3-1 .1-1.9-.1-2.8-.2-.8-.1-1.6-.4-2.3-.6-1.4-.4-2.5-.9-3.3-1.3-.8-.3-1.2-.5-1.2-.5m-12 10.6s21.3 8.8 38.7 1.4c-2.4 5.1-25.7 17.7-38.7-1.4"/>
  <path fill="#00A78E" stroke="#FFF" stroke-width="2" stroke-miterlimit="10" d="M17 95.5S5.8 66.6 8.1 55c2.3-11.6 8-22 28.4-40.5C49.8 2.4 73.3.3 76 3.3c4 4.5 10.9 6.5 15.8.7 5-5.8 22.6-2.1 20.3 2.6 9.4-5.4 15.9 4.6 15.9 4.6s35.4 4.5 16 96.1c-1.7 8-3.7 17.2-3.7 17.2-7.2.4-.8-10.7.4-44.4C142.2 33.5 99 43.7 83 41.9c-19.4-2.2-51.8-4.7-57.7 20.3-4.1 17.8-4 38.9-3.5 50.2.2 4.8.4 5.4-2.9 8.8h-1L17 95.5z"/>
</svg>