<svg xmlns="http://www.w3.org/2000/svg" width="163.7" height="42.8" viewBox="0 0 163.7 42.8"><path fill="#FFF" d="M0 3.6l153.6-1.3s18.6 19.2-1.7 38.1H1.4"/><path fill="none" stroke="#FDB933" stroke-miterlimit="10" d="M0 3.6l153.6-1.3s18.6 19.2-1.7 38.1H1.4"/><path fill="none" stroke="#FDB933" stroke-width="4.731" stroke-miterlimit="10" d="M0 3.6l145.5-1.2c6.1-.1 11.7 3.6 13.9 9.3 2.2 5.5 3.3 13-1.2 20.8-2.8 4.9-8.1 7.9-13.7 7.9H1.4"/><path fill="#FFF" d="M6.2 30.9h141.5c10.7-9.4.3-18.9.3-18.9H6.2"/><path fill="none" stroke="#FDB933" stroke-miterlimit="10" d="M6.2 30.9h141.5c10.7-9.4.3-18.9.3-18.9H6.2"/><path fill="none" stroke="#FDB933" stroke-width="4.731" stroke-miterlimit="10" d="M6.2 30.9h136c7.4 0 12.4-7.7 9.2-14.3 0-.1-.1-.1-.1-.2-1.4-2.7-4.2-4.4-7.3-4.4H6.2"/></svg>