<svg xmlns="http://www.w3.org/2000/svg" width="174.8" height="289.1" viewBox="0 0 174.8 289.1"><path fill="#FFF" d="M57.6 125.8c-.1-.1-5-1.7-8.2-3.3l-26.1-21.2c1-2 1-4.3 1-4.3L23 86.4c-1.2-2.3-3.9-.8-3.9-.8l.9 5.7c-.5 1.2-1.3.3-1.3.3L9.3 79.1c-.6-.1-1 0-1.3.1.2.2.3.4.3.6.1.8.1 1.7 0 2.5l3.6 4.8c-.5.3-.9.8-1.2 1.4l-2.9-3.9c-.3 1-.7 1.9-1.3 2.7l3.1 4.1c-.3 1-1.1.7-1.1.7l-2.8-3.7c-.1.1-.1.2-.2.2-.5.6-1.2 1.2-1.9 1.8l1.7 2.3c-.3.1-.7.3-1 .6l-.2.2-1.6-2.1c-.8.6-1.6 1.1-2.5 1.4 2.9 3.9 6.5 9.1 9 11.9 2.3 2.5 4.9 2.7 6.8 2.4.5.3 1.3.8 1.4.9L40 133.8l4.8 3.5s25.7 15.2 26.4 13.5l7.3-17c.5-1.4-20.9-8-20.9-8m108 103.7c-.4 0-.7-.1-1-.2l-.5-.3-.1-.2c-.2-.3-.7-1.1.1-1.8l2.3-2c.3-.3.6-.5.6-.8l.5-1.9c.2-.6 0-1.2-.6-1.7l-.9-.6-3.2 5.5h-.2c-.3.1-.6.1-.9.1-.8 0-1.2-.3-1.4-.6-.4-.6-.4-1.5 0-2.8l1.3-9.2v-.3l-3.3-27.9c-.6-1.5-1.6-3.4-3-5.8-.1-.2-.2-.3-.2-.3-2.7-4.1-9-14-8.5-15.5.1-.2.2-.4.4-.4l16.2-6.4h.2c1.8 0 5.7 11.8 8.8 21.8l.9 4.6-2.2 27c0 .2.3 1.2.4 1.4l3 5.6c.2.6.1 2.3-.2 2.8l-3.4 6.4c-.1.3-.4.5-.8.7l-2.5 2.2c-.5.4-1.2.6-1.8.6"/><path fill="#00A78E" d="M163.4 156.9c1.7 0 8.3 21.4 8.3 21.4l.8 4.5-2.2 26.9c0 .2.3 1.4.4 1.6l3 5.6c.1.4 0 2-.2 2.4l-3.4 6.4c-.1.2-.3.4-.6.5l-2.5 2.2c-.4.3-.9.5-1.4.5-.3 0-.5-.1-.8-.2l-.4-.2c-.2-.4-.6-.8-.1-1.3l2.3-2c.4-.3.7-.7.8-1.1.1-.5.3-1.3.5-1.9.2-.8-.1-1.7-.8-2.2l-1.3-1-2.9 5-.5.8c-.3.1-.6.1-.8.1-1.4 0-1.3-1.3-.9-2.7l1.3-9.2v-.4l-3.3-28c-1.1-2.6-3.2-6.1-3.2-6.2 0 0-9.7-14.8-8.4-15.3l16.3-6.2c-.1 0-.1 0 0 0m0-1c-.2 0-.3 0-.4.1l-16.1 6.4c-.3.1-.6.4-.7.7-.1.5-.6 1.9 8.6 16 0 .1.1.1.1.2 1.4 2.3 2.4 4.2 3 5.7l3.3 27.8v.1l-1.3 9.2c-.3.9-.6 2.2.1 3.1.3.4.8.8 1.8.8.3 0 .6 0 1-.1l.4-.1.2-.4.5-.8 2.4-4 .4.3c.4.3.6.7.5 1.2l-.5 1.9c0 .2-.2.3-.4.5l-2.3 2c-.8.7-.8 1.5-.2 2.5l.1.1.2.2.3.1.4.2c.3.2.8.3 1.2.3.8 0 1.5-.3 2-.7l2.4-2.1c.4-.2.7-.5.9-.9l3.4-6.4c.3-.6.5-2.5.2-3.2l-3-5.6c-.1-.2-.3-.9-.3-1.2l2.2-26.9v-.2l-.8-4.5v-.2c0-.1-1.7-5.4-3.5-10.7-4.3-11.4-5.3-11.4-6.1-11.4"/><path fill="#FFF" d="M89.2 288.8l-4-63.9h59.6l-1.3 63.9h-24.4V237c0-1.4-.9-2.5-3.6-2.5s-3.6 1.1-3.6 2.5v51.8H89.2z"/><path fill="#FFF" d="M110.3 288.9s-1.1-10.3-18.4-9.4c-17.3.9-18.7 7.7-19.3 9.5m85.6-.1s-1.1-10.3-18.4-9.4c-17.3.9-18.7 7.7-19.3 9.5m30.2-221.7s1.2-10.5 4.4-7.6c2.7 2.4 4 13.7 2.3 21.6-.7 3.5-4.9 7.5-6.7 5.8-1.6-1.8 0-19.8 0-19.8m-70.4-.2s-1.2-8.5-4.1-6c-3 2.6-2.7 13.5-1.7 17.5.7 2.8 4.5 5.9 6 4.5 1.5-1.5-.2-16-.2-16"/><path fill="#FFF" d="M78.7 50.6c0 3.7-2.4 33.4 8 46.4 5.9 7.4 14.1 14.5 18.9 15.6 7.8 1.8 12.9 3.2 19.7 1.7 6.9-1.5 17-8.7 23.2-22.5 3-6.6 11-58.4-3.9-73-9.8-9.6-31.2-8.4-39.5-8-8.3.4-26.7 3.4-26.4 39.8"/><path fill="#00A78E" d="M133.1 66.3c1.5-1.3 1.7-3.6.4-5.2-1.3-1.6-3.6-1.8-5.2-.5-1.5 1.3-1.7 3.6-.4 5.2 1.4 1.6 3.7 1.8 5.2.5"/><path fill="#00A78E" d="M144.5 65.3s-4.3-5.5-10.3-6.3c-3-.4-6.5.4-9.9 3.8l.7 1.2c3.1-3.1 6.2-3.9 9-3.5 2.7.4 5.1 1.8 6.8 3.2.9.7 1.6 1.4 2 1.9.2.2.4.4.5.6l.2.2 1-1.1z"/><path fill="#FFF" d="M129.9 61.9c.5-.4 1.2-.5 1.5-.2.3.4.1 1-.4 1.5-.5.4-1.2.5-1.5.2-.4-.3-.2-1 .4-1.5"/><path fill="#00A78E" d="M94.9 61.6c1.4-1.5 3.7-1.5 5.2-.1s1.6 3.7.2 5.2c-1.4 1.5-3.7 1.5-5.2.1-1.5-1.5-1.6-3.8-.2-5.2"/><path fill="#00A78E" d="M90.8 64.1l.2-.1c1.1-.8 5.7-3.8 10.5-3.3 2.8.3 5.6 1.7 7.9 5.5l1-1c-2.5-4.1-5.7-5.8-8.7-6.1-6-.6-11.4 3.6-11.5 3.7l.6 1.3z"/><path fill="#FFF" d="M96.2 62.9c.5-.5 1.1-.7 1.5-.3.3.3.2 1-.2 1.5-.5.5-1.2.6-1.5.3-.4-.3-.3-1 .2-1.5"/><path fill="#00A78E" d="M108.1 46.9s4.7 4.1.8 4.9-10.4-.6-13.3.1c-2.9.7-8.5 2.9-8.5 2.9l-.4-2.4s7.7-7.4 21.4-5.5m19.7 1s-4.8 3.8-.8 4.9c3.9 1.1 10.4.2 13.2 1.1 2.9.9 8.4 3.6 8.4 3.6l.4-2.3c0-.1-7.5-8-21.2-7.3m-7.9 37s-1.1.5-2.9.7c-.4.1-.9.1-1.5.1-.5 0-1.1 0-1.7-.2-.6-.2-1.3-.4-1.8-1.1l-.3-.6v-1.6c.2-1.3.5-2.4.8-3.5.4-1.1.8-2 1.1-2.8.8-1.6 1.4-2.6 1.4-2.6s-.2 1.2-.6 2.9c-.2.9-.4 1.8-.7 2.9-.2 1.1-.5 2.2-.6 3.3 0 .2-.1.4 0 .7v.3c0-.1 0 0 0 0 0 .1 0 .1.1.2.1.2.5.5 1 .6.9.3 1.9.4 2.8.5.9.1 1.6.1 2.1.1.5.1.8.1.8.1m-4.1 15.5s14.1.4 22.5-7.6c-.2 3.5-10.8 15.8-22.5 7.6"/><path fill="#00A78E" d="M155.6 51.4s4.5-14.8 3.4-20.9c-1.1-6.2-4.5-10.7-16.6-21-7.9-6.7-15.7-1-17.4.5-2.5 2.3-10.3-5.7-13.2-8.9-2.9-3.2-13.1 7.4-11.8 10-5.6-3.1-9.9-2.7-9.9-2.7s-22.5-3-12.8 45.9c.9 4.3 1.9 9.2 1.9 9.2 4.4.4.8-1.4.9-19.3.1-24.6 26.9-19 36.7-19.5 11.9-.6 31.6.5 34.6 13.8s.3 26.1.3 26.1l3.1 3 .8-16.2z"/><path fill="none" stroke="#FFF" stroke-miterlimit="10" d="M155.6 51.4s4.5-14.8 3.4-20.9c-1.1-6.2-4.5-10.7-16.6-21-7.9-6.7-15.7-1-17.4.5-2.5 2.3-10.3-5.7-13.2-8.9-2.9-3.2-13.1 7.4-11.8 10-5.6-3.1-9.9-2.7-9.9-2.7s-22.5-3-12.8 45.9c.9 4.3 1.9 9.2 1.9 9.2 4.4.4.8-1.4.9-19.3.1-24.6 26.9-19 36.7-19.5 11.9-.6 31.6.5 34.6 13.8s.3 26.1.3 26.1l3.1 3 .8-16.2z"/><path fill="#FFF" d="M108.3 115.2s.3 10.1-4.5 12.9c-4.3 2.5-6.2 3-6.2 3s20.9 8.4 37.6 1.6c-9-2.4-8.4-5.5-8.4-5.5l-1.6-10.4-16.9-1.6z"/><path fill="none" stroke="#00A78E" stroke-width="2.93" stroke-miterlimit="10" d="M108.3 115.2s.3 10.1-4.5 12.9c-4.3 2.5-6.2 3-6.2 3s20.9 8.4 37.6 1.6c-9-2.4-8.4-5.5-8.4-5.5l-1.6-10.4-16.9-1.6z"/><path fill="#FFF" d="M165.8 155.5l-.2.1c.6.8.2-.1.2-.1"/><path fill="none" stroke="#00A78E" stroke-width="2" stroke-miterlimit="10" d="M165.8 155.5l-.2.1c.6.8.2-.1.2-.1z"/><path fill="#FFF" d="M135.2 130.7c-2.8 1.7-6 2.9-9.3 3.4l-8.7 1.3-37.8-5.8L66.2 156l18.3 12.2-2.2 12.6c-.4 3.3-1.1 16.1-.4 24.8l2.2 16.4h.5c0 .4 0 .9.1 1.3l61.1.1c.4-5.2.6-10.3.6-14.9l.1-.4c1-10.5.8-22 .5-25.6l-2.5-21 2.4 8.6 18.9-14.2c-.5-.8-2-3.2-5.9-10-7.7-13.7-24.7-15.2-24.7-15.2"/><path fill="none" stroke="#00A78E" stroke-width="2" stroke-miterlimit="10" d="M135.2 130.7c-2.8 1.7-6 2.9-9.3 3.4l-8.7 1.3-37.8-5.8L66.2 156l18.3 12.2-2.2 12.6c-.4 3.3-1.1 16.1-.4 24.8l2.2 16.4h.5c0 .4 0 .9.1 1.3l61.1.1c.4-5.2.6-10.3.6-14.9l.1-.4c1-10.5.8-22 .5-25.6l-2.5-21 2.4 8.6 18.9-14.2c-.5-.8-2-3.2-5.9-10-7.7-13.7-24.7-15.2-24.7-15.2z"/></svg>