<svg xmlns="http://www.w3.org/2000/svg" width="120.3" height="277.5" viewBox="0 0 120.3 277.5">
  <path fill="#FFF" d="M54.4 104s.2 8.4-3.7 10.7c-3.6 2.1-5.2 2.5-5.2 2.5s17.4 7 31.4 1.3c-7.5-2-7-4.6-7-4.6l-1.3-8.7-14.2-1.2z"/>
  <path fill="none" stroke="#00A78E" stroke-width="3.076" stroke-miterlimit="10" d="M54.4 104s.2 8.4-3.7 10.7c-3.6 2.1-5.2 2.5-5.2 2.5s17.4 7 31.4 1.3c-7.5-2-7-4.6-7-4.6l-1.3-8.7-14.2-1.2z"/>
  <path fill="#FFF" d="M34 276.7l-4-63.3h59l-1.3 63.3H63.6v-51.3c0-1.3-.9-2.4-3.6-2.4s-3.6 1.1-3.6 2.4v51.3H34zm-10.4-69.9c.6 1.6.6 3.1-1.6 2.6l-.5-.8-3-4.8-1.3 1c-.7.6-1 1.4-.8 2.2.2.6.4 1.4.5 1.9.1.4.4.7.8 1l2.3 1.9c.6.5.2.9 0 1.2l-.4.2c-.6.3-1.6.2-2.1-.3l-2.5-2.1c-.3-.1-.5-.3-.6-.5L11 204c-.2-.4-.4-2-.2-2.3l2.9-5.6c.1-.2.4-1.4.4-1.6L11.6 168l.8-4.5s4.7-22.2 6.4-21.6l16 5.9c1.2.5-4.8 11.4-4.8 11.4-2.8 5.3-3.8 7.1-4.8 10.4l-3 27.7v.4l1.4 9.1z"/>
  <path fill="none" stroke="#00A78E" stroke-miterlimit="10" d="M23.6 206.8c.6 1.6.6 3.1-1.6 2.6l-.5-.8-3-4.8-1.3 1c-.7.6-1 1.4-.8 2.2.2.6.4 1.4.5 1.9.1.4.4.7.8 1l2.3 1.9c.6.5.2.9 0 1.2l-.4.2c-.6.3-1.6.2-2.1-.3l-2.5-2.1c-.3-.1-.5-.3-.6-.5L11 204c-.2-.4-.4-2-.2-2.3l2.9-5.6c.1-.2.4-1.4.4-1.6L11.6 168l.8-4.5s4.7-22.2 6.4-21.6l16 5.9c1.2.5-4.8 11.4-4.8 11.4-2.8 5.3-3.8 7.1-4.8 10.4l-3 27.7v.4l1.4 9.1z"/>
  <path fill="#FFF" d="M105.4 211.7c-.4 0-.7-.1-1-.2l-.5-.3-.1-.2c-.2-.3-.7-1.1.1-1.8l2.3-2c.3-.3.5-.5.6-.8l.5-1.9c.2-.6 0-1.2-.6-1.7l-.8-.6-3.2 5.4h-.2c-.3.1-.6.1-.9.1-.8 0-1.2-.3-1.4-.6-.4-.6-.4-1.5 0-2.7l1.3-9.1v-.3l-3.2-27.6c-.6-1.4-1.6-3.4-3-5.7-.1-.2-.2-.3-.2-.3-2.7-4.1-8.9-13.9-8.4-15.4.1-.2.2-.3.4-.4l16-6.3h.2c1.7 0 5.7 11.7 8.7 21.5l.9 4.6-2.2 26.7c0 .2.3 1.2.4 1.3l3 5.5c.2.6.1 2.3-.2 2.8l-3.4 6.4c-.1.3-.4.5-.8.7l-2.4 2.2c-.6.5-1.3.7-1.9.7"/>
  <path fill="#00A78E" d="M103.2 139.9c1.7 0 8.2 21.2 8.2 21.2l.8 4.5-2.2 26.7c0 .2.3 1.4.4 1.6l3 5.6c.1.4 0 2-.2 2.3l-3.4 6.4c-.1.2-.3.4-.6.5l-2.5 2.2c-.4.3-.9.5-1.4.5-.3 0-.5-.1-.7-.2l-.4-.2c-.2-.4-.6-.8-.1-1.2l2.3-2c.4-.3.7-.7.8-1 .1-.5.3-1.3.5-1.9.2-.8-.1-1.6-.8-2.2l-1.3-.9-2.9 4.9-.5.8c-.3.1-.5.1-.8.1-1.4 0-1.3-1.3-.9-2.7l1.3-9.1v-.4l-3.3-27.7c-1-2.6-3.1-6-3.2-6.1 0 0-9.6-14.6-8.3-15.1l16.2-6.6m0-1c-.2 0-.3 0-.4.1l-15.9 6.3c-.3.1-.6.4-.7.7-.1.5-.6 1.9 8.5 15.9 0 .1.1.1.1.2 1.4 2.3 2.3 4.2 2.9 5.6l3.2 27.5v.1l-1.3 9.1c-.3.9-.6 2.2.1 3.1.3.4.8.8 1.8.8.3 0 .6 0 1-.1l.4-.1.2-.4.5-.8 2.3-3.9.4.3c.4.3.6.7.4 1.1l-.5 1.9c0 .2-.2.3-.4.5l-2.3 2c-.8.7-.8 1.5-.2 2.5l.1.1.2.2.3.1.4.2c.3.2.8.3 1.2.3.8 0 1.5-.3 2-.7l2.4-2.1c.4-.2.7-.5.9-.9l3.4-6.4c.3-.6.5-2.5.2-3.2l-3-5.5c-.1-.2-.3-.9-.3-1.2l2.2-26.6v-.2l-.8-4.5v-.2c0-.1-1.6-5.4-3.5-10.6-4-11.2-4.9-11.2-5.8-11.2"/>
  <path fill="#FFF" d="M112.1 145.5l-18.8 14.2-2.4-8.5 2.5 20.7c.3 3.5 12.8 68 12.8 68l-83.3-2.2s6.1-64.1 6.5-67.4l3.4-19.3-2.9 8L13 146.1s-1.8 2.6 5.7-10.8c7.5-13.3 24.1-18 24.1-18l20 2.6 19.1-1.3s17.7 3.7 25.2 17c7.7 13.4 5 9.9 5 9.9"/>
  <path fill="none" stroke="#00A78E" stroke-width="2.562" stroke-miterlimit="10" d="M112.1 145.5l-18.8 14.2-2.4-8.5 2.5 20.7c.3 3.5 12.8 68 12.8 68l-83.3-2.2s6.1-64.1 6.5-67.4l3.4-19.3-2.9 8L13 146.1s-1.8 2.6 5.7-10.8c7.5-13.3 24.1-18 24.1-18l20 2.6 19.1-1.3s17.7 3.7 25.2 17c7.7 13.4 5 9.9 5 9.9"/>
  <path fill="#FFF" d="M57 277.3s-1-9.7-17.4-8.8c-16.3.9-17.6 7.2-18.2 9m78.6-.2s-1-9.7-17.4-8.8c-16.3.9-17.6 7.2-18.2 9"/>
  <path fill="#00A78E" d="M119.8 57.7c0 12.9-10.1 23.3-22.9 23.9C83.3 82.2 72 71 72 57.3c-.1-13 10.7-22.2 23.8-22.2 13.1.1 24 9.4 24 22.6"/>
  <path fill="none" stroke="#FFF" stroke-miterlimit="10" d="M119.8 57.7c0 12.9-10.1 23.3-22.9 23.9C83.3 82.2 72 71 72 57.3c-.1-13 10.7-22.2 23.8-22.2 13.1.1 24 9.4 24 22.6z"/>
  <path fill="#00A78E" d="M48.4 57.7c0 12.9-10.1 23.3-22.9 23.9C11.9 82.2.6 71 .5 57.3c-.1-13 10.7-22.2 23.8-22.2 13.2.1 24.1 9.4 24.1 22.6"/>
  <path fill="none" stroke="#FFF" stroke-miterlimit="10" d="M48.4 57.7c0 12.9-10.1 23.3-22.9 23.9C11.9 82.2.6 71 .5 57.3c-.1-13 10.7-22.2 23.8-22.2 13.2.1 24.1 9.4 24.1 22.6z"/>
  <path fill="#FFF" d="M18.7 44.6c3.6-39.1 17.7-42.5 27.9-43S83.1-.5 95 12.3c9 9.6 8.8 11.6 5 40.7-2 15.4.4 21.1-15.1 37.2C69.6 106.1 70.4 104 53.6 104c-4 0-11.5-4.8-21.7-14.3C16.2 74.9 19.2 60.9 18.7 56"/>
  <path fill="#00A78E" d="M47.8 54.6c0 2.5-2.2 4.5-4.9 4.5s-4.9-2-4.9-4.5 2.2-4.5 4.9-4.5 4.9 2 4.9 4.5"/>
  <path fill="#00A78E" d="M51.5 54.7s-.4-.3-1-.8-1.6-1.1-2.7-1.6c-.6-.3-1.2-.5-1.8-.8-.7-.2-1.4-.4-2.1-.5-.7-.1-1.5-.1-2.2 0-.8 0-1.5.3-2.2.6-.7.3-1.5.6-2.1 1.1-.7.4-1.3 1-2 1.5-.6.5-1.3 1.2-2.1 1.6-.4.2-.8.4-1.1.5-.4.1-.7.2-1.1.2-1.4.1-2.5-.2-3.2-.7-.7-.4-1-.8-1-.8s.4.2 1.1.3c.7.1 1.7 0 2.9-.4.3-.1.6-.2.8-.4.3-.2.6-.3.8-.5.5-.4.9-1.1 1.7-1.7.7-.7 1.3-1.4 2.1-1.9.8-.6 1.6-1 2.5-1.4.9-.3 1.8-.6 2.7-.6.9-.1 1.8.1 2.6.3.4.1.8.2 1.2.4.4.2.8.4 1.1.6.7.4 1.3.8 1.9 1.3.6.4 1 1 1.4 1.4.4.4.7.9 1 1.2.6.7.8 1.1.8 1.1"/>
  <path fill="#00A78E" d="M41.2 53c0 .9-.4 1.6-1 1.6-.5 0-1-.7-1-1.6 0-.9.4-1.6 1-1.6.6-.1 1 .6 1 1.6m12.4-14.9s2.8 2.9-4.6 3.7c-7.4.8-13.5-5.1-16.8-.8-3.4 4.3-9.2 5.9-4.4 1.7 4.8-4.2 3.7-6.8 11.3-6.3 7.5.5 14 .5 14.5 1.7m12.3 1.8s-2.2 3.5 5.1 2.5 12.4-8.3 16.4-4.9c4 3.3 10 3.5 4.6.6s-4.8-5.7-12.1-3.3c-7.3 2.2-13.7 3.8-14 5.1"/>
  <path fill="#FFF" d="M60.1 62.3S62.7 70 65 72.5c8.3 9.1-14.6 7.7-8.8 4.4"/>
  <path fill="#00A78E" d="M60.1 62.3s.2.4.7 1.2c.2.4.5.8.7 1.3.3.5.6 1.1.9 1.7.3.6.7 1.3 1.1 2 .4.7.8 1.4 1.3 2.1.5.7.9 1.2 1.7 2.1.6.8 1.3 1.8 1.4 3.1.1.7-.1 1.4-.5 2-.4.6-.9 1-1.3 1.3-1 .6-2 .8-2.9 1-1.9.3-3.6.1-5.1-.2-.7-.2-1.4-.4-2-.7-.3-.1-.5-.3-.7-.6-.2-.2-.3-.6-.2-.9.2-.5.6-.6.8-.7.2-.1.3-.1.3-.1s-.2.1-.3.2c-.2.1-.4.4-.5.7-.1.3.3.5.8.7.5.2 1.1.2 1.8.3 1.4.1 3 0 4.6-.5.8-.2 1.6-.5 2.2-.9.6-.5.9-.9.8-1.4 0-.6-.5-1.3-1-2-.5-.6-1.3-1.5-1.7-2.3-.9-1.7-1.5-3.2-2-4.6-.7-2.8-.9-4.8-.9-4.8M48.5 85.8s15.1 7.4 23.9-4.6c-6.4 20.5-25.7 3.2-23.9 4.6m23.9-31.6c0 2.5 2.2 4.5 4.9 4.5s4.9-2 4.9-4.5-2.2-4.5-4.9-4.5-4.9 2-4.9 4.5"/>
  <path fill="#00A78E" d="M68.3 54.3s.4-.3 1-.8 1.6-1.1 2.7-1.6c.6-.3 1.2-.5 1.9-.8.7-.2 1.4-.4 2.1-.5.7-.1 1.5-.1 2.2 0 .8 0 1.5.3 2.2.6.7.3 1.5.6 2.1 1.1.7.4 1.3 1 2 1.5.6.5 1.3 1.2 2.1 1.6.4.2.8.4 1.1.5.4.1.7.2 1.1.2 1.4.1 2.5-.2 3.2-.7.7-.4 1-.8 1-.8s-.4.2-1.1.3c-.7.1-1.7 0-2.9-.4-.3-.1-.6-.2-.8-.4-.3-.2-.6-.3-.8-.5-.6-.4-1-1.1-1.7-1.7-.7-.7-1.3-1.4-2.1-1.9-.8-.6-1.6-1-2.5-1.4-.9-.3-1.8-.6-2.7-.6-.9-.1-1.8.1-2.7.3-.4.1-.8.2-1.2.4-.4.2-.8.4-1.1.6-.7.4-1.3.8-1.9 1.3-.6.4-1 1-1.4 1.4-.4.4-.7.9-1 1.2-.5.6-.8 1.1-.8 1.1m5.7-1.4c0 .9.4 1.6 1 1.6.5 0 1-.7 1-1.6 0-.9-.4-1.6-1-1.6-.5 0-1 .7-1 1.6m4.1-38.7s16.5 13.6 18.2 24.7c1.8 11-.1 32-.1 32s6.6-19.4 7.6-28.3c.7-5.9.8-14.3.3-22.1-.5-7.8-10-16.6-17.8-16H86c-11.6 1.1-7.9 9.7-7.9 9.7"/>
  <path fill="none" stroke="#FFF" stroke-miterlimit="10" d="M78.1 14.2s16.5 13.6 18.2 24.7c1.8 11-.1 32-.1 32s6.6-19.4 7.6-28.3c.7-5.9.8-14.3.3-22.1-.5-7.8-10-16.6-17.8-16H86c-11.6 1.1-7.9 9.7-7.9 9.7z"/>
  <path fill="#00A78E" d="M17.2 42.6s.5-34.5 23-40.1C62.7-3 86 4.5 86 4.5S68.3 35.1 17.2 42.6"/>
  <path fill="none" stroke="#FFF" stroke-miterlimit="10" d="M17.2 42.6s.5-34.5 23-40.1C62.7-3 86 4.5 86 4.5S68.3 35.1 17.2 42.6z"/>
  <path fill="#FFF" d="M46.1 54.6c0 .7-.4 1.3-.9 1.3s-.9-.6-.9-1.3c0-.7.4-1.3.9-1.3.5-.1.9.5.9 1.3m34.7 0c0 .7-.4 1.3-.9 1.3s-.9-.6-.9-1.3c0-.7.4-1.3.9-1.3.5-.1.9.5.9 1.3m15.8-1.2s1.3-11.2 4.7-8.1c2.9 2.6 4.2 14.6 2.5 23-.8 3.7-5.2 8-7.1 6.1-1.8-1.8-.1-21-.1-21m-74.9.9s-1.6-11.2-5.3-8c-3.9 3.4-3.5 17.8-2.2 23.1.9 3.7 5.9 7.8 7.9 5.9 2-1.9-.4-21-.4-21"/>
</svg>