<svg xmlns="http://www.w3.org/2000/svg" width="105.5" height="280.3" viewBox="0 0 105.5 280.3">
  <path fill="#FFF" d="M90.5 279.2s-.8-7.5-12.1-8.7l1.2-55.2h-59l3.5 55.7c-10.5 1.9-11.5 6.8-12.1 8.3l35.5-.1s-.1-.7-.5-1.8v-50.1c0-1.4.9-2.4 3.6-2.4s3.6 1.1 3.6 2.4v51.3h1.1c-.1.3-.2.6-.3.8l35.5-.2z"/>
  <path fill="none" stroke="#00A78E" stroke-width="2" stroke-miterlimit="10" d="M90.5 279.2s-.8-7.5-12.1-8.7l1.2-55.2h-59l3.5 55.7c-10.5 1.9-11.5 6.8-12.1 8.3l35.5-.1s-.1-.7-.5-1.8v-50.1c0-1.4.9-2.4 3.6-2.4s3.6 1.1 3.6 2.4v51.3h1.1c-.1.3-.2.6-.3.8l35.5-.2z"/>
  <path fill="#FFF" d="M44.9 105.8s.2 8.4-3.7 10.7c-3.6 2.1-5.2 2.5-5.2 2.5s17.4 7 31.4 1.3c-7.5-2-7-4.6-7-4.6l-1.3-8.7-14.2-1.2z"/>
  <path fill="none" stroke="#00A78E" stroke-width="3.076" stroke-miterlimit="10" d="M44.9 105.8s.2 8.4-3.7 10.7c-3.6 2.1-5.2 2.5-5.2 2.5s17.4 7 31.4 1.3c-7.5-2-7-4.6-7-4.6l-1.3-8.7-14.2-1.2z"/>
  <path fill="#FFF" d="M14.1 208.7c.6 1.6.6 3.1-1.6 2.6l-.5-.8-3-4.8-1.3 1c-.7.6-1 1.4-.8 2.2.2.6.4 1.4.5 1.9.1.4.4.7.8 1l2.3 1.9c.6.5.2.9 0 1.2l-.4.2c-.6.3-1.6.2-2.1-.3l-2.5-2.1c-.3-.1-.5-.3-.6-.5L1.5 206c-.2-.4-.4-2-.2-2.3l2.9-5.6c.1-.2.4-1.4.4-1.6L2.1 170l.8-4.5s4.7-22.2 6.4-21.6l16 5.9c1.2.5-4.8 11.4-4.8 11.4-2.8 5.3-3.8 7.1-4.8 10.4l-3 27.7v.4l1.4 9z"/>
  <path fill="none" stroke="#00A78E" stroke-miterlimit="10" d="M14.1 208.7c.6 1.6.6 3.1-1.6 2.6l-.5-.8-3-4.8-1.3 1c-.7.6-1 1.4-.8 2.2.2.6.4 1.4.5 1.9.1.4.4.7.8 1l2.3 1.9c.6.5.2.9 0 1.2l-.4.2c-.6.3-1.6.2-2.1-.3l-2.5-2.1c-.3-.1-.5-.3-.6-.5L1.5 206c-.2-.4-.4-2-.2-2.3l2.9-5.6c.1-.2.4-1.4.4-1.6L2.1 170l.8-4.5s4.7-22.2 6.4-21.6l16 5.9c1.2.5-4.8 11.4-4.8 11.4-2.8 5.3-3.8 7.1-4.8 10.4l-3 27.7v.4l1.4 9z"/>
  <path fill="#FFF" d="M95.9 213.5c-.4 0-.7-.1-1-.2l-.5-.3-.1-.2c-.2-.3-.7-1.1.1-1.8l2.3-2c.3-.3.5-.5.6-.8l.5-1.9c.2-.6 0-1.2-.6-1.7l-.8-.6-3.2 5.4H93c-.3.1-.6.1-.9.1-.8 0-1.2-.3-1.4-.6-.4-.6-.4-1.5 0-2.7l1.3-9.1v-.3l-3.3-27.6c-.6-1.4-1.6-3.4-3-5.7-.1-.2-.2-.3-.2-.3-2.7-4.1-8.9-13.9-8.4-15.4.1-.2.2-.3.4-.4l16-6.3h.2c1.7 0 5.7 11.7 8.7 21.5l.9 4.6-2.2 26.7c0 .2.3 1.2.4 1.3l3 5.5c.2.6.1 2.3-.2 2.8l-3.4 6.4c-.2.3-.4.5-.8.7l-2.4 2.2c-.5.5-1.1.7-1.8.7"/>
  <path fill="#00A78E" d="M93.7 141.7c1.7 0 8.2 21.2 8.2 21.2l.8 4.5-2.2 26.7c0 .2.3 1.4.4 1.6l3 5.6c.1.4 0 2-.2 2.3l-3.4 6.4c-.1.2-.3.4-.6.5l-2.5 2.2c-.4.3-.9.5-1.4.5-.3 0-.5-.1-.7-.2l-.4-.2c-.2-.4-.6-.8-.1-1.2l2.3-2c.4-.3.7-.7.8-1 .1-.5.3-1.3.5-1.9.2-.8-.1-1.6-.8-2.2l-1.3-.9-2.9 4.9-.5.8c-.3.1-.5.1-.8.1-1.4 0-1.3-1.3-.9-2.7l1.3-9.1v-.4L89 169.5c-1-2.6-3.1-6-3.2-6.1 0 0-9.6-14.6-8.3-15.1l16.2-6.6m0-1c-.2 0-.3 0-.4.1l-15.9 6.3c-.3.1-.6.4-.7.7-.1.5-.6 1.9 8.5 15.9 0 .1.1.1.1.2 1.4 2.3 2.3 4.2 2.9 5.6l3.2 27.5v.1l-1.3 9.1c-.3.9-.6 2.2.1 3.1.3.4.8.8 1.8.8.3 0 .6 0 1-.1l.4-.1.2-.4.5-.8 2.3-3.9.4.3c.4.3.6.7.4 1.1l-.4 1.4-.1.5c0 .2-.2.3-.4.5l-2.3 2c-.8.7-.8 1.5-.2 2.5l.1.1.2.2.2.1.4.2c.3.2.8.3 1.2.3.8 0 1.5-.3 2-.7l2.4-2.1c.4-.2.7-.5.9-.9l3.4-6.4c.3-.6.5-2.5.2-3.2l-3-5.5c-.1-.2-.3-.9-.3-1.2l2.2-26.6v-.2l-.8-4.5v-.2c0-.1-1.6-5.4-3.5-10.6-3.9-11.2-4.8-11.2-5.7-11.2"/>
  <path fill="#FFF" d="M102.6 147.3l-18.8 14.2-2.4-8.5 2.5 20.7c.3 3.5 12.8 68 12.8 68l-83.3-2.2s6.1-64.1 6.5-67.4l3.4-19.3-2.9 8-16.8-12.9s-1.8 2.6 5.7-10.8c7.5-13.3 24.1-18 24.1-18l20 2.6 19.1-1.3s17.7 3.7 25.2 17c7.6 13.5 4.9 9.9 4.9 9.9"/>
  <path fill="none" stroke="#00A78E" stroke-width="2.562" stroke-miterlimit="10" d="M102.6 147.3l-18.8 14.2-2.4-8.5 2.5 20.7c.3 3.5 12.8 68 12.8 68l-83.3-2.2s6.1-64.1 6.5-67.4l3.4-19.3-2.9 8-16.8-12.9s-1.8 2.6 5.7-10.8c7.5-13.3 24.1-18 24.1-18l20 2.6 19.1-1.3s17.7 3.7 25.2 17c7.6 13.5 4.9 9.9 4.9 9.9"/>
  <path fill="#FFF" d="M9.2 46.5C12.8 7.4 26.9 4 37.1 3.5s36.5-2.1 48.4 10.6c9 9.6 8.8 11.6 5 40.7-2 15.4.4 21.1-15.1 37.2-15.3 15.9-14.5 13.8-31.3 13.8-4 0-11.5-4.8-21.7-14.3C6.7 76.8 9.7 62.7 9.2 57.8"/>
  <path fill="#00A78E" d="M38.3 56.4c0 2.5-2.2 4.5-4.9 4.5s-4.9-2-4.9-4.5 2.2-4.5 4.9-4.5c2.7.1 4.9 2.1 4.9 4.5"/>
  <path fill="#00A78E" d="M42 56.6s-.4-.3-1-.8-1.6-1.1-2.7-1.6c-.6-.3-1.2-.5-1.8-.8-.7-.2-1.4-.4-2.1-.5-.7-.1-1.5-.1-2.2 0-.8 0-1.5.3-2.2.6-.7.3-1.5.6-2.1 1.1-.7.4-1.3 1-2 1.5-.6.5-1.3 1.2-2.1 1.6-.4.2-.8.4-1.1.5-.4.1-.7.2-1.1.2-1.4.1-2.5-.2-3.2-.7-.7-.4-1-.8-1-.8s.4.2 1.1.3c.7.1 1.7 0 2.9-.4.3-.1.6-.2.8-.4.3-.2.6-.3.8-.5.5-.4.9-1.1 1.7-1.7.7-.7 1.3-1.4 2.1-1.9.8-.6 1.6-1 2.5-1.4.9-.3 1.8-.6 2.7-.6.9-.1 1.8.1 2.6.3.4.1.8.2 1.2.4.4.2.8.4 1.1.6.7.4 1.3.8 1.9 1.3.6.4 1 1 1.4 1.4.4.4.7.9 1 1.2.6.6.8 1.1.8 1.1M44.1 40s2.8 2.9-4.6 3.7c-7.4.8-13.5-5.1-16.8-.8-3.4 4.3-9.2 5.9-4.4 1.7 4.8-4.2 3.7-6.8 11.3-6.3 7.5.5 14 .4 14.5 1.7m12.3 1.8s-2.2 3.5 5.1 2.5c7.4-1 12.4-8.3 16.4-4.9s10 3.5 4.6.6-4.8-5.7-12.1-3.3c-7.3 2.2-13.7 3.7-14 5.1"/>
  <path fill="#FFF" d="M50.6 64.2s2.6 7.7 4.9 10.2c8.3 9.1-14.6 7.7-8.8 4.4"/>
  <path fill="#00A78E" d="M50.6 64.2s.2.4.7 1.2c.2.4.4.8.7 1.3.3.5.6 1.1.9 1.7.3.6.7 1.3 1.1 2 .4.7.8 1.4 1.3 2.1.5.7.9 1.2 1.7 2.1.6.8 1.3 1.8 1.4 3.1.1.7-.1 1.4-.5 2-.4.6-.9 1-1.3 1.3-1 .6-2 .8-2.9 1-1.9.3-3.6.1-5.1-.2-.7-.2-1.4-.4-2-.7-.3-.1-.5-.3-.7-.6-.2-.2-.3-.6-.2-.9.2-.5.6-.6.8-.7.2-.1.3-.1.3-.1s-.1.1-.3.2c-.2.1-.4.4-.5.7-.1.3.3.5.8.7.5.2 1.1.2 1.8.3 1.4.1 3 0 4.6-.5.8-.2 1.6-.5 2.2-.9.6-.5.9-.9.8-1.4 0-.6-.5-1.3-1-2-.5-.6-1.3-1.5-1.7-2.3-.9-1.7-1.5-3.2-2-4.6-.7-2.9-.9-4.8-.9-4.8M39 87.7s15.1 7.4 23.9-4.6c-6.4 20.4-25.7 3.1-23.9 4.6M62.9 56c0 2.5 2.2 4.5 4.9 4.5s4.9-2 4.9-4.5-2.2-4.5-4.9-4.5c-2.7.1-4.9 2.1-4.9 4.5"/>
  <path fill="#00A78E" d="M58.8 56.2s.4-.3 1-.8 1.6-1.1 2.7-1.6c.6-.3 1.2-.5 1.9-.8.7-.2 1.4-.4 2.1-.5.7-.1 1.5-.1 2.2 0 .8 0 1.5.3 2.2.6.7.3 1.5.6 2.1 1.1.7.4 1.3 1 2 1.5.6.5 1.3 1.2 2.1 1.6.4.2.8.4 1.1.5.4.1.7.2 1.1.2 1.4.1 2.5-.2 3.2-.7.7-.4 1-.8 1-.8s-.4.2-1.1.3c-.7.1-1.7 0-2.9-.4-.3-.1-.6-.2-.8-.4-.3-.2-.6-.3-.8-.5-.6-.4-1-1.1-1.7-1.7-.7-.7-1.3-1.4-2.1-1.9-.8-.6-1.6-1-2.5-1.4-.9-.3-1.8-.6-2.7-.6-.9-.1-1.8.1-2.7.3-.4.1-.8.2-1.2.4-.4.2-.8.4-1.1.6-.7.4-1.3.8-1.9 1.3-.6.4-1 1-1.4 1.4-.4.4-.7.9-1 1.2-.5.6-.8 1.1-.8 1.1"/>
  <path fill="#FFF" d="M36.6 56.4c0 .7-.4 1.3-.9 1.3s-.9-.6-.9-1.3c0-.7.4-1.3.9-1.3s.9.6.9 1.3m34.7 0c0 .7-.4 1.3-.9 1.3s-.9-.6-.9-1.3c0-.7.4-1.3.9-1.3s.9.6.9 1.3"/>
  <path fill="#00A78E" d="M33.8 13.5c1.5 4 .7 12.8-2.6 15.5-3.2 2.7-7.3 4.4-10.6 7-3.8 3-6.5 7.3-7.6 11.9-.7 3-.8 6.1-.7 9.2.2 4.4 3.8 7.1 5.9 11 1.6 3 1.6 5.7 4.7 7.2 1.2.6 3.3 6.2 2 5.8-.2-.1-2.9.8-3.6.5-.8-.3-1.8-3.3-2.6-3-1.8.8 3.2 5.7 4 6.9 4.1 6.4 9.9 4.2 12.5 11.4 1.8 4.9 6 14.8 1.7 17.8-1.5 1.1-8.1 1.9-9.2 3.4-.7.9-3.4-2.3-4.2-1.5-1.9 2.2-5.5 2.3-7.8 3.2-2.6 1-5.6.8-7.9-.9-5.4-4.1-1.4-9.7.3-14.8C10 99.2 9.5 93.6 7 89.2c-1.2-2.2-2.9-4.1-4.1-6.3-3.4-6.2-2.5-14 .2-20.6 1.2-2.9 2.2-8.7 1.6-11.8"/>
  <path fill="#FFF" d="M33.1 13.7c1.1 3.7.9 8.1-.5 11.7-1.8 4.8-7.8 6.6-11.7 9.5-6.5 4.9-9.5 12.4-9.4 20.4.1 3.7 1.1 6.1 3.3 9.1 2.2 3.1 3.3 6.9 5.5 9.8 1.1 1.4 5.5 4.5 4.1 6.3-1.9 2.5-3.9-2.1-5.4-2.6-.3-.1-.5 0-.7.2-2.1 2 2.1 5.6 3.2 7 1.5 1.9 2.7 3.6 4.8 4.9 2.9 1.9 6 2.6 7.8 5.9 1.4 2.7 2.4 6 3.2 9 1.3 4.7 1.6 8.5-3.6 10.2-1.6.5-4.2 1.9-5.8 1.9-1.6.1-2.3-1.2-3.8-1.3-.3 0-.6.3-.9.3-1 .2-3.8 2-5.3 2.4-2.4.6-4.8 1.6-7.3.9-4.3-1.3-4.9-5-4.1-8.6.7-3.3 2.7-6.1 3.3-9.5.5-3.1.2-6.4-.8-9.4s-3.1-5.3-4.7-8c-2.8-4.6-3.4-9.7-2.4-15C3.1 62.4 6.3 57 5.4 50.3c-.1-1-1.6-.5-1.4.4C5 58.4.3 65.1.1 72.7c-.1 3 .3 6.1 1.5 8.9 1.4 3.3 4 6 5.5 9.3 2 4.4 2 9.1.4 13.7-1 2.8-2.6 5.5-2.8 8.5-.2 4.2 3.1 7.6 7.2 8 2.6.3 5.3-.8 7.7-1.5 1.1-.3 2.1-.8 3.1-1.2 1.5-.5 2.2-.1 3.5.1 1.1.2 1.1.4 2.2.2s2.5-1.2 3.7-1.6c1.3-.4 2.8-.6 4-1.1 3.3-1.4 3.9-4.3 3.5-7.7-.5-4.5-2.2-10.7-4.9-14.4-1.6-2.2-3.8-3.1-6.1-4.4-2.9-1.7-4.8-4.1-6.9-6.6-.5-.6-.9-1.3-1.5-1.8-2.2-2.1.1.2-.2 0 .4.2.6 1 1.1 1.2 1.2.5 3.2-.3 4.4-.5.3 0 .5-.3.5-.5 1.2-4.2-4.6-7.8-5.9-10.9-1.4-3.2-3.5-5.6-5.2-8.5-3.1-5.2-2.1-12.8.5-18.1 2.4-4.9 6.5-7.9 11-10.6 2.3-1.4 5.2-2.8 6.7-5.2 2.6-4 2.8-10.2 1.5-14.7-.4-.9-1.8-.5-1.5.4"/>
  <path fill="#00A78E" d="M32.7 14.8c1.4 5.5 6 9.8 11.3 11.9 5.3 2.1 11.1 2.3 16.7 1.9 5.7-.4 11.7-1.4 17 .8 4.9 2.1 8.3 6.8 9.6 11.9 1.4 5.1.9 10.6-.3 15.7-.7 2.8-1.7 5.8-4.1 7.3-3.4 2.2-8.2.9-10.6 5.6.4 8.3 11.6-.2 12.7 7-.5 2.9-2.7 4.1-4.8 5.3-6.2 3.6-11.8 8.2-16.6 13.5-2.2 5.4 5.9 4.7 6.5 8.6.5 3.5-6.2 5.5-.4 10.6 7.1 2.1 14.5 3.3 22 3.5 2.1 0 4.2 0 6.1-.6 5.3-1.7 8.4-8.4 6.3-13.6-1.6-4-5.6-6.7-6.7-10.9-1.2-4.7 1.7-9.4 2.4-14.2.9-6.2-1.9-12.3-3.1-18.4-2.5-13 2.3-27.2-2.8-39.4-3.3-7.9-10.5-13.8-18.5-16.9-9.8-3.9-20.7-4-31-3.3-4.2.3-8.5.9-12.6 1.6-3.3.7-6.8 1.3-9.6 3.1-2.3 1.5-4.2 3.6-5.8 5.9-6.2 8.3-10.5 18-12.5 28.1-.8 3.9-.4 6.9.8 10.7"/>
  <path fill="#FFF" d="M32 15c1.8 5.8 6.2 10.1 11.8 12.4 8.1 3.3 16.3 1.6 24.7 1.4 12.6-.3 19.6 9.2 18.9 21.3-.3 5.8-1.5 12.7-7.7 14.8-2.2.8-4.6.9-6.4 2.6-2.3 2.2-2.2 5.7 1 6.9 1.5.6 3.3.3 4.9.2 1.3 0 4-.4 4.6 1.2.7 1.8-1.7 4.5-2.9 5.2-.8.5-1.7 1-2.5 1.4-3.3 2.1-6.5 4.4-9.5 7-2 1.8-5.8 4.4-6.4 7.2-.9 4.5 5 4.4 5.9 7.9.9 3.7-4.8 7.8.8 11.1 2.9 1.7 7.8 2.1 11.1 2.6 4.2.7 8.6 1.2 12.9 1 5.6-.2 10.4-2.8 11.9-8.5 1.9-7.2-4.2-10.4-6.5-16.3-2-5.2 1.2-9.9 1.9-15 .5-3.6-.1-7-1-10.5-1.2-4.7-2.5-9.3-2.8-14.2-.3-5 .2-9.9.3-14.8.2-7.7-.2-15.5-4.2-22.3-3.6-6-9.3-10.5-15.6-13.3C68.6.5 58.9-.3 49.6.1c-8.5.3-19.5.5-27.1 4.7-7.4 4.1-12.2 14-15.3 21.5-3.3 7.9-5.7 16-3.3 24.5.3.9 1.7.5 1.4-.4-2.5-8.7.5-17.6 4.2-25.7C13.1 16.9 18.4 7.2 27 4.6c8-2.4 16.9-3 25.2-3.1 8.7-.1 17.7.9 25.6 4.7 7.4 3.6 13.6 9.7 16.2 17.7 2.6 7.9 1.4 16.5 1.2 24.7-.2 7.7 1.3 14.1 3.1 21.5 1.1 4.7.9 9-.4 13.6-.8 2.7-1.8 5.4-1.5 8.3.8 7.4 10.1 11.2 6.8 19.4-3.7 9.5-18.4 6.2-26.1 4.7-4-.8-10.7-2.1-8.1-7.3.7-1.4 1.9-2.4 1.8-4-.1-3.8-4.6-3.2-6.1-5.7-.5-.9.7-3.8 1.1-4.5.4-.6 1.2-1.2 1.7-1.8 1.4-1.3 2.8-2.6 4.3-3.8 3.2-2.6 6.8-4.5 10.2-6.9 2.3-1.6 5.1-4.7 2.5-7.5-1.9-2.1-5-1.2-7.5-1.3-2.2-.1-7-.7-2.1-5.2.9-.9 2.8-1.1 3.9-1.4 2-.5 4-1 5.5-2.6 4.4-4.3 4.9-13.5 4.2-19.2-.7-5.7-3.4-11.3-8.2-14.6-6.7-4.5-14.9-2.4-22.4-2.2-10 .3-21.4-2.7-24.7-13.4 0-1-1.5-.6-1.2.3"/>
</svg>