<svg xmlns="http://www.w3.org/2000/svg" width="106.6" height="294.4" viewBox="0 0 106.6 294.4">
  <path fill="#FFF" d="M86.2 70.1s1.2-10.4 4.4-7.5c2.7 2.4 4 13.6 2.4 21.4-.7 3.5-4.9 7.4-6.6 5.7-1.8-1.7-.2-19.6-.2-19.6m-69.7-1.8s-1.5-10.4-5-7.4c-3.6 3.2-3.2 16.5-2 21.4.9 3.5 5.5 7.3 7.3 5.5 1.9-1.7-.3-19.5-.3-19.5"/>
  <path fill="#FFF" d="M14.9 53.6c0 3.7-2.4 33.1 7.9 46 5.8 7.3 14 14.4 18.7 15.5 7.7 1.8 12.7 3.2 19.5 1.7 6.8-1.5 16.8-8.6 23-22.3 3-6.6 11-57.9-3.8-72.4-9.7-9.5-30.9-8.3-39.1-7.9-8.3.4-26.5 3.3-26.2 39.4m10.3 240.5l-4-63.9h59.6l-1.3 63.9H55.1v-51.8c0-1.4-.9-2.5-3.6-2.5s-3.6 1.1-3.6 2.5v51.8H25.2z"/>
  <path fill="#00A78E" d="M65.6 65.8c0 2 1.6 3.6 3.7 3.6 2 0 3.7-1.6 3.7-3.6s-1.6-3.6-3.7-3.6-3.7 1.6-3.7 3.6"/>
  <path fill="#00A78E" d="M80.2 66.7s-5-4.8-10.9-4.8c-3 0-6.3 1.3-9.2 5.1l.9 1.1c2.6-3.5 5.6-4.6 8.3-4.6 2.7 0 5.3 1.1 7.1 2.2.9.6 1.7 1.1 2.2 1.5.3.2.5.4.6.5l.2.2.8-1.2z"/>
  <path fill="#FFF" d="M68.3 65.7c0 .7-.4 1.2-.9 1.2s-.8-.6-.8-1.2c0-.7.4-1.3.8-1.3.5 0 .9.6.9 1.3"/>
  <path fill="#00A78E" d="M40.9 65.8c0 2-1.6 3.6-3.7 3.6-2 0-3.7-1.6-3.7-3.6s1.6-3.6 3.7-3.6c2 0 3.7 1.6 3.7 3.6"/>
  <path fill="#00A78E" d="M27 67.9l.2-.2c1-.9 5.3-4.3 10-4.3 2.8 0 5.7 1.1 8.3 4.6l.9-1.1c-2.9-3.8-6.2-5.1-9.2-5.1-5.9 0-10.9 4.7-10.9 4.8l.7 1.3z"/>
  <path fill="#FFF" d="M35.8 65.7c0 .7-.4 1.2-.8 1.2-.5 0-.8-.6-.8-1.2 0-.7.4-1.3.8-1.3s.8.6.8 1.3"/>
  <path fill="#00A78E" d="M43.3 49.8s4.7 4.1.7 4.9c-3.9.7-10.3-.6-13.2 0-2.9.6-8.4 2.8-8.4 2.8l-.4-2.3c.1-.1 7.8-7.3 21.3-5.4m19.5 11s-4.5 4-.6 4.9c3.9.9 10.3-.3 13.2.5 2.9.7 8.5 3.1 8.5 3.1l.3-2.3c-.1-.1-7.9-7.6-21.4-6.2M48.8 85s1.2.1 2.9.2c.8 0 1.9.1 2.8 0 .2 0 .4-.1.6-.2.1 0 .1-.1.2-.1s.1-.1.1-.1c.1 0 0-.1.1-.1v.1-.1l.1-.2c.1-.3.1-.5.1-.7.1-1 .1-2.2 0-3.2 0-1.1-.1-2.1-.1-3 0-1.7.1-3 .1-3s.6 1.1 1.1 2.8c.3.9.5 1.9.7 3 .2 1.1.3 2.3.2 3.6-.1.3-.1.8-.2 1l-.1.2v.2l-.1.2c-.1.2-.2.5-.4.6-.2.2-.4.3-.6.4-.2.1-.4.2-.6.2-.4.1-.7.2-1 .1-.7 0-1.2-.1-1.7-.2s-1-.3-1.4-.4c-1.8-.6-2.8-1.3-2.8-1.3m-7.3 6.4s13 5.4 23.5.9c-1.4 3-15.5 10.7-23.5-.9"/>
  <path fill="#FFF" d="M44.2 117.6s.3 10-4.4 12.7c-4.2 2.5-6.1 3-6.1 3s20.7 8.3 37.2 1.6c-8.9-2.4-8.3-5.5-8.3-5.5L61 119.1l-16.8-1.5z"/>
  <path fill="none" stroke="#00A78E" stroke-width="3.076" stroke-miterlimit="10" d="M44.2 117.6s.3 10-4.4 12.7c-4.2 2.5-6.1 3-6.1 3s20.7 8.3 37.2 1.6c-8.9-2.4-8.3-5.5-8.3-5.5L61 119.1l-16.8-1.5z"/>
  <path fill="#FFF" d="M14.7 223.4c.6 1.6.6 3.1-1.6 2.7l-.5-.8-3-4.9-1.3 1c-.7.6-1 1.4-.8 2.2.2.6.4 1.4.5 1.9.1.4.4.7.8 1l2.3 1.9c.6.5.2.9 0 1.3l-.4.2c-.6.3-1.6.2-2.2-.3L6 227.5c-.3-.1-.5-.3-.6-.5l-3.5-6.3c-.2-.4-1.6-2-1.4-2.4l4.2-5.7c.1-.2.4-1.4.4-1.6l-2.5-26.8.8-4.5s4.8-22.5 6.4-21.8l16.2 6c1.3.5-4.8 11.5-4.8 11.5-2.8 5.4-3.8 7.2-4.9 10.5l-3 28v.4l1.4 9.1z"/>
  <path fill="none" stroke="#00A78E" stroke-miterlimit="10" d="M14.7 223.4c.6 1.6.6 3.1-1.6 2.7l-.5-.8-3-4.9-1.3 1c-.7.6-1 1.4-.8 2.2.2.6.4 1.4.5 1.9.1.4.4.7.8 1l2.3 1.9c.6.5.2.9 0 1.3l-.4.2c-.6.3-1.6.2-2.2-.3L6 227.5c-.3-.1-.5-.3-.6-.5l-3.5-6.3c-.2-.4-1.6-2-1.4-2.4l4.2-5.7c.1-.2.4-1.4.4-1.6l-2.5-26.8.8-4.5s4.8-22.5 6.4-21.8l16.2 6c1.3.5-4.8 11.5-4.8 11.5-2.8 5.4-3.8 7.2-4.9 10.5l-3 28v.4l1.4 9.1z"/>
  <path fill="#FFF" d="M97.4 228.4c-.4 0-.7-.1-1-.2l-.5-.3-.1-.2c-.2-.3-.7-1.1.1-1.8l2.3-2c.3-.3.6-.5.6-.8l.5-1.9c.2-.6 0-1.2-.6-1.7l-.8-.6-3.2 5.5h-.2c-.3.1-.6.1-.9.1-.8 0-1.2-.3-1.4-.6-.4-.6-.4-1.5 0-2.8l1.3-9.2v-.3l-3.3-27.9c-.6-1.5-1.6-3.4-3-5.8-.1-.2-.2-.3-.2-.3-2.7-4.1-9-14-8.5-15.5.1-.2.2-.4.4-.4l16.2-6.4h.2c1.8 0 5.7 11.8 8.8 21.8l.9 4.6-2.2 27c0 .2.3 1.2.4 1.4l3 5.6c.2.6.1 2.3-.2 2.8l-3.4 6.4c-.1.3-.4.5-.8.7l-2.5 2.2c-.6.3-1.2.6-1.9.6"/>
  <path fill="#00A78E" d="M95.2 155.8c1.7 0 8.3 21.4 8.3 21.4l.8 4.5-2.2 26.9c0 .2.3 1.4.4 1.6l3 5.6c.1.4 0 2-.2 2.4l-3.4 6.4c-.1.2-.3.4-.6.5l-2.5 2.2c-.4.3-.9.5-1.4.5-.3 0-.5-.1-.8-.2l-.4-.2c-.2-.4-.6-.8-.1-1.3l2.3-2c.4-.3.7-.7.8-1.1.1-.5.3-1.3.5-1.9.2-.8-.1-1.7-.8-2.2l-1.3-1-2.9 5-.5.8c-.3.1-.6.1-.8.1-1.4 0-1.3-1.3-.9-2.7L94 212v-.4l-3.3-28c-1.1-2.6-3.2-6.1-3.2-6.2 0 0-9.7-14.8-8.4-15.3l16.1-6.3m0-1c-.2 0-.3 0-.4.1l-16.1 6.4c-.3.1-.6.4-.7.7-.1.5-.6 1.9 8.6 16 0 .1.1.1.1.2 1.4 2.3 2.4 4.2 2.9 5.7l3.3 27.8v.1l-1.3 9.2c-.3.9-.6 2.2.1 3.1.3.4.8.8 1.8.8.3 0 .6 0 1-.1l.4-.1.2-.4.5-.8 2.4-4 .4.3c.4.3.6.7.5 1.2l-.4 1.4-.1.5c0 .2-.2.4-.4.5l-2.3 2c-.8.7-.8 1.5-.2 2.5l.1.1.2.2.3.1.4.2c.3.2.8.3 1.2.3.8 0 1.5-.3 2-.7l2.4-2.1c.4-.2.7-.5.9-.9l3.4-6.4c.3-.6.5-2.5.2-3.2l-3-5.6c-.1-.2-.3-.9-.3-1.2l2.2-26.9v-.2l-.8-4.5v-.2c0-.1-1.7-5.4-3.5-10.7-4.2-11.4-5.1-11.4-6-11.4"/>
  <path fill="#FFF" d="M104.1 161.5L85 175.8l-2.4-8.6 2.5 21c.3 3.6.5 15.1-.5 25.6l-2.2 13.9H22.3l-2.2-16.4c-.7-8.6.1-21.5.4-24.8l3.5-19.6-2.9 8.1L4 162s-3 2.6 4.6-10.9C16.3 137.7 33 133 33 133l20.3 2.7 19.3-1.3s17.9 3.7 25.5 17.2c7.6 13.4 6 9.9 6 9.9"/>
  <path fill="none" stroke="#00A78E" stroke-width="2.562" stroke-miterlimit="10" d="M104.1 161.5L85 175.8l-2.4-8.6 2.5 21c.3 3.6.5 15.1-.5 25.6l-2.2 13.9H22.3l-2.2-16.4c-.7-8.6.1-21.5.4-24.8l3.5-19.6-2.9 8.1L4 162s-3 2.6 4.6-10.9C16.3 137.7 33 133 33 133l20.3 2.7 19.3-1.3s17.9 3.7 25.5 17.2c7.6 13.4 6 9.9 6 9.9"/>
  <path fill="#FFF" d="M46.3 294.3s-1.1-10.3-18.4-9.4c-17.3.9-18.7 7.7-19.3 9.5m85.6-.1s-1.1-10.3-18.4-9.4c-17.3.9-18.7 7.7-19.3 9.5"/>
  <path fill="#00A78E" d="M91.3 51.6s4.6-14.8 3.4-21c-1.1-6.2-4.5-10.7-16.6-21-7.9-6.8-27.7-5.2-30.7-8.4-2.9-3.3-44.3 4.2-34.5 53.2.9 4.3 1.9 9.2 1.9 9.2 4.4.4.8-1.5.9-19.3.1-24.7 53.4 14.8 63.2 14.3 11.9-.6 5.3-18.5 8.3-5.1 3 13.4.3 11.4.3 11.4l3.2 3 .6-16.3z"/>
  <path fill="none" stroke="#FFF" stroke-miterlimit="10" d="M91.3 51.6s4.6-14.8 3.4-21c-1.1-6.2-4.5-10.7-16.6-21-7.9-6.8-27.7-5.2-30.7-8.4-2.9-3.3-44.3 4.2-34.5 53.2.9 4.3 1.9 9.2 1.9 9.2 4.4.4.8-1.5.9-19.3.1-24.7 53.4 14.8 63.2 14.3 11.9-.6 5.3-18.5 8.3-5.1 3 13.4.3 11.4.3 11.4l3.2 3 .6-16.3z"/>
</svg>