<svg xmlns="http://www.w3.org/2000/svg" width="16.6" height="23.6" viewBox="0 0 16.6 23.6"><path fill="#00A78E" d="M0 20.4s.6.1 1.6.3c1 .2 2.4.4 4.1.6 1.7.2 3.6.4 5.5.1.5-.1.9-.2 1.3-.3.4-.2.7-.4.9-.6.1 0 .1-.1.1-.2s.1-.1.1-.2V20s-.1.2 0 .1v-.2l.1-.4.1-.4v-.4l.2-.7c.1-1.1.1-2.2.1-3.2 0-1.1 0-2.2-.1-3.2-.1-2.1-.2-4.1-.3-5.8-.2-3.5-.3-5.8-.3-5.8s.9 2.2 1.7 5.5c.2.8.4 1.8.6 2.7.2 1 .4 2 .5 3.1.1 1.1.3 2.2.3 3.4.1 1.2.1 2.3 0 3.6-.1.6-.2 1.4-.3 1.9l-.1.4v.3l-.1.3c-.1.2-.2.4-.3.5-.1.2-.2.3-.4.5-.6.6-1.3.9-1.9 1.1-.7.2-1.3.3-1.9.3-1.2.1-2.3-.1-3.3-.3-1-.2-1.9-.4-2.8-.7-1.7-.5-3-1.1-3.9-1.5-1-.4-1.5-.7-1.5-.7"/></svg>