<svg xmlns="http://www.w3.org/2000/svg" width="285.1" height="349.5" viewBox="0 0 285.1 349.5">
  <path fill="#FFF" d="M0 0v349.5h177.1c-1-2.4-1.5-4.9-1.5-7.6 0-10.9 8.5-19.9 19.2-20.5v-21.1c-6.3-.7-11.2-6-11.2-12.5s4.9-11.8 11.2-12.5v-14.9h71.5c.8-9.8 8.9-17.6 18.8-17.8V0H0z"/>
  <path fill="#009245" d="M41.5 319.1c1.5 1.2 3.3 2.4 5.4 3.6 2.1 1.2 4.7 1.8 7.7 1.8 1.1 0 2.2-.1 3.3-.4 1.1-.3 2-.7 2.8-1.2.8-.6 1.5-1.3 2-2.3.5-.9.8-2.1.8-3.4 0-1.3-.2-2.5-.7-3.5-.5-1-1.1-1.8-2-2.5-.8-.7-1.8-1.3-3-1.8-1.1-.5-2.4-.9-3.8-1.3-2-.6-3.9-1.2-5.8-2.1-1.8-.8-3.5-1.8-4.9-3.1-1.4-1.3-2.6-2.8-3.4-4.6-.8-1.8-1.3-3.9-1.3-6.4 0-4 1.1-7.2 3.4-9.8 2.3-2.5 5.1-4.3 8.6-5.3v-8.4h5.1v7.5h2.7c.3 0 .6 0 .8.1v-7.5h5.1v8.2c1.7.4 3.2.9 4.4 1.5 1.2.5 2.1 1 2.6 1.4 1.5.9 2.2 2.2 2.2 3.7 0 .7-.3 1.6-.8 2.8-.6 1.2-1.3 2.3-2.3 3.4-1.3-1.1-3-2.2-5.1-3.1-2.1-1-4.4-1.5-6.7-1.5-.9 0-1.9.1-2.9.3-1 .2-1.9.5-2.8.9-.8.4-1.5 1.1-2.1 1.9-.5.8-.8 1.8-.8 3.1 0 1.1.2 2.1.6 2.9.4.8 1 1.5 1.8 2.1.8.6 1.8 1.2 3.1 1.7s2.7 1 4.5 1.6c2 .7 3.9 1.5 5.7 2.3 1.8.9 3.3 2 4.6 3.3 1.3 1.3 2.4 2.8 3.2 4.5.8 1.7 1.2 3.8 1.2 6.1 0 4-.9 7.4-2.8 10.1-1.8 2.7-4.4 4.8-7.5 6.1v9h-5.1V333l-1.8.3c-.6.1-1.2.1-1.8.2v7.3h-5.1v-7.5c-2.7-.3-4.9-.7-6.5-1.4-1.7-.6-2.9-1.2-3.8-1.8-.6-.4-1.1-1-1.5-1.6-.4-.6-.6-1.3-.6-2.1 0-.9.4-2 1.1-3.4.6-1.5 1.4-2.7 2.2-3.9zm86.3 0c1.5 1.2 3.3 2.4 5.4 3.6 2.1 1.2 4.7 1.8 7.7 1.8 1.1 0 2.2-.1 3.3-.4 1.1-.3 2-.7 2.8-1.2.8-.6 1.5-1.3 2-2.3.5-.9.8-2.1.8-3.4 0-1.3-.2-2.5-.7-3.5-.5-1-1.1-1.8-2-2.5-.8-.7-1.8-1.3-3-1.8-1.1-.5-2.4-.9-3.8-1.3-2-.6-3.9-1.2-5.8-2.1-1.8-.8-3.5-1.8-4.9-3.1-1.4-1.3-2.6-2.8-3.4-4.6-.8-1.8-1.3-3.9-1.3-6.4 0-4 1.1-7.2 3.4-9.8 2.3-2.5 5.1-4.3 8.6-5.3v-8.4h5.1v7.5h2.7c.3 0 .6 0 .8.1v-7.5h5.1v8.2c1.7.4 3.2.9 4.4 1.5 1.2.5 2.1 1 2.6 1.4 1.5.9 2.2 2.2 2.2 3.7 0 .7-.3 1.6-.8 2.8-.6 1.2-1.3 2.3-2.3 3.4-1.3-1.1-3-2.2-5.1-3.1-2.1-1-4.4-1.5-6.7-1.5-.9 0-1.9.1-2.9.3-1 .2-1.9.5-2.8.9-.8.4-1.5 1.1-2.1 1.9-.5.8-.8 1.8-.8 3.1 0 1.1.2 2.1.6 2.9.4.8 1 1.5 1.8 2.1.8.6 1.8 1.2 3.1 1.7s2.7 1 4.5 1.6c2 .7 3.9 1.5 5.7 2.3 1.8.9 3.3 2 4.6 3.3 1.3 1.3 2.4 2.8 3.2 4.5.8 1.7 1.2 3.8 1.2 6.1 0 4-.9 7.4-2.8 10.1-1.8 2.7-4.4 4.8-7.5 6.1v9h-5.1V333l-1.8.3c-.6.1-1.2.1-1.8.2v7.3h-5.1v-7.5c-2.7-.3-4.9-.7-6.5-1.4-1.7-.6-2.9-1.2-3.8-1.8-.6-.4-1.1-1-1.5-1.6-.4-.6-.6-1.3-.6-2.1 0-.9.4-2 1.1-3.4.6-1.5 1.4-2.7 2.2-3.9z"/>
  <path d="M26.5 113H229v8.5H26.5zm0 33.2h221.7v8.5H26.5zm0-16.6h232v8.5h-232zm0 33.2h197.1v8.5H26.5zm0 16.6h215v8.5h-215zm0 16.6h232v8.5h-232zm0 16.5H229v8.5H26.5zm0 16.6h232v8.5h-232zm0 16.6h221.7v8.5H26.5z" fill="#45CDB6"/>
  <path fill="#E2066F" d="M179.6 86.5c0 4.7-3.8 8.5-8.5 8.5H114c-4.7 0-8.5-3.8-8.5-8.5V29.4c0-4.7 3.8-8.5 8.5-8.5h57.1c4.7 0 8.5 3.8 8.5 8.5v57.1z"/>
  <path fill="#FFF" d="M167.3 53.2c0-1.4-1.1-2.5-2.5-2.5h-14.2c-.1 0-.2-.1-.2-.2V36.3c0-1.4-1.1-2.5-2.5-2.5h-9.6c-1.4 0-2.5 1.1-2.5 2.5v14.2c0 .1-.1.2-.2.2h-14.3c-1.4 0-2.5 1.1-2.5 2.5v9.6c0 1.4 1.1 2.5 2.5 2.5h14.3c.1 0 .2.1.2.2v14.2c0 1.4 1.1 2.5 2.5 2.5h9.6c1.4 0 2.5-1.1 2.5-2.5V65.6c0-.1.1-.2.2-.2h14.2c1.4 0 2.5-1.1 2.5-2.5v-9.7z"/>
</svg>