<svg xmlns="http://www.w3.org/2000/svg" width="1027.9" height="698" viewBox="0 0 1027.9 698">
  <path fill="#00A78E" d="M625.9 363.5h-14.7v-19.2c0-3.2 3.3-5.8 7.4-5.8 4.1 0 7.3 2.6 7.3 5.8v19.2zm-21.2-15.7c.3-.2.7-.2.9.1l.1.1c.2.3.1.7-.2.9l-13.1 9.4c-.3.2-.7.2-.9-.1v-.1c-.2-.3-.1-.7.2-.9l13-9.4z"/>
  <path fill="#55E1C8" d="M585.2 352.4c0 5.2-4.3 9.5-9.6 9.5s-9.6-4.3-9.6-9.5 4.3-9.5 9.6-9.5 9.6 4.3 9.6 9.5m33.8-7.2c0-5.5-4.6-10-10.2-10s-10.2 4.5-10.2 10c0 2.6 1 5 2.7 6.8.6-.2 1.3-.3 2-.3 2.6 0 4.9 1.4 6.2 3.5 5.3-.3 9.5-4.7 9.5-10"/>
  <path fill="#55E1C8" d="M609.5 358.2c0 3.4-2.8 6.1-6.1 6.1-3.4 0-6.2-2.7-6.2-6.1 0-3.3 2.8-6.1 6.2-6.1 3.3 0 6.1 2.8 6.1 6.1m-3.8-23.1c-1.8-6.1-7.5-10.5-14.2-10.5-8.2 0-14.8 6.5-14.8 14.6 0 1.1.1 2.2.4 3.2 5 .9 8.7 5.1 8.8 10.3 1.8.7 3.7 1.1 5.7 1.1 3.2 0 6.1-1 8.5-2.6-1.2-1.7-1.9-3.8-1.9-6-.2-4.8 3-8.8 7.5-10.1"/>
  <path fill="#00A78E" d="M592.7 348.6c0-.8-.6-1.4-1.4-1.4h-.3c-.8 0-1.5.6-1.5 1.4v34h3.1v-34z"/>
  <path fill="#00A78E" d="M591.5 362.8c.3.2.3.6 0 1l-.1.1c-.3.4-.7.5-1 .3l-12.2-8.6c-.3-.2-.3-.6 0-1l.1-.1c.3-.4.7-.5 1-.3l12.2 8.6zm9.9-2.8c.2-.2.6-.1.8.1l.1.1c.2.3.2.6 0 .8l-9.6 8.4c-.2.2-.6.1-.8-.1l-.1-.1c-.2-.3-.2-.6 0-.8l9.6-8.4zm-48.1-.2l-2.1.4-2.1-.4c-.4.8-.3 1.8.2 2.5.8 1.1 2.2 1.4 3.3.6 1-.7 1.2-2.1.7-3.1m2.8 11.2v-5.4c0-.8-.6-1.4-1.4-1.4h-1.8l-1.2 2.7-.2-2.2.3-.6h-1.2l.3.6-.2 2.2-1.2-2.7h-1.8c-.8 0-1.4.7-1.4 1.4v7.5c0 .8.7 1.4 1.5 1.4h.3v7.3c0 .5.7.8 1.5.8s1.5-.4 1.5-.8v-6.3h.4v6.3c0 .5.6.8 1.4.8.8 0 1.5-.4 1.5-.8v-7.3h.3c.8 0 1.5-.6 1.5-1.4V371zm-8.7-12.5c-.1.1-.1.1 0 0l1.1.2v-.7l-1.1.5zm7.7 0l-3.8-1.7-2.6 1.1v.8l.6.1-.1.6c0 .1 0 .1.1.1l1.8.3h.3l1.8-.3c.1 0 .1 0 .1-.1l-.1-.6 1.9-.3c.1.1.1.1 0 0m-6.3 2.1l-.2-.5s.1-.1.1-.2v-.4c0-.1 0-.2-.1-.2V358l-.1.1v1.3c-.1 0-.1.1-.1.2v.4c0 .1 0 .2.1.2l-.2.5v.1h.4c.1-.1.1-.1.1-.2m-53.3 15.8v6.2h3.9v-6.4l4.4-8.8-5.8 3.8V368h-2.3v3.8l-8.1-5.8"/>
  <path fill="#55E1C8" d="M514.1 346.9c0-.1.1-.1.1-.2 1.1-2.2-1-5.5-4.8-7.4-2.2-1.1-4.4-1.4-6.1-1.1-.4-2.3-3.8-3.9-7.6-3.6-3.3.3-6 1.8-6.7 3.7-1.5-.6-3.4-.5-5.3.2-3.3 1.3-5.3 4.1-4.4 6.5l.3.6c-2 .3-3.8 1.6-4.8 3.7-1.6 3.2-.5 6.8 2.4 8.2.5.2 1 .4 1.5.5-.8 2-.4 4.4 1.2 6.1 2.2 2.4 5.9 2.6 8.3.4l.7-.7c1 2.5 5.9 4.1 11.7 3.6 5.2-.4 9.4-2.3 10.6-4.6 1.9-.1 3.9-.8 5.4-2.1 3.4-3.1 3.5-8.4.3-11.8-1-1-1.9-1.6-2.8-2"/>
  <path fill="#00A78E" d="M473.3 364.6c1.3-.7 1.8-2.4 1.1-3.7-.7-1.3-2.4-1.8-3.7-1-1.3.7-1.8 2.3-1.1 3.6.7 1.4 2.4 1.8 3.7 1.1m4.3 8.8l-2.6-7.5c-.1-.3-.6-.5-1.2-.4h-3.6c-.8 0-1.4.5-1.4 1.1v15.9c0 .5.6.8 1.4.8.8 0 1.4-.4 1.4-.8v-6h.3v6c0 .5.7.8 1.4.8.8 0 1.5-.4 1.5-.8v-7.9c.3.3.9.3 1.5.1 1-.3 1.5-.9 1.3-1.3"/>
  <path fill="#55E1C8" d="M467.1 374.1l3.6 1.4 2.1-5.1-3.5-1.5"/>
  <path fill="#00A78E" d="M468.9 374.7c-.3 0-.6-.1-.9-.3l-2.3-1.9c-.6-.5-.7-1.3-.3-1.9l2.9-4.6c.4-.7 1.3-.9 2-.4.7.4.9 1.3.4 2l-2.2 3.5 1.3 1.1c.6.5.7 1.4.2 2-.3.4-.7.5-1.1.5"/>
  <path fill="#55E1C8" d="M259.3 435.3H306v10.3h-46.7z"/>
  <path fill="#32CFB6" d="M581.5 598.1h23v83h-23z"/>
  <path fill="#FFF" d="M596.9 133.4s2.3-20.5 8.6-14.7c5.2 4.7 7.7 26.6 4.5 41.9-1.4 6.8-9.5 14.5-12.9 11.2-3.4-3.4-.2-38.4-.2-38.4"/>
  <path fill="none" stroke="#00A78E" stroke-width="2.44" stroke-miterlimit="10" d="M596.9 133.4s2.3-20.5 8.6-14.7c5.2 4.7 7.7 26.6 4.5 41.9-1.4 6.8-9.5 14.5-12.9 11.2-3.4-3.4-.2-38.4-.2-38.4"/>
  <path fill="#FFF" d="M460.4 129.9s-3-20.4-9.7-14.5c-7.1 6.2-6.4 32.4-4 42 1.7 6.8 10.7 14.2 14.3 10.8 3.7-3.4-.6-38.3-.6-38.3"/>
  <path fill="#FFF" d="M457.2 101c.1 7.2-4.6 64.8 15.4 90.1 11.4 14.4 27.4 28.2 36.7 30.4 15.1 3.5 24.9 6.2 38.3 3.3 13.3-2.9 32.9-16.8 45-43.7 5.8-12.8 21.4-113.3-7.5-141.7-19-18.6-60.5-16.3-76.7-15.6-16.1.8-51.9 6.5-51.2 77.2m64.6 589.6s-2.6-19.7-42.9-17.9c-40.3 1.7-43.4 14.8-44.9 18.2m190.9-.3s-2.6-19.7-42.9-17.9c-40.3 1.7-43.4 14.8-44.9 18.2"/>
  <path fill="#FFF" d="M478.1 690.7l-7.6-217.2h113.1l-2.5 217.2h-46.2v-176c0-4.6-1.7-8.4-6.8-8.4-5.2 0-6.8 3.8-6.8 8.4v176h-43.2z"/>
  <path fill="#00A78E" d="M568.3 129.9c-.5 3.9 2.2 7.5 6.1 8 3.9.5 7.5-2.1 8.1-6 .5-3.9-2.2-7.4-6.1-8-3.9-.5-7.5 2.1-8.1 6m16.6-.5c-.1-.1-8.4-10.6-19.9-12.2-5.9-.8-12.7.8-19.3 7.4l1.4 2.3c6.1-6.1 12-7.5 17.4-6.8 5.2.7 9.9 3.6 13.3 6.3 1.7 1.3 3 2.6 3.9 3.6.5.5.8.9 1 1.1l.3.4 1.9-2.1z"/>
  <path fill="#FFF" d="M578.7 132c-.2 1.3-1.1 2.3-2 2.2-.9-.1-1.5-1.3-1.3-2.7.2-1.3 1.1-2.3 2-2.2.9.1 1.5 1.3 1.3 2.7"/>
  <path fill="#00A78E" d="M516.9 130.6c-.4 3.9-3.9 6.7-7.9 6.3-3.9-.4-6.8-3.9-6.4-7.8.4-3.9 3.9-6.7 7.9-6.3 3.9.5 6.8 3.9 6.4 7.8"/>
  <path fill="#00A78E" d="M480.7 127.2l.4-.3c2-1.5 11.1-7.3 20.3-6.3 5.4.6 10.8 3.4 15.3 10.7l1.9-1.9c-4.8-8-11-11.2-16.9-11.9-11.6-1.2-22.2 7-22.3 7.1l1.3 2.6z"/>
  <path fill="#FFF" d="M513.3 130.1c-.1 1.3-1 2.4-1.9 2.3-.9-.1-1.5-1.3-1.4-2.6.1-1.3 1-2.4 1.9-2.3.9.1 1.5 1.2 1.4 2.6"/>
  <path fill="#00A78E" d="M522.8 98.5s8.3 8.9.5 9.6c-7.8.7-20-3.2-25.7-2.5-5.7.7-16.9 3.9-16.9 3.9l-.3-4.6c.1.1 16.3-12.6 42.4-6.4m30.9-5s-10.1 6.1-2.8 9.2c7.3 3.1 19.9 3 25.2 5.4 5.3 2.4 15.4 8.9 15.4 8.9l1.3-4.4c.1.1-12.6-17.1-39.1-19.1m-30.1 69s.6.1 1.6.3c1 .2 2.4.4 4.1.6 1.7.2 3.6.4 5.6.2.9-.1 1.8-.4 2.2-.9.1-.1.1-.1.1-.2s.1-.1.1-.2v-.1s-.1.2 0 .1v-.2l.1-.4.1-.4v-.4l.1-.7c.1-1.1.1-2.2.1-3.2 0-1.1 0-2.2-.1-3.2-.1-2.1-.2-4.1-.4-5.8-.2-3.4-.3-5.7-.3-5.7s.9 2.2 1.7 5.5c.2.8.4 1.8.6 2.7.2 1 .4 2 .5 3.1.1 1.1.3 2.2.3 3.3.1 1.2.1 2.3 0 3.5-.1.6-.2 1.4-.3 1.9l-.1.4v.3l-.1.3c-.1.2-.2.4-.3.5-.1.2-.2.3-.4.5-.6.6-1.3.9-1.9 1.1-.6.2-1.3.3-1.9.3-1.2.1-2.3-.1-3.3-.2-1-.2-1.9-.4-2.8-.7-1.7-.5-3-1.1-3.9-1.5-.9-.5-1.4-.8-1.4-.8"/>
  <path fill="#00A78E" d="M454.2 113.7s-13.3-34.5-10.6-48.2c2.7-13.8 9.5-26.2 33.8-48.2C493.3 2.9 521.3.4 524.5 3.9c4.7 5.4 12.9 7.8 18.9.9 5.9-6.9 26.9-2.5 24.2 3.1 11.2-6.5 19 5.5 19 5.5s42.1 5.4 19.1 114.4c-2 9.6-4.4 20.5-4.4 20.5-8.5.5-.9-12.7.4-52.9C603.5 40 552.1 52.1 533 50c-23.1-2.6-61.7-5.6-68.6 24.1-6.9 29.7-3.8 69.7-3.8 69.7l-6.4 6.5v-36.6z"/>
  <path fill="none" stroke="#FFF" stroke-width="2.44" stroke-miterlimit="10" d="M454.2 113.7s-13.3-34.5-10.6-48.2c2.7-13.8 9.5-26.2 33.8-48.2C493.3 2.9 521.3.4 524.5 3.9c4.7 5.4 12.9 7.8 18.9.9 5.9-6.9 26.9-2.5 24.2 3.1 11.2-6.5 19 5.5 19 5.5s42.1 5.4 19.1 114.4c-2 9.6-4.4 20.5-4.4 20.5-8.5.5-.9-12.7.4-52.9C603.5 40 552.1 52.1 533 50c-23.1-2.6-61.7-5.6-68.6 24.1-6.9 29.7-3.8 69.7-3.8 69.7l-6.4 6.5v-36.6z"/>
  <path fill="#FFF" d="M514.5 226.4s.6 19.5-8.7 24.9c-8.3 4.8-12 5.9-12 5.9s40.5 16.2 72.9 3.1c-17.4-4.7-16.3-10.8-16.3-10.8l-3.1-20.2-32.8-2.9z"/>
  <path fill="none" stroke="#00A78E" stroke-width="2.93" stroke-miterlimit="10" d="M514.5 226.4s.6 19.5-8.7 24.9c-8.3 4.8-12 5.9-12 5.9s40.5 16.2 72.9 3.1c-17.4-4.7-16.3-10.8-16.3-10.8l-3.1-20.2-32.8-2.9z"/>
  <path fill="#FFF" d="M628.1 343.7l-40.6 9.4-4.5-19.2 4.7 47c.6 8 .9 33.9-.9 57.3l-4 31.2H471.9l-4.1-36.6c-1.2-19.3.1-48.1.8-55.5l6.4-43.8-5.4 18-38.9-9.2s4.1-14.2 18.1-44.4c14-30.2 44.9-40.7 44.9-40.7l37.3 6 35.6-2.9s33 8.3 47 38.5c13.9 30.2 13.9 44.6 13.9 44.6"/>
  <path fill="none" stroke="#00A78E" stroke-width="2.44" stroke-miterlimit="10" d="M628.1 343.7l-40.6 9.4-4.5-19.2 4.7 47c.6 8 .9 33.9-.9 57.3l-4 31.2H471.9l-4.1-36.6c-1.2-19.3.1-48.1.8-55.5l6.4-43.8-5.4 18-38.9-9.2s4.1-14.2 18.1-44.4c14-30.2 44.9-40.7 44.9-40.7l37.3 6 35.6-2.9s33 8.3 47 38.5c13.9 30.2 13.9 44.6 13.9 44.6"/>
  <path fill="#00A78E" d="M535.6 200.2s-27.4 2.4-44.5-12.2c.9 6.6 22.8 29.3 44.5 12.2"/>
  <path fill="#FFF" d="M600.6 506.1c-1.2 0-2.3-.4-3-1.2l-.9-.9-.2-.6c-.3-.9-.9-2.6 1-3.9l4.9-3.2c.7-.4 1.1-.9 1.4-1.4l1.7-4c.6-1.3.4-2.8-.5-4.1l-1-1.4-6.2 8.1-1.6 2h-.6c-1.9 0-3.2-.6-3.9-1.7-.9-1.5-.7-3.5.8-6.5l6-19.5c.1-.2.1-.4.1-.6l5.1-62.6c-.5-3.5-1.5-8.2-3.1-14.1-.1-.2-.1-.4-.1-.6-4.1-13.2-10.7-35.6-9.1-38.3.2-.4.6-.6 1-.7l31.6-6.2h.2c1.5 0 3.1 0 5.6 26.5 1.2 12.6 2.1 25.3 2.1 25.5v.1l-.3 10.4-14.7 58c0 .4.1 2.6.1 3.1l3.2 13.8v.1c.2 1.2-.9 5-1.5 6l-8.6 12.4c-.4.6-1 1-1.8 1.2l-5.3 3.5c-.6.6-1.5.8-2.4.8"/>
  <path fill="#00A78E" d="M624.1 346.1c3.2 0 6.5 50.8 6.5 50.8l-.3 10.2-14.6 57.9c-.1.4.1 3.2.1 3.7l3.2 13.8c.1.8-.8 4.3-1.3 5.1l-8.6 12.4c-.3.4-.8.7-1.3.8l-5.4 3.7c-.5.4-1.2.5-1.8.5-.8 0-1.6-.3-2.2-.8l-.7-.7c-.3-1-.8-2 .4-2.8l4.9-3.2c.9-.5 1.5-1.1 1.8-1.9.5-1.1 1.1-2.6 1.7-4 .8-1.7.5-3.6-.6-5.2l-1.9-2.7-7.2 9.4-1.2 1.6h-.1c-4.1 0-3.5-3.2-1.9-6.5l6-19.6c.1-.3.1-.6.2-.9l5.1-62.8c-.9-6.3-3.3-14.8-3.3-15 0 0-11.5-37-9.1-37.5l31.6-6.3m0-2.5c-.2 0-.4 0-.5.1l-31.4 6.2c-.8.2-1.4.6-1.8 1.3-.7 1.2-1.5 2.5 3.8 21.6 2.4 8.5 4.9 16.8 5.2 17.7 0 .1.1.3.2.6 1.5 5.8 2.6 10.4 3.1 13.8l-5.1 62.5c0 .2 0 .3-.1.3l-5.9 19.5c-1 2.2-2.2 5.3-.7 7.6.6 1 2 2.2 4.8 2.2h1.3l.7-.9 1.2-1.6 5.2-6.8c.6.9.8 1.9.3 2.9-.6 1.4-1.3 2.9-1.7 4-.1.3-.4.6-.8.8h-.2l-4.9 3.2c-2.6 1.8-1.8 4.3-1.5 5.3l.1.2.2.6.5.4.7.7c1 1 2.4 1.5 3.9 1.5 1.1 0 2.2-.3 3.2-.9l5.1-3.5c.9-.3 1.7-.9 2.2-1.6l8.6-12.4c.8-1.2 1.9-5.3 1.7-6.8v-.2l-3.2-13.6c-.1-.5-.1-2.2-.1-2.8l14.6-57.7.1-.3v-.3l.3-10.2v-.2c0-.1-.8-12.9-2.1-25.5-.7-7.4-1.4-13.4-2.1-17.6-1.2-7.1-2.1-10.1-4.9-10.1"/>
  <path fill="#FFF" d="M458.9 505.1c-.9 0-1.8-.3-2.5-.7l-5.3-3.6c-.8-.2-1.4-.6-1.8-1.2l-8.6-12.4c-.6-.9-1.7-4.8-1.5-6v-.1l3.2-13.7c.1-.5.2-2.8.1-3.2l-14.6-57.9-.3-10.4v-.1c0-.1.8-12.9 2.1-25.5 2.6-26.5 4.1-26.5 5.6-26.5h.3l31.5 6.2c.4.1.8.3 1 .7 1.6 2.7-5 25.2-9.1 38.3 0 .1-.1.3-.1.5-1.6 5.9-2.6 10.6-3.1 14.2l5.1 62.6c0 .2.1.4.1.6l6 19.5c1.4 3 1.7 5.1.8 6.5-.7 1.1-2 1.7-3.8 1.7h-.6l-.4-.5-1.2-1.6-6.2-8.1-1 1.4c-.9 1.2-1.1 2.7-.5 4.1l1.7 4c.2.5.7 1 1.3 1.3l5 3.3c1.8 1.3 1.3 3 1 3.9l-.2.6-.9.9c-.8.8-1.9 1.2-3.1 1.2"/>
  <path fill="#00A78E" d="M435.4 345s0 .1 0 0l31.5 6.2c2.4.5-9.1 37.5-9.1 37.5 0 .2-2.5 8.7-3.3 15l5.1 62.8c0 .3.1.6.2.9l6 19.6c1.6 3.3 2.2 6.5-1.9 6.5h-.1l-1.2-1.6-7.2-9.4-1.9 2.7c-1.1 1.6-1.3 3.5-.6 5.2.6 1.3 1.3 2.9 1.7 4 .3.8 1 1.5 1.8 1.9l4.9 3.2c1.2.8.7 1.8.4 2.8l-.7.7c-.6.5-1.4.8-2.2.8-.6 0-1.3-.2-1.8-.5l-5.4-3.7c-.5-.1-1-.4-1.3-.8l-8.6-12.4c-.5-.7-1.4-4.2-1.3-5.1l3.2-13.8c.1-.4.2-3.2.1-3.7l-14.6-57.9-.3-10.2c.1.2 3.4-50.6 6.6-50.7m0-2.4c-2.7 0-3.6 2.9-4.8 10-.7 4.3-1.4 10.2-2.1 17.6-1.2 12.6-2.1 25.4-2.1 25.5v.2l.3 10.2v.3l.1.3 14.6 57.7c0 .6-.1 2.3-.1 2.8l-3.2 13.6v.2c-.2 1.5.9 5.7 1.7 6.8l8.6 12.4c.5.8 1.3 1.3 2.2 1.6l5.1 3.4c1 .6 2 .9 3.2.9 1.5 0 2.9-.6 3.9-1.5l.7-.6.5-.4.2-.6.1-.2c.3-1 1.1-3.5-1.4-5.3l-5-3.3h-.2c-.4-.2-.7-.5-.8-.8l-.1-.1-1.7-3.9c-.4-.9-.3-2 .3-2.9l5.2 6.8 1.2 1.6.7.9h1.3c2.8 0 4.2-1.2 4.8-2.2 1.5-2.4.4-5.5-.7-7.6l-5.9-19.4c0-.1-.1-.2-.1-.3l-5.1-62.5c.5-3.4 1.5-8.1 3.1-13.9.1-.3.1-.5.2-.6.3-.9 2.8-9.2 5.2-17.7 5.3-19 4.5-20.4 3.8-21.6-.4-.7-1-1.1-1.8-1.3l-31.5-6.2c-.1.1-.3.1-.4.1"/>
  <path fill="#FFF" d="M498.7 283.9c1.7 2.6 2.4 5.7 3.9 8.4 1 1.7 3.6.2 2.6-1.5-1.6-2.7-2.2-5.8-3.9-8.4-1-1.7-3.6-.2-2.6 1.5M247.3 469s1.2-10.4 4.4-7.5c2.7 2.4 3.9 13.6 2.3 21.4-.7 3.5-4.9 7.4-6.6 5.7-1.7-1.8-.1-19.6-.1-19.6m-69.7-1.8s-1.5-10.4-5-7.4c-3.6 3.2-3.2 16.5-2 21.4.9 3.5 5.5 7.3 7.3 5.5 1.9-1.7-.3-19.5-.3-19.5"/>
  <path fill="#FFF" d="M176 452.4c0 3.7-2.4 33.1 7.9 46 5.8 7.3 14 14.4 18.7 15.5 7.7 1.8 12.7 3.2 19.5 1.7 6.8-1.5 16.8-8.6 23-22.3 2.9-6.5 10.9-57.8-3.9-72.3-9.7-9.5-30.9-8.3-39.1-7.9-8.2.3-26.4 3.2-26.1 39.3m10.3 240.5l-4-63.9h59.6l-1.3 63.9h-24.4v-51.8c0-1.4-.9-2.5-3.6-2.5s-3.6 1.1-3.6 2.5v51.8h-22.7z"/>
  <path fill="#00A78E" d="M226.7 464.6c0 2 1.6 3.6 3.7 3.6 2 0 3.7-1.6 3.7-3.6s-1.6-3.6-3.7-3.6-3.7 1.6-3.7 3.6"/>
  <path fill="#00A78E" d="M241.3 465.5s-5-4.8-10.9-4.8c-3 0-6.3 1.3-9.2 5.1l.9 1.1c2.6-3.5 5.5-4.6 8.3-4.6 2.7 0 5.3 1.1 7.1 2.2.9.6 1.7 1.1 2.2 1.5.3.2.5.4.6.5l.2.2.8-1.2z"/>
  <path fill="#FFF" d="M229.4 464.5c0 .7-.4 1.2-.9 1.2s-.8-.6-.8-1.2c0-.7.4-1.3.8-1.3.5.1.9.6.9 1.3"/>
  <path fill="#00A78E" d="M202 464.6c0 2-1.6 3.6-3.7 3.6-2 0-3.7-1.6-3.7-3.6s1.6-3.6 3.7-3.6c2 0 3.7 1.6 3.7 3.6"/>
  <path fill="#00A78E" d="M188.1 466.8l.2-.2c1-.9 5.3-4.3 10-4.3 2.8 0 5.7 1.1 8.3 4.6l.9-1.1c-2.9-3.8-6.2-5.1-9.2-5.1-5.9 0-10.9 4.7-10.9 4.8l.7 1.3z"/>
  <path fill="#FFF" d="M196.9 464.5c0 .7-.4 1.2-.8 1.2-.5 0-.8-.6-.8-1.2 0-.7.4-1.3.8-1.3.4.1.8.6.8 1.3"/>
  <path fill="#00A78E" d="M204.4 448.6s4.7 4.1.7 4.9c-3.9.7-10.3-.6-13.2 0-2.9.6-8.4 2.8-8.4 2.8l-.4-2.3c.1 0 7.8-7.2 21.3-5.4m19.5-3.8s-4.5 4-.6 4.9c3.9.9 10.3-.3 13.2.5 2.9.7 8.5 3.1 8.5 3.1l.3-2.3c0-.1-7.9-7.6-21.4-6.2m-14 39s1.2.1 2.9.2c.8 0 1.9.1 2.8 0 .2 0 .4-.1.6-.2.1 0 .1-.1.2-.1s.1-.1.1-.1c.1 0 0-.1.1-.1v.1-.1l.1-.2c.1-.3.1-.5.1-.7.1-1 .1-2.2 0-3.2 0-1.1-.1-2.1-.1-3 0-1.7.1-3 .1-3s.6 1.1 1.1 2.8c.3.9.5 1.9.7 3 .2 1.1.3 2.3.2 3.6-.1.3-.1.8-.2 1l-.1.2v.2l-.1.2c-.1.2-.2.5-.4.6-.2.2-.4.3-.6.4-.2.1-.4.2-.6.2-.4.1-.7.2-1 .1-.7 0-1.2-.1-1.7-.2s-1-.3-1.4-.4c-1.8-.6-2.8-1.3-2.8-1.3m-7.3 6.4s13 5.4 23.5.9c-1.4 3.1-15.5 10.8-23.5-.9"/>
  <path fill="#FFF" d="M205.3 516.4s.3 10-4.4 12.7c-4.2 2.5-6.1 3-6.1 3s20.7 8.3 37.2 1.6c-8.9-2.4-8.3-5.5-8.3-5.5l-1.6-10.3-16.8-1.5z"/>
  <path fill="none" stroke="#00A78E" stroke-width="3.076" stroke-miterlimit="10" d="M205.3 516.4s.3 10-4.4 12.7c-4.2 2.5-6.1 3-6.1 3s20.7 8.3 37.2 1.6c-8.9-2.4-8.3-5.5-8.3-5.5l-1.6-10.3-16.8-1.5z"/>
  <path fill="#FFF" d="M54.4 520.5s.2 8.4-3.7 10.7c-3.6 2.1-5.2 2.5-5.2 2.5s17.4 7 31.4 1.3c-7.5-2-7-4.6-7-4.6l-1.3-8.7-14.2-1.2z"/>
  <path fill="none" stroke="#00A78E" stroke-width="3.076" stroke-miterlimit="10" d="M54.4 520.5s.2 8.4-3.7 10.7c-3.6 2.1-5.2 2.5-5.2 2.5s17.4 7 31.4 1.3c-7.5-2-7-4.6-7-4.6l-1.3-8.7-14.2-1.2z"/>
  <path fill="#FFF" d="M175.8 622.3c.6 1.6.6 3.1-1.6 2.7l-.5-.8-3-4.9-1.3 1c-.7.6-1 1.4-.8 2.2.2.6.4 1.4.5 1.9.1.4.4.7.8 1l2.3 1.9c.6.5.2.9 0 1.3l-.4.2c-.6.3-1.6.2-2.2-.3l-2.6-2.2c-.3-.1-.5-.3-.6-.5l-3.5-6.3c-.2-.4-1.6-2-1.4-2.4l4.2-5.7c.1-.2.4-1.4.4-1.6l-2.5-26.8.8-4.5s4.8-22.5 6.4-21.8l16.2 6c1.3.5-4.8 11.5-4.8 11.5-2.8 5.4-3.8 7.2-4.9 10.5l-3 28v.4l1.5 9.2z"/>
  <path fill="none" stroke="#00A78E" stroke-miterlimit="10" d="M175.8 622.3c.6 1.6.6 3.1-1.6 2.7l-.5-.8-3-4.9-1.3 1c-.7.6-1 1.4-.8 2.2.2.6.4 1.4.5 1.9.1.4.4.7.8 1l2.3 1.9c.6.5.2.9 0 1.3l-.4.2c-.6.3-1.6.2-2.2-.3l-2.6-2.2c-.3-.1-.5-.3-.6-.5l-3.5-6.3c-.2-.4-1.6-2-1.4-2.4l4.2-5.7c.1-.2.4-1.4.4-1.6l-2.5-26.8.8-4.5s4.8-22.5 6.4-21.8l16.2 6c1.3.5-4.8 11.5-4.8 11.5-2.8 5.4-3.8 7.2-4.9 10.5l-3 28v.4l1.5 9.2z"/>
  <path fill="#FFF" d="M258.5 627.2c-.4 0-.7-.1-1-.2l-.5-.3-.1-.2c-.2-.3-.7-1.1.1-1.8l2.3-2c.3-.3.6-.5.6-.8l.5-1.9c.2-.6 0-1.2-.6-1.7l-.8-.6-3.2 5.5h-.2c-.3.1-.6.1-.9.1-.8 0-1.2-.3-1.4-.6-.4-.6-.4-1.5 0-2.8l1.3-9.2v-.3l-3.3-27.9c-.6-1.5-1.6-3.4-3-5.8-.1-.2-.2-.3-.2-.3-2.7-4.1-9-14-8.5-15.5.1-.2.2-.3.4-.4l16.2-6.4h.2c1.8 0 5.7 11.8 8.8 21.8l.9 4.6-2.2 27c0 .2.3 1.2.4 1.4l3 5.6c.2.6.1 2.3-.2 2.8l-3.4 6.4c-.2.3-.4.5-.8.7l-2.5 2.2c-.6.4-1.2.6-1.9.6"/>
  <path fill="#00A78E" d="M256.3 554.6c1.7 0 8.3 21.4 8.3 21.4l.8 4.5-2.2 26.9c0 .2.3 1.4.4 1.6l3 5.6c.1.4 0 2-.2 2.4l-3.4 6.4c-.1.2-.3.4-.6.5l-2.5 2.2c-.4.3-.9.5-1.4.5-.3 0-.5-.1-.8-.2l-.4-.2c-.2-.4-.6-.8-.1-1.3l2.3-2c.4-.3.7-.7.8-1.1.1-.5.3-1.3.5-1.9.2-.8-.1-1.7-.8-2.2l-1.3-1-2.9 5-.5.8c-.3.1-.6.1-.8.1-1.4 0-1.3-1.3-.9-2.7l1.3-9.2v-.4l-3.3-28c-1.1-2.6-3.2-6.1-3.2-6.2 0 0-9.7-14.8-8.4-15.3l16.3-6.2m0-1c-.2 0-.3 0-.4.1l-16.1 6.4c-.3.1-.6.4-.7.7-.1.5-.6 1.9 8.6 16 0 .1.1.1.1.2 1.4 2.3 2.4 4.2 3 5.7l3.3 27.8v.1l-1.3 9.2c-.3.9-.6 2.2.1 3.1.3.4.8.8 1.8.8.3 0 .6 0 1-.1l.4-.1.2-.4.5-.8 2.4-4 .4.3c.4.3.6.7.5 1.2l-.5 1.9c0 .2-.2.3-.4.5l-2.3 2c-.8.7-.8 1.5-.2 2.5l.1.1.2.2.3.1.4.2c.3.2.8.3 1.2.3.8 0 1.5-.3 2-.7l2.4-2.1c.4-.2.7-.5.9-.9l3.4-6.4c.3-.6.5-2.5.2-3.2l-3-5.6c-.1-.2-.3-.9-.3-1.2l2.2-26.9v-.2l-.8-4.5v-.2c0-.1-1.7-5.4-3.5-10.7-4.3-11.4-5.2-11.4-6.1-11.4"/>
  <path fill="#FFF" d="M265.2 560.3l-19.1 14.3-2.4-8.6 2.5 21c.3 3.6.5 15.1-.5 25.6l-2.2 13.9h-60.2l-2.2-16.4c-.7-8.6.1-21.5.4-24.8l3.5-19.5-2.9 8.1-17.1-13s-3 2.6 4.6-10.9 24.4-18.2 24.4-18.2l20.3 2.7 19.3-1.3s17.9 3.7 25.5 17.2c7.7 13.5 6.1 9.9 6.1 9.9"/>
  <path fill="none" stroke="#00A78E" stroke-width="2.562" stroke-miterlimit="10" d="M265.2 560.3l-19.1 14.3-2.4-8.6 2.5 21c.3 3.6.5 15.1-.5 25.6l-2.2 13.9h-60.2l-2.2-16.4c-.7-8.6.1-21.5.4-24.8l3.5-19.5-2.9 8.1-17.1-13s-3 2.6 4.6-10.9 24.4-18.2 24.4-18.2l20.3 2.7 19.3-1.3s17.9 3.7 25.5 17.2c7.7 13.5 6.1 9.9 6.1 9.9"/>
  <path fill="#FFF" d="M34 693.2L30 630h59l-1.3 63.3H63.6V642c0-1.3-.9-2.4-3.6-2.4s-3.6 1.1-3.6 2.4v51.3H34zm-10.4-69.9c.6 1.6.6 3.1-1.6 2.6l-.5-.8-3-4.8-1.3 1c-.7.6-1 1.4-.8 2.2.2.6.4 1.4.5 1.9.1.4.4.7.8 1l2.3 1.9c.6.5.2.9 0 1.2l-.4.2c-.6.3-1.6.2-2.1-.3l-2.5-2.1c-.3-.1-.5-.3-.6-.5l-3.4-6.3c-.2-.4-.4-2-.2-2.3l2.9-5.6c.1-.2.4-1.4.4-1.6l-2.5-26.5.8-4.5s4.7-22.2 6.4-21.6l16 5.9c1.2.5-4.8 11.4-4.8 11.4-2.8 5.3-3.8 7.1-4.8 10.4l-3 27.7v.4l1.4 9.1z"/>
  <path fill="none" stroke="#00A78E" stroke-miterlimit="10" d="M23.6 623.3c.6 1.6.6 3.1-1.6 2.6l-.5-.8-3-4.8-1.3 1c-.7.6-1 1.4-.8 2.2.2.6.4 1.4.5 1.9.1.4.4.7.8 1l2.3 1.9c.6.5.2.9 0 1.2l-.4.2c-.6.3-1.6.2-2.1-.3l-2.5-2.1c-.3-.1-.5-.3-.6-.5l-3.4-6.3c-.2-.4-.4-2-.2-2.3l2.9-5.6c.1-.2.4-1.4.4-1.6l-2.5-26.5.8-4.5s4.7-22.2 6.4-21.6l16 5.9c1.2.5-4.8 11.4-4.8 11.4-2.8 5.3-3.8 7.1-4.8 10.4l-3 27.7v.4l1.4 9.1z"/>
  <path fill="#FFF" d="M105.4 628.2c-.4 0-.7-.1-1-.2l-.5-.3-.1-.2c-.2-.3-.7-1.1.1-1.8l2.3-2c.3-.3.5-.5.6-.8l.5-1.9c.2-.6 0-1.2-.6-1.7l-.8-.6-3.2 5.4h-.2c-.3.1-.6.1-.9.1-.8 0-1.2-.3-1.4-.6-.4-.6-.4-1.5 0-2.7l1.3-9.1v-.3l-3.2-27.6c-.6-1.4-1.6-3.4-3-5.7-.1-.2-.2-.3-.2-.3-2.7-4.1-8.9-13.9-8.4-15.4.1-.2.2-.3.4-.4l16-6.3h.2c1.7 0 5.7 11.7 8.7 21.5l.9 4.6-2.2 26.7c0 .2.3 1.2.4 1.3l3 5.5c.2.6.1 2.3-.2 2.8l-3.4 6.4c-.1.3-.4.5-.8.7l-2.4 2.2c-.6.5-1.3.7-1.9.7"/>
  <path fill="#00A78E" d="M103.2 556.4c1.7 0 8.2 21.2 8.2 21.2l.8 4.5-2.2 26.7c0 .2.3 1.4.4 1.6l3 5.6c.1.3 0 2-.2 2.3l-3.4 6.4c-.1.2-.3.4-.6.5l-2.5 2.2c-.4.3-.9.5-1.4.5-.3 0-.5-.1-.7-.2l-.4-.2c-.2-.4-.6-.8-.1-1.2l2.3-2c.4-.3.7-.7.8-1 .1-.5.3-1.3.5-1.9.2-.8-.1-1.6-.8-2.2l-1.3-.9-2.9 4.9-.5.8c-.3.1-.5.1-.8.1-1.4 0-1.3-1.3-.9-2.7l1.3-9.2v-.4l-3.3-27.7c-1-2.6-3.1-6-3.2-6.1 0 0-9.6-14.6-8.3-15.1l16.2-6.5m0-1c-.2 0-.3 0-.4.1l-15.9 6.3c-.3.1-.6.4-.7.7-.1.5-.6 1.9 8.5 15.9 0 .1.1.1.1.2 1.4 2.3 2.3 4.2 2.9 5.6l3.2 27.5v.1l-1.3 9.1c-.3.9-.6 2.2.1 3.1.3.4.8.8 1.8.8.3 0 .6 0 1-.1l.4-.1.2-.4.5-.8 2.3-3.9.4.3c.4.3.6.7.4 1.1l-.5 1.9c0 .2-.2.3-.4.5l-2.3 2c-.8.7-.8 1.5-.2 2.5l.1.1.2.2.3.1.4.2c.3.2.8.3 1.2.3.8 0 1.5-.3 2-.7l2.4-2.1c.4-.2.7-.5.9-.9l3.4-6.4c.3-.6.5-2.5.2-3.2l-3-5.5c-.1-.2-.3-.9-.3-1.2l2.2-26.6v-.2l-.8-4.5v-.2c0-.1-1.6-5.4-3.5-10.6-4-11.2-4.9-11.2-5.8-11.2"/>
  <path fill="#FFF" d="M112.1 562l-18.8 14.2-2.4-8.5 2.5 20.7c.3 3.5 12.8 68 12.8 68l-83.3-2.2s6.1-64.1 6.5-67.4l3.4-19.3-2.9 8L13 562.6s-1.8 2.6 5.7-10.8c7.5-13.3 24.1-18 24.1-18l20 2.6 19.1-1.3s17.7 3.7 25.2 17c7.7 13.4 5 9.9 5 9.9"/>
  <path fill="none" stroke="#00A78E" stroke-width="2.562" stroke-miterlimit="10" d="M112.1 562l-18.8 14.2-2.4-8.5 2.5 20.7c.3 3.5 12.8 68 12.8 68l-83.3-2.2s6.1-64.1 6.5-67.4l3.4-19.3-2.9 8L13 562.6s-1.8 2.6 5.7-10.8c7.5-13.3 24.1-18 24.1-18l20 2.6 19.1-1.3s17.7 3.7 25.2 17c7.7 13.4 5 9.9 5 9.9"/>
  <path fill="#FFF" d="M57 693.8s-1-9.7-17.4-8.8c-16.3.9-17.6 7.2-18.2 9m78.6-.2s-1-9.7-17.4-8.8c-16.3.9-17.6 7.2-18.2 9m143-.9s-1.1-10.3-18.4-9.4c-17.3.9-18.7 7.7-19.3 9.5m85.6-.1s-1.1-10.3-18.4-9.4c-17.3.9-18.7 7.7-19.3 9.5"/>
  <path fill="#00A78E" d="M252.4 450.4s4.6-14.8 3.4-21c-1.1-6.2-4.5-10.7-16.6-21-7.9-6.8-27.7-5.2-30.7-8.4-2.9-3.2-21.7 7.3-21.7 7.3s-22.6-3-12.8 46c.9 4.3 1.9 9.2 1.9 9.2 4.4.4.8-1.5.9-19.3.1-24.7 26.3-6 36.2-6.5 11.9-.6 32.3-12.6 35.3.8s.3 26.2.3 26.2l3.2 3 .6-16.3z"/>
  <path fill="none" stroke="#FFF" stroke-miterlimit="10" d="M252.4 450.4s4.6-14.8 3.4-21c-1.1-6.2-4.5-10.7-16.6-21-7.9-6.8-27.7-5.2-30.7-8.4-2.9-3.2-21.7 7.3-21.7 7.3s-22.6-3-12.8 46c.9 4.3 1.9 9.2 1.9 9.2 4.4.4.8-1.5.9-19.3.1-24.7 26.3-6 36.2-6.5 11.9-.6 32.3-12.6 35.3.8s.3 26.2.3 26.2l3.2 3 .6-16.3z"/>
  <path fill="#00A78E" d="M119.8 474.3c0 12.9-10.1 23.3-22.9 23.9-13.6.6-24.9-10.7-25-24.3-.1-13 10.7-22.2 23.8-22.2 13.2 0 24.1 9.3 24.1 22.6"/>
  <path fill="none" stroke="#FFF" stroke-miterlimit="10" d="M119.8 474.3c0 12.9-10.1 23.3-22.9 23.9-13.6.6-24.9-10.7-25-24.3-.1-13 10.7-22.2 23.8-22.2 13.2 0 24.1 9.3 24.1 22.6z"/>
  <path fill="#00A78E" d="M48.4 474.3c0 12.9-10.1 23.3-22.9 23.9-13.6.6-24.9-10.7-25-24.3-.1-13 10.7-22.2 23.8-22.2 13.2 0 24.1 9.3 24.1 22.6"/>
  <path fill="none" stroke="#FFF" stroke-miterlimit="10" d="M48.4 474.3c0 12.9-10.1 23.3-22.9 23.9-13.6.6-24.9-10.7-25-24.3-.1-13 10.7-22.2 23.8-22.2 13.2 0 24.1 9.3 24.1 22.6z"/>
  <path fill="#FFF" d="M18.7 461.1c3.6-39.1 17.7-42.5 27.9-43S83 416 95 428.7c9 9.6 8.8 11.6 5 40.7-2 15.4.4 21.1-15.1 37.2-15.3 15.9-14.5 13.8-31.3 13.8-4 0-11.5-4.8-21.7-14.3-15.7-14.6-12.7-28.7-13.2-33.6"/>
  <path fill="#00A78E" d="M47.8 471.1c0 2.5-2.2 4.5-4.9 4.5s-4.9-2-4.9-4.5 2.2-4.5 4.9-4.5 4.9 2 4.9 4.5"/>
  <path fill="#00A78E" d="M51.5 471.2s-.4-.3-1-.8-1.6-1.1-2.7-1.6c-.6-.3-1.2-.5-1.8-.8-.7-.2-1.4-.4-2.1-.5-.7-.1-1.5-.1-2.2 0-.8 0-1.5.3-2.2.6-.7.3-1.5.6-2.1 1.1-.7.4-1.3 1-2 1.5-.6.5-1.3 1.2-2.1 1.6-.4.2-.8.4-1.1.5-.4.1-.7.2-1.1.2-1.4.1-2.5-.2-3.2-.7-.7-.4-1-.8-1-.8s.4.2 1.1.3c.7.1 1.7 0 2.9-.4.3-.1.6-.2.8-.4.3-.2.6-.3.8-.5.5-.4.9-1.1 1.7-1.7.7-.7 1.3-1.4 2.1-1.9.8-.6 1.6-1 2.5-1.4.9-.3 1.8-.6 2.7-.6.9-.1 1.8.1 2.6.3.4.1.8.2 1.2.4.4.2.8.4 1.1.6.7.4 1.3.8 1.9 1.3.6.4 1 1 1.4 1.4.4.4.7.9 1 1.2.6.7.8 1.1.8 1.1"/>
  <path fill="#00A78E" d="M41.2 469.5c0 .9-.4 1.6-1 1.6-.5 0-1-.7-1-1.6 0-.9.4-1.6 1-1.6.6-.1 1 .7 1 1.6m12.4-14.9s2.8 2.9-4.6 3.7c-7.4.8-13.5-5.1-16.8-.8-3.4 4.3-9.2 5.9-4.4 1.7 4.8-4.2 3.7-6.8 11.3-6.3 7.5.5 14 .5 14.5 1.7m12.3 1.8s-2.2 3.5 5.1 2.5 12.4-8.3 16.4-4.9c4 3.3 10 3.5 4.6.6s-4.8-5.7-12.1-3.3c-7.3 2.2-13.7 3.8-14 5.1"/>
  <path fill="#FFF" d="M60.1 478.8s2.6 7.7 4.9 10.2c8.3 9.1-14.6 7.7-8.8 4.4"/>
  <path fill="#00A78E" d="M60.1 478.8s.2.4.7 1.2c.2.4.5.8.7 1.3.3.5.6 1.1.9 1.7.3.6.7 1.3 1.1 2 .4.7.8 1.4 1.3 2.1.5.7.9 1.2 1.7 2.1.6.8 1.3 1.8 1.4 3.1.1.7-.1 1.4-.5 2-.4.6-.9 1-1.3 1.3-1 .6-2 .8-2.9 1-1.9.3-3.6.1-5.1-.2-.7-.2-1.4-.4-2-.7-.3-.1-.5-.3-.7-.6-.2-.2-.3-.6-.2-.9.2-.5.6-.6.8-.7.2-.1.3-.1.3-.1s-.1.1-.3.2c-.2.1-.4.4-.5.7-.1.3.3.5.8.7.5.2 1.1.2 1.8.3 1.4.1 3 0 4.6-.5.8-.2 1.6-.5 2.2-.9.6-.5.9-.9.8-1.4 0-.6-.5-1.3-1-2-.5-.6-1.3-1.5-1.7-2.3-.9-1.7-1.5-3.2-2-4.6-.7-2.8-.9-4.8-.9-4.8m-11.6 23.5s15.1 7.4 23.9-4.6c-6.4 20.5-25.7 3.2-23.9 4.6m23.9-31.6c0 2.5 2.2 4.5 4.9 4.5s4.9-2 4.9-4.5-2.2-4.5-4.9-4.5-4.9 2-4.9 4.5"/>
  <path fill="#00A78E" d="M68.3 470.8s.4-.3 1-.8 1.6-1.1 2.7-1.6c.6-.3 1.2-.5 1.9-.8.7-.2 1.4-.4 2.1-.5.7-.1 1.5-.1 2.2 0 .8 0 1.5.3 2.2.6.7.3 1.5.6 2.1 1.1.7.4 1.3 1 2 1.5.6.5 1.3 1.2 2.1 1.6.4.2.8.4 1.1.5.4.1.7.2 1.1.2 1.4.1 2.5-.2 3.2-.7.7-.4 1-.8 1-.8s-.4.2-1.1.3c-.7.1-1.7 0-2.9-.4-.3-.1-.6-.2-.8-.4-.3-.2-.6-.3-.8-.5-.6-.4-1-1.1-1.7-1.7-.7-.7-1.3-1.4-2.1-1.9-.8-.6-1.6-1-2.5-1.4-.9-.3-1.8-.6-2.7-.6-.9-.1-1.8.1-2.7.3-.4.1-.8.2-1.2.4-.4.2-.8.4-1.1.6-.7.4-1.3.8-1.9 1.3-.6.4-1 1-1.4 1.4-.4.4-.7.9-1 1.2-.5.7-.8 1.1-.8 1.1m5.7-1.4c0 .9.4 1.6 1 1.6.5 0 1-.7 1-1.6 0-.9-.4-1.6-1-1.6-.5 0-1 .7-1 1.6m4.1-38.7s16.5 13.6 18.2 24.7c1.8 11-.1 32-.1 32s6.6-19.4 7.6-28.3c.7-5.9.8-14.3.3-22.1-.5-7.8-10-16.6-17.8-16H86c-11.6 1.1-7.9 9.7-7.9 9.7"/>
  <path fill="none" stroke="#FFF" stroke-miterlimit="10" d="M78.1 430.7s16.5 13.6 18.2 24.7c1.8 11-.1 32-.1 32s6.6-19.4 7.6-28.3c.7-5.9.8-14.3.3-22.1-.5-7.8-10-16.6-17.8-16H86c-11.6 1.1-7.9 9.7-7.9 9.7z"/>
  <path fill="#00A78E" d="M17.2 459.1s.5-34.5 23-40.1c22.5-5.5 45.8 2 45.8 2s-17.7 30.6-68.8 38.1"/>
  <path fill="none" stroke="#FFF" stroke-miterlimit="10" d="M17.2 459.1s.5-34.5 23-40.1c22.5-5.5 45.8 2 45.8 2s-17.7 30.6-68.8 38.1z"/>
  <path fill="#FFF" d="M46.1 471.1c0 .7-.4 1.3-.9 1.3s-.9-.6-.9-1.3c0-.7.4-1.3.9-1.3.5-.1.9.5.9 1.3m34.7 0c0 .7-.4 1.3-.9 1.3s-.9-.6-.9-1.3c0-.7.4-1.3.9-1.3.5-.1.9.5.9 1.3m15.8-1.2s1.3-11.2 4.7-8.1c2.9 2.6 4.2 14.6 2.5 23-.8 3.7-5.2 8-7.1 6.1-1.8-1.8-.1-21-.1-21m-74.9.9s-1.6-11.2-5.3-8c-3.9 3.4-3.5 17.8-2.2 23.1.9 3.7 5.9 7.8 7.9 5.9 2-1.9-.4-21-.4-21m419-4.7s1.2-10.4 4.4-7.5c2.7 2.4 3.9 13.6 2.3 21.4-.7 3.5-4.9 7.4-6.6 5.7-1.7-1.7-.1-19.6-.1-19.6m-69.7-1.8s-1.5-10.4-5-7.4c-3.6 3.2-3.2 16.5-2 21.4.9 3.5 5.5 7.3 7.3 5.5 1.9-1.7-.3-19.5-.3-19.5"/>
  <path fill="#FFF" d="M369.4 449.6c0 3.7-2.4 33.1 7.9 46 5.8 7.3 14 14.4 18.7 15.5 7.7 1.8 12.7 3.2 19.5 1.7 6.8-1.5 16.8-8.6 23-22.3 2.9-6.5 10.9-57.8-3.9-72.3-9.7-9.5-30.9-8.3-39.1-7.9-8.2.2-26.5 3.1-26.1 39.3m10.3 240.5l-4-63.9h59.6l-1.3 63.9h-24.4v-51.8c0-1.4-.9-2.5-3.6-2.5s-3.6 1.1-3.6 2.5v51.8h-22.7z"/>
  <path fill="#00A78E" d="M420.1 461.7c0 2 1.6 3.6 3.7 3.6 2 0 3.7-1.6 3.7-3.6s-1.6-3.6-3.7-3.6-3.7 1.6-3.7 3.6"/>
  <path fill="#00A78E" d="M434.7 462.7s-5-4.8-10.9-4.8c-3 0-6.3 1.3-9.2 5.1l.9 1.1c2.6-3.5 5.6-4.6 8.3-4.6 2.7 0 5.3 1.1 7.1 2.2.9.6 1.7 1.1 2.2 1.5.3.2.5.4.6.5l.2.2.8-1.2z"/>
  <path fill="#FFF" d="M422.8 461.7c0 .7-.4 1.2-.9 1.2s-.8-.6-.8-1.2c0-.7.4-1.3.8-1.3.5 0 .9.6.9 1.3"/>
  <path fill="#00A78E" d="M395.3 461.7c0 2-1.6 3.6-3.7 3.6-2 0-3.7-1.6-3.7-3.6s1.6-3.6 3.7-3.6 3.7 1.6 3.7 3.6"/>
  <path fill="#00A78E" d="M381.5 463.9l.2-.2c1-.9 5.3-4.3 10-4.3 2.8 0 5.7 1.1 8.3 4.6l.9-1.1c-2.9-3.8-6.2-5.1-9.2-5.1-5.9 0-10.9 4.7-10.9 4.8l.7 1.3z"/>
  <path fill="#FFF" d="M390.3 461.7c0 .7-.4 1.2-.8 1.2-.5 0-.8-.6-.8-1.2 0-.7.4-1.3.8-1.3s.8.6.8 1.3"/>
  <path fill="#00A78E" d="M397.8 445.8s4.7 4.1.7 4.9c-3.9.7-10.3-.6-13.2 0-2.9.6-8.4 2.8-8.4 2.8l-.4-2.3c.1-.1 7.7-7.3 21.3-5.4m19.4-3.8s-4.5 4-.6 4.9c3.9.9 10.3-.3 13.2.5 2.9.7 8.5 3.1 8.5 3.1l.3-2.3c0-.1-7.8-7.6-21.4-6.2m-13.9 38.9s1.2.1 2.9.2c.8 0 1.9.1 2.8 0 .2 0 .4-.1.6-.2.1 0 .1-.1.2-.1s.1-.1.1-.1c.1 0 0-.1.1-.1v.1-.1l.1-.2c.1-.3.1-.5.1-.7.1-1 .1-2.2 0-3.2 0-1.1-.1-2.1-.1-3 0-1.7.1-3 .1-3s.6 1.1 1.1 2.8c.3.9.5 1.9.7 3 .2 1.1.3 2.3.2 3.6-.1.3-.1.8-.2 1l-.1.2v.2l-.1.2c-.1.2-.2.5-.4.6-.2.2-.4.3-.6.4-.2.1-.4.2-.6.2-.4.1-.7.2-1 .1-.7 0-1.2-.1-1.7-.2s-1-.3-1.4-.4c-1.8-.5-2.8-1.3-2.8-1.3m-7.3 6.5s13 5.4 23.5.9c-1.4 3-15.6 10.7-23.5-.9"/>
  <path fill="#FFF" d="M398.7 513.5s.3 10-4.4 12.7c-4.2 2.5-6.1 3-6.1 3s20.7 8.3 37.2 1.6c-8.9-2.4-8.3-5.5-8.3-5.5l-1.6-10.3-16.8-1.5z"/>
  <path fill="none" stroke="#00A78E" stroke-width="3.076" stroke-miterlimit="10" d="M398.7 513.5s.3 10-4.4 12.7c-4.2 2.5-6.1 3-6.1 3s20.7 8.3 37.2 1.6c-8.9-2.4-8.3-5.5-8.3-5.5l-1.6-10.3-16.8-1.5z"/>
  <path fill="#FFF" d="M369.2 619.4c.6 1.6.6 3.1-1.6 2.7l-.5-.8-3-4.9-1.3 1c-.7.6-1 1.4-.8 2.2.2.6.4 1.4.5 1.9.1.4.4.7.8 1l2.3 1.9c.6.5.2.9 0 1.3l-.4.2c-.6.3-1.6.2-2.2-.3l-2.6-2.2c-.3-.1-.5-.3-.6-.5l-3.5-6.3c-.2-.4-1.6-2-1.4-2.4l4.2-5.7c.1-.2.4-1.4.4-1.6l-2.5-26.8.8-4.5s4.8-22.5 6.4-21.8l16.2 6c1.3.5-4.8 11.5-4.8 11.5-2.8 5.4-3.8 7.2-4.9 10.5l-3 28v.4l1.5 9.2z"/>
  <path fill="none" stroke="#00A78E" stroke-miterlimit="10" d="M369.2 619.4c.6 1.6.6 3.1-1.6 2.7l-.5-.8-3-4.9-1.3 1c-.7.6-1 1.4-.8 2.2.2.6.4 1.4.5 1.9.1.4.4.7.8 1l2.3 1.9c.6.5.2.9 0 1.3l-.4.2c-.6.3-1.6.2-2.2-.3l-2.6-2.2c-.3-.1-.5-.3-.6-.5l-3.5-6.3c-.2-.4-1.6-2-1.4-2.4l4.2-5.7c.1-.2.4-1.4.4-1.6l-2.5-26.8.8-4.5s4.8-22.5 6.4-21.8l16.2 6c1.3.5-4.8 11.5-4.8 11.5-2.8 5.4-3.8 7.2-4.9 10.5l-3 28v.4l1.5 9.2z"/>
  <path fill="#FFF" d="M451.9 624.4c-.4 0-.7-.1-1-.2l-.5-.3-.1-.2c-.2-.3-.7-1.1.1-1.8l2.3-2c.3-.3.6-.5.6-.8l.5-1.9c.2-.6 0-1.2-.6-1.7l-.8-.6-3.2 5.5h-.2c-.3.1-.6.1-.9.1-.8 0-1.2-.3-1.4-.6-.4-.6-.4-1.5 0-2.8l1.3-9.2v-.3l-3.3-27.9c-.6-1.5-1.6-3.4-3-5.8-.1-.2-.2-.3-.2-.3-2.7-4.1-9-14-8.5-15.5.1-.2.2-.3.4-.4l16.2-6.4h.2c1.8 0 5.7 11.8 8.8 21.8l.9 4.6-2.2 27c0 .2.3 1.2.4 1.4l3 5.6c.2.6.1 2.3-.2 2.8l-3.4 6.4c-.2.3-.4.5-.8.7l-2.5 2.2c-.6.3-1.3.6-1.9.6"/>
  <path fill="#00A78E" d="M449.7 551.8c1.7 0 8.3 21.4 8.3 21.4l.8 4.5-2.2 26.9c0 .2.3 1.4.4 1.6l3 5.6c.1.4 0 2-.2 2.4l-3.4 6.4c-.1.2-.3.4-.6.5l-2.5 2.2c-.4.3-.9.5-1.4.5-.3 0-.5-.1-.8-.2l-.4-.2c-.2-.4-.6-.8-.1-1.3l2.3-2c.4-.3.7-.7.8-1.1.1-.5.3-1.3.5-1.9.2-.8-.1-1.7-.8-2.2l-1.3-1-2.9 5-.5.8c-.3.1-.6.1-.8.1-1.4 0-1.3-1.3-.9-2.7l1.3-9.2v-.4l-3.3-28c-1.1-2.6-3.2-6.1-3.2-6.2 0 0-9.7-14.8-8.4-15.3l16.3-6.2c-.1 0 0 0 0 0m0-1c-.2 0-.3 0-.4.1l-16.1 6.4c-.3.1-.6.4-.7.7-.1.5-.6 1.9 8.6 16 0 .1.1.1.1.2 1.4 2.3 2.4 4.2 2.9 5.7l3.3 27.8v.1l-1.3 9.2c-.3.9-.6 2.2.1 3.1.3.4.8.8 1.8.8.3 0 .6 0 1-.1l.4-.1.2-.4.5-.8 2.4-4 .4.3c.4.3.6.7.5 1.2l-.4 1.4-.1.5c0 .2-.2.4-.4.5l-2.3 2c-.8.7-.8 1.5-.2 2.5l.1.1.2.2.3.1.4.2c.3.2.8.3 1.2.3.8 0 1.5-.3 2-.7l2.4-2.1c.4-.2.7-.5.9-.9l3.4-6.4c.3-.6.5-2.5.2-3.2l-3-5.6c-.1-.2-.3-.9-.3-1.2l2.2-26.9v-.2l-.8-4.5v-.2c0-.1-1.7-5.4-3.5-10.7-4.2-11.4-5.1-11.4-6-11.4"/>
  <path fill="#FFF" d="M458.6 557.4l-19.1 14.3-2.4-8.6 2.5 21c.3 3.6.5 15.1-.5 25.6l-2.2 13.9h-60.2l-2.2-16.4c-.7-8.6.1-21.5.4-24.8l3.5-19.5-2.9 8.1-17.1-13s-3 2.6 4.6-10.9 24.4-18.2 24.4-18.2l20.3 2.7 19.3-1.3s17.9 3.7 25.5 17.2c7.7 13.5 6.1 9.9 6.1 9.9"/>
  <path fill="none" stroke="#00A78E" stroke-width="2.562" stroke-miterlimit="10" d="M458.6 557.4l-19.1 14.3-2.4-8.6 2.5 21c.3 3.6.5 15.1-.5 25.6l-2.2 13.9h-60.2l-2.2-16.4c-.7-8.6.1-21.5.4-24.8l3.5-19.5-2.9 8.1-17.1-13s-3 2.6 4.6-10.9 24.4-18.2 24.4-18.2l20.3 2.7 19.3-1.3s17.9 3.7 25.5 17.2c7.7 13.5 6.1 9.9 6.1 9.9"/>
  <path fill="#FFF" d="M400.8 690.2s-1.1-10.3-18.4-9.4c-17.3.9-18.7 7.7-19.3 9.5m85.6-.1s-1.1-10.3-18.4-9.4c-17.3.9-18.7 7.7-19.3 9.5"/>
  <path fill="#00A78E" d="M445.7 447.6s4.6-14.8 3.4-21c-1.1-6.2-4.5-10.7-16.6-21-7.9-6.8-15.7-1-17.4.5-2.6 2.3-10.3-5.7-13.2-8.9-2.9-3.2-13.1 7.4-11.8 10-5.6-3.1-9.9-2.7-9.9-2.7s-22.6-3-12.8 46c.9 4.3 1.9 9.2 1.9 9.2 4.4.4.8-1.5.9-19.3.1-24.7 27-19 36.8-19.5 11.9-.6 31.7.5 34.6 13.9 3 13.4.3 26.2.3 26.2l3.2 3 .6-16.4z"/>
  <path fill="none" stroke="#FFF" stroke-miterlimit="10" d="M445.7 447.6s4.6-14.8 3.4-21c-1.1-6.2-4.5-10.7-16.6-21-7.9-6.8-15.7-1-17.4.5-2.6 2.3-10.3-5.7-13.2-8.9-2.9-3.2-13.1 7.4-11.8 10-5.6-3.1-9.9-2.7-9.9-2.7s-22.6-3-12.8 46c.9 4.3 1.9 9.2 1.9 9.2 4.4.4.8-1.5.9-19.3.1-24.7 27-19 36.8-19.5 11.9-.6 31.7.5 34.6 13.9 3 13.4.3 26.2.3 26.2l3.2 3 .6-16.4z"/>
  <path fill="#FFF" d="M277.7 522.3s.2 8.4-3.7 10.7c-3.6 2.1-5.2 2.5-5.2 2.5s17.4 7 31.4 1.3c-7.5-2-7-4.6-7-4.6l-1.3-8.7-14.2-1.2z"/>
  <path fill="none" stroke="#00A78E" stroke-width="3.076" stroke-miterlimit="10" d="M277.7 522.3s.2 8.4-3.7 10.7c-3.6 2.1-5.2 2.5-5.2 2.5s17.4 7 31.4 1.3c-7.5-2-7-4.6-7-4.6l-1.3-8.7-14.2-1.2z"/>
  <path fill="#FFF" d="M257.2 695.1l-4-63.3h59l-1.3 63.3h-24.1v-51.3c0-1.4-.9-2.4-3.6-2.4s-3.6 1.1-3.6 2.4v51.3h-22.4zm-10.4-69.9c.6 1.6.6 3.1-1.6 2.6l-.5-.8-3-4.8-1.3 1c-.7.6-1 1.4-.8 2.2.2.6.4 1.4.5 1.9.1.4.4.7.8 1l2.3 1.9c.6.5.2.9 0 1.2l-.4.2c-.6.3-1.6.2-2.1-.3l-2.5-2.1c-.3-.1-.5-.3-.6-.5l-3.4-6.3c-.2-.4-.4-2-.2-2.3l2.9-5.6c.1-.2.4-1.4.4-1.6l-2.5-26.5.8-4.5s4.7-22.2 6.4-21.6l16 5.9c1.2.5-4.8 11.4-4.8 11.4-2.8 5.3-3.8 7.1-4.8 10.4l-3 27.7v.4l1.4 9.1z"/>
  <path fill="none" stroke="#00A78E" stroke-miterlimit="10" d="M246.8 625.2c.6 1.6.6 3.1-1.6 2.6l-.5-.8-3-4.8-1.3 1c-.7.6-1 1.4-.8 2.2.2.6.4 1.4.5 1.9.1.4.4.7.8 1l2.3 1.9c.6.5.2.9 0 1.2l-.4.2c-.6.3-1.6.2-2.1-.3l-2.5-2.1c-.3-.1-.5-.3-.6-.5l-3.4-6.3c-.2-.4-.4-2-.2-2.3l2.9-5.6c.1-.2.4-1.4.4-1.6l-2.5-26.5.8-4.5s4.7-22.2 6.4-21.6l16 5.9c1.2.5-4.8 11.4-4.8 11.4-2.8 5.3-3.8 7.1-4.8 10.4l-3 27.7v.4l1.4 9.1z"/>
  <path fill="#FFF" d="M328.7 630c-.4 0-.7-.1-1-.2l-.5-.3-.1-.2c-.2-.3-.7-1.1.1-1.8l2.3-2c.3-.3.5-.5.6-.8l.5-1.9c.2-.6 0-1.2-.6-1.7l-.8-.6-3.2 5.4h-.2c-.3.1-.6.1-.9.1-.8 0-1.2-.3-1.4-.6-.4-.6-.4-1.5 0-2.7l1.3-9.1v-.3l-3.2-27.6c-.6-1.4-1.6-3.4-3-5.7-.1-.2-.2-.3-.2-.3-2.7-4.1-8.9-13.9-8.4-15.4.1-.2.2-.3.4-.4l16-6.3h.2c1.7 0 5.7 11.7 8.7 21.5l.9 4.6-2.2 26.7c0 .2.3 1.2.4 1.3l3 5.5c.2.6.1 2.3-.2 2.8l-3.4 6.4c-.1.3-.4.5-.8.7l-2.4 2.2c-.6.5-1.3.7-1.9.7"/>
  <path fill="#00A78E" d="M326.5 558.2c1.7 0 8.2 21.2 8.2 21.2l.8 4.5-2.2 26.7c0 .2.3 1.4.4 1.6l3 5.6c.1.4 0 2-.2 2.3l-3.4 6.4c-.1.2-.3.4-.6.5l-2.5 2.2c-.4.3-.9.5-1.4.5-.3 0-.5-.1-.7-.2l-.4-.2c-.2-.4-.6-.8-.1-1.2l2.3-2c.4-.3.7-.7.8-1 .1-.5.3-1.3.5-1.9.2-.8-.1-1.6-.8-2.2l-1.3-.9-2.9 4.9-.5.8c-.3.1-.5.1-.8.1-1.4 0-1.3-1.3-.9-2.7l1.3-9.1v-.4l-3.3-27.7c-1-2.6-3.1-6-3.2-6.1 0 0-9.6-14.6-8.3-15.1l16.2-6.6c-.1 0 0 0 0 0m0-1c-.2 0-.3 0-.4.1l-15.9 6.3c-.3.1-.6.4-.7.7-.1.5-.6 1.9 8.5 15.9 0 .1.1.1.1.2 1.4 2.3 2.3 4.2 2.9 5.6l3.2 27.5v.1l-1.3 9.1c-.3.9-.6 2.2.1 3.1.3.4.8.8 1.8.8.3 0 .6 0 1-.1l.4-.1.2-.4.5-.8 2.3-3.9.4.3c.4.3.6.7.4 1.1l-.5 1.8v.1c0 .2-.2.3-.4.5l-2.3 2c-.8.7-.8 1.5-.2 2.5l.1.1.2.2.3.1.4.2c.3.2.8.3 1.2.3.8 0 1.5-.3 2-.7l2.4-2.1c.4-.2.7-.5.9-.9l3.4-6.4c.3-.6.5-2.5.2-3.2l-3-5.5c-.1-.2-.3-.9-.3-1.2l2.2-26.6v-.2l-.8-4.5v-.2c0-.1-1.6-5.4-3.5-10.6-4-11.2-4.9-11.2-5.8-11.2"/>
  <path fill="#FFF" d="M335.3 563.8L316.5 578l-2.4-8.5 2.5 20.7c.3 3.5 12.8 68 12.8 68l-83.3-2.2s6.1-64.1 6.5-67.4l3.4-19.3-2.9 8-16.9-12.9s-1.8 2.6 5.7-10.8c7.5-13.3 24.1-18 24.1-18l20 2.6 19.1-1.3s17.7 3.7 25.2 17c7.7 13.5 5 9.9 5 9.9"/>
  <path fill="none" stroke="#00A78E" stroke-width="2.562" stroke-miterlimit="10" d="M335.3 563.8L316.5 578l-2.4-8.5 2.5 20.7c.3 3.5 12.8 68 12.8 68l-83.3-2.2s6.1-64.1 6.5-67.4l3.4-19.3-2.9 8-16.9-12.9s-1.8 2.6 5.7-10.8c7.5-13.3 24.1-18 24.1-18l20 2.6 19.1-1.3s17.7 3.7 25.2 17c7.7 13.5 5 9.9 5 9.9"/>
  <path fill="#FFF" d="M280.3 695.7s-1-9.7-17.4-8.8c-16.3.9-17.6 7.2-18.2 9m78.5-.2s-1-9.7-17.4-8.8c-16.3.9-17.6 7.2-18.2 9"/>
  <path fill="#00A78E" d="M317.6 495.7s-3.9 5.2-8.8 10.1c-4.9 4.8 13.1 15 13.1 15s-10.3-11.4-4.3-25.1"/>
  <path fill="none" stroke="#FFF" stroke-miterlimit="10" d="M317.6 495.7s-3.9 5.2-8.8 10.1c-4.9 4.8 13.1 15 13.1 15s-10.3-11.4-4.3-25.1z"/>
  <path fill="#00A78E" d="M333.2 424c0 12.9-10.1 23.3-22.9 23.9-13.6.6-24.9-10.7-25-24.3-.1-13 10.7-22.2 23.8-22.2 13.2 0 24.1 9.4 24.1 22.6"/>
  <path fill="none" stroke="#FFF" stroke-miterlimit="10" d="M333.2 424c0 12.9-10.1 23.3-22.9 23.9-13.6.6-24.9-10.7-25-24.3-.1-13 10.7-22.2 23.8-22.2 13.2 0 24.1 9.4 24.1 22.6z"/>
  <path fill="#FFF" d="M242 463c3.6-39.1 17.7-42.5 27.9-43s36.4-2.1 48.4 10.6c9 9.6 8.8 11.6 5 40.7-2 15.4.4 21.1-15.1 37.2-15.3 15.9-14.5 13.8-31.3 13.8-4 0-11.5-4.8-21.7-14.3-15.7-14.6-12.7-28.7-13.2-33.6"/>
  <path fill="#00A78E" d="M271 472.9c0 2.5-2.2 4.5-4.9 4.5s-4.9-2-4.9-4.5 2.2-4.5 4.9-4.5c2.7.1 4.9 2.1 4.9 4.5"/>
  <path fill="#00A78E" d="M274.8 473.1s-.4-.3-1-.8-1.6-1.1-2.7-1.6c-.6-.3-1.2-.5-1.8-.8-.7-.2-1.4-.4-2.1-.5-.7-.1-1.5-.1-2.2 0-.8 0-1.5.3-2.2.6-.7.3-1.5.6-2.1 1.1-.7.4-1.3 1-2 1.5-.6.5-1.3 1.2-2.1 1.6-.4.2-.8.4-1.1.5-.4.1-.7.2-1.1.2-1.4.1-2.5-.2-3.2-.7-.7-.4-1-.8-1-.8s.4.2 1.1.3c.7.1 1.7 0 2.9-.4.3-.1.6-.2.8-.4.3-.2.6-.3.8-.5.5-.4.9-1.1 1.7-1.7.7-.7 1.3-1.4 2.1-1.9.8-.6 1.6-1 2.5-1.4.9-.3 1.8-.6 2.7-.6.9-.1 1.8.1 2.6.3.4.1.8.2 1.2.4.4.2.8.4 1.1.6.7.4 1.3.8 1.9 1.3.6.4 1 1 1.4 1.4.4.4.7.9 1 1.2.5.6.8 1.1.8 1.1"/>
  <path fill="#00A78E" d="M264.5 471.3c0 .9-.4 1.6-1 1.6-.5 0-1-.7-1-1.6 0-.9.4-1.6 1-1.6.5 0 1 .7 1 1.6m12.4-14.8s2.8 2.9-4.6 3.7c-7.4.8-13.5-5.1-16.8-.8-3.4 4.3-9.2 5.9-4.4 1.7 4.8-4.2 3.7-6.8 11.3-6.3 7.5.5 13.9.4 14.5 1.7m12.2 1.8s-2.2 3.5 5.1 2.5 12.4-8.3 16.4-4.9c4 3.3 10 3.5 4.6.6s-4.8-5.7-12.1-3.3c-7.3 2.2-13.7 3.7-14 5.1"/>
  <path fill="#FFF" d="M283.4 480.7s2.6 7.7 4.9 10.2c8.3 9.1-14.6 7.7-8.8 4.4"/>
  <path fill="#00A78E" d="M283.4 480.7s.2.4.7 1.2c.2.4.4.8.7 1.3.3.5.6 1.1.9 1.7.3.6.7 1.3 1.1 2 .4.7.8 1.4 1.3 2.1.5.7.9 1.2 1.7 2.1.6.8 1.3 1.8 1.4 3.1.1.7-.1 1.4-.5 2-.4.6-.9 1-1.3 1.3-1 .6-2 .8-2.9 1-1.9.3-3.6.1-5.1-.2-.7-.2-1.4-.4-2-.7-.3-.1-.5-.3-.7-.6-.2-.2-.3-.6-.2-.9.2-.5.6-.6.8-.7.2-.1.3-.1.3-.1s-.1.1-.3.2c-.2.1-.4.4-.5.7-.1.3.3.5.8.7.5.2 1.1.2 1.8.3 1.4.1 3 0 4.6-.5.8-.2 1.6-.5 2.2-.9.6-.5.9-.9.8-1.4 0-.6-.5-1.3-1-2-.5-.6-1.3-1.5-1.7-2.3-.9-1.7-1.5-3.2-2-4.6-.7-2.9-.9-4.8-.9-4.8m-11.7 23.5s15.1 7.4 23.9-4.6c-6.3 20.4-25.7 3.1-23.9 4.6m24-31.7c0 2.5 2.2 4.5 4.9 4.5s4.9-2 4.9-4.5-2.2-4.5-4.9-4.5c-2.7.1-4.9 2.1-4.9 4.5"/>
  <path fill="#00A78E" d="M291.6 472.7s.4-.3 1-.8 1.6-1.1 2.7-1.6c.6-.3 1.2-.5 1.9-.8.7-.2 1.4-.4 2.1-.5.7-.1 1.5-.1 2.2 0 .8 0 1.5.3 2.2.6.7.3 1.5.6 2.1 1.1.7.4 1.3 1 2 1.5.6.5 1.3 1.2 2.1 1.6.4.2.8.4 1.1.5.4.1.7.2 1.1.2 1.4.1 2.5-.2 3.2-.7.7-.4 1-.8 1-.8s-.4.2-1.1.3c-.7.1-1.7 0-2.9-.4-.3-.1-.6-.2-.8-.4-.3-.2-.6-.3-.8-.5-.6-.4-1-1.1-1.7-1.7-.7-.7-1.3-1.4-2.1-1.9-.8-.6-1.6-1-2.5-1.4-.9-.3-1.8-.6-2.7-.6-.9-.1-1.8.1-2.7.3-.4.1-.8.2-1.2.4-.4.2-.8.4-1.1.6-.7.4-1.3.8-1.9 1.3-.6.4-1 1-1.4 1.4-.4.4-.7.9-1 1.2-.6.6-.8 1.1-.8 1.1m5.7-1.4c0 .9.4 1.6 1 1.6.5 0 1-.7 1-1.6 0-.9-.4-1.6-1-1.6-.5-.1-1 .7-1 1.6m4.1-38.8s16.5 13.6 18.2 24.7c1.8 11-.1 32-.1 32s6.6-19.4 7.6-28.3c.7-5.9.8-14.3.3-22.1-.5-7.8-10-16.6-17.8-16h-.3c-11.7 1.1-7.9 9.7-7.9 9.7"/>
  <path fill="none" stroke="#FFF" stroke-miterlimit="10" d="M301.4 432.5s16.5 13.6 18.2 24.7c1.8 11-.1 32-.1 32s6.6-19.4 7.6-28.3c.7-5.9.8-14.3.3-22.1-.5-7.8-10-16.6-17.8-16h-.3c-11.7 1.1-7.9 9.7-7.9 9.7z"/>
  <path fill="#00A78E" d="M240.5 460.9s.5-34.5 23-40.1c22.5-5.5 45.8 2 45.8 2s-17.7 30.6-68.8 38.1"/>
  <path fill="none" stroke="#FFF" stroke-miterlimit="10" d="M240.5 460.9s.5-34.5 23-40.1c22.5-5.5 45.8 2 45.8 2s-17.7 30.6-68.8 38.1z"/>
  <path fill="#FFF" d="M269.4 472.9c0 .7-.4 1.3-.9 1.3s-.9-.6-.9-1.3c0-.7.4-1.3.9-1.3s.9.6.9 1.3m34.7 0c0 .7-.4 1.3-.9 1.3s-.9-.6-.9-1.3c0-.7.4-1.3.9-1.3.4 0 .9.6.9 1.3m15.8-1.2s1.3-11.2 4.7-8.1c2.9 2.6 4.2 14.6 2.5 23-.8 3.7-5.2 8-7.1 6.1-1.9-1.8-.1-21-.1-21m-74.9.9s-1.6-11.2-5.3-8c-3.9 3.4-3.5 17.8-2.2 23.1.9 3.7 5.9 7.8 7.9 5.9 1.9-1.8-.4-21-.4-21m546.1-1.3s1.2-10.4 4.4-7.5c2.7 2.4 3.9 13.6 2.3 21.4-.7 3.5-4.9 7.4-6.6 5.7-1.7-1.7-.1-19.6-.1-19.6m-69.6-1.8s-1.5-10.4-5-7.4c-3.6 3.2-3.2 16.5-2 21.4.9 3.5 5.5 7.3 7.3 5.5 1.8-1.7-.3-19.5-.3-19.5"/>
  <path fill="#FFF" d="M719.8 454.8c0 3.7-2.4 33.1 7.9 46 5.8 7.3 14 14.4 18.7 15.5 7.7 1.8 12.7 3.2 19.5 1.7 6.8-1.5 16.8-8.6 23-22.3 2.9-6.5 10.9-57.8-3.9-72.3-9.7-9.5-30.9-8.3-39.1-7.9-8.2.2-26.4 3.1-26.1 39.3m10.3 240.5l-4-63.9h59.6l-1.3 63.9H760v-51.8c0-1.4-.9-2.5-3.6-2.5s-3.6 1.1-3.6 2.5v51.8h-22.7zm-88.9.8s-.8-7.5-12.1-8.7l1.2-55.2h-59l3.5 55.7c-10.5 1.9-11.5 6.8-12.1 8.3l35.5-.1s-.1-.7-.5-1.8v-50.1c0-1.3.9-2.4 3.6-2.4s3.6 1.1 3.6 2.4v51.3h1.1c-.1.3-.2.6-.3.8l35.5-.2z"/>
  <path fill="none" stroke="#00A78E" stroke-width="2" stroke-miterlimit="10" d="M641.2 696.1s-.8-7.5-12.1-8.7l1.2-55.2h-59l3.5 55.7c-10.5 1.9-11.5 6.8-12.1 8.3l35.5-.1s-.1-.7-.5-1.8v-50.1c0-1.3.9-2.4 3.6-2.4s3.6 1.1 3.6 2.4v51.3h1.1c-.1.3-.2.6-.3.8l35.5-.2z"/>
  <path fill="#00A78E" d="M770.5 466.9c0 2 1.6 3.6 3.7 3.6 2 0 3.7-1.6 3.7-3.6s-1.6-3.6-3.7-3.6-3.7 1.6-3.7 3.6"/>
  <path fill="#00A78E" d="M785.1 467.9s-5-4.8-10.9-4.8c-3 0-6.3 1.3-9.2 5.1l.9 1.1c2.6-3.5 5.6-4.6 8.3-4.6 2.7 0 5.3 1.1 7.1 2.2.9.6 1.7 1.1 2.2 1.5.3.2.5.4.6.5l.2.2.8-1.2z"/>
  <path fill="#FFF" d="M773.2 466.9c0 .7-.4 1.2-.9 1.2s-.8-.6-.8-1.2c0-.7.4-1.3.8-1.3.5 0 .9.6.9 1.3"/>
  <path fill="#00A78E" d="M745.8 466.9c0 2-1.6 3.6-3.7 3.6-2 0-3.7-1.6-3.7-3.6s1.6-3.6 3.7-3.6c2 0 3.7 1.6 3.7 3.6"/>
  <path fill="#00A78E" d="M731.9 469.1l.2-.2c1-.9 5.3-4.3 10-4.3 2.8 0 5.7 1.1 8.3 4.6l.9-1.1c-2.9-3.8-6.2-5.1-9.2-5.1-5.9 0-10.9 4.7-10.9 4.8l.7 1.3z"/>
  <path fill="#FFF" d="M740.7 466.9c0 .7-.4 1.2-.8 1.2-.5 0-.8-.6-.8-1.2 0-.7.4-1.3.8-1.3s.8.6.8 1.3"/>
  <path fill="#00A78E" d="M748.2 451s4.7 4.1.7 4.9c-3.9.7-10.3-.6-13.2 0-2.9.6-8.4 2.8-8.4 2.8l-.4-2.3c.1-.1 7.8-7.3 21.3-5.4m19.5 10.9s-4.5 4-.6 4.9c3.9.9 10.3-.3 13.2.5 2.9.7 8.5 3.1 8.5 3.1l.3-2.3c0-.1-7.9-7.6-21.4-6.2m-14 24.2s1.2.1 2.9.2c.8 0 1.9.1 2.8 0 .2 0 .4-.1.6-.2.1 0 .1-.1.2-.1s.1-.1.1-.1c.1 0 0-.1.1-.1v.1-.1l.1-.2c.1-.3.1-.5.1-.7.1-1 .1-2.2 0-3.2 0-1.1-.1-2.1-.1-3 0-1.7.1-3 .1-3s.6 1.1 1.1 2.8c.3.9.5 1.9.7 3 .2 1.1.3 2.3.2 3.6-.1.3-.1.8-.2 1l-.1.2v.2l-.1.2c-.1.2-.2.5-.4.6-.2.2-.4.3-.6.4-.2.1-.4.2-.6.2-.4.1-.7.2-1 .1-.7 0-1.2-.1-1.7-.2s-1-.3-1.4-.4c-1.8-.5-2.8-1.3-2.8-1.3m-7.3 6.5s13 5.4 23.5.9c-1.4 3-15.5 10.7-23.5-.9"/>
  <path fill="#FFF" d="M749.1 518.7s.3 10-4.4 12.7c-4.2 2.5-6.1 3-6.1 3s20.7 8.3 37.2 1.6c-8.9-2.4-8.3-5.5-8.3-5.5l-1.6-10.3-16.8-1.5z"/>
  <path fill="none" stroke="#00A78E" stroke-width="3.076" stroke-miterlimit="10" d="M749.1 518.7s.3 10-4.4 12.7c-4.2 2.5-6.1 3-6.1 3s20.7 8.3 37.2 1.6c-8.9-2.4-8.3-5.5-8.3-5.5l-1.6-10.3-16.8-1.5z"/>
  <path fill="#FFF" d="M595.7 522.7s.2 8.4-3.7 10.7c-3.6 2.1-5.2 2.5-5.2 2.5s17.4 7 31.4 1.3c-7.5-2-7-4.6-7-4.6l-1.3-8.7-14.2-1.2z"/>
  <path fill="none" stroke="#00A78E" stroke-width="3.076" stroke-miterlimit="10" d="M595.7 522.7s.2 8.4-3.7 10.7c-3.6 2.1-5.2 2.5-5.2 2.5s17.4 7 31.4 1.3c-7.5-2-7-4.6-7-4.6l-1.3-8.7-14.2-1.2z"/>
  <path fill="#FFF" d="M719.6 624.6c.6 1.6.6 3.1-1.6 2.7l-.5-.8-3-4.9-1.3 1c-.7.6-1 1.4-.8 2.2.2.6.4 1.4.5 1.9.1.4.4.7.8 1l2.3 1.9c.6.5.2.9 0 1.3l-.4.2c-.6.3-1.6.2-2.2-.3l-2.6-2.2c-.3-.1-.5-.3-.6-.5l-3.5-6.3c-.2-.4-1.6-2-1.4-2.4l4.2-5.7c.1-.2.4-1.4.4-1.6l-2.5-26.8.8-4.5s4.8-22.5 6.4-21.8l16.2 6c1.3.5-4.8 11.5-4.8 11.5-2.8 5.4-3.8 7.2-4.9 10.5l-3 28v.4l1.5 9.2z"/>
  <path fill="none" stroke="#00A78E" stroke-miterlimit="10" d="M719.6 624.6c.6 1.6.6 3.1-1.6 2.7l-.5-.8-3-4.9-1.3 1c-.7.6-1 1.4-.8 2.2.2.6.4 1.4.5 1.9.1.4.4.7.8 1l2.3 1.9c.6.5.2.9 0 1.3l-.4.2c-.6.3-1.6.2-2.2-.3l-2.6-2.2c-.3-.1-.5-.3-.6-.5l-3.5-6.3c-.2-.4-1.6-2-1.4-2.4l4.2-5.7c.1-.2.4-1.4.4-1.6l-2.5-26.8.8-4.5s4.8-22.5 6.4-21.8l16.2 6c1.3.5-4.8 11.5-4.8 11.5-2.8 5.4-3.8 7.2-4.9 10.5l-3 28v.4l1.5 9.2z"/>
  <path fill="#FFF" d="M802.3 629.5c-.4 0-.7-.1-1-.2l-.5-.3-.1-.2c-.2-.3-.7-1.1.1-1.8l2.3-2c.3-.3.6-.5.6-.8l.5-1.9c.2-.6 0-1.2-.6-1.7l-.8-.6-3.2 5.5h-.2c-.3.1-.6.1-.9.1-.8 0-1.2-.3-1.4-.6-.4-.6-.4-1.5 0-2.8l1.3-9.2v-.3l-3.3-27.9c-.6-1.5-1.6-3.4-3-5.8-.1-.2-.2-.3-.2-.3-2.7-4.1-9-14-8.5-15.5.1-.2.2-.3.4-.4l16.2-6.4h.2c1.8 0 5.7 11.8 8.8 21.8l.9 4.6-2.2 27c0 .2.3 1.2.4 1.4l3 5.6c.2.6.1 2.3-.2 2.8l-3.4 6.4c-.1.3-.4.5-.8.7l-2.5 2.2c-.6.4-1.2.6-1.9.6"/>
  <path fill="#00A78E" d="M800.1 557c1.7 0 8.3 21.4 8.3 21.4l.8 4.5-2.2 26.9c0 .2.3 1.4.4 1.6l3 5.6c.1.4 0 2-.2 2.4l-3.4 6.4c-.1.2-.3.4-.6.5l-2.5 2.2c-.4.3-.9.5-1.4.5-.3 0-.5-.1-.8-.2l-.4-.2c-.2-.4-.6-.8-.1-1.3l2.3-2c.4-.3.7-.7.8-1.1.1-.5.3-1.3.5-1.9.2-.8-.1-1.7-.8-2.2l-1.3-1-2.9 5-.5.8c-.3.1-.6.1-.8.1-1.4 0-1.3-1.3-.9-2.7l1.3-9.2v-.4l-3.3-28c-1.1-2.6-3.2-6.1-3.2-6.2 0 0-9.7-14.8-8.4-15.3l16.3-6.2m0-1c-.2 0-.3 0-.4.1l-16.1 6.4c-.3.1-.6.4-.7.7-.1.5-.6 1.9 8.6 16 0 .1.1.1.1.2 1.4 2.3 2.4 4.2 2.9 5.7l3.3 27.8v.1l-1.3 9.2c-.3.9-.6 2.2.1 3.1.3.4.8.8 1.8.8.3 0 .6 0 1-.1l.4-.1.2-.4.5-.8 2.4-4 .4.3c.4.3.6.7.5 1.2l-.4 1.4-.1.5c0 .2-.2.4-.4.5l-2.3 2c-.8.7-.8 1.5-.2 2.5l.1.1.2.2.3.1.4.2c.3.2.8.3 1.2.3.8 0 1.5-.3 2-.7l2.4-2.1c.4-.2.7-.5.9-.9l3.4-6.4c.3-.6.5-2.5.2-3.2l-3-5.6c-.1-.2-.3-.9-.3-1.2l2.2-26.9v-.2l-.8-4.5v-.2c0-.1-1.7-5.4-3.5-10.7-4.2-11.4-5.1-11.4-6-11.4"/>
  <path fill="#FFF" d="M809.1 562.6L790 577l-2.4-8.6 2.5 21c.3 3.6.5 15.1-.5 25.6l-2.2 13.9h-60.2l-2.2-16.4c-.7-8.6.1-21.5.4-24.8l3.5-19.5-2.9 8.1-17.1-13s-3 2.6 4.6-10.9 24.4-18.2 24.4-18.2l20.3 2.7 19.3-1.3s17.9 3.7 25.5 17.2c7.6 13.4 6.1 9.8 6.1 9.8"/>
  <path fill="none" stroke="#00A78E" stroke-width="2.562" stroke-miterlimit="10" d="M809.1 562.6L790 577l-2.4-8.6 2.5 21c.3 3.6.5 15.1-.5 25.6l-2.2 13.9h-60.2l-2.2-16.4c-.7-8.6.1-21.5.4-24.8l3.5-19.5-2.9 8.1-17.1-13s-3 2.6 4.6-10.9 24.4-18.2 24.4-18.2l20.3 2.7 19.3-1.3s17.9 3.7 25.5 17.2c7.6 13.4 6.1 9.8 6.1 9.8"/>
  <path fill="#FFF" d="M564.8 625.5c.6 1.6.6 3.1-1.6 2.6l-.5-.8-3-4.8-1.3 1c-.7.6-1 1.4-.8 2.2.2.6.4 1.4.5 1.9.1.4.4.7.8 1l2.3 1.9c.6.5.2.9 0 1.2l-.4.2c-.6.3-1.6.2-2.1-.3l-2.5-2.1c-.3-.1-.5-.3-.6-.5l-3.4-6.3c-.2-.4-.4-2-.2-2.3l2.9-5.6c.1-.2.4-1.4.4-1.6l-2.5-26.5.8-4.5s4.7-22.2 6.4-21.6l16 5.9c1.2.5-4.8 11.4-4.8 11.4-2.8 5.3-3.8 7.1-4.8 10.4l-3 27.7v.4l1.4 9.1z"/>
  <path fill="none" stroke="#00A78E" stroke-miterlimit="10" d="M564.8 625.5c.6 1.6.6 3.1-1.6 2.6l-.5-.8-3-4.8-1.3 1c-.7.6-1 1.4-.8 2.2.2.6.4 1.4.5 1.9.1.4.4.7.8 1l2.3 1.9c.6.5.2.9 0 1.2l-.4.2c-.6.3-1.6.2-2.1-.3l-2.5-2.1c-.3-.1-.5-.3-.6-.5l-3.4-6.3c-.2-.4-.4-2-.2-2.3l2.9-5.6c.1-.2.4-1.4.4-1.6l-2.5-26.5.8-4.5s4.7-22.2 6.4-21.6l16 5.9c1.2.5-4.8 11.4-4.8 11.4-2.8 5.3-3.8 7.1-4.8 10.4l-3 27.7v.4l1.4 9.1z"/>
  <path fill="#FFF" d="M646.7 630.4c-.4 0-.7-.1-1-.2l-.5-.3-.1-.2c-.2-.3-.7-1.1.1-1.8l2.3-2c.3-.3.5-.5.6-.8l.5-1.9c.2-.6 0-1.2-.6-1.7l-.8-.6-3.2 5.4h-.2c-.3.1-.6.1-.9.1-.8 0-1.2-.3-1.4-.6-.4-.6-.4-1.5 0-2.7l1.3-9.1v-.3l-3.3-27.6c-.6-1.4-1.6-3.4-3-5.7-.1-.2-.2-.3-.2-.3-2.7-4.1-8.9-13.9-8.4-15.4.1-.2.2-.3.4-.4l16-6.3h.2c1.7 0 5.7 11.7 8.7 21.5l.9 4.6-2.2 26.7c0 .2.3 1.2.4 1.3l3 5.5c.2.6.1 2.3-.2 2.8l-3.4 6.4c-.2.3-.4.5-.8.7l-2.4 2.2c-.6.5-1.2.7-1.8.7"/>
  <path fill="#00A78E" d="M644.5 558.6c1.7 0 8.2 21.2 8.2 21.2l.8 4.5-2.2 26.7c0 .2.3 1.4.4 1.6l3 5.6c.1.3 0 2-.2 2.3l-3.4 6.4c-.1.2-.3.4-.6.5l-2.5 2.2c-.4.3-.9.5-1.4.5-.3 0-.5-.1-.7-.2l-.4-.2c-.2-.4-.6-.8-.1-1.2l2.3-2c.4-.3.7-.7.8-1 .1-.5.3-1.3.5-1.9.2-.8-.1-1.6-.8-2.2l-1.3-.9-2.9 4.9-.5.8c-.3.1-.5.1-.8.1-1.4 0-1.3-1.3-.9-2.7l1.3-9.2v-.4l-3.3-27.7c-1-2.6-3.1-6-3.2-6.1 0 0-9.6-14.6-8.3-15.1l16.2-6.5c-.1 0-.1 0 0 0m0-1c-.2 0-.3 0-.4.1l-15.9 6.3c-.3.1-.6.4-.7.7-.1.5-.6 1.9 8.5 15.9 0 .1.1.1.1.2 1.4 2.3 2.3 4.2 2.9 5.6l3.2 27.5v.1l-1.3 9.1c-.3.9-.6 2.2.1 3.1.3.4.8.8 1.8.8.3 0 .6 0 1-.1l.4-.1.2-.4.5-.8 2.3-3.9.4.3c.4.3.6.7.4 1.1l-.4 1.4-.1.5c0 .2-.2.3-.4.5l-2.3 2c-.8.7-.8 1.5-.2 2.5l.1.1.2.2.2.1.4.2c.3.2.8.3 1.2.3.8 0 1.5-.3 2-.7l2.4-2.1c.4-.2.7-.5.9-.9l3.4-6.4c.3-.6.5-2.5.2-3.2l-3-5.5c-.1-.2-.3-.9-.3-1.2l2.2-26.6v-.2l-.8-4.5v-.2c0-.1-1.6-5.4-3.5-10.6-3.9-11.2-4.9-11.2-5.7-11.2"/>
  <path fill="#FFF" d="M653.3 564.2l-18.8 14.2-2.4-8.5 2.5 20.7c.3 3.5 12.8 68 12.8 68l-83.3-2.2s6.1-64.1 6.5-67.4l3.4-19.3-2.9 8-16.9-12.9s-1.8 2.6 5.7-10.8c7.5-13.3 24.1-18 24.1-18l20 2.6 19.1-1.3s17.7 3.7 25.2 17c7.7 13.4 5 9.9 5 9.9"/>
  <path fill="none" stroke="#00A78E" stroke-width="2.562" stroke-miterlimit="10" d="M653.3 564.2l-18.8 14.2-2.4-8.5 2.5 20.7c.3 3.5 12.8 68 12.8 68l-83.3-2.2s6.1-64.1 6.5-67.4l3.4-19.3-2.9 8-16.9-12.9s-1.8 2.6 5.7-10.8c7.5-13.3 24.1-18 24.1-18l20 2.6 19.1-1.3s17.7 3.7 25.2 17c7.7 13.4 5 9.9 5 9.9"/>
  <path fill="#FFF" d="M751.2 695.4s-1.1-10.3-18.4-9.4c-17.3.9-18.7 7.7-19.3 9.5m85.6-.1s-1.1-10.3-18.4-9.4c-17.3.9-18.7 7.7-19.3 9.5"/>
  <path fill="#00A78E" d="M796.2 452.8s4.6-14.8 3.4-21c-1.1-6.2-4.5-10.7-16.6-21-7.9-6.8-27.7-5.2-30.7-8.4-2.9-3.2-44.3 4.3-34.5 53.3.9 4.3 1.9 9.2 1.9 9.2 4.4.4.8-1.5.9-19.3.1-24.7 53.4 14.8 63.2 14.3 11.9-.6 5.3-18.5 8.3-5.1 3 13.4.3 11.4.3 11.4l3.2 3 .6-16.4z"/>
  <path fill="none" stroke="#FFF" stroke-miterlimit="10" d="M796.2 452.8s4.6-14.8 3.4-21c-1.1-6.2-4.5-10.7-16.6-21-7.9-6.8-27.7-5.2-30.7-8.4-2.9-3.2-44.3 4.3-34.5 53.3.9 4.3 1.9 9.2 1.9 9.2 4.4.4.8-1.5.9-19.3.1-24.7 53.4 14.8 63.2 14.3 11.9-.6 5.3-18.5 8.3-5.1 3 13.4.3 11.4.3 11.4l3.2 3 .6-16.4z"/>
  <path fill="#FFF" d="M560 463.3c3.6-39.1 17.7-42.5 27.9-43s36.4-2.1 48.4 10.6c9 9.6 8.8 11.6 5 40.7-2 15.4.4 21.1-15.1 37.2-15.3 15.9-14.5 13.8-31.3 13.8-4 0-11.5-4.8-21.7-14.3-15.7-14.6-12.7-28.7-13.2-33.6"/>
  <path fill="#00A78E" d="M589 473.3c0 2.5-2.2 4.5-4.9 4.5s-4.9-2-4.9-4.5 2.2-4.5 4.9-4.5c2.7.1 4.9 2.1 4.9 4.5"/>
  <path fill="#00A78E" d="M592.7 473.5s-.4-.3-1-.8-1.6-1.1-2.7-1.6c-.6-.3-1.2-.5-1.8-.8-.7-.2-1.4-.4-2.1-.5-.7-.1-1.5-.1-2.2 0-.8 0-1.5.3-2.2.6-.7.3-1.5.6-2.1 1.1-.7.4-1.3 1-2 1.5-.6.5-1.3 1.2-2.1 1.6-.4.2-.8.4-1.1.5-.4.1-.7.2-1.1.2-1.4.1-2.5-.2-3.2-.7-.7-.4-1-.8-1-.8s.4.2 1.1.3c.7.1 1.7 0 2.9-.4.3-.1.6-.2.8-.4.3-.2.6-.3.8-.5.5-.4.9-1.1 1.7-1.7.7-.7 1.3-1.4 2.1-1.9.8-.6 1.6-1 2.5-1.4.9-.3 1.8-.6 2.7-.6.9-.1 1.8.1 2.6.3.4.1.8.2 1.2.4.4.2.8.4 1.1.6.7.4 1.3.8 1.9 1.3.6.4 1 1 1.4 1.4.4.4.7.9 1 1.2.6.6.8 1.1.8 1.1m2.1-16.6s2.8 2.9-4.6 3.7c-7.4.8-13.5-5.1-16.8-.8-3.4 4.3-9.2 5.9-4.4 1.7 4.8-4.2 3.7-6.8 11.3-6.3 7.5.5 14 .4 14.5 1.7m12.3 1.8s-2.2 3.5 5.1 2.5c7.4-1 12.4-8.3 16.4-4.9s10 3.5 4.6.6-4.8-5.7-12.1-3.3c-7.3 2.1-13.7 3.7-14 5.1"/>
  <path fill="#FFF" d="M601.4 481s2.6 7.7 4.9 10.2c8.3 9.1-14.6 7.7-8.8 4.4"/>
  <path fill="#00A78E" d="M601.4 481s.2.4.7 1.2c.2.4.4.8.7 1.3.3.5.6 1.1.9 1.7.3.6.7 1.3 1.1 2 .4.7.8 1.4 1.3 2.1.5.7.9 1.2 1.7 2.1.6.8 1.3 1.8 1.4 3.1.1.7-.1 1.4-.5 2-.4.6-.9 1-1.3 1.3-1 .6-2 .8-2.9 1-1.9.3-3.6.1-5.1-.2-.7-.2-1.4-.4-2-.7-.3-.1-.5-.3-.7-.6-.2-.2-.3-.6-.2-.9.2-.5.6-.6.8-.7.2-.1.3-.1.3-.1s-.1.1-.3.2c-.2.1-.4.4-.5.7-.1.3.3.5.8.7.5.2 1.1.2 1.8.3 1.4.1 3 0 4.6-.5.8-.2 1.6-.5 2.2-.9.6-.5.9-.9.8-1.4 0-.6-.5-1.3-1-2-.5-.6-1.3-1.5-1.7-2.3-.9-1.7-1.5-3.2-2-4.6-.8-2.8-.9-4.8-.9-4.8m-11.7 23.5s15.1 7.4 23.9-4.6c-6.3 20.5-25.7 3.2-23.9 4.6m24-31.6c0 2.5 2.2 4.5 4.9 4.5s4.9-2 4.9-4.5-2.2-4.5-4.9-4.5-4.9 2-4.9 4.5"/>
  <path fill="#00A78E" d="M609.6 473s.4-.3 1-.8 1.6-1.1 2.7-1.6c.6-.3 1.2-.5 1.9-.8.7-.2 1.4-.4 2.1-.5.7-.1 1.5-.1 2.2 0 .8 0 1.5.3 2.2.6.7.3 1.5.6 2.1 1.1.7.4 1.3 1 2 1.5.6.5 1.3 1.2 2.1 1.6.4.2.8.4 1.1.5.4.1.7.2 1.1.2 1.4.1 2.5-.2 3.2-.7.7-.4 1-.8 1-.8s-.4.2-1.1.3c-.7.1-1.7 0-2.9-.4-.3-.1-.6-.2-.8-.4-.3-.2-.6-.3-.8-.5-.6-.4-1-1.1-1.7-1.7-.7-.7-1.3-1.4-2.1-1.9-.8-.6-1.6-1-2.5-1.4-.9-.3-1.8-.6-2.7-.6-.9-.1-1.8.1-2.7.3-.4.1-.8.2-1.2.4-.4.2-.8.4-1.1.6-.7.4-1.3.8-1.9 1.3-.6.4-1 1-1.4 1.4-.4.4-.7.9-1 1.2-.6.7-.8 1.1-.8 1.1"/>
  <path fill="#FFF" d="M587.3 473.3c0 .7-.4 1.3-.9 1.3s-.9-.6-.9-1.3c0-.7.4-1.3.9-1.3.5-.1.9.5.9 1.3m34.7 0c0 .7-.4 1.3-.9 1.3s-.9-.6-.9-1.3c0-.7.4-1.3.9-1.3.5-.1.9.5.9 1.3"/>
  <path fill="#00A78E" d="M830.1 498.1c1.7 9.6-2.1 19.3-1.9 29 0 2.7.5 5.7 2.4 7.6 1.6 1.6 3.9 2.2 6.1 2.4 4.5.4 9.2-.5 13.1-2.8 1.7-1 3.3-2.2 5.2-2.4 2.2-.3 4.3.7 6.4 1 2.9.4 5.9-.4 8.9-.4 6.5-.1 12.5 3.6 19 4 2 .1 3.9 0 5.8.4 2.6.6 4.9 2.4 7.5 2.2 3.4-.2 5.8-3.4 6.8-6.6 1.1-3.5 1-7.3.8-11-.2-4-.6-8.1-1.7-11.9-.9-3.2-2.4-6.2-2.8-9.5-.3-1.9-.2-3.9-1-5.6-.9-1.7-2.5-2.9-4.1-3.9-12.4-7.7-27.2-11.7-41.8-11.2-9.1.3-18.9 2.7-24.6 9.9-1.9 2.4-3.3 5.3-3.9 8.4"/>
  <path fill="#FFF" d="M829.4 498.3c1.5 10.6-3.5 21.1-1.7 31.6 1.1 6.8 7 8.6 13.3 8 3.6-.3 6.8-1.5 9.9-3.3 4.9-2.7 11.4-.8 16.9-1.3 5.4-.5 10 1.1 15.1 2.6 4.5 1.3 9.3.8 13.7 2.1 2.8.9 5 2.4 8 1.4s4.8-4 5.8-6.8c2.7-8.1.7-18.6-1.9-26.5-1.3-3.8-1.1-8.4-2.8-11.9-1.4-2.9-4.7-4.5-7.4-6-7.9-4.4-16.6-7.4-25.6-8.8-15.8-2.4-38.2-.7-42.9 18-.2.9 1.2 1.3 1.4.4 4.1-16.4 22.8-18.8 37-17.4 8.3.8 16.4 3 24 6.4 2.9 1.3 6.3 2.8 8.8 4.8 3 2.4 3.6 4.8 4.2 8.4.2 1.4.6 2.8 1 4.2 2.3 7.5 4 14.9 3.6 22.8-.2 3.3-.8 6.9-3.3 9.2-2.5 2.3-5.6 1.8-8.7.7-2.9-1.1-5.3-1-8.3-1.2-7.1-.6-13.5-4.4-20.7-3.9-1.8.1-3.6.5-5.3.5-2.2-.1-4.2-.9-6.4-1.1-2.1-.2-3.7.4-5.5 1.4-4.8 2.6-10.2 5-15.7 3.6-6.4-1.5-6.9-7.2-6.5-12.8.6-8.6 3-16.9 1.8-25.6-.5-.9-1.9-.5-1.8.5m178.1-34.3s1.2-10.4 4.4-7.5c2.7 2.4 3.9 13.6 2.3 21.4-.7 3.5-4.9 7.4-6.6 5.7-1.7-1.7-.1-19.6-.1-19.6m-69.7-1.8s-1.5-10.4-5-7.4c-3.6 3.2-3.2 16.5-2 21.4.9 3.5 5.5 7.3 7.3 5.5 1.9-1.7-.3-19.5-.3-19.5"/>
  <path fill="#FFF" d="M936.2 447.5c0 3.7-2.4 33.1 7.9 46 5.8 7.3 14 14.4 18.7 15.5 7.7 1.8 12.7 3.2 19.5 1.7 6.8-1.5 16.8-8.6 23-22.3 2.9-6.5 10.9-57.8-3.9-72.3-9.7-9.5-30.9-8.3-39.1-7.9-8.2.2-26.5 3.2-26.1 39.3M946.5 688l-4-63.9h59.6l-1.3 63.9h-24.4v-51.8c0-1.4-.9-2.5-3.6-2.5s-3.6 1.1-3.6 2.5V688h-22.7z"/>
  <path fill="#00A78E" d="M986.9 459.7c0 2 1.6 3.6 3.7 3.6 2 0 3.7-1.6 3.7-3.6s-1.6-3.6-3.7-3.6c-2.1-.1-3.7 1.6-3.7 3.6"/>
  <path fill="#00A78E" d="M1001.5 460.6s-5-4.8-10.9-4.8c-3 0-6.3 1.3-9.2 5.1l.9 1.1c2.6-3.5 5.6-4.6 8.3-4.6 2.7 0 5.3 1.1 7.1 2.2.9.6 1.7 1.1 2.2 1.5.3.2.5.4.6.5l.2.2.8-1.2z"/>
  <path fill="#FFF" d="M989.6 459.6c0 .7-.4 1.2-.9 1.2s-.8-.6-.8-1.2c0-.7.4-1.3.8-1.3.5 0 .9.6.9 1.3"/>
  <path fill="#00A78E" d="M962.1 459.7c0 2-1.6 3.6-3.7 3.6-2 0-3.7-1.6-3.7-3.6s1.6-3.6 3.7-3.6c2.1-.1 3.7 1.6 3.7 3.6"/>
  <path fill="#00A78E" d="M948.3 461.8l.2-.2c1-.9 5.3-4.3 10-4.3 2.8 0 5.7 1.1 8.3 4.6l.9-1.1c-2.9-3.8-6.2-5.1-9.2-5.1-5.9 0-10.9 4.7-10.9 4.8l.7 1.3z"/>
  <path fill="#FFF" d="M957.1 459.6c0 .7-.4 1.2-.8 1.2-.5 0-.8-.6-.8-1.2 0-.7.4-1.3.8-1.3s.8.6.8 1.3"/>
  <path fill="#00A78E" d="M964.6 443.7s4.7 4.1.7 4.9c-3.9.7-10.3-.6-13.2 0-2.9.6-8.4 2.8-8.4 2.8l-.4-2.3c.1-.1 7.7-7.3 21.3-5.4m19.4-3.8s-4.5 4-.6 4.9c3.9.9 10.3-.3 13.2.5 2.9.7 8.5 3.1 8.5 3.1l.3-2.3c0-.1-7.9-7.6-21.4-6.2m-13.9 39l2.9.2c.8 0 1.9.1 2.8 0 .2 0 .4-.1.6-.2.1 0 .1-.1.2-.1s.1-.1.1-.1c.1 0 0-.1.1-.1v.1-.1l.1-.2c.1-.3.1-.5.1-.7.1-1 .1-2.2 0-3.2 0-1.1-.1-2.1-.1-3 0-1.7.1-3 .1-3s.6 1.1 1.1 2.8c.3.9.5 1.9.7 3 .2 1.1.3 2.3.2 3.6-.1.3-.1.8-.2 1l-.1.2v.2l-.1.2c-.1.2-.2.5-.4.6-.2.2-.4.3-.6.4-.2.1-.4.2-.6.2-.4.1-.7.2-1 .1-.6 0-1.2-.1-1.7-.2s-1-.3-1.4-.4c-1.8-.6-2.8-1.3-2.8-1.3m-7.3 6.4s13 5.4 23.5.9c-1.4 3-15.6 10.7-23.5-.9"/>
  <path fill="#FFF" d="M965.5 511.4s.3 10-4.4 12.7c-4.2 2.5-6.1 3-6.1 3s20.7 8.3 37.2 1.6c-8.9-2.4-8.3-5.5-8.3-5.5l-1.6-10.3-16.8-1.5z"/>
  <path fill="none" stroke="#00A78E" stroke-width="3.076" stroke-miterlimit="10" d="M965.5 511.4s.3 10-4.4 12.7c-4.2 2.5-6.1 3-6.1 3s20.7 8.3 37.2 1.6c-8.9-2.4-8.3-5.5-8.3-5.5l-1.6-10.3-16.8-1.5z"/>
  <path fill="#FFF" d="M863.6 524.5s.2 8.4-3.7 10.7c-3.6 2.1-5.2 2.5-5.2 2.5s17.4 7 31.4 1.3c-7.5-2-7-4.6-7-4.6l-1.3-8.7-14.2-1.2z"/>
  <path fill="none" stroke="#00A78E" stroke-width="3.076" stroke-miterlimit="10" d="M863.6 524.5s.2 8.4-3.7 10.7c-3.6 2.1-5.2 2.5-5.2 2.5s17.4 7 31.4 1.3c-7.5-2-7-4.6-7-4.6l-1.3-8.7-14.2-1.2z"/>
  <path fill="#FFF" d="M936 617.3c.6 1.6.6 3.1-1.6 2.7l-.5-.8-3-4.9-1.3 1c-.7.6-1 1.4-.8 2.2.2.6.4 1.4.5 1.9.1.4.4.7.8 1l2.3 1.9c.6.5.2.9 0 1.3l-.4.2c-.6.3-1.6.2-2.2-.3l-2.6-2.2c-.3-.1-.5-.3-.6-.5l-3.5-6.3c-.2-.4-1.6-2-1.4-2.4l4.2-5.7c.1-.2.4-1.4.4-1.6l-2.5-26.8.8-4.5s4.8-22.5 6.4-21.8l16.2 6c1.3.5-4.8 11.5-4.8 11.5-2.8 5.4-3.8 7.2-4.9 10.5l-3 28v.4l1.5 9.2z"/>
  <path fill="none" stroke="#00A78E" stroke-miterlimit="10" d="M936 617.3c.6 1.6.6 3.1-1.6 2.7l-.5-.8-3-4.9-1.3 1c-.7.6-1 1.4-.8 2.2.2.6.4 1.4.5 1.9.1.4.4.7.8 1l2.3 1.9c.6.5.2.9 0 1.3l-.4.2c-.6.3-1.6.2-2.2-.3l-2.6-2.2c-.3-.1-.5-.3-.6-.5l-3.5-6.3c-.2-.4-1.6-2-1.4-2.4l4.2-5.7c.1-.2.4-1.4.4-1.6l-2.5-26.8.8-4.5s4.8-22.5 6.4-21.8l16.2 6c1.3.5-4.8 11.5-4.8 11.5-2.8 5.4-3.8 7.2-4.9 10.5l-3 28v.4l1.5 9.2z"/>
  <path fill="#FFF" d="M1018.7 622.3c-.4 0-.7-.1-1-.2l-.5-.3-.1-.2c-.2-.3-.7-1.1.1-1.8l2.3-2c.3-.3.6-.5.6-.8l.5-1.9c.2-.6 0-1.2-.6-1.7l-.8-.6-3.2 5.5h-.2c-.3.1-.6.1-.9.1-.8 0-1.2-.3-1.4-.6-.4-.6-.4-1.5 0-2.8l1.3-9.2v-.3l-3.3-27.9c-.6-1.5-1.6-3.4-3-5.8-.1-.2-.2-.3-.2-.3-2.7-4.1-9-14-8.5-15.5.1-.2.2-.3.4-.4l16.2-6.4h.2c1.8 0 5.7 11.8 8.8 21.8l.9 4.6-2.2 27c0 .2.3 1.2.4 1.4l3 5.6c.2.6.1 2.3-.2 2.8l-3.4 6.4c-.2.3-.4.5-.8.7l-2.5 2.2c-.6.3-1.3.6-1.9.6"/>
  <path fill="#00A78E" d="M1016.5 549.7c1.7 0 8.3 21.4 8.3 21.4l.8 4.5-2.2 26.9c0 .2.3 1.4.4 1.6l3 5.6c.1.4 0 2-.2 2.4l-3.4 6.4c-.1.2-.3.4-.6.5l-2.5 2.2c-.4.3-.9.5-1.4.5-.3 0-.5-.1-.8-.2l-.4-.2c-.2-.4-.6-.8-.1-1.3l2.3-2c.4-.3.7-.7.8-1.1.1-.5.3-1.3.5-1.9.2-.8-.1-1.7-.8-2.2l-1.3-1-2.9 5-.5.8c-.3.1-.6.1-.8.1-1.4 0-1.3-1.3-.9-2.7l1.3-9.2v-.4l-3.3-28c-1.1-2.6-3.2-6.1-3.2-6.2 0 0-9.7-14.8-8.4-15.3l16.3-6.2c-.1 0-.1 0 0 0m0-1c-.2 0-.3 0-.4.1l-16.1 6.4c-.3.1-.6.4-.7.7-.1.5-.6 1.9 8.6 16 0 .1.1.1.1.2 1.4 2.3 2.4 4.2 3 5.7l3.3 27.8v.1l-1.3 9.2c-.3.9-.6 2.2.1 3.1.3.4.8.8 1.8.8.3 0 .6 0 1-.1l.4-.1.2-.4.5-.8 2.4-4 .4.3c.4.3.6.7.5 1.2l-.5 1.9c0 .2-.2.3-.4.5l-2.3 2c-.8.7-.8 1.5-.2 2.5l.1.1.2.2.3.1.4.2c.3.2.8.3 1.2.3.8 0 1.5-.3 2-.7l2.4-2.1c.4-.2.7-.5.9-.9l3.4-6.4c.3-.6.5-2.5.2-3.2l-3-5.6c-.1-.2-.3-.9-.3-1.2l2.2-26.9v-.2l-.8-4.5v-.2c0-.1-1.7-5.4-3.5-10.7-4.3-11.4-5.2-11.4-6.1-11.4"/>
  <path fill="#FFF" d="M1025.4 555.4l-19.1 14.3-2.4-8.6 2.5 21c.3 3.6.5 15.1-.5 25.6l-2.2 13.9h-60.2l-2.2-16.4c-.7-8.6.1-21.5.4-24.8l3.5-19.5-2.9 8.1-17.1-13s-3 2.6 4.6-10.9 24.4-18.2 24.4-18.2l20.3 2.7 19.3-1.3s17.9 3.7 25.5 17.2c7.7 13.4 6.1 9.9 6.1 9.9"/>
  <path fill="none" stroke="#00A78E" stroke-width="2.562" stroke-miterlimit="10" d="M1025.4 555.4l-19.1 14.3-2.4-8.6 2.5 21c.3 3.6.5 15.1-.5 25.6l-2.2 13.9h-60.2l-2.2-16.4c-.7-8.6.1-21.5.4-24.8l3.5-19.5-2.9 8.1-17.1-13s-3 2.6 4.6-10.9 24.4-18.2 24.4-18.2l20.3 2.7 19.3-1.3s17.9 3.7 25.5 17.2c7.7 13.4 6.1 9.9 6.1 9.9"/>
  <path fill="#FFF" d="M843.1 697.3l-4-63.3h59l-1.3 63.3h-24.1V646c0-1.4-.9-2.4-3.6-2.4s-3.6 1.1-3.6 2.4v51.3h-22.4zm-10.4-69.9c.6 1.6.6 3.1-1.6 2.6l-.5-.8-3-4.8-1.3 1c-.7.6-1 1.4-.8 2.2.2.6.4 1.4.5 1.9.1.4.4.7.8 1l2.3 1.9c.6.5.2.9 0 1.2l-.4.2c-.6.3-1.6.2-2.1-.3l-2.5-2.1c-.3-.1-.5-.3-.6-.5l-3.4-6.3c-.2-.4-.4-2-.2-2.3l2.9-5.6c.1-.2.4-1.4.4-1.6l-2.5-26.5.8-4.5s4.7-22.2 6.4-21.6l16 5.9c1.2.5-4.8 11.4-4.8 11.4-2.8 5.3-3.8 7.1-4.8 10.4l-3 27.7v.4l1.4 9.1z"/>
  <path fill="none" stroke="#00A78E" stroke-miterlimit="10" d="M832.7 627.4c.6 1.6.6 3.1-1.6 2.6l-.5-.8-3-4.8-1.3 1c-.7.6-1 1.4-.8 2.2.2.6.4 1.4.5 1.9.1.4.4.7.8 1l2.3 1.9c.6.5.2.9 0 1.2l-.4.2c-.6.3-1.6.2-2.1-.3l-2.5-2.1c-.3-.1-.5-.3-.6-.5l-3.4-6.3c-.2-.4-.4-2-.2-2.3l2.9-5.6c.1-.2.4-1.4.4-1.6l-2.5-26.5.8-4.5s4.7-22.2 6.4-21.6l16 5.9c1.2.5-4.8 11.4-4.8 11.4-2.8 5.3-3.8 7.1-4.8 10.4l-3 27.7v.4l1.4 9.1z"/>
  <path fill="#FFF" d="M914.6 632.3c-.4 0-.7-.1-1-.2l-.5-.3-.1-.2c-.2-.3-.7-1.1.1-1.8l2.3-2c.3-.3.5-.5.6-.8l.5-1.9c.2-.6 0-1.2-.6-1.7l-.8-.6-3.2 5.4h-.2c-.3.1-.6.1-.9.1-.8 0-1.2-.3-1.4-.6-.4-.6-.4-1.5 0-2.7l1.3-9.1v-.3l-3.2-27.6c-.6-1.4-1.6-3.4-3-5.7-.1-.2-.2-.3-.2-.3-2.7-4.1-8.9-13.9-8.4-15.4.1-.2.2-.3.4-.4l16-6.3h.2c1.7 0 5.7 11.7 8.7 21.5l.9 4.6-2.2 26.7c0 .2.3 1.2.4 1.3l3 5.5c.2.6.1 2.3-.2 2.8l-3.4 6.4c-.1.3-.4.5-.8.7l-2.4 2.2c-.7.4-1.3.7-1.9.7"/>
  <path fill="#00A78E" d="M912.3 560.5c1.7 0 8.2 21.2 8.2 21.2l.8 4.5-2.2 26.7c0 .2.3 1.4.4 1.6l3 5.6c.1.4 0 2-.2 2.3l-3.4 6.4c-.1.2-.3.4-.6.5l-2.5 2.2c-.4.3-.9.5-1.4.5-.3 0-.5-.1-.7-.2l-.4-.2c-.2-.4-.6-.8-.1-1.2l2.3-2c.4-.3.7-.7.8-1 .1-.5.3-1.3.5-1.9.2-.8-.1-1.6-.8-2.2l-1.3-.9-2.9 4.9-.5.8c-.3.1-.5.1-.8.1-1.4 0-1.3-1.3-.9-2.7l1.3-9.2v-.4l-3.3-27.7c-1-2.6-3.1-6-3.2-6.1 0 0-9.6-14.6-8.3-15.1l16.2-6.5m0-1c-.2 0-.3 0-.4.1l-15.9 6.3c-.3.1-.6.4-.7.7-.1.5-.6 1.9 8.5 15.9 0 .1.1.1.1.2 1.4 2.3 2.3 4.2 2.9 5.6l3.2 27.5v.1l-1.3 9.1c-.3.9-.6 2.2.1 3.1.3.4.8.8 1.8.8.3 0 .6 0 1-.1l.4-.1.2-.4.5-.8 2.3-3.9.4.3c.4.3.6.7.4 1.1l-.5 1.9c0 .2-.2.3-.4.5l-2.3 2c-.8.7-.8 1.5-.2 2.5l.1.1.2.2.3.1.4.2c.3.2.8.3 1.2.3.8 0 1.5-.3 2-.7l2.4-2.1c.4-.2.7-.5.9-.9l3.4-6.4c.3-.6.5-2.5.2-3.2l-3-5.5c-.1-.2-.3-.9-.3-1.2l2.2-26.6v-.2l-.8-4.5v-.2c0-.1-1.6-5.4-3.5-10.6-4-11.2-4.9-11.2-5.8-11.2"/>
  <path fill="#FFF" d="M921.2 566.1l-18.8 14.2-2.4-8.5 2.5 20.7c.3 3.5 12.8 68 12.8 68l-83.3-2.2s6.1-64.1 6.5-67.4l3.4-19.3-2.9 8-16.9-12.9s-1.8 2.6 5.7-10.8c7.5-13.3 24.1-18 24.1-18l20 2.6 19.1-1.3s17.7 3.7 25.2 17c7.7 13.4 5 9.9 5 9.9"/>
  <path fill="none" stroke="#00A78E" stroke-width="2.562" stroke-miterlimit="10" d="M921.2 566.1l-18.8 14.2-2.4-8.5 2.5 20.7c.3 3.5 12.8 68 12.8 68l-83.3-2.2s6.1-64.1 6.5-67.4l3.4-19.3-2.9 8-16.9-12.9s-1.8 2.6 5.7-10.8c7.5-13.3 24.1-18 24.1-18l20 2.6 19.1-1.3s17.7 3.7 25.2 17c7.7 13.4 5 9.9 5 9.9"/>
  <path fill="#FFF" d="M866.1 697.9s-1-9.7-17.4-8.8c-16.3.9-17.6 7.2-18.2 9m78.6-.2s-1-9.7-17.4-8.8-17.6 7.2-18.2 9m94.1-10s-1.1-10.3-18.4-9.4c-17.3.9-18.7 7.7-19.3 9.5m85.6-.1s-1.1-10.3-18.4-9.4c-17.3.9-18.7 7.7-19.3 9.5"/>
  <path fill="#00A78E" d="M1012.5 445.5s4.1-24.2-1.7-26.7c-18.8-8-14.1-17.9-29-14.9-3.4.7-11.7-12.9-13.2-8.9-6.5 16.8-44.3 4.3-34.5 53.3.9 4.3 1.9 9.2 1.9 9.2 4.4.4.8-1.5.9-19.3.1-24.7 25.5-10.9 35.4-11.4 11.9-.6 33.1-7.7 36.1 5.7s.3 26.2.3 26.2l3.2 3 .6-16.2z"/>
  <path fill="none" stroke="#FFF" stroke-miterlimit="10" d="M1012.5 445.5s4.1-24.2-1.7-26.7c-18.8-8-14.1-17.9-29-14.9-3.4.7-11.7-12.9-13.2-8.9-6.5 16.8-44.3 4.3-34.5 53.3.9 4.3 1.9 9.2 1.9 9.2 4.4.4.8-1.5.9-19.3.1-24.7 25.5-10.9 35.4-11.4 11.9-.6 33.1-7.7 36.1 5.7s.3 26.2.3 26.2l3.2 3 .6-16.2z"/>
  <path fill="#FFF" d="M827.9 465.2c3.6-39.1 17.7-42.5 27.9-43s36.4-2.1 48.4 10.6c9 9.6 8.8 11.6 5 40.7-2 15.4.4 21.1-15.1 37.2-15.3 15.9-14.5 13.8-31.3 13.8-4 0-11.5-4.8-21.7-14.3-15.7-14.6-12.7-28.7-13.2-33.6"/>
  <path fill="#00A78E" d="M856.9 475.2c0 2.5-2.2 4.5-4.9 4.5s-4.9-2-4.9-4.5 2.2-4.5 4.9-4.5 4.9 2 4.9 4.5"/>
  <path fill="#00A78E" d="M860.6 475.3s-.4-.3-1-.8-1.6-1.1-2.7-1.6c-.6-.3-1.2-.5-1.8-.8-.7-.2-1.4-.4-2.1-.5-.7-.1-1.5-.1-2.2 0-.8 0-1.5.3-2.2.6-.7.3-1.5.6-2.1 1.1-.7.4-1.3 1-2 1.5-.6.5-1.3 1.2-2.1 1.6-.4.2-.8.4-1.1.5-.4.1-.7.2-1.1.2-1.4.1-2.5-.2-3.2-.7-.7-.4-1-.8-1-.8s.4.2 1.1.3c.7.1 1.7 0 2.9-.4.3-.1.6-.2.8-.4.3-.2.6-.3.8-.5.5-.4.9-1.1 1.7-1.7.7-.7 1.3-1.4 2.1-1.9.8-.6 1.6-1 2.5-1.4.9-.3 1.8-.6 2.7-.6.9-.1 1.8.1 2.6.3.4.1.8.2 1.2.4.4.2.8.4 1.1.6.7.4 1.3.8 1.9 1.3.6.4 1 1 1.4 1.4.4.4.7.9 1 1.2.6.6.8 1.1.8 1.1"/>
  <path fill="#00A78E" d="M850.3 473.5c0 .9-.4 1.6-1 1.6-.5 0-1-.7-1-1.6 0-.9.4-1.6 1-1.6s1 .7 1 1.6m24.7-13s-2.2 3.5 5.1 2.5c7.4-1 12.4-8.3 16.4-4.9s10 3.5 4.6.6-4.8-5.7-12.1-3.3c-7.3 2.2-13.7 3.7-14 5.1"/>
  <path fill="#FFF" d="M869.2 482.9s2.6 7.7 4.9 10.2c8.3 9.1-14.6 7.7-8.8 4.4"/>
  <path fill="#00A78E" d="M869.2 482.9s.2.4.7 1.2c.2.4.4.8.7 1.3.3.5.6 1.1.9 1.7.3.6.7 1.3 1.1 2 .4.7.8 1.4 1.3 2.1.5.7.9 1.2 1.7 2.1.6.8 1.3 1.8 1.4 3.1.1.7-.1 1.4-.5 2-.4.6-.9 1-1.3 1.3-1 .6-2 .8-2.9 1-1.9.3-3.6.1-5.1-.2-.7-.2-1.4-.4-2-.7-.3-.1-.5-.3-.7-.6-.2-.2-.3-.6-.2-.9.2-.5.6-.6.8-.7.2-.1.3-.1.3-.1s-.1.1-.3.2c-.2.1-.4.4-.5.7-.1.3.3.5.8.7.5.2 1.1.2 1.8.3 1.4.1 3 0 4.6-.5.8-.2 1.6-.5 2.2-.9.6-.5.9-.9.8-1.4 0-.6-.5-1.3-1-2-.5-.6-1.3-1.5-1.7-2.3-.9-1.7-1.5-3.2-1.9-4.6-.8-2.9-1-4.8-1-4.8m-11.6 23.5s15.1 7.4 23.9-4.6c-6.4 20.4-25.7 3.2-23.9 4.6m24-31.7c0 2.5 2.2 4.5 4.9 4.5s4.9-2 4.9-4.5-2.2-4.5-4.9-4.5c-2.7.1-4.9 2.1-4.9 4.5"/>
  <path fill="#00A78E" d="M877.5 474.9s.4-.3 1-.8 1.6-1.1 2.7-1.6c.6-.3 1.2-.5 1.9-.8.7-.2 1.4-.4 2.1-.5.7-.1 1.5-.1 2.2 0 .8 0 1.5.3 2.2.6.7.3 1.5.6 2.1 1.1.7.4 1.3 1 2 1.5.6.5 1.3 1.2 2.1 1.6.4.2.8.4 1.1.5.4.1.7.2 1.1.2 1.4.1 2.5-.2 3.2-.7.7-.4 1-.8 1-.8s-.4.2-1.1.3c-.7.1-1.7 0-2.9-.4-.3-.1-.6-.2-.8-.4-.3-.2-.6-.3-.8-.5-.6-.4-1-1.1-1.7-1.7-.7-.7-1.3-1.4-2.1-1.9-.8-.6-1.6-1-2.5-1.4-.9-.3-1.8-.6-2.7-.6-.9-.1-1.8.1-2.7.3-.4.1-.8.2-1.2.4-.4.2-.8.4-1.1.6-.7.4-1.3.8-1.9 1.3-.6.4-1 1-1.4 1.4-.4.4-.7.9-1 1.2-.6.6-.8 1.1-.8 1.1m5.7-1.4c0 .9.4 1.6 1 1.6.5 0 1-.7 1-1.6 0-.9-.4-1.6-1-1.6-.6-.1-1 .7-1 1.6"/>
  <path fill="#FFF" d="M855.2 475.1c0 .7-.4 1.3-.9 1.3s-.9-.6-.9-1.3c0-.7.4-1.3.9-1.3s.9.6.9 1.3m34.7 0c0 .7-.4 1.3-.9 1.3s-.9-.6-.9-1.3c0-.7.4-1.3.9-1.3s.9.6.9 1.3m15.8-1.2s1.3-11.2 4.7-8.1c2.9 2.6 4.2 14.6 2.5 23-.8 3.7-5.2 8-7.1 6.1-1.8-1.8-.1-21-.1-21m-74.9.9s-1.6-11.2-5.3-8c-3.9 3.4-3.5 17.8-2.2 23.1.9 3.7 5.9 7.8 7.9 5.9 2-1.8-.4-21-.4-21"/>
  <path fill="#00A78E" d="M868.1 420.4c-6-.4-10.9.4-16.9 1.5-6 1.1-11.9 3.8-16 8.7-3.1 3.7-4.9 8.4-6.6 13.1-2 5.4-3.8 11-4.1 16.9 0 .6-.1 1.3.2 1.9.3.6.8.9 1.4 1.2 3.2 1.6 6.9 1.7 10.4 1.7 22.5-.1 45.1-.1 67.6-.2 2.9 0 6.4-.3 7.9-3.1.8-1.4.9-3.1.9-4.7.1-11.6-4.3-23.7-13.1-29.9-5.7-4-12.5-5.2-19.2-6.2-4-.8-8.3-1.5-12.5-.9"/>
  <path fill="#FFF" d="M868.1 419.6c-15.5-.7-31.3 3.1-38 18.3-2.9 6.6-7 15.7-6.3 23.1.4 4.9 7.5 4.9 11.3 5 20.7.4 41.5-.1 62.2-.2 4.9 0 13.5 1.5 15.9-4.4 2.4-5.8-.1-15.1-2.3-20.6-2.8-7.2-7.8-13.3-15-16.5-8.1-3.6-19-5.4-27.8-4.7-1 .1-1 1.6 0 1.5 8.8-.7 20.5 1.1 28.4 5.2 7.5 3.9 12 11.3 14.1 19.2 1 3.8 1.6 7.9 1.5 11.8-.3 8.1-8.3 7-14 7-9.6 0-19.2.1-28.8.1l-28.8.1c-3.8 0-11.1 1.1-14-1.5-3.1-2.8.2-10.9 1.2-14.2 2.7-8.6 5.9-17.6 13.9-22.6 7.4-4.6 18.1-5.5 26.6-5.1.9.1.9-1.4-.1-1.5"/>
  <path fill="#FFF" d="M829.1 463.8c3.4-7.6 7.8-14.6 13.7-20.5 3.5-3.5 7.3-6.2 12.4-6.7 4.5-.5 9.2-.1 13.6.3 17.2 1.4 30.4 11.7 37.1 27.5 1.5 3.5 7.3 2 5.8-1.6-7.4-17.8-21.7-29.8-41-31.8-9.8-1-20.3-1.7-28.4 4.7-8.1 6.5-14.1 15.7-18.3 25-1.7 3.6 3.5 6.6 5.1 3.1"/>
  <path fill="#00A78E" d="M584.5 430.4c1.5 4 .7 12.8-2.6 15.5-3.2 2.7-7.3 4.4-10.6 7-3.8 3-6.5 7.3-7.6 11.9-.7 3-.8 6.1-.7 9.2.2 4.4 3.8 7.1 5.9 11 1.6 3 1.6 5.7 4.7 7.2 1.2.6 3.3 6.2 2 5.8-.2-.1-2.9.8-3.6.5-.8-.3-1.8-3.3-2.6-3-1.8.8 3.2 5.7 4 6.9 4.1 6.4 9.9 4.2 12.5 11.4 1.8 4.9 6 14.8 1.7 17.8-1.5 1.1-8.1 1.9-9.2 3.4-.7.9-3.4-2.3-4.2-1.5-1.9 2.2-5.5 2.3-7.8 3.2-2.6 1-5.6.8-7.9-.9-5.4-4.1-1.4-9.7.3-14.8 1.7-4.9 1.2-10.4-1.3-14.9-1.2-2.2-2.9-4.1-4.1-6.3-3.4-6.2-2.5-14 .2-20.6 1.2-2.9 2.2-8.7 1.6-11.8"/>
  <path fill="#FFF" d="M583.8 430.6c1.1 3.7.9 8.1-.5 11.7-1.8 4.8-7.8 6.6-11.7 9.5-6.5 4.9-9.5 12.4-9.4 20.4.1 3.7 1.1 6.1 3.3 9.1 2.2 3.1 3.3 6.9 5.5 9.8 1.1 1.4 5.5 4.5 4.1 6.3-1.9 2.5-3.9-2.1-5.4-2.6-.3-.1-.5 0-.7.2-2.1 2 2.1 5.6 3.2 7 1.5 1.9 2.7 3.6 4.8 4.9 2.9 1.9 6 2.6 7.8 5.9 1.4 2.7 2.4 6 3.2 9 1.3 4.7 1.6 8.5-3.6 10.2-1.6.5-4.2 1.9-5.8 1.9-1.6.1-2.3-1.2-3.8-1.3-.3 0-.6.3-.9.3-1 .2-3.8 2-5.3 2.4-2.4.6-4.8 1.6-7.3.9-4.3-1.3-4.9-5-4.1-8.6.7-3.3 2.7-6.1 3.3-9.5.5-3.1.2-6.4-.8-9.4s-3.1-5.3-4.7-8c-2.8-4.6-3.4-9.7-2.4-15 1.2-6.4 4.4-11.8 3.5-18.5-.1-1-1.6-.5-1.4.4 1 7.7-3.7 14.4-3.9 22-.1 3 .3 6.1 1.5 8.9 1.4 3.3 4 6 5.5 9.3 2 4.4 2 9.1.4 13.7-1 2.8-2.6 5.5-2.8 8.5-.2 4.2 3.1 7.6 7.2 8 2.6.3 5.3-.8 7.7-1.5 1.1-.3 2.1-.8 3.1-1.2 1.5-.5 2.2-.1 3.5.1 1.1.2 1.1.4 2.2.2s2.5-1.2 3.7-1.6c1.3-.4 2.8-.6 4-1.1 3.3-1.4 3.9-4.3 3.5-7.7-.5-4.5-2.2-10.7-4.9-14.4-1.6-2.2-3.8-3.1-6.1-4.4-2.9-1.7-4.8-4.1-6.9-6.6-.5-.6-.9-1.3-1.5-1.8-2.2-2.1.1.2-.2 0 .4.2.6 1 1.1 1.2 1.2.5 3.2-.3 4.4-.5.3 0 .5-.3.5-.5 1.2-4.2-4.6-7.8-5.9-10.9-1.4-3.2-3.5-5.6-5.2-8.5-3.1-5.2-2.1-12.8.5-18.1 2.4-4.9 6.5-7.9 11-10.6 2.3-1.4 5.2-2.8 6.7-5.2 2.6-4 2.8-10.2 1.5-14.7-.3-.9-1.8-.5-1.5.4"/>
  <path fill="#00A78E" d="M583.5 431.7c1.4 5.5 6 9.8 11.3 11.9 5.3 2.1 11.1 2.3 16.7 1.9 5.7-.4 11.7-1.4 17 .8 4.9 2.1 8.3 6.8 9.6 11.9 1.4 5.1.9 10.6-.3 15.7-.7 2.8-1.7 5.8-4.1 7.3-3.4 2.2-8.2.9-10.6 5.6.4 8.3 11.6-.2 12.7 7-.5 2.9-2.7 4.1-4.8 5.3-6.2 3.6-11.8 8.2-16.6 13.5-2.2 5.4 5.9 4.7 6.5 8.6.5 3.5-6.2 5.5-.4 10.6 7.1 2.1 14.5 3.3 22 3.5 2.1 0 4.2 0 6.1-.6 5.3-1.7 8.4-8.4 6.3-13.6-1.6-4-5.6-6.7-6.7-10.9-1.2-4.7 1.7-9.4 2.4-14.2.9-6.2-1.9-12.3-3.1-18.4-2.5-13 2.3-27.2-2.8-39.4-3.3-7.9-10.5-13.8-18.4-16.9-9.8-3.9-20.7-4-31-3.3-4.2.3-8.5.9-12.6 1.7-3.3.6-6.7 1.3-9.6 3.1-2.3 1.5-4.2 3.6-5.8 5.9-6.2 8.3-10.5 18-12.5 28.1-.8 3.9-.4 6.9.8 10.7"/>
  <path fill="#FFF" d="M582.7 431.9c1.8 5.8 6.2 10.1 11.8 12.4 8.1 3.3 16.3 1.6 24.7 1.4 12.6-.3 19.6 9.2 18.9 21.3-.3 5.8-1.5 12.7-7.7 14.8-2.2.8-4.6.9-6.4 2.6-2.3 2.2-2.2 5.7 1 6.9 1.5.6 3.3.3 4.9.2 1.3 0 4-.4 4.6 1.2.7 1.8-1.7 4.5-2.9 5.2-.8.5-1.7 1-2.5 1.4-3.3 2.1-6.5 4.4-9.5 7-2 1.8-5.8 4.4-6.4 7.2-.9 4.5 5 4.4 5.9 7.9.9 3.7-4.8 7.8.8 11.1 2.9 1.7 7.8 2.1 11.1 2.6 4.2.7 8.6 1.2 12.9 1 5.6-.2 10.4-2.8 11.9-8.5 1.9-7.2-4.2-10.4-6.5-16.3-2-5.2 1.2-9.9 1.9-15 .5-3.6-.1-7-1-10.5-1.2-4.7-2.5-9.3-2.8-14.2-.3-5 .2-9.9.3-14.8.2-7.7-.2-15.5-4.2-22.3-3.6-6-9.3-10.5-15.6-13.3-8.6-3.8-18.3-4.6-27.6-4.2-8.5.3-19.5.5-27.1 4.7-7.4 4.1-12.2 14-15.3 21.5-3.3 7.9-5.7 16-3.3 24.5.3.9 1.7.5 1.4-.4-2.5-8.7.5-17.6 4.2-25.7 3.5-7.8 8.8-17.5 17.4-20.1 8-2.4 16.9-3 25.2-3.1 8.7-.1 17.7.9 25.6 4.7 7.4 3.6 13.6 9.7 16.2 17.7 2.6 7.9 1.4 16.5 1.2 24.7-.2 7.7 1.3 14.1 3.1 21.5 1.1 4.7.9 9-.4 13.6-.8 2.7-1.8 5.4-1.5 8.3.8 7.4 10.1 11.2 6.8 19.4-3.7 9.5-18.4 6.2-26.1 4.7-4-.8-10.7-2.1-8.1-7.3.7-1.4 1.9-2.4 1.8-4-.1-3.8-4.6-3.2-6.1-5.7-.5-.9.7-3.8 1.1-4.5.4-.6 1.2-1.2 1.7-1.8 1.4-1.3 2.8-2.6 4.3-3.8 3.2-2.6 6.8-4.5 10.2-6.9 2.3-1.6 5.1-4.7 2.5-7.5-1.9-2.1-5-1.2-7.5-1.3-2.2-.1-7-.7-2.1-5.2.9-.9 2.8-1.1 3.9-1.4 2-.5 4-1 5.5-2.6 4.4-4.3 4.9-13.5 4.2-19.2-.7-5.7-3.4-11.3-8.2-14.6-6.7-4.5-14.9-2.4-22.4-2.2-10 .3-21.4-2.7-24.7-13.4.1-1-1.3-.6-1.1.3"/>
</svg>