<svg xmlns="http://www.w3.org/2000/svg" width="148.7" height="49.7" viewBox="0 0 148.7 49.7"><path fill="#00A78E" d="M148.7 8.2c-.2-6.1-16.6-6.2-20.6-7-9.3-1.8-18.9-1.4-28.3-.1-8.2 1.1-17.1 4.2-25.4 3.7v9.4s4.4-.5 6.4 10.1c0 0 5.2 23.4 27.2 25.1 9.2.7 19.9 0 26.4-7.3 9.8-10.9 7.7-24.9 10.3-25.8 3.3-1 4.1-3.4 4-8.1"/><path fill="#00A78E" d="M132.1 8c-4.4-3.1-10.4-4.6-16.3-4.9-13-.6-33.6 3-31.3 17.6 0 0 1.7 12.8 8.5 18.4 16.8 13.7 43.8 8.8 45.7-16.1.6-7-2-11.8-6.6-15M0 8.2c.2-6.1 16.6-6.2 20.6-7 9.3-1.8 18.9-1.4 28.3-.1C57.1 2.2 66 5.3 74.3 4.8v9.4s-4.4-.5-6.4 10.1c0 0-5.2 23.4-27.2 25.1-9.2.7-19.9 0-26.4-7.3C4.6 31.3 6.6 17.3 4 16.4.7 15.3-.1 12.9 0 8.2"/><path fill="#00A78E" d="M16.7 8C21.1 4.9 27 3.4 33 3.1c13-.6 33.6 3 31.3 17.6 0 0-1.7 12.8-8.5 18.4C38.9 52.8 11.9 47.9 10 23c-.5-7 2.1-11.8 6.7-15"/></svg>