<svg xmlns="http://www.w3.org/2000/svg" width="78.5" height="157.3" viewBox="0 0 78.5 157.3">
  <path fill="#FFF" d="M10.5 67.2L41.1 56l-6-14.1S22.5 22.2 32.9 7.5c3.1-4.4 11.7-11.4 21.6.1.5.6 1.2 1.2 1.6 2.1 7.8 17 5.3 23.3 5.4 30.8.2 9.7 2.2 16.6 8.7 23.9 5.6 6.2 9.8 20.6 4.3 33.3 0 0-.8 25.9-5.1 26.6L13 110.7"/>
  <path fill="#00A78E" d="M10.5 67.2l7.6-3 7.6-3 15.2-5.9-.4.9c-2.1-4.7-4.1-9.4-6.2-14l.1.1c-1.8-2.9-3.2-5.9-4.3-9.1-1.1-3.2-1.9-6.5-2.2-9.9-.3-3.4-.1-6.9 1-10.2.5-1.7 1.2-3.3 2.1-4.8.4-.7.9-1.5 1.4-2.2.6-.7 1.1-1.4 1.8-2 1.3-1.2 2.7-2.3 4.4-3.1 1.4-.6 3.2-1 5.1-1 1.9 0 3.7.5 5.3 1.3 1.6.8 3.1 1.9 4.4 3.1.6.6 1.3 1.2 1.8 1.9l.8.9c.3.3.6.7.9 1.1.3.4.6 1 .7 1.3l.5 1.1c.3.8.7 1.5 1 2.3 1.3 3.1 2.4 6.3 3.1 9.6.7 3.3 1.1 6.8 1 10.1 0 1.7-.1 3.4-.2 5s0 3.1 0 4.8c.2 3.2.6 6.3 1.5 9.3.9 3 2.3 5.8 4.2 8.3.4.6 1 1.3 1.4 1.9l1.6 1.8c1.2 1.4 2.1 2.9 2.9 4.4 1.6 3.1 2.6 6.4 3.2 9.7 1.2 6.7.6 13.8-2.1 20.1l.1-.5c-.1 2.3-.3 4.6-.5 7-.2 2.3-.4 4.6-.7 6.9-.3 2.3-.7 4.6-1.2 6.9-.3 1.2-.6 2.3-1 3.5-.2.6-.5 1.2-.9 1.7-.2.3-.4.6-.7.9-.3.3-.7.6-1.3.7h-.2l-.2-.1-14-3.6c-4.7-1.2-9.4-2.4-14-3.6l-14-3.7c-4.7-1.2-9.3-2.5-14-3.7 4.7 1 9.5 2 14.2 3l14.2 3.1c4.7 1 9.4 2.1 14.1 3.2l14.1 3.2h-.4s.3-.2.6-.6c.2-.4.5-.9.6-1.4.4-1 .6-2.1.9-3.2.5-2.2.8-4.5 1-6.7.5-4.5.8-9.1.9-13.7v-.2l.1-.2c2.4-5.8 2.9-12.4 1.7-18.5-.6-3.1-1.6-6.1-3-8.9-.7-1.4-1.6-2.7-2.5-3.8L67.9 64c-.5-.7-1.1-1.3-1.6-2-2-2.8-3.6-5.9-4.6-9.2-1-3.3-1.5-6.7-1.6-10.1-.1-1.6-.1-3.4 0-5.1.1-1.7.2-3.3.2-4.9.1-3.2-.2-6.3-.9-9.4-.7-3.1-1.7-6.2-2.9-9.1-.3-.7-.6-1.5-.9-2.2-.3-.7-.7-1.6-.9-2-.2-.2-.4-.5-.7-.8l-1-1c-.5-.6-1.1-1.1-1.6-1.7-2.2-2.1-4.9-3.7-7.8-3.7-2.8-.1-5.6 1.3-7.8 3.4-.5.5-1.1 1.1-1.5 1.7-.5.6-.9 1.3-1.3 1.9-.8 1.3-1.4 2.7-1.9 4.2-1 2.9-1.3 6.1-1.1 9.3.2 3.2.9 6.3 1.9 9.4 1 3 2.3 6 3.9 8.8l.1.1c1.9 4.7 3.9 9.4 5.8 14.2l.3.7-.7.2L25.9 62l-7.7 2.6-7.7 2.6z"/>
  <path fill="#FFF" d="M29.4 61.4S7.8 67.1 6 70c0 0-9 11.8 1.7 17.6 0 0-2-3.4-7.2 7 0 0-3.7 11.2 8 16.7l-8.2-5s1 28.1 8.1 27.3c0 0-2.8 10.3 9.8 14.6 0 0 25.7 11.2 47.8 0 0 0 7.2-5.1 0-15.6 0 0 10.5-5.8-1.1-19.5 0 0 6.5-8.7.4-18.8 0 0 9.4-12.7-8.7-26l-27.2-6.9zM67 133.6c6.2 9.8-1.6 17.4-1.6 17.4-26.4 14.8-52.7-5.8-52.7-5.8"/>
  <path fill="#00A78E" d="M67 133.6c.3.3.6.5.9.9.3.3.6.6.8 1 .2.3.5.7.7 1.1.2.4.4.8.6 1.1.2.4.3.8.4 1.2.1.4.2.8.3 1.3.1.4.1.9.1 1.3v1.3c0 .9-.2 1.7-.4 2.6-.2.9-.5 1.7-.9 2.4-.4.8-.8 1.5-1.4 2.2-.3.3-.5.7-.8 1-.3.3-.6.6-1 .9l-.2.2H66c-1.1.5-2.1 1.1-3.2 1.6l-1.7.7c-.6.2-1.1.4-1.7.6-1.1.4-2.3.7-3.4 1-.6.1-1.2.3-1.8.4l-1.8.3-1.8.3-1.8.2c-.6.1-1.2.1-1.8.1h-3.6l-1.8-.1c-1.2-.1-2.4-.2-3.5-.5-1.2-.2-2.3-.4-3.5-.7-1.1-.3-2.3-.6-3.4-1s-2.2-.7-3.3-1.2c-1.1-.4-2.2-.9-3.3-1.4-2.1-1-4.2-2.1-6.2-3.3-2-1.2-3.9-2.5-5.8-4 1.9 1.3 3.9 2.5 6 3.6s4.2 2 6.3 2.9l3.3 1.2c1.1.4 2.2.7 3.3 1 1.1.3 2.2.5 3.4.8 1.1.2 2.3.4 3.4.5 1.1.2 2.3.2 3.4.3l1.7.1h1.7c.6 0 1.1 0 1.7-.1.6-.1 1.1-.1 1.7-.1l1.7-.2c.6-.1 1.1-.2 1.7-.3 1.1-.2 2.2-.5 3.3-.8 1.1-.4 2.2-.6 3.2-1.1.5-.2 1.1-.4 1.6-.6l1.5-.7c1-.5 2-1.1 3-1.6l-.3.2.6-.8.6-.9c.3-.6.7-1.3 1-1.9.1-.3.3-.7.4-1 .1-.3.2-.7.3-1 .2-.7.3-1.4.5-2 .1-.7.2-1.4.2-2.1v-1.1c0-.4-.1-.7-.1-1.1 0-.4-.1-.7-.2-1.1-.1-.4-.1-.8-.2-1.1-.1-.4-.2-.7-.3-1.1v-1.4z"/>
  <path fill="#FFF" d="M14.1 66.7s28.2-5.1 48.8 5.4c0 0 13.7 15.2 0 22.4 0 0-26 1.1-39.1-3.3"/>
  <path fill="#00A78E" d="M14.1 66.7c2-.5 4.1-.9 6.2-1.1 1-.2 2.1-.3 3.1-.4 1-.1 2.1-.2 3.1-.3 1-.1 2.1-.1 3.1-.2s2.1-.1 3.1-.1h3.1c1 0 2.1 0 3.1.1l3.1.2c1 .1 2.1.3 3.1.4l1.6.2 1.6.3c1 .2 2.1.4 3.1.6l3.1.8c1 .2 2 .7 3 1 1 .3 2 .7 3 1.1l2.9 1.3.2.1.2.2c.4.5.8.9 1.1 1.4.4.5.7.9 1 1.4.7.9 1.3 1.9 1.8 3 .3.5.5 1 .8 1.6.2.5.5 1.1.7 1.6.2.6.4 1.1.5 1.7.1.6.3 1.2.4 1.8.1.6.1 1.2.1 1.9 0 .6-.1 1.3-.1 1.9-.1.6-.3 1.3-.5 1.9-.2.6-.5 1.2-.8 1.8-.3.6-.7 1.1-1.1 1.6-.4.5-.9.9-1.4 1.3-.5.4-1 .8-1.5 1.1-.5.3-1 .6-1.6.9l-.3.2h.1-5c-1.7 0-3.3-.1-4.9-.1-3.3-.1-6.6-.3-9.9-.6-.8-.1-1.6-.2-2.5-.3l-2.5-.3c-1.6-.2-3.3-.5-4.9-.8-.8-.1-1.6-.3-2.4-.5-.8-.2-1.6-.3-2.4-.6-.8-.2-1.6-.4-2.4-.7l-2.3-.8 2.4.5c.8.2 1.6.3 2.4.4.8.2 1.6.2 2.4.3l2.4.3c1.6.2 3.3.3 4.9.4l2.4.1c.8 0 1.6.1 2.4.1 1.6.1 3.3 0 4.9.1h4.9l4.9-.1c1.6 0 3.3-.1 4.9-.2l-.6.2c.4-.3.9-.5 1.3-.8l1.2-.9c.4-.3.7-.7 1-1 .3-.4.6-.7.8-1.1l.6-1.2c.2-.4.2-.9.3-1.3.1-.5.1-.9.1-1.4 0-.5 0-1-.1-1.4-.3-1.9-1.1-3.9-2.1-5.7-.5-.9-1-1.8-1.6-2.7-.3-.4-.6-.9-.9-1.3-.3-.4-.7-.8-1-1.2l.4.3-2.7-1.3c-.9-.5-1.9-.8-2.8-1.1-1-.3-1.9-.8-2.9-1l-2.9-.9c-1-.3-2-.5-3-.7l-1.5-.3-1.5-.3c-1-.2-2-.4-3-.5l-3.1-.4c-1-.1-2-.2-3.1-.3-1-.1-2-.2-3.1-.2-1-.1-2.1-.1-3.1-.1s-2.1-.1-3.1-.1h-3.1c-1 0-2.1 0-3.1.1-1 0-2.1.1-3.1.1-.8-.2-1.9-.1-2.9 0"/>
  <path fill="#FFF" d="M64.7 96.7s5.1 10.9 0 18.1c0 0-14.4 8.3-44.1-2.2"/>
  <path fill="#00A78E" d="M64.7 96.7c.4.7.8 1.4 1.1 2.1.3.7.6 1.5.9 2.2.3.8.5 1.5.7 2.3l.3 1.2.2 1.2c.1.8.2 1.6.1 2.5 0 .4 0 .8-.1 1.3-.1.4-.1.8-.2 1.3l-.3 1.2c-.1.4-.3.8-.4 1.2-.2.4-.3.8-.5 1.2-.2.4-.4.8-.6 1.1l-.1.2-.3.2c-1 .6-1.9.9-2.8 1.3-.9.3-1.9.6-2.8.9-.9.3-1.9.4-2.9.6-1 .2-1.9.3-2.9.4-1 .1-1.9.2-2.9.2h-2.9c-1 0-1.9-.1-2.9-.1-.5 0-1 0-1.4-.1l-1.4-.2c-1-.1-1.9-.2-2.9-.4-.9-.2-1.9-.3-2.8-.5-.9-.2-1.9-.4-2.8-.7-.9-.2-1.8-.5-2.8-.7l-2.7-.9-2.7-1c-1.8-.7-3.5-1.5-5.2-2.3 1.9.4 3.7.8 5.5 1.2l2.8.5c.9.2 1.8.4 2.8.5.9.1 1.8.3 2.8.4.9.2 1.8.3 2.8.4.9.1 1.8.2 2.8.3.9.1 1.8.1 2.8.2l1.4.1h1.4c.9 0 1.8.1 2.8.1l2.7-.1c.9-.1 1.8-.1 2.7-.2.9-.1 1.8-.2 2.7-.4.9-.2 1.8-.3 2.7-.5.9-.2 1.8-.4 2.6-.7.8-.3 1.7-.6 2.4-.9l-.4.4.6-.9c.2-.3.4-.6.5-.9.1-.3.3-.6.4-1l.3-1 .2-1.1c.1-.4.1-.7.2-1.1.1-.7.1-1.5.2-2.2 0-.8 0-1.5-.1-2.3-.1-.8-.1-1.5-.3-2.3-.1-.8-.2-1.5-.4-2.3-.4-.4-.6-1.1-.9-1.9"/>
  <path fill="#FFF" d="M67 116.2s8.4 9 0 17.4c0 0-13 9.4-44.6 0"/>
  <path fill="#00A78E" d="M67 116.2c.6.5 1.2 1.1 1.7 1.8.3.3.5.7.7 1 .2.3.4.7.6 1.1.2.4.4.8.5 1.1.2.4.3.8.5 1.2.2.4.3.8.3 1.2.1.4.2.8.2 1.3 0 .4.1.9.1 1.3l-.1 1.3c-.1.4-.2.9-.3 1.3-.1.4-.3.8-.4 1.3-.2.4-.3.8-.6 1.2l-.7 1.1c-.2.4-.5.7-.8 1.1l-.8 1v.1l-.1.1c-1 .7-1.8 1.1-2.8 1.5l-1.4.6c-.5.2-.9.3-1.4.5-.9.3-1.9.5-2.9.8-1 .2-1.9.4-2.9.6-1 .1-1.9.3-2.9.4l-2.9.2h-2.9c-1 0-1.9-.1-2.9-.2s-1.9-.1-2.9-.3c-1-.1-1.9-.3-2.9-.4-1-.1-1.9-.4-2.8-.5-.9-.2-1.9-.4-2.8-.6-1.9-.5-3.7-1-5.5-1.6-1.8-.6-3.6-1.3-5.4-2.1 1.9.3 3.8.6 5.6.9l2.8.4 2.8.4c.9.1 1.9.2 2.8.3.9.1 1.9.2 2.8.3.9.1 1.9.1 2.8.2.9.1 1.9.1 2.8.1.9 0 1.9.1 2.8 0l2.8-.1 2.8-.2 2.7-.3c.9-.1 1.8-.3 2.7-.5.9-.2 1.8-.4 2.6-.7.4-.1.9-.2 1.3-.4l1.3-.5c.4-.2.8-.3 1.2-.5.4-.2.8-.4 1.1-.6l-.2.1.8-.8c.2-.3.6-.5.7-.8l.6-.9c.2-.3.4-.6.5-.9.2-.3.4-.6.5-1 .1-.3.2-.7.4-1l.2-1.1c.1-.4.1-.7.1-1.1v-1.1c0-.4 0-.8-.1-1.1-.1-.4-.1-.8-.2-1.1-.1-.4-.2-.8-.3-1.1-.1-.4-.2-.7-.4-1.1-.2-.4-.3-.7-.5-1.1-.5-.7-.8-1.4-1.3-2.1m-35.2-83s-.1.8.1 1.9c0 .3.1.6.2.9.1.3.2.6.3 1 .2.3.3.7.5 1l.3.5.4.4c.2.3.6.5.8.7l.9.6c.3.2.6.3.9.4.3.1.6.2.8.3.3.1.5.2.7.3.2.1.4.1.6.2.3.1.5.2.5.2v.1h-.5c-.3 0-.8 0-1.4-.1-.3-.1-.6-.1-.9-.2-.3-.1-.7-.3-1-.4-.3-.2-.7-.4-1-.7-.3-.3-.6-.5-.8-.9l-.4-.5-.3-.5c-.2-.3-.3-.7-.5-1.1-.1-.4-.2-.7-.3-1-.1-.3-.1-.7-.1-.9 0-1.4.1-2.2.2-2.2zm29.9-4.6s.2.7.4 1.8c.1.6.2 1.2.1 1.9 0 .7-.1 1.5-.2 2.2-.1.4-.2.7-.3 1.1-.2.3-.3.7-.5 1-.2.3-.4.6-.7.8-.3.2-.5.4-.8.5-.3.1-.5.2-.7.3-.2.1-.4.1-.6.1-.3.1-.5.1-.5.1v-.1s.2-.1.4-.3c.1-.1.3-.2.5-.3.2-.1.4-.3.6-.4.2-.1.4-.4.6-.6.2-.2.4-.5.6-.7.2-.2.3-.6.5-.8.1-.3.3-.6.4-1 .2-.7.3-1.4.4-2.1.1-.7 0-1.3 0-1.9-.1-.8-.3-1.5-.2-1.6zm-5.1 48.8s.8.7 1.5 2.1c.4.7.8 1.5 1 2.5.1.5.3 1 .4 1.5 0 .5.2 1.1.2 1.6s0 1.1-.1 1.6c0 .5-.2 1-.3 1.5-.1.5-.3.9-.5 1.4l-.3.6c-.1.2-.2.4-.3.5-.2.3-.4.7-.6.9-.2.2-.4.5-.6.6l-.5.5s.1-.2.3-.7c.1-.2.2-.4.4-.7.1-.3.2-.6.4-1 .1-.2.1-.4.2-.5.1-.2.1-.4.2-.6.1-.4.2-.8.3-1.3 0-.2.1-.5.1-.7v-.7c.1-.5 0-1 0-1.5s-.1-1-.1-1.5c-.1-.5-.1-1-.2-1.4-.1-.5-.2-.9-.3-1.3l-.3-1.2c-.5-1.3-.9-2.2-.9-2.2m-1.2 22.2s.7.6 1.5 1.8c.4.6.7 1.3 1 2.2.1.4.3.9.4 1.3.1.5.2.9.2 1.4 0 .5 0 1-.1 1.4 0 .5-.2.9-.3 1.4-.1.4-.3.8-.5 1.2-.1.2-.2.4-.3.5-.1.2-.2.3-.3.5-.2.3-.4.6-.6.8l-.5.5c-.3.3-.5.4-.5.4l.3-.6.3-.6c.1-.2.2-.5.4-.8.1-.3.3-.6.4-1 .1-.4.2-.7.3-1.1.1-.4.2-.8.2-1.2.1-.4 0-.9 0-1.3s-.1-.9-.1-1.3c-.1-.4-.1-.8-.2-1.2l-.3-1.2c-.1-.4-.2-.7-.3-1-.6-1.3-1-2.1-1-2.1"/>
  <path fill="#00A78E" d="M62.6 120.3s.7.6 1.5 1.8c.4.6.7 1.3 1 2.2.1.4.3.9.4 1.3.1.5.2.9.2 1.4 0 .5 0 1-.1 1.4 0 .5-.2.9-.3 1.4-.1.4-.3.8-.5 1.2-.1.2-.2.4-.3.5-.1.2-.2.3-.3.5-.2.3-.4.6-.6.8l-.5.5c-.3.3-.5.4-.5.4l.3-.6.3-.6c.1-.2.2-.5.4-.8.1-.3.3-.6.4-1 .1-.4.2-.7.3-1.1.1-.4.2-.8.2-1.2.1-.4 0-.9 0-1.3s-.1-.9-.1-1.3c-.1-.4-.1-.8-.2-1.2l-.3-1.2c-.1-.4-.2-.7-.3-1-.6-1.3-1-2.1-1-2.1m-3.5 23.8s.6.3 1.3 1.1c.3.4.7.9 1 1.5.2.3.3.6.4 1 .1.4.2.7.2 1.1v.6l-.1.5c0 .4-.2.7-.3 1-.1.3-.3.6-.5.8-.2.3-.4.4-.6.6-.4.4-.8.6-1 .8-.3.2-.4.2-.4.2s.1-.1.3-.4c.1-.1.2-.2.3-.4.1-.1.2-.3.4-.5.1-.2.3-.4.4-.7.1-.3.3-.5.3-.8.1-.3.2-.6.2-.9l.1-.4v-.5c0-.3-.1-.6-.1-.9-.1-.3-.1-.6-.3-.9-.1-.3-.2-.5-.3-.8-.1-.3-.3-.5-.4-.7-.5-.8-.9-1.3-.9-1.3"/>
</svg>