<svg xmlns="http://www.w3.org/2000/svg" width="199.5" height="690.9" viewBox="0 0 199.5 690.9"><path fill="#FFF" d="M167.5 133.4s2.3-20.5 8.6-14.7c5.2 4.7 7.7 26.6 4.5 41.9-1.4 6.8-9.5 14.5-12.9 11.2-3.3-3.4-.2-38.4-.2-38.4"/><path fill="none" stroke="#00A78E" stroke-width="2.44" stroke-miterlimit="10" d="M167.5 133.4s2.3-20.5 8.6-14.7c5.2 4.7 7.7 26.6 4.5 41.9-1.4 6.8-9.5 14.5-12.9 11.2-3.3-3.4-.2-38.4-.2-38.4"/><path fill="#FFF" stroke="#00A78E" stroke-width="2.44" stroke-miterlimit="10" d="M31 129.9s-3-20.4-9.7-14.5c-7.1 6.2-6.4 32.4-4 42 1.7 6.8 10.7 14.2 14.3 10.8 3.7-3.4-.6-38.3-.6-38.3"/><path fill="#FFF" d="M27.8 101c.1 7.2-4.6 64.8 15.4 90.1 11.4 14.4 27.4 28.2 36.7 30.4 15.1 3.5 24.9 6.2 38.3 3.3 13.3-2.9 32.9-16.8 45-43.7 5.8-12.8 21.4-113.3-7.5-141.7-19-18.6-60.5-16.3-76.7-15.6-16.1.8-51.9 6.5-51.2 77.2m64.6 589.6s-2.6-19.7-42.9-17.9c-40.3 1.7-43.4 14.8-44.9 18.2m191-.3s-2.6-19.7-42.9-17.9c-40.3 1.7-43.4 14.8-44.9 18.2"/><path fill="#FFF" d="M48.8 690.7l-7.6-217.2h113.1l-2.5 217.2h-46.2v-176c0-4.6-1.7-8.4-6.8-8.4-5.2 0-6.8 3.8-6.8 8.4v176H48.8z"/><path fill="#00A78E" d="M24.8 113.7S11.5 79.2 14.2 65.5c2.7-13.8 9.5-26.2 33.8-48.2C63.9 2.8 91.9.3 95.1 3.9c4.7 5.4 12.9 7.8 18.9.9 5.9-6.9 26.9-2.5 24.2 3.1 11.2-6.5 19 5.5 19 5.5s42.1 5.4 19.1 114.4c-2 9.6-4.4 20.5-4.4 20.5-8.5.5-.9-12.7.4-52.9 1.8-55.4-49.6-43.3-68.7-45.4-23.1-2.6-61.7-5.6-68.6 24.1-6.9 29.7-3.8 69.7-3.8 69.7l-6.4 6.5v-36.6z"/><path fill="none" stroke="#FFF" stroke-width="2.44" stroke-miterlimit="10" d="M24.8 113.7S11.5 79.2 14.2 65.5c2.7-13.8 9.5-26.2 33.8-48.2C63.9 2.8 91.9.3 95.1 3.9c4.7 5.4 12.9 7.8 18.9.9 5.9-6.9 26.9-2.5 24.2 3.1 11.2-6.5 19 5.5 19 5.5s42.1 5.4 19.1 114.4c-2 9.6-4.4 20.5-4.4 20.5-8.5.5-.9-12.7.4-52.9 1.8-55.4-49.6-43.3-68.7-45.4-23.1-2.6-61.7-5.6-68.6 24.1-6.9 29.7-3.8 69.7-3.8 69.7l-6.4 6.5v-36.6z"/><path fill="#FFF" d="M85.2 226.4s.6 19.5-8.7 24.9c-8.3 4.8-12 5.9-12 5.9s40.5 16.2 72.9 3.1c-17.4-4.7-16.3-10.8-16.3-10.8l-3.1-20.2-32.8-2.9z"/><path fill="none" stroke="#00A78E" stroke-width="2.93" stroke-miterlimit="10" d="M85.2 226.4s.6 19.5-8.7 24.9c-8.3 4.8-12 5.9-12 5.9s40.5 16.2 72.9 3.1c-17.4-4.7-16.3-10.8-16.3-10.8l-3.1-20.2-32.8-2.9z"/><path fill="#FFF" d="M198.7 343.7l-40.6 9.4-4.5-19.2 4.7 47c.6 8 .9 33.9-.9 57.3l-4 31.2H42.6l-4.1-36.6c-1.2-19.3.1-48.1.8-55.5l6.4-43.8-5.4 18-38.9-9.2s4.1-14.2 18.1-44.4c14-30.2 44.9-40.7 44.9-40.7l37.3 6 35.6-2.9s33 8.3 47 38.5c13.9 30.2 13.9 44.6 13.9 44.6"/><path fill="none" stroke="#00A78E" stroke-width="2.44" stroke-miterlimit="10" d="M198.7 343.7l-40.6 9.4-4.5-19.2 4.7 47c.6 8 .9 33.9-.9 57.3l-4 31.2H42.6l-4.1-36.6c-1.2-19.3.1-48.1.8-55.5l6.4-43.8-5.4 18-38.9-9.2s4.1-14.2 18.1-44.4c14-30.2 44.9-40.7 44.9-40.7l37.3 6 35.6-2.9s33 8.3 47 38.5c13.9 30.2 13.9 44.6 13.9 44.6"/></svg>