<svg xmlns="http://www.w3.org/2000/svg" width="205.9" height="691.4" viewBox="0 0 205.9 691.4">
  <path fill="#FFF" d="M168.7 133.6s2.3-20.5 8.6-14.8c5.2 4.7 7.7 26.6 4.6 41.9-1.4 6.8-9.6 14.5-13 11.2-3.4-3.3-.2-38.3-.2-38.3"/>
  <path fill="none" stroke="#00A78E" stroke-width="2.562" stroke-miterlimit="10" d="M168.7 133.6s2.3-20.5 8.6-14.8c5.2 4.7 7.7 26.6 4.6 41.9-1.4 6.8-9.6 14.5-13 11.2-3.4-3.3-.2-38.3-.2-38.3"/>
  <path fill="#FFF" stroke="#00A78E" stroke-width="2.562" stroke-miterlimit="10" d="M32 130.1s-3-20.4-9.7-14.5c-7.1 6.2-6.4 32.4-4 42.1C20 164.5 29 172 32.7 168.5c3.6-3.5-.7-38.4-.7-38.4"/>
  <path fill="#FFF" d="M28.8 101.2c.1 7.2-4.7 64.9 15.5 90.1 11.4 14.4 27.5 28.2 36.7 30.4 15.1 3.5 25 6.2 38.3 3.4 13.3-2.9 33-16.9 45.1-43.7 5.8-12.8 21.4-113.4-7.6-141.8C137.8 21 96.2 23.3 80 24c-16 .7-51.9 6.4-51.2 77.2m21 590.2L42.2 474h113.2l-2.5 217.4h-46.3V515.3c0-4.6-1.7-8.4-6.8-8.4-5.2 0-6.8 3.8-6.8 8.4v176.2H49.8z"/>
  <path fill="#00A78E" d="M25.8 113.9S12.5 79.4 15.2 65.6c2.7-13.8 9.5-26.2 33.8-48.3C64.9 2.9 93 .4 96.1 3.9c4.7 5.4 12.9 7.8 18.9.9 5.9-6.9 26.9-2.5 24.2 3.1 11.2-6.5 19 5.5 19 5.5s42.2 5.4 19.1 114.5c-2 9.6-4.4 20.5-4.4 20.5-8.5.5-.9-12.7.4-52.9 1.8-55.5-49.7-43.3-68.7-45.5-23-2.5-61.7-5.5-68.6 24.2-7 29.7-3.8 69.8-3.8 69.8l-6.4 6.5v-36.6z"/>
  <path fill="none" stroke="#FFF" stroke-width="2.562" stroke-miterlimit="10" d="M25.8 113.9S12.5 79.4 15.2 65.6c2.7-13.8 9.5-26.2 33.8-48.3C64.9 2.9 93 .4 96.1 3.9c4.7 5.4 12.9 7.8 18.9.9 5.9-6.9 26.9-2.5 24.2 3.1 11.2-6.5 19 5.5 19 5.5s42.2 5.4 19.1 114.5c-2 9.6-4.4 20.5-4.4 20.5-8.5.5-.9-12.7.4-52.9 1.8-55.5-49.7-43.3-68.7-45.5-23-2.5-61.7-5.5-68.6 24.2-7 29.7-3.8 69.8-3.8 69.8l-6.4 6.5v-36.6z"/>
  <path fill="#FFF" d="M86.2 226.6s.6 19.6-8.7 25c-8.3 4.8-12 5.9-12 5.9s40.6 16.2 73 3.1c-17.5-4.7-16.3-10.8-16.3-10.8l-3.1-20.3-32.9-2.9z"/>
  <path fill="none" stroke="#00A78E" stroke-width="3.076" stroke-miterlimit="10" d="M86.2 226.6s.6 19.6-8.7 25c-8.3 4.8-12 5.9-12 5.9s40.6 16.2 73 3.1c-17.5-4.7-16.3-10.8-16.3-10.8l-3.1-20.3-32.9-2.9z"/>
  <path fill="#FFF" d="M199.9 344.1l-40.6 9.4-4.5-19.2 4.7 47c.6 8 .9 33.9-.9 57.4l-4 31.2h-111l-4.1-36.7c-1.2-19.3.1-48.1.8-55.5l6.4-43.8-5.4 18.1-38.9-9.2s4.1-14.2 18.1-44.4c14-30.2 44.9-40.8 44.9-40.8l37.4 6 35.6-2.9s33 8.3 47 38.5c13.9 30.2 13.9 44.7 13.9 44.7"/>
  <path fill="none" stroke="#00A78E" stroke-width="2.562" stroke-miterlimit="10" d="M199.9 344.1l-40.6 9.4-4.5-19.2 4.7 47c.6 8 .9 33.9-.9 57.4l-4 31.2h-111l-4.1-36.7c-1.2-19.3.1-48.1.8-55.5l6.4-43.8-5.4 18.1-38.9-9.2s4.1-14.2 18.1-44.4c14-30.2 44.9-40.8 44.9-40.8l37.4 6 35.6-2.9s33 8.3 47 38.5c13.9 30.2 13.9 44.7 13.9 44.7"/>
  <path fill="#FFF" d="M35.8 490.1c1.5 3.4 2 6.6-2.1 6.5l-1.2-1.6-7-9.6-2 2.7c-1.2 1.6-1.4 3.5-.7 5.2.6 1.4 1.2 2.9 1.6 4 .3.8.9 1.5 1.8 2l4.8 3.3c1.2.8.7 1.8.3 2.8l-.7.6c-1 .9-2.8 1.1-4 .2l-5.4-3.8c-.5-.1-1-.4-1.3-.8L11.6 489c-.5-.7-1.3-4.3-1.2-5.1l3.6-13.7c.1-.4.3-3.2.2-3.7L1.3 408.4v-10.3s1.5-51.4 4.7-50.7l31.3 6.9c2.4.5-5.1 27.2-5.1 27.2-3.4 13-4.6 17.4-5.5 25.1l3.5 62.9c0 .3 0 .6.1.9l5.5 19.7z"/>
  <path fill="none" stroke="#00A78E" stroke-width="2.562" stroke-miterlimit="10" d="M35.8 490.1c1.5 3.4 2 6.6-2.1 6.5l-1.2-1.6-7-9.6-2 2.7c-1.2 1.6-1.4 3.5-.7 5.2.6 1.4 1.2 2.9 1.6 4 .3.8.9 1.5 1.8 2l4.8 3.3c1.2.8.7 1.8.3 2.8l-.7.6c-1 .9-2.8 1.1-4 .2l-5.4-3.8c-.5-.1-1-.4-1.3-.8L11.6 489c-.5-.7-1.3-4.3-1.2-5.1l3.6-13.7c.1-.4.3-3.2.2-3.7L1.3 408.4v-10.3s1.5-51.4 4.7-50.7l31.3 6.9c2.4.5-5.1 27.2-5.1 27.2-3.4 13-4.6 17.4-5.5 25.1l3.5 62.9c0 .3 0 .6.1.9l5.5 19.7z"/>
  <path fill="#FFF" d="M173.3 508.7c-1.2 0-2.3-.4-3.1-1.2l-.9-.9-.2-.6c-.3-.9-.9-2.7 1-4l5-3.3c.7-.4 1.1-.8 1.4-1.4l1.7-4c.6-1.3.4-2.8-.5-4l-.9-1.3-7.8 10.1h-.6c-1.9 0-3.2-.6-3.9-1.7-.9-1.5-.7-3.6.8-6.6l6-19.5c.1-.2.1-.4.1-.6l5.1-62.7c-.5-3.5-1.5-8.2-3.1-14.1-.1-.2-.1-.4-.1-.6-4.1-13.2-10.7-35.7-9.1-38.4.2-.4.6-.7 1-.8l31.6-6.2h.2c1.5 0 3.1 0 5.7 26.6 1.2 12.6 2.1 25.4 2.1 25.5v.1l-.3 10.4-14.7 58.1c0 .3.1 2.6.1 3.1l3.2 13.8v.1c.2 1.2-.9 5-1.5 6L183 503c-.4.6-1 1-1.8 1.2l-5.3 3.5c-.8.8-1.7 1-2.6 1"/>
  <path fill="#00A78E" d="M196.9 348.4c3.2 0 6.5 50.9 6.5 50.9l-.3 10.3-14.6 57.9c-.1.4.1 3.2.1 3.7l3.2 13.8c.1.8-.8 4.4-1.3 5.1l-8.6 12.4c-.3.4-.8.7-1.3.8l-5.4 3.7c-.5.4-1.2.5-1.8.5-.8 0-1.6-.3-2.2-.8l-.7-.7c-.3-1-.8-2 .4-2.8l4.9-3.2c.9-.5 1.5-1.1 1.8-1.9.5-1.1 1.1-2.6 1.7-4 .8-1.7.5-3.6-.6-5.2l-1.9-2.7-7.2 9.4-1.2 1.6h-.1c-4.1 0-3.5-3.2-1.9-6.5l6-19.6c.1-.3.1-.6.2-.9l5.2-62.8c-.9-6.3-3.3-14.8-3.3-15 0 0-11.5-37-9.1-37.5l31.5-6.5c-.1 0-.1 0 0 0m0-2.5c-.2 0-.4 0-.6.1l-31.5 6.2c-.8.2-1.5.6-1.9 1.4-.7 1.2-1.5 2.6 3.8 21.7 2.4 8.5 4.9 16.8 5.2 17.7 0 .1.1.3.2.6 1.5 5.8 2.6 10.4 3.1 13.8l-5.1 62.5v.3l-5.9 19.5c-1 2.2-2.2 5.3-.6 7.7.7 1 2 2.3 4.9 2.3h1.3l.8-1 1.2-1.6 5.1-6.7c.5.8.6 1.8.2 2.6-.6 1.4-1.3 2.9-1.7 4-.1.3-.4.5-.7.7h-.1l-.1.1-4.9 3.2c-2.6 1.8-1.8 4.5-1.5 5.4l.1.2.2.6.5.5.7.7c1 1 2.5 1.5 4 1.5 1.2 0 2.3-.3 3.2-.9l5.1-3.5c1-.3 1.8-.9 2.3-1.7l8.6-12.4c.8-1.2 2-5.3 1.7-6.9v-.2l-3.2-13.6c0-.5-.1-2.2-.1-2.8l14.6-57.8.1-.3v-.3l.3-10.3v-.2c0-.1-.8-12.9-2.1-25.5-.7-7.4-1.4-13.4-2.1-17.6-1.4-7.1-2.3-10-5.1-10"/>
  <path fill="#FFF" d="M90.5 691.2s-2.4-18.3-39.9-16.7c-37.5 1.6-40.4 13.7-41.8 17m180.5-.3s-2.4-18.3-39.9-16.7c-37.5 1.6-40.4 13.7-41.8 17"/>
</svg>