<svg xmlns="http://www.w3.org/2000/svg" width="316.1" height="245.2" viewBox="0 0 316.1 245.2"><path fill="#FFF" stroke="#00A78E" stroke-width="8.191" stroke-miterlimit="10" d="M60.1 146.6c15.9 0 34.7 10.6 37.5 26.2 2.8 15.6-11.7 31.8-26.2 37.5-18.1 7.1-34.5-9.4-37.5-26.2-3-16.7 6.3-38.3 26.2-37.5"/><path fill="#00A78E" d="M68.2 192.4c7.6-1.9 12.7-9.3 11.5-16.4-1.3-7.2-8.6-12.3-16.4-11.5-7.8.8-12.9 8.2-11.5 16.4 1.5 8.3 8.8 13.4 16.4 11.5"/><path fill="#61DEC7" d="M66.6 183.2c2.6-.5 4.4-3 3.9-5.6-.5-2.6-3-4.3-5.6-3.9-2.6.4-4.4 2.9-3.9 5.6.5 2.7 3 4.5 5.6 3.9"/><path fill="#FFF" stroke="#00A78E" stroke-width="2" stroke-linecap="round" stroke-linejoin="round" stroke-miterlimit="10" d="M93.7 1v185.9l-8 1.4V204L1 184.9v-10.1l10.7-2.4V25.7z"/><path fill="#FFF" stroke="#00A78E" stroke-width="1.136" stroke-linecap="round" stroke-linejoin="round" stroke-miterlimit="10" d="M276.9 59.8v108l33.8-5.8v-59.9z"/><path fill="#00A78E" d="M278.9 74.5v33.3c0 .6.5 1.1 1.1 1.1l25.1-1.1c1 .1 1.6-1 1-1.8L281 73.8c-.7-.8-2.1-.4-2.1.7zm23.2 47.9l11.9-1.1c1.2 0 2.2-1 2.2-2.2v-4.5c0-1.2-1-2.2-2.2-2.2l-11.9.6c-1.2 0-2.2 1-2.2 2.2v5.1c0 1.1 1 2.1 2.2 2.1zm-5.6 34.5l9.8.7c.8.1 1.5-.6 1.5-1.3l.2-3.4c.1-.8-.6-1.5-1.3-1.5l-9.8-.7c-.8-.1-1.5.6-1.5 1.3l-.2 3.4c-.1.7.5 1.4 1.3 1.5zm-20.1-42.3l9.3.2c.3 0 .5-.2.5-.5V113c0-.3-.2-.5-.5-.5l-9.3-.2c-.3 0-.5.2-.5.5v1.3c.1.3.3.5.5.5z"/><path fill="#FFF" stroke="#00A78E" stroke-width="2" stroke-linecap="round" stroke-linejoin="round" stroke-miterlimit="10" d="M93.7 1l184.6 50.1v107.7l6.3.7V170L85.7 204v-15.7l8-1.4z"/><path fill="#00A78E" d="M156.3 117.5c10.3.1 15.4.1 25.7.2-.6 10.8-1 16.2-1.6 27-.2 3.2 2.1 5.5 5.2 5.1 6.1-.7 9.2-1.1 15.3-1.8 3.1-.4 5.7-3 5.9-5.9.6-9.7.9-14.5 1.5-24.2 10.3.1 15.4.1 25.7.2 3 0 5.6-2 5.8-4.5.3-5 .4-7.5.7-12.4.1-2.5-2.2-4.8-5.2-5.1-10.2-1.2-15.3-1.7-25.5-2.9.6-9.7.9-14.5 1.5-24.2.2-2.9-2.1-5.8-5.1-6.5-6-1.5-9-2.2-15-3.6-3-.7-5.6 1.3-5.8 4.5-.6 10.8-1 16.2-1.6 27-10.2-1.2-15.3-1.7-25.5-2.9-3-.3-5.6 2.3-5.9 5.9-.4 7.2-.6 10.7-1.1 17.9-.4 3.3 1.9 6.2 5 6.2z"/><path fill="#FFF" stroke="#00A78E" stroke-width="4.795" stroke-miterlimit="10" d="M282 152.4c9.4.1 20.3 6 22 15.3 1.7 9.3-6.6 18.7-15.3 22-10.8 4-20.1-5.1-22-15.3-1.9-10.3 3.6-21.9 15.3-22"/><path fill="#00A78E" d="M286.7 179.2c4.5-1.1 7.5-5.4 6.7-9.6-.7-4.2-5.1-7.2-9.6-6.7-4.6.5-7.6 4.8-6.7 9.6.9 4.8 5.2 7.9 9.6 6.7"/><path fill="#61DEC7" d="M285.8 173.8c1.5-.3 2.5-1.8 2.3-3.3-.3-1.5-1.7-2.5-3.3-2.3-1.5.2-2.6 1.7-2.3 3.3.3 1.6 1.8 2.7 3.3 2.3"/><path fill="#FFF" stroke="#00A78E" stroke-width="8.191" stroke-miterlimit="10" d="M145.1 164.6c15.9 0 34.7 10.6 37.5 26.2 2.8 15.6-11.7 31.8-26.2 37.5-18.1 7.1-34.5-9.4-37.5-26.2-3-16.7 6.3-38.3 26.2-37.5"/><path fill="#00A78E" d="M153.2 210.4c7.6-1.9 12.7-9.3 11.5-16.4-1.3-7.2-8.6-12.3-16.4-11.5-7.8.8-12.9 8.2-11.5 16.4 1.5 8.3 8.8 13.4 16.4 11.5"/><path fill="#61DEC7" d="M151.6 201.2c2.6-.5 4.4-3 3.9-5.6-.5-2.6-3-4.3-5.6-3.9-2.6.4-4.4 2.9-3.9 5.6.5 2.7 3 4.5 5.6 3.9"/><path fill="#00A78E" d="M93.2 184.9l18.3-1.8c1.9 0 3.4-1.5 3.4-3.4v-7c0-1.9-1.5-3.4-3.4-3.4l-18.3.9c-1.9 0-3.4 1.5-3.4 3.4v7.9c.1 1.8 1.6 3.4 3.4 3.4z"/><path fill="#FFF" stroke="#00A78E" stroke-width="2" stroke-miterlimit="10" d="M85.9 177.1l-68.5-9.3V31l30.3-8.1 38.2-10.2zM50 172.4V22.7"/><path fill="#00A78E" d="M92.6 184.9l-18.3-1.8c-1.9 0-3.4-1.5-3.4-3.4v-7c0-1.9 1.5-3.4 3.4-3.4l18.3.9c1.9 0 3.4 1.5 3.4 3.4v7.9c0 1.8-1.5 3.4-3.4 3.4zM9 159.2l7.5 1.3c1.8.2 3.2 1.8 3 3.7l-.7 7c-.2 1.8-1.8 3.2-3.7 3l-7.6-.4c-1.8-.2-3.2-1.8-3-3.7l.8-7.8c.2-2 1.9-3.3 3.7-3.1z"/></svg>