<svg xmlns="http://www.w3.org/2000/svg" width="531.5" height="307.6" viewBox="0 0 531.5 307.6"><path fill="#FFF" d="M387.2 35.4l112.6 104v5.6H382.2M14.3 25.7h377.5v234.4H14.3z"/><path fill="#FFF" d="M499.8 260H356.2c-6.6 0-12-5.4-12-12v-96.7c0-6.6 5.4-12 12-12h143.7c6.6 0 12 5.4 12 12V248c-.1 6.6-5.5 12-12.1 12z"/><path fill="#00A78E" d="M400.9 59.6l75.6 70.4c3.6 3.3 1.2 9.3-3.7 9.3h-75.6c-3 0-5.4-2.4-5.4-5.4V63.6c0-4.7 5.6-7.2 9.1-4zm100.8 113.8h26c2.1 0 3.8-1.7 3.8-3.8v-9c0-2.1-1.7-3.8-3.8-3.8h-26c-2.1 0-3.8 1.7-3.8 3.8v9c-.1 2 1.7 3.8 3.8 3.8zM474.3 234h26c2.1 0 3.8-1.7 3.8-3.8v-9c0-2.1-1.7-3.8-3.8-3.8h-26c-2.1 0-3.8 1.7-3.8 3.8v9c0 2.1 1.7 3.8 3.8 3.8zm-451.5 0h26c2.1 0 3.8-1.7 3.8-3.8v-9c0-2.1-1.7-3.8-3.8-3.8h-26c-2.1 0-3.8 1.7-3.8 3.8v9c0 2.1 1.7 3.8 3.8 3.8zm370.3-83.1h24.8c.7 0 1.2-.6 1.2-1.2v-3.4c0-.7-.6-1.2-1.2-1.2h-24.8c-.7 0-1.2.6-1.2 1.2v3.4c-.1.7.5 1.2 1.2 1.2z"/><path fill="#FFF" d="M520.3 240h-20.4c-2.3 0-4.1 1.8-4.1 4.1v11.8c0 2.3 1.8 4.1 4.1 4.1h20.4c2.3 0 4.1-1.8 4.1-4.1v-11.8c0-2.2-1.8-4.1-4.1-4.1zm-495.8 0H4.1c-2.3 0-4.1 1.8-4.1 4.1v11.8c0 2.3 1.8 4.1 4.1 4.1h20.4c2.3 0 4.1-1.8 4.1-4.1v-11.8c0-2.2-1.8-4.1-4.1-4.1zM335.7 0h25.7v25.7h-25.7z"/><path fill="#00A78E" d="M280.3 121.6h-41.9V79.7c0-5-4-9-9-9h-24.8c-5 0-9 4-9 9v41.9h-41.9c-5 0-9 4-9 9v24.8c0 5 4 9 9 9h41.9v41.9c0 5 4 9 9 9h24.8c5 0 9-4 9-9v-41.9h41.9c5 0 9-4 9-9v-24.8c0-5-4-9-9-9z"/><path fill="#FFF" stroke="#00A78E" stroke-width="11" stroke-miterlimit="10" d="M108.5 215.2c-24 0-43.4 19.5-43.4 43.5s19.5 43.4 43.4 43.4c24 0 43.5-19.4 43.5-43.4-.1-24.1-19.5-43.5-43.5-43.5"/><path fill="#00A78E" d="M108.5 277.7c-10.5 0-19-8.5-19-19s8.5-19 19-19 19 8.5 19 19c0 10.4-8.5 19-19 19"/><path fill="#61DEC7" d="M108.5 265.1c-3.6 0-6.5-2.9-6.5-6.5s2.9-6.5 6.5-6.5 6.5 2.9 6.5 6.5c-.1 3.6-3 6.5-6.5 6.5"/><path fill="#FFF" stroke="#00A78E" stroke-width="11" stroke-miterlimit="10" d="M410.8 215.2c-24 0-43.4 19.5-43.4 43.5s19.5 43.4 43.4 43.4c24 0 43.5-19.4 43.5-43.4 0-24.1-19.5-43.5-43.5-43.5"/><path fill="#00A78E" d="M410.8 277.7c-10.5 0-19-8.5-19-19s8.5-19 19-19 19 8.5 19 19c.1 10.4-8.4 19-19 19"/><path fill="#61DEC7" d="M410.8 265.1c-3.6 0-6.5-2.9-6.5-6.5s2.9-6.5 6.5-6.5 6.5 2.9 6.5 6.5-2.9 6.5-6.5 6.5"/></svg>