<svg xmlns="http://www.w3.org/2000/svg" width="115.8" height="394.2" viewBox="0 0 115.8 394.2">
  <path fill="#FFF" stroke="#00A78E" stroke-width=".886" stroke-miterlimit="10" d="M.4 13.2h114.9v380.6H.4z"/>
  <path fill="#32CFB6" d="M22.6 95.3h68.5v3.1H22.6zm0 9.3h68.5v3.1H22.6zm0 9.3h50.5v3.1H22.6zm0 9.4h66.9v3.1H22.6zm0 9.3h66.9v3.1H22.6zm0 9.3h60.1v3.1H22.6zm0 9.3h74.7v3.1H22.6zm-.002 9.33l42.4-.06.004 3.1-42.4.06zm.002 8.77h68.5v3.1H22.6zm0 9.3h68.5v3.1H22.6zm0 9.3h50.5v3.1H22.6zm0 9.4h66.9v3.1H22.6zm0 9.3h66.9v3.1H22.6zm0 9.3h60.1v3.1H22.6zm0 9.3h74.7v3.1H22.6zm-.002 9.33l42.4-.06.004 3.1-42.4.06zm.002 9.77h68.5v3.1H22.6zm0 9.3h68.5v3.1H22.6zm0 9.3h50.5v3.1H22.6zm0 9.3h66.9v3.1H22.6zm0 9.3h66.9v3.1H22.6zm0 9.3h60.1v3.1H22.6zm0 9.3h74.7v3.1H22.6zm0 18.9h66.9v3.1H22.6zm-.002-9.57l42.4-.06.004 3.1-42.4.06z"/>
  <path fill="#00A78E" d="M20 365.1c.8.6 1.7 1.3 2.9 1.9 1.1.6 2.5 1 4.1 1 .6 0 1.2-.1 1.7-.2.6-.1 1.1-.3 1.5-.6.4-.3.8-.7 1-1.2.3-.5.4-1.1.4-1.8s-.1-1.3-.4-1.8c-.3-.5-.6-1-1-1.3-.4-.4-1-.7-1.6-1-.6-.3-1.3-.5-2-.7-1.1-.3-2.1-.7-3.1-1.1-1-.4-1.8-1-2.6-1.6-.8-.7-1.4-1.5-1.8-2.4-.4-.9-.7-2.1-.7-3.4 0-2.1.6-3.8 1.8-5.2 1.2-1.3 2.7-2.3 4.6-2.8v-4.4h2.7v4h1.8v-4H32v4.4c.9.2 1.7.5 2.3.8.6.3 1.1.5 1.4.7.8.5 1.2 1.2 1.2 2 0 .4-.1.8-.4 1.5-.3.6-.7 1.2-1.2 1.8-.7-.6-1.6-1.1-2.7-1.7-1.1-.5-2.3-.8-3.6-.8-.5 0-1 0-1.6.1-.5.1-1 .3-1.5.5-.4.2-.8.6-1.1 1-.3.4-.4 1-.4 1.6 0 .6.1 1.1.3 1.5.2.4.5.8 1 1.1.4.3 1 .6 1.6.9.7.3 1.5.5 2.4.8 1.1.4 2.1.8 3 1.2.9.5 1.8 1.1 2.5 1.7.7.7 1.3 1.5 1.7 2.4.4.9.6 2 .6 3.2 0 2.1-.5 3.9-1.5 5.4-1 1.5-2.3 2.5-4 3.2v4.8h-2.7v-4.1c-.3.1-.6.1-1 .1-.3 0-.6.1-1 .1v3.9h-2.7v-4c-1.4-.1-2.6-.4-3.5-.7-.9-.3-1.6-.7-2-1-.3-.2-.6-.5-.8-.8-.2-.3-.3-.7-.3-1.1 0-.5.2-1.1.6-1.8.5-.8.9-1.5 1.4-2.1zm60.7 0c.8.6 1.7 1.3 2.9 1.9 1.1.6 2.5 1 4.1 1 .6 0 1.2-.1 1.7-.2.6-.1 1.1-.3 1.5-.6.4-.3.8-.7 1-1.2.3-.5.4-1.1.4-1.8s-.1-1.3-.4-1.8c-.3-.5-.6-1-1-1.3-.4-.4-1-.7-1.6-1-.6-.3-1.3-.5-2-.7-1.1-.3-2.1-.7-3.1-1.1-1-.4-1.8-1-2.6-1.6-.8-.7-1.4-1.5-1.8-2.4-.4-.9-.7-2.1-.7-3.4 0-2.1.6-3.8 1.8-5.2 1.2-1.3 2.7-2.3 4.6-2.8v-4.4h2.7v4H90v-4h2.7v4.4c.9.2 1.7.5 2.3.8.6.3 1.1.5 1.4.7.8.5 1.2 1.2 1.2 2 0 .4-.1.8-.4 1.5-.3.6-.7 1.2-1.2 1.8-.7-.6-1.6-1.1-2.7-1.7-1.1-.5-2.3-.8-3.6-.8-.5 0-1 0-1.6.1-.5.1-1 .3-1.5.5-.4.2-.8.6-1.1 1-.3.4-.4 1-.4 1.6 0 .6.1 1.1.3 1.5.2.4.5.8 1 1.1.4.3 1 .6 1.6.9s1.5.5 2.4.8c1.1.4 2.1.8 3 1.2.9.5 1.8 1.1 2.5 1.7.7.7 1.3 1.5 1.7 2.4.4.9.6 2 .6 3.2 0 2.1-.5 3.9-1.5 5.4-1 1.5-2.3 2.5-4 3.2v4.8H90v-4.1c-.3.1-.6.1-1 .1-.3 0-.6.1-1 .1v3.9h-2.7v-4c-1.4-.1-2.6-.4-3.5-.7-.9-.3-1.6-.7-2-1-.3-.2-.6-.5-.8-.8-.2-.3-.3-.7-.3-1.1 0-.5.2-1.1.6-1.8.5-.8.9-1.5 1.4-2.1zm-30.4 0c.8.6 1.7 1.3 2.9 1.9 1.1.6 2.5 1 4.1 1 .6 0 1.2-.1 1.7-.2.6-.1 1.1-.3 1.5-.6.4-.3.8-.7 1-1.2.3-.5.4-1.1.4-1.8s-.1-1.3-.4-1.8c-.3-.5-.6-1-1-1.3-.4-.4-1-.7-1.6-1-.6-.3-1.3-.5-2-.7-1.1-.3-2.1-.7-3.1-1.1-1-.4-1.8-1-2.6-1.6-.8-.7-1.4-1.5-1.8-2.4-.4-.9-.7-2.1-.7-3.4 0-2.1.6-3.8 1.8-5.2 1.2-1.3 2.7-2.3 4.6-2.8v-4.4h2.7v4h1.8v-4h2.7v4.4c.9.2 1.7.5 2.3.8.6.3 1.1.5 1.4.7.8.5 1.2 1.2 1.2 2 0 .4-.1.8-.4 1.5-.3.6-.7 1.2-1.2 1.8-.7-.6-1.6-1.1-2.7-1.7-1.1-.5-2.3-.8-3.6-.8-.5 0-1 0-1.6.1-.5.1-1 .3-1.5.5-.4.2-.8.6-1.1 1-.3.4-.4 1-.4 1.6 0 .6.1 1.1.3 1.5.2.4.5.8 1 1.1.4.3 1 .6 1.6.9s1.5.5 2.4.8c1.1.4 2.1.8 3 1.2.9.5 1.8 1.1 2.5 1.7.7.7 1.3 1.5 1.7 2.4.4.9.6 2 .6 3.2 0 2.1-.5 3.9-1.5 5.4-1 1.5-2.3 2.5-4 3.2v4.8h-2.7v-4.1c-.3.1-.6.1-1 .1-.3 0-.6.1-1 .1v3.9h-2.7v-4c-1.4-.1-2.6-.4-3.5-.7-.9-.3-1.6-.7-2-1-.3-.2-.6-.5-.8-.8-.2-.3-.3-.7-.3-1.1 0-.5.2-1.1.6-1.8.6-.8 1-1.5 1.4-2.1z"/>
  <path fill="#D20962" d="M84.8 76.9c0 4.7-3.8 8.5-8.5 8.5H36.5c-4.7 0-8.5-3.8-8.5-8.5V37c0-4.7 3.8-8.5 8.5-8.5h39.8c4.7 0 8.5 3.8 8.5 8.5v39.9z"/>
  <path fill="#FFF" d="M75.4 53.9c0-1.4-1.1-2.5-2.5-2.5H62.5c-.1 0-.1-.1-.1-.1V41c0-1.4-1.1-2.5-2.5-2.5h-6.2c-1.4 0-2.5 1.1-2.5 2.5v10.3c0 .1-.1.1-.1.1H40.7c-1.4 0-2.5 1.1-2.5 2.5v6.2c0 1.4 1.1 2.5 2.5 2.5H51c.1 0 .1.1.1.1V73c0 1.4 1.1 2.5 2.5 2.5h6.2c1.4 0 2.5-1.1 2.5-2.5V62.8c0-.1.1-.1.1-.1h10.3c1.4 0 2.5-1.1 2.5-2.5v-6.3z"/>
  <g fill="#FFF" stroke="#00A78E" stroke-miterlimit="10">
    <path stroke-width=".71" d="M77.8 39.2h.3c3.7 0 6.8-3.1 6.8-6.8V7.2c0-3.7-3.1-6.8-6.8-6.8h-.3C74.1.4 71 3.5 71 7.2v25.2c.1 3.7 3.1 6.8 6.8 6.8z"/>
    <path stroke-width=".776" d="M62.5 42.1h1.8c3.7 0 6.8-3.1 6.8-6.8V7.2c0-3.7-3.1-6.8-6.8-6.8h-1.8c-3.7 0-6.8 3.1-6.8 6.8v28.2c0 3.7 3.1 6.7 6.8 6.7z"/>
    <path stroke-width=".702" d="M48.7 38.4h.2c3.7 0 6.8-3.1 6.8-6.8V7.2c0-3.7-3.1-6.8-6.8-6.8h-.2c-3.7 0-6.8 3.1-6.8 6.8v24.4c0 3.7 3.1 6.8 6.8 6.8z"/>
    <path stroke-width=".625" d="M35.3 32c3.6 0 6.6-3 6.6-6.6V7c0-3.6-3-6.6-6.6-6.6-3.6 0-6.6 3-6.6 6.6v18.5c.1 3.6 3 6.5 6.6 6.5z"/>
    <path stroke-width=".87" d="M73.1 27.6c0-1.3 1.2-2.3 2.7-2.3h4.5c1.5 0 2.7 1 2.7 2.3v6c0 2-2.2 3.6-4.9 3.6s-4.9-1.6-4.9-3.6v-.9c-.1-1.6-.1-3.3-.1-5.1z"/>
    <path stroke-width=".916" d="M57.9 30.5c0-1.3 1.4-2.3 3-2.3h4.9c1.7 0 3 1 3 2.3v6c0 2-2.4 3.6-5.5 3.6-3 0-5.5-1.6-5.5-3.6v-.9c.1-1.6.1-3.4.1-5.1z"/>
    <path stroke-width=".869" d="M43.7 27.1c0-1.3 1.2-2.3 2.7-2.3h4.4c1.5 0 2.7 1 2.7 2.3v6c0 2-2.2 3.6-4.9 3.6s-4.9-1.6-4.9-3.6v-6z"/>
    <path stroke-width=".815" d="M30.6 21c0-1.2 1.2-2.1 2.6-2.1h4.2c1.4 0 2.6 1 2.6 2.1v5.6c0 1.8-2.1 3.3-4.7 3.3s-4.7-1.5-4.7-3.3V21z"/>
  </g>
</svg>