<svg xmlns="http://www.w3.org/2000/svg" width="30.6" height="138.8" viewBox="0 0 30.6 138.8">
  <path fill="#FFF" d="M9.8 129.6c-.9 1.8-1.2 3.6 1 3.6l.7-.8 3.9-5.1 1 1.5c.6.9.7 1.9.3 2.8-.3.7-.7 1.6-.9 2.1-.2.4-.5.8-1 1l-2.7 1.7c-.6.4-.4 1-.2 1.5l.4.4c.5.5 1.5.6 2.2.2l3-2c.3-.1.5-.2.7-.4l4.7-6.7c.3-.4.8-2.3.7-2.7l-1.7-7.5c0-.2-.1-1.8-.1-2l8-31.3.2-5.6s-2.2-38.8-3.9-38.5L9 45.1c-1.3.3 4.5 25.8 4.5 25.8 1.6 7.1 2.2 9.5 2.6 13.7l-2.9 34c0 .2 0 .3-.1.5l-3.3 10.5z"/>
  <path fill="#FFF" stroke="#00A78E" stroke-width="1.589" stroke-miterlimit="10" d="M10.6.9s11.3 13.3 19 42L8 50.4.8 27.3 4.5 3.1 10.6.9z"/>
</svg>