<svg xmlns="http://www.w3.org/2000/svg" width="107.4" height="376.1" viewBox="0 0 107.4 376.1">
  <path fill="#FFF" d="M44.2 375.8s-.6-5.7-10.7-5.2-10.8 4.3-11.2 5.3m14.7.2l-5-79.7-6.2-61.6c-1.2-13.4-1.1-15.7 0-19.8.5-1.8 1.8-6.3 1.8-6.3l48.8.1s1.3 4.9 1.6 5.8c1.2 3.4 3.2 10.3 1.1 20.7L69.5 297 61 375.6h-7.7l3.4-90.6-1.4-51.4c0-2.7-.4-3.3-2.3-3.3h-1c-1.9 0-2.5 1-2.5 3.7l-2.9 51.6-2.1 90-7.5.5zm16.1-.3s.6-5.7 10.7-5.2 10.8 4.3 11.2 5.3"/>
  <path fill="#FFF" stroke="#00A78E" stroke-width="2.188" stroke-miterlimit="10" d="M47.5 105.3s-2.2 4.2-4.8 8.5c-2.6 4.2-8.8 9.3-8.8 9.3s8.5 6.7 19.5 6.5c8.9-.2 13-.9 20.2-6.5-8.4-1.8-9.7-6.4-11.1-9.5-2-4.4-2.5-8.1-1.7-8.2-8.9.1-13.3-.1-13.3-.1z"/>
  <path fill="#FFF" d="M85.7 263.2c-.9 0-1.3-.4-1.5-.8-.2-.3-.3-.9.2-1.7.7-1.1 1.2-1.4 1.8-1.8.4-.3 1-.6 2-1.5 2.3-2.2 2.7-3 2.3-5.3-.1-.4-.1-.7-.1-1-.1-.4-.1-.8-.2-.9-.1 0-1.4-.3-1.4-.3h-.3c-.8 0-.9 1.6-1 3.3 0 1.3-.1 2.7-1.4 2.7-.3 0-.6-.1-1-.4-.2-.2-.4-.3-.5-.5.4 3.9 0 4-.7 4.2h-.3c-.6 0-1.9-.3-5-.9-6.2-1.3-17.9-3.8-26.2-3.8s-20.5 2.4-27.8 3.8c-3.4.7-4.9 1-5.5 1h-.3c-.7-.2-1-.2-.7-3.6-.3.2-.6.4-.9.4-1.3 0-1.3-1.4-1.4-2.7 0-1.7-.2-3.3-1-3.3h-.5c-.5.1-1.1.2-1.2.3 0 0 0 .5-.1.9 0 .3-.1.6-.1 1-.3 2.3 0 3.2 2.3 5.3 1 .9 1.5 1.3 2 1.5.7.4 1.1.7 1.8 1.8.5.8.4 1.3.2 1.7-.2.3-.6.8-1.5.8-1.6 0-4.5-1.3-6.3-2.7-3-2.4-6.1-9.4-6.5-11.3-.4-1.9 2.4-8.4 3.5-10.6l-2.3-41c-.1-6.6-1.3-64.4 3.1-69.5 4.5-5.2 18-5.7 18.6-5.7h.1l1.5.1c1-.1 1.7-.1 1.7-.1h.1l20.5 1.4 20.5-1.4h.1s.6 0 1.7.1l1.6-.1h.1c.6 0 14 .6 18.6 5.7 4.4 5.1 3.3 62.9 3.1 69.4l-2.3 41c1.1 2.3 3.9 8.8 3.5 10.7-.4 1.9-3.5 8.9-6.5 11.3-1.9 1.3-4.8 2.5-6.4 2.5zM78.3 165c-.6 3.2-1.4 4.9-2 6.2-.5 1.1-.9 1.9-1 3.2-.6 7.1 3.4 36 6.3 57 1.1 8 1.9 13.6 2.4 17.6 0-.3.1-.6.1-.9.1-.5.1-1 .2-1.6.4-3.6 1.8-6.2 4.1-7.4.7-3.3-3.3-28.5-6-43.9L78.3 165zm-63.2 74.3c2.3 1.2 3.7 3.8 4.1 7.4 0 .2 0 .5.1.7.5-3.8 1.3-8.8 2.2-15.5 3.1-21.2 7.3-50.2 6.7-57.4-.1-1.3-.5-2.1-1-3.2-.6-1.3-1.4-3-2-6.2l-4.1 30.3c-2.7 15.4-6.6 40.6-6 43.9z"/>
  <path fill="#00A78E" d="M75.6 123.3s13.6.5 17.8 5.4c4.3 4.9 2.9 68.8 2.9 68.8L94 238.7s3.9 8.5 3.5 10.2c-.4 1.8-3.4 8.5-6.1 10.8-1.8 1.5-4.5 2.5-5.7 2.5-.6 0-.9-.3-.5-.9 1.2-1.8 1.4-1 3.7-3.2 2.5-2.3 3-3.5 2.6-6.2-.4-2.7 0-2.5-2.4-3-.2 0-.4-.1-.5-.1-2.9 0-1.4 6-2.3 6-.1 0-.2 0-.3-.2-1.6-1.3-1-4.1-.6-8 .4-3.6 1.8-5.8 3.8-6.7 2-.9-5.7-44.8-5.7-44.8l-5.3-38.6c-.6 14.1-3.5 13.4-3.9 17.8-1 12.1 10.7 83.5 9.5 83.8h-.1c-1.8 0-19.4-4.8-31.2-4.8-11.7 0-31.4 4.8-33.3 4.8h-.1c-1.2-.3 11-71.7 10-83.8-.4-4.4-3.2-3.7-3.9-17.8l-5.3 38.6s-7.7 43.9-5.7 44.8c2 .9 3.4 3.1 3.8 6.7.4 3.9 1 6.6-.6 8-.1.1-.2.2-.3.2-.9 0 .6-6-2.3-6-.2 0-.3 0-.5.1-2.4.5-2 .3-2.4 3-.4 2.7.2 3.9 2.6 6.2 2.3 2.2 2.5 1.4 3.7 3.2.4.6.1.9-.5.9-1.2 0-3.9-1-5.7-2.5-2.7-2.2-5.7-9-6.1-10.8-.4-1.8 3.5-10.2 3.5-10.2l-2.3-41.2s-1.4-63.8 2.9-68.8c4.3-4.9 17.8-5.4 17.8-5.4l1.6.1c1-.1 1.7-.1 1.7-.1l20.5 1.4 20.5-1.4s.6 0 1.7.1l1.8-.1m-3.3-2h-.1l-20.4 1.4-20.4-1.4h-.2s-.6 0-1.6.1l-1.4-.1H28c-1.5.1-14.6.7-19.3 6.1-.9 1.1-3.2 3.6-3.5 37.5-.2 16.4.2 32.4.2 32.6l2.3 40.7c-1.9 4.1-3.9 9.1-3.4 11.1.4 1.8 3.5 9.2 6.8 11.9 2 1.6 5.1 3 7 3 1.5 0 2.1-.8 2.4-1.3.3-.5.6-1.5-.2-2.7l-.1-.1c.9-.1 2.4-.4 5.1-.9 6.8-1.3 19.4-3.8 27.6-3.8 8.2 0 19.8 2.5 26 3.8 3 .7 4.3.9 5 1 0 0 0 .1-.1.1-.8 1.2-.5 2.2-.2 2.7s.9 1.3 2.4 1.3c1.8 0 5-1.3 7-3 3.3-2.7 6.4-10 6.8-11.9.4-1.9-1.6-7-3.4-11l2.3-40.7c0-.2.4-16.2.2-32.6-.4-33.9-2.6-36.4-3.6-37.5-4.7-5.4-17.8-6-19.3-6.1h-.2l-1.4.1c-1-.1-1.6-.1-1.6-.1l-.5-.2zm11.9 121.5c-.5-3.4-1-7.3-1.6-11.4-2.9-21-6.9-49.8-6.3-56.8.1-1.2.4-1.8.9-2.9.2-.5.5-1.1.8-1.7l3.5 25.5c3.2 18.5 6.2 39 6 43.1-1.5 1-2.6 2.4-3.3 4.2zm-68.1-4.1c-.2-4.2 2.8-24.6 6-43.1l3.5-25.5c.3.7.5 1.2.8 1.7.5 1.1.8 1.7.9 2.9.6 7-3.6 36-6.7 57.2-.5 3.7-1 7.2-1.5 10.3-.8-1.6-1.8-2.7-3-3.5zm-1.9 12.4c.1 0 .3-.1.5-.1h.1c.2.6.2 1.7.2 2.3 0 1.2.1 3.6 2.2 3.7v.7c-.3-.2-.6-.5-1-.9-2.2-2-2.3-2.6-2-4.5.1-.4.1-.7.1-1-.1-.1-.1-.2-.1-.2zm72 5.8c2.3 0 2.3-2.5 2.4-3.7 0-.5 0-1.7.2-2.3h.1c.2 0 .3.1.5.1v.2c0 .3.1.6.1 1 .3 1.9.1 2.4-2 4.5-.7.7-1.2 1-1.6 1.3v-1.1h.3z"/>
  <path fill="#FFF" stroke="#00A78E" stroke-width="2" stroke-miterlimit="10" d="M33.8 123.1l-3.1 6.4 17.6 8.4 5-8.4zm39.5 0l3.2 6.4-17.6 8.4-5.1-8.4zm-19.5 6.4v123.9"/>
  <path fill="#00A78E" d="M49.4 148.7c1.9 0 1.9-3 0-3s-1.9 3 0 3zm0 24.6c1.9 0 1.9-3 0-3s-1.9 3 0 3zm0 24.6c1.9 0 1.9-3 0-3s-1.9 3 0 3zm0 24.6c1.9 0 1.9-3 0-3s-1.9 3 0 3zm0 24.6c1.9 0 1.9-3 0-3s-1.9 3 0 3z"/>
  <path fill="#FFF" stroke="#00A78E" stroke-width="2" stroke-miterlimit="10" d="M8.3 234.5h7.1v6H8.3zm79.8 0h7.1v6h-7.1zm-63.1 4l20.2-8.6m33.7 8.6l-20.1-8.6"/>
  <path fill="#FFF" d="M12.1 46C15.7 7.3 29.7 4 39.7 3.5 49.8 3 75.7 1.4 87.6 14c8.9 9.5 8.7 11.4 4.9 40.2-2 15.2.4 20.8-14.9 36.7-15.1 15.7-14.4 13.6-31 13.6-4 0-11.3-4.8-21.4-14.2C9.7 75.9 12.6 62 12.1 57.2"/>
  <path fill="#00A78E" d="M34.4 13.7c1.5 4 .7 13-2.6 15.8S24.4 34 21 36.6c-3.8 3.1-6.6 7.4-7.8 12.2-.8 3.1-.9 6.2-.7 9.4.2 4.5 3.9 7.2 6.1 11.2 1.6 3 1.7 5.9 4.8 7.3 1.2.6 3.3 6.3 2.1 5.9-.2-.1-2.9.8-3.7.5-.8-.3-1.8-3.4-2.6-3.1-1.8.8 3.3 5.8 4.1 7.1 4.2 6.5 10.1 4.3 12.7 11.6 1.8 5 6.1 15 1.8 18.1-1.6 1.1-8.3 1.9-9.4 3.4-.7.9-3.5-2.4-4.2-1.5-1.9 2.2-5.6 2.3-8 3.2-2.7 1-5.7.8-8-1-5.5-4.2-1.5-9.9.3-15 1.7-4.9 1.3-10.6-1.3-15.2-1.2-2.2-3-4.2-4.2-6.4-3.5-6.3-2.6-14.2.1-20.9 1.2-3 2.3-8.9 1.6-12"/>
  <path fill="#FFF" d="M33.7 13.9c1.2 3.9 1 9.2-.9 12.9-2.2 4.2-7.9 6-11.5 8.7-6.4 4.8-9.4 12-9.5 19.8-.1 3.8.7 6.4 2.9 9.6 1.4 2 2.8 3.8 3.9 6 .7 1.5 1.2 3.2 2.2 4.6.9 1.2 5.6 4.6 4.3 6.4-1.4 2-3.4-.7-4.2-1.4-.8-.7-.6-.9-1.5-1.2-.3-.1-.5 0-.7.2-2.1 2 2.2 5.7 3.3 7.1 1.4 1.8 2.7 3.5 4.6 4.8 3 2 6.4 2.8 8.3 6.3 1.4 2.7 2.4 6.1 3.2 9 1.1 4 1.9 8.3-2.6 10.1-1.7.7-5.2 2.2-6.9 2.2-1.5.1-2.4-1.4-3.9-1.4-2 0-4.3 2.2-6.3 2.7-2.4.7-4.9 1.7-7.4.9-5.2-1.5-5.1-6.1-3.7-10.1 2.2-6.1 4.3-11.4 2.1-18-1.2-3.5-3.8-6.2-5.5-9.5C1.4 78.8 1.4 73.2 2.6 68 4 62.2 6.7 57 5.8 50.8c-.1-1-1.6-.5-1.4.4 1 7.3-3.2 13.6-3.9 20.7-.3 3.4-.1 6.8 1.1 9.9 1.2 3.3 3.6 5.8 5.2 8.9 2.5 4.5 2.8 9.7 1.2 14.6-1 3-2.9 6-3.1 9.2-.2 4.3 3.1 7.8 7.3 8.2 2.6.3 5.4-.8 7.9-1.5 1.1-.3 2.1-.8 3.1-1.2 1.5-.5 2.2-.1 3.6.1 1.1.2 1.1.4 2.2.2s2.5-1.2 3.7-1.6c1.4-.4 2.8-.6 4.1-1.1 3.4-1.4 4-4.4 3.6-7.9-.5-4.5-2.3-10.7-4.9-14.5-1.6-2.2-3.8-3.2-6.1-4.5-2.9-1.6-4.7-3.9-6.8-6.4-.6-.7-1.2-1.7-1.8-2.3-.8-.7-.9-.5-.2 0 .4.3.6 1 1.1 1.2 1.2.5 3.2-.3 4.4-.5.3 0 .5-.3.5-.5 1.2-4.3-4.7-8-6-11.1-1.6-2.6-3.7-5.1-5.5-8.1-3.2-5.4-2.1-13.3.6-18.7 2.3-4.6 6.1-7.6 10.4-10.2 2.5-1.5 5.5-2.9 7.2-5.3 2.9-4 3.2-10.7 1.8-15.3-.3-.9-1.7-.5-1.4.4z"/>
  <path fill="#00A78E" d="M33.3 15.1c1.4 5.6 6.1 9.9 11.5 12.1s11.3 2.4 17 2c5.8-.4 11.9-1.5 17.3.8 4.9 2.1 8.4 6.9 9.8 12.1s1 10.8-.3 16c-.7 2.8-1.8 5.9-4.2 7.4-3.4 2.2-8.4 1-10.8 5.7.4 8.4 11.8-.2 12.9 7.1-.5 3-2.8 4.1-4.9 5.4-6.3 3.6-12 8.3-16.9 13.8-2.3 5.5 6 4.8 6.6 8.7.6 3.6-6.3 5.6-.4 10.8 7.3 2.2 14.8 3.4 22.4 3.5 2.1 0 4.2 0 6.2-.7 5.4-1.8 8.5-8.6 6.4-13.8-1.6-4-5.7-6.9-6.8-11.1-1.2-4.8 1.7-9.6 2.5-14.5.9-6.3-2-12.5-3.2-18.8-2.5-13.2 2.4-27.6-2.8-40.1-3.4-8.1-10.7-14-18.8-17.2C66.9.4 55.7.2 45.2 1c-4.3.4-8.6 1-12.9 1.8-3.4.6-6.9 1.3-9.8 3.2-2.4 1.5-4.2 3.7-5.9 6C10.4 20.3 6 30.2 3.9 40.5c-.8 4-.4 7.1.8 10.9"/>
  <path fill="#FFF" d="M32.6 15.3c1.8 5.9 6.3 10.3 12 12.6 8.6 3.5 17.2 1.3 26 1.4 13.3.1 19.5 11.2 18.2 23.4-.6 5.5-1.7 11.5-7.7 13.4-2.3.7-4.7.9-6.5 2.6-2.5 2.2-2.1 5.8 1.1 7.1 1.6.6 3.6.2 5.3.2 2.6 0 4.6 0 3.7 3.3-.9 3.1-3.8 4-6.3 5.7-3.1 2-6.1 4.3-8.8 6.8-1.9 1.7-5.4 4.1-5.9 6.8-.9 5.4 8.2 4.5 6.2 10.1-.6 1.7-2.1 2.5-2.1 4.5 0 1.7 1.3 3.8 2.8 4.7 3.3 2 9.3 2.4 13.1 2.9 4.1.6 8.6 1.1 12.8.7 5.5-.5 9.9-4.2 10.8-9.9 1.1-7.6-6.7-11.2-7.5-18.1-.5-4.4 2-8.5 2.6-12.8.6-4.4-.6-8.8-1.7-13-2.6-9.7-2-18.8-1.8-28.8.2-15.6-5.9-28.3-20.6-34.6-9-3.9-19-4.6-28.7-4.2-8.5.3-20 .5-27.4 5.2-6.9 4.4-11.5 13.5-14.6 20.8C4.1 34.3 1.5 42.8 4 51.6c.3.9 1.7.5 1.4-.4-2.4-8.4.3-16.8 3.7-24.6 3.2-7.4 8-17 15.4-20.8 7.9-4 19.1-4.1 27.8-4.2 8.7-.2 17.5.6 25.5 4.1 6.9 3 13.2 8.1 16.5 15 3.9 8.1 3 17.4 2.7 26-.3 7.7.4 14.6 2.4 22 1.3 5.1 2.1 9.7.7 14.8-.8 3.2-2.3 6.4-2 9.8.6 6.9 8.6 10.4 7.6 17.7-1.7 11.8-17.2 8.9-25.4 7.4-3.5-.6-12.4-1.7-10.7-6.8.5-1.6 2.2-2.8 2.4-4.6.3-3.5-3.1-3.7-5.1-5.5-5.6-5.2 12.3-15.4 16.1-17.8 2.5-1.6 5.6-4.6 3.3-7.7-1.8-2.3-4.9-1.6-7.4-1.6-1 0-2.4.2-3.3-.4-4-2.9 1-5.2 2.6-5.8.5-.2 1.1-.3 1.6-.4 2-.6 3.9-.9 5.6-2.3 5-4.2 5.6-14.1 4.9-20-.6-5.7-3.3-11.4-8.3-14.8-6.8-4.6-15.2-2.5-22.8-2.2-10.2.3-21.8-2.8-25.2-13.6-.3-1-1.7-.6-1.4.4z"/>
  <path fill="#00A78E" d="M41.5 86.7s14.9 7.3 23.6-4.5c-6.2 20.2-25.3 3.1-23.6 4.5z"/>
  <path fill="#FFF" d="M53.1 63.5s2.6 7.6 4.8 10.1c8.2 9-14.4 7.6-8.7 4.3"/>
  <path fill="#00A78E" d="M53.1 63.5s.2.4.7 1.1c.2.4.4.8.7 1.3.3.5.6 1.1.9 1.7.3.6.7 1.3 1.1 2 .4.7.8 1.4 1.3 2.1.5.7.9 1.2 1.6 2 .6.8 1.2 1.8 1.4 3.1.1.7-.1 1.4-.5 2-.4.6-.8 1-1.3 1.3-1 .6-2 .8-2.9 1-1.9.3-3.6.1-5.1-.2-.7-.2-1.4-.4-1.9-.7-.3-.1-.5-.3-.7-.6-.2-.2-.3-.6-.2-.9.2-.5.6-.6.8-.7.2-.1.3-.1.3-.1s-.2.1-.3.2c-.2.1-.4.4-.5.7-.1.3.3.5.8.6.5.2 1.1.2 1.8.2 1.3 0 3 0 4.6-.5.8-.2 1.6-.5 2.2-.9.6-.5.9-.9.8-1.4 0-.6-.5-1.3-1-2-.5-.6-1.2-1.5-1.7-2.3-.9-1.6-1.5-3.2-1.9-4.6-.9-2.5-1-4.4-1-4.4zm-12.2-7.7c0 2.4-2.2 4.4-4.8 4.4-2.7 0-4.8-2-4.8-4.4 0-2.4 2.2-4.4 4.8-4.4 2.6 0 4.8 2 4.8 4.4"/>
  <path fill="#FFF" d="M39.2 55.8c0 .7-.4 1.3-.9 1.3s-.9-.6-.9-1.3c0-.7.4-1.3.9-1.3s.9.6.9 1.3"/>
  <path fill="#00A78E" d="M65.2 55.4c0 2.4 2.2 4.4 4.8 4.4 2.7 0 4.8-2 4.8-4.4 0-2.4-2.2-4.4-4.8-4.4-2.6 0-4.8 2-4.8 4.4"/>
  <path fill="#FFF" d="M73.9 55.8c0 .7-.4 1.3-.9 1.3s-.9-.6-.9-1.3c0-.7.4-1.3.9-1.3s.9.6.9 1.3"/>
  <path fill="#00A78E" d="M44.5 56s-.4-.3-1-.8-1.6-1.1-2.7-1.6c-.6-.3-1.2-.5-1.8-.8-.7-.2-1.3-.4-2.1-.5-.7-.1-1.4-.1-2.2 0-.7 0-1.5.3-2.2.5-.7.3-1.4.6-2.1 1.1-.7.4-1.3.9-1.9 1.5-.6.5-1.3 1.2-2 1.6-.4.2-.8.4-1.1.5-.4.1-.7.2-1.1.2-1.4.1-2.5-.2-3.1-.6-.7-.4-1-.8-1-.8s.4.2 1.1.3c.7.1 1.7 0 2.8-.4.3-.1.6-.2.8-.4.3-.2.6-.3.8-.5.5-.4.9-1 1.6-1.7.7-.7 1.3-1.4 2.1-1.9.7-.6 1.6-1 2.5-1.4.9-.3 1.8-.6 2.7-.6.9-.1 1.8.1 2.6.3.4.1.8.2 1.2.4.4.2.7.4 1.1.5.7.4 1.3.8 1.9 1.3.6.4 1 .9 1.4 1.4.4.4.7.9 1 1.2.5.7.7 1.2.7 1.2m16.7-.4s.4-.3 1-.8 1.6-1.1 2.7-1.6c.6-.3 1.2-.5 1.8-.8.7-.2 1.4-.4 2.1-.5.7-.1 1.5-.1 2.2 0 .7 0 1.5.3 2.2.5.7.3 1.4.6 2.1 1.1.7.4 1.3.9 1.9 1.5.6.5 1.3 1.2 2.1 1.6.4.2.8.4 1.1.5.4.1.7.2 1.1.2 1.4.1 2.5-.2 3.2-.6.7-.4 1-.8 1-.8s-.4.2-1.1.3c-.7.1-1.7 0-2.8-.4-.3-.1-.6-.2-.8-.4-.3-.2-.6-.3-.8-.5-.5-.4-.9-1-1.7-1.7-.7-.7-1.3-1.4-2.1-1.9-.8-.6-1.6-1-2.5-1.4-.9-.3-1.8-.6-2.7-.6-.9-.1-1.8.1-2.6.3-.4.1-.8.2-1.2.4-.4.2-.7.4-1.1.5-.7.4-1.3.8-1.9 1.3-.6.4-1 .9-1.4 1.4-.4.4-.7.9-1 1.2-.6.7-.8 1.2-.8 1.2m-14.6-16s2.7 2.8-4.5 3.7c-7.3.8-13.3-5-16.6-.8s-9 5.8-4.3 1.7 3.7-6.7 11.1-6.2 13.8.3 14.3 1.6zm12.2 1.7s-2.2 3.4 5.1 2.4 12.2-8.2 16.2-4.9c4 3.3 9.9 3.4 4.5.6s-4.8-5.6-12-3.3C65.4 38.5 59 40 58.8 41.3z"/>
</svg>