<svg xmlns="http://www.w3.org/2000/svg" width="135.7" height="375.7" viewBox="0 0 135.7 375.7">
  <path fill="#FFF" d="M110 89.3s1.5-13.3 5.6-9.6c3.4 3.1 5 17.4 3 27.3-.9 4.4-6.2 9.5-8.4 7.3-2.3-2.1-.2-25-.2-25m-89-2.2s-1.9-13.3-6.3-9.5c-4.6 4-4.1 21.1-2.6 27.4 1.1 4.4 7 9.3 9.4 7 2.3-2.2-.5-24.9-.5-24.9"/>
  <path fill="#FFF" d="M18.9 68.2c0 4.7-3 42.2 10.1 58.7 7.4 9.4 17.9 18.4 23.9 19.8 9.9 2.3 16.3 4 25 2.2 8.7-1.9 21.5-11 29.4-28.5 3.8-8.3 13.9-73.9-4.9-92.4-12.4-12.1-39.5-10.6-50-10.1-10.6.5-33.9 4.2-33.5 50.3m13.2 307.1L27 293.7h76.1l-1.7 81.6H70.3v-66.2c0-1.7-1.1-3.2-4.6-3.2-3.5 0-4.6 1.4-4.6 3.2v66.2h-29z"/>
  <path fill="#00A78E" d="M83.6 83.8c0 2.5 2.1 4.6 4.7 4.6s4.7-2.1 4.7-4.6c0-2.5-2.1-4.6-4.7-4.6s-4.7 2-4.7 4.6"/>
  <path fill="#00A78E" d="M102.2 85c-.1 0-6.4-6.1-13.9-6.1-3.9 0-8.1 1.7-11.8 6.5l1.1 1.4c3.4-4.5 7.1-5.9 10.6-5.9 3.4 0 6.7 1.4 9.1 2.9 1.2.7 2.2 1.4 2.9 2 .3.3.6.5.8.6l.3.2.9-1.6z"/>
  <path fill="#FFF" d="M87.1 83.7c0 .9-.5 1.6-1.1 1.6-.6 0-1.1-.7-1.1-1.6 0-.9.5-1.6 1.1-1.6.6 0 1.1.7 1.1 1.6"/>
  <path fill="#00A78E" d="M52 83.8c0 2.5-2.1 4.6-4.7 4.6s-4.7-2.1-4.7-4.6c0-2.5 2.1-4.6 4.7-4.6s4.7 2 4.7 4.6"/>
  <path fill="#00A78E" d="M34.3 86.5l.3-.2c1.2-1.1 6.7-5.5 12.8-5.5 3.5 0 7.2 1.4 10.6 5.9l1.1-1.4c-3.7-4.9-7.9-6.6-11.8-6.5-7.6 0-13.9 6.1-14 6.1l1 1.6z"/>
  <path fill="#FFF" d="M45.5 83.7c0 .9-.5 1.6-1.1 1.6-.6 0-1.1-.7-1.1-1.6 0-.9.5-1.6 1.1-1.6.7 0 1.1.7 1.1 1.6"/>
  <path fill="#00A78E" d="M55.2 63.4s5.9 5.3.9 6.2c-5 1-13.2-.8-16.8 0-3.6.8-10.7 3.6-10.7 3.6l-.5-3s9.8-9.2 27.1-6.8M80 58.5s-5.8 5.1-.7 6.2c5 1.1 13.1-.3 16.8.6 3.7.9 10.9 4 10.9 4l.4-3c-.1 0-10.1-9.5-27.4-7.8m-17.8 49.8s.4 0 1 .1 1.6.2 2.7.3c1.1.1 2.4.2 3.6 0 .6-.1 1.1-.3 1.3-.6.1-.1.1-.1.1-.2v-.1.1-.1l.1-.3c.1-.4.1-.6.1-.9.1-1.4.1-2.8 0-4.2-.1-1.4-.1-2.7-.2-3.8-.1-2.2-.1-3.7-.1-3.7s.6 1.4 1.2 3.6c.3 1.1.6 2.4.8 3.8.2 1.4.3 2.9.2 4.5-.1.4-.1 1-.2 1.3l-.1.3v.2l-.1.2c-.1.3-.3.5-.5.7-.8.8-1.8.9-2.6 1-.8 0-1.5-.1-2.2-.2-.7-.1-1.3-.3-1.8-.5-2-.7-3.3-1.5-3.3-1.5m-9.3 8.2s16.5 6.9 30.1 1.1c-1.9 4-20 13.8-30.1-1.1"/>
  <path fill="#FFF" d="M56.3 149.9s.4 12.7-5.6 16.3c-5.4 3.2-7.8 3.8-7.8 3.8s26.4 10.6 47.5 2c-11.4-3.1-10.6-7-10.6-7l-2-13.2-21.5-1.9z"/>
  <path fill="none" stroke="#00A78E" stroke-width="3.076" stroke-miterlimit="10" d="M56.3 149.9s.4 12.7-5.6 16.3c-5.4 3.2-7.8 3.8-7.8 3.8s26.4 10.6 47.5 2c-11.4-3.1-10.6-7-10.6-7l-2-13.2-21.5-1.9z"/>
  <path fill="#FFF" d="M18.6 285.1c.7 2.1.7 4-2.1 3.4l-.6-1-3.8-6.2-1.6 1.3c-1 .7-1.3 1.8-1 2.8.2.8.5 1.8.7 2.4.1.5.5.9 1 1.3l3 2.5c.7.6.3 1.1 0 1.6l-.5.3c-.8.4-2 .3-2.8-.4l-3.3-2.8c-.3-.1-.6-.3-.8-.6l-4.4-8.1c-.3-.5-2-2.6-1.8-3l5.3-7.3c.1-.2.5-1.8.5-2l-3.2-34.2 1-5.8s6.1-28.7 8.2-27.9l20.7 7.6c1.6.6-6.2 14.7-6.2 14.7-3.6 6.9-4.9 9.2-6.2 13.4l-3.8 35.7v.5l1.7 11.8z"/>
  <path fill="none" stroke="#00A78E" stroke-miterlimit="10" d="M18.6 285.1c.7 2.1.7 4-2.1 3.4l-.6-1-3.8-6.2-1.6 1.3c-1 .7-1.3 1.8-1 2.8.2.8.5 1.8.7 2.4.1.5.5.9 1 1.3l3 2.5c.7.6.3 1.1 0 1.6l-.5.3c-.8.4-2 .3-2.8-.4l-3.3-2.8c-.3-.1-.6-.3-.8-.6l-4.4-8.1c-.3-.5-2-2.6-1.8-3l5.3-7.3c.1-.2.5-1.8.5-2l-3.2-34.2 1-5.8s6.1-28.7 8.2-27.9l20.7 7.6c1.6.6-6.2 14.7-6.2 14.7-3.6 6.9-4.9 9.2-6.2 13.4l-3.8 35.7v.5l1.7 11.8z"/>
  <path fill="#FFF" d="M124.3 291.3c-.4 0-.8-.1-1.2-.3l-.7-.3-.2-.2c-.3-.4-.8-1.3.1-2.1l2.9-2.5c.5-.3.7-.7.8-1.1l.7-2.5c.2-.9-.1-1.7-.9-2.3l-1.2-.9-4.2 7.1h-.2c-.4.1-.8.1-1.1.1-.7 0-1.3-.2-1.6-.7-.5-.7-.5-1.8 0-3.4l1.6-11.7v-.4l-4.2-35.7c-.8-1.9-2.1-4.4-3.9-7.4-.1-.2-.2-.3-.2-.4-2.7-4.1-11.5-17.8-10.9-19.7.1-.2.2-.4.4-.5l20.6-8.2h.2c2.3 0 7.9 17.4 11 27.7l1.1 5.9-2.8 34.5c0 .2.4 1.6.5 1.8l3.8 7.1c.3.7.1 2.9-.3 3.5l-4.3 8.2c-.2.4-.6.7-.9.8l-3.2 2.8c-.2.5-1 .8-1.7.8"/>
  <path fill="#00A78E" d="M121.4 198.8c2.2 0 10.6 27.3 10.6 27.3l1.1 5.7-2.8 34.4c0 .2.4 1.8.5 2l3.9 7.2c.2.5 0 2.5-.3 3l-4.3 8.2c-.1.3-.4.5-.8.6l-3.2 2.9c-.5.4-1.2.6-1.8.6-.3 0-.7-.1-1-.2l-.5-.3c-.3-.5-.8-1-.1-1.6l2.9-2.5c.5-.4.9-.9 1-1.3.2-.7.4-1.6.7-2.5.3-1.1-.1-2.1-1-2.8l-1.6-1.2-3.7 6.3-.6 1c-.4.1-.7.1-1 .1-1.8 0-1.7-1.7-1.1-3.5l1.6-11.8v-.5l-4.2-35.7c-1.4-3.4-4-7.7-4.1-7.9 0 0-12.3-18.9-10.7-19.5l20.5-8m0-1c-.2 0-.3 0-.5.1l-20.5 8.1c-.3.1-.6.4-.7.8-.2.6-.5 1.6 5.3 11.2 2.7 4.5 5.5 8.8 5.7 9 0 .1.1.2.2.3 1.8 3 3 5.5 3.8 7.3l4.2 35.6v.2l-1.6 11.7c-.6 1.8-.5 3 .1 3.8.3.4.9.9 2 .9.4 0 .8 0 1.2-.2l.4-.1.2-.4.6-1 3.2-5.4.7.6c.4.3.9.9.7 1.8l-.7 2.5c-.1.3-.3.6-.6.8l-2.9 2.5c-1.3 1.2-.5 2.4-.2 2.8l.1.1.2.2.3.1.5.3c.4.2.9.3 1.4.3.9 0 1.8-.3 2.4-.9l3.1-2.8c.5-.2.9-.6 1.1-1l4.3-8.2c.4-.7.6-3.1.3-3.9l-3.8-7.1c-.1-.3-.4-1.3-.4-1.6l2.8-34.3v-.2l-1.1-5.7v-.2c0-.1-2.1-6.9-4.5-13.7-5.2-14.3-6.3-14.3-7.3-14.3"/>
  <path fill="#FFF" d="M132.8 206l-24.3 18.3-3.1-10.9 3.2 26.8c.4 4.6.6 19.3-.6 32.7l-2.8 17.8H28.4l-2.8-20.9c-.9-11 .1-27.4.6-31.6l4.5-25-3.7 10.3-21.9-16.8S1.3 210 11 192.8s31.1-23.2 31.1-23.2L68 173l24.7-1.6s22.9 4.7 32.6 21.9c9.5 17.2 7.5 12.7 7.5 12.7"/>
  <path fill="none" stroke="#00A78E" stroke-width="2.562" stroke-miterlimit="10" d="M132.8 206l-24.3 18.3-3.1-10.9 3.2 26.8c.4 4.6.6 19.3-.6 32.7l-2.8 17.8H28.4l-2.8-20.9c-.9-11 .1-27.4.6-31.6l4.5-25-3.7 10.3-21.9-16.8S1.3 210 11 192.8s31.1-23.2 31.1-23.2L68 173l24.7-1.6s22.9 4.7 32.6 21.9c9.5 17.2 7.5 12.7 7.5 12.7"/>
  <path fill="#FFF" d="M59 375.5s-1.4-13.1-23.6-12c-22.1 1.2-23.8 9.8-24.7 12.1m109.5-.1s-1.4-13.1-23.6-12c-22.1 1.2-23.8 9.8-24.7 12.1"/>
  <path fill="#00A78E" d="M116.4 65.7s5.8-18.9 4.4-26.8C119.4 31 115 25.2 99.5 12c-10.1-8.6-20.1-1.3-22.2.6C74 15.5 64.1 5.3 60.4 1.3 56.7-2.8 43.7 10.8 45.3 14c-7.2-4-12.6-3.5-12.6-3.5S3.8 6.7 16.3 69.3c1.1 5.5 2.4 11.8 2.4 11.8 5.6.5 1-1.9 1.1-24.7.2-31.5 34.4-24.3 47-24.9 15.3-.8 40.4.6 44.2 17.7 3.8 17.1.4 33.4.4 33.4l4 3.9 1-20.8z"/>
  <path fill="none" stroke="#FFF" stroke-miterlimit="10" d="M116.4 65.7s5.8-18.9 4.4-26.8C119.4 31 115 25.2 99.5 12c-10.1-8.6-20.1-1.3-22.2.6C74 15.5 64.1 5.3 60.4 1.3 56.7-2.8 43.7 10.8 45.3 14c-7.2-4-12.6-3.5-12.6-3.5S3.8 6.7 16.3 69.3c1.1 5.5 2.4 11.8 2.4 11.8 5.6.5 1-1.9 1.1-24.7.2-31.5 34.4-24.3 47-24.9 15.3-.8 40.4.6 44.2 17.7 3.8 17.1.4 33.4.4 33.4l4 3.9 1-20.8z"/>
</svg>