<svg xmlns="http://www.w3.org/2000/svg" viewBox="-123 127.7 352 346.3">
  <path fill="#FFF" d="M196.4 444.1h-297.3c-.4 0-.8-.4-.8-.8v-215c0-.4.4-.8.8-.8h297.3c.4 0 .8.4.8.8v214.9c0 .5-.3.9-.8.9"/>
  <path fill="none" stroke="#00A78E" stroke-width="5.739" stroke-miterlimit="10" d="M196.4 444.1h-297.3c-.4 0-.8-.4-.8-.8v-215c0-.4.4-.8.8-.8h297.3c.4 0 .8.4.8.8v214.9c0 .5-.3.9-.8.9z"/>
  <path fill="#00A78E" d="M-43.7 212.1c-4.6 0-8.3-3.7-8.3-8.3v-62.3c0-4.6 3.7-8.3 8.3-8.3h12.3c4.6 0 8.3 3.7 8.3 8.3v62.2c0 4.6-3.7 8.3-8.3 8.3l-12.3.1z"/>
  <path fill="#FFF" d="M-31.3 138.7c1.6 0 2.8 1.3 2.8 2.8v62.2c0 1.6-1.3 2.8-2.8 2.8h-12.4c-1.6 0-2.8-1.3-2.8-2.8v-62.2c0-1.6 1.3-2.8 2.8-2.8h12.4m0-11h-12.4c-7.6 0-13.8 6.2-13.8 13.8v62.2c0 7.6 6.2 13.8 13.8 13.8h12.4c7.6 0 13.8-6.2 13.8-13.8v-62.2c0-7.6-6.2-13.8-13.8-13.8"/>
  <path fill="#00A78E" d="M122.1 212.1c-4.6 0-8.3-3.7-8.3-8.3v-62.3c0-4.6 3.7-8.3 8.3-8.3h12.3c4.6 0 8.3 3.7 8.3 8.3v62.2c0 4.6-3.7 8.3-8.3 8.3l-12.3.1z"/>
  <path fill="#FFF" d="M134.4 138.7c1.6 0 2.8 1.3 2.8 2.8v62.2c0 1.6-1.3 2.8-2.8 2.8H122c-1.6 0-2.8-1.3-2.8-2.8v-62.2c0-1.6 1.3-2.8 2.8-2.8h12.4m0-11H122c-7.6 0-13.8 6.2-13.8 13.8v62.2c0 7.6 6.2 13.8 13.8 13.8h12.4c7.6 0 13.8-6.2 13.8-13.8v-62.2c.1-7.6-6.2-13.8-13.8-13.8"/>
  <path fill="#00A78E" d="M-77.6 468.5c-22 0-39.8-17.9-39.8-39.8V190.4c0-22 17.9-39.8 39.8-39.8h26v53.2c0 4.4 3.6 8 8 8h12.4c4.4 0 8-3.6 8-8v-53.3h137.4v53.2c0 4.4 3.6 8 8 8h12.4c4.4 0 8-3.6 8-8v-53.2h41.2c22 0 39.8 17.9 39.8 39.8v238.3c0 22-17.9 39.8-39.8 39.8H-77.6v.1zM-63 236.9c-8.8 0-16 7.2-16 16V412c0 8.8 7.2 16 16 16h232c8.8 0 16-7.2 16-16V252.9c0-8.8-7.2-16-16-16H-63z"/>
  <path fill="#FFF" d="M183.7 156c18.9 0 34.3 15.5 34.3 34.3v238.3c0 18.9-15.5 34.3-34.3 34.3H-77.6c-18.9 0-34.3-15.5-34.3-34.3V190.4c0-18.9 15.5-34.3 34.3-34.3h20.5v47.7c0 7.4 6 13.5 13.5 13.5h12.4c7.4 0 13.5-6.1 13.5-13.5V156h126.4v47.7c0 7.4 6.1 13.5 13.5 13.5h12.4c7.4 0 13.5-6.1 13.5-13.5V156h35.6M-63 433.6h232c11.8 0 21.5-9.7 21.5-21.5V252.9c0-11.8-9.7-21.5-21.5-21.5H-63c-11.8 0-21.5 9.7-21.5 21.5V412c0 11.9 9.7 21.6 21.5 21.6M183.7 145H137v58.7c0 1.4-1.1 2.5-2.5 2.5h-12.4c-1.4 0-2.5-1.1-2.5-2.5V145H-28.8v58.7c0 1.4-1.1 2.5-2.5 2.5h-12.4c-1.4 0-2.5-1.1-2.5-2.5V145h-31.4c-25.1 0-45.4 20.4-45.4 45.4v238.3c0 25 20.3 45.4 45.4 45.4h261.3c25 0 45.4-20.3 45.4-45.4V190.4c-.1-25-20.4-45.4-45.4-45.4M-63 422.5c-5.8 0-10.5-4.7-10.5-10.5V252.9c0-5.8 4.7-10.5 10.5-10.5h232c5.8 0 10.5 4.7 10.5 10.5V412c0 5.8-4.7 10.5-10.5 10.5H-63z"/>
  <path fill="#00A78E" d="M-44 293.5h19.2v19.2H-44v-19.2z"/>
  <path fill="#ED1C24" d="M-15.8 293.5H3.4v19.2h-19.2v-19.2z"/>
  <path fill="#00A78E" d="M12.4 293.5h19.2v19.2H12.4v-19.2zm28.2 0h19.2v19.2H40.6v-19.2zm28.2 0H88v19.2H68.8v-19.2zm28.2 0h19.2v19.2H97v-19.2zm28.1 0h19.2v19.2h-19.2v-19.2zM-44 318.4h19.2v19.2H-44v-19.2zm28.2 0H3.4v19.2h-19.2v-19.2zm28.2 0h19.2v19.2H12.4v-19.2zm28.2 0h19.2v19.2H40.6v-19.2zm28.2 0H88v19.2H68.8v-19.2zm28.2 0h19.2v19.2H97v-19.2zm28.1 0h19.2v19.2h-19.2v-19.2zM-44 343.3h19.2v19.2H-44v-19.2zm28.2 0H3.4v19.2h-19.2v-19.2zm28.2 0h19.2v19.2H12.4v-19.2zm28.2 0h19.2v19.2H40.6v-19.2zm28.2 0H88v19.2H68.8v-19.2zm28.2 0h19.2v19.2H97v-19.2zm28.1 0h19.2v19.2h-19.2v-19.2zM-44 368.2h19.2v19.2H-44v-19.2zm28.2 0H3.4v19.2h-19.2v-19.2zm28.2 0h19.2v19.2H12.4v-19.2zm28.2 0h19.2v19.2H40.6v-19.2zm28.2 0H88v19.2H68.8v-19.2zm28.2 0h19.2v19.2H97v-19.2zm28.1 0h19.2v19.2h-19.2v-19.2zM-44 393.1h19.2v19.2H-44v-19.2zm28.2 0H3.4v19.2h-19.2v-19.2zM-42 246.5c1.2-.1 2.4-.2 3.8-.3 1.3-.1 2.6-.1 3.8-.1 4.4 0 7.6.8 9.7 2.4 2 1.6 3 3.9 3 7 0 2.1-.3 3.8-1 5.2-.7 1.4-1.6 2.5-2.8 3.3-1.2.8-2.5 1.4-4.1 1.8-1.5.3-3.1.5-4.8.5h-3.4v12.3H-42v-32.1zm6 16.1c1.6 0 3-.1 4.2-.3 1.2-.2 2.3-.5 3.1-1.1.8-.5 1.5-1.2 1.9-2.1.4-.9.7-2.1.7-3.5 0-1.2-.2-2.2-.6-3-.4-.8-1-1.4-1.7-1.9s-1.6-.8-2.6-1c-1-.2-2-.3-3.2-.3h-2.2c-.6 0-1.2.1-1.7.1h.1v12.9h2zm21-6.8h.9c.7 0 1.4.2 2 .6.6.4 1 1 1.1 1.8.4-.7 1.1-1.3 2-1.9.9-.6 1.9-.9 3.1-.9.4 0 .7 0 1.1.1.4.1.8.2 1.1.3.4.1.6.3.9.6.2.3.3.6.3 1 0 .5-.1 1.1-.4 1.7-.3.6-.5 1.1-.8 1.5-.4-.4-.9-.7-1.3-.9-.5-.2-1.1-.3-1.8-.3-.5 0-1.1.1-1.6.3-.5.2-.9.4-1.3.7-.4.3-.7.6-.9 1-.2.4-.3.8-.3 1.2v15.9H-15v-22.7zm20.8 12.1c.1 2.3.7 4.2 1.8 5.6 1.1 1.4 2.9 2.1 5.3 2.1.9 0 1.7-.1 2.4-.3.7-.2 1.3-.4 1.8-.7.5-.3.9-.6 1.3-.9.3-.3.6-.6.8-.9.4.4.7.9.9 1.4.3.5.4.9.4 1.2 0 .3-.1.5-.2.8-.2.3-.4.6-.8.8-.7.5-1.7 1-2.8 1.4s-2.5.6-4.2.6c-1.5 0-2.9-.2-4.2-.6-1.3-.4-2.5-1.1-3.5-2.1s-1.8-2.2-2.4-3.8c-.6-1.6-.9-3.4-.9-5.7 0-2 .3-3.8.9-5.2.6-1.5 1.4-2.7 2.3-3.6 1-.9 2.1-1.6 3.3-2.1 1.2-.4 2.5-.7 3.8-.7 1.6 0 3 .3 4.2.8 1.2.5 2.1 1.3 2.9 2.2.7.9 1.3 2 1.6 3.2.4 1.2.5 2.4.5 3.7v1.4c0 .5-.1.9-.1 1.3H5.8zm11.2-3c0-.9-.1-1.7-.3-2.4-.2-.7-.5-1.4-.9-1.9-.4-.6-1-1-1.7-1.3-.7-.3-1.5-.5-2.5-.5-1.7 0-3 .5-4.1 1.6-1.1 1.1-1.7 2.6-1.8 4.5H17zm11.7-9.1h.9c.8 0 1.5.2 2 .6.5.4.9 1 1 1.8.7-.8 1.7-1.4 2.9-2 1.2-.6 2.6-.8 4.2-.8.6 0 1.2.1 1.8.2.6.1 1.2.3 1.8.5.6.2 1.1.6 1.6.9.5.4.9.8 1.2 1.3.7-.8 1.7-1.5 3-2.1 1.3-.6 2.7-.9 4.3-.9 2.1 0 3.7.5 4.9 1.4 1.1 1 1.9 2.2 2.2 3.6.2.6.3 1.4.3 2.1v15.9h-4.1v-15.1c0-.6-.1-1.1-.3-1.6-.2-.8-.7-1.5-1.3-1.9-.7-.4-1.7-.7-3.2-.7-1.1 0-2 .2-3 .7-.9.4-1.6.9-2 1.5.1.5.1 1.1.1 1.7v15.5h-4V265c0-.7 0-1.3-.1-1.9-.1-.6-.2-1.1-.3-1.6-.5-1.6-2-2.4-4.3-2.4-.7 0-1.4.1-2 .3-.7.2-1.2.4-1.8.8-.5.3-.9.7-1.2 1.1-.3.4-.5.8-.5 1.2v16.1h-4.1v-22.8zm40.4-7.3c0-.8.2-1.5.7-2s1.1-.8 1.8-.8 1.4.3 1.8.8c.5.5.7 1.2.7 2 0 .7-.2 1.4-.7 1.8-.5.5-1.1.7-1.8.7s-1.4-.2-1.8-.7c-.5-.4-.7-1-.7-1.8zm.7 7.2h.9c1 0 1.7.2 2.3.7.6.5.9 1.3.9 2.5v15.3c0 .9.1 1.6.4 2 .3.4.9.6 1.9.6v1.7c-.3.1-.7.2-1.2.2-.5.1-1 .1-1.5.1-.9 0-1.6-.1-2.1-.4-.5-.3-.9-.7-1.1-1.2-.2-.5-.4-1-.4-1.6s-.1-1.2-.1-1.8v-18.1zm13.4 0h.9c1 0 1.7.2 2.3.7.6.5.9 1.3.9 2.5v11.2c0 1.2.1 2.2.3 3 .2.7.5 1.3 1.1 1.7.5.4 1 .6 1.6.7s1.2.2 1.9.2c.9 0 1.7-.1 2.4-.4s1.3-.5 1.8-.9.9-.7 1.2-1.1c.3-.4.4-.8.4-1.1v-16.5h.9c1 0 1.7.2 2.3.7.6.5.9 1.3.9 2.5v19.6H98v-2.1c-.6.7-1.5 1.4-2.7 2-1.2.6-2.6.9-4.5.9s-3.3-.3-4.3-.9c-1-.6-1.8-1.3-2.3-2.2-.5-.9-.8-1.9-.9-3-.1-1.1-.1-2.1-.1-3.1v-14.4zm29.7.1h.9c.8 0 1.5.2 2 .6.5.4.9 1 1 1.8.7-.8 1.7-1.4 2.9-2 1.2-.6 2.6-.8 4.2-.8.6 0 1.2.1 1.8.2.6.1 1.2.3 1.8.5.6.2 1.1.6 1.6.9s.9.8 1.2 1.3c.7-.8 1.7-1.5 3-2.1 1.3-.6 2.7-.9 4.3-.9 2.1 0 3.7.5 4.9 1.4s1.9 2.2 2.2 3.6c.2.6.3 1.4.3 2.1v15.9h-4.1v-15.1c0-.6-.1-1.1-.3-1.6-.2-.8-.7-1.5-1.3-1.9-.7-.4-1.7-.7-3.2-.7-1.1 0-2 .2-3 .7-.9.4-1.6.9-2 1.5.1.5.1 1.1.1 1.7v15.5h-4.1V265c0-.7 0-1.3-.1-1.9-.1-.6-.2-1.1-.3-1.6-.5-1.6-2-2.4-4.3-2.4-.7 0-1.4.1-2 .3-.7.2-1.2.4-1.8.8-.5.3-.9.7-1.2 1.1-.3.4-.5.8-.5 1.2v16.1h-4.1v-22.8z"/>
</svg>