<svg xmlns="http://www.w3.org/2000/svg" width="749.4" height="520.7" viewBox="0 0 749.4 520.7">
  <path fill="#FFF" d="M112.6 391H10.4c-.4 0-.8-.4-.8-.8v-73.6c0-.4.4-.8.8-.8h102.3c.4 0 .8.4.8.8v73.6c-.1.4-.4.8-.9.8"/>
  <path fill="none" stroke="#00A78E" stroke-width="5.739" stroke-miterlimit="10" d="M112.6 391H10.4c-.4 0-.8-.4-.8-.8v-73.6c0-.4.4-.8.8-.8h102.3c.4 0 .8.4.8.8v73.6c-.1.4-.4.8-.9.8z"/>
  <path fill="#00A78E" d="M29.7 310.3c-1.6 0-2.9-1.3-2.9-2.9v-21.6c0-1.6 1.3-2.9 2.9-2.9H34c1.6 0 2.9 1.3 2.9 2.9v21.6c0 1.6-1.3 2.9-2.9 2.9h-4.3z"/>
  <path fill="#FFF" d="M34 284.8c.5 0 1 .4 1 1v21.6c0 .5-.4 1-1 1h-4.3c-.5 0-1-.4-1-1v-21.6c0-.5.4-1 1-1H34m0-3.8h-4.3c-2.7 0-4.8 2.2-4.8 4.8v21.6c0 2.7 2.2 4.8 4.8 4.8H34c2.7 0 4.8-2.2 4.8-4.8v-21.6c0-2.6-2.2-4.8-4.8-4.8"/>
  <path fill="#00A78E" d="M87.3 310.3c-1.6 0-2.9-1.3-2.9-2.9v-21.6c0-1.6 1.3-2.9 2.9-2.9h4.3c1.6 0 2.9 1.3 2.9 2.9v21.6c0 1.6-1.3 2.9-2.9 2.9h-4.3z"/>
  <path fill="#FFF" d="M91.6 284.8c.5 0 1 .4 1 1v21.6c0 .5-.4 1-1 1h-4.3c-.5 0-1-.4-1-1v-21.6c0-.5.4-1 1-1h4.3m0-3.8h-4.3c-2.7 0-4.8 2.2-4.8 4.8v21.6c0 2.7 2.2 4.8 4.8 4.8h4.3c2.7 0 4.8-2.2 4.8-4.8v-21.6c0-2.6-2.2-4.8-4.8-4.8"/>
  <path fill="#00A78E" d="M17.9 399.4c-7.6 0-13.8-6.2-13.8-13.8v-82.8c0-7.6 6.2-13.8 13.8-13.8h9v18.5c0 1.5 1.2 2.8 2.8 2.8H34c1.5 0 2.8-1.2 2.8-2.8V289h47.8v18.5c0 1.5 1.2 2.8 2.8 2.8h4.3c1.5 0 2.8-1.2 2.8-2.8V289h14.3c7.6 0 13.8 6.2 13.8 13.8v82.8c0 7.6-6.2 13.8-13.8 13.8H17.9zm5.1-80.5c-3.1 0-5.6 2.5-5.6 5.6v55.3c0 3.1 2.5 5.6 5.6 5.6h80.6c3.1 0 5.6-2.5 5.6-5.6v-55.3c0-3.1-2.5-5.6-5.6-5.6H23z"/>
  <path fill="#FFF" d="M108.7 290.9c6.6 0 11.9 5.4 11.9 11.9v82.8c0 6.6-5.4 11.9-11.9 11.9H17.9c-6.6 0-11.9-5.4-11.9-11.9v-82.8c0-6.6 5.4-11.9 11.9-11.9H25v16.6c0 2.6 2.1 4.7 4.7 4.7H34c2.6 0 4.7-2.1 4.7-4.7v-16.6h43.9v16.6c0 2.6 2.1 4.7 4.7 4.7h4.3c2.6 0 4.7-2.1 4.7-4.7v-16.6h12.4M23 387.3h80.6c4.1 0 7.5-3.4 7.5-7.5v-55.3c0-4.1-3.4-7.5-7.5-7.5H23c-4.1 0-7.5 3.4-7.5 7.5v55.3c0 4.1 3.4 7.5 7.5 7.5M108.7 287H92.5v20.4c0 .5-.4.9-.9.9h-4.3c-.5 0-.9-.4-.9-.9V287H34.9v20.4c0 .5-.4.9-.9.9h-4.3c-.5 0-.9-.4-.9-.9V287H17.9c-8.7 0-15.8 7.1-15.8 15.8v82.8c0 8.7 7.1 15.8 15.8 15.8h90.8c8.7 0 15.8-7.1 15.8-15.8v-82.8c0-8.7-7.1-15.8-15.8-15.8M23 383.5c-2 0-3.7-1.6-3.7-3.7v-55.3c0-2 1.6-3.7 3.7-3.7h80.6c2 0 3.7 1.6 3.7 3.7v55.3c0 2-1.6 3.7-3.7 3.7H23z"/>
  <path fill="#00A78E" d="M29.6 338.6h6.7v6.7h-6.7z"/>
  <path fill="#ED1C24" d="M39.4 338.6h6.7v6.7h-6.7z"/>
  <path fill="#00A78E" d="M49.2 338.6h6.7v6.7h-6.7zm9.8 0h6.7v6.7H59zm9.8 0h6.7v6.7h-6.7zm9.8 0h6.7v6.7h-6.7zm9.8 0h6.7v6.7h-6.7zm-58.8 8.7h6.7v6.7h-6.7zm9.8 0h6.7v6.7h-6.7zm9.8 0h6.7v6.7h-6.7zm9.8 0h6.7v6.7H59zm9.8 0h6.7v6.7h-6.7zm9.8 0h6.7v6.7h-6.7zm9.8 0h6.7v6.7h-6.7zm-58.8 8.6h6.7v6.7h-6.7zm9.8 0h6.7v6.7h-6.7zm9.8 0h6.7v6.7h-6.7zm9.8 0h6.7v6.7H59zm9.8 0h6.7v6.7h-6.7zm9.8 0h6.7v6.7h-6.7zm9.8 0h6.7v6.7h-6.7zm-58.8 8.7h6.7v6.7h-6.7zm9.8 0h6.7v6.7h-6.7zm9.8 0h6.7v6.7h-6.7zm9.8 0h6.7v6.7H59zm9.8 0h6.7v6.7h-6.7zm9.8 0h6.7v6.7h-6.7zm9.8 0h6.7v6.7h-6.7zm-58.8 8.7h6.7v6.7h-6.7zm9.8 0h6.7v6.7h-6.7z"/>
  <text transform="translate(28.98 333.398)">
    <tspan x="0" y="0" fill="#00A78E" font-family="Foco" font-size="16.674">P</tspan>
    <tspan x="9.4" y="0" fill="#00A78E" font-family="Foco" font-size="16.674">r</tspan>
    <tspan x="15.6" y="0" fill="#00A78E" font-family="Foco" font-size="16.674">em</tspan>
    <tspan x="39.2" y="0" fill="#00A78E" font-family="Foco" font-size="16.674">i</tspan>
    <tspan x="44.1" y="0" fill="#00A78E" font-family="Foco" font-size="16.674">u</tspan>
    <tspan x="53.9" y="0" fill="#00A78E" font-family="Foco" font-size="16.674">m</tspan>
  </text>
  <path fill="#FFF" d="M507.7 109.9H405.4c-.4 0-.8-.4-.8-.8V35.5c0-.4.4-.8.8-.8h102.3c.4 0 .8.4.8.8v73.6c0 .5-.3.8-.8.8"/>
  <path fill="none" stroke="#00A78E" stroke-width="5.739" stroke-miterlimit="10" d="M507.7 109.9H405.4c-.4 0-.8-.4-.8-.8V35.5c0-.4.4-.8.8-.8h102.3c.4 0 .8.4.8.8v73.6c0 .5-.3.8-.8.8z"/>
  <path fill="#00A78E" d="M424.8 29.3c-1.6 0-2.9-1.3-2.9-2.9V4.8c0-1.6 1.3-2.9 2.9-2.9h4.3c1.6 0 2.9 1.3 2.9 2.9v21.6c0 1.6-1.3 2.9-2.9 2.9h-4.3z"/>
  <path fill="#FFF" d="M429.1 3.8c.5 0 1 .4 1 1v21.6c0 .5-.4 1-1 1h-4.3c-.5 0-1-.4-1-1V4.8c0-.5.4-1 1-1h4.3m0-3.8h-4.3c-2.7 0-4.8 2.2-4.8 4.8v21.6c0 2.7 2.2 4.8 4.8 4.8h4.3c2.7 0 4.8-2.2 4.8-4.8V4.8c0-2.6-2.2-4.8-4.8-4.8"/>
  <path fill="#00A78E" d="M482.4 29.3c-1.6 0-2.9-1.3-2.9-2.9V4.8c0-1.6 1.3-2.9 2.9-2.9h4.3c1.6 0 2.9 1.3 2.9 2.9v21.6c0 1.6-1.3 2.9-2.9 2.9h-4.3z"/>
  <path fill="#FFF" d="M486.7 3.8c.5 0 1 .4 1 1v21.6c0 .5-.4 1-1 1h-4.3c-.5 0-1-.4-1-1V4.8c0-.5.4-1 1-1h4.3m0-3.8h-4.3c-2.7 0-4.8 2.2-4.8 4.8v21.6c0 2.7 2.2 4.8 4.8 4.8h4.3c2.7 0 4.8-2.2 4.8-4.8V4.8c0-2.6-2.2-4.8-4.8-4.8"/>
  <path fill="#00A78E" d="M413 118.4c-7.6 0-13.8-6.2-13.8-13.8V21.8c0-7.6 6.2-13.8 13.8-13.8h9v18.5c0 1.5 1.2 2.8 2.8 2.8h4.3c1.5 0 2.8-1.2 2.8-2.8V7.9h47.8v18.5c0 1.5 1.2 2.8 2.8 2.8h4.3c1.5 0 2.8-1.2 2.8-2.8V7.9h14.3c7.6 0 13.8 6.2 13.8 13.8v82.8c0 7.6-6.2 13.8-13.8 13.8H413zm5.1-80.5c-3.1 0-5.6 2.5-5.6 5.6v55.3c0 3.1 2.5 5.6 5.6 5.6h80.6c3.1 0 5.6-2.5 5.6-5.6V43.5c0-3.1-2.5-5.6-5.6-5.6h-80.6z"/>
  <path fill="#FFF" d="M503.8 9.8c6.6 0 11.9 5.4 11.9 11.9v82.8c0 6.6-5.4 11.9-11.9 11.9H413c-6.6 0-11.9-5.4-11.9-11.9V21.8c0-6.6 5.4-11.9 11.9-11.9h7.1v16.6c0 2.6 2.1 4.7 4.7 4.7h4.3c2.6 0 4.7-2.1 4.7-4.7V9.8h43.9v16.6c0 2.6 2.1 4.7 4.7 4.7h4.3c2.6 0 4.7-2.1 4.7-4.7V9.8h12.4m-85.7 96.5h80.6c4.1 0 7.5-3.4 7.5-7.5V43.5c0-4.1-3.4-7.5-7.5-7.5h-80.6c-4.1 0-7.5 3.4-7.5 7.5v55.3c0 4.1 3.4 7.5 7.5 7.5M503.8 6h-16.2v20.4c0 .5-.4.9-.9.9h-4.3c-.5 0-.9-.4-.9-.9V6H430v20.4c0 .5-.4.9-.9.9h-4.3c-.5 0-.9-.4-.9-.9V6H413c-8.7 0-15.8 7.1-15.8 15.8v82.8c0 8.7 7.1 15.8 15.8 15.8h90.8c8.7 0 15.8-7.1 15.8-15.8V21.8c0-8.7-7.1-15.8-15.8-15.8m-85.7 96.5c-2 0-3.7-1.6-3.7-3.7V43.5c0-2 1.6-3.7 3.7-3.7h80.6c2 0 3.7 1.6 3.7 3.7v55.3c0 2-1.6 3.7-3.7 3.7h-80.6z"/>
  <path fill="#00A78E" d="M424.7 57.6h6.7v6.7h-6.7z"/>
  <path fill="#ED1C24" d="M434.5 57.6h6.7v6.7h-6.7z"/>
  <path fill="#00A78E" d="M444.3 57.6h6.7v6.7h-6.7zm9.8 0h6.7v6.7h-6.7zm9.8 0h6.7v6.7h-6.7zm9.8 0h6.7v6.7h-6.7zm9.8 0h6.7v6.7h-6.7zm-58.8 8.7h6.7V73h-6.7zm9.8 0h6.7V73h-6.7zm9.8 0h6.7V73h-6.7zm9.8 0h6.7V73h-6.7zm9.8 0h6.7V73h-6.7zm9.8 0h6.7V73h-6.7zm9.8 0h6.7V73h-6.7zm-58.8 8.6h6.7v6.7h-6.7zm9.8 0h6.7v6.7h-6.7zm9.8 0h6.7v6.7h-6.7zm9.8 0h6.7v6.7h-6.7zm9.8 0h6.7v6.7h-6.7zm9.8 0h6.7v6.7h-6.7zm9.8 0h6.7v6.7h-6.7zm-58.8 8.7h6.7v6.7h-6.7zm9.8 0h6.7v6.7h-6.7zm9.8 0h6.7v6.7h-6.7zm9.8 0h6.7v6.7h-6.7zm9.8 0h6.7v6.7h-6.7zm9.8 0h6.7v6.7h-6.7zm9.8 0h6.7v6.7h-6.7zm-58.8 8.6h6.7v6.7h-6.7zm9.8 0h6.7v6.7h-6.7z"/>
  <text transform="translate(424.067 52.392)">
    <tspan x="0" y="0" fill="#00A78E" font-family="Foco" font-size="16.674">P</tspan>
    <tspan x="9.4" y="0" fill="#00A78E" font-family="Foco" font-size="16.674">r</tspan>
    <tspan x="15.6" y="0" fill="#00A78E" font-family="Foco" font-size="16.674">em</tspan>
    <tspan x="39.2" y="0" fill="#00A78E" font-family="Foco" font-size="16.674">i</tspan>
    <tspan x="44.1" y="0" fill="#00A78E" font-family="Foco" font-size="16.674">u</tspan>
    <tspan x="53.9" y="0" fill="#00A78E" font-family="Foco" font-size="16.674">m</tspan>
  </text>
  <path d="M0 420h124.5v100.6H0zm397.5-285H522v385.6H397.5z" fill="#FFF"/>
  <text transform="translate(439.377 207.91)" fill="#00A78E" font-family="'MyriadPro-Regular'" font-size="75">$</text>
  <text transform="translate(439.377 303.536)" fill="#00A78E" font-family="'MyriadPro-Regular'" font-size="75">$</text>
  <text transform="translate(439.377 399.16)" fill="#00A78E" font-family="'MyriadPro-Regular'" font-size="75">$</text>
  <text transform="translate(439.377 494.786)" fill="#00A78E" font-family="'MyriadPro-Regular'" font-size="75">$</text>
  <text transform="translate(45.027 494.786)" fill="#00A78E" font-family="'MyriadPro-Regular'" font-size="75">$</text>
  <path fill="none" stroke="#FFF" stroke-width="4" stroke-linecap="round" stroke-miterlimit="10" d="M538.8 358.4s-.7-32.4 25.7-28.7c8.9 1.3 23.9 7.8 22 28.7v160.3"/>
  <path fill="#FFF" d="M722.7 105.1s1.7-15.2 6.4-10.9c3.9 3.5 5.7 19.8 3.4 31.1-1 5.1-7.1 10.8-9.6 8.3-2.6-2.6-.2-28.5-.2-28.5m-101.3-2.6s-2.2-15.1-7.2-10.8c-5.3 4.6-4.7 24.1-2.9 31.2 1.3 5 8 10.6 10.6 8 2.6-2.5-.5-28.4-.5-28.4"/>
  <path fill="#FFF" d="M619 81c.1 5.3-3.5 48.1 11.5 66.8 8.5 10.7 20.4 20.9 27.2 22.5 11.2 2.6 18.5 4.6 28.4 2.5 9.9-2.1 24.4-12.5 33.4-32.4 4.3-9.5 15.9-84.1-5.6-105.2-14.1-13.7-44.9-12-56.9-11.4-12 .5-38.5 4.7-38 57.2m47.9 437.5s-1.9-14.6-31.8-13.3c-29.9 1.3-32.2 11-33.3 13.5m141.7-.2s-1.9-14.6-31.8-13.3c-29.9 1.3-32.2 11-33.3 13.5"/>
  <path fill="#FFF" d="M634.5 518.6l-5.6-161.2h84L711 518.6h-34.3V388c0-3.4-1.2-6.2-5.1-6.2-3.8 0-5.1 2.8-5.1 6.2v130.6h-32z"/>
  <path fill="#00A78E" d="M692.6 98.7c0 2.9 2.4 5.2 5.3 5.2s5.3-2.4 5.3-5.2c0-2.9-2.4-5.2-5.3-5.2s-5.3 2.3-5.3 5.2"/>
  <path fill="#00A78E" d="M713.9 100.1c-.1 0-7.3-6.9-15.9-6.9-4.4 0-9.2 1.9-13.4 7.4l1.3 1.6c3.8-5.1 8.1-6.7 12.1-6.7 3.9 0 7.7 1.6 10.4 3.3 1.4.8 2.5 1.6 3.3 2.3.4.3.7.6.9.7l.3.3 1-2z"/>
  <path fill="#FFF" d="M696.6 98.6c0 1-.6 1.8-1.2 1.8-.7 0-1.2-.8-1.2-1.8s.6-1.8 1.2-1.8 1.2.8 1.2 1.8"/>
  <path fill="#00A78E" d="M656.7 98.7c0 2.9-2.4 5.2-5.3 5.2s-5.3-2.4-5.3-5.2c0-2.9 2.4-5.2 5.3-5.2s5.3 2.3 5.3 5.2"/>
  <path fill="#00A78E" d="M636.5 101.9l.3-.3c1.4-1.2 7.7-6.3 14.5-6.2 4 0 8.3 1.6 12.1 6.7l1.3-1.6c-4.2-5.6-9-7.5-13.4-7.4-8.6 0-15.8 6.9-15.9 6.9l1.1 1.9z"/>
  <path fill="#FFF" d="M649.3 98.6c0 1-.5 1.8-1.2 1.8s-1.2-.8-1.2-1.8.6-1.8 1.2-1.8c.7 0 1.2.8 1.2 1.8"/>
  <path fill="#00A78E" d="M660.3 75.5s6.8 6 1.1 7.1c-5.7 1.1-15-.9-19.1 0-4.2.9-12.2 4.1-12.2 4.1l-.5-3.4c-.1 0 11-10.5 30.7-7.8m28.3-5.5s-6.6 5.8-.8 7.1c5.7 1.3 15-.4 19.1.7 4.2 1.1 12.4 4.5 12.4 4.5l.4-3.4c-.1 0-11.5-10.9-31.1-8.9m-20.3 56.6s.4.1 1.1.3c.7.2 1.8.4 3 .6 1.2.2 2.7.4 4.2.2.7-.1 1.5-.3 1.9-.8.1-.1.2-.2.3-.4v-.2l.1-.3c.1-.4.1-.8.2-1.2.1-1.6 0-3.3-.1-4.9-.1-1.6-.2-3-.4-4.3-.3-2.5-.5-4.2-.5-4.2s.1.4.3 1.1c.2.7.5 1.7.7 3 .5 2.5 1.1 5.9.9 9.3-.1.4-.1.9-.2 1.3l-.1.3c0 .1 0 .1-.1.2l-.1.2c-.1.2-.3.5-.4.6-.7.8-1.7.9-2.5 1-.8.1-1.6 0-2.4-.1-.7-.1-1.4-.3-2-.4-1.2-.3-2.2-.7-2.9-1-.7-.1-1-.3-1-.3m23.6 17.6s-18.8 7.8-34.2 1.2c2.1 4.5 22.7 15.7 34.2-1.2"/>
  <path fill="#32CFB6" d="M685.4 159.3s-11.6-4.6-21.2-.7c1.3-2.6 14-9.1 21.2.7"/>
  <path fill="#FFF" d="M616.8 90.4s-9.9-25.6-7.9-35.8c2-10.2 7-19.4 25.1-35.8 11.8-10.7 32.6-12.5 34.9-9.9 3.5 4 9.6 5.8 14 .6 4.4-5.1 19.9-1.8 18 2.3 8.3-4.8 14.1 4.1 14.1 4.1s31.3 4 14.2 84.9c-1.5 7.1-3.2 15.2-3.2 15.2-6.3.4-.7-9.4.3-39.2 1.4-41.1-36.8-32.1-50.9-33.7-17.1-1.9-45.8-4.2-50.9 17.9-5.1 22-2.8 51.7-2.8 51.7l-4.7 4.8V90.4z"/>
  <path fill="none" stroke="#00A78E" stroke-width=".987" stroke-miterlimit="10" d="M616.8 90.4s-9.9-25.6-7.9-35.8c2-10.2 7-19.4 25.1-35.8 11.8-10.7 32.6-12.5 34.9-9.9 3.5 4 9.6 5.8 14 .6 4.4-5.1 19.9-1.8 18 2.3 8.3-4.8 14.1 4.1 14.1 4.1s31.3 4 14.2 84.9c-1.5 7.1-3.2 15.2-3.2 15.2-6.3.4-.7-9.4.3-39.2 1.4-41.1-36.8-32.1-50.9-33.7-17.1-1.9-45.8-4.2-50.9 17.9-5.1 22-2.8 51.7-2.8 51.7l-4.7 4.8V90.4z"/>
  <path fill="#FFF" d="M661.5 174s.4 14.5-6.4 18.5c-6.1 3.6-8.9 4.4-8.9 4.4s30.1 12 54.1 2.3c-12.9-3.5-12.1-8-12.1-8l-2.3-15-24.4-2.2z"/>
  <path fill="none" stroke="#00A78E" stroke-width="1.185" stroke-miterlimit="10" d="M661.5 174s.4 14.5-6.4 18.5c-6.1 3.6-8.9 4.4-8.9 4.4s30.1 12 54.1 2.3c-12.9-3.5-12.1-8-12.1-8l-2.3-15-24.4-2.2z"/>
  <path fill="#FFF" d="M745.8 261.1l-30.1 6.9-3.3-14.2 3.5 34.8c.4 5.9.7 25.2-.7 42.5l-3 23.1h-82.3l-3-27.2c-.9-14.3.1-35.7.6-41.2l1.9-46.6-13.9 18.8-22.3-21.6s7.2-7.9 16.2-23.2c7.6-13.1 36.7-16.2 36.7-16.2l27.7 4.4 26.4-2.1s24.5 6.2 34.9 28.5c10.3 22.4 10.3 33.1 10.3 33.1"/>
  <path fill="none" stroke="#00A78E" stroke-width=".987" stroke-miterlimit="10" d="M745.8 261.1l-30.1 6.9-3.3-14.2 3.5 34.8c.4 5.9.7 25.2-.7 42.5l-3 23.1h-82.3l-3-27.2c-.9-14.3.1-35.7.6-41.2l1.9-46.6-13.9 18.8-22.3-21.6s7.2-7.9 16.2-23.2c7.6-13.1 36.7-16.2 36.7-16.2l27.7 4.4 26.4-2.1s24.5 6.2 34.9 28.5c10.3 22.4 10.3 33.1 10.3 33.1"/>
  <path fill="#FFF" d="M570.1 325c-.2 1-7.2-.7-7.2-.7s-1.2-1.4-1.7-1.3c-.4.1-1.9.9-1.9.9-1.4.5-1.3 2.1-1.6 3.5-.2 1.1-.4 2.3-.6 3.2-.1.6 0 1.3.4 1.9l1.8 4c.4 1-.3 1.4-.9 1.9l-.7.1c-1 .2-2.2-.4-2.6-1.4l-1.9-4.5c-.3-.3-.5-.6-.5-1l-.3-11.2c0-.7.8-3.2 1.3-3.7l7.6-7.2c.2-.2 1.5-1.9 1.6-2.2l14.5-41.8 4-6.5s12.8-21.1 14.5-19.5l17.1 16.6c1.3 1.3-5.6 4.5-5.6 4.5-7.2 6.8-9.7 9.2-13.2 13.7l-22.3 41-.3.6-1.5 9.1z"/>
  <path fill="none" stroke="#00A78E" stroke-width=".987" stroke-miterlimit="10" d="M570.1 325c-.2 1-7.2-.7-7.2-.7s-1.2-1.4-1.7-1.3c-.4.1-1.9.9-1.9.9-1.4.5-1.3 2.1-1.6 3.5-.2 1.1-.4 2.3-.6 3.2-.1.6 0 1.3.4 1.9l1.8 4c.4 1-.3 1.4-.9 1.9l-.7.1c-1 .2-2.2-.4-2.6-1.4l-1.9-4.5c-.3-.3-.5-.6-.5-1l-.3-11.2c0-.7.8-3.2 1.3-3.7l7.6-7.2c.2-.2 1.5-1.9 1.6-2.2l14.5-41.8 4-6.5s12.8-21.1 14.5-19.5l17.1 16.6c1.3 1.3-5.6 4.5-5.6 4.5-7.2 6.8-9.7 9.2-13.2 13.7l-22.3 41-.3.6-1.5 9.1z"/>
  <path fill="#FFF" d="M726.1 382.7c-.8 0-1.5-.3-2-.8l-.6-.6-.1-.3c-.2-.7-.5-1.7.6-2.4l3.7-2.4c.6-.3 1-.7 1.2-1.2l1.3-2.9c.5-1.1.3-2.4-.4-3.4l-1-1.5-6 7.8h-.2c-1.3 0-2.1-.4-2.5-1-.6-.9-.4-2.4.6-4.5L725 355c.1-.2.1-.3.1-.5l3.8-46.5c-.4-2.6-1.2-6.2-2.3-10.6-.1-.3-.1-.4-.1-.5-1.9-6-8-26.1-6.8-28.1.1-.2.3-.3.5-.3l23.4-4.6h.1c.8 0 1.9 0 3.8 19.3.9 9.3 1.5 18.8 1.5 18.9l-.2 7.7-10.9 43c0 .3.1 2.2.1 2.5l2.4 10.2c.1.8-.6 3.6-1 4.2l-6.4 9.2c-.3.4-.7.6-1.2.8l-4 2.7c-.6.1-1.1.3-1.7.3"/>
  <path fill="#00A78E" d="M743.6 264.3c2.4 0 4.8 37.7 4.8 37.7l-.2 7.6-10.9 43c-.1.3 0 2.4.1 2.7l2.4 10.2c.1.6-.6 3.2-1 3.8l-6.4 9.2c-.2.3-.6.5-.9.6l-4 2.7c-.4.3-.9.4-1.3.4-.6 0-1.2-.2-1.6-.6l-.5-.5c-.2-.7-.6-1.5.3-2.1l3.7-2.4c.6-.4 1.1-.9 1.4-1.4.3-.8.8-1.9 1.3-2.9.6-1.3.4-2.7-.4-3.9l-1.4-2-5.4 7-.9 1.2h-.1c-3 0-2.6-2.4-1.4-4.9l4.4-14.5c.1-.2.1-.4.1-.6l3.8-46.6c-.6-4.6-2.4-11-2.5-11.1 0 0-8.5-27.5-6.7-27.8l23.3-4.8c-.1 0-.1 0 0 0m0-1h-.2L720 268c-.3.1-.6.3-.8.6-.3.6-.9 1.6 2.9 15.4 1.8 6.5 3.8 12.9 3.9 13.2 0 .1.1.2.1.4 1.2 4.4 2 7.9 2.3 10.5l-3.8 46.5c0 .2 0 .3-.1.4l-4.4 14.5c-1.1 2.3-1.3 3.8-.6 4.9.5.8 1.5 1.3 2.9 1.3h.6l.3-.4.9-1.2 4.5-5.9.6.9c.6.9.8 2 .3 2.9l-1.3 3c-.2.4-.5.7-.9 1l-3.7 2.4c-1.4 1-1 2.3-.8 3l.1.2.1.2.2.2.5.5c.6.6 1.4.9 2.3.9.7 0 1.3-.2 1.9-.6l3.9-2.6c.6-.2 1-.5 1.4-.9l6.4-9.2c.5-.7 1.3-3.5 1.1-4.5l-2.4-10.2c0-.4-.1-2-.1-2.3l10.8-42.9v-.2l.2-7.6c0-.1-.6-9.6-1.5-18.9-.5-5.5-1.1-9.9-1.6-13-.8-6.2-1.5-7.2-2.6-7.2"/>
  <path fill="#FFF" d="M699.2 142.2c-.1-2.7-1-4.9-1-4.9-6.1-12.8-23.3-4.7-23.3-4.7h-.2s-17.2-8.2-23.3 4.7c0 0-1 2.3-1 4.9-.2 1.6-.1 2.6.3 2.4.4-.2.9-.1 1.1.2.2.4.6.4 1 0 .3-.4.8-.4 1.1 0 .3.4.7.4 1.1 0 .3-.4.8-.4 1.1 0 .3.4.7.4 1 0 .3-.4.8-.4 1.2 0 .4.4.9.4 1.3 0 .3-.4.9-.4 1.2.1.3.4.9.4 1.2 0 .3-.4.8-.5 1.2-.1.3.4.8.4 1.1 0 .3-.4.8-.4 1.1 0 .3.4.8.4 1 0 .2-.4.6-.4 1 0s.8.4 1 0c.2-.4.6-.4 1-.1.4.4 1 .4 1.3 0 .4-.4.8-.5 1-.2s.9.1 1.5-.5c.3-.3 1.1-1.5 1.8-1.5.8 0 1.4 1.2 1.8 1.5.6.6 1.3.8 1.5.5.2-.3.7-.2 1 .2.4.4.9.4 1.3 0s.8-.4 1 .1c.2.4.6.4 1 0s.8-.4 1 0c.2.4.6.4 1 0 .3-.4.8-.4 1.1 0 .3.4.7.4 1.1 0 .3-.4.8-.4 1.2.1.3.4.9.4 1.2 0 .3-.4.9-.5 1.2-.1.3.4.9.4 1.3 0s.9-.4 1.2 0c.3.4.7.4 1 0 .3-.4.8-.4 1.1 0 .3.4.8.4 1.1 0s.7-.4 1.1 0c.3.4.8.4 1 0 .2-.4.7-.5 1.1-.2 0 .3.1-.8-.1-2.4"/>
  <path fill="none" stroke="#00A78E" stroke-miterlimit="10" d="M699.2 142.2c-.1-2.7-1-4.9-1-4.9-6.1-12.8-23.3-4.7-23.3-4.7h-.2s-17.2-8.2-23.3 4.7c0 0-1 2.3-1 4.9-.2 1.6-.1 2.6.3 2.4.4-.2.9-.1 1.1.2.2.4.6.4 1 0 .3-.4.8-.4 1.1 0 .3.4.7.4 1.1 0 .3-.4.8-.4 1.1 0 .3.4.7.4 1 0 .3-.4.8-.4 1.2 0 .4.4.9.4 1.3 0 .3-.4.9-.4 1.2.1.3.4.9.4 1.2 0 .3-.4.8-.5 1.2-.1.3.4.8.4 1.1 0 .3-.4.8-.4 1.1 0 .3.4.8.4 1 0 .2-.4.6-.4 1 0s.8.4 1 0c.2-.4.6-.4 1-.1.4.4 1 .4 1.3 0 .4-.4.8-.5 1-.2s.9.1 1.5-.5c.3-.3 1.1-1.5 1.8-1.5.8 0 1.4 1.2 1.8 1.5.6.6 1.3.8 1.5.5.2-.3.7-.2 1 .2.4.4.9.4 1.3 0s.8-.4 1 .1c.2.4.6.4 1 0s.8-.4 1 0c.2.4.6.4 1 0 .3-.4.8-.4 1.1 0 .3.4.7.4 1.1 0 .3-.4.8-.4 1.2.1.3.4.9.4 1.2 0 .3-.4.9-.5 1.2-.1.3.4.9.4 1.3 0s.9-.4 1.2 0c.3.4.7.4 1 0 .3-.4.8-.4 1.1 0 .3.4.8.4 1.1 0s.7-.4 1.1 0c.3.4.8.4 1 0 .2-.4.7-.5 1.1-.2 0 .3.1-.8-.1-2.4z"/>
  <path fill="#00A78E" d="M735.7 93.2c-.5-.2-1-.4-1.6-.6-11.6-3.9-23.4-6-35.6-5.4-5.2.3-10.4 1.1-15.2 3.3-1.6.7-3.2 1.5-3.2 3.6-1.8-.3-10.5-.3-12.3 0 0-2.1-1.6-2.9-3.2-3.6-4.8-2.2-10-3-15.2-3.3-12.2-.6-24.1 1.5-35.6 5.4-.5.2-1 .4-1.6.6-2.2 1-3.1 2.6-2.6 5 .1.3.6.8 1 .8 2.6.1 2.2 0 3.3 1.8.5.8.9 1.5 1.8 1.9 3.1 1.4 3.9 1 4.9 4.5.6 2.1 2.5 5.9 3.9 7.6 2.7 3.3 6.6 5.1 10.9 5.6 5.6.7 11.2.5 16.7-.9 5.1-1.2 8.5-4.5 10.9-9 1.6-3.1 2.6-6.4 2.8-9.9.2-3.3 2.9-5.1 6.3-5.2h4c3.3.1 6 1.8 6.3 5.2.2 3.5 1.2 6.8 2.8 9.9 2.4 4.5 5.8 7.8 10.9 9 5.5 1.3 11.1 1.6 16.7.9 4.3-.5 8.3-2.3 10.9-5.6 1.4-1.7 3.3-5.6 3.9-7.6 1-3.5 1.8-3.2 4.9-4.5.9-.4 1.3-1.1 1.8-1.9 1.1-1.8.6-1.7 3.3-1.8.3 0 .9-.5 1-.8.2-2.4-.7-4-2.9-5m-70.8 8.5c-.3 1.7-.5 3.5-1.1 5.2-2.3 6.3-6.3 11-13.2 12.4-5.2 1-10.5.8-15.8.3-6.7-.7-10.6-4.7-12.6-10.7-.7-2.1-1.3-4.5-1.1-6.7.8-8.9 10.8-11.4 18.6-12.1 6.9-.6 13.6-.1 20 2.6 3.6 1.5 6 4.2 5.2 9m60.8 7.1c-2 6-5.9 10-12.6 10.7-5.3.5-10.6.7-15.8-.3-6.9-1.4-10.9-6-13.2-12.4-.6-1.6-.8-3.4-1.1-5.2-.8-4.8 1.6-7.5 5.2-9 6.4-2.7 13.1-3.1 20-2.6 7.8.6 17.8 3.2 18.6 12.1.2 2.3-.4 4.6-1.1 6.7"/>
  <path fill="#FFF" d="M285.5 101.7s1.7-15.3 6.4-11c3.9 3.5 5.8 19.9 3.4 31.3-1 5.1-7.1 10.8-9.7 8.3-2.5-2.5-.1-28.6-.1-28.6m-102-2.7s-2.2-15.2-7.3-10.8c-5.3 4.6-4.8 24.2-3 31.4 1.3 5.1 8 10.6 10.7 8.1 2.8-2.6-.4-28.7-.4-28.7"/>
  <path fill="#FFF" d="M181.1 77.5c.1 5.4-3.5 48.4 11.5 67.3 8.5 10.7 20.5 21.1 27.4 22.7 11.3 2.6 18.6 4.6 28.6 2.5 10-2.1 24.6-12.6 33.7-32.6 4.3-9.6 16-84.7-5.6-105.9-14.2-13.9-45.2-12.2-57.3-11.6-12.1.4-38.8 4.7-38.3 57.6m15.7 440.6l-5.7-162.3h84.5l-1.9 162.3h-34.5V386.6c0-3.5-1.2-6.3-5.1-6.3-3.9 0-5.1 2.8-5.1 6.3v131.5h-32.2z"/>
  <path fill="#00A78E" d="M255.3 95.3c0 2.9 2.4 5.3 5.4 5.3 3 0 5.4-2.4 5.4-5.3s-2.4-5.3-5.4-5.3c-3 0-5.4 2.4-5.4 5.3"/>
  <path fill="#00A78E" d="M276.7 96.6c-.1 0-7.3-7-16-7-4.4 0-9.3 1.9-13.5 7.5l1.3 1.6c3.9-5.1 8.1-6.8 12.2-6.8 4 0 7.7 1.6 10.5 3.3 1.4.8 2.5 1.6 3.3 2.3.4.3.7.6.9.7l.3.3 1-1.9z"/>
  <path fill="#FFF" d="M259.3 95.2c0 1-.6 1.8-1.2 1.8-.7 0-1.2-.8-1.2-1.8s.6-1.8 1.2-1.8c.6-.1 1.2.8 1.2 1.8"/>
  <path fill="#00A78E" d="M219.1 95.3c0 2.9-2.4 5.3-5.4 5.3-3 0-5.4-2.4-5.4-5.3s2.4-5.3 5.4-5.3c3 0 5.4 2.4 5.4 5.3"/>
  <path fill="#00A78E" d="M198.8 98.5l.3-.3c1.4-1.2 7.7-6.3 14.6-6.3 4.1 0 8.3 1.7 12.2 6.8l1.3-1.6c-4.2-5.6-9-7.5-13.5-7.5-8.7 0-15.9 7-16 7l1.1 1.9z"/>
  <path fill="#FFF" d="M211.7 95.2c0 1-.6 1.8-1.2 1.8-.7 0-1.2-.8-1.2-1.8s.6-1.8 1.2-1.8c.6-.1 1.2.8 1.2 1.8"/>
  <path fill="#00A78E" d="M222.7 71.9s6.8 6 1.1 7.1c-5.7 1.1-15.1-.9-19.3 0-4.2.9-12.3 4.1-12.3 4.1l-.5-3.4s11.1-10.5 31-7.8m28.5-5.5s-6.6 5.8-.8 7.1c5.8 1.3 15.1-.4 19.3.7 4.2 1.1 12.5 4.6 12.5 4.6l.4-3.4c-.1-.1-11.7-11.1-31.4-9m-20.5 57s.4.1 1.2.2c.7.1 1.8.3 3 .4 1.2.1 2.7.3 4.1.1.7-.1 1.3-.3 1.6-.7.1-.1.1-.2.2-.3v-.1.1-.1l.1-.3c.1-.4.1-.7.2-1.1.1-.8.1-1.6.1-2.4 0-.8 0-1.6-.1-2.4-.1-1.6-.2-3.1-.2-4.3-.1-2.5-.2-4.3-.2-4.3s.7 1.6 1.3 4.1c.3 1.2.6 2.7.9 4.3.1.8.2 1.6.3 2.5v2.7c-.1.5-.1 1.1-.3 1.4l-.1.3v.2l-.1.2c-.1.3-.3.6-.5.8-.4.5-1 .7-1.5.9-.5.1-1 .2-1.4.2-.9.1-1.7-.1-2.5-.2s-1.4-.3-2.1-.5c-1.2-.4-2.2-.8-2.9-1.2-.7-.3-1.1-.5-1.1-.5m-10.6 9.4s19 7.9 34.5 1.2c-2.2 4.6-22.9 15.8-34.5-1.2"/>
  <path fill="#00A78E" d="M178.9 86.9s-9.9-25.7-7.9-36 7.1-19.6 25.3-36c11.9-10.8 32.8-12.6 35.2-10 3.5 4 9.7 5.8 14.1.6 4.4-5.1 20.1-1.8 18.1 2.4 8.4-4.8 14.2 4.1 14.2 4.1s31.5 4 14.3 85.5c-1.5 7.2-3.3 15.3-3.3 15.3-6.4.4-.7-9.5.3-39.5 1.4-41.4-37.1-32.4-51.3-34-17.2-1.9-46.1-4.2-51.3 18-5.2 22.2-2.8 52.1-2.8 52.1l-4.8 4.9V86.9z"/>
  <path fill="none" stroke="#FFF" stroke-width="2" stroke-miterlimit="10" d="M178.9 86.9s-9.9-25.7-7.9-36 7.1-19.6 25.3-36c11.9-10.8 32.8-12.6 35.2-10 3.5 4 9.7 5.8 14.1.6 4.4-5.1 20.1-1.8 18.1 2.4 8.4-4.8 14.2 4.1 14.2 4.1s31.5 4 14.3 85.5c-1.5 7.2-3.3 15.3-3.3 15.3-6.4.4-.7-9.5.3-39.5 1.4-41.4-37.1-32.4-51.3-34-17.2-1.9-46.1-4.2-51.3 18-5.2 22.2-2.8 52.1-2.8 52.1l-4.8 4.9V86.9z"/>
  <path fill="#FFF" d="M224 171.1s.4 14.6-6.5 18.6c-6.2 3.6-9 4.4-9 4.4s30.3 12.1 54.5 2.3c-13-3.5-12.2-8-12.2-8l-2.3-15.1-24.5-2.2z"/>
  <path fill="none" stroke="#00A78E" stroke-width="2" stroke-miterlimit="10" d="M224 171.1s.4 14.6-6.5 18.6c-6.2 3.6-9 4.4-9 4.4s30.3 12.1 54.5 2.3c-13-3.5-12.2-8-12.2-8l-2.3-15.1-24.5-2.2z"/>
  <path fill="#FFF" d="M308.8 258.8l-30.3 7-3.3-14.3 3.5 35.1c.4 6 .7 25.3-.7 42.8l-3 23.3h-82.9l-3-27.4c-.9-14.4.1-35.9.6-41.4l4.8-32.7-4 13.5-29-6.9s3.1-10.6 13.5-33.2c10.4-22.5 33.5-30.4 33.5-30.4l27.9 4.5 26.6-2.1s24.7 6.2 35.1 28.7c10.4 22.5 10.4 33.3 10.4 33.3"/>
  <path fill="none" stroke="#00A78E" stroke-width="2" stroke-miterlimit="10" d="M308.8 258.8l-30.3 7-3.3-14.3 3.5 35.1c.4 6 .7 25.3-.7 42.8l-3 23.3h-82.9l-3-27.4c-.9-14.4.1-35.9.6-41.4l4.8-32.7-4 13.5-29-6.9s3.1-10.6 13.5-33.2c10.4-22.5 33.5-30.4 33.5-30.4l27.9 4.5 26.6-2.1s24.7 6.2 35.1 28.7c10.4 22.5 10.4 33.3 10.4 33.3"/>
  <path fill="#FFF" d="M186.4 367.8c1.1 2.5 1.5 4.9-1.6 4.9l-.9-1.2-5.2-7.2-1.5 2c-.9 1.2-1.1 2.6-.5 3.9.4 1 .9 2.2 1.2 3 .2.6.7 1.1 1.3 1.5l3.6 2.5c.9.6.5 1.4.3 2.1l-.5.5c-.8.7-2.1.8-3 .2l-4-2.8c-.4-.1-.7-.3-.9-.6l-6.2-9.4c-.4-.6-1-3.2-.9-3.8l2.7-10.2c.1-.3.2-2.4.2-2.7l-9.8-43.5v-7.7s1.1-38.4 3.5-37.9l23.4 5.1c1.8.4-3.8 20.3-3.8 20.3-2.5 9.7-3.4 13-4.1 18.7l2.6 47c0 .2 0 .4.1.7l4 14.6z"/>
  <path fill="none" stroke="#00A78E" stroke-width="2" stroke-miterlimit="10" d="M186.4 367.8c1.1 2.5 1.5 4.9-1.6 4.9l-.9-1.2-5.2-7.2-1.5 2c-.9 1.2-1.1 2.6-.5 3.9.4 1 .9 2.2 1.2 3 .2.6.7 1.1 1.3 1.5l3.6 2.5c.9.6.5 1.4.3 2.1l-.5.5c-.8.7-2.1.8-3 .2l-4-2.8c-.4-.1-.7-.3-.9-.6l-6.2-9.4c-.4-.6-1-3.2-.9-3.8l2.7-10.2c.1-.3.2-2.4.2-2.7l-9.8-43.5v-7.7s1.1-38.4 3.5-37.9l23.4 5.1c1.8.4-3.8 20.3-3.8 20.3-2.5 9.7-3.4 13-4.1 18.7l2.6 47c0 .2 0 .4.1.7l4 14.6z"/>
  <path fill="#FFF" d="M289 381.7c-.9 0-1.7-.3-2.3-.9l-.7-.7-.1-.4c-.2-.7-.7-2 .8-3l3.7-2.4c.5-.3.8-.6 1-1l1.3-3c.4-1 .3-2-.3-2.9l-.6-.9-5.8 7.5h-.5c-1.5 0-2.4-.4-3-1.3-.7-1.1-.5-2.7.6-5l4.4-14.6c0-.1.1-.3.1-.4l3.8-46.8c-.4-2.6-1.2-6.2-2.3-10.5 0-.2-.1-.3-.1-.4-3.1-9.9-8-26.7-6.8-28.7.2-.3.5-.5.8-.6l23.6-4.7h.1c1.2 0 2.4 0 4.3 19.9.9 9.4 1.5 18.9 1.5 19l-.2 7.9-11 43.4c0 .3.1 2 .1 2.3l2.4 10.2c.2 1-.6 3.9-1.1 4.6l-6.5 9.3c-.3.4-.8.8-1.4.9l-3.9 2.6c-.6.4-1.2.6-1.9.6"/>
  <path fill="#00A78E" d="M306.6 262c2.4 0 4.8 38 4.8 38l-.2 7.7-10.9 43.3c-.1.3 0 2.4.1 2.7l2.4 10.3c.1.6-.6 3.2-1 3.8l-6.5 9.3c-.2.3-.6.5-1 .6l-4.1 2.7c-.4.3-.9.4-1.4.4-.6 0-1.2-.2-1.6-.6l-.5-.5c-.2-.7-.6-1.5.3-2.1l3.7-2.4c.6-.4 1.1-.9 1.4-1.4.3-.8.8-2 1.3-3 .6-1.3.4-2.7-.4-3.9l-1.4-2-5.4 7-.9 1.2h-.1c-3 0-2.6-2.4-1.4-4.9l4.5-14.7c.1-.2.1-.4.1-.7l3.8-46.9c-.6-4.7-2.5-11-2.5-11.2 0 0-8.6-27.7-6.8-28l23.7-4.7c-.1 0-.1 0 0 0m0-2h-.4l-23.5 4.6c-.6.1-1.1.5-1.5 1.1-.5.9-1.2 2 2.8 16.2 1.8 6.5 3.8 12.9 3.9 13.3 0 .1.1.2.1.4 1.2 4.3 1.9 7.8 2.3 10.3l-3.8 46.7v.2l-4.4 14.5c-.8 1.7-1.6 4-.5 5.9.5.8 1.6 1.8 3.7 1.8h1.1l.6-.8.9-1.2 3.7-4.9c.3.6.4 1.2.1 1.8l-1.2 2.8-.1.2c-.1.2-.3.3-.5.5h-.2l-3.7 2.4c-2.1 1.4-1.4 3.5-1.2 4.2l.1.2.2.5.4.4.5.5c.8.7 1.9 1.2 3 1.2.9 0 1.7-.2 2.4-.7l3.8-2.6c.7-.2 1.3-.7 1.7-1.3l6.5-9.3c.6-.9 1.5-4 1.3-5.2v-.2l-2.4-10.2c0-.4-.1-1.6-.1-2l10.9-43.1.1-.2v-.2l.2-7.7v-.2c0-.1-.6-9.6-1.5-19.1-.5-5.6-1.1-10-1.6-13.2-.9-5.3-1.6-7.6-3.7-7.6"/>
  <path fill="#FFF" d="M227.2 517.9s-1.8-13.7-29.8-12.5c-28 1.2-30.2 10.3-31.2 12.7m134.7-.2s-1.8-13.7-29.8-12.5c-28 1.2-30.2 10.3-31.2 12.7"/>
</svg>