<svg xmlns="http://www.w3.org/2000/svg" width="275.3" height="594.4" viewBox="0 0 275.3 594.4">
  <path fill="#FFF" d="M131.6 579.6s-5.4-15.8-38.3-7.6c-32.9 8.1-33.3 19.4-34 22.5m155.4-2.3s.7-16.6-32.9-20.9c-33.6-4.3-38 6-39.8 8.7"/>
  <path fill="#FFF" d="M94.2 580.1l-5.4-186.4h93l-1.1 186.4h-38.8V432.3c0-3.9-1.4-7-5.7-7-4.3 0-5.7 3.2-5.7 7v147.8H94.2zm30.4-394.5c0-.3 28.9.9 28.9.9s-.3 28.8 16 33l-9.1 13-28-.8-17.9-2.8-5.6-13c-.1 0 16.2-11.3 15.7-30.3zM52.9 319.8c0 .2-1 7.6-2.4 12.7l-22.9 43.2c-3.1-.8-6.5-.2-6.5-.2l-14.7 4.8c-3 2.3.8 4.6.8 4.6l7-1.5c1.8.4.8 1.8.8 1.8L0 401.9c.2 3.4 3.1 2.6 3.1 2.6l9.4-10.5c2.8-.1 1.8 1.8 1.8 1.8L3.1 408.3c-.9 3.4 2.8 2.5 2.8 2.5l11.5-12.9c1.5.1 1.3 1.4 1.3 1.4l-10 11.2c-.1 4.1 3.1 2.8 3.1 2.8l10.8-12.2c2.5-.4 1.6 1.4 1.6 1.4l-7.5 8.4c.4 4.2 3 2.9 3.7 2.1 4.7-5.3 12.4-13.2 16-18 3-3.9 2.4-7.8 1.4-10.3.3-.8.7-2 .9-2.2l30.4-39.8 3.6-7.8s14.4-40.8 11.8-41.4l-26.3-5.6c-1.9-.4-5.3 31.9-5.3 31.9zm169.5 0c0 .2 1 7.6 2.4 12.7l22.9 43.2c3.1-.8 6.5-.2 6.5-.2l14.7 4.8c3 2.3-.8 4.6-.8 4.6l-7-1.5c-1.8.4-.8 1.8-.8 1.8l15 16.8c-.2 3.4-3.1 2.6-3.1 2.6l-9.4-10.5c-2.8-.1-1.8 1.8-1.8 1.8l11.2 12.6c.9 3.4-2.8 2.5-2.8 2.5l-11.5-12.9c-1.5.1-1.3 1.4-1.3 1.4l10 11.2c.1 4.1-3.1 2.8-3.1 2.8l-10.8-12.2c-2.5-.4-1.6 1.4-1.6 1.4l7.5 8.4c-.4 4.2-3 2.9-3.7 2.1-4.7-5.3-12.4-13.2-16-18-3-3.9-2.4-7.8-1.4-10.3-.3-.8-.7-2-.9-2.2l-30.6-40-3.6-7.8s-14.4-40.8-11.8-41.4l26.3-5.6c2.1-.4 5.5 31.9 5.5 31.9z"/>
  <path fill="#FFF" stroke="#00A78E" stroke-width="2" stroke-miterlimit="10" d="M220.2 288.7l-34.1 7.9-3.7-16.1 3.9 39.4c.5 6.7.8 28.5-.8 48.1l-3.3 26.2H89l-3.4-30.8c-1-16.2.1-40.4.7-46.6l5.4-36.8-4.5 15.2-32.6-7.7s3.5-11.9 15.2-37.3c11.7-25.3 39.9-35.4 39.9-35.4s15.8 6.4 29.2 6.3 29.9-2.4 29.9-2.4 27.7 7 39.4 32.3c11.7 25.3 11.7 37.5 11.7 37.5"/>
  <path fill="#FFF" d="M194.7 111.7s3.2-17 8.2-11.8c4.1 4.3 4.8 22.8 1.1 35.4-1.6 5.6-8.9 11.5-11.6 8.5-2.6-3 2.3-32.1 2.3-32.1m-113.6 0s-3.2-17-8.1-11.8c-4.1 4.3-4.8 22.8-1.3 35.4 1.6 5.6 8.9 11.6 11.5 8.6 2.7-3.1-2.1-32.2-2.1-32.2m39.4-4.3s-2.5-17.1-8.2-12.2c-5.9 5.2-5.3 27.2-3.3 35.3 1.4 5.7 9 12 12 9.1 3.1-2.8-.5-32.2-.5-32.2"/>
  <path fill="#FFF" stroke="#00A78E" stroke-width="2" stroke-miterlimit="10" d="M76.7 84.9c.1 6-3.9 54.4 13 75.6 9.6 12.1 23.4 22.5 30.8 25.5 10.7 4.4 20.9 5.2 32.2 2.8 11.2-2.4 27.7-14.1 37.8-36.7 4.8-10.7 18-95.2-6.3-119-15.9-15.6-50.8-13.7-64.4-13.1-13.7.6-43.7 5.4-43.1 64.9"/>
  <path fill="#00A78E" d="M160 104.9c0 3.3 2.7 5.9 6 5.9s6-2.7 6-5.9c0-3.3-2.7-5.9-6-5.9s-6 2.6-6 5.9"/>
  <path fill="#00A78E" d="M184 106.4c-.1 0-8.2-7.8-18-7.9-5 0-10.4 2.1-15.2 8.4l1.5 1.8c4.4-5.8 9.1-7.6 13.7-7.6 4.4 0 8.7 1.8 11.8 3.7 1.6.9 2.8 1.9 3.7 2.5.4.3.8.6 1 .8l.3.3 1.2-2z"/>
  <path fill="#FFF" d="M164.5 104.8c0 1.1-.6 2.1-1.4 2.1-.8 0-1.4-.9-1.4-2.1 0-1.1.6-2.1 1.4-2.1.8 0 1.4.9 1.4 2.1"/>
  <path fill="#00A78E" d="M119.4 104.9c0 3.3-2.7 5.9-6 5.9s-6-2.7-6-5.9c0-3.3 2.7-5.9 6-5.9s6 2.6 6 5.9"/>
  <path fill="#00A78E" d="M96.5 108.5l.3-.3c1.6-1.4 8.7-7.1 16.4-7.1 4.6 0 9.3 1.9 13.7 7.6l1.4-1.8c-4.7-6.3-10.2-8.4-15.1-8.4-9.8 0-17.9 7.8-18 7.9l1.3 2.1z"/>
  <path fill="#FFF" d="M111 104.8c0 1.1-.6 2.1-1.4 2.1-.8 0-1.4-.9-1.4-2.1 0-1.1.6-2.1 1.4-2.1.8 0 1.4.9 1.4 2.1"/>
  <path fill="#00A78E" d="M123.4 78.6s7.7 6.8 1.2 8c-6.4 1.2-17-1.1-21.6 0-4.7 1-13.9 4.6-13.9 4.6l-.6-3.9c0 .1 12.6-11.8 34.9-8.7m32-6.2s-7.4 6.5-1 8c6.5 1.5 16.9-.4 21.7.8 4.7 1.2 14 5.1 14 5.1l.5-3.8c0-.1-13-12.4-35.2-10.1m-23 64.1s.5.1 1.3.2 2 .3 3.4.5 3.1.3 4.7.1c.8-.1 1.5-.4 1.9-.8.1-.1.2-.2.2-.3v-.1.1-.1l.1-.3c.2-.5.1-.8.2-1.2.1-.9.1-1.8.1-2.7 0-.9 0-1.8-.1-2.7-.1-1.8-.2-3.4-.3-4.9-.2-2.9-.2-4.8-.2-4.8s.7 1.8 1.4 4.6c.3 1.4.7 3.1.9 4.9.1.9.2 1.8.3 2.8v3c-.1.5-.1 1.2-.3 1.6l-.1.3v.2l-.1.2c-.1.3-.3.6-.6.8-.5.5-1.1.8-1.6.9-.5.2-1.1.2-1.6.3-1 .1-1.9-.1-2.8-.2-.8-.1-1.6-.4-2.3-.6-1.4-.4-2.5-.9-3.3-1.3-.8-.3-1.2-.5-1.2-.5m-12 10.6s21.3 8.8 38.7 1.4c-2.4 5.1-25.6 17.7-38.7-1.4"/>
  <path fill="#00A78E" stroke="#FFF" stroke-width="2" stroke-miterlimit="10" d="M74.1 95.5S62.9 66.6 65.2 55c2.3-11.6 8-22 28.4-40.5C106.9 2.4 130.5.3 133.1 3.3c4 4.5 10.9 6.5 15.8.7 5-5.8 22.6-2.1 20.3 2.6 9.4-5.4 15.9 4.6 15.9 4.6s35.4 4.5 16 96.1c-1.7 8-3.7 17.2-3.7 17.2-7.2.4-.8-10.7.4-44.4 1.5-46.6-41.7-36.4-57.7-38.2-19.4-2.2-51.8-4.7-57.7 20.3-4.1 17.8-4 38.9-3.5 50.2.2 4.8.4 5.4-2.9 8.8h-1l-.9-25.7z"/>
</svg>