<svg xmlns="http://www.w3.org/2000/svg" width="414.8" height="594.5" viewBox="0 0 414.8 594.5">
  <path fill="#FFF" d="M163.4 568.9s-7.7-14.8-39-1.8-30 24.2-30.2 27.4m239.1-.4s2.8-16.4-29.9-25.1c-32.7-8.6-38.5 1-40.6 3.4"/>
  <path fill="#FFF" d="M126.4 569.1L162 395.7h93l47.9 176.4h-38.8s-47.9-145-54.7-144.9c-6 0-46.7 141.9-46.7 141.9h-36.3zm71.3-381.5c0-.3 28.9.9 28.9.9s-.3 28.8 16 33l-9.1 13-28-.8-17.9-2.8-5.6-13s16.2-11.3 15.7-30.3zm-94.8 61.2c-.2 0-7.4 2-12.6 2.7l-48.7-4.2c-.4-3.2-2.3-6-2.3-6l-10.2-11.7c-3.3-1.8-3.9 2.5-3.9 2.5l4.1 5.8c.4 1.8-1.3 1.4-1.3 1.4l-21.3-7.2c-3.1 1.5-1.2 3.9-1.2 3.9l13.4 4.6c1.1 2.5-.9 2.3-.9 2.3l-16-5.5c-3.4.5-1.2 3.6-1.2 3.6l16.3 5.6c.5 1.5-.7 1.7-.7 1.7l-14.3-4.9c-3.8 1.5-1.3 3.9-1.3 3.9l15.4 5.2c1.4 2.2-.7 2-.7 2L4.8 251c-3.7 2-1.5 3.9-.5 4.3 6.7 2.3 17 6.3 22.8 7.8 4.8 1.2 8.1-.8 10.1-2.7.8-.1 2.1-.1 2.4 0l48.6 12.5 8.6.3s43.2-2.6 42.7-5.3l-5.1-26.4c-.4-2.2-31.5 7.3-31.5 7.3zm208.7-3.6c.2.1 7.1 2.7 12.3 3.9l48.8.3c.7-3.1 2.9-5.8 2.9-5.8l11.2-10.7c3.4-1.5 3.7 2.9 3.7 2.9l-4.7 5.4c-.5 1.8 1.2 1.5 1.2 1.5l21.9-5.2c2.9 1.8.8 4 .8 4l-13.7 3.3c-1.4 2.4.7 2.4.7 2.4l16.4-3.9c3.4.8.9 3.7.9 3.7l-16.8 4c-.6 1.4.6 1.8.6 1.8l14.7-3.5c3.6 1.9 1 4.1 1 4.1l-15.8 3.8c-1.6 2 .5 2.1.5 2.1l11-2.6c3.5 2.4 1.1 4 .1 4.3-6.9 1.6-17.5 4.7-23.4 5.6-4.9.8-8-1.5-9.8-3.6-.8-.1-2.1-.3-2.4-.3l-49.5 7.9-8.6-.5s-42.8-6.6-42-9.3l7.5-25.9c.4-2.1 30.5 10.3 30.5 10.3z"/>
  <path fill="#FFF" stroke="#00A78E" stroke-width="2" stroke-miterlimit="10" d="M292.7 235.1s-11.4-3.5-24-9.3c-20-9.3-26.9-5.2-26.9-5.2s-16.5 2.2-29.9 2.4-29.2-6.3-29.2-6.3-9.7.3-24.4 5.3c-16.3 5.6-27.7 16.3-27.7 16.3l5.3 36 30.7-6-7.3 50.4c-.6 6.2-1.7 30.4-.7 46.6l3.4 30.8h93.1l3.3-26.2c1.6-19.7 1.3-41.4.8-48.1l-4.1-55.7 22 4 15.6-35z"/>
  <path fill="#FFF" d="M267.9 111.7s3.2-17 8.2-11.8c4.1 4.3 4.8 22.8 1.1 35.4-1.6 5.6-8.9 11.5-11.6 8.5-2.6-3 2.3-32.1 2.3-32.1m-113.6 0s-3.2-17-8.1-11.8c-4.1 4.3-4.8 22.8-1.3 35.4 1.6 5.6 8.9 11.6 11.5 8.6 2.7-3.1-2.1-32.2-2.1-32.2m39.4-4.3s-2.5-17.1-8.2-12.2c-5.9 5.2-5.3 27.2-3.3 35.3 1.4 5.7 9 12 12 9.1 3.1-2.8-.5-32.2-.5-32.2"/>
  <path fill="#FFF" stroke="#00A78E" stroke-width="2" stroke-miterlimit="10" d="M149.8 84.9c.1 6-3.9 54.4 13 75.6 9.6 12.1 23.4 22.5 30.8 25.5 10.7 4.4 20.9 5.2 32.2 2.8 11.2-2.4 27.7-14.1 37.8-36.7 4.8-10.7 18-95.2-6.3-119-15.9-15.6-50.8-13.7-64.4-13.1-13.6.6-43.7 5.4-43.1 64.9"/>
  <path fill="#00A78E" d="M233.2 104.9c0 3.3 2.7 5.9 6 5.9s6-2.7 6-5.9c0-3.3-2.7-5.9-6-5.9s-6 2.6-6 5.9"/>
  <path fill="#00A78E" d="M257.2 106.4c-.1 0-8.2-7.8-18-7.9-5 0-10.4 2.1-15.2 8.4l1.5 1.8c4.4-5.8 9.1-7.6 13.7-7.6 4.4 0 8.7 1.8 11.8 3.7 1.6.9 2.8 1.9 3.7 2.5.4.3.8.6 1 .8l.3.3 1.2-2z"/>
  <path fill="#FFF" d="M237.6 104.8c0 1.1-.6 2.1-1.4 2.1-.8 0-1.4-.9-1.4-2.1 0-1.1.6-2.1 1.4-2.1.8 0 1.4.9 1.4 2.1"/>
  <path fill="#00A78E" d="M192.5 104.9c0 3.3-2.7 5.9-6 5.9s-6-2.7-6-5.9c0-3.3 2.7-5.9 6-5.9s6 2.6 6 5.9"/>
  <path fill="#00A78E" d="M169.7 108.5l.3-.3c1.6-1.4 8.7-7.1 16.4-7.1 4.6 0 9.3 1.9 13.7 7.6l1.4-1.8c-4.7-6.3-10.2-8.4-15.1-8.4-9.8 0-17.9 7.8-18 7.9l1.3 2.1z"/>
  <path fill="#FFF" d="M184.2 104.8c0 1.1-.6 2.1-1.4 2.1-.8 0-1.4-.9-1.4-2.1 0-1.1.6-2.1 1.4-2.1.7 0 1.4.9 1.4 2.1"/>
  <path fill="#00A78E" d="M196.5 78.6s7.7 6.8 1.2 8c-6.4 1.2-17-1.1-21.6 0-4.7 1-13.9 4.6-13.9 4.6l-.6-3.9c.1.1 12.6-11.8 34.9-8.7m32.1-6.2s-7.4 6.5-1 8c6.5 1.5 16.9-.4 21.7.8 4.7 1.2 14 5.1 14 5.1l.5-3.8c-.1-.1-13-12.4-35.2-10.1m-23 64.1s.5.1 1.3.2 2 .3 3.4.5 3.1.3 4.7.1c.8-.1 1.5-.4 1.9-.8.1-.1.2-.2.2-.3v-.1.1-.1l.1-.3c.2-.5.1-.8.2-1.2.1-.9.1-1.8.1-2.7 0-.9 0-1.8-.1-2.7-.1-1.8-.2-3.4-.3-4.9-.2-2.9-.2-4.8-.2-4.8s.7 1.8 1.4 4.6c.3 1.4.7 3.1.9 4.9.1.9.2 1.8.3 2.8v3c-.1.5-.1 1.2-.3 1.6l-.1.3v.2l-.1.2c-.1.3-.3.6-.6.8-.5.5-1.1.8-1.6.9-.5.2-1.1.2-1.6.3-1 .1-1.9-.1-2.8-.2-.8-.1-1.6-.4-2.3-.6-1.4-.4-2.5-.9-3.3-1.3-.8-.3-1.2-.5-1.2-.5m-12 10.6s21.3 8.8 38.7 1.4c-2.4 5.1-25.6 17.7-38.7-1.4"/>
  <path fill="#00A78E" stroke="#FFF" stroke-width="2" stroke-miterlimit="10" d="M147.3 95.5s-11.2-28.9-8.9-40.5c2.3-11.6 8-22 28.4-40.5C180.1 2.4 203.7.3 206.3 3.3c4 4.5 10.9 6.5 15.8.7 5-5.8 22.6-2.1 20.3 2.6 9.4-5.4 15.9 4.6 15.9 4.6s35.4 4.5 16 96.1c-1.7 8-3.7 17.2-3.7 17.2-7.2.4-.8-10.7.4-44.4 1.5-46.6-41.7-36.4-57.7-38.2-19.4-2.2-51.8-4.7-57.7 20.3-4.1 17.8-4 38.9-3.5 50.2.2 4.8.4 5.4-2.9 8.8h-1l-.9-25.7z"/>
</svg>