<svg xmlns="http://www.w3.org/2000/svg" width="366.6" height="579" viewBox="0 0 366.6 579">
  <path fill="#FFF" d="M116.7 579s1.1-16.6-32.4-21.7c-33.5-5.1-38.2 5.1-40 7.7m274-.6s-4.8-15.9-38-9c-33.1 6.9-33.9 18.2-34.7 21.2"/>
  <path fill="#FFF" d="M83.2 561.6l48.6-165.9h93l56.8 165.9-36 15s-59.7-149.5-66.5-149.4c-6 0-62.5 150.9-62.5 150.9l-33.4-16.5zm84.4-374c0-.3 28.9.9 28.9.9s-.3 28.8 16 33l-9.1 13-28-.8-17.9-2.8-5.6-13c-.1 0 16.2-11.3 15.7-30.3zm-91.5 2.1c-.2-.1-6.7-3.6-11-6.7l-32.3-36.6c1.9-2.6 2.5-6 2.5-6l.7-15.5c-1.1-3.6-4.6-.9-4.6-.9l-1 7.1c-1 1.6-1.9.1-1.9.1l-10.5-20c-3.3-1-3.5 2-3.5 2l6.6 12.5c-.9 2.6-2.3 1-2.3 1L11 111.8c-2.8-2-3.4 1.8-3.4 1.8l8 15.3c-.6 1.4-1.7.8-1.7.8l-7-13.4c-3.8-1.5-3.7 1.9-3.7 1.9l7.6 14.4c-.5 2.5-1.9 1-1.9 1l-5.2-10c-4.1-1.1-3.8 1.8-3.3 2.8 3.3 6.3 8 16.2 11.2 21.3 2.6 4.2 6.4 5 9.1 5 .6.5 1.6 1.4 1.8 1.6l26.6 42.5L55 203s33.1 27.9 34.6 25.6l14.5-22.7c1.1-1.7-28-16.2-28-16.2zM288 192c.2-.1 6.9-3.3 11.3-6.3l33.8-35.3c-1.8-2.7-2.2-6.1-2.2-6.1l-.1-15.5c1.3-3.5 4.6-.7 4.6-.7l.7 7.1c.9 1.6 1.9.2 1.9.2l11.2-19.5c3.3-.9 3.4 2.1 3.4 2.1l-7.1 12.2c.8 2.6 2.3 1.1 2.3 1.1l8.4-14.6c2.9-1.9 3.3 1.9 3.3 1.9l-8.6 14.9c.6 1.4 1.7.8 1.7.8l7.5-13.1c3.9-1.3 3.6 2.1 3.6 2.1l-8.1 14.1c.4 2.6 1.9 1.1 1.9 1.1l5.6-9.8c4.1-.9 3.7 2 3.1 2.9-3.5 6.2-8.6 15.9-12 20.9-2.8 4.1-6.6 4.8-9.3 4.6-.7.5-1.7 1.3-1.8 1.5L314.8 200l-6.3 5.9s-34.2 26.5-35.6 24.2l-13.6-23.2c-1-1.5 28.7-14.9 28.7-14.9z"/>
  <path fill="#FFF" stroke="#00A78E" stroke-width="2" stroke-miterlimit="10" d="M261.2 201.6s-10.3 5.2-21.7 7.5c-21.6 4.5-27.9 11.5-27.9 11.5s-16.5 2.2-29.9 2.4-29.2-6.3-29.2-6.3-8.7-8.3-23.4-10.7c-17-2.7-25.3-3-25.3-3l-18.2 30.5 37 22.5s.8 35.7.5 70.7c-.3 35 8.8 69.4 8.8 69.4H225s8.1-49.7 8.7-69.4c.6-19.7-1.7-67.7-1.7-67.7l43-24.5-13.8-32.9z"/>
  <path fill="#FFF" d="M237.7 111.7s3.2-17 8.2-11.8c4.1 4.3 4.8 22.8 1.1 35.4-1.6 5.6-8.9 11.5-11.6 8.5-2.6-3 2.3-32.1 2.3-32.1m-113.6 0s-3.2-17-8.1-11.8c-4.1 4.3-4.8 22.8-1.3 35.4 1.6 5.6 8.9 11.6 11.5 8.6 2.7-3.1-2.1-32.2-2.1-32.2m39.4-4.3s-2.5-17.1-8.2-12.2c-5.9 5.2-5.3 27.2-3.3 35.3 1.4 5.7 9 12 12 9.1 3.1-2.8-.5-32.2-.5-32.2"/>
  <path fill="#FFF" stroke="#00A78E" stroke-width="2" stroke-miterlimit="10" d="M119.6 84.9c.1 6-3.9 54.4 13 75.6 9.6 12.1 23.4 22.5 30.8 25.5 10.7 4.4 20.9 5.2 32.2 2.8 11.2-2.4 27.7-14.1 37.8-36.7 4.8-10.7 18-95.2-6.3-119-15.9-15.6-50.8-13.7-64.4-13.1-13.6.6-43.6 5.4-43.1 64.9"/>
  <path fill="#00A78E" d="M203 104.9c0 3.3 2.7 5.9 6 5.9s6-2.7 6-5.9c0-3.3-2.7-5.9-6-5.9s-6 2.6-6 5.9"/>
  <path fill="#00A78E" d="M227 106.4c-.1 0-8.2-7.8-18-7.9-5 0-10.4 2.1-15.2 8.4l1.5 1.8c4.4-5.8 9.1-7.6 13.7-7.6 4.4 0 8.7 1.8 11.8 3.7 1.6.9 2.8 1.9 3.7 2.5.4.3.8.6 1 .8l.3.3 1.2-2z"/>
  <path fill="#FFF" d="M207.5 104.8c0 1.1-.6 2.1-1.4 2.1-.8 0-1.4-.9-1.4-2.1 0-1.1.6-2.1 1.4-2.1.7 0 1.4.9 1.4 2.1"/>
  <path fill="#00A78E" d="M162.3 104.9c0 3.3-2.7 5.9-6 5.9s-6-2.7-6-5.9c0-3.3 2.7-5.9 6-5.9s6 2.6 6 5.9"/>
  <path fill="#00A78E" d="M139.5 108.5l.3-.3c1.6-1.4 8.7-7.1 16.4-7.1 4.6 0 9.3 1.9 13.7 7.6l1.4-1.8c-4.7-6.3-10.2-8.4-15.1-8.4-9.8 0-17.9 7.8-18 7.9l1.3 2.1z"/>
  <path fill="#FFF" d="M154 104.8c0 1.1-.6 2.1-1.4 2.1-.8 0-1.4-.9-1.4-2.1 0-1.1.6-2.1 1.4-2.1.8 0 1.4.9 1.4 2.1"/>
  <path fill="#00A78E" d="M166.4 78.6s7.7 6.8 1.2 8c-6.4 1.2-17-1.1-21.6 0-4.7 1-13.9 4.6-13.9 4.6l-.6-3.9c0 .1 12.6-11.8 34.9-8.7m32-6.2s-7.4 6.5-1 8c6.5 1.5 16.9-.4 21.7.8 4.7 1.2 14 5.1 14 5.1l.5-3.8c0-.1-13-12.4-35.2-10.1m-23 64.1s.5.1 1.3.2 2 .3 3.4.5 3.1.3 4.7.1c.8-.1 1.5-.4 1.9-.8.1-.1.2-.2.2-.3v-.1.1-.1l.1-.3c.2-.5.1-.8.2-1.2.1-.9.1-1.8.1-2.7 0-.9 0-1.8-.1-2.7-.1-1.8-.2-3.4-.3-4.9-.2-2.9-.2-4.8-.2-4.8s.7 1.8 1.4 4.6c.3 1.4.7 3.1.9 4.9.1.9.2 1.8.3 2.8v3c-.1.5-.1 1.2-.3 1.6l-.1.3v.2l-.1.2c-.1.3-.3.6-.6.8-.5.5-1.1.8-1.6.9-.5.2-1.1.2-1.6.3-1 .1-1.9-.1-2.8-.2-.8-.1-1.6-.4-2.3-.6-1.4-.4-2.5-.9-3.3-1.3-.8-.3-1.2-.5-1.2-.5m-12 10.6s21.3 8.8 38.7 1.4c-2.4 5.1-25.6 17.7-38.7-1.4"/>
  <path fill="#00A78E" stroke="#FFF" stroke-width="2" stroke-miterlimit="10" d="M117.1 95.5s-11.2-28.9-8.9-40.5c2.3-11.6 8-22 28.4-40.5C149.9 2.4 173.5.3 176.1 3.3c4 4.5 10.9 6.5 15.8.7 5-5.8 22.6-2.1 20.3 2.6 9.4-5.4 15.9 4.6 15.9 4.6s35.4 4.5 16 96.1c-1.7 8-3.7 17.2-3.7 17.2-7.2.4-.8-10.7.4-44.4 1.5-46.6-41.7-36.4-57.7-38.2-19.4-2.2-51.8-4.7-57.7 20.3-4.1 17.8-4 38.9-3.5 50.2.2 4.8.4 5.4-2.9 8.8h-1l-.9-25.7z"/>
</svg>