<svg xmlns="http://www.w3.org/2000/svg" width="280.9" height="563.6" viewBox="0 0 280.9 563.6">
  <path fill="#FFF" d="M73.7 563.6S71.8 547 38 547.9c-33.9.9-36.6 11.8-38 14.7m280.9-2.6s-2-16.5-35.8-15.5c-33.8 1.1-36.6 12-37.9 14.9m-167.5-8.8l55.6-165.9h93l55.8 159.9-36 14s-58.7-142.5-65.5-142.4c-6 0-68.5 146.9-68.5 146.9l-34.4-12.5zm91.3-374c0-.3 28.9.9 28.9.9s-.3 28.8 16 33l-9.1 13-28-.8-17.9-2.8-5.6-13s16.2-11.3 15.7-30.3zm-63.1-9.4c-.1-.2-4.1-6.4-6.3-11.3l-10.1-47.8c2.9-1.3 5.1-4 5.1-4L64.9 91c.8-3.7-3.5-3-3.5-3L57 93.6c-1.6.9-1.7-.9-1.7-.9l.8-22.5c-2.3-2.5-4 0-4 0l-.5 14.1c-2.1 1.8-2.5-.2-2.5-.2l.6-16.8c-1.5-3.1-3.8-.1-3.8-.1l-.6 17.2c-1.2.9-1.9-.2-1.9-.2l.5-15.1c-2.6-3.2-4.2-.1-4.2-.1l-.5 16.3c-1.7 2-2.2-.1-2.2-.1l.3-11.2c-3-2.9-4.2-.3-4.2.8-.2 7.1-1.1 18.1-.8 24.1.2 4.9 3.1 7.5 5.5 8.9.3.8.7 2 .7 2.3l2.1 50.1 2.2 8.3s15.1 40.6 17.5 39.3l23.8-12.5c2-1.1-16.2-28.1-16.2-28.1zm156.5 1.4c.1-.2 4.6-6.1 7.2-10.7l14.2-46.7c-2.8-1.6-4.7-4.4-4.7-4.4l-7-13.8c-.5-3.7 3.8-2.7 3.8-2.7l3.9 6c1.6 1 1.8-.7 1.8-.7l1.2-22.4c2.6-2.3 4 .4 4 .4l-.8 14c1.9 2 2.5 0 2.5 0l.9-16.8c1.7-3 3.8.2 3.8.2l-.9 17.2c1.2 1 1.9 0 1.9 0l.8-15c2.9-2.9 4.2.2 4.2.2l-.9 16.3c1.5 2.1 2.2.1 2.2.1l.6-11.3c3.2-2.7 4.2.1 4.1 1.2-.4 7.1-.5 18.1-1.3 24.1-.7 4.9-3.7 7.2-6.3 8.3-.4.8-.9 1.9-.9 2.2l-6.5 49.7-3 8.1s-18.6 39.1-20.9 37.6l-22.6-14.6c-1.8-1.2 18.7-26.5 18.7-26.5z"/>
  <path fill="#FFF" stroke="#00A78E" stroke-width="2" stroke-miterlimit="10" d="M209.2 187.6s-9.5 6.5-20 11.5c-3.6 1.7-7.7 4.9-10.5 7.3-2.5 2.2-5.6 3.5-8.9 3.9-6 .7-15.9 1.7-24.5 1.8-13.4.2-29.2-6.3-29.2-6.3s-7.2-2.7-19.4-11.2c-6.5-4.5-14.5-7.5-14.5-7.5l-27 24 31 34s.8 35.7.5 70.7c-.3 35 8.8 69.4 8.8 69.4h93.1s8.1-49.7 8.7-69.4-1.7-67.7-1.7-67.7l38.5-36-24.9-24.5z"/>
  <path fill="#FFF" d="M201.2 111.7s3.2-17 8.2-11.8c4.1 4.3 4.8 22.8 1.1 35.4-1.6 5.6-8.9 11.5-11.6 8.5-2.6-3 2.3-32.1 2.3-32.1m-113.6 0s-3.2-17-8.1-11.8c-4.1 4.3-4.8 22.8-1.3 35.4 1.6 5.6 8.9 11.6 11.5 8.6 2.7-3.1-2.1-32.2-2.1-32.2m39.4-4.3s-2.5-17.1-8.2-12.2c-5.9 5.2-5.3 27.2-3.3 35.3 1.4 5.7 9 12 12 9.1 3.1-2.8-.5-32.2-.5-32.2"/>
  <path fill="#FFF" stroke="#00A78E" stroke-width="2" stroke-miterlimit="10" d="M83.1 84.9c.1 6-3.9 54.4 13 75.6 9.6 12.1 23.4 22.5 30.8 25.5 10.7 4.4 20.9 5.2 32.2 2.8 11.2-2.4 27.7-14.1 37.8-36.7 4.8-10.7 18-95.2-6.3-119-15.9-15.6-50.8-13.7-64.4-13.1-13.6.6-43.7 5.4-43.1 64.9"/>
  <path fill="#00A78E" d="M189.5 104.9c-.1 0-8.2 7.8-18 7.9-5 0-10.4-2.1-15.2-8.4l1.5-1.8c4.4 5.8 9.1 7.6 13.7 7.6 4.4 0 8.7-1.8 11.8-3.7 1.6-.9 2.8-1.9 3.7-2.5.4-.3.8-.6 1-.8l.3-.3 1.2 2zm-87.5-2.1l.3.3c1.6 1.4 8.7 7.1 16.4 7.1 4.6 0 9.3-1.9 13.7-7.6l1.4 1.8c-4.7 6.3-10.2 8.4-15.1 8.4-9.8 0-17.9-7.8-18-7.9l1.3-2.1zm27.8-24.2s7.7 6.8 1.2 8c-6.4 1.2-17-1.1-21.6 0-4.7 1-13.9 4.6-13.9 4.6l-.5-3.8s12.5-11.9 34.8-8.8m32.1-6.2s-7.4 6.5-1 8c6.5 1.5 16.9-.4 21.7.8 4.7 1.2 14 5.1 14 5.1l.5-3.8c-.1-.1-13-12.4-35.2-10.1m-23 64.1s.5.1 1.3.2 2 .3 3.4.5 3.1.3 4.7.1c.8-.1 1.5-.4 1.9-.8.1-.1.2-.2.2-.3v-.1.1-.1l.1-.3c.2-.5.1-.8.2-1.2.1-.9.1-1.8.1-2.7 0-.9 0-1.8-.1-2.7-.1-1.8-.2-3.4-.3-4.9-.2-2.9-.2-4.8-.2-4.8s.7 1.8 1.4 4.6c.3 1.4.7 3.1.9 4.9.1.9.2 1.8.3 2.8v3c-.1.5-.1 1.2-.3 1.6l-.1.3v.2l-.1.2c-.1.3-.3.6-.6.8-.5.5-1.1.8-1.6.9-.5.2-1.1.2-1.6.3-1 .1-1.9-.1-2.8-.2-.8-.1-1.6-.4-2.3-.6-1.4-.4-2.5-.9-3.3-1.3-.8-.3-1.2-.5-1.2-.5m-12 10.6s21.3 8.8 38.7 1.4c-2.4 5.1-25.6 17.7-38.7-1.4"/>
  <path fill="#00A78E" stroke="#FFF" stroke-width="2" stroke-miterlimit="10" d="M80.6 95.5S69.4 66.6 71.7 55c2.3-11.6 8-22 28.4-40.5C113.4 2.4 137 .3 139.6 3.3c4 4.5 10.9 6.5 15.8.7 5-5.8 22.6-2.1 20.3 2.6 9.4-5.4 15.9 4.6 15.9 4.6s35.4 4.5 16 96.1c-1.7 8-3.7 17.2-3.7 17.2-7.2.4-.8-10.7.4-44.4 1.5-46.6-41.7-36.4-57.7-38.2-19.4-2.2-51.8-4.7-57.7 20.3-4.1 17.8-4 38.9-3.5 50.2.2 4.8.4 5.4-2.9 8.8h-1l-.9-25.7z"/>
</svg>