<svg xmlns="http://www.w3.org/2000/svg" width="169.8" height="366.5" viewBox="0 0 169.8 366.5">
  <path fill="#FFF" d="M77.6 366.3s-2.2-16.5-36-15.1c-33.8 1.5-36.4 12.4-37.7 15.3m160.3-.2s-2.2-16.5-36-15.1c-33.8 1.5-36.4 12.4-37.7 15.3"/>
  <path fill="#FFF" d="M40.9 366.4L35.6 180h93l-1.1 186.4H88.6V218.6c0-3.9-1.4-7-5.7-7-4.3 0-5.7 3.2-5.7 7v147.8H40.9zM29.2 197.5c1.3 2.8 1.7 5.6-1.8 5.5l-1-1.3-5.9-8-1.7 2.2c-1 1.3-1.2 2.9-.6 4.4.5 1.1 1 2.5 1.4 3.4.3.7.8 1.2 1.5 1.7l4.1 2.8c1 .7.6 1.5.3 2.3l-.6.5c-.9.8-2.3.9-3.4.2L17 208c-.4-.1-.8-.3-1.1-.7l-7-10.6c-.4-.6-1.1-3.6-1-4.3l3-11.5c.1-.4.3-2.7.2-3.1l-11-48.9v-8.6S2.4 73.1 5 73.7l26.3 5.8c2 .5-5.3 26.8-5.3 26.8-2.8 10.9-3.9 14.6-4.6 21l3 52.8c0 .2 0 .5.1.7l4.7 16.7zm109.6.3c-1.4 2.8-1.9 5.5 1.6 5.5l1-1.3 6.1-7.9 1.6 2.3c.9 1.3 1.1 2.9.5 4.4-.5 1.1-1.1 2.4-1.4 3.3-.3.7-.8 1.2-1.5 1.6l-4.1 2.7c-1 .7-.6 1.5-.3 2.3l.6.5c.8.8 2.3.9 3.4.3l4.6-3.1c.4-.1.8-.3 1.1-.6l7.3-10.4c.4-.6 1.2-3.6 1.1-4.3l-2.7-11.6c-.1-.4-.2-2.7-.1-3.1l12.3-48.6.2-8.6s-4.8-47.2-7.5-46.7l-26.4 5.2c-2 .4 9.6 35.5 9.6 35.5 0 .2 2.1 7.3 2.8 12.6l-4.3 52.7c0 .2-.1.5-.1.7l-5.4 16.6z"/>
  <path fill="#FFF" stroke="#00A78E" stroke-width="2" stroke-miterlimit="10" d="M166.9 74.9l-34.1 7.9-3.7-16.1 3.9 39.4c.5 6.7.8 28.5-.8 48.1l-3.3 26.2H35.7l-3.4-30.8c-1-16.2.1-40.4.7-46.6l5.4-36.8-4.5 15.2-32.6-7.6s3.5-11.9 15.2-37.3C28.2 11.2 56.3 1.1 56.3 1.1s15.8 6.4 29.2 6.3S115.4 5 115.4 5s27.7 7 39.4 32.3c11.7 25.3 11.7 37.5 11.7 37.5"/>
</svg>