<svg xmlns="http://www.w3.org/2000/svg" width="75.1" height="35.4" viewBox="0 0 75.1 35.4"><path fill="#00A78E" d="M73.8 16.4C63.9 30.3 55 36.5 36.1 35.3 17.4 34 9.1 23.8.1 9.7 0 11.6-.3-1.4 3.2.1 24.2 9 45.9 11.5 68.5 7c1.2-.2 2.3-.6 3.4-1 5.5-1.8 2.4 11.5 1.9 10.4m-16.7 4.7l4.5-3.6c2.1.3 4.3.4 5.7-.6 2.4-1.7 3-4.3 2.2-7.8-2.5.9-4.7 1.6-7.2 2.5-2.3-1.4-6.3-1.3-8.4 2-2.5-2.7-12.9-3-15.9-.4-3.7-3.3-10.2-4.2-13.5-1.9-3.3-4-5.3-4.5-9.9-2.1-1.4-6-8.1-2.2-11.1-6-1.1 5 3 6.4 5.3 8.9-1.1-.3-2.2-.7-4.4-1.3 1 2.5 1.4 5.5 2.5 5.8 2.6.7 2.7 2.6 3.9 4 .9 1.1 1.8 2.4 2.7 3.5 1.3 1.6 2.8 2.3 4-.3 4.4 7.1 8 8.6 11.1 4.9 4.1 4.9 6.6 5.3 10.2 1.7C42 34 47.6 33 52.3 27.9c2 2.3 3.5 2.4 6 .1.9-.8 1.7-2.3 2.7-2.4 4.7-.3 5.9-3.6 7.7-6.5l-.8-1c-2.4 1.3-4.8 2.6-7.3 4-.9-.3-2.2-.6-3.5-1"/><path fill="#00A78E" d="M41.4 22c-.8 1-1.9 2.2-2.9 3.3-1.1-1.1-2.5-2.4-3.8-3.7 1-1.2 2.2-2.5 3.3-3.8 1 1.3 2.3 2.8 3.4 4.2m15.7-.9c-1.3.9-2.6 1.9-4 2.9-1.1-.6-2.4-1.3-3.6-2 1.2-1.1 2.5-2.4 3.6-3.5 1.2.8 2.6 1.8 4 2.6 0 .1 0 0 0 0M16 13.2c-.5 2.5 4 3.8.8 6.5-1-1.1-2-2.2-3-3.2.6-1 1.2-1.9 2.2-3.3m7.9 7.4c.5-.7 1-1.4 1.5-2.2 1 .9 2 1.8 3.1 2.7-.4.9-.9 1.8-1.4 2.8-1-1.1-2-2.2-3.2-3.3"/></svg>