<svg xmlns="http://www.w3.org/2000/svg" width="162.8" height="54.7" viewBox="0 0 162.8 54.7"><path fill-rule="evenodd" clip-rule="evenodd" fill="#00A78E" d="M162.4 3.7c-.7-.9-3.3-1.4-4.5-1.6-5.3-1-11.1-1.1-16.5-1.6-7.5-.7-15.2-.8-22.8-.4-6.6.5-13.1 1.8-19.6 3.6-5.7 1.6-11.6 4-17.6 4.3v8.5c1.6 0 2.9.1 4 1.2 2.7 2.9 3.9 9.5 6.5 15.4 3.9 9.1 9.4 15.5 18.5 19 11.8 4.7 30.2 3.3 38.6-7.7 2.3-3 3.9-6.7 4.9-10.5 1.4-5.5 1.8-11.3 2.8-15.4.3-1.4.9-2.9 1.9-4 .9-.9 2.3-.9 3-2.1.5-.8.5-2.5.7-3.5.1-1.4 1.1-4 .1-5.2m-11.4 21c-.7 8.1-4.1 16.6-11 21.4-7.7 5.3-19 5.2-27.5 2.1-6.4-2.3-10.7-7.1-13.8-13-1.2-2.3-2-5-2.7-7.5-1.3-4.6-2-10.1.5-14.5 1.4-2.4 3.8-4.2 6.4-5.5 2.4-1.1 5.1-1.9 7.5-2.2 5.6-.9 11.6-1.1 17.3-1 7.1.2 14 .5 19.4 5.7 3.7 3.7 4.4 9.4 3.9 14.5m3.8-15.9c-1-.1-3.1-.3-3.7-1.1-1.4-1.5 2.6-1.5 3.7-1.4 1 .1 3 .3 3.6 1 1.4 1.6-2.5 1.6-3.6 1.5"/><path fill-rule="evenodd" clip-rule="evenodd" fill="#00A78E" d="M.6 9c.1.9.2 2.6.7 3.5.7 1.2 2.2 1.2 3 2.1 1 1.1 1.6 2.6 1.9 4 1 4.1 1.4 9.8 2.8 15.4 1 3.8 2.6 7.5 4.9 10.5 8.4 11 26.8 12.4 38.6 7.7 9-3.6 14.6-10 18.5-19 2.5-5.9 3.7-12.5 6.5-15.4 1-1.1 2.4-1.2 4-1.2V8c-6-.3-11.9-2.7-17.6-4.3C57.5 1.9 51 .6 44.3.3 36.7-.1 29.1 0 21.5.7c-5.5.4-11.3.5-16.6 1.5-1.1.2-3.7.7-4.4 1.5C-.6 4.9.4 7.5.6 9m15.2 1.2C21.2 5 28.1 4.7 35.2 4.5c5.7-.1 11.7.1 17.3 1 2.4.4 5 1.1 7.4 2.2 2.7 1.3 5 3 6.4 5.5 2.5 4.4 1.8 9.8.5 14.5-.7 2.5-1.5 5.2-2.7 7.5-3.2 5.9-7.4 10.6-13.8 13-8.5 3.1-19.8 3.2-27.5-2.1-6.9-4.7-10.3-13.3-11-21.4-.4-5.1.2-10.8 4-14.5M4.4 7.4c.7-.7 2.7-.9 3.6-1 1.1-.1 5.1-.1 3.7 1.4-.6.7-2.7 1-3.7 1-1.1.1-5 .1-3.6-1.4"/></svg>