<svg xmlns="http://www.w3.org/2000/svg" width="283.2" height="520.2" viewBox="0 0 283.2 520.2">
  <path fill="#FFF" d="M175.8 248.5c-16.2-1.1-35.9-2.8-37.6-5-.3-.4-.4-.8-.3-1.2l4.5-22.7c.1-.5.5-1.3 2-1.3 4.5 0 24.4 6.1 26.7 6.9.1 0 .2.1.4.1 4.2 1.1 7.6 1.9 10.1 2.2l45.2-3.7c.1 0 .3 0 .3-.1l14.1-4.3c1.4-.6 2.5-1 3.4-1 1.1 0 1.8.4 2.1.8.6.6.9 1.6.9 2.8v.6l-1.6 1.2-5.4 4.2.5.4c.5.3 1 .5 1.5.5.3 0 .7-.1 1-.2l2.9-1.2c.3-.1.6-.4.8-.8l2.4-3.6c.6-.9 1.4-1.1 2-1.1.5 0 .9.1 1.3.3l.5.2.7.7c1.1 1.2 1.3 3.1.4 4.5l-2.5 3.8c-.2.6-.5 1.1-1 1.4l-9 6.2c-.8.6-3.4 1.2-4.3 1.2h-.4l-9.9-2.3c-.3 0-1.4-.1-2-.1h-.2l-41.9 10.6h-7.6z"/>
  <path fill="#00A78E" d="M144.4 219.5c4.5 0 26.3 6.8 26.3 6.8.2 0 6.3 1.8 10.8 2.4L227 225c.2 0 .4 0 .6-.1l14.2-4.3c1.1-.5 2.1-.9 2.9-.9 1.1 0 1.8.6 1.8 2.3l-1.1.9-6.8 5.2 2 1.4c.7.5 1.5.7 2.3.7.5 0 1-.1 1.5-.3 1-.4 2.1-.9 2.9-1.2.6-.2 1-.7 1.4-1.3l2.3-3.6c.3-.4.6-.5.9-.5.4 0 .7.1 1.1.3l.5.5c.7.7.8 2 .2 2.9l-2.7 3.9c-.1.4-.3.7-.6.9l-9 6.2c-.5.3-2.8.9-3.5.9h-.1l-9.9-2.3c-.2 0-1.5-.1-2.2-.1h-.4l-42 10.5-7.4.2s-37.2-2.4-36.7-4.7l4.5-22.7c0-.3.3-.3.7-.3m0-2.6c-2.6 0-3.2 1.8-3.3 2.3l-4.5 22.8c-.2.8 0 1.6.5 2.3.9 1.1 1.8 2.3 20.8 4.1 8.9.8 17.7 1.4 17.8 1.4h.2l7.4-.2h.3l.3-.1 41.6-10.5c.5 0 1.4.1 1.8.1l9.8 2.3h.7c1.1 0 4-.7 5-1.4l9-6.2c.7-.5 1.2-1.1 1.4-1.9l2.4-3.6c1.3-1.9 1-4.5-.5-6.1l-.5-.5-.5-.5-.6-.2-.2-.1c-.4-.1-1-.3-1.7-.3-1.1 0-2.1.5-2.8 1.3 0-1.5-.4-2.8-1.3-3.6-.5-.5-1.5-1.2-3.1-1.2-1.1 0-2.4.3-3.9 1l-14 4.3h-.1l-45.1 3.7c-2.4-.4-5.7-1.1-9.8-2.2-.1 0-.3-.1-.4-.1-3.4-1.2-22.1-6.9-26.7-6.9m99.3 10.4l3.2-2.5.4-.3-.9 1.3-.1.1v.1c-.1.2-.2.2-.2.2-.6.3-1.5.7-2.4 1.1"/>
  <path fill="#FFF" d="M122.2 117.3s1.7-14.8 6.2-10.7c3.8 3.4 5.6 19.2 3.3 30.3-1 4.9-6.9 10.5-9.4 8.1-2.4-2.4-.1-27.7-.1-27.7"/>
  <path fill="none" stroke="#00A78E" stroke-width="2.562" stroke-miterlimit="10" d="M122.2 117.3s1.7-14.8 6.2-10.7c3.8 3.4 5.6 19.2 3.3 30.3-1 4.9-6.9 10.5-9.4 8.1-2.4-2.4-.1-27.7-.1-27.7"/>
  <path fill="#FFF" d="M23.5 114.8s-2.2-14.7-7-10.5c-5.1 4.5-4.6 23.4-2.9 30.4 1.2 4.9 7.8 10.3 10.4 7.8 2.6-2.5-.5-27.7-.5-27.7"/>
  <path fill="#FFF" d="M21.2 93.9c.1 5.2-3.4 46.8 11.2 65.1 8.3 10.4 19.8 20.4 26.5 21.9 10.9 2.6 18 4.5 27.7 2.4 9.6-2.1 23.8-12.2 32.6-31.6 4.2-9.2 15.5-81.9-5.5-102.4-13.8-13.4-43.8-11.7-55.5-11.2-11.7.5-37.5 4.7-37 55.8m15.1 426.3l-5.5-157h81.8l-1.8 157H77.4V393c0-3.3-1.2-6.1-4.9-6.1s-4.9 2.7-4.9 6.1v127.2H36.3z"/>
  <path fill="#00A78E" d="M101.1 114.2c0 2.8 2.3 5.1 5.2 5.1 2.9 0 5.2-2.3 5.2-5.1s-2.3-5.1-5.2-5.1c-2.8 0-5.2 2.3-5.2 5.1"/>
  <path fill="#00A78E" d="M113.6 112.5c-.1 0-7.1-6.7-15.5-6.8-4.3 0-9 1.8-13 7.3l1.3 1.5c3.7-5 7.9-6.6 11.8-6.6 3.8 0 7.5 1.6 10.1 3.2 1.3.8 2.4 1.6 3.2 2.2.4.3.7.5.9.7l.3.3.9-1.8z"/>
  <path fill="#FFF" d="M110 114.5c0 1-.5 1.8-1.2 1.8s-1.2-.8-1.2-1.8.5-1.8 1.2-1.8c.6 0 1.2.8 1.2 1.8"/>
  <path fill="#00A78E" d="M61.1 113.8c0 2.8-2.3 5.1-5.2 5.1-2.9 0-5.2-2.3-5.2-5.1s2.3-5.1 5.2-5.1c2.9 0 5.2 2.3 5.2 5.1"/>
  <path fill="#00A78E" d="M35.9 114.2l.3-.3c1.4-1.2 7.5-6.1 14.2-6.1 3.9 0 8 1.6 11.8 6.6l1.2-1.5c-4.1-5.4-8.7-7.3-13-7.3-8.4 0-15.4 6.7-15.5 6.8l1 1.8z"/>
  <path fill="#FFF" d="M59.7 114.8c0 1-.5 1.8-1.2 1.8s-1.2-.8-1.2-1.8.5-1.8 1.2-1.8c.6.1 1.2.9 1.2 1.8"/>
  <path fill="#00A78E" d="M61.7 83.8s6.6 5.9 1 6.9c-5.5 1.1-14.6-.9-18.6 0-4 .9-11.9 4-11.9 4l-.5-3.3c0-.1 10.8-10.3 30-7.6m27.2-.6s-6.4 5.6-.8 6.9c5.6 1.3 14.6-.4 18.6.7 4.1 1 12.1 4.4 12.1 4.4l.4-3.3c0-.1-11.1-10.7-30.3-8.7m-19.7 55.1s.4 0 1.1.1c.7.1 1.8.2 3 .3 1.2.1 2.6.2 3.9 0 .6-.1 1.2-.3 1.4-.6 0-.1.1-.1.1-.2 0 0-.1.2 0 .1v-.1l.1-.3c.1-.2.1-.4.1-.5l.1-.5c.1-1.5.1-3.1 0-4.6 0-1.5-.1-2.9-.1-4.2v-4.2s.2.4.5 1.1.6 1.7 1 2.9.7 2.6.9 4.2c.2 1.6.4 3.3.3 5.1-.1.5-.1 1.1-.3 1.4l-.1.3v.2l-.2.2c-.1.3-.3.6-.6.8-.5.5-1 .7-1.5.9-.5.1-1 .2-1.4.2-.9 0-1.7-.1-2.4-.2s-1.4-.4-2-.6c-1.2-.4-2.2-.9-2.8-1.2-.8-.3-1.1-.6-1.1-.6m-10.3 9.2s18.3 7.6 33.3 1.2c-2.1 4.3-22.1 15.2-33.3-1.2"/>
  <path fill="#FFF" d="M62.6 184.5s.4 14.1-6.3 18c-6 3.5-8.7 4.3-8.7 4.3s29.3 11.7 52.7 2.2c-12.6-3.4-11.8-7.8-11.8-7.8l-2.2-14.6-23.7-2.1z"/>
  <path fill="none" stroke="#00A78E" stroke-width="3.076" stroke-miterlimit="10" d="M62.6 184.5s.4 14.1-6.3 18c-6 3.5-8.7 4.3-8.7 4.3s29.3 11.7 52.7 2.2c-12.6-3.4-11.8-7.8-11.8-7.8l-2.2-14.6-23.7-2.1z"/>
  <path fill="#FFF" d="M26.2 374.8c1.1 2.4 1.5 4.8-1.5 4.7l-.8-1.1-5-6.9-1.4 1.9c-.8 1.1-1 2.5-.5 3.8.4 1 .9 2.1 1.2 2.9.2.6.7 1.1 1.3 1.4l3.5 2.4c.8.6.5 1.3.2 2l-.5.5c-.7.7-2 .8-2.9.2l-3.9-2.7c-.4-.1-.7-.3-.9-.6l-6-9.1c-.4-.5-1-3.1-.8-3.7l2.6-9.9c.1-.3.2-2.3.2-2.6l-9.5-42.1v-7.4s1.1-37.1 3.4-36.6l22.6 5c1.8.4-3.7 19.7-3.7 19.7-2.4 9.4-3.3 12.6-3.9 18.1l2.6 45.4c0 .2 0 .4.1.6l3.6 14.1z"/>
  <path fill="none" stroke="#00A78E" stroke-width="2.562" stroke-miterlimit="10" d="M26.2 374.8c1.1 2.4 1.5 4.8-1.5 4.7l-.8-1.1-5-6.9-1.4 1.9c-.8 1.1-1 2.5-.5 3.8.4 1 .9 2.1 1.2 2.9.2.6.7 1.1 1.3 1.4l3.5 2.4c.8.6.5 1.3.2 2l-.5.5c-.7.7-2 .8-2.9.2l-3.9-2.7c-.4-.1-.7-.3-.9-.6l-6-9.1c-.4-.5-1-3.1-.8-3.7l2.6-9.9c.1-.3.2-2.3.2-2.6l-9.5-42.1v-7.4s1.1-37.1 3.4-36.6l22.6 5c1.8.4-3.7 19.7-3.7 19.7-2.4 9.4-3.3 12.6-3.9 18.1l2.6 45.4c0 .2 0 .4.1.6l3.6 14.1z"/>
  <path fill="#FFF" d="M70.1 520s-1.7-13.2-28.8-12.1c-27.1 1.2-29.2 9.9-30.2 12.3m138.3-.2s-1.7-13.2-28.8-12.1c-27.1 1.2-29.2 9.9-30.2 12.3"/>
  <path fill="#00A78E" d="M16.9 97.1S7.4 72.6 9.3 62.8c2-9.8 2.8-24.8 24.1-34.3C54.7 19 54 23.6 56.6 18c2.5-5.5 3.1 3.1 3.1 3.1l5.3-9s-.3 4.4 1.9 6.9c3.4 3.8 6.5-5.5 6.1-12.3 2.8 10.4 3.1 17.8 7.3 12.9 4.2-4.9 5.6-17.2 2.4-18.4 9.4 5.5 15.9 18.7 14 22.7 8-4.6 8-8.6 8-8.6l3.6 8s32.7 6.3 16.3 83.9c-1.4 6.8-3.1 14.6-3.1 14.6-6.1.4-.6-9.1.3-37.6 1.3-39.5-35.3-30.8-48.9-32.3-16.4-1.8-43.9-4-48.9 17.2-4.9 21.2-2.7 49.6-2.7 49.6l-4.5 4.6V97.1z"/>
  <path fill="none" stroke="#FFF" stroke-width="2.523" stroke-miterlimit="10" d="M16.9 97.1S7.4 72.6 9.3 62.8c2-9.8 2.8-24.8 24.1-34.3C54.7 19 54 23.6 56.6 18c2.5-5.5 3.1 3.1 3.1 3.1l5.3-9s-.3 4.4 1.9 6.9c3.4 3.8 6.5-5.5 6.1-12.3 2.8 10.4 3.1 17.8 7.3 12.9 4.2-4.9 5.6-17.2 2.4-18.4 9.4 5.5 15.9 18.7 14 22.7 8-4.6 8-8.6 8-8.6l3.6 8s32.7 6.3 16.3 83.9c-1.4 6.8-3.1 14.6-3.1 14.6-6.1.4-.6-9.1.3-37.6 1.3-39.5-35.3-30.8-48.9-32.3-16.4-1.8-43.9-4-48.9 17.2-4.9 21.2-2.7 49.6-2.7 49.6l-4.5 4.6V97.1z"/>
  <path fill="#00A78E" d="M127.4 103c-.5-.2-.9-.4-1.4-.5-10.2-3.4-20.6-5.3-31.3-4.7-4.6.2-9.1 1-13.4 2.9-1.4.6-2.8 1.3-2.8 3.1-1.6-.3-9.2-.3-10.8 0 0-1.8-1.4-2.5-2.8-3.1-4.3-1.9-8.8-2.6-13.4-2.9-10.7-.5-21.1 1.3-31.3 4.7-.5.2-.9.3-1.4.5-2 .9-2.7 2.3-2.3 4.4.1.3.6.7.9.7 2.3.1 1.9 0 2.9 1.6.4.7.8 1.3 1.5 1.7 2.7 1.2 3.4.9 4.3 4 .5 1.8 2.2 5.2 3.4 6.7 2.3 2.9 5.8 4.5 9.6 4.9 4.9.6 9.8.4 14.6-.8 4.5-1.1 7.5-4 9.6-7.9 1.4-2.7 2.3-5.6 2.5-8.7.2-2.9 2.6-4.5 5.5-4.5h3.6c2.9.1 5.3 1.6 5.5 4.5.2 3.1 1 6 2.5 8.7 2.1 3.9 5.1 6.8 9.6 7.9 4.8 1.2 9.7 1.4 14.6.8 3.8-.5 7.3-2 9.6-4.9 1.2-1.5 2.9-4.9 3.4-6.7.8-3.1 1.6-2.8 4.3-4 .8-.4 1.1-1 1.5-1.7.9-1.6.6-1.5 2.9-1.6.3 0 .8-.4.9-.7.4-2.2-.3-3.6-2.3-4.4m-62.2 7.4c-.3 1.5-.5 3.1-1 4.6-2 5.6-5.5 9.7-11.6 10.9-4.6.9-9.2.7-13.9.3-5.9-.6-9.3-4.1-11.1-9.4-.6-1.9-1.2-3.9-1-5.8.7-7.8 9.5-10.1 16.4-10.6 6.1-.5 11.9-.1 17.6 2.3 3.2 1.1 5.3 3.4 4.6 7.7m53.4 6.3c-1.8 5.3-5.2 8.8-11.1 9.4-4.6.5-9.3.7-13.9-.3-6.1-1.2-9.6-5.3-11.6-10.9-.5-1.4-.7-3-1-4.6-.7-4.3 1.4-6.6 4.5-7.9 5.6-2.4 11.5-2.8 17.6-2.3 6.8.6 15.7 2.8 16.4 10.6.3 2-.3 4.1-.9 6"/>
  <path fill="#7AC143" d="M277.1 232.1l-26.9.1-23.9-17.8 11.3-.6"/>
  <path fill="none" stroke="#00A78E" stroke-width=".641" stroke-miterlimit="10" d="M277.1 232.1l-26.9.1-23.9-17.8 11.3-.6z"/>
  <path fill="#5E9732" d="M281.7 233l-26.8-.8-23.2-18.7 11.4-.2"/>
  <path fill="none" stroke="#00A78E" stroke-width=".641" stroke-miterlimit="10" d="M281.7 233l-26.8-.8-23.2-18.7 11.4-.2z"/>
  <path fill="#FFF" d="M237.7 239.7l-9.9-2.8c-.3 0-2.3-.2-2.6-.1l-41.8 10.6-7.4.2s-37.2-2.4-36.7-4.7l4.5-22.7c.4-1.8 27.1 6.6 27.1 6.6.2 0 6.3 1.8 10.8 2.4l45.4-3.7c.2 0 .4-.1.6-.1l14.2-4.3c2.4-1.2 4.8-1.6 4.7 1.4l-1.1.9-5.8 4.6"/>
  <path fill="none" stroke="#00A78E" stroke-width="2" stroke-linecap="round" stroke-miterlimit="10" d="M237.7 239.7l-9.9-2.8c-.3 0-2.3-.2-2.6-.1l-41.8 10.6-7.4.2s-37.2-2.4-36.7-4.7l4.5-22.7c.4-1.8 27.1 6.6 27.1 6.6.2 0 6.3 1.8 10.8 2.4l45.4-3.7c.2 0 .4-.1.6-.1l14.2-4.3c2.4-1.2 4.8-1.6 4.7 1.4l-1.1.9-5.8 4.6"/>
  <path fill="#EF4135" d="M165.5 215.7L147 253l-33.3-7.3 1.9 50.5c.4 5.8.7 24.5-.7 41.4l-2.9 22.6H31.8l-2.9-26.5c-.9-14 .1-34.8.6-40.1l4.6-31.7-3.9 13-28.1-6.6s3-10.3 13.1-32.1 32.4-29.5 32.4-29.5l27 4.3 25.7-2.1s21.3-7 43.1 3.7c21.7 10.8 22.1 3.1 22.1 3.1"/>
  <path fill="none" stroke="#00A78E" stroke-width="2.562" stroke-miterlimit="10" d="M165.5 215.7L147 253l-33.3-7.3 1.9 50.5c.4 5.8.7 24.5-.7 41.4l-2.9 22.6H31.8l-2.9-26.5c-.9-14 .1-34.8.6-40.1l4.6-31.7-3.9 13-28.1-6.6s3-10.3 13.1-32.1 32.4-29.5 32.4-29.5l27 4.3 25.7-2.1s21.3-7 43.1 3.7c21.7 10.8 22.1 3.1 22.1 3.1"/>
  <path fill="#FFF" d="M76.1 254l.2 2.9c-.3.1-1.4.3-2.7.3-2.8 0-4.4-1.2-4.4-4.1 0-2.3 0-4.8.1-6.2h-1.5v-2.2c2.2-.4 2.9-1.6 3.2-4h2.4c-.1 1-.2 2.4-.2 3.4h2.6v2.8h-2.6v5c0 1.9.4 2.5 1.7 2.5.5-.2 1-.3 1.2-.4m13.6-3.1v-2.5c0-3.2-1.4-4.7-5.4-4.7-2.3 0-3.9.4-6.4.4.1 2.3.1 5.1.1 6.8 0 1.8-.1 4.9-.1 6h4.3c-.1-1-.2-4-.2-6 0-1.1 0-2.5.1-4.3.4-.1 1-.3 1.6-.3 1.5 0 2 .7 2 2.7v1.9c0 1.8-.1 4.9-.1 6h4.3c-.1-1.1-.2-4.1-.2-6m-28.9.5h-1.7v.1c0 1.8 1.2 3 3.4 3 1.3 0 2.6-.4 3.4-.9l.2 2.9c-.9.4-2.6.7-4.3.7-4.5 0-6.7-1.6-7.1-5.8-.5 0-1.3-.1-2.4-.1 0 .7-.1 1.4-.1 1.9 0 1 0 2.5.2 3.6-2.5 0-4.4.3-6.4.3-3.7 0-5-1.5-5-4.1 0-2.5 2.1-3.9 6.6-3.9h.6v-.3c0-1.8-.6-2.5-2.4-2.5-1.3 0-2.6.5-3.5.9l-.2-2.9c1-.4 2.7-.7 4.7-.7 4 0 5.4 1.3 5.4 4.9v.6c1 0 1.7 0 2.3.1.4-3.5 2.2-5.5 6.6-5.5 3.7 0 5.3 1.5 5.3 3.9.4 2.6-1.6 3.8-5.6 3.8m-12.3 3.1c-.1-.9 0-2.1 0-3.2H48c-1.9 0-2.6.6-2.6 1.7 0 1.2.6 1.6 2 1.6.3 0 .8-.1 1.1-.1m11.8-5.3c1.7 0 2.6-.6 2.6-1.8 0-.9-.6-1.4-1.5-1.4-1.6 0-2.2 1.3-2.2 3.1v.1h1.1m42.4 7.6c-2.5 0-4.4.3-6.4.3-3.7 0-5-1.5-5-4.1 0-2.5 2.1-3.9 6.6-3.9h.6v-.3c0-1.8-.5-2.5-2.4-2.5-1.3 0-2.6.5-3.5.9l-.2-2.9c1-.4 2.7-.7 4.7-.7 4 0 5.4 1.3 5.4 4.9 0 1.9-.1 3.6-.1 4.7.1 1.1.1 2.6.3 3.6m-4.1-2.3c-.1-.9 0-2.1 0-3.2h-.5c-1.9 0-2.6.6-2.6 1.7 0 1.2.6 1.6 2 1.6.2 0 .7-.1 1.1-.1m5-9.1c-.1-.1-.2-.2-.2-.4 0-.1-.1-.3-.1-.4 0-.2 0-.3.1-.4 0-.1.1-.3.2-.4.1-.1.2-.2.3-.2.1-.1.3-.1.4-.1s.3 0 .4.1c.1.1.2.1.3.2.1.1.2.2.2.4 0 .1.1.3.1.4 0 .2 0 .3-.1.4 0 .1-.1.3-.2.4-.1.1-.2.2-.3.2-.1.1-.3.1-.4.1s-.3 0-.4-.1c-.1 0-.2-.1-.3-.2m.4.1c.1.1.2.1.4.1.1 0 .3 0 .4-.1.1-.1.2-.1.3-.2.1-.1.1-.2.2-.3 0-.1.1-.2.1-.4 0-.1 0-.2-.1-.4 0-.1-.1-.2-.2-.3-.1-.1-.2-.2-.3-.2-.1-.1-.2-.1-.4-.1-.1 0-.3 0-.4.1-.1.1-.2.1-.3.2-.1.1-.1.2-.2.3 0 .1-.1.2-.1.4s0 .4.1.5c.3.2.4.3.5.4m0-1.6h.4c.2 0 .3 0 .4.1.1.1.1.2.1.3v.2s0 .1-.1.1l-.1.1h-.1l.3.5h-.3s-.1 0-.1-.1l-.3-.5h-.2v.5-1.2zm.4.6c.2 0 .3-.1.3-.2s0-.1-.1-.2c0 0-.1-.1-.2-.1h-.2v.4h.2z"/>
</svg>