<svg xmlns="http://www.w3.org/2000/svg" viewBox="-177 279.4 244 42.6">
  <path d="M-168.7 308.3h7.8c.6 0 1.2.1 1.6.2.4.2.8.4 1 .6.2.3.4.6.5.9.1.3.1.7.1 1v1c0 .4 0 .6-.1.6h-16.5V286c.4-.1.7-.1 1.1-.1.4 0 .6-.1.8-.1.4 0 .8 0 1.2.1.4.1.8.2 1.2.5s.7.5.9.9c.2.4.3.9.3 1.6v19.4zm19.9-20.9c0 .9-.3 1.5-.9 2.1-.6.5-1.3.8-2.1.8s-1.5-.3-2.1-.8c-.6-.5-.8-1.2-.8-2.1 0-.9.3-1.6.8-2.1.6-.5 1.3-.8 2.1-.8s1.5.3 2.1.8c.6.5.9 1.2.9 2.1zm0 25.6c-.1.1-.3.1-.7.1h-1.2c-1 0-1.9-.2-2.5-.7-.7-.4-1-1.3-1-2.7v-16c.1 0 .3-.1.6-.1.4 0 .8-.1 1.2-.1.4 0 .9 0 1.3.1s.8.2 1.2.5c.3.2.6.5.8 1 .2.4.3 1 .3 1.6V313zm17.8-23.2c-.5-.5-1-.8-1.7-1.1-.7-.3-1.4-.4-2.3-.4-1 0-1.8.3-2.4.8s-.9 1.4-.9 2.7v1.9h6.4v4.1h-6.4v14.9h-5.4V292c0-2.6.7-4.6 2-5.9 1.3-1.3 3.3-2 5.9-2 1 0 1.9.1 2.9.3 1 .2 1.8.5 2.4 1 .7.4 1 1 1 1.7 0 .4-.2.8-.5 1.4-.3.4-.6.9-1 1.3zm11.1 19.5c.7 0 1.3-.1 1.8-.2s1-.3 1.4-.5c.4-.2.7-.4 1-.7.3-.3.6-.5.8-.7.3.4.7.9 1 1.5.3.6.5 1.1.5 1.5 0 .6-.3 1.1-1 1.6-.6.4-1.4.8-2.4 1.1-1 .3-2.2.5-3.6.5-1.3 0-2.5-.2-3.7-.5-1.2-.3-2.3-.9-3.2-1.7-.9-.8-1.7-1.9-2.3-3.2-.6-1.3-.9-3-.9-5.1 0-1.7.3-3.1.8-4.3s1.2-2.2 2.1-3c.9-.8 1.8-1.4 2.9-1.8 1.1-.4 2.2-.6 3.4-.6 1.5 0 2.8.2 3.8.7 1 .5 1.9 1.1 2.5 1.9.7.8 1.1 1.7 1.4 2.7.3 1 .4 2.1.4 3.2v2c0 .2 0 .4-.1.5h-11.8c.1 1.5.6 2.7 1.4 3.7.8.9 2.1 1.4 3.8 1.4zm1.8-8.1c0-1.3-.2-2.3-.7-3.1-.5-.8-1.4-1.2-2.7-1.2-1.1 0-2 .4-2.6 1.1-.6.8-1 1.8-1 3.2h7zm23.6-13.8c0 .9-.3 1.5-.9 2.1-.6.5-1.3.8-2.1.8s-1.5-.3-2.1-.8c-.6-.5-.8-1.2-.8-2.1 0-.9.3-1.6.8-2.1.6-.5 1.3-.8 2.1-.8s1.5.3 2.1.8c.6.5.9 1.2.9 2.1zm0 25.6c-.1.1-.3.1-.7.1h-1.2c-1 0-1.9-.2-2.5-.7-.7-.4-1-1.3-1-2.7v-16c.1 0 .3-.1.6-.1.4 0 .8-.1 1.2-.1.4 0 .9 0 1.3.1s.8.2 1.2.5c.3.2.6.5.8 1 .2.4.3 1 .3 1.6V313zm10.6-.3h-5.5v-18.9l.5-.1c.2 0 .3 0 .6-.1h.8c.9 0 1.6.2 2.2.5.6.3 1 .8 1.2 1.6.5-.6 1.1-1.2 2.1-1.7.9-.5 2.2-.8 3.8-.8 1.9 0 3.3.4 4.2 1.1.9.7 1.5 1.7 1.8 3 .1.6.2 1.3.3 2 0 .7.1 1.4.1 2.1v11.3h-5.4v-11c0-.6 0-1.1-.1-1.6s-.1-.9-.3-1.3c-.2-.4-.5-.6-.8-.8-.4-.2-.9-.3-1.6-.3-1 0-1.8.2-2.5.6-.7.4-1.1.9-1.1 1.5v12.9zm30.1-16.7c0 .4-.1.9-.4 1.4-.3.5-.5 1.1-.8 1.5-.2-.2-.6-.4-1-.6-.4-.2-.8-.5-1.3-.7-.5-.2-1-.4-1.5-.5-.5-.1-1.1-.2-1.6-.2-.3 0-.6 0-.9.1-.3 0-.6.1-.9.2s-.5.3-.6.5c-.2.2-.3.5-.3.9 0 .9 1 1.6 2.9 2l2.4.6c.8.3 1.5.6 2.1 1.1.6.5 1.1 1 1.5 1.7s.6 1.6.6 2.6c0 1.1-.2 2-.6 2.8-.4.8-1 1.5-1.7 2.1-.7.6-1.6 1-2.5 1.3-1 .3-2 .4-3.2.4-1.2 0-2.2-.1-3-.3-.8-.2-1.5-.4-2-.6-.4-.2-.8-.4-1.2-.7-.4-.3-.7-.7-.7-1.3 0-.5.1-.9.4-1.4l.9-1.5c.2.2.5.4.9.7l1.2.6c.5.2 1 .4 1.5.5.5.1 1.1.2 1.6.2.3 0 .7 0 1.1-.1.4-.1.7-.2 1-.3.3-.2.5-.4.7-.6.2-.3.3-.6.3-1 0-.8-.3-1.3-.9-1.7-.6-.3-1.5-.6-2.7-.9-.8-.2-1.5-.4-2.2-.6-.7-.3-1.4-.6-1.9-1.1s-1-1-1.3-1.7c-.3-.7-.5-1.5-.5-2.4s.2-1.8.6-2.5c.4-.7 1-1.3 1.7-1.8s1.5-.9 2.5-1.1c.9-.3 1.9-.4 2.9-.4 1.1 0 2 .1 2.9.2.8.2 1.6.4 2.2.6 1.2.6 1.8 1.2 1.8 2zm21.1 16.7h-3.6c-.7 0-1.1-.2-1.3-.5s-.3-.9-.3-1.6c-.5.6-1.1 1.2-2.1 1.7-.9.5-2.2.8-3.8.8-1.9 0-3.3-.4-4.2-1.1-.9-.7-1.5-1.7-1.8-3-.1-.6-.2-1.3-.3-2 0-.7-.1-1.4-.1-2.1v-11.1c.1 0 .3-.1.6-.1.4 0 .8-.1 1.2-.1s.9 0 1.3.1.8.2 1.2.5c.3.2.6.5.8 1 .2.4.3 1 .3 1.6v7.8c0 .6 0 1.2.1 1.7 0 .5.1.9.3 1.3.2.4.5.6.8.8s.9.3 1.6.3c1 0 1.8-.2 2.5-.6.7-.4 1.1-.9 1.1-1.5v-12.8c.1 0 .3-.1.6-.1.4 0 .8-.1 1.2-.1s.9 0 1.3.1.8.3 1.2.5c.3.3.6.6.8 1 .2.4.3 1 .3 1.7v15.8zm10.3-17c.2-.2.4-.5.7-.8.3-.3.6-.6 1-.8.4-.2.8-.4 1.3-.6.5-.2 1-.2 1.5-.2.3 0 .7 0 1 .1.4.1.7.2 1 .3s.6.3.7.6c.2.3.3.6.3.9 0 .6-.1 1.2-.4 2-.3.8-.6 1.4-.9 2-.5-.4-.9-.7-1.4-.9s-1-.3-1.6-.3c-.8 0-1.5.2-2.1.7-.6.5-.8 1.1-.8 1.7v12.3h-5.4v-18.9l.5-.1c.2 0 .3 0 .6-.1h.8c.9 0 1.6.2 2.2.5.4.4.8.9 1 1.6zm25.6 12.4c0 2.1.3 3.6.9 4.6-.5.2-.9.3-1.3.4-.4.1-.8.1-1.3.1-1 0-1.7-.2-2.2-.6-.5-.4-.8-.9-.9-1.6-.6.6-1.4 1.1-2.3 1.6-1 .4-2.1.6-3.5.6-.7 0-1.4-.1-2.2-.3s-1.4-.5-2-1c-.6-.5-1.1-1.1-1.4-1.8s-.6-1.7-.6-2.8c0-1.4.3-2.5 1-3.3s1.5-1.5 2.5-2 2.1-.8 3.2-1 2.2-.3 3.2-.4h1.8v-.7c0-1-.3-1.7-.8-2.2-.5-.4-1.4-.6-2.7-.6-1.1 0-2.2.2-3.1.6-.9.4-1.8.8-2.6 1.3-.4-.5-.7-1-.9-1.5s-.3-1-.3-1.2c0-.3.2-.7.6-1.1.4-.4 1-.7 1.7-1 .7-.3 1.5-.5 2.5-.7.9-.2 1.9-.3 3-.3 1.4 0 2.7.1 3.7.4 1 .3 1.8.7 2.4 1.4s1.1 1.4 1.3 2.3c.3.9.4 2 .4 3.2v7.6zm-5.2-4.7h-1.2c-.7.1-1.3.1-2 .3-.7.1-1.2.3-1.7.6s-.9.6-1.2 1c-.3.4-.5 1-.5 1.6 0 .7.2 1.4.6 1.9.4.5 1.1.8 2.2.8.5 0 1-.1 1.4-.2.5-.1.9-.3 1.2-.5.3-.2.6-.4.8-.7.2-.3.3-.5.3-.7v-4.1zm15.8 9.3H8.3v-18.9l.5-.1c.2 0 .3 0 .6-.1h.8c.9 0 1.6.2 2.2.5.6.3 1 .8 1.2 1.6.5-.6 1.1-1.2 2.1-1.7.9-.5 2.2-.8 3.8-.8 1.9 0 3.3.4 4.2 1.1.9.7 1.5 1.7 1.8 3 .1.6.2 1.3.3 2 0 .7.1 1.4.1 2.1v11.3h-5.4v-11c0-.6 0-1.1-.1-1.6s-.1-.9-.3-1.3c-.2-.4-.5-.6-.8-.8-.4-.2-.9-.3-1.6-.3-1 0-1.8.2-2.5.6-.7.4-1.1.9-1.1 1.5v12.9zm26.5-3.4c.6 0 1.1-.1 1.6-.2s.9-.3 1.3-.5.7-.4 1-.6c.3-.2.5-.4.6-.6.2.2.3.4.5.6.2.3.3.5.4.8.1.3.2.6.3.8s.1.5.1.7c0 .3-.1.5-.2.8-.1.3-.3.5-.7.8-.5.4-1.2.7-2.2 1-.9.3-2.1.5-3.6.5-1 0-2-.1-3.1-.4-1.1-.3-2.2-.8-3.1-1.5-1-.7-1.8-1.8-2.4-3.1s-1-3-1-5.2c0-2 .3-3.7 1-5 .7-1.3 1.5-2.3 2.5-3 1-.7 2-1.3 3.1-1.5 1.1-.3 2.1-.4 3-.4 1.1 0 2.1.1 3.1.4s1.7.6 2.3 1c.5.3.9.6 1.1.9.2.3.3.6.3 1s-.1.8-.4 1.4c-.2.5-.5 1-.9 1.5-.4-.5-1.1-.9-1.9-1.4-.8-.5-1.7-.7-2.8-.7-1.8 0-3 .5-3.8 1.6-.7 1.1-1.1 2.5-1.1 4.1 0 .9.1 1.7.2 2.4.2.7.4 1.4.8 2 .4.6.9 1 1.5 1.3.9.3 1.6.5 2.5.5zm18.6 0c.7 0 1.3-.1 1.8-.2s1-.3 1.4-.5c.4-.2.7-.4 1-.7.3-.3.6-.5.8-.7.3.4.7.9 1 1.5.3.6.5 1.1.5 1.5 0 .6-.3 1.1-1 1.6-.6.4-1.4.8-2.4 1.1-1 .3-2.2.5-3.6.5-1.3 0-2.5-.2-3.7-.5-1.2-.3-2.3-.9-3.2-1.7-.9-.8-1.7-1.9-2.3-3.2-.6-1.3-.9-3-.9-5.1 0-1.7.3-3.1.8-4.3s1.2-2.2 2.1-3c.9-.8 1.8-1.4 2.9-1.8 1.1-.4 2.2-.6 3.4-.6 1.5 0 2.8.2 3.8.7 1 .5 1.9 1.1 2.5 1.9.7.8 1.1 1.7 1.4 2.7.3 1 .4 2.1.4 3.2v2c0 .2 0 .4-.1.5H53.7c.1 1.5.6 2.7 1.4 3.7.8.9 2.1 1.4 3.8 1.4zm1.8-8.1c0-1.3-.2-2.3-.7-3.1-.5-.8-1.4-1.2-2.7-1.2-1.1 0-2 .4-2.6 1.1-.6.8-1 1.8-1 3.2h7z" fill="#FFF"/>
</svg>