<svg xmlns="http://www.w3.org/2000/svg" width="649" height="725.2" viewBox="0 0 649 725.2">
  <path fill="#FFF" d="M523.5 237.7s.6 20.5-9.1 26.2c-8.7 5.1-12.6 6.2-12.6 6.2s42.5 17 76.6 3.3c-18.3-5-17.1-11.3-17.1-11.3l-3.3-21.3-34.5-3.1z"/>
  <path fill="none" stroke="#00A78E" stroke-width="3.076" stroke-miterlimit="10" d="M523.5 237.7s.6 20.5-9.1 26.2c-8.7 5.1-12.6 6.2-12.6 6.2s42.5 17 76.6 3.3c-18.3-5-17.1-11.3-17.1-11.3l-3.3-21.3-34.5-3.1z"/>
  <path fill="#FFF" d="M485.3 725.2l-8-228h118.8l-2.7 228h-48.5V540.4c0-4.9-1.8-8.8-7.2-8.8s-7.2 3.9-7.2 8.8v184.8h-45.2zm157.5-364.3l-42.6 9.8-4.7-20.2 4.9 49.3c.6 8.4 1 35.6-1 60.2l-4.2 32.8H478.8l-4.3-38.5c-1.3-20.3.1-50.5.9-58.2l6.7-46-5.6 18.9-40.8-9.6s4.3-14.9 19-46.6c14.7-31.7 47.1-42.8 47.1-42.8l39.2 6.3 37.4-3s34.6 8.7 49.3 40.4c14.6 31.7 14.6 46.9 14.6 46.9"/>
  <path fill="none" stroke="#00A78E" stroke-width="2.562" stroke-miterlimit="10" d="M642.8 360.9l-42.6 9.8-4.7-20.2 4.9 49.3c.6 8.4 1 35.6-1 60.2l-4.2 32.8H478.8l-4.3-38.5c-1.3-20.3.1-50.5.9-58.2l6.7-46-5.6 18.9-40.8-9.6s4.3-14.9 19-46.6c14.7-31.7 47.1-42.8 47.1-42.8l39.2 6.3 37.4-3s34.6 8.7 49.3 40.4c14.6 31.7 14.6 46.9 14.6 46.9"/>
  <path fill="#FFF" d="M470.7 514.1c1.6 3.5 2.1 7-2.2 6.8l-1.2-1.7-7.3-10.1-2.1 2.8c-1.2 1.7-1.5 3.7-.8 5.5.6 1.4 1.2 3.1 1.7 4.2.3.8 1 1.5 1.9 2.1l5.1 3.5c1.2.9.7 1.9.4 2.9l-.7.7c-1.1 1-2.9 1.1-4.2.2l-5.6-4c-.5-.1-1-.4-1.3-.8l-8.7-13.2c-.5-.8-1.4-4.5-1.2-5.4l3.7-14.4c.1-.4.3-3.4.2-3.8l-13.8-61.1v-10.8s1.6-53.9 4.9-53.2l32.9 7.2c2.6.6-5.4 28.5-5.4 28.5-3.5 13.6-4.8 18.2-5.7 26.3l3.7 66c0 .3 0 .6.1.9l5.6 20.9z"/>
  <path fill="none" stroke="#00A78E" stroke-width="2.562" stroke-miterlimit="10" d="M470.7 514.1c1.6 3.5 2.1 7-2.2 6.8l-1.2-1.7-7.3-10.1-2.1 2.8c-1.2 1.7-1.5 3.7-.8 5.5.6 1.4 1.2 3.1 1.7 4.2.3.8 1 1.5 1.9 2.1l5.1 3.5c1.2.9.7 1.9.4 2.9l-.7.7c-1.1 1-2.9 1.1-4.2.2l-5.6-4c-.5-.1-1-.4-1.3-.8l-8.7-13.2c-.5-.8-1.4-4.5-1.2-5.4l3.7-14.4c.1-.4.3-3.4.2-3.8l-13.8-61.1v-10.8s1.6-53.9 4.9-53.2l32.9 7.2c2.6.6-5.4 28.5-5.4 28.5-3.5 13.6-4.8 18.2-5.7 26.3l3.7 66c0 .3 0 .6.1.9l5.6 20.9z"/>
  <path fill="#FFF" d="M614.9 533.5c-1.2 0-2.4-.5-3.2-1.2l-.9-.9-.2-.6c-.3-.9-.9-2.8 1-4.1l5.2-3.4c.7-.4 1.2-.9 1.5-1.5l1.8-4.2c.6-1.4.4-2.9-.5-4.3l-1-1.4-8.2 10.7h-.6c-2 0-3.3-.6-4.1-1.8-1-1.5-.7-3.7.8-6.9l6.3-20.5c.1-.2.1-.4.1-.6l5.4-65.8c-.5-3.7-1.6-8.7-3.3-14.8-.1-.3-.1-.5-.2-.6-4.3-13.8-11.3-37.4-9.6-40.2.2-.4.6-.7 1-.8l33.2-6.5h.2c1.6 0 3.2 0 5.9 27.8 1.3 13.2 2.2 26.6 2.2 26.7v.1l-.3 10.9-15.4 61c0 .4.1 2.8.2 3.3l3.4 14.4v.1c.2 1.3-.9 5.3-1.6 6.2l-9.1 13c-.4.6-1.1 1-1.9 1.3l-5.5 3.7c-.8.6-1.7.9-2.6.9"/>
  <path fill="#00A78E" d="M639.6 365.4c3.3 0 6.8 53.4 6.8 53.4l-.3 10.8-15.4 60.8c-.1.4.1 3.4.1 3.8l3.4 14.5c.1.9-.8 4.6-1.4 5.3l-9.1 13c-.3.4-.8.7-1.3.8l-5.7 3.8c-.6.4-1.2.6-1.9.6-.9 0-1.7-.3-2.3-.9l-.7-.7c-.3-1-.8-2.1.4-2.9l5.2-3.4c.9-.5 1.6-1.2 1.9-2 .5-1.1 1.2-2.8 1.8-4.2.8-1.8.6-3.8-.6-5.5l-2-2.8-7.6 9.9-1.3 1.6h-.1c-4.3 0-3.6-3.4-2-6.9l6.3-20.6c.1-.3.1-.6.2-.9l5.4-65.9c-.9-6.6-3.5-15.5-3.5-15.8 0 0-12.1-38.9-9.5-39.4l33.2-6.4c-.1 0 0 0 0 0m0-2.5c-.2 0-.4 0-.6.1l-33 6.5c-.8.2-1.5.6-1.9 1.4-.7 1.2-1.6 2.7 4 22.6 2.5 8.9 5.2 17.6 5.5 18.6 0 .1.1.3.2.6 1.6 6.1 2.7 10.9 3.2 14.5l-5.4 65.6c0 .2 0 .3-.1.4l-6.2 20.4c-1.1 2.3-2.3 5.5-.7 8 .7 1.1 2.1 2.3 5 2.3h1.3l.8-1 1.3-1.6 5.5-7.1c.7.9.8 2 .4 3l-1.7 3.9-.1.3c-.1.3-.4.6-.8.8h-.1l-.1.1-5.2 3.4c-2.7 1.8-1.8 4.5-1.5 5.5l.1.3.2.6.5.5.7.7c1 1 2.5 1.6 4.1 1.6 1.2 0 2.3-.3 3.3-1l5.4-3.6c1-.3 1.8-.9 2.4-1.7l9.1-13c.8-1.2 2-5.6 1.8-7.2v-.2l-3.3-14.3c-.1-.5-.2-2.3-.1-2.9l15.3-60.6.1-.3v-.3l.3-10.8v-.2c0-.1-.9-13.5-2.2-26.8-.8-7.8-1.5-14-2.2-18.5-1.5-7.5-2.5-10.6-5.3-10.6"/>
  <path fill="#FFF" d="M610 140.1s2.4-21.5 9.1-15.5c5.5 5 8.1 27.9 4.8 44-1.5 7.2-10 15.2-13.6 11.7-3.6-3.5-.3-40.2-.3-40.2m-143.3-3.7s-3.1-21.4-10.2-15.2c-7.4 6.5-6.7 34-4.2 44.1 1.8 7.1 11.3 15 15.1 11.4 3.8-3.7-.7-40.3-.7-40.3"/>
  <path fill="#FFF" d="M463.3 106.1c.1 7.5-4.9 68 16.2 94.5 12 15.1 28.8 29.6 38.5 31.9 15.9 3.7 26.2 6.5 40.2 3.5 14-3 34.6-17.7 47.3-45.9 6.1-13.4 22.5-119-7.9-148.8C577.7 21.8 534 24.2 517.1 25c-16.9.8-54.5 6.8-53.8 81.1"/>
  <path fill="#00A78E" d="M571.5 134.5c0 4.1 3.4 7.4 7.5 7.4 4.2 0 7.5-3.3 7.5-7.4 0-4.1-3.4-7.4-7.5-7.4-4.1-.1-7.5 3.3-7.5 7.4"/>
  <path fill="#00A78E" d="M601.6 136.4c-.1-.1-10.3-9.8-22.5-9.8-6.2 0-13 2.7-18.9 10.5l1.8 2.2c5.4-7.2 11.4-9.5 17.1-9.5 5.6 0 10.8 2.3 14.7 4.6 1.9 1.2 3.5 2.3 4.6 3.2.5.4 1 .8 1.3 1l.4.4 1.5-2.6z"/>
  <path fill="#FFF" d="M577.1 134.3c0 1.4-.8 2.6-1.7 2.6-1 0-1.7-1.2-1.7-2.6 0-1.4.8-2.6 1.7-2.6.9 0 1.7 1.2 1.7 2.6"/>
  <path fill="#00A78E" d="M511.4 131.8c0 4.1-3.4 7.4-7.5 7.4-4.2 0-7.5-3.3-7.5-7.4 0-4.1 3.4-7.4 7.5-7.4s7.5 3.3 7.5 7.4"/>
  <path fill="#00A78E" d="M482.8 136.3l.4-.4c2-1.8 10.8-8.9 20.6-8.8 5.7 0 11.7 2.3 17.1 9.5l1.8-2.2c-5.9-7.9-12.7-10.6-18.9-10.5-12.2 0-22.4 9.8-22.5 9.8l1.5 2.6z"/>
  <path fill="#FFF" d="M500.9 131.6c0 1.4-.8 2.6-1.7 2.6-1 0-1.7-1.2-1.7-2.6 0-1.4.8-2.6 1.7-2.6.9.1 1.7 1.2 1.7 2.6"/>
  <path fill="#00A78E" d="M522.4 95s9.6 8.5 1.5 10-21.2-1.3-27.1 0c-5.9 1.3-17.3 5.8-17.3 5.8l-.7-4.8c0-.1 15.7-14.9 43.6-11m39.3-4.5s-9.3 8.2-1.2 10c8.1 1.8 21.2-.6 27.1 1 5.9 1.5 17.5 6.4 17.5 6.4l.6-4.8c0-.1-16.2-15.5-44-12.6M533 170.6s.6.1 1.6.3c1 .2 2.5.4 4.3.6 1.7.2 3.8.4 5.8.2.5-.1 1-.2 1.4-.3.4-.2.7-.4 1-.6.1-.1.1-.1.1-.2.1-.1.1-.1.1-.2l.1-.1s-.1.2 0 .1v-.2l.1-.4.1-.4v-.4l.1-.7c.1-1.1.1-2.3.1-3.4s0-2.3-.1-3.4c-.1-2.2-.3-4.3-.4-6.1-.2-3.6-.3-6-.3-6s.9 2.3 1.8 5.8c.2.9.4 1.8.6 2.9.2 1 .4 2.1.5 3.2.1 1.1.3 2.3.3 3.5.1 1.2.1 2.5 0 3.7-.1.7-.2 1.5-.4 2l-.1.4v.3l-.1.3-.3.6c-.1.2-.2.4-.4.5-.6.6-1.3 1-2 1.2-.7.2-1.3.3-2 .3-1.2.1-2.4-.1-3.4-.3-1.1-.2-2-.4-2.9-.7-1.8-.5-3.2-1.1-4.1-1.6l-1.5-.9"/>
  <path fill="#00A78E" d="M553.7 5c6.2-7.2 28.2-2.6 25.4 3.3C590.9 1.5 599 14 599 14s44.2 5.6 20.1 120.1c-2.1 10.1-4.6 21.5-4.6 21.5-8.9.6-.9-13.4.4-55.5 1.9-58.2-52.1-45.5-72.1-47.7-24.2-2.7-64.8-5.9-72.1 25.3-7.3 31.2-3.9 73.2-3.9 73.2l-6.7 6.8v-38.4s-14-36.2-11.2-50.6c2.8-14.5 10-27.5 35.5-50.6C501.1 3 530.5.4 533.8 4.1"/>
  <path fill="none" stroke="#FFF" stroke-width="2.562" stroke-miterlimit="10" d="M553.7 5c6.2-7.2 28.2-2.6 25.4 3.3C590.9 1.5 599 14 599 14s44.2 5.6 20.1 120.1c-2.1 10.1-4.6 21.5-4.6 21.5-8.9.6-.9-13.4.4-55.5 1.9-58.2-52.1-45.5-72.1-47.7-24.2-2.7-64.8-5.9-72.1 25.3-7.3 31.2-3.9 73.2-3.9 73.2l-6.7 6.8v-38.4s-14-36.2-11.2-50.6c2.8-14.5 10-27.5 35.5-50.6C501.1 3 530.5.4 533.8 4.1"/>
  <path fill="#00A78E" d="M533.9 4.1c5 5.7 13.6 8.1 19.8.9"/>
  <path fill="none" stroke="#FFF" stroke-width="2.562" stroke-miterlimit="10" d="M533.9 4.1c5 5.7 13.6 8.1 19.8.9"/>
  <path fill="none" stroke="#FFF" stroke-width="2.14" stroke-miterlimit="10" d="M316.1 127.2h100.7"/>
  <path fill="#FFF" d="M413.7 137.8l18.4-10.6-18.4-10.7"/>
  <text transform="translate(6.14 138.88)">
    <tspan x="0" y="0" fill="#FFF" font-family="'Foco'" font-weight="700" font-size="40">Vision in</tspan>
    <tspan x="150.1" y="0" fill="#FFF" font-family="'Foco'" font-weight="700" font-size="40">s</tspan>
    <tspan x="166.9" y="0" fill="#FFF" font-family="'Foco'" font-weight="700" font-size="40">uran</tspan>
    <tspan x="247.7" y="0" fill="#FFF" font-family="'Foco'" font-weight="700" font-size="40">c</tspan>
    <tspan x="266" y="0" fill="#FFF" font-family="'Foco'" font-weight="700" font-size="40">e</tspan>
  </text>
  <path fill="none" stroke="#FFF" stroke-width="2.14" stroke-miterlimit="10" d="M316.1 200.1h100.7"/>
  <path fill="#FFF" d="M413.7 210.8l18.4-10.7-18.4-10.7"/>
  <text transform="translate(0 212.03)">
    <tspan x="0" y="0" fill="#FFF" font-family="'Foco'" font-weight="700" font-size="40">Dental in</tspan>
    <tspan x="157.3" y="0" fill="#FFF" font-family="'Foco'" font-weight="700" font-size="40">s</tspan>
    <tspan x="174.1" y="0" fill="#FFF" font-family="'Foco'" font-weight="700" font-size="40">uran</tspan>
    <tspan x="254.9" y="0" fill="#FFF" font-family="'Foco'" font-weight="700" font-size="40">c</tspan>
    <tspan x="273.2" y="0" fill="#FFF" font-family="'Foco'" font-weight="700" font-size="40">e</tspan>
  </text>
  <path fill-rule="evenodd" clip-rule="evenodd" fill="#00A78E" d="M622.1 115.1c-.7-.9-3.3-1.4-4.5-1.6-5.3-1-11.1-1.1-16.5-1.6-7.5-.7-15.2-.8-22.8-.4-6.7.4-13.2 1.6-19.6 3.4-5.7 1.6-11.6 4.1-17.6 4.3v8.5c1.6 0 2.9.1 4 1.2 2.7 2.9 3.9 9.5 6.5 15.4 3.9 9.1 9.4 15.5 18.5 19 11.8 4.7 30.2 3.3 38.6-7.7 2.3-3 3.9-6.7 4.9-10.5 1.4-5.5 1.8-11.3 2.8-15.4.3-1.4.9-2.9 1.9-4 .9-.9 2.3-.9 3-2.1.5-.8.5-2.5.7-3.5.1-1.2 1.1-3.8.1-5m-11.4 21c-.7 8.1-4.1 16.6-11 21.4-7.7 5.3-19 5.2-27.5 2.1-6.4-2.3-10.7-7.1-13.8-13-1.2-2.3-2-5-2.7-7.5-1.3-4.6-2-10.1.5-14.5 1.4-2.4 3.8-4.2 6.4-5.5 2.4-1.1 5.1-1.9 7.5-2.2 5.6-.9 11.6-1.1 17.3-1 7.1.2 14 .5 19.4 5.7 3.8 3.7 4.4 9.4 3.9 14.5m3.8-15.9c-1-.1-3.1-.3-3.7-1.1-1.4-1.5 2.6-1.5 3.7-1.4 1 .1 3 .3 3.6 1 1.5 1.6-2.5 1.6-3.6 1.5"/>
  <path fill-rule="evenodd" clip-rule="evenodd" fill="#00A78E" d="M460.4 120.4c.1.9.2 2.6.7 3.5.7 1.2 2.2 1.2 3 2.1 1 1.1 1.6 2.6 1.9 4 1 4.1 1.4 9.8 2.8 15.4 1 3.8 2.6 7.5 4.9 10.5 8.4 11 26.8 12.4 38.6 7.7 9-3.6 14.6-10 18.5-19 2.5-5.9 3.7-12.5 6.5-15.4 1-1.1 2.4-1.2 4-1.2v-8.5c-6-.3-11.9-2.7-17.6-4.3-6.4-1.8-12.9-3.1-19.6-3.4-7.6-.4-15.2-.3-22.8.4-5.4.5-11.1.6-16.5 1.6-1.1.2-3.7.7-4.5 1.6-1.2.9-.1 3.5.1 5m15.2 1.2c5.4-5.2 12.3-5.5 19.4-5.7 5.7-.1 11.7.1 17.3 1 2.4.4 5 1.1 7.4 2.2 2.7 1.3 5 3 6.4 5.5 2.5 4.4 1.8 9.8.5 14.5-.7 2.5-1.5 5.2-2.7 7.5-3.2 5.9-7.4 10.6-13.8 13-8.5 3.1-19.8 3.2-27.5-2.1-6.9-4.7-10.3-13.3-11-21.4-.5-5.1.1-10.8 4-14.5m-11.5-2.8c.7-.7 2.7-.9 3.6-1 1.1-.1 5.1-.1 3.7 1.4-.7.7-2.8 1-3.7 1.1-1.1 0-5 0-3.6-1.5"/>
  <path fill="#00A78E" d="M576.2 201.2c-9.9 13.9-18.8 20.1-37.7 18.8-18.7-1.3-27-11.5-36.1-25.5-.1 1.9-.4-11.1 3.1-9.6 21 8.8 42.7 11.4 65.3 6.8 1.2-.2 2.3-.6 3.4-1 5.6-1.7 2.5 11.7 2 10.5m-16.8 4.7l4.5-3.6c2.1.3 4.3.4 5.7-.6 2.4-1.7 3-4.3 2.2-7.8-2.5.9-4.7 1.6-7.2 2.5-2.3-1.4-6.3-1.3-8.4 2-2.5-2.7-12.9-3-15.9-.4-3.7-3.3-10.2-4.2-13.5-1.9-3.3-4-5.3-4.5-9.9-2.1-1.4-6.1-8.1-2.3-11.1-6.1-1.1 5 3 6.4 5.3 8.9-1.1-.3-2.2-.7-4.4-1.3 1 2.5 1.4 5.5 2.5 5.8 2.6.7 2.7 2.6 3.9 4 .9 1.1 1.8 2.4 2.7 3.5 1.3 1.6 2.8 2.3 4-.3 4.4 7.1 8 8.6 11.1 4.9 4.1 4.9 6.6 5.3 10.2 1.7 3.2 3.6 8.8 2.6 13.5-2.5 2 2.3 3.5 2.4 6 .1.9-.8 1.7-2.3 2.7-2.4 4.7-.3 5.9-3.6 7.7-6.5l-.8-1c-2.4 1.3-4.8 2.6-7.3 4-.8-.2-2.1-.5-3.5-.9"/>
  <path fill="#00A78E" d="M543.8 206.8c-.8 1-1.9 2.2-2.9 3.3-1.1-1.1-2.5-2.4-3.8-3.7 1-1.2 2.2-2.5 3.3-3.8 1 1.3 2.3 2.8 3.4 4.2m15.6-.9c-1.3.9-2.6 1.9-4 2.9-1.1-.6-2.4-1.3-3.6-2 1.2-1.1 2.5-2.4 3.6-3.5 1.3.8 2.7 1.8 4 2.6.1.1 0 0 0 0m-41-7.9c-.5 2.5 4 3.8.8 6.5-1-1.1-2-2.2-3-3.2.6-.9 1.2-1.9 2.2-3.3m7.9 7.4c.5-.7 1-1.4 1.5-2.2 1 .9 2 1.8 3.1 2.7-.4.9-.9 1.8-1.4 2.8-1-1.1-2.1-2.2-3.2-3.3"/>
  <path fill="#FFF" d="M520.4 204.2l9.2-1.6-9.1-1.6.6-1.8-1.8.6-1.6-9.1-1.6 9.2-2.2-.7.6 1.9-8.7 1.5 8.8 1.6-.7 2.2 2.2-.7 1.6 8.8 1.5-8.6 1.9.5"/>
  <path fill="none" stroke="#00A78E" stroke-width=".548" stroke-miterlimit="10" d="M520.4 204.2l9.2-1.6-9.1-1.6.6-1.8-1.8.6-1.6-9.1-1.6 9.2-2.2-.7.6 1.9-8.7 1.5 8.8 1.6-.7 2.2 2.2-.7 1.6 8.8 1.5-8.6 1.9.5z"/>
  <path fill="#FFF" d="M524.6 723.9s-2.5-19.2-41.9-17.5c-39.3 1.7-42.4 14.4-43.9 17.8m201-.3s-2.5-19.2-41.9-17.5c-39.3 1.7-42.4 14.4-43.9 17.8"/>
  <path fill="none" stroke="#FFF" stroke-width="2.14" stroke-miterlimit="10" d="M316.1 325.2h100.7"/>
  <path fill="#FFF" d="M413.7 335.8l18.4-10.6-18.4-10.7"/>
  <text transform="translate(49.14 337.15)">
    <tspan x="0" y="0" fill="#FFF" font-family="'Foco'" font-weight="700" font-size="40">Li</tspan>
    <tspan x="30.7" y="0" fill="#FFF" font-family="'Foco'" font-weight="700" font-size="40">f</tspan>
    <tspan x="44.7" y="0" fill="#FFF" font-family="'Foco'" font-weight="700" font-size="40">e in</tspan>
    <tspan x="107.5" y="0" fill="#FFF" font-family="'Foco'" font-weight="700" font-size="40">s</tspan>
    <tspan x="124.4" y="0" fill="#FFF" font-family="'Foco'" font-weight="700" font-size="40">uran</tspan>
    <tspan x="205.2" y="0" fill="#FFF" font-family="'Foco'" font-weight="700" font-size="40">c</tspan>
    <tspan x="223.5" y="0" fill="#FFF" font-family="'Foco'" font-weight="700" font-size="40">e</tspan>
  </text>
  <text transform="translate(519.8 320.24)" fill="#00A78E" font-family="'Foco'" font-weight="700" font-size="24.147">I’M</text>
  <text transform="translate(492.32 349.22)" fill="#00A78E" font-family="'Foco'" font-weight="700" font-size="24.147">INSURED</text>
</svg>