<svg xmlns="http://www.w3.org/2000/svg" width="399.4" height="523.3" viewBox="0 0 399.4 523.3">
  <path fill="#FFF" d="M325.4 96.9s1.7-14.7 6.2-10.6c3.8 3.4 5.5 19.2 3.3 30.2-1 4.9-6.9 10.4-9.3 8-2.5-2.4-.2-27.6-.2-27.6m-98.2-2.5s-2.1-14.7-7-10.4c-5.1 4.4-4.6 23.3-2.9 30.2 1.2 4.9 7.7 10.2 10.3 7.8 2.7-2.5-.4-27.6-.4-27.6"/>
  <path fill="#FFF" d="M224.9 73.6c.1 5.2-3.3 46.6 11.1 64.8 8.2 10.3 19.7 20.3 26.4 21.8 10.9 2.5 17.9 4.5 27.5 2.4 9.6-2.1 23.7-12.1 32.4-31.4 4.1-9.2 15.4-81.5-5.4-102-13.7-13.4-43.6-11.7-55.2-11.2-11.6.6-37.3 4.7-36.8 55.6M240 497.9l-5.5-156.3h81.4l-1.8 156.3h-33.3V371.2c0-3.3-1.2-6-4.9-6s-4.9 2.7-4.9 6v126.6h-31z"/>
  <path fill="#00A78E" d="M296.3 90.7c0 2.8 2.3 5.1 5.2 5.1 2.9 0 5.2-2.3 5.2-5.1s-2.3-5.1-5.2-5.1c-2.9.1-5.2 2.3-5.2 5.1"/>
  <path fill="#00A78E" d="M316.9 92.1c-.1 0-7-6.7-15.4-6.7-4.3 0-8.9 1.8-13 7.2l1.2 1.5c3.7-5 7.8-6.5 11.7-6.5 3.8 0 7.4 1.6 10.1 3.2 1.3.8 2.4 1.6 3.2 2.2.4.3.7.5.9.7l.3.3 1-1.9z"/>
  <path fill="#FFF" d="M300.1 90.6c0 1-.5 1.8-1.2 1.8s-1.2-.8-1.2-1.8.5-1.8 1.2-1.8c.7.1 1.2.9 1.2 1.8"/>
  <path fill="#00A78E" d="M261.5 90.7c0 2.8-2.3 5.1-5.2 5.1-2.9 0-5.2-2.3-5.2-5.1s2.3-5.1 5.2-5.1c2.9.1 5.2 2.3 5.2 5.1"/>
  <path fill="#00A78E" d="M241.9 93.8l.3-.3c1.4-1.2 7.4-6.1 14.1-6 3.9 0 8 1.6 11.7 6.5l1.2-1.5c-4-5.4-8.7-7.2-13-7.2-8.4 0-15.3 6.7-15.4 6.7l1.1 1.8z"/>
  <path fill="#FFF" d="M254.3 90.6c0 1-.5 1.8-1.2 1.8s-1.2-.8-1.2-1.8.5-1.8 1.2-1.8c.7.1 1.2.9 1.2 1.8"/>
  <path fill="#00A78E" d="M264.9 68.2s6.6 5.8 1 6.9c-5.5 1-14.5-.9-18.5 0s-11.9 4-11.9 4l-.5-3.3s10.8-10.2 29.9-7.6m27.4-5.3s-6.4 5.6-.8 6.8c5.6 1.3 14.5-.4 18.6.7 4.1 1 12 4.4 12 4.4l.4-3.3s-11.1-10.6-30.2-8.6m-19.6 54.9s.4 0 1.1.1c.7.1 1.7.2 2.9.3 1.2.1 2.6.2 3.9 0 .6-.1 1.2-.3 1.4-.6 0-.1.1-.1.1-.2 0 0-.1.2 0 .1v-.1l.1-.3c.1-.4.1-.7.2-1 .1-1.5.1-3.1 0-4.6 0-1.5-.1-2.9-.1-4.2v-4.2s.2.4.5 1.1c.3.7.6 1.7 1 2.9s.7 2.6.9 4.2c.2 1.6.4 3.2.3 5-.1.5-.1 1.1-.3 1.4l-.1.3v.2l-.1.2c-.1.3-.3.6-.6.8-.5.5-1 .7-1.5.9-.5.1-1 .2-1.4.2-.9 0-1.7-.1-2.4-.2s-1.4-.4-2-.6c-1.2-.4-2.1-.9-2.8-1.2-.8-.2-1.1-.5-1.1-.5m-10.3 9.1s18.3 7.6 33.2 1.2c-2.1 4.3-22 15.2-33.2-1.2"/>
  <path fill="#00A78E" d="M222.7 82.7s-9.6-24.8-7.6-34.7c1.9-9.9 6.8-18.9 24.3-34.7C250.8 2.9 271 1.1 273.3 3.7c3.4 3.9 9.3 5.6 13.6.6 4.3-5 19.3-1.8 17.4 2.3 8-4.6 13.7 3.9 13.7 3.9s30.3 3.9 13.7 82.3c-1.5 6.9-3.2 14.7-3.2 14.7-6.1.4-.6-9.2.3-38.1 1.3-39.9-35.7-31.2-49.4-32.7-16.6-1.9-44.4-4-49.4 17.4s-2.7 50.2-2.7 50.2l-4.6 4.7V82.7z"/>
  <path fill="none" stroke="#FFF" stroke-width="2.562" stroke-miterlimit="10" d="M222.7 82.7s-9.6-24.8-7.6-34.7c1.9-9.9 6.8-18.9 24.3-34.7C250.8 2.9 271 1.1 273.3 3.7c3.4 3.9 9.3 5.6 13.6.6 4.3-5 19.3-1.8 17.4 2.3 8-4.6 13.7 3.9 13.7 3.9s30.3 3.9 13.7 82.3c-1.5 6.9-3.2 14.7-3.2 14.7-6.1.4-.6-9.2.3-38.1 1.3-39.9-35.7-31.2-49.4-32.7-16.6-1.9-44.4-4-49.4 17.4s-2.7 50.2-2.7 50.2l-4.6 4.7V82.7z"/>
  <path fill="#FFF" d="M266.1 163.8s.4 14.1-6.2 17.9c-5.9 3.5-8.7 4.2-8.7 4.2s29.2 11.7 52.5 2.2c-12.6-3.4-11.7-7.7-11.7-7.7l-2.2-14.6-23.7-2z"/>
  <path fill="none" stroke="#00A78E" stroke-width="2" stroke-miterlimit="10" d="M266.1 163.8s.4 14.1-6.2 17.9c-5.9 3.5-8.7 4.2-8.7 4.2s29.2 11.7 52.5 2.2c-12.6-3.4-11.7-7.7-11.7-7.7l-2.2-14.6-23.7-2z"/>
  <path fill="#FFF" d="M347.9 248.2l-29.2 6.7-3.2-13.8 3.4 33.8c.4 5.7.7 24.4-.7 41.2l-2.9 22.4h-79.8l-2.9-26.4c-.9-13.9.1-34.6.6-39.9l4.6-31.5-3.9 13-28-6.6s3-10.2 13-31.9 32.3-29.3 32.3-29.3l26.8 4.3 25.6-2.1s23.7 6 33.8 27.7c10 21.7 10 32.1 10 32.1"/>
  <path fill="none" stroke="#00A78E" stroke-width="2" stroke-miterlimit="10" d="M347.9 248.2l-29.2 6.7-3.2-13.8 3.4 33.8c.4 5.7.7 24.4-.7 41.2l-2.9 22.4h-79.8l-2.9-26.4c-.9-13.9.1-34.6.6-39.9l4.6-31.5-3.9 13-28-6.6s3-10.2 13-31.9 32.3-29.3 32.3-29.3l26.8 4.3 25.6-2.1s23.7 6 33.8 27.7c10 21.7 10 32.1 10 32.1"/>
  <path fill="#FFF" d="M229.9 353.2c1.1 2.4 1.5 4.8-1.5 4.7l-.8-1.1-5-6.9-1.4 1.9c-.8 1.1-1 2.5-.5 3.8.4 1 .8 2.1 1.2 2.9.2.6.7 1.1 1.3 1.4l3.5 2.4c.8.6.5 1.3.2 2l-.5.5c-.7.7-2 .8-2.9.2l-3.8-2.7c-.4-.1-.7-.3-.9-.6l-6-9.1c-.4-.5-.9-3.1-.8-3.7l2.6-9.9c.1-.3.2-2.3.2-2.6l-9.4-41.9v-7.4s1.1-37 3.4-36.5l22.5 4.9c1.7.4-3.7 19.6-3.7 19.6-2.4 9.3-3.3 12.5-3.9 18l2.5 45.2c0 .2 0 .4.1.6l3.6 14.3z"/>
  <path fill="none" stroke="#00A78E" stroke-width="2" stroke-miterlimit="10" d="M229.9 353.2c1.1 2.4 1.5 4.8-1.5 4.7l-.8-1.1-5-6.9-1.4 1.9c-.8 1.1-1 2.5-.5 3.8.4 1 .8 2.1 1.2 2.9.2.6.7 1.1 1.3 1.4l3.5 2.4c.8.6.5 1.3.2 2l-.5.5c-.7.7-2 .8-2.9.2l-3.8-2.7c-.4-.1-.7-.3-.9-.6l-6-9.1c-.4-.5-.9-3.1-.8-3.7l2.6-9.9c.1-.3.2-2.3.2-2.6l-9.4-41.9v-7.4s1.1-37 3.4-36.5l22.5 4.9c1.7.4-3.7 19.6-3.7 19.6-2.4 9.3-3.3 12.5-3.9 18l2.5 45.2c0 .2 0 .4.1.6l3.6 14.3z"/>
  <path fill="#FFF" d="M328.7 366.6c-.9 0-1.7-.3-2.3-.9l-.7-.6-.1-.4c-.2-.6-.6-2 .7-2.9l3.6-2.3c.5-.3.8-.6 1-1l1.2-2.9c.4-.9.3-1.9-.3-2.8l-.6-.8-5.5 7.2h-.5c-1.4 0-2.4-.4-2.9-1.3-.7-1.1-.5-2.6.5-4.8l4.3-14c0-.1.1-.3.1-.4l3.7-45.1c-.4-2.5-1.1-5.9-2.2-10.1 0-.2-.1-.3-.1-.4-3.6-11.6-7.7-25.8-6.6-27.7.2-.3.5-.5.8-.6l22.7-4.5h.1c1.2 0 2.3 0 4.2 19.2.9 9.1 1.5 18.2 1.5 18.3l-.2 7.6-10.5 41.8c0 .3.1 2 .1 2.2l2.3 9.8c.1 1-.6 3.8-1.1 4.5l-6.2 8.9c-.3.4-.8.8-1.3.9l-3.8 2.5c-.6.4-1.2.6-1.9.6"/>
  <path fill="#00A78E" d="M345.7 251.3c2.3 0 4.7 36.6 4.7 36.6l-.2 7.4-10.5 41.7c-.1.3 0 2.3.1 2.6l2.3 9.9c.1.6-.6 3.1-.9 3.7l-6.2 8.9c-.2.3-.5.5-.9.6l-3.9 2.6c-.4.3-.9.4-1.3.4-.6 0-1.2-.2-1.6-.6l-.5-.5c-.2-.7-.6-1.4.3-2l3.5-2.3c.6-.3 1.1-.8 1.3-1.4.3-.8.8-1.9 1.2-2.9.5-1.2.4-2.6-.4-3.8l-1.4-1.9-5.2 6.8-.9 1.1h-.1c-2.9 0-2.5-2.3-1.3-4.7l4.3-14.1c.1-.2.1-.4.1-.6l3.7-45.2c-.6-4.5-2.4-10.6-2.4-10.8 0 0-8.3-26.6-6.5-27l22.7-4.5m0-2h-.4l-22.6 4.5c-.6.1-1.1.5-1.5 1.1-.5.9-1.1 1.9 2.7 15.7 1.7 6.2 3.6 12.4 3.8 12.8 0 .1.1.2.1.4 1.1 4.1 1.9 7.5 2.2 9.9l-3.7 44.9v.2l-4.3 14c-.8 1.6-1.6 3.9-.5 5.7.5.8 1.5 1.7 3.7 1.7h1.1l.6-.8.9-1.1 3.5-4.6c.2.4.3.9.1 1.5l-1.1 2.5-.3.3c-.1.1-.2.3-.5.4h-.2l-3.5 2.3c-2 1.4-1.4 3.4-1.2 4.1l.1.2.2.5.4.4.5.5c.8.7 1.8 1.2 3 1.2.9 0 1.7-.2 2.4-.7l3.7-2.5c.7-.2 1.3-.7 1.7-1.3l6.2-8.9c.6-.9 1.4-3.9 1.3-5.1v-.2l-2.3-9.8c0-.4-.1-1.5-.1-1.9l10.5-41.5.1-.2v-.2l.2-7.4v-.2c0-.1-.6-9.3-1.5-18.3-.5-5.4-1-9.6-1.5-12.7-1-5.2-1.7-7.4-3.8-7.4"/>
  <path fill="#FFF" d="M264.4 497.7s-1.7-13.2-28.7-12c-27 1.2-29 9.9-30.1 12.2m146.9-.2s-1.7-13.2-28.7-12c-27 1.2-29 9.9-30.1 12.2M121.3 116.8s1.7-14.7 6.2-10.6c3.8 3.4 5.5 19.2 3.3 30.2-1 4.9-6.9 10.4-9.3 8-2.5-2.5-.2-27.6-.2-27.6"/>
  <path fill="none" stroke="#00A78E" stroke-width="2.562" stroke-miterlimit="10" d="M121.3 116.8s1.7-14.7 6.2-10.6c3.8 3.4 5.5 19.2 3.3 30.2-1 4.9-6.9 10.4-9.3 8-2.5-2.5-.2-27.6-.2-27.6"/>
  <path fill="#FFF" d="M23.1 114.2s-2.1-14.7-7-10.4c-5.1 4.4-4.6 23.3-2.9 30.2 1.2 4.9 7.7 10.2 10.3 7.8 2.7-2.5-.4-27.6-.4-27.6"/>
  <path fill="#FFF" d="M20.8 93.5c.1 5.2-3.3 46.6 11.1 64.8 8.2 10.3 19.7 20.3 26.4 21.8 10.9 2.5 17.9 4.5 27.5 2.4 9.6-2.1 23.7-12.1 32.4-31.4 4.1-9.2 15.4-81.5-5.4-102-13.6-13.4-43.5-11.7-55.1-11.2-11.7.5-37.4 4.7-36.9 55.6m15.1 424.2l-5.5-156.3h81.4L110 517.7H76.7V391.1c0-3.3-1.2-6-4.9-6s-4.9 2.7-4.9 6v126.6h-31z"/>
  <path fill="#00A78E" d="M99.5 113.9c0 2.8 2.3 5.1 5.2 5.1 2.9 0 5.2-2.3 5.2-5.1s-2.3-5.1-5.2-5.1c-2.8 0-5.2 2.3-5.2 5.1"/>
  <path fill="#00A78E" d="M112.8 111.9c-.1 0-7-6.7-15.4-6.7-4.3 0-8.9 1.8-13 7.2l1.2 1.5c3.7-5 7.8-6.5 11.7-6.5 3.8 0 7.4 1.6 10.1 3.2 1.3.8 2.4 1.6 3.2 2.2.4.3.7.5.9.7l.3.3 1-1.9z"/>
  <path fill="#FFF" d="M108.2 115.1c0 1-.5 1.8-1.2 1.8s-1.2-.8-1.2-1.8.5-1.8 1.2-1.8c.6 0 1.2.8 1.2 1.8"/>
  <path fill="#00A78E" d="M58.3 112.4c0 2.8-2.3 5.1-5.2 5.1-2.9 0-5.2-2.3-5.2-5.1s2.3-5.1 5.2-5.1c2.9 0 5.2 2.3 5.2 5.1"/>
  <path fill="#00A78E" d="M33.9 113.3l.3-.3c1.4-1.2 7.4-6.1 14.1-6 3.9 0 8 1.6 11.7 6.5l1.2-1.5c-4-5.4-8.7-7.2-13-7.2-8.4 0-15.3 6.7-15.4 6.7l1.1 1.8z"/>
  <path fill="#FFF" d="M56.6 113.8c0 1-.5 1.8-1.2 1.8s-1.2-.8-1.2-1.8.5-1.8 1.2-1.8c.7.1 1.2.8 1.2 1.8"/>
  <path fill="#00A78E" d="M61.1 83.4s6.6 5.8 1 6.9c-5.5 1-14.5-.9-18.5 0s-11.9 4-11.9 4l-.5-3.3c.1-.1 10.8-10.2 29.9-7.6m27.2-.6s-6.4 5.6-.8 6.8c5.6 1.3 14.5-.4 18.6.7 4.1 1 12 4.4 12 4.4l.4-3.3c-.1 0-11.2-10.6-30.2-8.6m-19.7 54.9s.4.1 1.1.2c.7.1 1.7.3 2.9.4 1.2.1 2.6.3 4 .1.7-.1 1.3-.3 1.5-.6.1-.1.1-.2.2-.2v-.1.1-.1l.1-.3c.1-.4.1-.7.2-1 .1-.8.1-1.5.1-2.3 0-.8 0-1.6-.1-2.3-.1-1.5-.2-2.9-.2-4.2-.1-2.5-.1-4.1-.1-4.1s.7 1.5 1.3 4c.3 1.2.6 2.6.8 4.2.1.8.2 1.6.2 2.4v2.6c-.1.5-.1 1-.3 1.4l-.1.3v.2l-.1.2c-.1.3-.3.5-.5.8-.4.4-.9.7-1.4.8-.5.1-.9.2-1.4.2-.9 0-1.7-.1-2.4-.2s-1.4-.3-2-.5c-1.2-.4-2.2-.8-2.8-1.1-.7-.7-1-.9-1-.9m-10.3 9.1s18.3 7.6 33.2 1.2c-2.1 4.3-22 15.2-33.2-1.2"/>
  <path fill="#FFF" d="M62 183.6s.4 14.1-6.2 17.9c-5.9 3.5-8.7 4.2-8.7 4.2s29.2 11.7 52.5 2.2c-12.6-3.4-11.7-7.7-11.7-7.7l-2.2-14.6-23.7-2z"/>
  <path fill="none" stroke="#00A78E" stroke-width="2" stroke-miterlimit="10" d="M62 183.6s.4 14.1-6.2 17.9c-5.9 3.5-8.7 4.2-8.7 4.2s29.2 11.7 52.5 2.2c-12.6-3.4-11.7-7.7-11.7-7.7l-2.2-14.6-23.7-2z"/>
  <path fill="#EF4135" d="M143.8 268.1l-29.2 6.7-3.2-13.8 3.4 33.8c.4 5.7.7 24.4-.7 41.2l-2.9 22.4H31.4L28.5 332c-.9-13.9.1-34.6.6-39.9l4.6-31.5-3.9 13-28-6.6s3-10.2 13-31.9 32.3-29.3 32.3-29.3l26.8 4.3 25.6-2.1s23.7 6 33.8 27.7c10 21.7 10 32.1 10 32.1"/>
  <path fill="none" stroke="#00A78E" stroke-width="2" stroke-miterlimit="10" d="M143.8 268.1l-29.2 6.7-3.2-13.8 3.4 33.8c.4 5.7.7 24.4-.7 41.2l-2.9 22.4H31.4L28.5 332c-.9-13.9.1-34.6.6-39.9l4.6-31.5-3.9 13-28-6.6s3-10.2 13-31.9 32.3-29.3 32.3-29.3l26.8 4.3 25.6-2.1s23.7 6 33.8 27.7c10 21.7 10 32.1 10 32.1"/>
  <path fill="#FFF" d="M25.8 373c1.1 2.4 1.5 4.8-1.5 4.7l-.8-1.1-5-6.9-1.4 1.9c-.8 1.1-1 2.5-.5 3.8.4 1 .8 2.1 1.2 2.9.2.6.7 1.1 1.3 1.4l3.5 2.4c.8.6.5 1.3.2 2l-.5.5c-.7.7-2 .8-2.9.2l-3.8-2.7c-.4-.1-.7-.3-.9-.6l-6-9.1c-.4-.5-.9-3.1-.8-3.7l2.6-9.9c.1-.3.2-2.3.2-2.6L1 314.3v-7.4s1.1-37 3.4-36.5l22.5 4.9c1.7.4-3.7 19.6-3.7 19.6-2.4 9.3-3.3 12.5-3.9 18l2.5 45.2c0 .2 0 .4.1.6l3.9 14.3z"/>
  <path fill="none" stroke="#00A78E" stroke-width="2" stroke-miterlimit="10" d="M25.8 373c1.1 2.4 1.5 4.8-1.5 4.7l-.8-1.1-5-6.9-1.4 1.9c-.8 1.1-1 2.5-.5 3.8.4 1 .8 2.1 1.2 2.9.2.6.7 1.1 1.3 1.4l3.5 2.4c.8.6.5 1.3.2 2l-.5.5c-.7.7-2 .8-2.9.2l-3.8-2.7c-.4-.1-.7-.3-.9-.6l-6-9.1c-.4-.5-.9-3.1-.8-3.7l2.6-9.9c.1-.3.2-2.3.2-2.6L1 314.3v-7.4s1.1-37 3.4-36.5l22.5 4.9c1.7.4-3.7 19.6-3.7 19.6-2.4 9.3-3.3 12.5-3.9 18l2.5 45.2c0 .2 0 .4.1.6l3.9 14.3z"/>
  <path fill="#FFF" d="M124.6 386.5c-.9 0-1.7-.3-2.3-.9l-.7-.6-.1-.4c-.2-.6-.6-2 .7-2.9l3.6-2.3c.5-.3.8-.6.9-1l1.2-2.9c.4-.9.3-1.9-.3-2.8l-.6-.8-5.5 7.2h-.5c-1.4 0-2.4-.4-2.9-1.3-.7-1.1-.5-2.6.5-4.8l4.3-14c0-.1.1-.3.1-.4l3.7-45.1c-.4-2.5-1.1-5.9-2.2-10.1 0-.2-.1-.3-.1-.4-3.6-11.6-7.7-25.8-6.6-27.7.2-.3.5-.5.8-.6l22.7-4.5h.1c1.2 0 2.3 0 4.2 19.2.9 9.1 1.5 18.2 1.5 18.3l-.2 7.6-10.4 41.7c0 .2.1 2 .1 2.2l2.3 9.8c.1 1-.6 3.8-1.1 4.5l-6.2 8.9c-.3.4-.8.8-1.3.9l-3.8 2.5c-.5.5-1.2.7-1.9.7"/>
  <path fill="#00A78E" d="M141.6 271.2c2.3 0 4.7 36.6 4.7 36.6l-.2 7.4-10.5 41.6c-.1.3 0 2.3.1 2.6l2.3 9.9c.1.6-.6 3.1-.9 3.7l-6.2 8.9c-.2.3-.5.5-.9.6l-3.9 2.6c-.4.3-.9.4-1.3.4-.6 0-1.2-.2-1.6-.6l-.5-.5c-.2-.7-.6-1.4.3-2l3.5-2.3c.6-.3 1.1-.8 1.3-1.4.3-.8.8-1.9 1.2-2.9.5-1.2.4-2.6-.4-3.8l-1.4-1.9-5.2 6.8-.9 1.1h-.1c-2.9 0-2.5-2.3-1.3-4.7l4.3-14.1c.1-.2.1-.4.1-.6l3.7-45.2c-.6-4.5-2.4-10.6-2.4-10.8 0 0-8.3-26.6-6.5-27l22.7-4.4m0-2h-.4l-22.6 4.5c-.6.1-1.1.5-1.5 1.1-.5.9-1.1 1.9 2.7 15.7 1.7 6.3 3.6 12.4 3.8 12.8 0 .1.1.2.1.4 1.1 4.1 1.8 7.5 2.2 9.9l-3.7 44.9v.2l-4.3 14c-.8 1.6-1.6 3.9-.5 5.7.5.8 1.5 1.7 3.7 1.7h1.1l.6-.8.9-1.1 3.5-4.6c.2.4.3.9.1 1.5-.4 1-.9 2.1-1.2 2.9-.1.1-.2.3-.5.4h-.2l-3.5 2.3c-2 1.4-1.4 3.4-1.2 4.1l.1.2.2.5.4.4.5.5c.8.7 1.8 1.2 3 1.2.9 0 1.7-.2 2.4-.7l3.7-2.5c.7-.2 1.3-.7 1.7-1.3l6.2-8.9c.6-.9 1.4-3.9 1.3-5.1v-.2l-2.3-9.8c0-.4-.1-1.5-.1-1.9l10.5-41.5.1-.2v-.2l.2-7.4v-.2c0-.1-.6-9.3-1.5-18.3-.5-5.4-1-9.6-1.5-12.7-1.2-5.3-1.9-7.5-4-7.5"/>
  <path fill="#FFF" d="M69.5 517.5s-1.7-13.2-28.7-12c-27 1.2-29 9.9-30.1 12.2m137.7-.2s-1.7-13.2-28.7-12c-27 1.2-29 9.9-30.1 12.2M75.5 284.3l.2 2.8c-.3.1-1.3.3-2.7.3-2.8 0-4.3-1.2-4.3-4.1 0-2.3 0-4.8.1-6.1h-1.5V275c2.2-.4 2.9-1.6 3.2-4h2.4c-.1 1-.2 2.4-.2 3.4h2.6v2.8h-2.6v5c0 1.9.4 2.4 1.7 2.4.4 0 .8-.2 1.1-.3m13.5-3.1v-2.5c0-3.2-1.4-4.7-5.4-4.7-2.2 0-3.8.4-6.4.4.1 2.3.1 5.1.1 6.8 0 1.8-.1 4.9-.1 5.9h4.3c-.1-1-.2-4-.2-5.9 0-1.1 0-2.5.1-4.3.4-.1 1-.3 1.6-.3 1.5 0 2 .7 2 2.6v1.9c0 1.8-.1 4.9-.1 5.9h4.3c-.1-.9-.2-3.8-.2-5.8m-28.7.6h-1.6v.1c0 1.8 1.2 3 3.4 3 1.3 0 2.6-.4 3.4-.9l.2 2.9c-.9.4-2.6.7-4.2.7-4.5 0-6.7-1.5-7-5.7-.5 0-1.3-.1-2.3-.1 0 .7-.1 1.4-.1 1.9 0 1 0 2.5.2 3.6-2.5 0-4.4.3-6.3.3-3.7 0-5-1.5-5-4.1 0-2.5 2.1-3.9 6.6-3.9h.6v-.3c0-1.8-.5-2.5-2.4-2.5-1.3 0-2.6.5-3.5.9l-.2-2.8c1-.4 2.7-.7 4.7-.7 3.9 0 5.4 1.3 5.4 4.9v.6c1 0 1.7 0 2.3.1.4-3.5 2.2-5.5 6.6-5.5 3.6 0 5.3 1.5 5.3 3.8-.2 2.4-2.2 3.7-6.1 3.7m-12.3 3c-.1-.9 0-2.1 0-3.2h-.5c-1.9 0-2.6.6-2.6 1.7s.6 1.6 2 1.6c.3 0 .8 0 1.1-.1m11.8-5.2c1.7 0 2.6-.6 2.6-1.8 0-.9-.6-1.4-1.5-1.4-1.6 0-2.2 1.3-2.2 3.1v.1h1.1m42.2 7.5c-2.5 0-4.4.3-6.3.3-3.7 0-5-1.5-5-4.1 0-2.5 2.1-3.9 6.6-3.9h.6v-.3c0-1.8-.5-2.5-2.4-2.5-1.3 0-2.6.5-3.5.9l-.2-2.8c1-.4 2.7-.7 4.7-.7 3.9 0 5.4 1.3 5.4 4.9 0 1.9-.1 3.6-.1 4.7 0 1 0 2.5.2 3.5m-4.2-2.3c-.1-.9 0-2.1 0-3.2h-.5c-1.9 0-2.6.6-2.6 1.7s.6 1.6 2 1.6c.3 0 .8 0 1.1-.1m5.1-9.1c-.1-.1-.2-.2-.2-.4 0-.1-.1-.3-.1-.4 0-.2 0-.3.1-.4 0-.1.1-.3.2-.4.1-.1.2-.2.3-.2.1-.1.3-.1.4-.1.2 0 .3 0 .4.1.1.1.2.1.3.2.1.1.2.2.2.4 0 .1.1.3.1.4 0 .2 0 .3-.1.4 0 .1-.1.3-.2.4-.1.1-.2.2-.3.2-.1.1-.3.1-.4.1-.2 0-.3 0-.4-.1-.1 0-.3-.1-.3-.2m.4.1c.1.1.2.1.4.1.1 0 .3 0 .4-.1.1-.1.2-.1.3-.2.1-.1.1-.2.2-.3 0-.1.1-.2.1-.4 0-.1 0-.2-.1-.4 0-.1-.1-.2-.2-.3-.1-.1-.2-.2-.3-.2-.1-.1-.2-.1-.4-.1-.1 0-.3 0-.4.1-.1.1-.2.1-.3.2-.1.1-.1.2-.2.3 0 .1-.1.2-.1.4s0 .4.1.5c.2.2.3.3.5.4m-.1-1.5h.4c.2 0 .3 0 .4.1.1.1.1.2.1.3v.2s0 .1-.1.1l-.1.1h-.1l.3.5h-.3s-.1 0-.1-.1l-.3-.4h-.2v.5h-.2v-1.3zm.4.6c.2 0 .3-.1.3-.2s0-.1-.1-.2c0 0-.1-.1-.2-.1h-.2v.4h.2z"/>
  <path fill="#00A78E" d="M16.6 96.7S7.2 72.3 9.1 62.5C11 52.7 11.8 37.8 33 28.3c21.2-9.5 20.5-4.9 23-10.4s3.1 3 3.1 3l5.3-9s-.3 4.3 1.9 6.9c3.4 3.8 6.5-5.5 6-12.2 2.8 10.4 3.1 17.7 7.3 12.8 4.2-4.9 5.6-17.1 2.4-18.3 9.4 5.5 15.8 18.6 14 22.6 7.9-4.6 7.9-8.5 7.9-8.5l3.5 7.9s32.6 6.3 16.3 83.5c-1.4 6.8-3.1 14.5-3.1 14.5-6 .4-.6-9 .3-37.5 1.3-39.3-35.2-30.7-48.6-32.2-16.3-1.8-43.7-4-48.6 17.1-4.9 21.1-2.7 49.4-2.7 49.4l-4.5 4.6V96.7z"/>
  <path fill="none" stroke="#FFF" stroke-width="2.523" stroke-miterlimit="10" d="M16.6 96.7S7.2 72.3 9.1 62.5C11 52.7 11.8 37.8 33 28.3c21.2-9.5 20.5-4.9 23-10.4s3.1 3 3.1 3l5.3-9s-.3 4.3 1.9 6.9c3.4 3.8 6.5-5.5 6-12.2 2.8 10.4 3.1 17.7 7.3 12.8 4.2-4.9 5.6-17.1 2.4-18.3 9.4 5.5 15.8 18.6 14 22.6 7.9-4.6 7.9-8.5 7.9-8.5l3.5 7.9s32.6 6.3 16.3 83.5c-1.4 6.8-3.1 14.5-3.1 14.5-6 .4-.6-9 .3-37.5 1.3-39.3-35.2-30.7-48.6-32.2-16.3-1.8-43.7-4-48.6 17.1-4.9 21.1-2.7 49.4-2.7 49.4l-4.5 4.6V96.7z"/>
  <path fill="#00A78E" d="M126.5 102.5c-.4-.2-.9-.4-1.4-.5-10.1-3.4-20.5-5.2-31.2-4.7-4.6.2-9.1 1-13.3 2.9-1.4.6-2.8 1.3-2.8 3.1-1.6-.3-9.2-.3-10.8 0 0-1.8-1.4-2.5-2.8-3.1-4.2-1.9-8.8-2.6-13.3-2.9-10.7-.5-21 1.3-31.2 4.7-.5.2-.9.3-1.4.5-2 .9-2.7 2.2-2.3 4.3.1.3.6.7.9.7 2.3.1 1.9 0 2.8 1.6.4.7.7 1.3 1.5 1.7 2.7 1.2 3.4.9 4.3 4 .5 1.8 2.2 5.2 3.4 6.7 2.3 2.9 5.8 4.5 9.6 4.9 4.9.6 9.8.4 14.6-.8 4.4-1.1 7.5-4 9.5-7.9 1.4-2.7 2.3-5.6 2.5-8.6.2-2.9 2.6-4.4 5.5-4.5h3.6c2.9.1 5.3 1.6 5.5 4.5.2 3 1 5.9 2.5 8.6 2.1 3.9 5.1 6.8 9.5 7.9 4.8 1.2 9.7 1.4 14.6.8 3.8-.5 7.2-2 9.6-4.9 1.2-1.5 2.9-4.9 3.4-6.7.8-3 1.6-2.8 4.3-4 .8-.4 1.1-1 1.5-1.7.9-1.6.6-1.5 2.8-1.6.3 0 .8-.4.9-.7.4-2.1-.3-3.5-2.3-4.3m-61.9 7.4c-.3 1.5-.5 3.1-1 4.5-2 5.6-5.5 9.6-11.5 10.8-4.6.9-9.2.7-13.8.3-5.9-.6-9.3-4.1-11-9.4-.6-1.9-1.2-3.9-1-5.8.7-7.8 9.5-10 16.3-10.6 6-.5 11.9-.1 17.5 2.3 3.1 1.3 5.2 3.6 4.5 7.9m53.2 6.2c-1.7 5.3-5.1 8.8-11 9.4-4.6.5-9.2.7-13.8-.3-6-1.2-9.6-5.3-11.5-10.8-.5-1.4-.7-3-1-4.5-.7-4.2 1.4-6.6 4.5-7.9 5.6-2.3 11.5-2.7 17.5-2.3 6.8.6 15.6 2.8 16.3 10.6.1 1.9-.4 4-1 5.8"/>
  <path fill="#FFF" d="M287.8 497.7V255.6h-20.9v242.1h-62.2v23.6h152.2v-23.6"/>
  <path fill="none" stroke="#00A78E" stroke-width="4" stroke-miterlimit="10" d="M287.8 497.7V255.6h-20.9v242.1h-62.2v23.6h152.2v-23.6z"/>
  <path fill="#00A78E" d="M161.073 257.38L394.47 208.3l2.55 12.134-233.395 49.084z"/>
  <path fill="none" stroke="#FFF" stroke-width="4" stroke-miterlimit="10" d="M161.073 257.38L394.47 208.3l2.55 12.134-233.395 49.084z"/>
  <path fill="#FFF" d="M176.5 276.1h189.8v-74.4H176.5v74.4zm176.1-11.6H190.2v-51.3h162.4v51.3z"/>
  <path fill="none" stroke="#00A78E" stroke-width="6" stroke-miterlimit="10" d="M176.5 276.1h189.8v-74.4H176.5v74.4zm176.1-11.6H190.2v-51.3h162.4v51.3z"/>
</svg>