<svg xmlns="http://www.w3.org/2000/svg" width="772.9" height="698.4" viewBox="0 0 772.9 698.4">
  <path fill="#00A78E" d="M384.8 368.2h243.1v81.1H384.8zm13 149.5h223.3V666H397.8z"/>
  <text transform="translate(584.61 423.65)" fill="#62BB46" font-family="'Foco'" font-weight="700" font-size="49.038">$</text>
  <text transform="translate(522.33 423.65)" fill="#62BB46" font-family="'Foco'" font-weight="700" font-size="49.038">$</text>
  <text transform="translate(460.06 423.65)" fill="#62BB46" font-family="'Foco'" font-weight="700" font-size="49.038">$</text>
  <text transform="translate(397.78 423.65)" fill="#62BB46" font-family="'Foco'" font-weight="700" font-size="49.038">$</text>
  <path fill="#FFF" d="M354.5 682H671c4.6 0 7.5-2.9 7.5-6.5V603c0-4.3-1.2-8.5-3.4-12.1l-54.6-89.4c-2.1-3.5-5.9-5.6-10-5.6h-38.1v-35.3h51c16.2 0 29.3-13.1 29.3-29.3v-48.8c0-16.2-13.1-29.3-29.3-29.3H388.3c-16.2 0-29.3 13.1-29.3 29.3v48.8c0 16.2 13.1 29.3 29.3 29.3h118.5v35.3h-90c-4.1 0-7.8 2.1-10 5.6l-54.6 89.4c-2.2 3.6-3.4 7.9-3.4 12.1v72.4c0 3.6 2.9 6.5 6.5 6.5m28.1-250.6v-48.8c0-2.7 2.2-4.9 4.9-4.9h235.2c2.7 0 4.9 2.2 4.9 4.9v48.8c0 2.7-2.2 4.9-4.9 4.9H388.3c-2.7 0-4.9-2.2-4.9-4.9m215.1 128l2.3 5.4c1.3 3.1-.2 5.7-3.5 5.7h-30.4c-3.3 0-6.4-2.6-7-5.7l-1.1-5.4c-.6-2.8 1.4-5.1 4.4-5.1H591c2.9 0 6.3 2.3 7.5 5.1M582 528c2.6 0 5.4 1.7 6.3 3.8l1.7 4c1 2.3-.5 4.2-3.3 4.2h-26c-2.8 0-5.4-1.9-5.9-4.2l-.8-4c-.4-2.1 1.3-3.8 3.9-3.8H582zm-84 3.8c.2-2.1 2.5-3.8 5.1-3.8h24.1c2.6 0 4.9 1.7 5.1 3.8l.4 4c.3 2.3-1.8 4.2-4.6 4.2h-26c-2.8 0-4.8-1.9-4.6-4.2l.5-4zm-3.4 32.9l.6-5.4c.3-2.8 3-5.1 6-5.1H529c3 0 5.6 2.2 6 5.1l.6 5.4c.3 3.1-2 5.7-5.3 5.7h-30.4c-3.3.1-5.7-2.5-5.3-5.7m-57-28.9l1.7-4c.9-2.1 3.7-3.8 6.3-3.8h24.1c2.6 0 4.3 1.7 3.9 3.8l-.8 4c-.5 2.3-3.1 4.2-5.9 4.2h-26c-2.9 0-4.3-1.9-3.3-4.2m-10.9 28.9l2.3-5.4c1.2-2.8 4.6-5.1 7.5-5.1h27.8c3 0 5 2.2 4.4 5.1l-1.1 5.4c-.6 3.1-3.8 5.7-7 5.7h-30.4c-3.3.1-4.8-2.5-3.5-5.7m-13 57.2h84.2c.3-8.5 7.3-15.4 15.9-15.4 8.6 0 15.6 6.8 15.9 15.4h84.1v32.5H413.7v-32.5zM164.5 130.3s2.2-20 8.4-14.4c5.1 4.6 7.5 26 4.4 40.9-1.4 6.7-9.3 14.2-12.6 10.9-3.3-3.2-.2-37.4-.2-37.4m-133.3-3.4s-2.9-19.9-9.5-14.2c-6.9 6-6.2 31.7-3.9 41 1.7 6.6 10.5 13.9 14 10.6 3.6-3.3-.6-37.4-.6-37.4"/>
  <path fill="#FFF" d="M28.1 98.7c.1 7-4.5 63.3 15.1 87.9 11.2 14 26.8 27.5 35.8 29.6 14.8 3.5 24.4 6.1 37.4 3.3s32.2-16.4 44-42.7c5.6-12.5 20.9-110.7-7.4-138.4-18.5-18.2-59.1-15.9-74.9-15.2-15.8.8-50.7 6.4-50 75.5m63 575.8s-2.5-19.2-41.9-17.5c-39.3 1.7-42.4 14.4-43.9 17.8m43.2-.2l-7.4-212.1h110.5l19.5 212.1H126l-22-171.9c0-4.5-1.6-8.2-6.7-8.2s-6.7 3.7-6.7 8.2v171.9H48.5z"/>
  <path fill="#00A78E" d="M125 122c0 3.8 3.1 6.9 7 6.9s7-3.1 7-6.9c0-3.8-3.1-6.9-7-6.9s-7 3.1-7 6.9"/>
  <path fill="#00A78E" d="M152.9 123.7c-.1-.1-9.6-9.1-20.9-9.1-5.8 0-12.1 2.5-17.6 9.8l1.7 2c5.1-6.7 10.6-8.9 15.9-8.9 5.2 0 10.1 2.1 13.7 4.3 1.8 1.1 3.3 2.2 4.3 3 .5.4.9.7 1.2 1l.4.4 1.3-2.5z"/>
  <path fill="#FFF" d="M130.2 121.8c0 1.3-.7 2.4-1.6 2.4-.9 0-1.6-1.1-1.6-2.4 0-1.3.7-2.4 1.6-2.4.9 0 1.6 1.1 1.6 2.4"/>
  <path fill="#00A78E" d="M77.7 122c0 3.8-3.1 6.9-7 6.9s-7-3.1-7-6.9c0-3.8 3.1-6.9 7-6.9s7 3.1 7 6.9"/>
  <path fill="#00A78E" d="M51.2 126.1l.4-.4c1.8-1.6 10.1-8.2 19.1-8.2 5.3 0 10.9 2.2 15.9 8.9l1.7-2c-5.5-7.3-11.8-9.8-17.6-9.8-11.3 0-20.8 9.1-20.9 9.1l1.4 2.4z"/>
  <path fill="#FFF" d="M68 121.8c0 1.3-.7 2.4-1.6 2.4-.9 0-1.6-1.1-1.6-2.4 0-1.3.7-2.4 1.6-2.4.9 0 1.6 1.1 1.6 2.4"/>
  <path fill="#00A78E" d="M82.4 91.4s8.9 7.9 1.4 9.3c-7.5 1.4-19.7-1.2-25.2 0s-16.1 5.4-16.1 5.4l-.7-4.5c.1 0 14.7-13.8 40.6-10.2m37.2-7.2s-8.6 7.6-1.1 9.3c7.5 1.7 19.7-.5 25.2.9s16.3 6 16.3 6l.5-4.5c0-.1-15-14.4-40.9-11.7m-26.7 74.5s.6.1 1.5.3c1 .2 2.3.4 4 .6 1.6.2 3.6.4 5.4.2.9-.1 1.8-.4 2.2-.9.1-.1.1-.1.1-.2s.1-.1.1-.2v-.1.1-.1l.1-.4.1-.4v-.4l.1-.7c.1-1 .1-2.1.1-3.2s0-2.1-.1-3.2c-.1-2.1-.2-4-.3-5.7-.2-3.3-.3-5.6-.3-5.6s.8 2.1 1.6 5.4c.2.8.4 1.7.6 2.7.2 1 .4 2 .5 3 .1 1.1.3 2.1.3 3.3.1 1.1.1 2.3 0 3.5-.1.6-.2 1.4-.3 1.8l-.1.4v.2l-.1.3c-.1.2-.2.4-.3.5-.1.2-.2.3-.4.5-.5.6-1.2.9-1.9 1.1-.6.2-1.2.3-1.8.3-1.2.1-2.2-.1-3.2-.2-1-.2-1.9-.4-2.7-.7-1.6-.5-2.9-1.1-3.8-1.5-.9-.4-1.4-.7-1.4-.7m31.1 24.2s-24.8-10.3-45-1.6c2.8-5.9 29.8-20.6 45 1.6"/>
  <path fill="#00A78E" d="M25.1 111s-13-33.6-10.4-47.1c2.6-13.5 9.3-25.6 33-47.1C63.2 2.7 90.6.3 93.7 3.8c4.6 5.3 12.6 7.6 18.4.8 5.8-6.7 26.2-2.4 23.6 3.1 10.9-6.3 18.5 5.4 18.5 5.4s41.1 5.2 18.7 111.7c-2 9.4-4.3 20-4.3 20-8.3.5-.9-12.4.4-51.7 1.8-54.1-48.5-42.3-67.1-44.4-22.5-2.5-60.3-5.5-67 23.6-6.8 29-3.7 68.1-3.7 68.1l-6.2 6.3V111z"/>
  <path fill="none" stroke="#FFF" stroke-width="2.383" stroke-miterlimit="10" d="M25.1 111s-13-33.6-10.4-47.1c2.6-13.5 9.3-25.6 33-47.1C63.2 2.7 90.6.3 93.7 3.8c4.6 5.3 12.6 7.6 18.4.8 5.8-6.7 26.2-2.4 23.6 3.1 10.9-6.3 18.5 5.4 18.5 5.4s41.1 5.2 18.7 111.7c-2 9.4-4.3 20-4.3 20-8.3.5-.9-12.4.4-51.7 1.8-54.1-48.5-42.3-67.1-44.4-22.5-2.5-60.3-5.5-67 23.6-6.8 29-3.7 68.1-3.7 68.1l-6.2 6.3V111z"/>
  <path fill="#FFF" d="M84.1 221.1s.5 19.1-8.5 24.4c-8.1 4.7-11.7 5.8-11.7 5.8s39.6 15.9 71.2 3c-17-4.6-15.9-10.5-15.9-10.5l-3-19.8-32.1-2.9z"/>
  <path fill="none" stroke="#00A78E" stroke-width="2.862" stroke-miterlimit="10" d="M84.1 221.1s.5 19.1-8.5 24.4c-8.1 4.7-11.7 5.8-11.7 5.8s39.6 15.9 71.2 3c-17-4.6-15.9-10.5-15.9-10.5l-3-19.8-32.1-2.9z"/>
  <path fill="#FFF" d="M195 335.7l-39.6 9.1-4.4-18.7 4.6 45.9c.6 7.8.9 33.1-.9 56l-3.9 30.5H42.5l-4-35.8c-1.2-18.9.1-47 .8-54.2l6.3-42.8-5.2 17.6-38-9s4-13.9 17.7-43.3c13.6-29.4 43.8-39.8 43.8-39.8l36.4 5.8 34.8-2.8s32.2 8.1 45.9 37.6c13.6 29.5 13.6 43.6 13.6 43.6"/>
  <path fill="none" stroke="#00A78E" stroke-width="2.383" stroke-miterlimit="10" d="M195 335.7l-39.6 9.1-4.4-18.7 4.6 45.9c.6 7.8.9 33.1-.9 56l-3.9 30.5H42.5l-4-35.8c-1.2-18.9.1-47 .8-54.2l6.3-42.8-5.2 17.6-38-9s4-13.9 17.7-43.3c13.6-29.4 43.8-39.8 43.8-39.8l36.4 5.8 34.8-2.8s32.2 8.1 45.9 37.6c13.6 29.5 13.6 43.6 13.6 43.6"/>
  <path fill="#FFF" d="M34.9 478.2c1.5 3.3 2 6.5-2.1 6.3l-1.1-1.6-6.8-9.4-1.9 2.6c-1.1 1.5-1.4 3.4-.7 5.1.5 1.3 1.2 2.9 1.6 3.9.3.8.9 1.4 1.7 1.9l4.7 3.3c1.1.8.6 1.8.3 2.7l-.7.6c-1 .9-2.7 1-3.9.2l-5.2-3.7c-.5-.1-1-.4-1.2-.8L11.5 477c-.5-.7-1.3-4.2-1.1-5l3.5-13.4c.1-.4.3-3.2.2-3.6L1.2 398.5v-10s1.5-50.2 4.6-49.5l30.6 6.7c2.4.5-5 26.6-5 26.6-3.3 12.6-4.5 17-5.3 24.5l3.5 61.4c0 .3 0 .6.1.9l5.2 19.1z"/>
  <path fill="none" stroke="#00A78E" stroke-width="2.383" stroke-miterlimit="10" d="M34.9 478.2c1.5 3.3 2 6.5-2.1 6.3l-1.1-1.6-6.8-9.4-1.9 2.6c-1.1 1.5-1.4 3.4-.7 5.1.5 1.3 1.2 2.9 1.6 3.9.3.8.9 1.4 1.7 1.9l4.7 3.3c1.1.8.6 1.8.3 2.7l-.7.6c-1 .9-2.7 1-3.9.2l-5.2-3.7c-.5-.1-1-.4-1.2-.8L11.5 477c-.5-.7-1.3-4.2-1.1-5l3.5-13.4c.1-.4.3-3.2.2-3.6L1.2 398.5v-10s1.5-50.2 4.6-49.5l30.6 6.7c2.4.5-5 26.6-5 26.6-3.3 12.6-4.5 17-5.3 24.5l3.5 61.4c0 .3 0 .6.1.9l5.2 19.1z"/>
  <path fill="#FFF" d="M169 496.2c-1.1 0-2.2-.4-3-1.2l-.9-.8-.2-.5c-.3-.8-.8-2.6.9-3.8l4.8-3.2c.7-.4 1.1-.8 1.3-1.4l1.7-3.9c.6-1.3.4-2.7-.5-4l-.9-1.3-6.1 7.9-1.5 2h-.6c-1.9 0-3.1-.5-3.8-1.6-.9-1.4-.7-3.4.7-6.4l6.1-19c.1-.2.1-.4.1-.6l5-61.2c-.5-3.4-1.5-8.1-3.1-13.8-.1-.2-.1-.4-.1-.5-4-12.9-10.5-34.8-8.9-37.4.2-.4.6-.6 1-.7l30.8-6.1h.2c1.5 0 3 0 5.5 25.9 1.2 12.3 2 24.7 2 24.9v.1l-.3 10.1-14.2 56.7c0 .3.1 2.6.1 3.1l3.1 13.4v.1c.2 1.2-.8 4.9-1.5 5.8l-8.4 12.1c-.4.6-1 1-1.7 1.2l-5.1 3.5c-.8.4-1.6.6-2.5.6"/>
  <path fill="#00A78E" d="M192 339.9c3.1 0 6.3 49.6 6.3 49.6l-.3 10-14.3 56.5c-.1.4.1 3.2.1 3.6l3.1 13.4c.1.8-.8 4.2-1.3 5l-8.4 12.1c-.3.4-.7.6-1.2.8l-5.3 3.6c-.5.3-1.2.5-1.8.5-.8 0-1.6-.3-2.1-.8l-.7-.6c-.3-.9-.8-1.9.4-2.7l4.8-3.2c.8-.5 1.5-1.1 1.8-1.9.4-1 1.1-2.6 1.7-3.9.7-1.7.5-3.6-.6-5.1l-1.9-2.6-7.1 9.2-1.2 1.5h-.1c-4 0-3.4-3.1-1.8-6.4l5.8-19.1c.1-.3.1-.6.2-.9l5-61.3c-.8-6.1-3.2-14.4-3.3-14.7 0 0-11.2-36.1-8.9-36.6l31.1-6m0-2.4c-.2 0-.4 0-.5.1l-30.7 6.1c-.8.2-1.4.6-1.8 1.3-.7 1.2-1.5 2.5 3.7 21 2.3 8.3 4.8 16.4 5.1 17.3 0 .1.1.3.2.6 1.5 5.6 2.5 10.2 3 13.5l-5 61c0 .1 0 .3-.1.3l-5.8 19c-1 2.1-2.1 5.1-.6 7.5.6 1 1.9 2.2 4.7 2.2h1.3l.7-.9 1.2-1.5 5.1-6.6c.6.9.7 1.9.3 2.8-.6 1.3-1.2 2.9-1.7 3.9-.1.3-.4.5-.8.7h-.2l-4.8 3.2c-2.5 1.7-1.7 4.2-1.4 5.2l.1.2.2.6.4.4.7.6c1 .9 2.3 1.5 3.8 1.5 1.1 0 2.2-.3 3.1-.9l5-3.4c.9-.3 1.7-.8 2.2-1.6l8.4-12.1c.8-1.1 1.9-5.2 1.7-6.7v-.2l-3.1-13.3c0-.5-.1-2.2-.1-2.7l14.2-56.4.1-.3v-.3l.3-10v-.2c0-.1-.8-12.6-2-24.9-.7-7.3-1.4-13-2.1-17.2-1.2-6.9-2.1-9.8-4.8-9.8"/>
  <path fill="#FFF" d="M234.9 660.9l-3.5-24.2c-1.6-10.9-11.7-18.5-22.6-17l-26.9 3.8-12.1-85.5c-.5-3.3-3.5-5.6-6.8-5.1l-59.4 8.5c-3.3.5-5.6 3.5-5.1 6.8L119 691.7c.5 3.3 3.5 5.6 6.8 5.1l59.4-8.5c.5-.1 1-.2 1.5-.4l31.3-4.5c10.8-1.5 18.4-11.7 16.9-22.5"/>
  <path fill="none" stroke="#00A78E" stroke-width="3" stroke-miterlimit="10" d="M234.9 660.9l-3.5-24.2c-1.6-10.9-11.7-18.5-22.6-17l-26.9 3.8-12.1-85.5c-.5-3.3-3.5-5.6-6.8-5.1l-59.4 8.5c-3.3.5-5.6 3.5-5.1 6.8L119 691.7c.5 3.3 3.5 5.6 6.8 5.1l59.4-8.5c.5-.1 1-.2 1.5-.4l31.3-4.5c10.8-1.5 18.4-11.7 16.9-22.5z"/>
  <path fill="#FFF" d="M174.9 574.3s-52.2-2.6-66.2 14.3c-17.1 20.6 34.6-52.9 34.6-52.9"/>
  <path fill="none" stroke="#00A78E" stroke-width="3" stroke-miterlimit="10" d="M174.9 574.3s-52.2-2.6-66.2 14.3c-17.1 20.6 34.6-52.9 34.6-52.9"/>
  <path fill="#FFF" d="M111.1 636.5s9.8-2.2 22.6-6.3c15.1-4.9 34.3-12.6 46-22.5"/>
  <path fill="none" stroke="#00A78E" stroke-width="3" stroke-miterlimit="10" d="M111.1 636.5s9.8-2.2 22.6-6.3c15.1-4.9 34.3-12.6 46-22.5"/>
  <path fill="#FFF" d="M200.6 620.9s-43.4 22.3-79.8 13.2"/>
  <path fill="none" stroke="#00A78E" stroke-width="3" stroke-miterlimit="10" d="M200.6 620.9s-43.4 22.3-79.8 13.2"/>
  <path fill="#FFF" d="M114.4 656.8s46.2.3 80.6 29.9"/>
  <path fill="none" stroke="#00A78E" stroke-width="3" stroke-miterlimit="10" d="M114.4 656.8s46.2.3 80.6 29.9"/>
  <path fill="#FFF" d="M227.6 629.2s-36.7 2.8-49.6 45.5"/>
  <path fill="none" stroke="#00A78E" stroke-width="3" stroke-miterlimit="10" d="M227.6 629.2s-36.7 2.8-49.6 45.5"/>
  <path fill="#FFF" d="M767.2 256.1H234.1v-85.4h533.1v85.4zm5.7-91.1H228.4v96.8h544.5V165z"/>
  <path fill="#FFF" d="M761.6 176.3H239.8v74.2h521.8v-69.9"/>
  <text transform="translate(305.05 233.78)">
    <tspan x="0" y="0" fill="#00A78E" font-family="'Foco'" font-weight="400" font-size="65">In</tspan>
    <tspan x="50.9" y="0" fill="#00A78E" font-family="'Foco'" font-weight="400" font-size="65">s</tspan>
    <tspan x="77.5" y="0" fill="#00A78E" font-family="'Foco'" font-weight="400" font-size="65">uran</tspan>
    <tspan x="203.1" y="0" fill="#00A78E" font-family="'Foco'" font-weight="400" font-size="65">c</tspan>
    <tspan x="232.2" y="0" fill="#00A78E" font-family="'Foco'" font-weight="400" font-size="65">e </tspan>
    <tspan x="277.6" y="0" fill="#00A78E" font-family="'Foco'" font-weight="400" font-size="65">c</tspan>
    <tspan x="306.8" y="0" fill="#00A78E" font-family="'Foco'" font-weight="400" font-size="65">o</tspan>
    <tspan x="341.6" y="0" fill="#00A78E" font-family="'Foco'" font-weight="400" font-size="65">s</tspan>
    <tspan x="368.3" y="0" fill="#00A78E" font-family="'Foco'" font-weight="400" font-size="65">t</tspan>
  </text>
</svg>