<svg xmlns="http://www.w3.org/2000/svg" width="240.7" height="324.6" viewBox="0 0 240.7 324.6"><path fill="#FFF" d="M129.1 299V56.9h-20.8V299H46v23.6h152.2V299"/><path fill="none" stroke="#00A78E" stroke-width="4" stroke-miterlimit="10" d="M129.1 299V56.9h-20.8V299H46v23.6h152.2V299z"/><path fill="#00A78E" d="M2.373 58.675L235.77 9.592l2.55 12.135L4.926 70.81z"/><path fill="none" stroke="#FFF" stroke-width="4" stroke-miterlimit="10" d="M2.373 58.675L235.77 9.592l2.55 12.135L4.926 70.81z"/><path fill="#FFF" d="M17.8 77.4h189.8V3H17.8v74.4zm176.1-11.5H31.5V14.6h162.4v51.3z"/><path fill="none" stroke="#00A78E" stroke-width="6" stroke-miterlimit="10" d="M17.8 77.4h189.8V3H17.8v74.4zm176.1-11.5H31.5V14.6h162.4v51.3z"/></svg>