<svg xmlns="http://www.w3.org/2000/svg" width="215.8" height="725.2" viewBox="0 0 215.8 725.2">
  <path fill="#FFF" d="M176.8 140.1s2.4-21.5 9.1-15.5c5.5 5 8.1 27.9 4.8 44-1.5 7.2-10 15.2-13.6 11.7-3.6-3.5-.3-40.2-.3-40.2m-143.3-3.7s-3.1-21.4-10.2-15.2c-7.4 6.5-6.7 34-4.2 44.1 1.8 7.1 11.3 15 15.1 11.4 3.8-3.7-.7-40.3-.7-40.3"/>
  <path fill="#FFF" d="M30.2 106.1c.1 7.5-4.9 68 16.2 94.5 12 15.1 28.8 29.6 38.5 31.9 15.9 3.7 26.2 6.5 40.2 3.5 14-3 34.6-17.7 47.3-45.9 6.1-13.4 22.5-119-7.9-148.8-19.9-19.5-63.6-17-80.5-16.3-17 .8-54.6 6.8-53.8 81.1m22 619.1l-8-228H163l-2.7 228h-48.5V540.4c0-4.9-1.8-8.8-7.2-8.8s-7.2 3.9-7.2 8.8v184.8H52.2z"/>
  <path fill="#00A78E" d="M138.4 134.5c0 4.1 3.4 7.4 7.5 7.4 4.2 0 7.5-3.3 7.5-7.4 0-4.1-3.4-7.4-7.5-7.4-4.1-.1-7.5 3.3-7.5 7.4"/>
  <path fill="#00A78E" d="M168.4 136.4c-.1-.1-10.3-9.8-22.5-9.8-6.2 0-13 2.7-18.9 10.5l1.8 2.2c5.4-7.2 11.4-9.5 17.1-9.5 5.6 0 10.8 2.3 14.7 4.6 1.9 1.2 3.5 2.3 4.6 3.2.5.4 1 .8 1.3 1l.4.4 1.5-2.6z"/>
  <path fill="#FFF" d="M144 134.3c0 1.4-.8 2.6-1.7 2.6-1 0-1.7-1.2-1.7-2.6 0-1.4.8-2.6 1.7-2.6.9 0 1.7 1.2 1.7 2.6"/>
  <path fill="#00A78E" d="M78.2 131.8c0 4.1-3.4 7.4-7.5 7.4-4.2 0-7.5-3.3-7.5-7.4 0-4.1 3.4-7.4 7.5-7.4s7.5 3.3 7.5 7.4"/>
  <path fill="#00A78E" d="M49.7 136.3l.4-.4c2-1.8 10.8-8.9 20.6-8.8 5.7 0 11.7 2.3 17.1 9.5l1.8-2.2c-5.9-7.9-12.7-10.6-18.9-10.5-12.2 0-22.4 9.8-22.5 9.8l1.5 2.6z"/>
  <path fill="#FFF" d="M67.8 131.6c0 1.4-.8 2.6-1.7 2.6-1 0-1.7-1.2-1.7-2.6 0-1.4.8-2.6 1.7-2.6.9.1 1.7 1.2 1.7 2.6"/>
  <path fill="#00A78E" d="M89.2 95s9.6 8.5 1.5 10-21.2-1.3-27.1 0c-5.9 1.3-17.3 5.8-17.3 5.8l-.7-4.8c.1-.1 15.8-14.9 43.6-11m39.4-4.5s-9.3 8.2-1.2 10c8.1 1.8 21.2-.6 27.1 1 5.9 1.5 17.5 6.4 17.5 6.4l.6-4.8c0-.1-16.2-15.5-44-12.6m-28.7 80.1s.6.1 1.6.3c1 .2 2.5.4 4.3.6 1.7.2 3.8.4 5.8.2.5-.1 1-.2 1.4-.3.4-.2.7-.4 1-.6.1-.1.1-.1.1-.2.1-.1.1-.1.1-.2l.1-.1s-.1.2 0 .1v-.2l.1-.4.1-.4v-.4l.1-.7c.1-1.1.1-2.3.1-3.4s0-2.3-.1-3.4c-.1-2.2-.3-4.3-.4-6.1-.2-3.6-.3-6-.3-6s.9 2.3 1.8 5.8c.2.9.4 1.8.6 2.9.2 1 .4 2.1.5 3.2.1 1.1.3 2.3.3 3.5.1 1.2.1 2.5 0 3.7-.1.7-.2 1.5-.4 2l-.1.4v.3l-.1.3-.3.6c-.1.2-.2.4-.4.5-.6.6-1.3 1-2 1.2-.7.2-1.3.3-2 .3-1.2.1-2.4-.1-3.4-.3-1.1-.2-2-.4-2.9-.7-1.8-.5-3.2-1.1-4.1-1.6l-1.5-.9"/>
  <path fill="#00A78E" d="M27 119.4S13 83.2 15.8 68.8c2.8-14.5 10-27.5 35.5-50.6C68 3 97.5.3 100.8 4.1c5 5.7 13.6 8.1 19.8.9 6.2-7.2 28.2-2.6 25.4 3.3 11.7-6.8 19.9 5.8 19.9 5.8s44.2 5.6 20.1 120.1c-2.1 10.1-4.6 21.5-4.6 21.5-8.9.6-.9-13.4.4-55.5 1.9-58.2-52.1-45.5-72.1-47.7-24.2-2.7-64.8-5.9-72.1 25.3-7.2 31.2-3.9 73.2-3.9 73.2l-6.7 6.8v-38.4z"/>
  <path fill="none" stroke="#FFF" stroke-width="2.562" stroke-miterlimit="10" d="M27 119.4S13 83.2 15.8 68.8c2.8-14.5 10-27.5 35.5-50.6C68 3 97.5.3 100.8 4.1c5 5.7 13.6 8.1 19.8.9 6.2-7.2 28.2-2.6 25.4 3.3 11.7-6.8 19.9 5.8 19.9 5.8s44.2 5.6 20.1 120.1c-2.1 10.1-4.6 21.5-4.6 21.5-8.9.6-.9-13.4.4-55.5 1.9-58.2-52.1-45.5-72.1-47.7-24.2-2.7-64.8-5.9-72.1 25.3-7.2 31.2-3.9 73.2-3.9 73.2l-6.7 6.8v-38.4z"/>
  <path fill="#FFF" d="M90.4 237.7s.6 20.5-9.1 26.2c-8.7 5.1-12.6 6.2-12.6 6.2s42.5 17 76.6 3.3c-18.3-5-17.1-11.3-17.1-11.3l-3.3-21.3-34.5-3.1z"/>
  <path fill="none" stroke="#00A78E" stroke-width="3.076" stroke-miterlimit="10" d="M90.4 237.7s.6 20.5-9.1 26.2c-8.7 5.1-12.6 6.2-12.6 6.2s42.5 17 76.6 3.3c-18.3-5-17.1-11.3-17.1-11.3l-3.3-21.3-34.5-3.1z"/>
  <path fill="#FFF" d="M209.6 360.9l-42.6 9.8-4.7-20.2 4.9 49.3c.6 8.4 1 35.6-1 60.2l-4.2 32.8H45.6l-4.3-38.5c-1.3-20.3.1-50.5.9-58.2l6.7-46-5.6 18.9-40.8-9.6s4.3-14.9 19-46.6C36.2 281.2 68.6 270 68.6 270l39.2 6.3 37.4-3s34.6 8.7 49.3 40.4c14.6 31.7 14.6 46.9 14.6 46.9"/>
  <path fill="none" stroke="#00A78E" stroke-width="2.562" stroke-miterlimit="10" d="M209.6 360.9l-42.6 9.8-4.7-20.2 4.9 49.3c.6 8.4 1 35.6-1 60.2l-4.2 32.8H45.6l-4.3-38.5c-1.3-20.3.1-50.5.9-58.2l6.7-46-5.6 18.9-40.8-9.6s4.3-14.9 19-46.6C36.2 281.2 68.6 270 68.6 270l39.2 6.3 37.4-3s34.6 8.7 49.3 40.4c14.6 31.7 14.6 46.9 14.6 46.9"/>
  <path fill="#FFF" d="M37.5 514.1c1.6 3.5 2.1 7-2.2 6.8l-1.2-1.7-7.3-10.1-2.1 2.8c-1.2 1.7-1.5 3.7-.8 5.5.6 1.4 1.2 3.1 1.7 4.2.3.8 1 1.5 1.9 2.1l5.1 3.5c1.2.9.7 1.9.4 2.9l-.7.7c-1.1 1-2.9 1.1-4.2.2l-5.6-4c-.5-.1-1-.4-1.3-.8L12.3 513c-.5-.8-1.4-4.5-1.2-5.4l3.7-14.4c.1-.4.3-3.4.2-3.8l-13.7-61v-10.8s1.6-53.9 4.9-53.2l32.9 7.2c2.6.6-5.4 28.5-5.4 28.5-3.5 13.6-4.8 18.2-5.7 26.3l3.7 66c0 .3 0 .6.1.9l5.7 20.8z"/>
  <path fill="none" stroke="#00A78E" stroke-width="2.562" stroke-miterlimit="10" d="M37.5 514.1c1.6 3.5 2.1 7-2.2 6.8l-1.2-1.7-7.3-10.1-2.1 2.8c-1.2 1.7-1.5 3.7-.8 5.5.6 1.4 1.2 3.1 1.7 4.2.3.8 1 1.5 1.9 2.1l5.1 3.5c1.2.9.7 1.9.4 2.9l-.7.7c-1.1 1-2.9 1.1-4.2.2l-5.6-4c-.5-.1-1-.4-1.3-.8L12.3 513c-.5-.8-1.4-4.5-1.2-5.4l3.7-14.4c.1-.4.3-3.4.2-3.8l-13.7-61v-10.8s1.6-53.9 4.9-53.2l32.9 7.2c2.6.6-5.4 28.5-5.4 28.5-3.5 13.6-4.8 18.2-5.7 26.3l3.7 66c0 .3 0 .6.1.9l5.7 20.8z"/>
  <path fill="#FFF" d="M181.7 533.5c-1.2 0-2.4-.5-3.2-1.2l-.9-.9-.2-.6c-.3-.9-.9-2.8 1-4.1l5.2-3.4c.7-.4 1.2-.9 1.5-1.5l1.8-4.2c.6-1.4.4-2.9-.5-4.3l-1-1.4-6.5 8.5-1.6 2.1h-.6c-2 0-3.3-.6-4.1-1.8-1-1.5-.7-3.7.8-6.9l6.3-20.5c.1-.2.1-.4.1-.6l5.4-65.8c-.5-3.7-1.6-8.7-3.3-14.9-.1-.3-.1-.4-.2-.6-4.3-13.8-11.3-37.4-9.6-40.2.2-.4.6-.7 1-.8l33.2-6.5h.2c1.6 0 3.2 0 5.9 27.8 1.3 13.2 2.2 26.6 2.2 26.7v.1l-.3 10.9-15.4 60.9c0 .4.1 2.8.2 3.3l3.4 14.4v.1c.2 1.3-.9 5.3-1.6 6.3l-9.1 13c-.4.6-1.1 1-1.9 1.3l-5.5 3.7c-.8.8-1.7 1.1-2.7 1.1"/>
  <path fill="#00A78E" d="M206.4 365.4c3.3 0 6.8 53.4 6.8 53.4l-.3 10.8-15.4 60.8c-.1.4.1 3.4.1 3.8l3.4 14.5c.1.9-.8 4.6-1.4 5.3l-9.1 13c-.3.4-.8.7-1.3.8l-5.7 3.8c-.6.4-1.2.6-1.9.6-.9 0-1.7-.3-2.3-.9l-.7-.7c-.3-1-.8-2.1.4-2.9l5.2-3.4c.9-.5 1.6-1.2 1.9-2 .5-1.1 1.2-2.8 1.8-4.2.8-1.8.6-3.8-.6-5.5l-2-2.8-7.6 9.9-1.3 1.6h-.1c-4.3 0-3.6-3.4-2-6.9l6.3-20.6c.1-.3.1-.6.2-.9l5.4-65.9c-.9-6.6-3.5-15.5-3.5-15.8 0 0-12.1-38.9-9.5-39.4l33.2-6.4m0-2.5c-.2 0-.4 0-.6.1l-33 6.5c-.8.2-1.5.6-1.9 1.4-.7 1.2-1.6 2.7 4 22.6 2.5 8.9 5.2 17.6 5.5 18.6 0 .1.1.3.2.6 1.6 6 2.7 10.9 3.2 14.5l-5.4 65.6c0 .2 0 .3-.1.4l-6.2 20.4c-1.1 2.3-2.3 5.5-.7 8 .7 1.1 2.1 2.3 5 2.3h1.3l.8-1 1.3-1.6 5.5-7.1c.7.9.8 2 .4 3-.6 1.4-1.3 3.1-1.8 4.2-.1.3-.4.6-.8.8h-.1l-.1.1-5.2 3.4c-2.7 1.8-1.8 4.5-1.5 5.5l.1.3.2.6.5.5.7.7c1 1 2.5 1.6 4.1 1.6 1.2 0 2.3-.3 3.3-1l5.4-3.6c1-.3 1.8-.9 2.4-1.7l9.1-13c.8-1.2 2-5.6 1.8-7.2v-.2l-3.3-14.3c-.1-.5-.2-2.3-.1-2.9l15.3-60.6.1-.3v-.3l.3-10.8v-.2c0-.1-.9-13.5-2.2-26.8-.8-7.8-1.5-14-2.2-18.5-1.4-7.5-2.4-10.6-5.3-10.6"/>
  <path fill="#FFF" d="M91.2 724.9s-2.5-19.2-41.9-17.5C10 709.1 6.9 721.8 5.4 725.2m200.9-.3s-2.5-19.2-41.9-17.5c-39.3 1.7-42.4 14.4-43.9 17.8"/>
</svg>