<svg xmlns="http://www.w3.org/2000/svg" width="819.2" height="528" viewBox="0 0 819.2 528">
  <path fill="#FFF" d="M162 498.7h-.2c-4.7.8-8.5 5.4-8.5 10.2 0 4.8 3.8 8 8.5 7.1h.2c4.7-.8 8.5-5.4 8.5-10.2 0-4.8-3.8-8-8.5-7.1m67-409.6h-.2c-4.7.8-8.5 5.4-8.5 10.2 0 4.8 3.8 8 8.5 7.1h.2c4.7-.8 8.5-5.4 8.5-10.2 0-4.8-3.9-8-8.5-7.1m-85.5 15.3h-.2c-4.7.8-8.5 5.4-8.5 10.2 0 4.8 3.8 8 8.5 7.1h.2c4.7-.8 8.5-5.4 8.5-10.2 0-4.7-3.8-7.9-8.5-7.1m104 378.9h-.2c-4.7.8-8.5 5.4-8.5 10.2 0 4.8 3.8 8 8.5 7.1h.2c4.7-.8 8.5-5.4 8.5-10.2 0-4.7-3.8-7.9-8.5-7.1m85.5-15.4h-.2c-4.7.8-8.5 5.4-8.5 10.2 0 4.8 3.8 8 8.5 7.1h.2c4.7-.8 8.5-5.4 8.5-10.2 0-4.7-3.8-7.9-8.5-7.1M314.4 73.7h-.2c-4.7.8-8.5 5.4-8.5 10.2 0 4.8 3.8 8 8.5 7.1h.2c4.7-.8 8.5-5.4 8.5-10.2 0-4.7-3.8-7.9-8.5-7.1M23.1 469.4c-1.8-4.1-6.8-5.3-11.1-2.7-4.3 2.6-6.4 8-4.6 12.1l.1.2c1.3 3.1 4.5 4.6 7.9 4 1.1-.2 2.1-.6 3.2-1.2 4.4-2.6 6.5-8 4.7-12.1l-.2-.3zM8.5 310.8c4.7-.8 8.5-5.4 8.5-10.2v-.2c0-4.8-3.8-8-8.5-7.1-4.7.8-8.5 5.4-8.5 10.2v.2c0 4.8 3.8 8 8.5 7.1m70.6 199.7h-.2c-4.5-.5-9.2 3.1-10.5 7.9-1.3 4.8 1.4 9.1 5.9 9.6h.2c.8.1 1.5 0 2.3-.1 3.7-.7 7.1-3.8 8.2-7.8 1.3-4.9-1.4-9.2-5.9-9.6M795.7 57.8c1.3 3.1 4.5 4.6 7.9 4 1.1-.2 2.1-.6 3.2-1.2 4.4-2.6 6.5-8 4.7-12.1l-.1-.3c-1.8-4.1-6.8-5.2-11.1-2.6-4.4 2.6-6.4 8-4.6 12.2zM8.5 397.9c4.7-.8 8.5-5.4 8.5-10.2v-.2c0-4.8-3.8-8-8.5-7.1-4.7.8-8.5 5.4-8.5 10.2v.2c0 4.8 3.8 8 8.5 7.1m0-174.3c.5 0 1 0 1.5-.1 4-.7 7.6-4.3 8.4-8.7v-.2c.8-4.9-2.3-8.8-6.9-8.8-4.6 0-9 4-9.9 8.8v.2c-.8 4.9 2.3 8.8 6.9 8.8m47.2-92.2l-.2.2c-4.2 2.9-5.8 8.5-3.7 12.3 1.5 2.7 4.5 3.9 7.6 3.4 1.3-.2 2.6-.8 3.9-1.7l.2-.1c4.2-2.9 5.9-8.4 3.7-12.3-2.1-3.9-7.3-4.7-11.5-1.8m701 250.6c-4.2 2.9-5.8 8.5-3.7 12.3 1.5 2.7 4.5 3.9 7.6 3.4 1.3-.2 2.6-.8 3.9-1.7l.3-.2c4.1-3 5.7-8.5 3.5-12.3-2.3-3.8-7.5-4.5-11.6-1.5M399.9 58.4h-.2c-4.7.8-8.5 5.4-8.5 10.2 0 4.8 3.8 8 8.5 7.1h.2c4.7-.8 8.5-5.4 8.5-10.2 0-4.8-3.8-8-8.5-7.1m410.9 245c-4.6 0-9 4.1-9.8 8.9v.2c-.8 4.9 2.4 8.7 7 8.7.5 0 .9-.1 1.4-.1 4.1-.7 7.7-4.4 8.4-8.8v-.2c.7-4.8-2.4-8.7-7-8.7M674.9 406.5h-.2c-4.7.8-8.5 5.4-8.5 10.2 0 4.8 3.8 8 8.5 7.1h.2c4.7-.8 8.5-5.4 8.5-10.2 0-4.7-3.8-7.9-8.5-7.1m135.8-277.4c-4.7.8-8.5 5.4-8.5 10.2v.2c0 4.8 3.8 8 8.5 7.1 4.7-.8 8.5-5.4 8.5-10.2v-.2c0-4.7-3.8-7.9-8.5-7.1m0 87.1c-4.7.8-8.5 5.4-8.5 10.2v.2c0 4.8 3.8 8 8.5 7.1 4.7-.8 8.5-5.4 8.5-10.2v-.2c0-4.7-3.8-7.9-8.5-7.1M743.8.1h-.2c-4.5-.4-9.2 3.2-10.4 8-1.2 4.8 1.5 9.1 6 9.5h.2c.7.1 1.5 0 2.2-.1 3.8-.7 7.2-3.9 8.2-7.9 1.2-4.9-1.5-9.1-6-9.5M485.4 43h-.2c-4.7.8-8.5 5.4-8.5 10.2 0 4.8 3.8 8 8.5 7.1h.2c4.7-.8 8.5-5.4 8.5-10.2 0-4.8-3.8-8-8.5-7.1m18.5 394.2h-.2c-4.7.8-8.5 5.4-8.5 10.2 0 4.8 3.8 8 8.5 7.1h.2c4.7-.8 8.5-5.4 8.5-10.2 0-4.7-3.8-7.9-8.5-7.1m-85.4 15.4h-.2c-4.7.8-8.5 5.4-8.5 10.2 0 4.8 3.8 8 8.5 7.1h.2c4.7-.8 8.5-5.4 8.5-10.2 0-4.8-3.8-8-8.5-7.1m152.4-425h-.2c-4.7.8-8.5 5.4-8.5 10.2 0 4.8 3.8 8 8.5 7.1h.2c4.7-.8 8.5-5.4 8.5-10.2 0-4.7-3.8-7.9-8.5-7.1m18.5 394.3h-.2c-4.7.8-8.5 5.4-8.5 10.2 0 4.8 3.8 8 8.5 7.1h.2c4.7-.8 8.5-5.4 8.5-10.2 0-4.8-3.8-8-8.5-7.1m67-409.6h-.2c-4.7.8-8.5 5.4-8.5 10.2 0 4.8 3.8 8 8.5 7.1h.2c4.7-.8 8.5-5.4 8.5-10.2 0-4.8-3.8-8-8.5-7.1"/>
</svg>