<svg xmlns="http://www.w3.org/2000/svg" width="164.9" height="164.9" viewBox="0 0 164.9 164.9"><path fill="#00A78E" d="M61.1 81.5c-3.2 2.6-7.1 5.6-10.5 7.9-5.5 3.8-18 14.8-27.7 24.5L.7 136.1c-2.5 2.5 1.8 10.9 9.5 18.6 6.2 6.2 12.9 10.2 16.6 10.2.9 0 1.6-.2 2.1-.7L51.1 142c9.7-9.7 20.7-22.2 24.5-27.7 2.4-3.5 5.4-7.5 8.1-10.7l-3.6-3.6c-7.5-7.5-14-13.8-19-18.5m-51.5 62L7.1 139l33-33 3.5 3.5-34 34zm16.3 14.3l-4.5-2.5 33.9-33.9 3.5 3.5-32.9 32.9zM138 11.5l2 5.2-45.2 45.2c2.5 2.6 5.2 5.3 8.1 8.3l45.4-45.4 5.2 2L165 7.5 157.4 0 138 11.5z"/></svg>