<svg xmlns="http://www.w3.org/2000/svg" width="103.3" height="110.8" viewBox="0 0 103.3 110.8"><path fill="#FFF" stroke="#00A78E" stroke-width="2.862" stroke-miterlimit="10" d="M6.9 109.2l16.4-13.6c.6-.3 2.9-2.3 3.3-2.9l5.1-10.5c.2-.3 1.5-2.3 1.8-2.5l37-32.9c.1-.1 5.2-6.7 5.3-6.8 0 0 26.7-30.8 26.1-33L76.3 1.5c-.5-1.7-6.9 16.1-6.9 16.1-.2.1-10.5 14.2-11.7 17.2L23.5 74.9c-.2.2-.3.4-.5.5L9.5 88.7c-2.7 2.5-1.8 4.2.6 5.8l1.4-.6 6.2-6.6-.2 2.7c-.2 1.5-1 2.9-2.3 3.8-1 .6-11.4 13.2-12.2 13.8l3.9 1.6z"/></svg>