<svg xmlns="http://www.w3.org/2000/svg" width="33.3" height="121.9" viewBox="0 0 33.3 121.9"><path fill="#FFF" stroke="#00A78E" stroke-width="2.862" stroke-miterlimit="10" d="M24.7 120.5c.9 0 1.8-.3 2.4-.9l.7-.7.2-.5c.2-.6.7-2.1-.8-3.2l-3.6-2.4c-.5-.3-.8-.6-.9-.9l-1.3-2.9c-.4-.9-.3-1.9.3-2.7l.5-.7 5.6 7.2h.6c1.5 0 2.5-.5 3.1-1.4.7-1.2.6-2.8-.5-5.1L26.6 92c0-.1-.1-.2-.1-.4l-3.8-46c.4-2.6 1.1-6 2.3-10.3 0-.2.1-.3.1-.4C28.8 23 32.9 8.5 31.8 6.5c-.2-.4-.5-.6-.9-.7L7.5 1.4h-.2c-1.4 0-2.5 0-4.4 19.7-.9 9.2-1.5 18.6-1.5 18.7v.1l.2 7.7 10.8 42.6c0 .2-.1 1.8-.1 2.2l-2.4 10.1c-.1 1 .6 3.8 1.2 4.6l6.3 9.1c.3.5.8.8 1.4 1l3.8 2.6c.7.5 1.4.7 2.1.7"/></svg>