<svg xmlns="http://www.w3.org/2000/svg" width="212.5" height="514.2" viewBox="0 0 212.5 514.2">
  <path fill="none" stroke="#FFF" stroke-width="4" stroke-linecap="round" stroke-miterlimit="10" d="M2 351.9s-.7-32.4 25.7-28.7c8.9 1.3 23.9 7.8 22 28.7v160.3"/>
  <path fill="#FFF" d="M185.8 98.6s1.7-15.2 6.4-10.9c3.9 3.5 5.7 19.8 3.4 31.1-1 5.1-7.1 10.8-9.6 8.3s-.2-28.5-.2-28.5M84.5 96s-2.2-15.1-7.2-10.8c-5.3 4.6-4.7 24.1-2.9 31.2 1.3 5 8 10.6 10.6 8 2.7-2.5-.5-28.4-.5-28.4"/>
  <path fill="#FFF" d="M82.1 74.6c.1 5.3-3.5 48.1 11.5 66.8 8.5 10.7 20.4 20.9 27.2 22.5 11.2 2.6 18.5 4.6 28.4 2.5 9.9-2.1 24.4-12.5 33.4-32.4 4.3-9.5 15.9-84.1-5.6-105.2-14-13.8-44.9-12-56.8-11.5-12 .5-38.6 4.8-38.1 57.3m48 437.5s-1.9-14.6-31.8-13.3c-29.9 1.3-32.2 11-33.3 13.5m141.6-.2s-1.9-14.6-31.8-13.3c-29.9 1.3-32.2 11-33.3 13.5"/>
  <path fill="#FFF" d="M97.7 512.2L92.1 351h84l-1.9 161.2h-34.3V381.5c0-3.4-1.2-6.2-5.1-6.2-3.8 0-5.1 2.8-5.1 6.2v130.6h-32z"/>
  <path fill="#00A78E" d="M155.8 92.3c0 2.9 2.4 5.2 5.3 5.2s5.3-2.4 5.3-5.2c0-2.9-2.4-5.2-5.3-5.2-2.9-.1-5.3 2.3-5.3 5.2"/>
  <path fill="#00A78E" d="M177 93.6c-.1 0-7.3-6.9-15.9-6.9-4.4 0-9.2 1.9-13.4 7.4l1.3 1.6c3.8-5.1 8.1-6.7 12.1-6.7 3.9 0 7.7 1.6 10.4 3.3 1.4.8 2.5 1.6 3.3 2.3.4.3.7.6.9.7l.3.3 1-2z"/>
  <path fill="#FFF" d="M159.7 92.2c0 1-.6 1.8-1.2 1.8-.7 0-1.2-.8-1.2-1.8s.6-1.8 1.2-1.8c.7-.1 1.2.8 1.2 1.8"/>
  <path fill="#00A78E" d="M119.9 92.3c0 2.9-2.4 5.2-5.3 5.2s-5.3-2.4-5.3-5.2c0-2.9 2.4-5.2 5.3-5.2 2.9-.1 5.3 2.3 5.3 5.2"/>
  <path fill="#00A78E" d="M99.7 95.4l.3-.3c1.4-1.2 7.7-6.3 14.5-6.2 4 0 8.3 1.6 12.1 6.7l1.3-1.6c-4.2-5.6-9-7.5-13.4-7.4-8.6 0-15.8 6.9-15.9 6.9l1.1 1.9z"/>
  <path fill="#FFF" d="M112.5 92.2c0 1-.5 1.8-1.2 1.8s-1.2-.8-1.2-1.8.6-1.8 1.2-1.8c.6-.1 1.2.8 1.2 1.8"/>
  <path fill="#00A78E" d="M123.4 69.1s6.8 6 1.1 7.1c-5.7 1.1-15-.9-19.1 0-4.2.9-12.2 4.1-12.2 4.1l-.5-3.4c-.1-.1 11-10.6 30.7-7.8m28.3-5.6s-6.6 5.8-.8 7.1c5.7 1.3 15-.4 19.1.7 4.2 1.1 12.4 4.5 12.4 4.5l.4-3.4s-11.5-10.9-31.1-8.9m-20.3 56.7s.4.1 1.1.3c.7.2 1.8.4 3 .6 1.2.2 2.7.4 4.2.2.7-.1 1.5-.3 1.9-.8.1-.1.2-.2.3-.4v-.2l.1-.3c.1-.4.1-.8.2-1.2.1-1.6 0-3.3-.1-4.9-.1-1.6-.2-3-.4-4.3-.3-2.5-.5-4.2-.5-4.2s.1.4.3 1.1c.2.7.5 1.7.7 3 .5 2.5 1.1 5.9.9 9.3-.1.4-.1.9-.2 1.3l-.1.3c0 .1 0 .1-.1.2l-.1.2c-.1.2-.3.5-.4.6-.7.8-1.7.9-2.5 1-.8.1-1.6 0-2.4-.1-.7-.1-1.4-.3-2-.4-1.2-.3-2.2-.7-2.9-1-.6-.1-1-.3-1-.3m23.7 17.5s-18.8 7.8-34.2 1.2c2.1 4.6 22.6 15.7 34.2-1.2"/>
  <path fill="#32CFB6" d="M148.5 152.9s-11.6-4.6-21.2-.7c1.4-2.7 14.1-9.2 21.2.7"/>
  <path fill="#FFF" d="M79.9 84S70 58.4 72 48.2c2-10.2 7-19.4 25.1-35.8C108.9 1.7 129.7-.2 132 2.5c3.5 4 9.6 5.8 14 .6 4.4-5.1 19.9-1.8 18 2.3 8.3-4.8 14.1 4.1 14.1 4.1s31.3 4 14.2 84.9c-1.5 7.1-3.2 15.2-3.2 15.2-6.3.4-.7-9.4.3-39.2 1.4-41.1-36.8-32.1-50.9-33.7-17.1-1.9-45.8-4.2-50.9 17.9-5.1 22-2.8 51.7-2.8 51.7l-4.7 4.8V84z"/>
  <path fill="none" stroke="#00A78E" stroke-width=".987" stroke-miterlimit="10" d="M79.9 84S70 58.4 72 48.2c2-10.2 7-19.4 25.1-35.8C108.9 1.7 129.7-.2 132 2.5c3.5 4 9.6 5.8 14 .6 4.4-5.1 19.9-1.8 18 2.3 8.3-4.8 14.1 4.1 14.1 4.1s31.3 4 14.2 84.9c-1.5 7.1-3.2 15.2-3.2 15.2-6.3.4-.7-9.4.3-39.2 1.4-41.1-36.8-32.1-50.9-33.7-17.1-1.9-45.8-4.2-50.9 17.9-5.1 22-2.8 51.7-2.8 51.7l-4.7 4.8V84z"/>
  <path fill="#FFF" d="M124.7 167.6s.4 14.5-6.4 18.5c-6.1 3.6-8.9 4.4-8.9 4.4s30.1 12 54.1 2.3c-12.9-3.5-12.1-8-12.1-8l-2.3-15-24.4-2.2z"/>
  <path fill="none" stroke="#00A78E" stroke-width="1.185" stroke-miterlimit="10" d="M124.7 167.6s.4 14.5-6.4 18.5c-6.1 3.6-8.9 4.4-8.9 4.4s30.1 12 54.1 2.3c-12.9-3.5-12.1-8-12.1-8l-2.3-15-24.4-2.2z"/>
  <path fill="#FFF" d="M209 254.6l-30.1 6.9-3.3-14.2 3.5 34.8c.4 5.9.7 25.2-.7 42.5l-3 23.1H93.1l-3-27.2c-.9-14.3.1-35.7.6-41.2l1.9-46.6-13.9 18.6-22.3-21.6s7.2-7.9 16.2-23.2c7.6-13.1 36.7-16.2 36.7-16.2l27.7 4.4 26.4-2.1s24.5 6.2 34.9 28.5c10.3 22.4 10.3 33.1 10.3 33.1"/>
  <path fill="none" stroke="#00A78E" stroke-width=".987" stroke-miterlimit="10" d="M209 254.6l-30.1 6.9-3.3-14.2 3.5 34.8c.4 5.9.7 25.2-.7 42.5l-3 23.1H93.1l-3-27.2c-.9-14.3.1-35.7.6-41.2l1.9-46.6-13.9 18.6-22.3-21.6s7.2-7.9 16.2-23.2c7.6-13.1 36.7-16.2 36.7-16.2l27.7 4.4 26.4-2.1s24.5 6.2 34.9 28.5c10.3 22.4 10.3 33.1 10.3 33.1"/>
  <path fill="#FFF" d="M33.3 318.5c-.2 1-7.2-.7-7.2-.7s-1.2-1.4-1.7-1.3c-.4.1-1.9.9-1.9.9-1.4.5-1.3 2.1-1.6 3.5-.2 1.1-.4 2.3-.6 3.2-.1.6 0 1.3.4 1.9l1.8 4c.4 1-.3 1.4-.9 1.9l-.7.1c-1 .2-2.2-.4-2.6-1.4l-1.9-4.5c-.3-.3-.5-.6-.5-1l-.3-11.2c0-.7.8-3.2 1.3-3.7l7.6-7.2c.2-.2 1.5-1.9 1.6-2.2L40.6 259l4-6.5s12.8-21.1 14.5-19.5L76 249.6c1.3 1.3-5.6 4.5-5.6 4.5-7.2 6.8-9.7 9.2-13.2 13.7l-22.3 41-.3.6-1.3 9.1z"/>
  <path fill="none" stroke="#00A78E" stroke-width=".987" stroke-miterlimit="10" d="M33.3 318.5c-.2 1-7.2-.7-7.2-.7s-1.2-1.4-1.7-1.3c-.4.1-1.9.9-1.9.9-1.4.5-1.3 2.1-1.6 3.5-.2 1.1-.4 2.3-.6 3.2-.1.6 0 1.3.4 1.9l1.8 4c.4 1-.3 1.4-.9 1.9l-.7.1c-1 .2-2.2-.4-2.6-1.4l-1.9-4.5c-.3-.3-.5-.6-.5-1l-.3-11.2c0-.7.8-3.2 1.3-3.7l7.6-7.2c.2-.2 1.5-1.9 1.6-2.2L40.6 259l4-6.5s12.8-21.1 14.5-19.5L76 249.6c1.3 1.3-5.6 4.5-5.6 4.5-7.2 6.8-9.7 9.2-13.2 13.7l-22.3 41-.3.6-1.3 9.1z"/>
  <path fill="#FFF" d="M189.3 376.2c-.8 0-1.5-.3-2-.8l-.6-.6-.1-.3c-.2-.7-.5-1.7.6-2.4l3.7-2.4c.6-.3 1-.7 1.2-1.2l1.3-2.9c.5-1.1.3-2.4-.4-3.4l-1-1.5-6 7.8h-.2c-1.3 0-2.1-.4-2.5-1-.6-.9-.4-2.4.6-4.5l4.4-14.5c.1-.2.1-.3.1-.5l3.8-46.5c-.4-2.6-1.2-6.2-2.3-10.6-.1-.3-.1-.4-.1-.5-1.9-6-8-26.1-6.8-28.1.1-.2.3-.3.5-.3l23.4-4.6h.1c.8 0 1.9 0 3.8 19.3.9 9.3 1.5 18.8 1.5 18.9l-.2 7.7-10.9 43c0 .3.1 2.2.1 2.5l2.4 10.2c.1.8-.6 3.6-1 4.2l-6.4 9.2c-.3.4-.7.6-1.2.8l-4 2.7c-.7.2-1.3.3-1.8.3"/>
  <path fill="#00A78E" d="M206.7 257.9c2.4 0 4.8 37.7 4.8 37.7l-.2 7.6-10.9 43c-.1.3 0 2.4.1 2.7l2.4 10.2c.1.6-.6 3.2-1 3.8l-6.4 9.2c-.2.3-.6.5-.9.6l-4 2.7c-.4.3-.9.4-1.3.4-.6 0-1.2-.2-1.6-.6l-.5-.5c-.2-.7-.6-1.5.3-2.1l3.7-2.4c.6-.4 1.1-.9 1.4-1.4.3-.8.8-1.9 1.3-2.9.6-1.3.4-2.7-.4-3.9l-1.4-2-5.4 7-.9 1.2h-.1c-3 0-2.6-2.4-1.4-4.9l4.4-14.5c.1-.2.1-.4.1-.6l3.8-46.6c-.6-4.6-2.4-11-2.5-11.1 0 0-8.5-27.5-6.7-27.8l23.3-4.8m0-1h-.2l-23.3 4.6c-.3.1-.6.3-.8.6-.3.6-.9 1.6 2.9 15.4 1.8 6.5 3.8 12.9 3.9 13.2 0 .1.1.2.1.4 1.2 4.4 2 7.9 2.3 10.5l-3.8 46.5c0 .2 0 .3-.1.4l-4.4 14.5c-1.1 2.3-1.3 3.8-.6 4.9.5.8 1.5 1.3 2.9 1.3h.6l.3-.4.9-1.2 4.5-5.9.6.9c.6.9.8 2 .3 2.9l-1.3 3c-.2.4-.5.7-.9 1l-3.7 2.4c-1.4 1-1 2.3-.8 3l.1.2.1.2.2.2.5.5c.6.6 1.4.9 2.3.9.7 0 1.3-.2 1.9-.6l3.9-2.6c.6-.2 1-.5 1.4-.9l6.4-9.2c.5-.7 1.3-3.5 1.1-4.5l-2.4-10.2c0-.4-.1-2-.1-2.3l10.8-42.9v-.2l.2-7.6c0-.1-.6-9.6-1.5-18.9-.5-5.5-1.1-9.9-1.6-13-.9-6.1-1.6-7.1-2.7-7.1"/>
  <path fill="#FFF" d="M162.4 135.8c-.1-2.7-1-4.9-1-4.9-6.1-12.8-23.3-4.7-23.3-4.7h-.2s-17.2-8.2-23.3 4.7c0 0-1 2.3-1 4.9-.2 1.6-.1 2.6.3 2.4.4-.2.9-.1 1.1.2.2.4.6.4 1 0 .3-.4.8-.4 1.1 0 .3.4.7.4 1.1 0 .3-.4.8-.4 1.1 0 .3.4.7.4 1 0 .3-.4.8-.4 1.2 0 .4.4.9.4 1.3 0 .3-.4.9-.4 1.2.1.3.4.9.4 1.2 0 .3-.4.8-.5 1.2-.1.3.4.8.4 1.1 0 .3-.4.8-.4 1.1 0 .3.4.8.4 1 0 .2-.4.6-.4 1 0s.8.4 1 0c.2-.4.6-.4 1-.1.4.4 1 .4 1.3 0 .4-.4.8-.5 1-.2s.9.1 1.5-.5c.3-.3 1.1-1.5 1.8-1.5.8 0 1.4 1.2 1.8 1.5.6.6 1.3.8 1.5.5.2-.3.7-.2 1 .2.4.4.9.4 1.3 0s.8-.4 1 .1c.2.4.6.4 1 0s.8-.4 1 0c.2.4.6.4 1 0 .3-.4.8-.4 1.1 0 .3.4.7.4 1.1 0 .3-.4.8-.4 1.2.1.3.4.9.4 1.2 0 .3-.4.9-.5 1.2-.1.3.4.9.4 1.3 0s.9-.4 1.2 0c.3.4.7.4 1 0 .3-.4.8-.4 1.1 0 .3.4.8.4 1.1 0s.7-.4 1.1 0c.3.4.8.4 1 0 .2-.4.7-.5 1.1-.2 0 .2.1-.9-.1-2.4"/>
  <path fill="none" stroke="#00A78E" stroke-miterlimit="10" d="M162.4 135.8c-.1-2.7-1-4.9-1-4.9-6.1-12.8-23.3-4.7-23.3-4.7h-.2s-17.2-8.2-23.3 4.7c0 0-1 2.3-1 4.9-.2 1.6-.1 2.6.3 2.4.4-.2.9-.1 1.1.2.2.4.6.4 1 0 .3-.4.8-.4 1.1 0 .3.4.7.4 1.1 0 .3-.4.8-.4 1.1 0 .3.4.7.4 1 0 .3-.4.8-.4 1.2 0 .4.4.9.4 1.3 0 .3-.4.9-.4 1.2.1.3.4.9.4 1.2 0 .3-.4.8-.5 1.2-.1.3.4.8.4 1.1 0 .3-.4.8-.4 1.1 0 .3.4.8.4 1 0 .2-.4.6-.4 1 0s.8.4 1 0c.2-.4.6-.4 1-.1.4.4 1 .4 1.3 0 .4-.4.8-.5 1-.2s.9.1 1.5-.5c.3-.3 1.1-1.5 1.8-1.5.8 0 1.4 1.2 1.8 1.5.6.6 1.3.8 1.5.5.2-.3.7-.2 1 .2.4.4.9.4 1.3 0s.8-.4 1 .1c.2.4.6.4 1 0s.8-.4 1 0c.2.4.6.4 1 0 .3-.4.8-.4 1.1 0 .3.4.7.4 1.1 0 .3-.4.8-.4 1.2.1.3.4.9.4 1.2 0 .3-.4.9-.5 1.2-.1.3.4.9.4 1.3 0s.9-.4 1.2 0c.3.4.7.4 1 0 .3-.4.8-.4 1.1 0 .3.4.8.4 1.1 0s.7-.4 1.1 0c.3.4.8.4 1 0 .2-.4.7-.5 1.1-.2 0 .2.1-.9-.1-2.4z"/>
  <path fill="#00A78E" d="M198.9 86.8c-.5-.2-1-.4-1.6-.6-11.6-3.9-23.4-6-35.6-5.4-5.2.3-10.4 1.1-15.2 3.3-1.6.7-3.2 1.5-3.2 3.6-1.8-.3-10.5-.3-12.3 0 0-2.1-1.6-2.9-3.2-3.6-4.8-2.2-10-3-15.2-3.3-12.2-.6-24.1 1.5-35.6 5.4-.5.2-1 .4-1.6.6-2.2 1-3.1 2.6-2.6 5 .1.3.6.8 1 .8 2.6.1 2.2 0 3.3 1.8.5.8.9 1.5 1.8 1.9 3.1 1.4 3.9 1 4.9 4.5.6 2.1 2.5 5.9 3.9 7.6 2.7 3.3 6.6 5.1 10.9 5.6 5.6.7 11.2.5 16.7-.9 5.1-1.2 8.5-4.5 10.9-9 1.6-3.1 2.6-6.4 2.8-9.9.2-3.3 2.9-5.1 6.3-5.2h4c3.3.1 6 1.8 6.3 5.2.2 3.5 1.2 6.8 2.8 9.9 2.4 4.5 5.8 7.8 10.9 9 5.5 1.3 11.1 1.6 16.7.9 4.3-.5 8.3-2.3 10.9-5.6 1.4-1.7 3.3-5.6 3.9-7.6 1-3.5 1.8-3.2 4.9-4.5.9-.4 1.3-1.1 1.8-1.9 1.1-1.8.6-1.7 3.3-1.8.3 0 .9-.5 1-.8.2-2.5-.7-4-2.9-5M128 95.2c-.3 1.7-.5 3.5-1.1 5.2-2.3 6.3-6.3 11-13.2 12.4-5.2 1-10.5.8-15.8.3-6.7-.7-10.6-4.7-12.6-10.7-.7-2.1-1.3-4.5-1.1-6.7.8-8.9 10.8-11.4 18.6-12.1 6.9-.6 13.6-.1 20 2.6 3.7 1.5 6.1 4.2 5.2 9m60.9 7.2c-2 6-5.9 10-12.6 10.7-5.3.5-10.6.7-15.8-.3-6.9-1.4-10.9-6-13.2-12.4-.6-1.6-.8-3.4-1.1-5.2-.8-4.8 1.6-7.5 5.2-9 6.4-2.7 13.1-3.1 20-2.6 7.8.6 17.8 3.2 18.6 12.1.2 2.2-.4 4.5-1.1 6.7"/>
</svg>