<svg xmlns="http://www.w3.org/2000/svg" width="67.9" height="67.9" viewBox="0 0 67.9 67.9"><g fill="#00A78E"><path d="M64.2 28.5l-4.4-.9c-.7-3-1.9-5.7-3.5-8.2l2.4-3.8c1.4-1.4 1.8-3.2.9-4.1l-4-3.9c-.8-.8-2.6-.3-4 1.1l-3.7 2.5c-2.5-1.5-5.3-2.7-8.3-3.3l-1-4.4c0-2-1-3.6-2.2-3.5l-5.6.1c-1.2 0-2.1 1.6-2.1 3.6l-.9 4.4c-3 .7-5.7 1.9-8.2 3.5l-3.8-2.4c-1.4-1.4-3.2-1.8-4.1-1l-3.9 4c-.8.8-.3 2.6 1.1 4l2.5 3.7c-1.5 2.5-2.7 5.3-3.3 8.3l-4.4 1c-2 0-3.6 1-3.5 2.2L.3 37c0 1.2 1.6 2.1 3.6 2.1l4.4.9c.7 3 1.9 5.7 3.5 8.2L9.4 52c-1.4 1.4-1.8 3.2-.9 4.1l4 3.9c.8.8 2.6.3 4-1.1l3.7-2.5c2.5 1.5 5.3 2.7 8.3 3.3l1 4.4c0 2 1 3.6 2.2 3.5l5.6-.1c1.2 0 2.1-1.6 2.1-3.6l.9-4.4c3-.7 5.7-1.9 8.2-3.5l3.8 2.4c1.4 1.4 3.2 1.8 4 .9l3.9-4c.8-.8.3-2.6-1.1-4l-2.5-3.7c1.5-2.5 2.7-5.3 3.3-8.3l4.4-1c2 0 3.6-1 3.5-2.2l-.1-5.6c.1-1.1-1.6-2-3.5-2zM34.3 55.8c-12.1.2-22-9.5-22.2-21.5-.2-12.1 9.5-22 21.5-22.2 12.1-.2 22 9.5 22.2 21.5.2 12.1-9.5 22-21.5 22.2z"/><path d="M33.6 14.9c-10.5.2-18.9 8.8-18.7 19.3.2 10.5 8.8 18.9 19.3 18.7 10.5-.2 18.9-8.8 18.7-19.3-.1-10.5-8.8-18.8-19.3-18.7zm.5 28.4c-5.2.1-9.5-4.1-9.6-9.3-.1-5.2 4.1-9.5 9.3-9.6 5.2-.1 9.5 4.1 9.6 9.3 0 5.3-4.1 9.6-9.3 9.6z"/></g></svg>