<?xml version="1.0" encoding="utf-8"?>
<!-- Generator: Adobe Illustrator 19.0.0, SVG Export Plug-In . SVG Version: 6.00 Build 0)  -->
<svg version="1.1" id="Layer_1" xmlns="http://www.w3.org/2000/svg" xmlns:xlink="http://www.w3.org/1999/xlink" x="0px" y="0px"
	 viewBox="-216 279.7 166.8 42.3" style="enable-background:new -216 279.7 166.8 42.3;" xml:space="preserve">
<style type="text/css">
	.st0{fill:#FFFFFF;}
</style>
<path class="st0" d="M-203.6,285.9c1-0.1,2-0.2,3.1-0.3c1.1-0.1,2.2-0.1,3.2-0.1c3.7,0,6.4,0.7,8.1,2c1.7,1.3,2.5,3.3,2.5,5.8
	c0,1.7-0.3,3.2-0.9,4.3c-0.6,1.1-1.4,2.1-2.3,2.8c-1,0.7-2.1,1.2-3.4,1.5c-1.3,0.3-2.6,0.4-4,0.4h-2.8v10.3h-3.5L-203.6,285.9
	L-203.6,285.9z M-198.4,299.4c1.3,0,2.5-0.1,3.5-0.2c1-0.2,1.9-0.5,2.6-0.9c0.7-0.4,1.2-1,1.6-1.8c0.4-0.8,0.6-1.7,0.6-2.9
	c0-1-0.2-1.8-0.5-2.5s-0.8-1.2-1.4-1.6s-1.3-0.7-2.1-0.8c-0.8-0.2-1.7-0.2-2.6-0.2h-1.8c-0.5,0-1,0.1-1.4,0.1h0.1v10.8H-198.4
	L-198.4,299.4z M-183.1,293.7h0.7c0.6,0,1.2,0.2,1.7,0.5s0.8,0.8,0.9,1.5c0.4-0.6,0.9-1.1,1.7-1.6c0.7-0.5,1.6-0.7,2.6-0.7
	c0.3,0,0.6,0,0.9,0.1c0.3,0.1,0.6,0.1,0.9,0.3c0.3,0.1,0.5,0.3,0.7,0.5s0.3,0.5,0.3,0.8c0,0.4-0.1,0.9-0.3,1.4s-0.4,0.9-0.6,1.2
	c-0.3-0.3-0.7-0.6-1.1-0.7c-0.4-0.2-0.9-0.3-1.5-0.3c-0.5,0-0.9,0.1-1.3,0.2s-0.8,0.3-1.1,0.6c-0.3,0.3-0.6,0.5-0.8,0.9
	c-0.2,0.3-0.3,0.7-0.3,1v13.3h-3.4L-183.1,293.7L-183.1,293.7z M-167.7,303.8c0.1,1.9,0.6,3.5,1.5,4.7s2.4,1.8,4.4,1.8
	c0.7,0,1.4-0.1,2-0.2c0.6-0.2,1.1-0.4,1.5-0.6s0.8-0.5,1.1-0.7l0.7-0.7c0.3,0.4,0.6,0.8,0.8,1.2c0.2,0.4,0.3,0.8,0.3,1
	s-0.1,0.4-0.2,0.7c-0.1,0.2-0.4,0.5-0.7,0.7c-0.6,0.5-1.4,0.8-2.4,1.1c-1,0.3-2.1,0.5-3.5,0.5c-1.3,0-2.4-0.2-3.5-0.5
	c-1.1-0.4-2.1-0.9-2.9-1.7c-0.8-0.8-1.5-1.8-2-3.1s-0.7-2.9-0.7-4.7c0-1.7,0.2-3.1,0.7-4.4c0.5-1.2,1.1-2.2,1.9-3
	c0.8-0.8,1.7-1.4,2.7-1.7c1-0.4,2.1-0.6,3.2-0.6c1.4,0,2.5,0.2,3.5,0.7s1.8,1.1,2.4,1.8c0.6,0.8,1.1,1.6,1.4,2.6s0.4,2,0.4,3.1v1.1
	c0,0.4,0,0.8-0.1,1.1h-12.5V303.8z M-158.3,301.3c0-0.7-0.1-1.4-0.2-2c-0.1-0.6-0.4-1.2-0.7-1.6c-0.3-0.5-0.8-0.8-1.4-1.1
	c-0.6-0.3-1.3-0.4-2.1-0.4c-1.4,0-2.5,0.5-3.4,1.4s-1.4,2.2-1.5,3.8L-158.3,301.3L-158.3,301.3z M-150.2,293.7h0.8
	c0.7,0,1.3,0.2,1.7,0.5s0.7,0.8,0.8,1.5c0.6-0.6,1.4-1.2,2.4-1.7s2.2-0.7,3.5-0.7c0.5,0,1,0,1.5,0.1s1,0.2,1.5,0.4s0.9,0.5,1.3,0.8
	s0.7,0.7,1,1.1c0.6-0.7,1.4-1.2,2.5-1.7s2.3-0.7,3.6-0.7c1.8,0,3.1,0.4,4.1,1.2c0.9,0.8,1.6,1.8,1.8,3c0.1,0.5,0.2,1.1,0.2,1.8v13.3
	h-3.4v-12.7c0-0.5-0.1-0.9-0.2-1.3c-0.2-0.7-0.6-1.2-1.1-1.6s-1.4-0.6-2.6-0.6c-0.9,0-1.7,0.2-2.5,0.6s-1.3,0.8-1.7,1.2
	c0.1,0.5,0.1,0.9,0.1,1.4v12.9h-3.4v-11.2c0-0.6,0-1.1-0.1-1.6s-0.1-0.9-0.3-1.3c-0.5-1.3-1.7-2-3.6-2c-0.6,0-1.2,0.1-1.7,0.2
	l-1.5,0.6c-0.4,0.3-0.8,0.6-1,0.9c-0.3,0.3-0.4,0.7-0.4,1v13.4h-3.4L-150.2,293.7L-150.2,293.7z M-118.2,287.6
	c0-0.7,0.2-1.2,0.6-1.6s0.9-0.6,1.5-0.6s1.1,0.2,1.5,0.6s0.6,1,0.6,1.6s-0.2,1.1-0.6,1.5s-0.9,0.6-1.5,0.6s-1.1-0.2-1.5-0.6
	S-118.2,288.2-118.2,287.6z M-117.6,293.6h0.8c0.8,0,1.4,0.2,1.9,0.6s0.7,1.1,0.7,2.1V309c0,0.8,0.1,1.3,0.3,1.6s0.8,0.5,1.6,0.5
	v1.4c-0.2,0.1-0.6,0.1-1,0.2s-0.8,0.1-1.2,0.1c-0.8,0-1.4-0.1-1.8-0.4c-0.4-0.2-0.7-0.6-0.9-1c-0.2-0.4-0.3-0.8-0.4-1.3
	c0-0.5-0.1-1-0.1-1.5L-117.6,293.6L-117.6,293.6z M-108.1,293.6h0.8c0.8,0,1.4,0.2,1.9,0.6s0.7,1.1,0.7,2.1v9.3c0,1,0.1,1.9,0.2,2.5
	s0.4,1.1,0.9,1.4c0.4,0.3,0.8,0.5,1.3,0.6s1,0.2,1.6,0.2c0.7,0,1.4-0.1,2-0.3s1.1-0.4,1.5-0.7c0.4-0.3,0.8-0.6,1-0.9
	s0.4-0.6,0.4-0.9v-13.8h0.8c0.8,0,1.4,0.2,1.9,0.6s0.7,1.1,0.7,2.1v16.3h-3.4v-1.8c-0.5,0.6-1.3,1.2-2.2,1.6c-1,0.5-2.2,0.7-3.7,0.7
	s-2.7-0.2-3.6-0.7s-1.5-1.1-1.9-1.8c-0.4-0.7-0.7-1.6-0.7-2.5s-0.1-1.8-0.1-2.6v-12L-108.1,293.6z M-86.4,293.7h0.8
	c0.7,0,1.3,0.2,1.7,0.5c0.4,0.3,0.7,0.8,0.8,1.5c0.6-0.6,1.4-1.2,2.4-1.7s2.2-0.7,3.5-0.7c0.5,0,1,0,1.5,0.1s1,0.2,1.5,0.4
	s0.9,0.5,1.3,0.8s0.7,0.7,1,1.1c0.6-0.7,1.4-1.2,2.5-1.7s2.3-0.7,3.6-0.7c1.8,0,3.1,0.4,4.1,1.2c0.9,0.8,1.6,1.8,1.8,3
	c0.1,0.5,0.2,1.1,0.2,1.8v13.3h-3.4v-12.7c0-0.5-0.1-0.9-0.2-1.3c-0.2-0.7-0.6-1.2-1.1-1.6c-0.6-0.4-1.4-0.6-2.6-0.6
	c-0.9,0-1.7,0.2-2.5,0.6s-1.3,0.8-1.7,1.2c0.1,0.5,0.1,0.9,0.1,1.4v12.9h-3.4v-11.2c0-0.6,0-1.1-0.1-1.6s-0.1-0.9-0.3-1.3
	c-0.5-1.3-1.7-2-3.6-2c-0.6,0-1.2,0.1-1.7,0.2l-1.5,0.6c-0.4,0.3-0.8,0.6-1,0.9c-0.3,0.3-0.4,0.7-0.4,1v13.4h-3.4L-86.4,293.7
	L-86.4,293.7z"/>
</svg>
