<svg xmlns="http://www.w3.org/2000/svg" width="328.5" height="376.7" viewBox="0 0 328.5 376.7">
  <path fill="#FFF" d="M302.7 89.3s1.5-13.3 5.6-9.6c3.4 3.1 5 17.4 3 27.3-.9 4.4-6.2 9.5-8.4 7.3-2.3-2.1-.2-25-.2-25m-89-2.2s-1.9-13.3-6.3-9.5c-4.6 4-4.1 21.1-2.6 27.4 1.1 4.4 7 9.3 9.4 7 2.3-2.2-.5-24.9-.5-24.9"/>
  <path fill="#FFF" d="M211.6 68.2c0 4.7-3 42.2 10.1 58.7 7.4 9.4 17.9 18.4 23.9 19.8 9.9 2.3 16.3 4 25 2.2 8.7-1.9 21.5-11 29.4-28.5 3.8-8.3 13.9-73.9-4.9-92.4-12.4-12.1-39.5-10.6-50-10.1-10.6.5-33.9 4.2-33.5 50.3m13.2 307.1l-5.1-81.6h76.1l-1.7 81.6H263v-66.2c0-1.7-1.1-3.2-4.6-3.2-3.5 0-4.6 1.4-4.6 3.2v66.2h-29z"/>
  <path fill="#00A78E" d="M276.3 83.8c0 2.5 2.1 4.6 4.7 4.6s4.7-2.1 4.7-4.6c0-2.5-2.1-4.6-4.7-4.6s-4.7 2-4.7 4.6"/>
  <path fill="#00A78E" d="M295 85c-.1 0-6.4-6.1-13.9-6.1-3.9 0-8.1 1.7-11.8 6.5l1.1 1.4c3.4-4.5 7.1-5.9 10.6-5.9 3.4 0 6.7 1.4 9.1 2.9 1.2.7 2.2 1.4 2.9 2 .3.3.6.5.8.6l.3.2.9-1.6z"/>
  <path fill="#FFF" d="M279.8 83.7c0 .9-.5 1.6-1.1 1.6-.6 0-1.1-.7-1.1-1.6 0-.9.5-1.6 1.1-1.6.6 0 1.1.7 1.1 1.6"/>
  <path fill="#00A78E" d="M244.8 83.8c0 2.5-2.1 4.6-4.7 4.6s-4.7-2.1-4.7-4.6c0-2.5 2.1-4.6 4.7-4.6s4.7 2 4.7 4.6"/>
  <path fill="#00A78E" d="M227.1 86.5l.3-.2c1.2-1.1 6.7-5.5 12.8-5.5 3.5 0 7.2 1.4 10.6 5.9l1.1-1.4c-3.7-4.9-7.9-6.6-11.8-6.5-7.6 0-13.9 6.1-14 6.1l1 1.6z"/>
  <path fill="#FFF" d="M238.3 83.7c0 .9-.5 1.6-1.1 1.6-.6 0-1.1-.7-1.1-1.6 0-.9.5-1.6 1.1-1.6.6 0 1.1.7 1.1 1.6"/>
  <path fill="#00A78E" d="M247.9 63.4s5.9 5.3.9 6.2c-5 1-13.2-.8-16.8 0-3.6.8-10.7 3.6-10.7 3.6l-.5-3s9.8-9.2 27.1-6.8m24.9-4.9s-5.8 5.1-.7 6.2c5 1.1 13.1-.3 16.8.6 3.7.9 10.9 4 10.9 4l.4-3c-.2 0-10.2-9.5-27.4-7.8m-17.9 49.8s.4 0 1 .1 1.6.2 2.7.3c1.1.1 2.4.2 3.6 0 .6-.1 1.1-.3 1.3-.6.1-.1.1-.1.1-.2v-.1.1-.1l.1-.3c.1-.4.1-.6.1-.9.1-1.4.1-2.8 0-4.2-.1-1.4-.1-2.7-.2-3.8-.1-2.2-.1-3.7-.1-3.7s.6 1.4 1.2 3.6c.3 1.1.6 2.4.8 3.8.2 1.4.3 2.9.2 4.5-.1.4-.1 1-.2 1.3l-.1.3v.2l-.1.2c-.1.3-.3.5-.5.7-.8.8-1.8.9-2.6 1-.8 0-1.5-.1-2.2-.2-.7-.1-1.3-.3-1.8-.5-2-.7-3.3-1.5-3.3-1.5m-9.3 8.2s16.5 6.9 30.1 1.1c-1.9 4-19.9 13.8-30.1-1.1"/>
  <path fill="#FFF" d="M249 149.9s.4 12.7-5.6 16.3c-5.4 3.2-7.8 3.8-7.8 3.8s26.4 10.6 47.5 2c-11.4-3.1-10.6-7-10.6-7l-2-13.2-21.5-1.9z"/>
  <path fill="none" stroke="#00A78E" stroke-width="3.076" stroke-miterlimit="10" d="M249 149.9s.4 12.7-5.6 16.3c-5.4 3.2-7.8 3.8-7.8 3.8s26.4 10.6 47.5 2c-11.4-3.1-10.6-7-10.6-7l-2-13.2-21.5-1.9z"/>
  <path fill="#FFF" d="M56.4 155.1s.3 10.7-4.8 13.7c-4.5 2.7-6.6 3.2-6.6 3.2s22.3 8.9 40.1 1.7c-9.6-2.6-9-5.9-9-5.9l-1.7-11.1-18-1.6z"/>
  <path fill="none" stroke="#00A78E" stroke-width="3.076" stroke-miterlimit="10" d="M56.4 155.1s.3 10.7-4.8 13.7c-4.5 2.7-6.6 3.2-6.6 3.2s22.3 8.9 40.1 1.7c-9.6-2.6-9-5.9-9-5.9l-1.7-11.1-18-1.6z"/>
  <path fill="#FFF" d="M211.4 285.1c.7 2.1.7 4-2.1 3.4l-.6-1-3.8-6.2-1.6 1.3c-1 .7-1.3 1.8-1 2.8.2.8.5 1.8.7 2.4.1.5.5.9 1 1.3l3 2.5c.7.6.3 1.1 0 1.6l-.5.3c-.8.4-2 .3-2.8-.4l-3.3-2.8c-.3-.1-.6-.3-.8-.6l-4.4-8.1c-.3-.5-2-2.6-1.8-3l5.3-7.3c.1-.2.5-1.8.5-2l-3.2-34.2 1-5.8s6.1-28.7 8.2-27.9l20.7 7.6c1.6.6-6.2 14.7-6.2 14.7-3.6 6.9-4.9 9.2-6.2 13.4l-3.8 35.7v.5l1.7 11.8z"/>
  <path fill="none" stroke="#00A78E" stroke-miterlimit="10" d="M211.4 285.1c.7 2.1.7 4-2.1 3.4l-.6-1-3.8-6.2-1.6 1.3c-1 .7-1.3 1.8-1 2.8.2.8.5 1.8.7 2.4.1.5.5.9 1 1.3l3 2.5c.7.6.3 1.1 0 1.6l-.5.3c-.8.4-2 .3-2.8-.4l-3.3-2.8c-.3-.1-.6-.3-.8-.6l-4.4-8.1c-.3-.5-2-2.6-1.8-3l5.3-7.3c.1-.2.5-1.8.5-2l-3.2-34.2 1-5.8s6.1-28.7 8.2-27.9l20.7 7.6c1.6.6-6.2 14.7-6.2 14.7-3.6 6.9-4.9 9.2-6.2 13.4l-3.8 35.7v.5l1.7 11.8z"/>
  <path fill="#FFF" d="M317 291.3c-.4 0-.8-.1-1.2-.3l-.7-.3-.2-.2c-.3-.4-.8-1.3.1-2.1l2.9-2.5c.5-.3.7-.7.8-1.1l.7-2.5c.2-.9-.1-1.7-.9-2.3l-1.2-.9-4.2 7.1h-.2c-.4.1-.8.1-1.1.1-.7 0-1.3-.2-1.6-.7-.5-.7-.5-1.8 0-3.4l1.6-11.7v-.4l-4.2-35.7c-.8-1.9-2.1-4.4-3.9-7.4-.1-.2-.2-.3-.2-.4-2.7-4.1-11.5-17.8-10.9-19.7.1-.2.2-.4.4-.5l20.6-8.2h.2c2.3 0 7.9 17.4 11 27.7l1.1 5.9-2.8 34.5c0 .2.4 1.6.5 1.8l3.8 7.1c.3.7.1 2.9-.3 3.5l-4.3 8.2c-.2.4-.6.7-.9.8l-3.2 2.8c-.1.5-.9.8-1.7.8"/>
  <path fill="#00A78E" d="M314.2 198.8c2.2 0 10.6 27.3 10.6 27.3l1.1 5.7-2.8 34.4c0 .2.4 1.8.5 2l3.9 7.2c.2.5 0 2.5-.3 3l-4.3 8.2c-.1.3-.4.5-.8.6l-3.2 2.9c-.5.4-1.2.6-1.8.6-.3 0-.7-.1-1-.2l-.5-.3c-.3-.5-.8-1-.1-1.6l2.9-2.5c.5-.4.9-.9 1-1.3.2-.7.4-1.6.7-2.5.3-1.1-.1-2.1-1-2.8l-1.6-1.2-3.7 6.3-.6 1c-.4.1-.7.1-1 .1-1.8 0-1.7-1.7-1.1-3.5l1.6-11.8v-.5l-4.2-35.7c-1.4-3.4-4-7.7-4.1-7.9 0 0-12.3-18.9-10.7-19.5l20.5-8c-.1 0-.1 0 0 0m0-1c-.2 0-.3 0-.5.1l-20.5 8.1c-.3.1-.6.4-.7.8-.2.6-.5 1.6 5.3 11.2 2.7 4.5 5.5 8.8 5.7 9 0 .1.1.2.2.3 1.8 3 3 5.5 3.8 7.3l4.2 35.6v.2l-1.6 11.7c-.6 1.8-.5 3 .1 3.8.3.4.9.9 2 .9.4 0 .8 0 1.2-.2l.4-.1.2-.4.6-1 3.2-5.4.7.6c.4.3.9.9.7 1.8l-.7 2.5c-.1.3-.3.6-.6.8l-2.9 2.5c-1.3 1.2-.5 2.4-.2 2.8l.1.1.2.2.3.1.5.3c.4.2.9.3 1.4.3.9 0 1.8-.3 2.4-.9l3.1-2.8c.5-.2.9-.6 1.1-1l4.3-8.2c.4-.7.6-3.1.3-3.9l-3.8-7.1c-.1-.3-.4-1.3-.4-1.6l2.8-34.3v-.2L326 226v-.2c0-.1-2.1-6.9-4.5-13.7-5.2-14.3-6.4-14.3-7.3-14.3"/>
  <path fill="#FFF" d="M325.6 206l-24.3 18.3-3.1-10.9 3.2 26.8c.4 4.6.6 19.3-.6 32.7l-2.8 17.8h-76.9l-2.8-20.9c-.9-11 .1-27.4.6-31.6l4.5-25-3.7 10.3-21.8-16.7s-3.8 3.3 5.9-13.9 31.1-23.2 31.1-23.2l25.9 3.4 24.7-1.6s22.9 4.7 32.6 21.9c9.4 17.1 7.5 12.6 7.5 12.6"/>
  <path fill="none" stroke="#00A78E" stroke-width="2.562" stroke-miterlimit="10" d="M325.6 206l-24.3 18.3-3.1-10.9 3.2 26.8c.4 4.6.6 19.3-.6 32.7l-2.8 17.8h-76.9l-2.8-20.9c-.9-11 .1-27.4.6-31.6l4.5-25-3.7 10.3-21.8-16.7s-3.8 3.3 5.9-13.9 31.1-23.2 31.1-23.2l25.9 3.4 24.7-1.6s22.9 4.7 32.6 21.9c9.4 17.1 7.5 12.6 7.5 12.6"/>
  <path fill="#FFF" d="M30.3 375.7l-5.1-80.8h75.3l-1.7 80.8H68.1v-65.5c0-1.7-1.1-3.1-4.5-3.1s-4.5 1.4-4.5 3.1v65.5H30.3zM17 286.5c.7 2.1.7 3.9-2.1 3.4l-.6-1-3.8-6.2-1.6 1.2c-.9.7-1.3 1.8-1 2.8.2.8.5 1.8.7 2.4.1.5.5.9 1 1.3l2.9 2.4c.7.6.3 1.1 0 1.6l-.5.3c-.8.4-2 .3-2.7-.4L6 291.6c-.3-.1-.6-.3-.8-.6l-4.4-8c-.3-.5-.5-2.5-.3-3l3.7-7.2c.1-.2.5-1.8.5-2l-3-33.8 1-5.7s6-28.4 8.1-27.6l20.5 7.5c1.6.6-6.1 14.5-6.1 14.5-3.6 6.8-4.8 9.1-6.1 13.3l-3.8 35.3v.5l1.7 11.7z"/>
  <path fill="none" stroke="#00A78E" stroke-miterlimit="10" d="M17 286.5c.7 2.1.7 3.9-2.1 3.4l-.6-1-3.8-6.2-1.6 1.2c-.9.7-1.3 1.8-1 2.8.2.8.5 1.8.7 2.4.1.5.5.9 1 1.3l2.9 2.4c.7.6.3 1.1 0 1.6l-.5.3c-.8.4-2 .3-2.7-.4L6 291.6c-.3-.1-.6-.3-.8-.6l-4.4-8c-.3-.5-.5-2.5-.3-3l3.7-7.2c.1-.2.5-1.8.5-2l-3-33.8 1-5.7s6-28.4 8.1-27.6l20.5 7.5c1.6.6-6.1 14.5-6.1 14.5-3.6 6.8-4.8 9.1-6.1 13.3l-3.8 35.3v.5l1.7 11.7z"/>
  <path fill="#FFF" d="M121.5 292.6c-.4 0-.8-.1-1.2-.3l-.7-.3-.2-.2c-.3-.4-.8-1.3.1-2.1l2.9-2.5c.5-.3.7-.7.8-1.1l.7-2.4c.2-.9-.1-1.7-.9-2.3l-1.2-.9-4.1 7h-.2c-.4.1-.8.1-1.1.1-.7 0-1.3-.2-1.6-.7-.5-.7-.5-1.8 0-3.4l1.6-11.6v-.4l-4.2-35.3c-.8-1.9-2-4.3-3.8-7.4-.1-.2-.2-.3-.2-.3-2.6-4.1-11.4-17.6-10.8-19.5.1-.2.2-.4.4-.5l20.4-8.1h.2c2.2 0 7.8 17.2 10.9 27.4l1.1 5.8-2.8 34.1c0 .2.4 1.6.5 1.8l3.8 7.1c.3.7.1 2.9-.3 3.5l-4.3 8.1c-.2.3-.5.6-.9.8l-3.1 2.8c-.3.5-1 .8-1.8.8"/>
  <path fill="#00A78E" d="M118.7 201c2.2 0 10.5 27.1 10.5 27.1l1.1 5.7-2.8 34c0 .2.4 1.8.5 2l3.8 7.1c.2.4 0 2.5-.3 3l-4.3 8.1c-.1.3-.4.5-.8.6l-3.2 2.8c-.5.4-1.1.6-1.8.6-.3 0-.7-.1-1-.2l-.5-.3c-.3-.5-.8-1-.1-1.6l2.9-2.5c.5-.4.9-.9 1-1.3.2-.6.4-1.6.7-2.4.3-1.1-.1-2.1-1-2.8l-1.6-1.2-3.7 6.3-.6 1c-.4.1-.7.1-1 .1-1.8 0-1.7-1.6-1.1-3.4L117 272v-.5l-4.2-35.3c-1.3-3.3-4-7.6-4-7.8 0 0-12.2-18.7-10.6-19.3l20.5-8.1c-.1 0-.1 0 0 0m0-1c-.2 0-.3 0-.5.1l-20.3 8c-.3.1-.6.4-.7.8-.2.6-.5 1.6 5.3 11.1 2.7 4.4 5.5 8.7 5.6 8.9 0 .1.1.2.2.3 1.7 3 3 5.4 3.8 7.2l4.1 35.2v.2l-1.6 11.6c-.5 1.7-.5 2.9.1 3.7.3.4.9.9 2 .9.4 0 .8 0 1.2-.1l.4-.1.2-.4.6-1 3.1-5.3.7.5c.4.3.9.9.7 1.7l-.7 2.4c-.1.3-.3.5-.6.8l-2.9 2.5c-1.3 1.2-.5 2.4-.2 2.8l.1.1.2.2.3.1.5.3c.4.2.9.3 1.4.3.9 0 1.8-.3 2.4-.9l3.1-2.7c.5-.2.9-.6 1.1-1l4.3-8.1c.4-.7.6-3.1.3-3.8l-3.8-7.1c-.1-.3-.4-1.3-.4-1.6l2.8-34v-.2l-1.1-5.7v-.2c0-.1-2.1-6.9-4.4-13.6-5.2-13.9-6.4-13.9-7.3-13.9"/>
  <path fill="#FFF" d="M130 208.2l-24.1 18.1-3.1-10.8L106 242c.4 4.5 16.3 86.8 16.3 86.8L16.1 326s7.8-81.9 8.3-86.1l4.4-24.7-3.7 10.2-21.5-16.5s-2.3 3.3 7.3-13.7 30.8-23 30.8-23l25.6 3.4 24.4-1.6s22.6 4.7 32.2 21.7c9.5 17 6.1 12.5 6.1 12.5"/>
  <path fill="none" stroke="#00A78E" stroke-width="2.562" stroke-miterlimit="10" d="M130 208.2l-24.1 18.1-3.1-10.8L106 242c.4 4.5 16.3 86.8 16.3 86.8L16.1 326s7.8-81.9 8.3-86.1l4.4-24.7-3.7 10.2-21.5-16.5s-2.3 3.3 7.3-13.7 30.8-23 30.8-23l25.6 3.4 24.4-1.6s22.6 4.7 32.2 21.7c9.5 17 6.1 12.5 6.1 12.5"/>
  <path fill="#FFF" d="M59.7 376.5s-1.3-12.3-22.2-11.2c-20.8 1.1-22.4 9.3-23.2 11.4m100.2-.2s-1.3-12.3-22.2-11.2c-20.8 1.1-22.4 9.3-23.2 11.4m182.7-1.2s-1.4-13.1-23.6-12c-22.1 1.2-23.8 9.8-24.7 12.1m109.4-.1s-1.4-13.1-23.6-12c-22.1 1.2-23.8 9.8-24.7 12.1"/>
  <path fill="#00A78E" d="M309.1 65.7s5.8-18.9 4.4-26.8c-1.4-7.9-5.8-13.7-21.2-26.9-10.1-8.6-20.1-1.3-22.2.6-3.3 2.9-13.2-7.3-16.9-11.3-3.7-4.1-16.7 9.5-15.1 12.8-7.2-4-12.6-3.5-12.6-3.5S196.6 6.7 209 69.3c1.1 5.5 2.4 11.8 2.4 11.8 5.6.5 1-1.9 1.1-24.7.2-31.5 34.4-24.3 47-24.9 15.3-.8 40.4.6 44.2 17.7 3.8 17.1.4 33.4.4 33.4l4 3.9 1-20.8z"/>
  <path fill="none" stroke="#FFF" stroke-miterlimit="10" d="M309.1 65.7s5.8-18.9 4.4-26.8c-1.4-7.9-5.8-13.7-21.2-26.9-10.1-8.6-20.1-1.3-22.2.6-3.3 2.9-13.2-7.3-16.9-11.3-3.7-4.1-16.7 9.5-15.1 12.8-7.2-4-12.6-3.5-12.6-3.5S196.6 6.7 209 69.3c1.1 5.5 2.4 11.8 2.4 11.8 5.6.5 1-1.9 1.1-24.7.2-31.5 34.4-24.3 47-24.9 15.3-.8 40.4.6 44.2 17.7 3.8 17.1.4 33.4.4 33.4l4 3.9 1-20.8zm-201.8 55.4s-5 6.7-11.2 12.8c-6.2 6.2 16.8 19.2 16.8 19.2s-13.2-14.5-5.6-32z"/>
  <path fill="#00A78E" d="M127.3 29.6c0 16.4-12.9 29.8-29.2 30.5-17.4.8-31.8-13.6-31.9-31C66.1 12.5 79.8.8 96.5.8c16.9 0 30.8 11.9 30.8 28.8"/>
  <path fill="none" stroke="#FFF" stroke-miterlimit="10" d="M127.3 29.6c0 16.4-12.9 29.8-29.2 30.5-17.4.8-31.8-13.6-31.9-31C66.1 12.5 79.8.8 96.5.8c16.9 0 30.8 11.9 30.8 28.8z"/>
  <path fill="#FFF" d="M10.8 79.3C15.4 29.4 33.4 25 46.4 24.4c13-.6 46.5-2.7 61.8 13.6 11.5 12.3 11.2 14.8 6.4 51.9-2.6 19.7.5 26.9-19.3 47.4-19.5 20.3-18.6 17.6-40 17.6-5.1 0-14.6-6.2-27.7-18.3-20-18.7-16.3-36.6-16.8-42.8"/>
  <path fill="#00A78E" d="M47.9 92.1c0 3.2-2.8 5.7-6.2 5.7-3.4 0-6.2-2.6-6.2-5.7s2.8-5.7 6.2-5.7c3.4 0 6.2 2.5 6.2 5.7"/>
  <path fill="#00A78E" d="M52.6 92.3s-.5-.4-1.3-1-2-1.4-3.4-2.1c-.7-.4-1.5-.7-2.3-1-.8-.3-1.7-.5-2.7-.6-.9-.1-1.9-.1-2.8 0-1 0-1.9.4-2.8.7-.9.4-1.9.8-2.7 1.4-.9.5-1.7 1.2-2.5 1.9-.8.6-1.7 1.6-2.6 2.1-.5.3-1 .5-1.4.6-.5.1-.9.2-1.4.2-1.7.2-3.2-.3-4.1-.8-.9-.5-1.3-1.1-1.3-1.1s.5.3 1.4.4c.9.1 2.2 0 3.6-.5.4-.1.7-.3 1.1-.5.4-.2.7-.4 1.1-.7.7-.5 1.2-1.3 2.1-2.2.8-.8 1.7-1.8 2.7-2.4 1-.8 2.1-1.3 3.2-1.8 1.1-.3 2.3-.7 3.5-.7 1.2-.1 2.3.1 3.4.3.5.2 1.1.3 1.5.5.5.2 1 .5 1.4.7.9.5 1.7 1.1 2.4 1.7.7.6 1.3 1.2 1.8 1.8.5.6.9 1.1 1.2 1.6.6.9.9 1.5.9 1.5"/>
  <path fill="#00A78E" d="M39.5 90c0 1.2-.6 2.1-1.3 2.1-.7 0-1.3-.9-1.3-2.1 0-1.2.6-2.1 1.3-2.1.7 0 1.3.9 1.3 2.1m15.8-18.9s3.5 3.7-5.9 4.7c-9.4 1.1-17.2-6.5-21.5-1-4.3 5.5-11.7 7.6-5.6 2.2 6.1-5.4 4.8-8.6 14.4-8 9.7.5 18 .4 18.6 2.1M71 73.4s-2.8 4.5 6.6 3.2C87 75.3 93.4 66 98.5 70.3c5.1 4.3 12.8 4.5 5.9.7-6.9-3.7-6.2-7.2-15.5-4.3-9.4 3-17.5 4.9-17.9 6.7"/>
  <path fill="#FFF" d="M63.6 101.9s3.3 9.9 6.2 13.1c10.7 11.6-18.6 9.8-11.2 5.6"/>
  <path fill="#00A78E" d="M63.6 101.9s.3.5.8 1.5c.5.9 1.2 2.3 2 3.9.4.8.9 1.7 1.4 2.6.5.9 1 1.9 1.6 2.7.3.4.6.9.9 1.3l.2.3.3.3c.2.2.4.5.6.7.8 1 1.6 2.2 1.7 3.8.1.8-.1 1.7-.6 2.4-.4.7-1 1.2-1.6 1.6-1.2.7-2.5 1-3.6 1.3-2.4.4-4.6.2-6.5-.1-.9-.2-1.8-.5-2.5-.8-.4-.2-.7-.4-.9-.7-.3-.3-.4-.7-.2-1 .3-.6.7-.7 1-.9.3-.1.4-.2.4-.2l-.3.3c-.2.2-.6.5-.7.9-.1.4.4.7 1.1.9.7.2 1.5.3 2.3.4.9.1 1.8.1 2.9 0 1-.1 2.1-.2 3.1-.5 1-.2 2.1-.6 2.9-1.2.8-.6 1.3-1.3 1.2-2.1-.1-.9-.7-1.8-1.3-2.7-.2-.2-.3-.4-.5-.6l-.3-.3-.3-.4c-.2-.3-.4-.5-.6-.8-.2-.3-.4-.5-.5-.8-.6-1-1.1-2.1-1.5-3-.4-1-.8-1.9-1.1-2.8-1-3.5-1.4-6-1.4-6M48.8 132s19.3 9.4 30.5-5.8c-8.1 26-32.8 3.9-30.5 5.8m30.6-40.4c0 3.2 2.8 5.7 6.2 5.7 3.4 0 6.2-2.6 6.2-5.7s-2.8-5.7-6.2-5.7c-3.4 0-6.2 2.5-6.2 5.7"/>
  <path fill="#00A78E" d="M74.1 91.7s.5-.4 1.3-1 2-1.4 3.5-2.1c.7-.4 1.5-.7 2.4-1 .9-.3 1.7-.5 2.7-.6.9-.1 1.9-.1 2.8 0 1 0 1.9.4 2.9.7.9.4 1.9.8 2.7 1.4.9.5 1.7 1.2 2.5 1.9.8.6 1.7 1.6 2.7 2.1.5.3 1 .5 1.4.6.5.1.9.2 1.4.2 1.8.2 3.2-.3 4.1-.8.9-.5 1.3-1.1 1.3-1.1s-.5.3-1.4.4c-.9.1-2.2 0-3.7-.5-.4-.1-.7-.3-1.1-.5-.4-.2-.7-.4-1.1-.7-.7-.5-1.2-1.3-2.1-2.2-.8-.8-1.7-1.8-2.7-2.4-1-.8-2.1-1.3-3.2-1.8-1.2-.3-2.3-.7-3.5-.7-1.2-.1-2.3.1-3.4.3-.5.2-1.1.3-1.6.5s-1 .5-1.4.7c-.9.5-1.7 1.1-2.4 1.7-.7.6-1.3 1.2-1.8 1.8-.5.6-.9 1.1-1.2 1.6-.8.9-1.1 1.5-1.1 1.5m7.3-1.8c0 1.2.6 2.1 1.3 2.1.7 0 1.3-.9 1.3-2.1 0-1.2-.6-2.1-1.3-2.1-.7.1-1.3 1-1.3 2.1m5.3-49.4s21 17.4 23.3 31.5c2.3 14.1-.2 40.9-.2 40.9s8.4-24.8 9.7-36.1c.9-7.6 1.1-18.2.4-28.2-.7-9.9-12.8-21.2-22.7-20.4h-.4c-14.9 1.3-10.1 12.3-10.1 12.3"/>
  <path fill="none" stroke="#FFF" stroke-miterlimit="10" d="M86.7 40.5s21 17.4 23.3 31.5c2.3 14.1-.2 40.9-.2 40.9s8.4-24.8 9.7-36.1c.9-7.6 1.1-18.2.4-28.2-.7-9.9-12.8-21.2-22.7-20.4h-.4c-14.9 1.3-10.1 12.3-10.1 12.3z"/>
  <path fill="#00A78E" d="M8.9 76.8s.6-44.1 29.4-51.2c28.8-7.1 58.5 2.6 58.5 2.6s-22.7 39-87.9 48.6"/>
  <path fill="none" stroke="#FFF" stroke-miterlimit="10" d="M8.9 76.8s.6-44.1 29.4-51.2c28.8-7.1 58.5 2.6 58.5 2.6s-22.7 39-87.9 48.6z"/>
  <path fill="#FFF" d="M45.8 92c0 .9-.5 1.7-1.2 1.7-.6 0-1.2-.8-1.2-1.7 0-.9.5-1.7 1.2-1.7.6 0 1.2.8 1.2 1.7M90 92c0 .9-.5 1.7-1.2 1.7-.6 0-1.2-.8-1.2-1.7 0-.9.5-1.7 1.2-1.7s1.2.8 1.2 1.7m20.3-1.5s1.6-14.3 6-10.3c3.7 3.3 5.4 18.7 3.2 29.4-1 4.8-6.7 10.2-9.1 7.8-2.4-2.3-.1-26.9-.1-26.9m-95.7 1.2s-2.1-14.3-6.8-10.2c-5 4.3-4.5 22.7-2.8 29.4 1.2 4.8 7.5 10 10.1 7.6 2.5-2.4-.5-26.8-.5-26.8"/>
</svg>