<svg xmlns="http://www.w3.org/2000/svg" width="1291.5" height="507.7" viewBox="0 0 1291.5 507.7">
  <path fill="#FFF" d="M1263.7 98.3s1.7-15 6.3-10.8c3.8 3.5 5.7 19.6 3.3 30.8-1 5-7 10.7-9.5 8.2s-.1-28.2-.1-28.2m-100.3-2.6s-2.2-15-7.2-10.7c-5.2 4.5-4.7 23.8-2.9 30.9 1.2 5 7.9 10.5 10.5 7.9 2.8-2.5-.4-28.1-.4-28.1"/>
  <path fill="#FFF" d="M1161.1 74.5c.1 5.3-3.4 47.6 11.3 66.1 8.4 10.5 20.2 20.7 26.9 22.3 11.1 2.6 18.3 4.6 28.1 2.5 9.8-2.1 24.2-12.4 33.1-32.1 4.2-9.4 15.7-83.2-5.5-104.1-13.9-13.7-44.5-11.9-56.3-11.4-11.9.5-38.1 4.7-37.6 56.7m47.4 433s-1.9-14.4-31.5-13.2c-29.6 1.3-31.9 10.8-33 13.4m140.3-.2s-1.9-14.4-31.5-13.2c-29.6 1.3-31.9 10.8-33 13.4"/>
  <path fill="#FFF" d="M1176.5 507.6l-5.6-159.5h83.1l-1.9 159.5h-33.9V378.3c0-3.4-1.2-6.2-5-6.2s-5 2.8-5 6.2v129.3h-31.7z"/>
  <path fill="#00A78E" d="M1234 92c0 2.9 2.4 5.2 5.3 5.2s5.3-2.3 5.3-5.2c0-2.9-2.4-5.2-5.3-5.2-3 0-5.3 2.3-5.3 5.2"/>
  <path fill="#00A78E" d="M1255 93.3c-.1 0-7.2-6.8-15.7-6.9-4.4 0-9.1 1.9-13.2 7.4l1.3 1.5c3.8-5.1 8-6.7 12-6.7 3.9 0 7.6 1.6 10.3 3.2 1.4.8 2.5 1.6 3.2 2.2.4.3.7.6.9.7l.3.3.9-1.7z"/>
  <path fill="#FFF" d="M1237.9 91.9c0 1-.5 1.8-1.2 1.8s-1.2-.8-1.2-1.8.5-1.8 1.2-1.8c.6 0 1.2.8 1.2 1.8"/>
  <path fill="#00A78E" d="M1198.4 92c0 2.9-2.4 5.2-5.3 5.2s-5.3-2.3-5.3-5.2c0-2.9 2.4-5.2 5.3-5.2s5.3 2.3 5.3 5.2"/>
  <path fill="#00A78E" d="M1178.4 95.1l.3-.3c1.4-1.2 7.6-6.2 14.4-6.2 4 0 8.2 1.6 12 6.7l1.3-1.5c-4.1-5.5-8.9-7.4-13.2-7.4-8.5 0-15.6 6.8-15.7 6.9l.9 1.8z"/>
  <path fill="#FFF" d="M1191.1 91.9c0 1-.5 1.8-1.2 1.8s-1.2-.8-1.2-1.8.6-1.8 1.2-1.8 1.2.8 1.2 1.8"/>
  <path fill="#00A78E" d="M1201.9 69s6.7 5.9 1.1 7c-5.6 1.1-14.8-.9-18.9 0-4.1.9-12.1 4-12.1 4l-.5-3.4c-.1.1 10.9-10.3 30.4-7.6m28-5.4s-6.5 5.7-.8 7c5.7 1.3 14.8-.4 18.9.7 4.1 1.1 12.3 4.5 12.3 4.5l.4-3.4s-11.4-10.8-30.8-8.8m-20.1 56s.4.1 1.2.1c.7.1 1.8.2 3 .3 1.2.1 2.7.2 4 0 .7-.1 1.3-.3 1.5-.6.1-.1.1-.1.1-.2v-.1s-.1.2 0 .1v-.1l.1-.3c.1-.4.1-.7.2-1 .1-.8.1-1.6.1-2.3 0-.8 0-1.6-.1-2.4-.1-1.6-.1-3-.2-4.2-.1-1.3-.1-2.3-.1-3.1v-1.2s.2.4.4 1.1c.3.7.6 1.7.9 2.9.3 1.2.7 2.7.9 4.3.1.8.2 1.6.3 2.5.1.9 0 1.7 0 2.6-.1.5-.1 1.1-.3 1.4l-.1.3v.2l-.1.2c-.1.3-.3.6-.6.8-.5.5-1 .7-1.5.9-.5.1-1 .2-1.4.2-.9 0-1.7-.1-2.5-.2-.7-.1-1.4-.3-2-.6-1.2-.4-2.2-.9-2.9-1.2-.5-.1-.9-.4-.9-.4m-10.4 9.3s18.6 7.7 33.9 1.2c-2.2 4.5-22.5 15.6-33.9-1.2"/>
  <path fill="#00A78E" d="M1158.9 83.8s-9.8-25.3-7.8-35.4c2-10.1 7-19.2 24.8-35.4 11.7-10.6 32.3-12.4 34.6-9.8 3.5 4 9.5 5.7 13.8.6 4.3-5.1 19.7-1.8 17.8 2.3 8.2-4.7 13.9 4 13.9 4s30.9 3.9 14 84c-1.5 7-3.2 15-3.2 15-6.3.4-.7-9.3.3-38.8 1.3-40.7-36.5-31.8-50.4-33.4-16.9-1.9-45.3-4.1-50.4 17.7-5.1 21.8-2.8 51.2-2.8 51.2l-4.7 4.8V83.8z"/>
  <path fill="none" stroke="#FFF" stroke-width="2.383" stroke-miterlimit="10" d="M1158.9 83.8s-9.8-25.3-7.8-35.4c2-10.1 7-19.2 24.8-35.4 11.7-10.6 32.3-12.4 34.6-9.8 3.5 4 9.5 5.7 13.8.6 4.3-5.1 19.7-1.8 17.8 2.3 8.2-4.7 13.9 4 13.9 4s30.9 3.9 14 84c-1.5 7-3.2 15-3.2 15-6.3.4-.7-9.3.3-38.8 1.3-40.7-36.5-31.8-50.4-33.4-16.9-1.9-45.3-4.1-50.4 17.7-5.1 21.8-2.8 51.2-2.8 51.2l-4.7 4.8V83.8z"/>
  <path fill="#FFF" d="M1203.2 166.5s.4 14.3-6.4 18.3c-6.1 3.6-8.8 4.3-8.8 4.3s29.8 11.9 53.5 2.3c-12.8-3.5-12-7.9-12-7.9l-2.3-14.9-24-2.1z"/>
  <path fill="none" stroke="#00A78E" stroke-width="2.862" stroke-miterlimit="10" d="M1203.2 166.5s.4 14.3-6.4 18.3c-6.1 3.6-8.8 4.3-8.8 4.3s29.8 11.9 53.5 2.3c-12.8-3.5-12-7.9-12-7.9l-2.3-14.9-24-2.1z"/>
  <path fill="#FFF" d="M1286.6 252.7l-29.8 6.9-3.3-14.1 3.4 34.5c.4 5.9.7 24.9-.7 42.1l-2.9 22.9h-81.4l-3-26.9c-.9-14.2.1-35.3.6-40.7l4.7-32.2-3.9 13.2-28.5-6.7s3-10.4 13.3-32.6c10.3-22.1 33-29.9 33-29.9l27.4 4.4 26.1-2.1s24.2 6.1 34.5 28.2c10.2 22.1 10.2 32.8 10.2 32.8"/>
  <path fill="none" stroke="#00A78E" stroke-width="2.383" stroke-miterlimit="10" d="M1286.6 252.7l-29.8 6.9-3.3-14.1 3.4 34.5c.4 5.9.7 24.9-.7 42.1l-2.9 22.9h-81.4l-3-26.9c-.9-14.2.1-35.3.6-40.7l4.7-32.2-3.9 13.2-28.5-6.7s3-10.4 13.3-32.6c10.3-22.1 33-29.9 33-29.9l27.4 4.4 26.1-2.1s24.2 6.1 34.5 28.2c10.2 22.1 10.2 32.8 10.2 32.8"/>
  <path fill="#FFF" d="M1267.1 373.8c-.9 0-1.8-.3-2.4-.9l-.7-.7-.2-.5c-.2-.6-.7-2.1.8-3.2l3.6-2.4c.5-.3.8-.6.9-.9l1.3-2.9c.4-.9.3-1.9-.3-2.7l-.5-.7-5.6 7.2h-.6c-1.5 0-2.5-.5-3.1-1.4-.7-1.2-.6-2.8.5-5.1l4.4-14.3c0-.1.1-.2.1-.4l3.8-46c-.4-2.6-1.1-6-2.3-10.3 0-.2-.1-.3-.1-.4-3.7-11.9-7.8-26.4-6.7-28.4.2-.4.5-.6.9-.7l23.2-4.6h.2c1.4 0 2.5 0 4.4 19.7.9 9.2 1.5 18.6 1.5 18.7v.1l-.2 7.7-10.8 42.6c0 .2.1 1.8.1 2.2l2.4 10.1c.1 1-.6 3.8-1.2 4.6l-6.3 9.1c-.3.5-.8.8-1.4 1l-3.8 2.6c-.5.7-1.2.9-1.9.9"/>
  <path fill="#00A78E" d="M1284.4 255.9c2.3 0 4.8 37.3 4.8 37.3l-.2 7.5-10.7 42.5c-.1.3 0 2.4.1 2.7l2.4 10.1c.1.6-.6 3.2-1 3.7l-6.3 9.1c-.2.3-.6.5-.9.6l-4 2.7c-.4.3-.9.4-1.3.4-.6 0-1.2-.2-1.6-.6l-.5-.5c-.2-.7-.6-1.4.3-2l3.6-2.4c.6-.4 1.1-.8 1.3-1.4.3-.8.8-1.9 1.3-2.9.6-1.3.4-2.7-.4-3.9l-1.4-2-5.3 6.9-.9 1.1h-.1c-3 0-2.5-2.4-1.4-4.8l4.4-14.4c.1-.2.1-.4.1-.6l3.8-46.1c-.6-4.6-2.4-10.8-2.4-11 0 0-8.5-27.2-6.7-27.5l23-4.5c-.1 0-.1 0 0 0m0-2.4h-.2l-.3.1-23.1 4.5c-.7.1-1.3.6-1.7 1.2-.6 1-1.7 2.8 6.6 29.3 0 .1.1.2.1.4 1.1 4.2 1.9 7.5 2.2 10l-3.8 45.8v.1l-4.3 14.2c-.8 1.7-1.7 4.2-.4 6.1.5.9 1.7 1.9 4 1.9h.7l-.2.1c-1.5 1.1-2 2.6-1.3 4.6l.1.2.2.6.4.4.5.5c.8.8 2 1.3 3.3 1.3.9 0 1.9-.3 2.6-.8l3.7-2.5c.8-.3 1.4-.8 1.9-1.4l6.3-9.1c.7-1 1.5-4.2 1.4-5.4v-.2l-2.3-10c0-.4-.1-1.5-.1-1.9l10.7-42.3.1-.3v-.3l.2-7.5v-.2c0-.1-.6-9.5-1.5-18.7-.5-5.5-1-9.8-1.5-13-1-4.7-1.7-7.7-4.3-7.7m-19.2 113.1l.2-.2.9-1.1 3.2-4.2c0 .2 0 .4-.1.7l-1.3 2.9c0 .1-.1.2-.3.3h-.2l-2.4 1.6z"/>
  <path fill="#FFF" d="M1026.2 277.9l25.6 5.7c.6.3 3.6.9 4.3.8l11.5-2.4c.4-.1 2.7-.2 3.1-.2l48.7 9h8.6s40.4-29.1 39.8-31.3l-25.6-5.4c-.5-1.7-9.8 10.1-9.8 10.1-.2 0-8.4 8.3-11.5 9.1l-52.6-2.4c-.3 0-.5 0-.7-.1l-16.5-3.8c-2.8-1-5.6-1.4-5.4 1.4l1.3.8 8 4.8-2.2 1.4c-1.3.8-2.9 1-4.4.5-1.1-.4-17.5-.8-18.4-1.1l-3.8 3.1z"/>
  <path fill="none" stroke="#00A78E" stroke-width="2.383" stroke-miterlimit="10" d="M1026.2 277.9l25.6 5.7c.6.3 3.6.9 4.3.8l11.5-2.4c.4-.1 2.7-.2 3.1-.2l48.7 9h8.6s40.4-29.1 39.8-31.3l-25.6-5.4c-.5-1.7-9.8 10.1-9.8 10.1-.2 0-8.4 8.3-11.5 9.1l-52.6-2.4c-.3 0-.5 0-.7-.1l-16.5-3.8c-2.8-1-5.6-1.4-5.4 1.4l1.3.8 8 4.8-2.2 1.4c-1.3.8-2.9 1-4.4.5-1.1-.4-17.5-.8-18.4-1.1l-3.8 3.1z"/>
  <path fill="#FFF" d="M0 212.6c0 78.3 62.2 141.7 139 141.7s139-63.5 139-141.7S215.7 70.9 139 70.9 0 134.4 0 212.6"/>
  <path fill="#FFF" d="M66.1 176.2h138.8v100.6H66.1z"/>
  <path fill="none" stroke="#00A78E" stroke-width="5.739" stroke-miterlimit="10" d="M66.1 176.2h138.8v100.6H66.1z"/>
  <path fill="#00A78E" d="M93.1 169.3c-2.3 0-4.2-1.9-4.2-4.2v-28.9c0-2.3 1.9-4.2 4.2-4.2h5.7c2.3 0 4.2 1.9 4.2 4.2v28.9c0 2.3-1.9 4.2-4.2 4.2h-5.7z"/>
  <path fill="#FFF" d="M98.8 134.9c.7 0 1.3.6 1.3 1.3v28.9c0 .7-.6 1.3-1.3 1.3h-5.7c-.7 0-1.3-.6-1.3-1.3v-28.9c0-.7.6-1.3 1.3-1.3h5.7m0-5.7h-5.7c-3.9 0-7 3.2-7 7v28.9c0 3.9 3.2 7 7 7h5.7c3.9 0 7-3.2 7-7v-28.9c.1-3.9-3.1-7-7-7"/>
  <path fill="#00A78E" d="M170.1 169.3c-2.3 0-4.2-1.9-4.2-4.2v-28.9c0-2.3 1.9-4.2 4.2-4.2h5.7c2.3 0 4.2 1.9 4.2 4.2v28.9c0 2.3-1.9 4.2-4.2 4.2h-5.7z"/>
  <path fill="#FFF" d="M175.8 134.9c.7 0 1.3.6 1.3 1.3v28.9c0 .7-.6 1.3-1.3 1.3h-5.7c-.7 0-1.3-.6-1.3-1.3v-28.9c0-.7.6-1.3 1.3-1.3h5.7m0-5.7h-5.7c-3.9 0-7 3.2-7 7v28.9c0 3.9 3.2 7 7 7h5.7c3.9 0 7-3.2 7-7v-28.9c.1-3.9-3.1-7-7-7"/>
  <path fill="#00A78E" d="M77.3 288.4c-10.4 0-18.8-8.4-18.8-18.8V158.9c0-10.4 8.4-18.8 18.8-18.8h12.4v25c0 1.9 1.5 3.4 3.4 3.4h5.7c1.9 0 3.4-1.5 3.4-3.4v-25h64.4v25c0 1.9 1.5 3.4 3.4 3.4h5.7c1.9 0 3.4-1.5 3.4-3.4v-25h19.5c10.4 0 18.8 8.4 18.8 18.8v110.7c0 10.4-8.4 18.8-18.8 18.8H77.3zM90.1 188c-7.2 0-13.1 5.9-13.1 13.1v54.8c0 7.2 5.9 13.1 13.1 13.1h95.8c7.2 0 13.1-5.9 13.1-13.1v-54.8c0-7.2-5.9-13.1-13.1-13.1H90.1z"/>
  <path fill="#FFF" d="M198.7 143c8.8 0 15.9 7.2 15.9 15.9v110.7c0 8.8-7.2 15.9-15.9 15.9H77.3c-8.8 0-15.9-7.2-15.9-15.9V158.9c0-8.8 7.2-15.9 15.9-15.9h9.5v22.2c0 3.5 2.8 6.3 6.3 6.3h5.7c3.5 0 6.3-2.8 6.3-6.3V143h58.7v22.2c0 3.5 2.8 6.3 6.3 6.3h5.7c3.5 0 6.3-2.8 6.3-6.3V143h16.6M90.1 271.9h95.8c8.8 0 15.9-7.2 15.9-15.9v-54.8c0-8.8-7.2-15.9-15.9-15.9H90.1c-8.8 0-15.9 7.2-15.9 15.9V256c-.1 8.7 7.1 15.9 15.9 15.9m108.6-134.7h-22.3v27.9c0 .3-.2.5-.5.5h-5.7c-.3 0-.5-.2-.5-.5v-27.8H99.6v27.9c0 .3-.2.5-.5.5h-5.7c-.3 0-.5-.2-.5-.5v-27.9H77.7c-12 0-21.7 9.7-21.7 21.7v110.7c0 12 9.7 21.7 21.7 21.7h121.4c12 0 21.7-9.7 21.7-21.7V158.9c-.4-12-10.2-21.7-22.1-21.7M90.1 266.1c-5.6 0-10.2-4.6-10.2-10.2v-54.8c0-5.6 4.6-10.2 10.2-10.2h95.8c5.6 0 10.2 4.6 10.2 10.2v54.8c0 5.6-4.6 10.2-10.2 10.2H90.1z"/>
  <path fill="#00A78E" d="M92.9 206.8h8.9v8.9h-8.9z"/>
  <path fill="#D20962" d="M106 206.8h8.9v8.9H106z"/>
  <path fill="#00A78E" d="M119.1 206.8h8.9v8.9h-8.9zm13.1 0h8.9v8.9h-8.9zm13.1 0h8.9v8.9h-8.9zm13.1 0h8.9v8.9h-8.9zm13.1 0h8.9v8.9h-8.9zm-78.6 11.6h8.9v8.9h-8.9zm13.1 0h8.9v8.9H106zm13.1 0h8.9v8.9h-8.9zm13.1 0h8.9v8.9h-8.9zm13.1 0h8.9v8.9h-8.9zm13.1 0h8.9v8.9h-8.9zm13.1 0h8.9v8.9h-8.9zm-78.6 11.5h8.9v8.9h-8.9zm13.1 0h8.9v8.9H106zm13.1 0h8.9v8.9h-8.9zm13.1 0h8.9v8.9h-8.9zm13.1 0h8.9v8.9h-8.9zm13.1 0h8.9v8.9h-8.9zm13.1 0h8.9v8.9h-8.9zm-78.6 11.6h8.9v8.9h-8.9zm13.1 0h8.9v8.9H106zm13.1 0h8.9v8.9h-8.9zm13.1 0h8.9v8.9h-8.9zm13.1 0h8.9v8.9h-8.9zm13.1 0h8.9v8.9h-8.9zm13.1 0h8.9v8.9h-8.9zm-78.6 11.6h8.9v8.9h-8.9zm13.1 0h8.9v8.9H106z"/>
  <path fill="#FFF" d="M701.3 210.2c0 78.3 62.2 141.7 139 141.7s139-63.5 139-141.7S917 68.5 840.3 68.5s-139 63.4-139 141.7"/>
  <path fill="#00A78E" d="M861.2 277.4v-10c-3-.3-5.4-2.9-5.4-6s2.3-5.6 5.4-6v-7.1h34c.4-4.7 4.2-8.4 9-8.5V124.4H768.5v166.4h84.3c-.5-1.1-.7-2.4-.7-3.6 0-5.2 4-9.5 9.1-9.8"/>
  <path fill="none" stroke="#00A78E" stroke-miterlimit="10" d="M861.2 277.4v-10c-3-.3-5.4-2.9-5.4-6s2.3-5.6 5.4-6v-7.1h34c.4-4.7 4.2-8.4 9-8.5V124.4H768.5v166.4h84.3c-.5-1.1-.7-2.4-.7-3.6 0-5.2 4-9.5 9.1-9.8z"/>
  <path fill="#00A78E" d="M905 253.2v1.7h-34.4v6.7c-.5 0-5.2.6-5.3 5.2-.1 3.7 3.4 4.7 5.3 5v11.7c-1.4 0-3.5.6-3.5.6s-2.8.6-4.9 4.1c-2.1 3.4 0 7.9 0 7.9h49.9v-49.5c0-.1-7.1 1.1-7.1 6.6"/>
  <path fill="#5E9732" d="M788.2 276.3c.7.6 1.5 1.1 2.6 1.7 1 .6 2.2.9 3.6.9.5 0 1-.1 1.6-.2.5-.1 1-.3 1.3-.6.4-.3.7-.6.9-1.1.2-.5.4-1 .4-1.6 0-.6-.1-1.2-.3-1.7-.2-.5-.5-.9-.9-1.2-.4-.3-.9-.6-1.4-.9-.5-.2-1.1-.5-1.8-.6-1-.3-1.9-.6-2.8-1-.9-.4-1.7-.9-2.3-1.5-.7-.6-1.2-1.3-1.6-2.2-.4-.9-.6-1.9-.6-3.1 0-1.9.5-3.4 1.6-4.6 1.1-1.2 2.4-2.1 4.1-2.5v-4h2.4v3.5h1.7v-3.5h2.4v3.9c.8.2 1.5.4 2.1.7.6.3 1 .5 1.3.7.7.5 1 1 1 1.8 0 .3-.1.8-.4 1.3-.3.6-.6 1.1-1.1 1.6-.6-.5-1.4-1-2.4-1.5s-2.1-.7-3.2-.7c-.5 0-.9 0-1.4.1-.5.1-.9.2-1.3.4s-.7.5-1 .9c-.3.4-.4.9-.4 1.5 0 .5.1 1 .3 1.4.2.4.5.7.9 1 .4.3.9.6 1.5.8.6.2 1.3.5 2.1.8 1 .3 1.9.7 2.7 1.1.8.4 1.6.9 2.2 1.6.6.6 1.1 1.3 1.5 2.2.4.8.6 1.8.6 2.9 0 1.9-.4 3.5-1.3 4.8-.9 1.3-2.1 2.3-3.6 2.9v4.3h-2.4v-3.7c-.3.1-.6.1-.9.1-.3 0-.6.1-.9.1v3.5h-2.4V283c-1.3-.1-2.3-.4-3.1-.7s-1.4-.6-1.8-.9c-.3-.2-.5-.5-.7-.8-.2-.3-.3-.6-.3-1s.2-1 .5-1.6c.3-.5.6-1.1 1-1.7m90.2 5.3c.7.6 1.5 1.1 2.6 1.7 1 .6 2.2.9 3.6.9.5 0 1-.1 1.6-.2.5-.1 1-.3 1.3-.6.4-.3.7-.6.9-1.1.2-.5.4-1 .4-1.6 0-.6-.1-1.2-.3-1.7-.2-.5-.5-.9-.9-1.2-.4-.3-.9-.6-1.4-.9-.5-.2-1.1-.5-1.8-.6-1-.3-1.9-.6-2.8-1-.9-.4-1.7-.9-2.3-1.5-.7-.6-1.2-1.3-1.6-2.2-.4-.9-.6-1.9-.6-3.1 0-1.9.5-3.4 1.6-4.6 1.1-1.2 2.4-2.1 4.1-2.5v-4h2.4v3.5h1.7v-3.5h2.4v3.9c.8.2 1.5.4 2.1.7.6.3 1 .5 1.3.7.7.5 1 1 1 1.8 0 .3-.1.8-.4 1.3-.3.6-.6 1.1-1.1 1.6-.6-.5-1.4-1-2.4-1.5s-2.1-.7-3.2-.7c-.5 0-.9 0-1.4.1-.5.1-.9.2-1.3.4s-.7.5-1 .9c-.3.4-.4.9-.4 1.5 0 .5.1 1 .3 1.4.2.4.5.7.9 1 .4.3.9.6 1.5.8.6.2 1.3.5 2.1.8 1 .3 1.9.7 2.7 1.1.8.4 1.6.9 2.2 1.6.6.6 1.1 1.3 1.5 2.2.4.8.6 1.8.6 2.9 0 1.9-.4 3.5-1.3 4.8-.9 1.3-2.1 2.3-3.6 2.9v4.3H887v-3.7c-.3.1-.6.1-.9.1-.3 0-.6.1-.9.1v3.5h-2.4v-3.6c-1.3-.1-2.3-.4-3.1-.7s-1.4-.6-1.8-.9c-.3-.2-.5-.5-.7-.8-.2-.3-.3-.6-.3-1s.2-1 .5-1.6c.2-.6.6-1.2 1-1.7m-49.1-5.3c.7.6 1.5 1.1 2.6 1.7 1 .6 2.2.9 3.6.9.5 0 1-.1 1.6-.2.5-.1 1-.3 1.3-.6.4-.3.7-.6.9-1.1.2-.5.4-1 .4-1.6 0-.6-.1-1.2-.3-1.7-.2-.5-.5-.9-.9-1.2-.4-.3-.9-.6-1.4-.9-.5-.2-1.1-.5-1.8-.6-1-.3-1.9-.6-2.8-1-.9-.4-1.7-.9-2.3-1.5-.7-.6-1.2-1.3-1.6-2.2-.4-.9-.6-1.9-.6-3.1 0-1.9.5-3.4 1.6-4.6 1.1-1.2 2.4-2.1 4.1-2.5v-4h2.4v3.5h1.7v-3.5h2.4v3.9c.8.2 1.5.4 2.1.7.6.3 1 .5 1.3.7.7.5 1 1 1 1.8 0 .3-.1.8-.4 1.3-.3.6-.6 1.1-1.1 1.6-.6-.5-1.4-1-2.4-1.5s-2.1-.7-3.2-.7c-.5 0-.9 0-1.4.1-.5.1-.9.2-1.3.4s-.7.5-1 .9c-.3.4-.4.9-.4 1.5 0 .5.1 1 .3 1.4.2.4.5.7.9 1 .4.3.9.6 1.5.8.6.2 1.3.5 2.1.8 1 .3 1.9.7 2.7 1.1.8.4 1.6.9 2.2 1.6.6.6 1.1 1.3 1.5 2.2.4.8.6 1.8.6 2.9 0 1.9-.4 3.5-1.3 4.8-.9 1.3-2.1 2.3-3.6 2.9v4.3h-2.4v-3.7c-.3.1-.6.1-.9.1-.3 0-.6.1-.9.1v3.5h-2.4V283c-1.3-.1-2.3-.4-3.1-.7s-1.4-.6-1.8-.9c-.3-.2-.5-.5-.7-.8-.2-.3-.3-.6-.3-1s.2-1 .5-1.6c.3-.5.6-1.1 1-1.7"/>
  <path fill="#FFF" d="M781.1 178.2h96.4v4h-96.4zm0 15.8h105.5v4H781.1zm0-7.9h110.4v4H781.1zm0 15.8h93.8v4h-93.8zm0 7.9h102.3v4H781.1zm0 7.9h110.4v4H781.1zm0 7.9h96.4v4h-96.4zm0 7.9h110.4v4H781.1zm0 7.9h105.5v4H781.1z"/>
  <path fill="#D20962" d="M854 161.1c0 4.7-3.8 8.5-8.5 8.5h-18.3c-4.7 0-8.5-3.8-8.5-8.5v-18.3c0-4.7 3.8-8.5 8.5-8.5h18.3c4.7 0 8.5 3.8 8.5 8.5v18.3z"/>
  <path fill="#00A78E" d="M848.1 151.1c0-1.4-1.1-2.5-2.5-2.5h-5.5s-.1 0-.1-.1V143c0-1.4-1.1-2.5-2.5-2.5h-2c-1.4 0-2.5 1.1-2.5 2.5v5.5s0 .1-.1.1h-5.5c-1.4 0-2.5 1.1-2.5 2.5v2c0 1.4 1.1 2.5 2.5 2.5h5.5s.1 0 .1.1v5.5c0 1.4 1.1 2.5 2.5 2.5h2c1.4 0 2.5-1.1 2.5-2.5v-5.5s0-.1.1-.1h5.5c1.4 0 2.5-1.1 2.5-2.5v-2z"/>
  <path fill="#FFF" d="M350.1 210.2c0 78.3 62.2 141.7 139 141.7s139-63.5 139-141.7-62.2-141.7-139-141.7-139 63.4-139 141.7"/>
  <path fill="none" stroke="#00A78E" stroke-width="6.051" stroke-linecap="round" stroke-miterlimit="10" d="M385.3 211.7v-.8"/>
  <path fill="none" stroke="#00A78E" stroke-width="6.051" stroke-linecap="round" stroke-miterlimit="10" stroke-dasharray="1.635,11.447" d="M385.3 199.5v-7.4"/>
  <path fill="none" stroke="#00A78E" stroke-width="6.051" stroke-linecap="round" stroke-miterlimit="10" d="M385.3 186.4v-.7h.8"/>
  <path fill="none" stroke="#00A78E" stroke-width="6.051" stroke-linecap="round" stroke-miterlimit="10" stroke-dasharray="1.526,10.685" d="M396.8 185.7h190"/>
  <path fill="none" stroke="#00A78E" stroke-width="6.051" stroke-linecap="round" stroke-miterlimit="10" d="M592.2 185.7h.7v.7"/>
  <path fill="none" stroke="#00A78E" stroke-width="6.051" stroke-linecap="round" stroke-miterlimit="10" stroke-dasharray="1.635,11.447" d="M592.9 197.9v7.3"/>
  <path fill="none" stroke="#00A78E" stroke-width="6.051" stroke-linecap="round" stroke-miterlimit="10" d="M592.9 210.9v.8"/>
  <path fill="none" stroke="#00A78E" stroke-width="5.142" stroke-linecap="round" stroke-miterlimit="10" stroke-dasharray="1.285,8.998" d="M489.1 167.7v18"/>
  <text transform="translate(408.35 157.03)">
    <tspan x="0" y="0" fill="#00A78E" font-family="'Foco'" font-weight="700" font-size="34.746">In net</tspan>
    <tspan x="87.2" y="0" fill="#00A78E" font-family="'Foco'" font-weight="700" font-size="34.746">w</tspan>
    <tspan x="111.9" y="0" fill="#00A78E" font-family="'Foco'" font-weight="700" font-size="34.746">ork</tspan>
  </text>
  <path d="M428.3 212.2c0 8.4-6.8 15.2-15.2 15.2s-15.2-6.8-15.2-15.2c0-8.4 6.8-15.2 15.2-15.2s15.2 6.8 15.2 15.2m-36 28l13.9 32.8c2.6 6.1 11.3 6.1 13.9 0l13.9-32.8c2.1-5-1.5-10.5-6.9-10.5h-27.7c-5.6 0-9.2 5.5-7.1 10.5m86.5-28c0 8.4-6.8 15.2-15.2 15.2s-15.2-6.8-15.2-15.2c0-8.4 6.8-15.2 15.2-15.2s15.2 6.8 15.2 15.2m-36.1 28l13.9 32.8c2.6 6.1 11.3 6.1 13.9 0l13.9-32.8c2.1-5-1.5-10.5-6.9-10.5h-27.7c-5.5 0-9.2 5.5-7.1 10.5m86.5-28c0 8.4-6.8 15.2-15.2 15.2-8.4 0-15.2-6.8-15.2-15.2 0-8.4 6.8-15.2 15.2-15.2 8.4 0 15.2 6.8 15.2 15.2m-36 28L507 273c2.6 6.1 11.3 6.1 13.9 0l13.9-32.8c2.1-5-1.5-10.5-6.9-10.5h-27.7c-5.5 0-9.1 5.5-7 10.5m86.5-28c0 8.4-6.8 15.2-15.2 15.2-8.4 0-15.2-6.8-15.2-15.2 0-8.4 6.8-15.2 15.2-15.2 8.4 0 15.2 6.8 15.2 15.2m-36.1 28l13.9 32.8c2.6 6.1 11.3 6.1 13.9 0l13.9-32.8c2.1-5-1.5-10.5-6.9-10.5h-27.7c-5.5 0-9.2 5.5-7.1 10.5" fill="#00A78E"/>
  <text transform="translate(51.5 43.85)">
    <tspan x="0" y="0" fill="#FFF" font-family="'Foco'" font-weight="400" font-size="40">P</tspan>
    <tspan x="20.6" y="0" fill="#FFF" font-family="'Foco'" font-weight="400" font-size="40">r</tspan>
    <tspan x="33.6" y="0" fill="#FFF" font-family="'Foco'" font-weight="400" font-size="40">emiums</tspan>
  </text>
  <text transform="translate(415.34 43.85)">
    <tspan x="0" y="0" fill="#FFF" font-family="'Foco'" font-weight="400" font-size="40">Net</tspan>
    <tspan x="60.6" y="0" fill="#FFF" font-family="'Foco'" font-weight="400" font-size="40">w</tspan>
    <tspan x="87.8" y="0" fill="#FFF" font-family="'Foco'" font-weight="400" font-size="40">ork</tspan>
  </text>
  <text transform="translate(745.74 43.85)">
    <tspan x="0" y="0" fill="#FFF" font-family="'Foco'" font-weight="400" font-size="40">Deductib</tspan>
    <tspan x="152.2" y="0" fill="#FFF" font-family="'Foco'" font-weight="400" font-size="40">l</tspan>
    <tspan x="161.4" y="0" fill="#FFF" font-family="'Foco'" font-weight="400" font-size="40">e</tspan>
  </text>
</svg>