<svg xmlns="http://www.w3.org/2000/svg" width="979.3" height="345.5" viewBox="0 0 979.3 345.5">
  <path fill="#FFF" d="M0 203.8c0 78.3 62.2 141.7 139 141.7S278 282 278 203.8 215.7 62.1 139 62.1 0 125.5 0 203.8"/>
  <path fill="#FFF" d="M66.1 167.3h138.8v100.6H66.1z"/>
  <path fill="none" stroke="#00A78E" stroke-width="5.739" stroke-miterlimit="10" d="M66.1 167.3h138.8v100.6H66.1z"/>
  <path fill="#00A78E" d="M93.1 160.5c-2.3 0-4.2-1.9-4.2-4.2v-28.9c0-2.3 1.9-4.2 4.2-4.2h5.7c2.3 0 4.2 1.9 4.2 4.2v28.9c0 2.3-1.9 4.2-4.2 4.2h-5.7z"/>
  <path fill="#FFF" d="M98.8 126.1c.7 0 1.3.6 1.3 1.3v28.9c0 .7-.6 1.3-1.3 1.3h-5.7c-.7 0-1.3-.6-1.3-1.3v-28.9c0-.7.6-1.3 1.3-1.3h5.7m0-5.8h-5.7c-3.9 0-7 3.2-7 7v28.9c0 3.9 3.2 7 7 7h5.7c3.9 0 7-3.2 7-7v-28.9c.1-3.8-3.1-7-7-7"/>
  <path fill="#00A78E" d="M170.1 160.5c-2.3 0-4.2-1.9-4.2-4.2v-28.9c0-2.3 1.9-4.2 4.2-4.2h5.7c2.3 0 4.2 1.9 4.2 4.2v28.9c0 2.3-1.9 4.2-4.2 4.2h-5.7z"/>
  <path fill="#FFF" d="M175.8 126.1c.7 0 1.3.6 1.3 1.3v28.9c0 .7-.6 1.3-1.3 1.3h-5.7c-.7 0-1.3-.6-1.3-1.3v-28.9c0-.7.6-1.3 1.3-1.3h5.7m0-5.8h-5.7c-3.9 0-7 3.2-7 7v28.9c0 3.9 3.2 7 7 7h5.7c3.9 0 7-3.2 7-7v-28.9c.1-3.8-3.1-7-7-7"/>
  <path fill="#00A78E" d="M77.3 279.6c-10.4 0-18.8-8.4-18.8-18.8V150.1c0-10.4 8.4-18.8 18.8-18.8h12.4v25c0 1.9 1.5 3.4 3.4 3.4h5.7c1.9 0 3.4-1.5 3.4-3.4v-25h64.4v25c0 1.9 1.5 3.4 3.4 3.4h5.7c1.9 0 3.4-1.5 3.4-3.4v-25h19.5c10.4 0 18.8 8.4 18.8 18.8v110.7c0 10.4-8.4 18.8-18.8 18.8H77.3zm12.8-100.4c-7.2 0-13.1 5.9-13.1 13.1v54.8c0 7.2 5.9 13.1 13.1 13.1h95.8c7.2 0 13.1-5.9 13.1-13.1v-54.8c0-7.2-5.9-13.1-13.1-13.1H90.1z"/>
  <path fill="#FFF" d="M198.7 134.1c8.8 0 16 7.2 16 15.9v110.7c0 8.8-7.2 15.9-16 15.9H77.3c-8.8 0-15.9-7.2-15.9-15.9V150.1c0-8.8 7.2-15.9 15.9-15.9h9.5v22.2c0 3.5 2.8 6.3 6.3 6.3h5.7c3.5 0 6.3-2.8 6.3-6.3v-22.2h58.7v22.2c0 3.5 2.8 6.3 6.3 6.3h5.7c3.5 0 6.3-2.8 6.3-6.3v-22.2h16.6M90.1 263h95.8c8.8 0 15.9-7.2 15.9-15.9v-54.8c0-8.8-7.2-15.9-15.9-15.9H90.1c-8.8 0-15.9 7.2-15.9 15.9v54.8c-.1 8.7 7.1 15.9 15.9 15.9m108.6-134.6h-22.3v27.9c0 .3-.2.5-.5.5h-5.7c-.3 0-.5-.2-.5-.5v-27.9H99.6v27.9c0 .3-.2.5-.5.5h-5.7c-.3 0-.5-.2-.5-.5v-27.9H77.7c-12 0-21.7 9.7-21.7 21.7v110.7c0 12 9.7 21.7 21.7 21.7h121.4c12 0 21.7-9.7 21.7-21.7V150.1c-.4-12-10.2-21.7-22.1-21.7M90.1 257.3c-5.6 0-10.2-4.6-10.2-10.2v-54.8c0-5.6 4.6-10.2 10.2-10.2h95.8c5.6 0 10.2 4.6 10.2 10.2v54.8c0 5.6-4.6 10.2-10.2 10.2H90.1z"/>
  <path fill="#00A78E" d="M92.9 198h8.9v8.9h-8.9z"/>
  <path fill="#D20962" d="M106 198h8.9v8.9H106z"/>
  <path fill="#00A78E" d="M119.1 198h8.9v8.9h-8.9zm13.1 0h8.9v8.9h-8.9zm13.1 0h8.9v8.9h-8.9zm13.1 0h8.9v8.9h-8.9zm13.1 0h8.9v8.9h-8.9zm-78.6 11.5h8.9v8.9h-8.9zm13.1 0h8.9v8.9H106zm13.1 0h8.9v8.9h-8.9zm13.1 0h8.9v8.9h-8.9zm13.1 0h8.9v8.9h-8.9zm13.1 0h8.9v8.9h-8.9zm13.1 0h8.9v8.9h-8.9zm-78.6 11.6h8.9v8.9h-8.9zm13.1 0h8.9v8.9H106zm13.1 0h8.9v8.9h-8.9zm13.1 0h8.9v8.9h-8.9zm13.1 0h8.9v8.9h-8.9zm13.1 0h8.9v8.9h-8.9zm13.1 0h8.9v8.9h-8.9zm-78.6 11.6h8.9v8.9h-8.9zm13.1 0h8.9v8.9H106zm13.1 0h8.9v8.9h-8.9zm13.1 0h8.9v8.9h-8.9zm13.1 0h8.9v8.9h-8.9zm13.1 0h8.9v8.9h-8.9zm13.1 0h8.9v8.9h-8.9zm-78.6 11.5h8.9v8.9h-8.9zm13.1 0h8.9v8.9H106z"/>
  <path fill="#FFF" d="M701.3 201.4c0 78.3 62.2 141.7 139 141.7s139-63.5 139-141.7S917 59.6 840.3 59.6s-139 63.5-139 141.8"/>
  <path fill="#00A78E" d="M861.2 268.5v-10c-3-.3-5.4-2.9-5.4-6s2.3-5.6 5.4-6v-7.1h34c.4-4.7 4.2-8.4 9-8.5V115.6H768.5V282h84.3c-.5-1.1-.7-2.4-.7-3.6 0-5.3 4-9.5 9.1-9.9"/>
  <path fill="none" stroke="#00A78E" stroke-miterlimit="10" d="M861.2 268.5v-10c-3-.3-5.4-2.9-5.4-6s2.3-5.6 5.4-6v-7.1h34c.4-4.7 4.2-8.4 9-8.5V115.6H768.5V282h84.3c-.5-1.1-.7-2.4-.7-3.6 0-5.3 4-9.5 9.1-9.9z"/>
  <path fill="#00A78E" d="M905 244.4v1.7h-34.4v6.7c-.5 0-5.2.6-5.3 5.2-.1 3.7 3.4 4.7 5.3 5v11.7c-1.4 0-3.5.6-3.5.6s-2.8.6-4.9 4.1c-2.1 3.4 0 7.9 0 7.9h49.9v-49.5c0-.1-7.1 1.1-7.1 6.6"/>
  <path fill="#5E9732" d="M788.2 267.5c.7.6 1.5 1.1 2.6 1.7 1 .6 2.2.9 3.6.9.5 0 1-.1 1.6-.2.5-.1 1-.3 1.3-.6.4-.3.7-.6.9-1.1.2-.5.4-1 .4-1.6 0-.6-.1-1.2-.3-1.7-.2-.5-.5-.9-.9-1.2-.4-.3-.9-.6-1.4-.9-.5-.2-1.1-.5-1.8-.6-1-.3-1.9-.6-2.8-1-.9-.4-1.7-.9-2.3-1.5-.7-.6-1.2-1.3-1.6-2.2-.4-.9-.6-1.9-.6-3.1 0-1.9.5-3.4 1.6-4.6 1.1-1.2 2.4-2.1 4.1-2.5v-4h2.4v3.5h1.7v-3.5h2.4v3.9c.8.2 1.5.4 2.1.7.6.3 1 .5 1.3.7.7.5 1 1 1 1.8 0 .3-.1.8-.4 1.3-.3.6-.6 1.1-1.1 1.6-.6-.5-1.4-1-2.4-1.5s-2.1-.7-3.2-.7c-.5 0-.9 0-1.4.1-.5.1-.9.2-1.3.4s-.7.5-1 .9c-.3.4-.4.9-.4 1.5 0 .5.1 1 .3 1.4.2.4.5.7.9 1 .4.3.9.6 1.5.8.6.2 1.3.5 2.1.8 1 .3 1.9.7 2.7 1.1.8.4 1.6.9 2.2 1.6.6.6 1.1 1.3 1.5 2.2.4.8.6 1.8.6 2.9 0 1.9-.4 3.5-1.3 4.8-.9 1.3-2.1 2.3-3.6 2.9v4.3h-2.4v-3.7c-.3.1-.6.1-.9.1-.3 0-.6.1-.9.1v3.5h-2.4v-3.6c-1.3-.1-2.3-.4-3.1-.7s-1.4-.6-1.8-.9c-.3-.2-.5-.5-.7-.8-.2-.3-.3-.6-.3-1s.2-1 .5-1.6c.3-.6.6-1.2 1-1.7m90.2 5.2c.7.6 1.5 1.1 2.6 1.7 1 .6 2.2.9 3.6.9.5 0 1-.1 1.6-.2.5-.1 1-.3 1.3-.6.4-.3.7-.6.9-1.1.2-.5.4-1 .4-1.6 0-.6-.1-1.2-.3-1.7-.2-.5-.5-.9-.9-1.2-.4-.3-.9-.6-1.4-.9-.5-.2-1.1-.5-1.8-.6-1-.3-1.9-.6-2.8-1-.9-.4-1.7-.9-2.3-1.5-.7-.6-1.2-1.3-1.6-2.2-.4-.9-.6-1.9-.6-3.1 0-1.9.5-3.4 1.6-4.6 1.1-1.2 2.4-2.1 4.1-2.5v-4h2.4v3.5h1.7v-3.5h2.4v3.9c.8.2 1.5.4 2.1.7.6.3 1 .5 1.3.7.7.5 1 1 1 1.8 0 .3-.1.8-.4 1.3-.3.6-.6 1.1-1.1 1.6-.6-.5-1.4-1-2.4-1.5s-2.1-.7-3.2-.7c-.5 0-.9 0-1.4.1-.5.1-.9.2-1.3.4s-.7.5-1 .9c-.3.4-.4.9-.4 1.5 0 .5.1 1 .3 1.4.2.4.5.7.9 1 .4.3.9.6 1.5.8.6.2 1.3.5 2.1.8 1 .3 1.9.7 2.7 1.1.8.4 1.6.9 2.2 1.6.6.6 1.1 1.3 1.5 2.2.4.8.6 1.8.6 2.9 0 1.9-.4 3.5-1.3 4.8-.9 1.3-2.1 2.3-3.6 2.9v4.3H887v-3.7c-.3.1-.6.1-.9.1-.3 0-.6.1-.9.1v3.5h-2.4v-3.6c-1.3-.1-2.3-.4-3.1-.7s-1.4-.6-1.8-.9c-.3-.2-.5-.5-.7-.8-.2-.3-.3-.6-.3-1s.2-1 .5-1.6c.2-.5.6-1.1 1-1.7m-49.1-5.2c.7.6 1.5 1.1 2.6 1.7 1 .6 2.2.9 3.6.9.5 0 1-.1 1.6-.2.5-.1.9-.3 1.3-.6s.7-.6.9-1.1c.2-.5.4-1 .4-1.6 0-.6-.1-1.2-.3-1.7-.2-.5-.5-.9-.9-1.2-.4-.3-.9-.6-1.4-.9-.5-.2-1.1-.5-1.8-.6-1-.3-1.9-.6-2.8-1-.9-.4-1.7-.9-2.3-1.5-.7-.6-1.2-1.3-1.6-2.2-.4-.9-.6-1.9-.6-3.1 0-1.9.5-3.4 1.6-4.6 1.1-1.2 2.4-2.1 4.1-2.5v-4h2.4v3.5h1.7v-3.5h2.4v3.9c.8.2 1.5.4 2.1.7.6.3 1 .5 1.3.7.7.5 1 1 1 1.8 0 .3-.1.8-.4 1.3-.3.6-.6 1.1-1.1 1.6-.6-.5-1.4-1-2.4-1.5s-2.1-.7-3.2-.7c-.5 0-.9 0-1.4.1-.5.1-.9.2-1.3.4s-.7.5-1 .9c-.3.4-.4.9-.4 1.5 0 .5.1 1 .3 1.4.2.4.5.7.9 1 .4.3.9.6 1.5.8.6.2 1.3.5 2.1.8 1 .3 1.9.7 2.7 1.1.8.4 1.6.9 2.2 1.6.6.6 1.1 1.3 1.5 2.2.4.8.6 1.8.6 2.9 0 1.9-.4 3.5-1.3 4.8-.9 1.3-2.1 2.3-3.6 2.9v4.3h-2.4v-3.7c-.3.1-.6.1-.9.1-.3 0-.6.1-.9.1v3.5h-2.4v-3.6c-1.3-.1-2.3-.4-3.1-.7-.8-.3-1.4-.6-1.8-.9-.3-.2-.5-.5-.7-.8-.2-.3-.3-.6-.3-1s.2-1 .5-1.6c.3-.6.6-1.2 1-1.7"/>
  <path fill="#55E1C8" d="M781.1 169.4h96.4v4h-96.4zm0 15.8h105.5v4H781.1zm0-7.9h110.4v4H781.1zm0 15.8h93.8v4h-93.8zm0 7.9h102.3v4H781.1zm0 7.9h110.4v4H781.1zm0 7.9h96.4v4h-96.4zm0 7.9h110.4v4H781.1zm0 7.9h105.5v4H781.1z"/>
  <path fill="#D20962" d="M854 152.3c0 4.7-3.8 8.5-8.5 8.5h-18.3c-4.7 0-8.5-3.8-8.5-8.5V134c0-4.7 3.8-8.5 8.5-8.5h18.3c4.7 0 8.5 3.8 8.5 8.5v18.3z"/>
  <path fill="#00ACA0" d="M848.1 142.2c0-1.4-1.1-2.5-2.5-2.5h-5.5s-.1 0-.1-.1v-5.5c0-1.4-1.1-2.5-2.5-2.5h-2c-1.4 0-2.5 1.1-2.5 2.5v5.5s0 .1-.1.1h-5.5c-1.4 0-2.5 1.1-2.5 2.5v2c0 1.4 1.1 2.5 2.5 2.5h5.5s.1 0 .1.1v5.5c0 1.4 1.1 2.5 2.5 2.5h2c1.4 0 2.5-1.1 2.5-2.5v-5.5s0-.1.1-.1h5.5c1.4 0 2.5-1.1 2.5-2.5v-2z"/>
  <path fill="#FFF" d="M350.1 201.4c0 78.3 62.2 141.7 139 141.7s139-63.5 139-141.7-62.2-141.7-139-141.7-139 63.4-139 141.7"/>
  <path fill="none" stroke="#00A78E" stroke-width="6.051" stroke-linecap="round" stroke-miterlimit="10" d="M385.3 202.9v-.8"/>
  <path fill="none" stroke="#00A78E" stroke-width="6.051" stroke-linecap="round" stroke-miterlimit="10" stroke-dasharray="1.635,11.447" d="M385.3 190.7v-7.4"/>
  <path fill="none" stroke="#00A78E" stroke-width="6.051" stroke-linecap="round" stroke-miterlimit="10" d="M385.3 177.6v-.8h.8"/>
  <path fill="none" stroke="#00A78E" stroke-width="6.051" stroke-linecap="round" stroke-miterlimit="10" stroke-dasharray="1.526,10.685" d="M396.8 176.8h190"/>
  <path fill="none" stroke="#00A78E" stroke-width="6.051" stroke-linecap="round" stroke-miterlimit="10" d="M592.2 176.8h.7v.8"/>
  <path fill="none" stroke="#00A78E" stroke-width="6.051" stroke-linecap="round" stroke-miterlimit="10" stroke-dasharray="1.635,11.447" d="M592.9 189v7.4"/>
  <path fill="none" stroke="#00A78E" stroke-width="6.051" stroke-linecap="round" stroke-miterlimit="10" d="M592.9 202.1v.8"/>
  <path fill="none" stroke="#00A78E" stroke-width="5.142" stroke-linecap="round" stroke-miterlimit="10" stroke-dasharray="1.285,8.998" d="M489.1 158.8v18"/>
  <text transform="translate(408.35 148.2)">
    <tspan x="0" y="0" fill="#00A78E" font-family="'Foco'" font-weight="700" font-size="34.746">In net</tspan>
    <tspan x="87.2" y="0" fill="#00A78E" font-family="'Foco'" font-weight="700" font-size="34.746">w</tspan>
    <tspan x="111.9" y="0" fill="#00A78E" font-family="'Foco'" font-weight="700" font-size="34.746">ork</tspan>
  </text>
  <path d="M428.3 203.4c0 8.4-6.8 15.2-15.2 15.2s-15.2-6.8-15.2-15.2c0-8.4 6.8-15.2 15.2-15.2s15.2 6.8 15.2 15.2m-36 28l13.9 32.8c2.6 6.1 11.3 6.1 13.9 0l13.9-32.8c2.1-5-1.5-10.5-6.9-10.5h-27.7c-5.6 0-9.2 5.5-7.1 10.5m86.5-28c0 8.4-6.8 15.2-15.2 15.2s-15.2-6.8-15.2-15.2c0-8.4 6.8-15.2 15.2-15.2s15.2 6.8 15.2 15.2m-36.1 28l13.9 32.8c2.6 6.1 11.3 6.1 13.9 0l13.9-32.8c2.1-5-1.5-10.5-6.9-10.5h-27.7c-5.5 0-9.2 5.5-7.1 10.5m86.5-28c0 8.4-6.8 15.2-15.2 15.2-8.4 0-15.2-6.8-15.2-15.2 0-8.4 6.8-15.2 15.2-15.2 8.4 0 15.2 6.8 15.2 15.2m-36 28l13.9 32.8c2.6 6.1 11.3 6.1 13.9 0l13.9-32.8c2.1-5-1.5-10.5-6.9-10.5h-27.7c-5.6 0-9.2 5.5-7.1 10.5m86.5-28c0 8.4-6.8 15.2-15.2 15.2-8.4 0-15.2-6.8-15.2-15.2 0-8.4 6.8-15.2 15.2-15.2 8.4 0 15.2 6.8 15.2 15.2m-36.1 28l13.9 32.8c2.6 6.1 11.3 6.1 13.9 0l13.9-32.8c2.1-5-1.5-10.5-6.9-10.5h-27.7c-5.5 0-9.2 5.5-7.1 10.5" fill="#00A78E"/>
  <text transform="translate(52.06 33.38)">
    <tspan x="0" y="0" fill="#FFF" font-family="'Foco'" font-weight="400" font-size="40">P</tspan>
    <tspan x="20.6" y="0" fill="#FFF" font-family="'Foco'" font-weight="400" font-size="40">r</tspan>
    <tspan x="33.6" y="0" fill="#FFF" font-family="'Foco'" font-weight="400" font-size="40">emiums</tspan>
  </text>
  <text transform="translate(414.9 33.38)">
    <tspan x="0" y="0" fill="#FFF" font-family="'Foco'" font-weight="400" font-size="40">Net</tspan>
    <tspan x="60.6" y="0" fill="#FFF" font-family="'Foco'" font-weight="400" font-size="40">w</tspan>
    <tspan x="87.9" y="0" fill="#FFF" font-family="'Foco'" font-weight="400" font-size="40">ork</tspan>
  </text>
  <text transform="translate(745.3 33.38)">
    <tspan x="0" y="0" fill="#FFF" font-family="'Foco'" font-weight="400" font-size="40">Deductib</tspan>
    <tspan x="152.2" y="0" fill="#FFF" font-family="'Foco'" font-weight="400" font-size="40">l</tspan>
    <tspan x="161.4" y="0" fill="#FFF" font-family="'Foco'" font-weight="400" font-size="40">e</tspan>
  </text>
</svg>