<svg xmlns="http://www.w3.org/2000/svg" width="151.3" height="507.7" viewBox="0 0 151.3 507.7">
  <path fill="#FFF" d="M123.4 98.3s1.7-15 6.3-10.8c3.8 3.5 5.7 19.6 3.3 30.8-1 5-7 10.7-9.5 8.2-2.4-2.5-.1-28.2-.1-28.2M23.2 95.7S21 80.7 16 85c-5.2 4.5-4.7 23.8-2.9 30.9 1.2 5 7.9 10.5 10.5 7.9 2.7-2.5-.4-28.1-.4-28.1"/>
  <path fill="#FFF" d="M20.8 74.5c.1 5.3-3.4 47.6 11.3 66.1 8.4 10.5 20.2 20.7 26.9 22.3 11.1 2.6 18.3 4.6 28.1 2.5 9.8-2.1 24.2-12.4 33.1-32.1 4.2-9.4 15.7-83.2-5.5-104.1-13.9-13.7-44.5-11.9-56.3-11.4-11.8.5-38.1 4.7-37.6 56.7m47.4 433s-1.9-14.4-31.5-13.2c-29.6 1.3-31.9 10.8-33 13.4m140.3-.2s-1.9-14.4-31.5-13.2c-29.6 1.3-31.9 10.8-33 13.4"/>
  <path fill="#FFF" d="M36.2 507.6l-5.6-159.5h83.1l-1.9 159.5H77.9V378.3c0-3.4-1.2-6.2-5-6.2s-5 2.8-5 6.2v129.3H36.2z"/>
  <path fill="#00A78E" d="M93.7 92c0 2.9 2.4 5.2 5.3 5.2s5.3-2.3 5.3-5.2c0-2.9-2.4-5.2-5.3-5.2s-5.3 2.3-5.3 5.2"/>
  <path fill="#00A78E" d="M114.7 93.3c-.1 0-7.2-6.8-15.7-6.9-4.4 0-9.1 1.9-13.2 7.4l1.3 1.5c3.8-5.1 8-6.7 12-6.7 3.9 0 7.6 1.6 10.3 3.2 1.4.8 2.5 1.6 3.2 2.2.4.3.7.6.9.7l.3.3.9-1.7z"/>
  <path fill="#FFF" d="M97.6 91.9c0 1-.5 1.8-1.2 1.8s-1.2-.8-1.2-1.8.5-1.8 1.2-1.8 1.2.8 1.2 1.8"/>
  <path fill="#00A78E" d="M58.2 92c0 2.9-2.4 5.2-5.3 5.2s-5.3-2.3-5.3-5.2c0-2.9 2.4-5.2 5.3-5.2s5.3 2.3 5.3 5.2"/>
  <path fill="#00A78E" d="M38.2 95.1l.3-.3c1.4-1.2 7.6-6.2 14.4-6.2 4 0 8.2 1.6 12 6.7l1.3-1.5c-4.1-5.5-8.9-7.4-13.2-7.4-8.5 0-15.6 6.8-15.7 6.9l.9 1.8z"/>
  <path fill="#FFF" d="M50.8 91.9c0 1-.5 1.8-1.2 1.8s-1.2-.8-1.2-1.8.6-1.8 1.2-1.8c.7 0 1.2.8 1.2 1.8"/>
  <path fill="#00A78E" d="M61.7 69s6.7 5.9 1.1 7c-5.6 1.1-14.8-.9-18.9 0-4.1.9-12.1 4-12.1 4l-.5-3.4c-.1.1 10.9-10.3 30.4-7.6m28-5.4s-6.5 5.7-.8 7c5.7 1.3 14.8-.4 18.9.7 4.1 1.1 12.3 4.5 12.3 4.5l.4-3.4c-.1 0-11.4-10.8-30.8-8.8m-20.1 56s.4.1 1.2.1c.7.1 1.8.2 3 .3 1.2.1 2.7.2 4 0 .7-.1 1.3-.3 1.5-.6.1-.1.1-.1.1-.2v-.1s-.1.2 0 .1v-.1l.1-.3c.1-.4.1-.7.2-1 .1-.8.1-1.6.1-2.3 0-.8 0-1.6-.1-2.4-.1-1.6-.1-3-.2-4.2-.1-1.3-.1-2.3-.1-3.1v-1.2s.2.4.4 1.1c.3.7.6 1.7.9 2.9.3 1.2.7 2.7.9 4.3.1.8.2 1.6.3 2.5.1.9 0 1.7 0 2.6-.1.5-.1 1.1-.3 1.4l-.1.3v.2l-.1.2c-.1.3-.3.6-.6.8-.5.5-1 .7-1.5.9-.5.1-1 .2-1.4.2-.9 0-1.7-.1-2.5-.2-.7-.1-1.4-.3-2-.6-1.2-.4-2.2-.9-2.9-1.2-.6-.1-.9-.4-.9-.4m-10.5 9.3s18.6 7.7 33.9 1.2c-2.1 4.5-22.5 15.6-33.9-1.2"/>
  <path fill="#00A78E" d="M18.6 83.8s-9.8-25.3-7.8-35.4c2-10.1 7-19.2 24.8-35.4C47.3 2.4 67.9.5 70.2 3.1c3.5 4 9.5 5.7 13.8.6 4.3-5.1 19.7-1.8 17.8 2.3 8.2-4.7 13.9 4 13.9 4s30.9 3.9 14 84c-1.5 7-3.2 15-3.2 15-6.3.4-.7-9.3.3-38.8 1.3-40.7-36.5-31.8-50.4-33.4-16.9-1.7-45.3-3.9-50.4 17.9-5.1 21.8-2.8 51.2-2.8 51.2l-4.7 4.8V83.8z"/>
  <path fill="none" stroke="#FFF" stroke-width="2.383" stroke-miterlimit="10" d="M18.6 83.8s-9.8-25.3-7.8-35.4c2-10.1 7-19.2 24.8-35.4C47.3 2.4 67.9.5 70.2 3.1c3.5 4 9.5 5.7 13.8.6 4.3-5.1 19.7-1.8 17.8 2.3 8.2-4.7 13.9 4 13.9 4s30.9 3.9 14 84c-1.5 7-3.2 15-3.2 15-6.3.4-.7-9.3.3-38.8 1.3-40.7-36.5-31.8-50.4-33.4-16.9-1.7-45.3-3.9-50.4 17.9-5.1 21.8-2.8 51.2-2.8 51.2l-4.7 4.8V83.8z"/>
  <path fill="#FFF" d="M62.9 166.5s.4 14.3-6.4 18.3c-6.1 3.6-8.8 4.3-8.8 4.3s29.8 11.9 53.5 2.3c-12.8-3.5-12-7.9-12-7.9L87 168.7l-24.1-2.2z"/>
  <path fill="none" stroke="#00A78E" stroke-width="2.862" stroke-miterlimit="10" d="M62.9 166.5s.4 14.3-6.4 18.3c-6.1 3.6-8.8 4.3-8.8 4.3s29.8 11.9 53.5 2.3c-12.8-3.5-12-7.9-12-7.9L87 168.7l-24.1-2.2z"/>
  <path fill="#FFF" d="M146.3 252.7l-29.8 6.9-3.3-14.1 3.4 34.5c.4 5.9.7 24.9-.7 42.1L113 345H31.6l-3-26.9c-.9-14.2.1-35.3.6-40.7l4.7-32.2-3.9 13.2-28.5-6.7s3-10.4 13.3-32.6c10.3-22.1 33-29.9 33-29.9l27.4 4.4 26.1-2.1s24.2 6.1 34.5 28.2c10.2 22.1 10.2 32.8 10.2 32.8"/>
  <path fill="none" stroke="#00A78E" stroke-width="2.383" stroke-miterlimit="10" d="M146.3 252.7l-29.8 6.9-3.3-14.1 3.4 34.5c.4 5.9.7 24.9-.7 42.1L113 345H31.6l-3-26.9c-.9-14.2.1-35.3.6-40.7l4.7-32.2-3.9 13.2-28.5-6.7s3-10.4 13.3-32.6c10.3-22.1 33-29.9 33-29.9l27.4 4.4 26.1-2.1s24.2 6.1 34.5 28.2c10.2 22.1 10.2 32.8 10.2 32.8"/>
  <path fill="#FFF" d="M126.8 373.8c-.9 0-1.8-.3-2.4-.9l-.7-.7-.2-.5c-.2-.6-.7-2.1.8-3.2l3.6-2.4c.5-.3.8-.6.9-.9l1.3-2.9c.4-.9.3-1.9-.3-2.7l-.5-.7-5.6 7.2h-.6c-1.5 0-2.5-.5-3.1-1.4-.7-1.2-.6-2.8.5-5.1l4.4-14.3c0-.1.1-.2.1-.4l3.8-46c-.4-2.6-1.1-6-2.3-10.3 0-.2-.1-.3-.1-.4-3.7-11.9-7.8-26.4-6.7-28.4.2-.4.5-.6.9-.7l23.2-4.6h.2c1.4 0 2.5 0 4.4 19.7.9 9.2 1.5 18.6 1.5 18.7v.1l-.2 7.7-10.8 42.6c0 .2.1 1.8.1 2.2l2.4 10.1c.1 1-.6 3.8-1.2 4.6l-6.3 9.1c-.3.5-.8.8-1.4 1l-3.8 2.6c-.5.7-1.2.9-1.9.9"/>
  <path fill="#00A78E" d="M144.1 255.9c2.3 0 4.8 37.3 4.8 37.3l-.2 7.5-10.7 42.5c-.1.3 0 2.4.1 2.7l2.4 10.1c.1.6-.6 3.2-1 3.7l-6.3 9.1c-.2.3-.6.5-.9.6l-4 2.7c-.4.3-.9.4-1.3.4-.6 0-1.2-.2-1.6-.6l-.5-.5c-.2-.7-.6-1.4.3-2l3.6-2.4c.6-.4 1.1-.8 1.3-1.4.3-.8.8-1.9 1.3-2.9.6-1.3.4-2.7-.4-3.9l-1.4-2-5.3 6.9-.9 1.1h-.1c-3 0-2.5-2.4-1.4-4.8l4.4-14.4c.1-.2.1-.4.1-.6l3.8-46.1c-.6-4.6-2.4-10.8-2.4-11 0 0-8.5-27.2-6.7-27.5l23-4.5m0-2.4h-.2l-.3.1-23.1 4.5c-.7.1-1.3.6-1.7 1.2-.6 1-1.7 2.8 6.6 29.3 0 .1.1.2.1.4 1.1 4.2 1.9 7.5 2.2 10l-3.8 45.8v.1l-4.3 14.2c-.8 1.7-1.7 4.2-.4 6.1.5.9 1.7 1.9 4 1.9h.7l-.2.1c-1.5 1.1-2 2.6-1.3 4.6l.1.2.2.6.4.4.5.5c.8.8 2 1.3 3.3 1.3.9 0 1.9-.3 2.6-.8l3.7-2.5c.8-.3 1.4-.8 1.9-1.4l6.3-9.1c.7-1 1.5-4.2 1.4-5.4v-.2l-2.3-10c0-.4-.1-1.5-.1-1.9l10.7-42.3.1-.3v-.3l.2-7.5v-.2c0-.1-.6-9.5-1.5-18.7-.5-5.5-1-9.8-1.5-13-1-4.7-1.6-7.7-4.3-7.7m-19.2 113.1l.2-.2.9-1.1 3.2-4.2c0 .2 0 .4-.1.7l-1.3 2.9c0 .1-.1.2-.3.3h-.2l-2.4 1.6z"/>
</svg>