<svg xmlns="http://www.w3.org/2000/svg" width="352" height="346.3" viewBox="0 0 352 346.3"><path fill="#FFF" d="M319.4 316.4H22.1c-.4 0-.8-.4-.8-.8v-215c0-.4.4-.8.8-.8h297.3c.4 0 .8.4.8.8v214.9c0 .5-.3.9-.8.9"/><path fill="none" stroke="#00A78E" stroke-width="5.739" stroke-miterlimit="10" d="M319.4 316.4H22.1c-.4 0-.8-.4-.8-.8v-215c0-.4.4-.8.8-.8h297.3c.4 0 .8.4.8.8v214.9c0 .5-.3.9-.8.9z"/><path fill="#00A78E" d="M79.3 84.4c-4.6 0-8.3-3.7-8.3-8.3V13.8c0-4.6 3.7-8.3 8.3-8.3h12.3c4.6 0 8.3 3.7 8.3 8.3V76c0 4.6-3.7 8.3-8.3 8.3H79.3z"/><path fill="#FFF" d="M91.7 11c1.6 0 2.8 1.3 2.8 2.8V76c0 1.6-1.3 2.8-2.8 2.8H79.3c-1.6 0-2.8-1.3-2.8-2.8V13.8c0-1.6 1.3-2.8 2.8-2.8h12.4m0-11H79.3c-7.6 0-13.8 6.2-13.8 13.8V76c0 7.6 6.2 13.8 13.8 13.8h12.4c7.6 0 13.8-6.2 13.8-13.8V13.8C105.5 6.2 99.3 0 91.7 0"/><path fill="#00A78E" d="M245.1 84.4c-4.6 0-8.3-3.7-8.3-8.3V13.8c0-4.6 3.7-8.3 8.3-8.3h12.3c4.6 0 8.3 3.7 8.3 8.3V76c0 4.6-3.7 8.3-8.3 8.3h-12.3z"/><path fill="#FFF" d="M257.4 11c1.6 0 2.8 1.3 2.8 2.8V76c0 1.6-1.3 2.8-2.8 2.8H245c-1.6 0-2.8-1.3-2.8-2.8V13.8c0-1.6 1.3-2.8 2.8-2.8h12.4m0-11H245c-7.6 0-13.8 6.2-13.8 13.8V76c0 7.6 6.2 13.8 13.8 13.8h12.4c7.6 0 13.8-6.2 13.8-13.8V13.8C271.3 6.2 265 0 257.4 0"/><path fill="#00A78E" d="M45.4 340.8c-22 0-39.8-17.9-39.8-39.8V62.7c0-22 17.9-39.8 39.8-39.8h26v53.2c0 4.4 3.6 8 8 8h12.4c4.4 0 8-3.6 8-8V22.8h137.4V76c0 4.4 3.6 8 8 8h12.4c4.4 0 8-3.6 8-8V22.8h41.2c22 0 39.8 17.9 39.8 39.8v238.3c0 22-17.9 39.8-39.8 39.8H45.4zM60 109.2c-8.8 0-16 7.2-16 16v159.1c0 8.8 7.2 16 16 16h232c8.8 0 16-7.2 16-16V125.2c0-8.8-7.2-16-16-16H60z"/><path fill="#FFF" d="M306.7 28.3c18.9 0 34.3 15.5 34.3 34.3v238.3c0 18.9-15.5 34.3-34.3 34.3H45.4c-18.9 0-34.3-15.5-34.3-34.3V62.7c0-18.9 15.5-34.3 34.3-34.3h20.5v47.7c0 7.4 6 13.5 13.5 13.5h12.4c7.4 0 13.5-6.1 13.5-13.5V28.3h126.4V76c0 7.4 6.1 13.5 13.5 13.5h12.4c7.4 0 13.5-6.1 13.5-13.5V28.3h35.6M60 305.9h232c11.8 0 21.5-9.7 21.5-21.5V125.2c0-11.8-9.7-21.5-21.5-21.5H60c-11.8 0-21.5 9.7-21.5 21.5v159.1c0 11.9 9.7 21.6 21.5 21.6M306.7 17.3H260V76c0 1.4-1.1 2.5-2.5 2.5h-12.4c-1.4 0-2.5-1.1-2.5-2.5V17.3H94.2V76c0 1.4-1.1 2.5-2.5 2.5H79.3c-1.4 0-2.5-1.1-2.5-2.5V17.3H45.4C20.3 17.3 0 37.7 0 62.7V301c0 25 20.3 45.4 45.4 45.4h261.3c25 0 45.4-20.3 45.4-45.4V62.7c-.1-25-20.4-45.4-45.4-45.4M60 294.8c-5.8 0-10.5-4.7-10.5-10.5V125.2c0-5.8 4.7-10.5 10.5-10.5h232c5.8 0 10.5 4.7 10.5 10.5v159.1c0 5.8-4.7 10.5-10.5 10.5H60z"/><path fill="#00A78E" d="M79 165.8h19.2V185H79z"/><path fill="#ED1C24" d="M107.2 165.8h19.2V185h-19.2z"/><path fill="#00A78E" d="M135.4 165.8h19.2V185h-19.2zm28.2 0h19.2V185h-19.2zm28.2 0H211V185h-19.2zm28.2 0h19.2V185H220zm28.1 0h19.2V185h-19.2zM79 190.7h19.2v19.2H79zm28.2 0h19.2v19.2h-19.2zm28.2 0h19.2v19.2h-19.2zm28.2 0h19.2v19.2h-19.2zm28.2 0H211v19.2h-19.2zm28.2 0h19.2v19.2H220zm28.1 0h19.2v19.2h-19.2zM79 215.6h19.2v19.2H79zm28.2 0h19.2v19.2h-19.2zm28.2 0h19.2v19.2h-19.2zm28.2 0h19.2v19.2h-19.2zm28.2 0H211v19.2h-19.2zm28.2 0h19.2v19.2H220zm28.1 0h19.2v19.2h-19.2zM79 240.5h19.2v19.2H79zm28.2 0h19.2v19.2h-19.2zm28.2 0h19.2v19.2h-19.2zm28.2 0h19.2v19.2h-19.2zm28.2 0H211v19.2h-19.2zm28.2 0h19.2v19.2H220zm28.1 0h19.2v19.2h-19.2zM79 265.4h19.2v19.2H79zm28.2 0h19.2v19.2h-19.2z"/><text transform="translate(77.25 150.752)"><tspan x="0" y="0" fill="#00A78E" font-family="'Foco'" font-weight="400" font-size="47.977" letter-spacing="1">P</tspan><tspan x="27.2" y="0" fill="#00A78E" font-family="'Foco'" font-weight="400" font-size="47.977" letter-spacing="1">r</tspan><tspan x="45" y="0" fill="#00A78E" font-family="'Foco'" font-weight="400" font-size="47.977" letter-spacing="2">emiu</tspan><tspan x="155.1" y="0" fill="#00A78E" font-family="'Foco'" font-weight="400" font-size="47.977">m</tspan></text></svg>