<svg xmlns="http://www.w3.org/2000/svg" width="143.6" height="345.8" viewBox="0 0 143.6 345.8">
  <path fill="none" stroke="#FFF" stroke-width="4" stroke-linecap="round" stroke-miterlimit="10" d="M2 236.2s-.5-21.7 17.2-19.2c6 .8 16 5.3 14.8 19.2v107.5"/>
  <path fill="#FFF" d="M125.3 66.3s1.1-10.2 4.3-7.3c2.6 2.4 3.8 13.3 2.3 20.9-.7 3.4-4.8 7.2-6.4 5.6-1.8-1.8-.2-19.2-.2-19.2m-67.9-1.7s-1.5-10.2-4.8-7.2c-3.5 3.1-3.2 16.1-2 20.9.8 3.4 5.3 7.1 7.1 5.4 1.8-1.8-.3-19.1-.3-19.1"/>
  <path fill="#FFF" d="M55.8 50.2c0 3.6-2.3 32.3 7.7 44.8 5.7 7.1 13.7 14 18.3 15.1 7.5 1.8 12.4 3.1 19.1 1.7 6.6-1.4 16.4-8.4 22.4-21.8 2.9-6.4 10.7-56.4-3.8-70.5-9.4-9.3-30.1-8.1-38.2-7.7-8.1.3-25.9 3.2-25.5 38.4m32.1 293.5s-1.3-9.8-21.3-8.9c-20.1.9-21.6 7.3-22.4 9.1m95.1-.2s-1.3-9.8-21.3-8.9c-20.1.9-21.6 7.3-22.4 9.1"/>
  <path fill="#FFF" d="M66.2 343.7l-3.8-108.1h56.3l-1.3 108.1h-23v-87.6c0-2.3-.8-4.2-3.4-4.2-2.6 0-3.4 1.9-3.4 4.2v87.6H66.2z"/>
  <path fill="#00A78E" d="M105.2 62.1c0 1.9 1.6 3.5 3.6 3.5s3.6-1.6 3.6-3.5-1.6-3.5-3.6-3.5c-2-.1-3.6 1.5-3.6 3.5"/>
  <path fill="#00A78E" d="M119.4 63s-4.9-4.6-10.7-4.7c-3 0-6.2 1.3-9 5l.9 1c2.6-3.4 5.4-4.5 8.1-4.5 2.6 0 5.1 1.1 7 2.2.9.5 1.7 1.1 2.2 1.5.3.2.5.4.6.5l.2.2.7-1.2z"/>
  <path fill="#FFF" d="M107.8 62c0 .7-.4 1.2-.8 1.2-.5 0-.8-.5-.8-1.2s.4-1.2.8-1.2c.5 0 .8.5.8 1.2"/>
  <path fill="#00A78E" d="M81.1 62.1c0 1.9-1.6 3.5-3.6 3.5s-3.6-1.6-3.6-3.5 1.6-3.5 3.6-3.5c2-.1 3.6 1.5 3.6 3.5"/>
  <path fill="#00A78E" d="M67.5 64.2l.2-.2c.9-.8 5.1-4.2 9.7-4.2 2.7 0 5.5 1.1 8.1 4.5l.9-1c-2.8-3.7-6-5-9-5-5.8 0-10.6 4.6-10.7 4.7l.8 1.2z"/>
  <path fill="#FFF" d="M76.1 62c0 .7-.4 1.2-.8 1.2-.5 0-.8-.5-.8-1.2s.4-1.2.8-1.2.8.5.8 1.2"/>
  <path fill="#00A78E" d="M83.5 46.5s4.5 4 .7 4.8-10-.6-12.8 0c-2.8.6-8.2 2.7-8.2 2.7l-.3-2.3c-.1 0 7.3-7 20.6-5.2m18.9-3.7s-4.4 3.9-.6 4.7c3.8.9 10-.3 12.8.5 2.8.7 8.3 3 8.3 3l.3-2.3c.1 0-7.6-7.3-20.8-5.9m-13.6 38s.3.1.8.2 1.2.2 2 .3c.8.1 1.8.2 2.8.1.5-.1 1-.2 1.2-.5.1-.1.1-.2.1-.2v-.2l.1-.2c.1-.3.1-.5.1-.8.1-1.1 0-2.2 0-3.2-.1-1.1-.1-2-.2-2.9-.1-.8-.1-1.6-.2-2.1 0-.5-.1-.8-.1-.8s.4 1.1.8 2.8c.4 1.7.8 3.9.7 6.3 0 .3-.1.7-.2.9l-.1.2v.1l-.1.1c-.1.2-.2.4-.3.5-.5.6-1.2.6-1.8.7-.6.1-1.1 0-1.6-.1s-1-.2-1.4-.3c-1.6-.4-2.6-.9-2.6-.9m15.9 11.8s-12.6 5.2-23 .8c1.5 3 15.2 10.5 23-.8"/>
  <path fill="#32CFB6" d="M100.3 102.7s-7.8-3.1-14.2-.5c.9-1.7 9.4-6.1 14.2.5"/>
  <path fill="#FFF" d="M54.3 56.5s-6.6-17.2-5.3-24c1.3-6.9 4.7-13 16.8-24C73.7 1.3 87.7 0 89.2 1.8c2.4 2.7 6.4 3.9 9.4.4 2.9-3.4 13.4-1.2 12.1 1.6 5.6-3.2 9.4 2.7 9.4 2.7s21 2.7 9.5 57c-1 4.8-2.2 10.2-2.2 10.2-4.2.3-.4-6.3.2-26.3.9-27.6-24.7-21.6-34.2-22.6-11.4-1.3-30.6-2.8-34.1 12-3.4 14.8-1.9 34.7-1.9 34.7l-3.2 3.2V56.5z"/>
  <path fill="none" stroke="#00A78E" stroke-width=".987" stroke-miterlimit="10" d="M54.3 56.5s-6.6-17.2-5.3-24c1.3-6.9 4.7-13 16.8-24C73.7 1.3 87.7 0 89.2 1.8c2.4 2.7 6.4 3.9 9.4.4 2.9-3.4 13.4-1.2 12.1 1.6 5.6-3.2 9.4 2.7 9.4 2.7s21 2.7 9.5 57c-1 4.8-2.2 10.2-2.2 10.2-4.2.3-.4-6.3.2-26.3.9-27.6-24.7-21.6-34.2-22.6-11.4-1.3-30.6-2.8-34.1 12-3.4 14.8-1.9 34.7-1.9 34.7l-3.2 3.2V56.5z"/>
  <path fill="#FFF" d="M84.3 112.6s.3 9.7-4.3 12.4c-4.1 2.4-6 2.9-6 2.9s20.2 8.1 36.3 1.5c-8.7-2.4-8.1-5.4-8.1-5.4l-1.5-10.1-16.4-1.3z"/>
  <path fill="none" stroke="#00A78E" stroke-width="1.185" stroke-miterlimit="10" d="M84.3 112.6s.3 9.7-4.3 12.4c-4.1 2.4-6 2.9-6 2.9s20.2 8.1 36.3 1.5c-8.7-2.4-8.1-5.4-8.1-5.4l-1.5-10.1-16.4-1.3z"/>
  <path fill="#FFF" d="M140.8 171l-20.2 4.7-2.2-9.6 2.3 23.4c.3 4 .5 16.9-.5 28.5l-2 15.5H63.1l-2-18.2c-.6-9.6.1-23.9.4-27.6l1.3-31.3-9.3 12.5-14.9-14.5s4.8-5.3 10.9-15.6c5-8.8 24.5-10.9 24.5-10.9l18.6 3 17.7-1.4s16.4 4.1 23.4 19.1c6.9 15 6.9 22.2 6.9 22.2"/>
  <path fill="none" stroke="#00A78E" stroke-width=".987" stroke-miterlimit="10" d="M140.8 171l-20.2 4.7-2.2-9.6 2.3 23.4c.3 4 .5 16.9-.5 28.5l-2 15.5H63.1l-2-18.2c-.6-9.6.1-23.9.4-27.6l1.3-31.3-9.3 12.5-14.9-14.5s4.8-5.3 10.9-15.6c5-8.8 24.5-10.9 24.5-10.9l18.6 3 17.7-1.4s16.4 4.1 23.4 19.1c6.9 15 6.9 22.2 6.9 22.2"/>
  <path fill="#FFF" d="M23 213.8c-.1.6-4.9-.5-4.9-.5s-.8-.9-1.2-.9c-.3 0-1.3.6-1.3.6-.9.4-.9 1.4-1.1 2.4-.1.7-.3 1.6-.4 2.1-.1.4 0 .9.2 1.3l1.2 2.7c.3.7-.2.9-.6 1.3l-.5.1c-.7.1-1.5-.3-1.8-1l-1.3-3c-.2-.2-.3-.4-.3-.7l-.2-7.5c0-.4.6-2.2.8-2.5l5.1-4.9c.1-.2 1-1.3 1.1-1.5l9.7-28.1 2.7-4.3s8.6-14.2 9.7-13.1l11.4 11.1c.9.9-3.8 3-3.8 3-4.8 4.6-6.5 6.1-8.9 9.2l-15 27.5c-.1.1-.1.3-.2.4l-.4 6.3z"/>
  <path fill="none" stroke="#00A78E" stroke-width=".987" stroke-miterlimit="10" d="M23 213.8c-.1.6-4.9-.5-4.9-.5s-.8-.9-1.2-.9c-.3 0-1.3.6-1.3.6-.9.4-.9 1.4-1.1 2.4-.1.7-.3 1.6-.4 2.1-.1.4 0 .9.2 1.3l1.2 2.7c.3.7-.2.9-.6 1.3l-.5.1c-.7.1-1.5-.3-1.8-1l-1.3-3c-.2-.2-.3-.4-.3-.7l-.2-7.5c0-.4.6-2.2.8-2.5l5.1-4.9c.1-.2 1-1.3 1.1-1.5l9.7-28.1 2.7-4.3s8.6-14.2 9.7-13.1l11.4 11.1c.9.9-3.8 3-3.8 3-4.8 4.6-6.5 6.1-8.9 9.2l-15 27.5c-.1.1-.1.3-.2.4l-.4 6.3z"/>
  <path fill="#FFF" d="M127.6 252.7c-.5 0-1.1-.2-1.4-.6l-.4-.4-.1-.3c-.1-.4-.4-1.2.4-1.8l2.5-1.6c.4-.2.6-.5.7-.7l.9-2c.3-.7.2-1.5-.2-2.1l-.6-.8-3.9 5.1h-.2c-.9 0-1.5-.3-1.8-.8-.4-.7-.3-1.7.4-3.2l3-9.7c0-.1 0-.2.1-.3l2.6-31.2c-.2-1.7-.8-4.1-1.6-7.1-.1-.2-.1-.3-.1-.3-1.6-5.2-5.3-17.6-4.5-18.9.1-.2.2-.3.4-.3l15.7-3.1h.1c.5 0 2 0 3.7 25.8l-.1 5.2-7.3 28.9c0 .2 0 1.4.1 1.6l1.6 6.8c.1.6-.4 2.5-.7 2.9l-4.3 6.2c-.2.3-.5.5-.8.6l-2.6 1.8c-.7.2-1.2.3-1.6.3"/>
  <path fill="#00A78E" d="M139.3 173.2c1.6 0 3.2 25.3 3.2 25.3l-.1 5.1-7.3 28.8c-.1.2 0 1.6.1 1.8l1.6 6.9c.1.4-.4 2.2-.6 2.5l-4.3 6.2c-.1.2-.4.3-.6.4l-2.7 1.8c-.3.2-.6.3-.9.3-.4 0-.8-.1-1.1-.4l-.3-.3c-.1-.5-.4-1 .2-1.4l2.5-1.6c.4-.2.7-.6.9-1 .2-.5.6-1.3.9-2 .4-.9.3-1.8-.3-2.6l-1-1.3-3.6 4.7-.6.8c-2 0-1.7-1.6-.9-3.3l3-9.8c0-.1.1-.3.1-.4l2.6-31.2c-.4-3.1-1.6-7.3-1.7-7.5 0 0-5.7-18.4-4.5-18.7l15.4-3.1m0-1h-.2l-15.7 3.1c-.3.1-.6.3-.8.5-.3.5-.7 1.2 1.9 10.6 1.2 4.4 2.5 8.6 2.6 8.8 0 .1 0 .2.1.3.8 2.9 1.3 5.2 1.5 6.9l-2.6 31.1v.2l-3 9.7c-.5 1-1 2.5-.3 3.6.3.5.9 1 2.2 1h.5l.3-.4.6-.8 2.8-3.6.2.3c.4.5.4 1.1.2 1.6l-.8 1.9v.1c-.1.2-.2.4-.5.5l-2.5 1.6c-1.2.8-.8 1.9-.6 2.4v.1l.1.2.2.2.3.3c.4.4 1.1.7 1.8.7.5 0 1-.1 1.4-.4l2.6-1.7c.4-.1.8-.4 1-.7l4.3-6.2c.4-.5.9-2.5.8-3.2l-1.6-6.8c0-.3-.1-1.2-.1-1.5l7.3-28.8v-.2l.1-5.1c0-.1-.4-6.4-1-12.7-.4-3.7-.7-6.6-1-8.8-.5-3.8-1-4.8-2.1-4.8"/>
  <path fill="#FFF" d="M109.6 91.2c0-1.8-.7-3.3-.7-3.3-4.1-8.6-15.6-3.1-15.6-3.1h-.2s-11.6-5.5-15.6 3.1c0 0-.7 1.5-.7 3.3-.1 1-.1 1.8.2 1.6.3-.2.6-.1.7.2.1.3.4.3.7 0 .2-.3.6-.2.7 0 .2.3.5.3.7 0s.6-.3.7 0c.2.3.5.3.7 0 .2-.3.5-.3.8 0 .2.3.6.3.9 0 .2-.3.6-.3.8 0 .2.3.6.3.8 0 .2-.3.6-.3.8 0 .2.3.5.3.7 0 .2-.3.5-.3.7 0 .2.3.5.3.6 0 .1-.3.4-.3.7 0 .2.3.5.3.7 0 .1-.3.4-.3.7 0 .2.3.6.3.9 0 .2-.3.5-.3.7-.1.1.2.6 0 1-.3.2-.2.7-1 1.2-1s1 .8 1.2 1c.4.4.9.5 1 .3.1-.2.5-.1.7.1.2.3.6.3.9 0 .2-.3.6-.2.7 0 .1.3.4.3.7 0 .2-.3.5-.3.7 0 .1.3.4.3.6 0 .2-.3.6-.3.7 0 .2.3.5.3.7 0 .2-.3.6-.3.8 0 .2.3.6.3.8 0 .2-.3.6-.3.8 0 .2.3.6.3.9 0 .2-.3.6-.3.8 0 .2.3.5.3.7 0 .2-.3.5-.3.7 0s.5.3.7 0c.2-.3.5-.3.7 0 .2.3.5.3.7 0 .1-.3.5-.3.7-.2.3.2.3-.5.2-1.6"/>
  <path fill="none" stroke="#00A78E" stroke-miterlimit="10" d="M109.6 91.2c0-1.8-.7-3.3-.7-3.3-4.1-8.6-15.6-3.1-15.6-3.1h-.2s-11.6-5.5-15.6 3.1c0 0-.7 1.5-.7 3.3-.1 1-.1 1.8.2 1.6.3-.2.6-.1.7.2.1.3.4.3.7 0 .2-.3.6-.2.7 0 .2.3.5.3.7 0s.6-.3.7 0c.2.3.5.3.7 0 .2-.3.5-.3.8 0 .2.3.6.3.9 0 .2-.3.6-.3.8 0 .2.3.6.3.8 0 .2-.3.6-.3.8 0 .2.3.5.3.7 0 .2-.3.5-.3.7 0 .2.3.5.3.6 0 .1-.3.4-.3.7 0 .2.3.5.3.7 0 .1-.3.4-.3.7 0 .2.3.6.3.9 0 .2-.3.5-.3.7-.1.1.2.6 0 1-.3.2-.2.7-1 1.2-1s1 .8 1.2 1c.4.4.9.5 1 .3.1-.2.5-.1.7.1.2.3.6.3.9 0 .2-.3.6-.2.7 0 .1.3.4.3.7 0 .2-.3.5-.3.7 0 .1.3.4.3.6 0 .2-.3.6-.3.7 0 .2.3.5.3.7 0 .2-.3.6-.3.8 0 .2.3.6.3.8 0 .2-.3.6-.3.8 0 .2.3.6.3.9 0 .2-.3.6-.3.8 0 .2.3.5.3.7 0 .2-.3.5-.3.7 0s.5.3.7 0c.2-.3.5-.3.7 0 .2.3.5.3.7 0 .1-.3.5-.3.7-.2.3.2.3-.5.2-1.6z"/>
  <path fill="#00A78E" d="M134.1 58.4c-.3-.1-.7-.3-1-.4-7.7-2.6-15.7-4-23.9-3.6-3.5.2-7 .7-10.2 2.2-1.1.5-2.1 1-2.1 2.4-1.2-.2-7-.2-8.3 0 0-1.4-1.1-1.9-2.1-2.4-3.3-1.5-6.7-2-10.2-2.2-8.3-.5-16.3.9-24 3.6-.4.1-.7.3-1 .4-1.5.7-2.1 1.7-1.7 3.3 0 .2.4.5.7.5 1.8.1 1.5 0 2.2 1.2.3.5.6 1 1.2 1.3 2.1.9 2.6.7 3.3 3 .4 1.4 1.7 4 2.6 5.1 1.8 2.2 4.5 3.4 7.3 3.8 3.7.5 7.5.3 11.2-.6 3.4-.8 5.7-3.1 7.3-6.1 1.1-2.1 1.7-4.3 1.9-6.6.2-2.2 2-3.4 4.2-3.5h2.7c2.2.1 4 1.2 4.2 3.5.2 2.3.8 4.6 1.9 6.6 1.6 3 3.9 5.2 7.3 6.1 3.7.9 7.4 1 11.2.6 2.9-.4 5.6-1.6 7.3-3.8.9-1.1 2.2-3.7 2.6-5.1.6-2.3 1.2-2.1 3.3-3 .6-.3.9-.7 1.2-1.3.7-1.2.4-1.1 2.2-1.2.2 0 .6-.3.7-.5.1-1.6-.5-2.7-2-3.3m-47.5 5.7c-.2 1.2-.4 2.4-.8 3.5-1.5 4.3-4.2 7.4-8.8 8.3-3.5.7-7 .6-10.6.2-4.5-.5-7.1-3.1-8.4-7.2-.5-1.4-.9-3-.8-4.5.5-5.9 7.3-7.7 12.5-8.1 4.6-.4 9.1-.1 13.4 1.7 2.4 1 4 2.8 3.5 6.1m40.8 4.7c-1.3 4.1-3.9 6.7-8.4 7.2-3.5.4-7.1.5-10.6-.2-4.6-.9-7.3-4-8.8-8.3-.4-1.1-.6-2.3-.8-3.5-.6-3.2 1-5 3.5-6.1 4.3-1.8 8.8-2.1 13.4-1.7 5.2.4 12 2.2 12.5 8.1 0 1.5-.4 3.1-.8 4.5"/>
</svg>