<svg xmlns="http://www.w3.org/2000/svg" width="50.9" height="49.5" viewBox="0 0 50.9 49.5"><path fill="#00A78E" d="M43.9 6.7v1.7H9.5v6.7c-.5 0-5.2.6-5.3 5.2-.1 3.7 3.4 4.7 5.3 5V37c-1.4 0-3.5.6-3.5.6s-3 .6-5.1 4c-2.1 3.4 0 7.9 0 7.9h49.9V0c.1 0-6.9 1.2-6.9 6.7"/><path fill="#fff" d="M17.2 35c.7.6 1.5 1.1 2.6 1.7 1 .6 2.2.9 3.6.9.5 0 1-.1 1.6-.2.5-.1 1-.3 1.3-.6.4-.3.7-.6.9-1.1.2-.5.4-1 .4-1.6 0-.6-.1-1.2-.3-1.7-.2-.5-.5-.9-.9-1.2-.4-.3-.9-.6-1.4-.9-.5-.2-1.1-.5-1.8-.6-1-.3-1.9-.6-2.8-1-.9-.4-1.7-.9-2.3-1.5-.7-.6-1.2-1.3-1.6-2.2-.4-.9-.6-1.9-.6-3.1 0-1.9.5-3.4 1.6-4.6 1.1-1.2 2.4-2.1 4.1-2.5v-4H24v3.5h1.7v-3.5h2.4v3.9c.8.2 1.5.4 2.1.7.6.3 1 .5 1.3.7.7.5 1 1 1 1.8 0 .3-.1.8-.4 1.3-.3.6-.6 1.1-1.1 1.6-.6-.5-1.4-1-2.4-1.5s-2.1-.7-3.2-.7c-.5 0-.9 0-1.4.1-.5.1-.9.2-1.3.4s-.7.5-1 .9c-.3.4-.4.9-.4 1.5 0 .5.1 1 .3 1.4.2.4.5.7.9 1 .4.3.9.6 1.5.8.6.2 1.3.5 2.1.8 1 .3 1.9.7 2.7 1.1.8.4 1.6.9 2.2 1.6.6.6 1.1 1.3 1.5 2.2.4.8.6 1.8.6 2.9 0 1.9-.4 3.5-1.3 4.8-.9 1.3-2.1 2.3-3.6 2.9v4.3h-2.4v-3.7c-.3.1-.6.1-.9.1-.3 0-.6.1-.9.1v3.5h-2.4v-3.6c-1.3-.1-2.3-.4-3.1-.7s-1.4-.6-1.8-.9c-.3-.2-.5-.5-.7-.8-.2-.3-.3-.6-.3-1s.2-1 .5-1.6c.3-.5.6-1.1 1-1.7"/></svg>