<svg xmlns="http://www.w3.org/2000/svg" viewBox="-192 257.4 213.6 86.6"><path fill="none" stroke="#00A78E" stroke-width="6.051" stroke-linecap="round" stroke-miterlimit="10" d="M-189 341v-.7"/><path fill="none" stroke="#00A78E" stroke-width="6.051" stroke-linecap="round" stroke-miterlimit="10" stroke-dasharray="1.635,11.447" d="M-189 328.8v-7.3"/><path fill="none" stroke="#00A78E" stroke-width="6.051" stroke-linecap="round" stroke-miterlimit="10" d="M-189 315.7v-.7h.8"/><path fill="none" stroke="#00A78E" stroke-width="6.051" stroke-linecap="round" stroke-miterlimit="10" stroke-dasharray="1.526,10.685" d="M-177.5 315h190"/><path fill="none" stroke="#00A78E" stroke-width="6.051" stroke-linecap="round" stroke-miterlimit="10" d="M17.9 315h.7v.7"/><path fill="none" stroke="#00A78E" stroke-width="6.051" stroke-linecap="round" stroke-miterlimit="10" stroke-dasharray="1.635,11.447" d="M18.6 327.2v7.3"/><path fill="none" stroke="#00A78E" stroke-width="6.051" stroke-linecap="round" stroke-miterlimit="10" d="M18.6 340.3v.7"/><path fill="none" stroke="#00A78E" stroke-width="5.142" stroke-linecap="round" stroke-miterlimit="10" stroke-dasharray="1.285,8.998" d="M-85.2 297v18"/><path d="M-163.7 263.1c.3 0 .6-.1 1-.1.3 0 .5-.1.7-.1.3 0 .7 0 1.1.1.4.1.7.2 1 .4.3.2.6.5.7.8s.3.8.3 1.4v20.7h-4.8v-23.2zm13.9 23.2h-4.8v-16.4l.4-.1c.1 0 .3 0 .5-.1h.7c.7 0 1.4.1 1.9.4.5.3.9.7 1 1.4.4-.5 1-1 1.8-1.5s1.9-.7 3.3-.7c1.6 0 2.9.3 3.6 1 .8.6 1.3 1.5 1.5 2.6.1.5.2 1.1.2 1.7 0 .6.1 1.2.1 1.8v9.8h-4.7v-9.6c0-.5 0-1-.1-1.4 0-.4-.1-.8-.3-1.1-.2-.3-.4-.6-.7-.7s-.8-.3-1.4-.3c-.9 0-1.6.2-2.2.5-.6.4-.9.8-.9 1.3v11.4zm27.5 0h-4.8v-16.4l.4-.1c.1 0 .3 0 .5-.1h.7c.7 0 1.4.1 1.9.4.5.3.9.7 1 1.4.4-.5 1-1 1.8-1.5s1.9-.7 3.3-.7c1.6 0 2.9.3 3.6 1 .8.6 1.3 1.5 1.5 2.6.1.5.2 1.1.2 1.7 0 .6.1 1.2.1 1.8v9.8h-4.7v-9.6c0-.5 0-1-.1-1.4 0-.4-.1-.8-.3-1.1-.2-.3-.4-.6-.7-.7s-.8-.3-1.4-.3c-.9 0-1.6.2-2.2.5-.6.4-.9.8-.9 1.3v11.4zm23.4-2.9c.6 0 1.1-.1 1.5-.2.4-.1.8-.3 1.2-.5s.6-.4.9-.6c.3-.2.5-.4.7-.6.3.3.6.8.9 1.3.3.5.5 1 .5 1.3 0 .5-.3 1-.9 1.4-.5.4-1.2.7-2.1 1-.9.3-1.9.4-3.1.4-1.1 0-2.2-.1-3.2-.4-1.1-.3-2-.8-2.8-1.5-.8-.7-1.5-1.6-2-2.8-.5-1.2-.8-2.6-.8-4.4 0-1.5.2-2.7.7-3.8.5-1.1 1.1-1.9 1.8-2.6.8-.7 1.6-1.2 2.6-1.5.9-.3 1.9-.5 2.9-.5 1.3 0 2.4.2 3.3.6.9.4 1.6 1 2.2 1.6.6.7 1 1.5 1.2 2.3.3.9.4 1.8.4 2.8v1.7c0 .2 0 .4-.1.5h-10.2c.1 1.3.5 2.3 1.2 3.2.6.9 1.7 1.3 3.2 1.3zm1.5-7.1c0-1.1-.2-2-.6-2.7-.4-.7-1.2-1-2.3-1-1 0-1.7.3-2.3 1-.6.7-.8 1.6-.8 2.8h6zm8 7.5c-.2-.5-.3-.9-.3-1.5 0-.5-.1-1-.1-1.5v-16.1l.5-.1c.2 0 .3 0 .5-.1s.4 0 .6 0c.4 0 .7 0 1.1.1.4.1.7.2 1 .4.3.2.5.5.7.9.2.4.3.8.3 1.4v2.4h4.9v3.5H-85v7.4c0 1.6.7 2.4 2 2.4.3 0 .6-.1.9-.2.3-.1.6-.2.8-.3.2-.1.4-.3.6-.4.2-.1.3-.2.3-.3.3.5.6.9.8 1.3.2.4.3.7.3 1 0 .3-.1.6-.4.9-.2.3-.6.6-1 .8-.4.2-1 .4-1.6.6-.6.2-1.3.2-2 .2-1.5 0-2.6-.3-3.4-.8-.8-.3-1.4-1.1-1.7-2zm30 2.7h-3.7l-2.8-7.5-3.2 7.5h-3.3l-6.1-16.3c.4-.1.9-.2 1.3-.3.5-.1.8-.1 1.2-.1.7 0 1.3.2 1.8.5s.9.8 1.1 1.5l3.1 9.4 2.3-5.7-1.7-5.3c.4-.1.9-.2 1.2-.3.4-.1.8-.1 1.1-.1.6 0 1.1.2 1.5.5.4.3.7.8 1 1.5l3 9.1 2.3-7.9c.3-1 .6-1.8 1.1-2.4.4-.5 1.1-.8 2-.8.5 0 .9 0 1.3.1s.8.2 1.1.3l-5.6 16.3zm23.2-8.5c0 1.2-.1 2.3-.4 3.3s-.8 2-1.4 2.8c-.7.8-1.5 1.5-2.6 1.9-1 .5-2.3.7-3.8.7s-2.7-.2-3.8-.7c-1-.5-1.9-1.1-2.5-1.9-.6-.8-1.1-1.7-1.4-2.8-.3-1.1-.5-2.2-.5-3.3 0-1.2.2-2.3.5-3.4s.9-2 1.5-2.8c.7-.8 1.5-1.4 2.6-1.9 1-.5 2.3-.7 3.6-.7 1.5 0 2.7.2 3.7.7 1 .5 1.9 1.1 2.5 1.9.6.8 1.1 1.7 1.4 2.7.5 1.3.6 2.4.6 3.5zm-4.7.1c0-.6 0-1.2-.1-1.9-.1-.6-.3-1.2-.5-1.6-.3-.5-.6-.8-1-1.1-.4-.3-1-.4-1.7-.4s-1.2.2-1.7.5-.8.7-1.1 1.2c-.3.5-.5 1-.6 1.6-.1.6-.2 1.2-.2 1.8 0 .6.1 1.2.2 1.9.1.6.3 1.2.5 1.7.3.5.6.9 1.1 1.2.5.3 1 .5 1.7.5s1.3-.2 1.7-.5c.5-.3.8-.7 1.1-1.2.3-.5.4-1.1.5-1.7 0-.7.1-1.4.1-2zm13-6.6c.1-.2.3-.4.6-.7.2-.3.5-.5.9-.7.3-.2.7-.4 1.1-.5.4-.1.8-.2 1.3-.2.3 0 .6 0 .9.1s.6.1.9.3c.3.1.5.3.6.5.2.2.2.5.2.8 0 .5-.1 1.1-.4 1.7-.3.7-.5 1.2-.8 1.7-.4-.3-.8-.6-1.2-.7s-.9-.3-1.4-.3c-.7 0-1.3.2-1.8.6s-.7.9-.7 1.5v10.7h-4.7v-16.4l.4-.1c.1 0 .3 0 .5-.1h.7c.7 0 1.4.1 1.9.4.5.4.9.8 1 1.4zm14.2 8.2c-.4-.5-.6-1-.8-1.7v8.4h-4.7v-24.5s.2-.1.6-.1c.3 0 .7-.1 1-.1s.7 0 1.1.1c.4.1.7.2 1 .4.3.2.5.5.7.9.2.4.3.8.3 1.4v12.4c.1-.6.4-1.2.9-1.7l3.7-4.2c.4-.5.8-.8 1.2-1.1.4-.3.9-.4 1.5-.4s1.1.1 1.6.3c.5.2.9.5 1.4.9l-5.7 6.5 6.5 8.6c-.3.2-.7.4-1.2.6-.5.2-1 .2-1.5.2-.8 0-1.5-.1-2.1-.4-.6-.3-1.1-.7-1.6-1.4l-3.9-5.1z" fill="#00A78E"/></svg>