<svg xmlns="http://www.w3.org/2000/svg" viewBox="-228 279.7 142.9 42.3"><path d="M-224.8 286.4c.2-.1.4-.1.7-.1s.6-.1.9-.1c.6 0 1 .1 1.4.3.3.2.6.5.9 1l13 20.2v-21.5c.2 0 .3 0 .5-.1h.5c.2 0 .5 0 .8.1.3.1.5.2.7.4.2.2.4.4.6.8.1.3.2.8.2 1.3v24.4h-3.2l-13.6-20.8v20.8h-3.2v-26.7zm28.6 17.9c.1 1.9.6 3.5 1.5 4.7.9 1.2 2.4 1.8 4.4 1.8.7 0 1.4-.1 2-.2.6-.2 1.1-.4 1.5-.6.4-.2.8-.5 1.1-.7l.7-.7c.3.4.6.8.8 1.2.2.4.3.8.3 1 0 .2-.1.4-.2.7-.1.2-.4.5-.7.7-.6.5-1.4.8-2.4 1.1-1 .3-2.1.5-3.5.5-1.3 0-2.4-.2-3.5-.5-1.1-.4-2.1-.9-2.9-1.7-.8-.8-1.5-1.8-2-3.1s-.7-2.9-.7-4.7c0-1.7.2-3.1.7-4.4.5-1.2 1.1-2.2 1.9-3 .8-.8 1.7-1.4 2.7-1.7 1-.4 2.1-.6 3.2-.6 1.4 0 2.5.2 3.5.7 1 .5 1.8 1.1 2.4 1.8.6.8 1.1 1.6 1.4 2.6s.4 2 .4 3.1v1.1c0 .4 0 .8-.1 1.1h-12.5zm9.4-2.5c0-.7-.1-1.4-.2-2-.1-.6-.4-1.2-.7-1.6-.3-.5-.8-.8-1.4-1.1-.6-.3-1.3-.4-2.1-.4-1.4 0-2.5.5-3.4 1.4-.9.9-1.4 2.2-1.5 3.8h9.3zm8-13.3h.8c.8 0 1.4.2 1.9.6.5.4.7 1.1.7 2.1v3.1h6v2.9h-6v10.3c0 2.2.9 3.3 2.6 3.3.4 0 .8-.1 1.2-.2.4-.1.7-.3 1-.5.3-.2.6-.4.7-.6s.3-.3.4-.4c.3.4.6.8.8 1.2.2.4.3.7.3 1.1 0 .2-.1.5-.4.8-.2.3-.6.5-1 .8-.4.2-1 .4-1.6.6-.6.2-1.3.2-2.1.2-1.4 0-2.5-.3-3.3-.8-.8-.5-1.4-1.3-1.8-2.2-.2-.5-.3-1.1-.3-1.7 0-.6-.1-1.2-.1-1.8v-18.8zm12 5.9c.3-.1.6-.1.9-.2.3-.1.6-.1.9-.1 1.3 0 2.1.7 2.5 2.1l4.1 13.2 3.8-9.4-2-5.6c.5-.2 1-.2 1.6-.2 1.2 0 2 .6 2.5 1.9l4.8 13.4 3.3-12.7c.2-.7.5-1.3.8-1.9.4-.5.9-.8 1.7-.8.5 0 1.1.1 1.6.3l-5.7 18.8h-3.4l-3.8-9.7-4.1 9.7h-3l-6.5-18.8zm46.2 9.2c0 1.3-.2 2.6-.5 3.8-.3 1.2-.8 2.3-1.5 3.2-.7.9-1.6 1.7-2.7 2.2-1.1.6-2.5.8-4.1.8-1.6 0-2.9-.3-4-.8s-2-1.2-2.7-2.1c-.7-.9-1.2-1.9-1.5-3.2-.3-1.2-.5-2.5-.5-3.9 0-1.3.2-2.6.6-3.8s.9-2.2 1.7-3.1c.7-.9 1.7-1.6 2.8-2.1 1.1-.5 2.4-.8 3.9-.8s2.9.3 4 .8 2 1.2 2.7 2.1 1.2 1.9 1.5 3.1c.2 1.3.3 2.5.3 3.8zm-3.6 0c0-.8-.1-1.6-.2-2.5-.1-.8-.4-1.5-.8-2.2-.4-.7-.9-1.2-1.6-1.6-.7-.4-1.5-.6-2.6-.6-1 0-1.9.2-2.5.6-.7.4-1.2.9-1.6 1.6-.4.7-.7 1.4-.9 2.2-.2.8-.3 1.6-.3 2.5 0 .8.1 1.7.2 2.5s.4 1.6.8 2.3c.4.7.9 1.3 1.6 1.7.7.4 1.5.7 2.6.7s1.9-.2 2.6-.7c.7-.4 1.2-1 1.6-1.7.4-.7.6-1.4.8-2.3.2-.8.3-1.6.3-2.5zm8.5-9.4h.7c.6 0 1.2.2 1.7.5s.8.8.9 1.5c.4-.6.9-1.1 1.7-1.6.7-.5 1.6-.7 2.6-.7.3 0 .6 0 .9.1.3.1.6.1.9.3.3.1.5.3.7.5.2.2.3.5.3.8 0 .4-.1.9-.3 1.4-.2.5-.4.9-.6 1.2-.3-.3-.7-.6-1.1-.7-.4-.2-.9-.3-1.5-.3-.5 0-.9.1-1.3.2s-.8.3-1.1.6c-.3.3-.6.5-.8.9-.2.3-.3.7-.3 1v13.3h-3.4v-19zm13.9-9.5h.8c.8 0 1.4.2 1.9.6.5.4.7 1.1.7 2.1v25.7h-3.4v-28.4zm4.3 18.5v-1.3l6.9-6.8c.8-.7 1.5-1 2.3-1 .5 0 .8.1 1.2.2s.6.4.9.6l-7.7 7.6 8.9 10.6c-.6.2-1.3.4-2 .4-.5 0-1.1-.1-1.6-.3-.5-.2-1-.6-1.4-1.1l-7.5-8.9z" fill="#FFF"/></svg>