<svg xmlns="http://www.w3.org/2000/svg" width="707" height="349.5" viewBox="0 0 707 349.5">
  <path fill="#FFF" d="M674.4 316.8H377.1c-.4 0-.8-.4-.8-.8V101.1c0-.4.4-.8.8-.8h297.3c.4 0 .8.4.8.8V316c0 .5-.3.8-.8.8"/>
  <path fill="none" stroke="#00A78E" stroke-width="5.739" stroke-miterlimit="10" d="M674.4 316.8H377.1c-.4 0-.8-.4-.8-.8V101.1c0-.4.4-.8.8-.8h297.3c.4 0 .8.4.8.8V316c0 .5-.3.8-.8.8z"/>
  <path fill="#00A78E" d="M434.3 84.9c-4.6 0-8.3-3.7-8.3-8.3V14.3c0-4.6 3.7-8.3 8.3-8.3h12.3c4.6 0 8.3 3.7 8.3 8.3v62.2c0 4.6-3.7 8.3-8.3 8.3h-12.3z"/>
  <path fill="#FFF" d="M446.7 11.5c1.6 0 2.8 1.3 2.8 2.8v62.2c0 1.6-1.3 2.8-2.8 2.8h-12.4c-1.6 0-2.8-1.3-2.8-2.8V14.3c0-1.6 1.3-2.8 2.8-2.8h12.4m0-11h-12.4c-7.6 0-13.8 6.2-13.8 13.8v62.2c0 7.6 6.2 13.8 13.8 13.8h12.4c7.6 0 13.8-6.2 13.8-13.8V14.3c0-7.6-6.2-13.8-13.8-13.8"/>
  <path fill="#00A78E" d="M600.1 84.9c-4.6 0-8.3-3.7-8.3-8.3V14.3c0-4.6 3.7-8.3 8.3-8.3h12.3c4.6 0 8.3 3.7 8.3 8.3v62.2c0 4.6-3.7 8.3-8.3 8.3h-12.3z"/>
  <path fill="#FFF" d="M612.4 11.5c1.6 0 2.8 1.3 2.8 2.8v62.2c0 1.6-1.3 2.8-2.8 2.8H600c-1.6 0-2.8-1.3-2.8-2.8V14.3c0-1.6 1.3-2.8 2.8-2.8h12.4m0-11H600c-7.6 0-13.8 6.2-13.8 13.8v62.2c0 7.6 6.2 13.8 13.8 13.8h12.4c7.6 0 13.8-6.2 13.8-13.8V14.3C626.3 6.7 620 .5 612.4.5"/>
  <path fill="#00A78E" d="M400.4 341.3c-22 0-39.8-17.9-39.8-39.8V63.2c0-22 17.9-39.8 39.8-39.8h26v53.2c0 4.4 3.6 8 8 8h12.4c4.4 0 8-3.6 8-8V23.3h137.4v53.2c0 4.4 3.6 8 8 8h12.4c4.4 0 8-3.6 8-8V23.3h41.2c22 0 39.8 17.9 39.8 39.8v238.3c0 22-17.9 39.8-39.8 39.8H400.4zM415 109.7c-8.8 0-16 7.2-16 16v159.1c0 8.8 7.2 16 16 16h232c8.8 0 16-7.2 16-16V125.7c0-8.8-7.2-16-16-16H415z"/>
  <path fill="#FFF" d="M661.6 28.8c18.9 0 34.3 15.5 34.3 34.3v238.3c0 18.9-15.5 34.3-34.3 34.3H400.4c-18.9 0-34.3-15.5-34.3-34.3V63.2c0-18.9 15.5-34.3 34.3-34.3h20.5v47.7c0 7.4 6 13.5 13.5 13.5h12.4c7.4 0 13.5-6.1 13.5-13.5V28.8h126.4v47.7c0 7.4 6.1 13.5 13.5 13.5h12.4c7.4 0 13.5-6.1 13.5-13.5V28.8h35.5M415 306.3h232c11.8 0 21.5-9.7 21.5-21.5V125.7c0-11.8-9.7-21.5-21.5-21.5H415c-11.8 0-21.5 9.7-21.5 21.5v159.1c0 11.9 9.7 21.5 21.5 21.5M661.6 17.8h-46.7v58.7c0 1.4-1.1 2.5-2.5 2.5H600c-1.4 0-2.5-1.1-2.5-2.5V17.8H449.2v58.7c0 1.4-1.1 2.5-2.5 2.5h-12.4c-1.4 0-2.5-1.1-2.5-2.5V17.8h-31.5c-25 0-45.4 20.3-45.4 45.4v238.3c0 25 20.3 45.4 45.4 45.4h261.3c25 0 45.4-20.3 45.4-45.4V63.2c0-25.1-20.3-45.4-45.4-45.4M415 295.3c-5.8 0-10.5-4.7-10.5-10.5V125.7c0-5.8 4.7-10.5 10.5-10.5h232c5.8 0 10.5 4.7 10.5 10.5v159.1c0 5.8-4.7 10.5-10.5 10.5H415z"/>
  <path fill="#00A78E" d="M434 166.3h19.2v19.2H434z"/>
  <path fill="#ED1C24" d="M462.2 166.3h19.2v19.2h-19.2z"/>
  <path fill="#00A78E" d="M490.4 166.3h19.2v19.2h-19.2zm28.2 0h19.2v19.2h-19.2zm28.2 0H566v19.2h-19.2zm28.2 0h19.2v19.2H575zm28.1 0h19.2v19.2h-19.2zM434 191.2h19.2v19.2H434zm28.2 0h19.2v19.2h-19.2zm28.2 0h19.2v19.2h-19.2zm28.2 0h19.2v19.2h-19.2zm28.2 0H566v19.2h-19.2zm28.2 0h19.2v19.2H575zm28.1 0h19.2v19.2h-19.2zM434 216.1h19.2v19.2H434zm28.2 0h19.2v19.2h-19.2zm28.2 0h19.2v19.2h-19.2zm28.2 0h19.2v19.2h-19.2zm28.2 0H566v19.2h-19.2zm28.2 0h19.2v19.2H575zm28.1 0h19.2v19.2h-19.2zM434 241h19.2v19.2H434zm28.2 0h19.2v19.2h-19.2zm28.2 0h19.2v19.2h-19.2zm28.2 0h19.2v19.2h-19.2zm28.2 0H566v19.2h-19.2zm28.2 0h19.2v19.2H575zm28.1 0h19.2v19.2h-19.2zM434 265.9h19.2v19.2H434zm28.2 0h19.2v19.2h-19.2z"/>
  <text transform="translate(432.25 151.238)">
    <tspan x="0" y="0" fill="#00A78E" font-family="'Foco'" font-weight="400" font-size="47.977" letter-spacing="1">P</tspan>
    <tspan x="27.2" y="0" fill="#00A78E" font-family="'Foco'" font-weight="400" font-size="47.977" letter-spacing="1">r</tspan>
    <tspan x="45" y="0" fill="#00A78E" font-family="'Foco'" font-weight="400" font-size="47.977" letter-spacing="2">emiu</tspan>
    <tspan x="155.1" y="0" fill="#00A78E" font-family="'Foco'" font-weight="400" font-size="47.977">m</tspan>
  </text>
  <path fill="#FFF" d="M0 0h285.1v349.5H0z"/>
  <path fill="#5E9732" d="M71.1 313.4c1.2 1 2.7 2 4.6 3 1.8 1 4 1.5 6.5 1.5.9 0 1.9-.1 2.8-.3.9-.2 1.7-.6 2.4-1 .7-.5 1.2-1.1 1.7-1.9.4-.8.6-1.8.6-2.9 0-1.1-.2-2.1-.6-2.9-.4-.8-1-1.5-1.7-2.1-.7-.6-1.5-1.1-2.5-1.5-1-.4-2-.8-3.2-1.1-1.7-.5-3.3-1-4.9-1.7-1.6-.7-2.9-1.6-4.1-2.6-1.2-1.1-2.2-2.3-2.9-3.8-.7-1.5-1.1-3.3-1.1-5.4 0-3.3 1-6.1 2.9-8.2 1.9-2.1 4.3-3.6 7.2-4.5v-7.1H83v6.3h2.3c.2 0 .5 0 .7.1V271h4.3v6.9c1.5.4 2.7.8 3.7 1.2 1 .4 1.8.8 2.2 1.2 1.2.8 1.8 1.8 1.8 3.1 0 .6-.2 1.3-.7 2.3-.5 1-1.1 2-2 2.9-1.1-.9-2.5-1.8-4.3-2.6-1.8-.8-3.7-1.2-5.7-1.2-.8 0-1.6.1-2.5.2-.8.1-1.6.4-2.3.8-.7.4-1.3.9-1.7 1.6-.4.7-.7 1.5-.7 2.6 0 .9.2 1.8.5 2.4.3.7.8 1.3 1.5 1.8s1.6 1 2.6 1.4c1.1.4 2.3.9 3.8 1.3 1.7.6 3.3 1.2 4.8 2s2.8 1.7 3.9 2.8c1.1 1.1 2 2.4 2.7 3.8.7 1.5 1 3.2 1 5.2 0 3.4-.8 6.2-2.3 8.5-1.6 2.3-3.7 4-6.4 5.2v7.6H86v-6.5c-.5.1-1 .2-1.5.2s-1 .1-1.5.1v6.1h-4.3v-6.4c-2.3-.2-4.1-.6-5.5-1.2-1.4-.5-2.5-1-3.2-1.5-.5-.4-1-.8-1.3-1.3-.4-.5-.5-1.1-.5-1.8 0-.8.3-1.7.9-2.9.6-1.4 1.3-2.4 2-3.4m129.6 0c1.2 1 2.7 2 4.6 3 1.8 1 4 1.5 6.5 1.5.9 0 1.9-.1 2.8-.3.9-.2 1.7-.6 2.4-1 .7-.5 1.2-1.1 1.7-1.9.4-.8.6-1.8.6-2.9 0-1.1-.2-2.1-.6-2.9-.4-.8-1-1.5-1.7-2.1-.7-.6-1.5-1.1-2.5-1.5-1-.4-2-.8-3.2-1.1-1.7-.5-3.3-1-4.9-1.7-1.6-.7-2.9-1.6-4.1-2.6-1.2-1.1-2.2-2.3-2.9-3.8-.7-1.5-1.1-3.3-1.1-5.4 0-3.3 1-6.1 2.9-8.2 1.9-2.1 4.3-3.6 7.2-4.5v-7.1h4.3v6.3h2.3c.2 0 .5 0 .7.1V271h4.3v6.9c1.5.4 2.7.8 3.7 1.2 1 .4 1.8.8 2.2 1.2 1.2.8 1.8 1.8 1.8 3.1 0 .6-.2 1.3-.7 2.3-.5 1-1.1 2-2 2.9-1.1-.9-2.5-1.8-4.3-2.6-1.8-.8-3.7-1.2-5.7-1.2-.8 0-1.6.1-2.5.2-.8.1-1.6.4-2.3.8-.7.4-1.3.9-1.7 1.6-.4.7-.7 1.5-.7 2.6 0 .9.2 1.8.5 2.4.3.7.8 1.3 1.5 1.8s1.6 1 2.6 1.4c1.1.4 2.3.9 3.8 1.3 1.7.6 3.3 1.2 4.8 2s2.8 1.7 3.9 2.8c1.1 1.1 2 2.4 2.7 3.8.7 1.5 1 3.2 1 5.2 0 3.4-.8 6.2-2.3 8.5-1.6 2.3-3.7 4-6.4 5.2v7.6h-4.3v-6.5c-.5.1-1 .2-1.5.2s-1 .1-1.5.1v6.1h-4.3v-6.4c-2.3-.2-4.1-.6-5.5-1.2-1.4-.5-2.5-1-3.2-1.5-.5-.4-1-.8-1.3-1.3-.4-.5-.5-1.1-.5-1.8 0-.8.3-1.7.9-2.9.6-1.4 1.3-2.4 2-3.4m-64.8 0c1.2 1 2.7 2 4.6 3 1.8 1 4 1.5 6.5 1.5.9 0 1.9-.1 2.8-.3.9-.2 1.7-.6 2.4-1 .7-.5 1.2-1.1 1.7-1.9.4-.8.6-1.8.6-2.9 0-1.1-.2-2.1-.6-2.9-.4-.8-1-1.5-1.7-2.1-.7-.6-1.5-1.1-2.5-1.5-1-.4-2-.8-3.2-1.1-1.7-.5-3.3-1-4.9-1.7-1.6-.7-2.9-1.6-4.1-2.6-1.2-1.1-2.2-2.3-2.9-3.8-.7-1.5-1.1-3.3-1.1-5.4 0-3.3 1-6.1 2.9-8.2 1.9-2.1 4.3-3.6 7.2-4.5v-7.1h4.3v6.3h2.3c.2 0 .5 0 .7.1V271h4.3v6.9c1.5.4 2.7.8 3.7 1.2 1 .4 1.8.8 2.2 1.2 1.2.8 1.8 1.8 1.8 3.1 0 .6-.2 1.3-.7 2.3-.5 1-1.1 2-2 2.9-1.1-.9-2.5-1.8-4.3-2.6-1.8-.8-3.7-1.2-5.7-1.2-.8 0-1.6.1-2.5.2-.8.1-1.6.4-2.3.8-.7.4-1.3.9-1.7 1.6-.4.7-.7 1.5-.7 2.6 0 .9.2 1.8.5 2.4.3.7.8 1.3 1.5 1.8s1.6 1 2.6 1.4c1.1.4 2.3.9 3.8 1.3 1.7.6 3.3 1.2 4.8 2s2.8 1.7 3.9 2.8c1.1 1.1 2 2.4 2.7 3.8.7 1.5 1 3.2 1 5.2 0 3.4-.8 6.2-2.3 8.5-1.6 2.3-3.7 4-6.4 5.2v7.6h-4.3v-6.5c-.5.1-1 .2-1.5.2s-1 .1-1.5.1v6.1h-4.3v-6.4c-2.3-.2-4.1-.6-5.5-1.2-1.4-.5-2.5-1-3.2-1.5-.5-.4-1-.8-1.3-1.3-.4-.5-.5-1.1-.5-1.8 0-.8.3-1.7.9-2.9.6-1.4 1.3-2.4 2-3.4"/>
  <path fill="#00BBA2" d="M26.5 113H229v8.5H26.5zm0 33.2h221.7v8.5H26.5zm0-16.6h232v8.5h-232zm0 33.2h197.1v8.5H26.5zm0 16.6h215v8.5h-215zm0 16.6h232v8.5h-232zm0 16.5H229v8.5H26.5zm0 16.6h232v8.5h-232zm0 16.6h221.7v8.5H26.5z"/>
  <path fill="#D20962" d="M185.5 84.5c0 4.7-3.8 8.5-8.5 8.5h-57.1c-4.7 0-8.5-3.8-8.5-8.5V27.4c0-4.7 3.8-8.5 8.5-8.5H177c4.7 0 8.5 3.8 8.5 8.5v57.1z"/>
  <path fill="#FFF" d="M173.2 51.2c0-1.4-1.1-2.5-2.5-2.5h-14.2c-.1 0-.2-.1-.2-.2V34.3c0-1.4-1.1-2.5-2.5-2.5h-9.6c-1.4 0-2.5 1.1-2.5 2.5v14.2c0 .1-.1.2-.2.2h-14.2c-1.4 0-2.5 1.1-2.5 2.5v9.6c0 1.4 1.1 2.5 2.5 2.5h14.2c.1 0 .2.1.2.2v14.2c0 1.4 1.1 2.5 2.5 2.5h9.6c1.4 0 2.5-1.1 2.5-2.5V63.6c0-.1.1-.2.2-.2h14.2c1.4 0 2.5-1.1 2.5-2.5v-9.7z"/>
</svg>