<svg xmlns="http://www.w3.org/2000/svg" width="1527.4" height="381.3" viewBox="0 0 1527.4 381.3">
  <path fill="#FFF" d="M0 203.5c0 78.3 62.2 141.7 139 141.7s139-63.5 139-141.7S215.7 61.8 139 61.8 0 125.3 0 203.5"/>
  <path fill="#FFF" d="M66.1 170.7h138.8v100.6H66.1z"/>
  <path fill="none" stroke="#00A78E" stroke-width="5.739" stroke-miterlimit="10" d="M66.1 170.7h138.8v100.6H66.1z"/>
  <path fill="#00A78E" d="M93.1 163.9c-2.3 0-4.2-1.9-4.2-4.2v-28.9c0-2.3 1.9-4.2 4.2-4.2h5.7c2.3 0 4.2 1.9 4.2 4.2v28.9c0 2.3-1.9 4.2-4.2 4.2h-5.7z"/>
  <path fill="#FFF" d="M98.8 129.5c.7 0 1.3.6 1.3 1.3v28.9c0 .7-.6 1.3-1.3 1.3h-5.7c-.7 0-1.3-.6-1.3-1.3v-28.9c0-.7.6-1.3 1.3-1.3h5.7m0-5.8h-5.7c-3.9 0-7 3.2-7 7v28.9c0 3.9 3.2 7 7 7h5.7c3.9 0 7-3.2 7-7v-28.9c.1-3.8-3.1-7-7-7"/>
  <path fill="#00A78E" d="M170.1 163.9c-2.3 0-4.2-1.9-4.2-4.2v-28.9c0-2.3 1.9-4.2 4.2-4.2h5.7c2.3 0 4.2 1.9 4.2 4.2v28.9c0 2.3-1.9 4.2-4.2 4.2h-5.7z"/>
  <path fill="#FFF" d="M175.8 129.5c.7 0 1.3.6 1.3 1.3v28.9c0 .7-.6 1.3-1.3 1.3h-5.7c-.7 0-1.3-.6-1.3-1.3v-28.9c0-.7.6-1.3 1.3-1.3h5.7m0-5.8h-5.7c-3.9 0-7 3.2-7 7v28.9c0 3.9 3.2 7 7 7h5.7c3.9 0 7-3.2 7-7v-28.9c.1-3.8-3.1-7-7-7"/>
  <path fill="#00A78E" d="M77.3 282.9c-10.4 0-18.8-8.4-18.8-18.8V153.4c0-10.4 8.4-18.8 18.8-18.8h12.4v25c0 1.9 1.5 3.4 3.4 3.4h5.7c1.9 0 3.4-1.5 3.4-3.4v-25h64.4v25c0 1.9 1.5 3.4 3.4 3.4h5.7c1.9 0 3.4-1.5 3.4-3.4v-25h19.5c10.4 0 18.8 8.4 18.8 18.8v110.7c0 10.4-8.4 18.8-18.8 18.8H77.3zm12.8-100.4c-7.2 0-13.1 5.9-13.1 13.1v54.8c0 7.2 5.9 13.1 13.1 13.1h95.8c7.2 0 13.1-5.9 13.1-13.1v-54.8c0-7.2-5.9-13.1-13.1-13.1H90.1z"/>
  <path fill="#FFF" d="M198.7 137.5c8.8 0 15.9 7.2 15.9 15.9v110.7c0 8.8-7.2 15.9-15.9 15.9H77.3c-8.8 0-15.9-7.2-15.9-15.9V153.4c0-8.8 7.2-15.9 15.9-15.9h9.5v22.2c0 3.5 2.8 6.3 6.3 6.3h5.7c3.5 0 6.3-2.8 6.3-6.3v-22.2h58.7v22.2c0 3.5 2.8 6.3 6.3 6.3h5.7c3.5 0 6.3-2.8 6.3-6.3v-22.2h16.6M90.1 266.4h95.8c8.8 0 15.9-7.2 15.9-15.9v-54.8c0-8.8-7.2-15.9-15.9-15.9H90.1c-8.8 0-15.9 7.2-15.9 15.9v54.8c-.1 8.7 7.1 15.9 15.9 15.9m108.6-134.6h-22.3v27.9c0 .3-.2.5-.5.5h-5.7c-.3 0-.5-.2-.5-.5v-27.9H99.6v27.9c0 .3-.2.5-.5.5h-5.7c-.3 0-.5-.2-.5-.5v-27.9H77.7c-12 0-21.7 9.7-21.7 21.7v110.7c0 12 9.7 21.7 21.7 21.7h121.4c12 0 21.7-9.7 21.7-21.7V153.4c-.4-11.9-10.2-21.6-22.1-21.6M90.1 260.7c-5.6 0-10.2-4.6-10.2-10.2v-54.8c0-5.6 4.6-10.2 10.2-10.2h95.8c5.6 0 10.2 4.6 10.2 10.2v54.8c0 5.6-4.6 10.2-10.2 10.2H90.1z"/>
  <path fill="#00A78E" d="M92.9 201.4h8.9v8.9h-8.9z"/>
  <path fill="#D20962" d="M106 201.4h8.9v8.9H106z"/>
  <path fill="#00A78E" d="M119.1 201.4h8.9v8.9h-8.9zm13.1 0h8.9v8.9h-8.9zm13.1 0h8.9v8.9h-8.9zm13.1 0h8.9v8.9h-8.9zm13.1 0h8.9v8.9h-8.9zm-78.6 11.5h8.9v8.9h-8.9zm13.1 0h8.9v8.9H106zm13.1 0h8.9v8.9h-8.9zm13.1 0h8.9v8.9h-8.9zm13.1 0h8.9v8.9h-8.9zm13.1 0h8.9v8.9h-8.9zm13.1 0h8.9v8.9h-8.9zm-78.6 11.6h8.9v8.9h-8.9zm13.1 0h8.9v8.9H106zm13.1 0h8.9v8.9h-8.9zm13.1 0h8.9v8.9h-8.9zm13.1 0h8.9v8.9h-8.9zm13.1 0h8.9v8.9h-8.9zm13.1 0h8.9v8.9h-8.9zm-78.6 11.6h8.9v8.9h-8.9zm13.1 0h8.9v8.9H106zm13.1 0h8.9v8.9h-8.9zm13.1 0h8.9v8.9h-8.9zm13.1 0h8.9v8.9h-8.9zm13.1 0h8.9v8.9h-8.9zm13.1 0h8.9v8.9h-8.9zm-78.6 11.5h8.9v8.9h-8.9zm13.1 0h8.9v8.9H106z"/>
  <path fill="none" stroke="#FFF" stroke-width="4" stroke-linecap="round" stroke-miterlimit="10" d="M292 271.7s-.5-21.7 17.2-19.2c6 .8 16 5.3 14.8 19.2v107.5"/>
  <path fill="#FFF" d="M415.3 101.8s1.1-10.2 4.3-7.3c2.6 2.4 3.8 13.3 2.3 20.9-.7 3.4-4.8 7.2-6.4 5.6-1.8-1.8-.2-19.2-.2-19.2m-68-1.8s-1.5-10.2-4.8-7.2c-3.5 3.1-3.2 16.1-2 20.9.8 3.4 5.3 7.1 7.1 5.4 1.8-1.7-.3-19.1-.3-19.1"/>
  <path fill="#FFF" d="M345.7 85.7c0 3.6-2.3 32.3 7.7 44.8 5.7 7.1 13.7 14 18.3 15.1 7.5 1.8 12.4 3.1 19.1 1.7 6.6-1.4 16.4-8.4 22.4-21.8 2.9-6.4 10.7-56.4-3.8-70.5-9.4-9.3-30.1-8.1-38.2-7.7-8 .3-25.8 3.2-25.5 38.4m32.2 293.5s-1.3-9.8-21.3-8.9c-20.1.9-21.6 7.3-22.4 9.1m95-.2s-1.3-9.8-21.3-8.9c-20.1.9-21.6 7.3-22.4 9.1"/>
  <path fill="#FFF" d="M356.1 379.2l-3.8-108.1h56.3l-1.3 108.1h-23v-87.6c0-2.3-.8-4.2-3.4-4.2-2.6 0-3.4 1.9-3.4 4.2v87.6h-21.4z"/>
  <path fill="#00A78E" d="M395.1 97.5c0 1.9 1.6 3.5 3.6 3.5s3.6-1.6 3.6-3.5-1.6-3.5-3.6-3.5-3.6 1.6-3.6 3.5"/>
  <path fill="#00A78E" d="M409.4 98.5s-4.9-4.6-10.7-4.7c-3 0-6.2 1.3-9 5l.9 1c2.6-3.4 5.4-4.5 8.1-4.5 2.6 0 5.1 1.1 7 2.2.9.5 1.7 1.1 2.2 1.5.3.2.5.4.6.5l.2.2.7-1.2z"/>
  <path fill="#FFF" d="M397.8 97.5c0 .7-.4 1.2-.8 1.2-.5 0-.8-.5-.8-1.2s.4-1.2.8-1.2.8.5.8 1.2"/>
  <path fill="#00A78E" d="M371 97.5c0 1.9-1.6 3.5-3.6 3.5s-3.6-1.6-3.6-3.5 1.6-3.5 3.6-3.5 3.6 1.6 3.6 3.5"/>
  <path fill="#00A78E" d="M357.5 99.7l.2-.2c.9-.8 5.1-4.2 9.7-4.2 2.7 0 5.5 1.1 8.1 4.5l.9-1c-2.8-3.7-6-5-9-5-5.8 0-10.6 4.6-10.7 4.7l.8 1.2z"/>
  <path fill="#FFF" d="M366.1 97.5c0 .7-.4 1.2-.8 1.2-.5 0-.8-.5-.8-1.2s.4-1.2.8-1.2.8.5.8 1.2"/>
  <path fill="#00A78E" d="M373.4 82s4.5 4 .7 4.8-10-.6-12.8 0c-2.8.6-8.2 2.7-8.2 2.7l-.3-2.3c-.1 0 7.4-7.1 20.6-5.2m19-3.7s-4.4 3.9-.6 4.7c3.8.9 10-.3 12.8.5 2.8.7 8.3 3 8.3 3l.3-2.3s-7.6-7.3-20.8-5.9m-13.6 38s.3.1.8.2 1.2.2 2 .3c.8.1 1.8.2 2.8.1.5-.1 1-.2 1.2-.5.1-.1.1-.2.1-.2v-.2l.1-.2c.1-.3.1-.5.1-.8.1-1.1 0-2.2 0-3.2-.1-1.1-.1-2-.2-2.9-.1-.8-.1-1.6-.2-2.1 0-.5-.1-.8-.1-.8s.4 1.1.8 2.8c.4 1.7.8 3.9.7 6.3 0 .3-.1.7-.2.9l-.1.2v.1l-.1.1c-.1.2-.2.4-.3.5-.5.6-1.2.6-1.8.7-.6.1-1.1 0-1.6-.1s-1-.2-1.4-.3c-1.6-.4-2.6-.9-2.6-.9m15.8 11.7s-12.6 5.2-23 .8c1.5 3.1 15.3 10.6 23-.8"/>
  <path fill="#32CFB6" d="M390.3 138.2s-7.8-3.1-14.2-.5c.8-1.7 9.4-6.1 14.2.5"/>
  <path fill="#FFF" d="M344.2 92s-6.6-17.2-5.3-24c1.3-6.9 4.7-13 16.8-24 7.9-7.2 21.9-8.4 23.4-6.6 2.4 2.7 6.4 3.9 9.4.4 2.9-3.4 13.4-1.2 12.1 1.6 5.6-3.2 9.4 2.7 9.4 2.7s21 2.7 9.5 57c-1 4.8-2.2 10.2-2.2 10.2-4.2.3-.4-6.3.2-26.3.9-27.6-24.7-21.6-34.2-22.6-11.5-1.3-30.7-2.8-34.2 12-3.4 14.8-1.9 34.7-1.9 34.7l-3.2 3.2V92z"/>
  <path fill="none" stroke="#00A78E" stroke-width=".987" stroke-miterlimit="10" d="M344.2 92s-6.6-17.2-5.3-24c1.3-6.9 4.7-13 16.8-24 7.9-7.2 21.9-8.4 23.4-6.6 2.4 2.7 6.4 3.9 9.4.4 2.9-3.4 13.4-1.2 12.1 1.6 5.6-3.2 9.4 2.7 9.4 2.7s21 2.7 9.5 57c-1 4.8-2.2 10.2-2.2 10.2-4.2.3-.4-6.3.2-26.3.9-27.6-24.7-21.6-34.2-22.6-11.5-1.3-30.7-2.8-34.2 12-3.4 14.8-1.9 34.7-1.9 34.7l-3.2 3.2V92z"/>
  <path fill="#FFF" d="M374.3 148.1s.3 9.7-4.3 12.4c-4.1 2.4-6 2.9-6 2.9s20.2 8.1 36.3 1.5c-8.7-2.4-8.1-5.4-8.1-5.4l-1.5-10.1-16.4-1.3z"/>
  <path fill="none" stroke="#00A78E" stroke-width="1.185" stroke-miterlimit="10" d="M374.3 148.1s.3 9.7-4.3 12.4c-4.1 2.4-6 2.9-6 2.9s20.2 8.1 36.3 1.5c-8.7-2.4-8.1-5.4-8.1-5.4l-1.5-10.1-16.4-1.3z"/>
  <path fill="#FFF" d="M430.8 206.5l-20.2 4.7-2.2-9.6 2.3 23.4c.3 4 .5 16.9-.5 28.5l-2 15.5H353l-2-18.2c-.6-9.6.1-23.9.4-27.6l1.3-31.3-9.3 12.5-14.9-14.5s4.8-5.3 10.9-15.6c5.1-8.8 24.6-10.9 24.6-10.9l18.6 3 17.7-1.4s16.4 4.1 23.4 19.1c6.9 15 6.9 22.2 6.9 22.2"/>
  <path fill="none" stroke="#00A78E" stroke-width=".987" stroke-miterlimit="10" d="M430.8 206.5l-20.2 4.7-2.2-9.6 2.3 23.4c.3 4 .5 16.9-.5 28.5l-2 15.5H353l-2-18.2c-.6-9.6.1-23.9.4-27.6l1.3-31.3-9.3 12.5-14.9-14.5s4.8-5.3 10.9-15.6c5.1-8.8 24.6-10.9 24.6-10.9l18.6 3 17.7-1.4s16.4 4.1 23.4 19.1c6.9 15 6.9 22.2 6.9 22.2"/>
  <path fill="#FFF" d="M312.9 249.3c-.1.6-4.9-.5-4.9-.5s-.8-.9-1.2-.9c-.3 0-1.3.6-1.3.6-.9.4-.9 1.4-1.1 2.4-.1.7-.3 1.6-.4 2.1-.1.4 0 .9.2 1.3l1.2 2.7c.3.7-.2.9-.6 1.3l-.5.1c-.7.1-1.5-.3-1.8-1l-1.3-3c-.2-.2-.3-.4-.3-.7l-.2-7.5c0-.4.6-2.2.8-2.5l5.1-4.9c.1-.2 1-1.3 1.1-1.5l9.7-28.1 2.7-4.3s8.6-14.2 9.7-13.1l11.4 11.1c.9.9-3.8 3-3.8 3-4.8 4.6-6.5 6.1-8.9 9.2l-15 27.5c-.1.1-.1.3-.2.4l-.4 6.3z"/>
  <path fill="none" stroke="#00A78E" stroke-width=".987" stroke-miterlimit="10" d="M312.9 249.3c-.1.6-4.9-.5-4.9-.5s-.8-.9-1.2-.9c-.3 0-1.3.6-1.3.6-.9.4-.9 1.4-1.1 2.4-.1.7-.3 1.6-.4 2.1-.1.4 0 .9.2 1.3l1.2 2.7c.3.7-.2.9-.6 1.3l-.5.1c-.7.1-1.5-.3-1.8-1l-1.3-3c-.2-.2-.3-.4-.3-.7l-.2-7.5c0-.4.6-2.2.8-2.5l5.1-4.9c.1-.2 1-1.3 1.1-1.5l9.7-28.1 2.7-4.3s8.6-14.2 9.7-13.1l11.4 11.1c.9.9-3.8 3-3.8 3-4.8 4.6-6.5 6.1-8.9 9.2l-15 27.5c-.1.1-.1.3-.2.4l-.4 6.3z"/>
  <path fill="#FFF" d="M417.6 288.2c-.5 0-1.1-.2-1.4-.6l-.4-.4-.1-.3c-.1-.4-.4-1.2.4-1.8l2.5-1.6c.4-.2.6-.5.7-.7l.9-2c.3-.7.2-1.5-.2-2.1l-.6-.8-3.9 5.1h-.2c-.9 0-1.5-.3-1.8-.8-.4-.7-.3-1.7.4-3.2l3-9.7c0-.1 0-.2.1-.3l2.6-31.2c-.2-1.7-.8-4.1-1.6-7.1-.1-.2-.1-.3-.1-.3-1.6-5.2-5.3-17.6-4.5-18.9.1-.2.2-.3.4-.3l15.7-3.1h.1c.5 0 2 0 3.7 25.8l-.1 5.2-7.3 28.9c0 .2 0 1.4.1 1.6l1.6 6.8c.1.6-.4 2.5-.7 2.9l-4.3 6.2c-.2.3-.5.5-.8.6l-2.6 1.8c-.8.2-1.2.3-1.6.3"/>
  <path fill="#00A78E" d="M429.3 208.6c1.6 0 3.2 25.3 3.2 25.3l-.1 5.1-7.3 28.8c-.1.2 0 1.6.1 1.8l1.6 6.9c.1.4-.4 2.2-.6 2.5l-4.3 6.2c-.1.2-.4.3-.6.4l-2.7 1.8c-.3.2-.6.3-.9.3-.4 0-.8-.1-1.1-.4l-.3-.3c-.1-.5-.4-1 .2-1.4l2.5-1.6c.4-.2.7-.6.9-1 .2-.5.6-1.3.9-2 .4-.9.3-1.8-.3-2.6l-1-1.3-3.6 4.7-.6.8c-2 0-1.7-1.6-.9-3.3l3-9.8c0-.1.1-.3.1-.4l2.6-31.2c-.4-3.1-1.6-7.3-1.7-7.5 0 0-5.7-18.4-4.5-18.7l15.4-3.1m0-.9h-.2l-15.7 3.1c-.3.1-.6.3-.8.5-.3.5-.7 1.2 1.9 10.6 1.2 4.4 2.5 8.6 2.6 8.8 0 .1 0 .2.1.3.8 2.9 1.3 5.2 1.5 6.9l-2.6 31.1v.2l-3 9.7c-.5 1-1 2.5-.3 3.6.3.5.9 1 2.2 1h.5l.3-.4.6-.8 2.8-3.6.2.3c.4.5.4 1.1.2 1.6l-.8 1.9v.1c-.1.2-.2.4-.5.5l-2.5 1.6c-1.2.8-.8 1.9-.6 2.4v.1l.1.2.2.2.3.3c.4.4 1.1.7 1.8.7.5 0 1-.1 1.4-.4l2.6-1.7c.4-.1.8-.4 1-.7l4.3-6.2c.4-.5.9-2.5.8-3.2l-1.6-6.8c0-.3-.1-1.2-.1-1.5l7.3-28.8v-.2l.1-5.1c0-.1-.4-6.4-1-12.7-.4-3.7-.7-6.6-1-8.8-.6-3.8-1-4.8-2.1-4.8"/>
  <path fill="#FFF" d="M399.6 126.7c0-1.8-.7-3.3-.7-3.3-4.1-8.6-15.6-3.1-15.6-3.1h-.2s-11.6-5.5-15.6 3.1c0 0-.7 1.5-.7 3.3-.1 1-.1 1.8.2 1.6.3-.2.6-.1.7.2.1.3.4.3.7 0 .2-.3.6-.2.7 0 .2.3.5.3.7 0s.6-.3.7 0c.2.3.5.3.7 0 .2-.3.5-.3.8 0 .2.3.6.3.9 0 .2-.3.6-.3.8 0 .2.3.6.3.8 0 .2-.3.6-.3.8 0 .2.3.5.3.7 0 .2-.3.5-.3.7 0 .2.3.5.3.6 0 .1-.3.4-.3.7 0 .2.3.5.3.7 0 .1-.3.4-.3.7 0 .2.3.6.3.9 0 .2-.3.5-.3.7-.1.1.2.6 0 1-.3.2-.2.7-1 1.2-1s1 .8 1.2 1c.4.4.9.5 1 .3.1-.2.5-.1.7.1.2.3.6.3.9 0 .2-.3.6-.2.7 0 .1.3.4.3.7 0 .2-.3.5-.3.7 0 .1.3.4.3.6 0 .2-.3.6-.3.7 0 .2.3.5.3.7 0 .2-.3.6-.3.8 0 .2.3.6.3.8 0 .2-.3.6-.3.8 0 .2.3.6.3.9 0 .2-.3.6-.3.8 0 .2.3.5.3.7 0 .2-.3.5-.3.7 0s.5.3.7 0c.2-.3.5-.3.7 0 .2.3.5.3.7 0 .1-.3.5-.3.7-.2.2.2.3-.5.2-1.6"/>
  <path fill="none" stroke="#00A78E" stroke-miterlimit="10" d="M399.6 126.7c0-1.8-.7-3.3-.7-3.3-4.1-8.6-15.6-3.1-15.6-3.1h-.2s-11.6-5.5-15.6 3.1c0 0-.7 1.5-.7 3.3-.1 1-.1 1.8.2 1.6.3-.2.6-.1.7.2.1.3.4.3.7 0 .2-.3.6-.2.7 0 .2.3.5.3.7 0s.6-.3.7 0c.2.3.5.3.7 0 .2-.3.5-.3.8 0 .2.3.6.3.9 0 .2-.3.6-.3.8 0 .2.3.6.3.8 0 .2-.3.6-.3.8 0 .2.3.5.3.7 0 .2-.3.5-.3.7 0 .2.3.5.3.6 0 .1-.3.4-.3.7 0 .2.3.5.3.7 0 .1-.3.4-.3.7 0 .2.3.6.3.9 0 .2-.3.5-.3.7-.1.1.2.6 0 1-.3.2-.2.7-1 1.2-1s1 .8 1.2 1c.4.4.9.5 1 .3.1-.2.5-.1.7.1.2.3.6.3.9 0 .2-.3.6-.2.7 0 .1.3.4.3.7 0 .2-.3.5-.3.7 0 .1.3.4.3.6 0 .2-.3.6-.3.7 0 .2.3.5.3.7 0 .2-.3.6-.3.8 0 .2.3.6.3.8 0 .2-.3.6-.3.8 0 .2.3.6.3.9 0 .2-.3.6-.3.8 0 .2.3.5.3.7 0 .2-.3.5-.3.7 0s.5.3.7 0c.2-.3.5-.3.7 0 .2.3.5.3.7 0 .1-.3.5-.3.7-.2.2.2.3-.5.2-1.6z"/>
  <path fill="#00A78E" d="M424 93.9c-.3-.1-.7-.3-1-.4-7.7-2.6-15.7-4-23.9-3.6-3.5.2-7 .7-10.2 2.2-1.1.5-2.1 1-2.1 2.4-1.2-.2-7-.2-8.3 0 0-1.4-1.1-1.9-2.1-2.4-3.3-1.5-6.7-2-10.2-2.2-8.2-.4-16.1 1-23.9 3.6-.4.1-.7.3-1 .4-1.5.7-2.1 1.7-1.7 3.3 0 .2.4.5.7.5 1.8.1 1.5 0 2.2 1.2.3.5.6 1 1.2 1.3 2.1.9 2.6.7 3.3 3 .4 1.4 1.7 4 2.6 5.1 1.8 2.2 4.5 3.4 7.3 3.8 3.7.5 7.5.3 11.2-.6 3.4-.8 5.7-3.1 7.3-6.1 1.1-2.1 1.7-4.3 1.9-6.6.2-2.2 2-3.4 4.2-3.5h2.7c2.2.1 4 1.2 4.2 3.5.2 2.3.8 4.6 1.9 6.6 1.6 3 3.9 5.2 7.3 6.1 3.7.9 7.4 1 11.2.6 2.9-.4 5.6-1.6 7.3-3.8.9-1.1 2.2-3.7 2.6-5.1.6-2.3 1.2-2.1 3.3-3 .6-.3.9-.7 1.2-1.3.7-1.2.4-1.1 2.2-1.2.2 0 .6-.3.7-.5 0-1.6-.6-2.7-2.1-3.3m-47.5 5.6c-.2 1.2-.4 2.4-.8 3.5-1.5 4.3-4.2 7.4-8.8 8.3-3.5.7-7 .6-10.6.2-4.5-.5-7.1-3.1-8.4-7.2-.5-1.4-.9-3-.8-4.5.5-5.9 7.3-7.7 12.5-8.1 4.6-.4 9.1-.1 13.4 1.7 2.5 1.1 4.1 2.9 3.5 6.1m40.8 4.8c-1.3 4.1-3.9 6.7-8.4 7.2-3.5.4-7.1.5-10.6-.2-4.6-.9-7.3-4-8.8-8.3-.4-1.1-.6-2.3-.8-3.5-.6-3.2 1-5 3.5-6.1 4.3-1.8 8.8-2.1 13.4-1.7 5.2.4 12 2.2 12.5 8.1.1 1.5-.3 3.1-.8 4.5"/>
  <path fill="#FFF" d="M1507.5 91.4s1.2-10.6 4.5-7.6c2.7 2.4 4 13.8 2.3 21.7-.7 3.5-4.9 7.5-6.7 5.8-1.7-1.8-.1-19.9-.1-19.9m-70.5-1.8s-1.5-10.5-5-7.5c-3.7 3.2-3.3 16.7-2 21.7.9 3.5 5.5 7.4 7.4 5.6 1.8-1.8-.4-19.8-.4-19.8"/>
  <path fill="#FFF" d="M1435.4 74.7c0 3.7-2.4 33.5 8 46.5 5.9 7.4 14.2 14.6 19 15.7 7.8 1.8 12.9 3.2 19.8 1.7 6.9-1.5 17-8.7 23.3-22.6 3-6.6 11.1-58.5-3.9-73.2-9.8-9.6-31.3-8.4-39.6-8-8.5.4-27 3.3-26.6 39.9m10.8 304.6l-3.9-112.2h58.4l-1.3 112.2h-23.9v-90.9c0-2.4-.9-4.3-3.5-4.3-2.7 0-3.5 1.9-3.5 4.3v90.9h-22.3z"/>
  <path fill="#00A78E" d="M1486.6 87c0 2 1.7 3.7 3.7 3.7 2.1 0 3.7-1.6 3.7-3.7 0-2-1.7-3.7-3.7-3.7s-3.7 1.7-3.7 3.7"/>
  <path fill="#00A78E" d="M1501.4 87.9s-5.1-4.8-11.1-4.8c-3.1 0-6.4 1.3-9.3 5.2l.9 1.1c2.7-3.6 5.6-4.7 8.4-4.7 2.7 0 5.3 1.1 7.2 2.3 1 .6 1.7 1.1 2.3 1.6.3.2.5.4.6.5l.2.2.8-1.4z"/>
  <path fill="#FFF" d="M1489.4 86.9c0 .7-.4 1.3-.9 1.3s-.9-.6-.9-1.3c0-.7.4-1.3.9-1.3.5.1.9.6.9 1.3"/>
  <path fill="#00A78E" d="M1461.6 87c0 2-1.7 3.7-3.7 3.7s-3.7-1.6-3.7-3.7c0-2 1.7-3.7 3.7-3.7 2.1 0 3.7 1.7 3.7 3.7"/>
  <path fill="#00A78E" d="M1447.6 89.2l.2-.2c1-.9 5.3-4.4 10.1-4.3 2.8 0 5.7 1.1 8.4 4.7l.9-1.1c-2.9-3.9-6.2-5.2-9.3-5.2-6 0-11 4.8-11.1 4.8l.8 1.3z"/>
  <path fill="#FFF" d="M1456.5 86.9c0 .7-.4 1.3-.9 1.3s-.9-.6-.9-1.3c0-.7.4-1.3.9-1.3.5.1.9.6.9 1.3"/>
  <path fill="#00A78E" d="M1464.1 70.8s4.7 4.2.7 4.9c-4 .8-10.4-.6-13.3 0-2.9.6-8.5 2.8-8.5 2.8l-.4-2.4c0 .1 7.8-7.2 21.5-5.3m19.7-3.8s-4.6 4-.6 4.9c4 .9 10.4-.3 13.3.5 2.9.7 8.6 3.2 8.6 3.2l.3-2.4s-7.9-7.6-21.6-6.2m-14.1 39.4s1.2.1 2.9.2c.9 0 1.9.1 2.8 0 .2 0 .4-.1.6-.2.1 0 .1-.1.2-.1s.1-.1.1-.1c.1 0 0-.1.1-.1v.1-.1l.1-.2c.1-.3.1-.5.1-.7.1-1.1.1-2.2 0-3.3 0-1.1-.1-2.1-.1-3 0-1.8.1-3 .1-3s.6 1.1 1.1 2.8c.3.9.5 1.9.7 3 .2 1.1.3 2.3.2 3.6-.1.3-.1.8-.2 1l-.1.2v.2l-.1.2c-.1.2-.2.5-.4.6-.2.2-.4.3-.6.4-.2.1-.4.2-.6.2-.4.1-.7.2-1 .2-.7 0-1.2-.1-1.8-.2-.5-.1-1-.3-1.4-.4-1.8-.5-2.7-1.3-2.7-1.3m-7.4 6.5s13.1 5.4 23.8.9c-1.5 3.1-15.8 10.9-23.8-.9m-28.5-31.7s-6.9-17.8-5.5-24.9c1.4-7.1 4.9-13.5 17.5-24.9 8.2-7.4 22.7-8.7 24.3-6.9 2.4 2.8 6.7 4 9.7.4 3.1-3.6 13.9-1.3 12.5 1.6 5.8-3.3 9.8 2.8 9.8 2.8s21.8 2.8 9.9 59.1c-1 4.9-2.3 10.6-2.3 10.6-4.4.3-.5-6.6.2-27.3.9-28.6-25.6-22.4-35.5-23.5-11.9-1.3-31.9-2.9-35.5 12.5-3.6 15.4-1.9 36-1.9 36l-3.3 3.4V81.2z"/>
  <path fill="none" stroke="#FFF" stroke-width="2" stroke-miterlimit="10" d="M1433.8 81.2s-6.9-17.8-5.5-24.9c1.4-7.1 4.9-13.5 17.5-24.9 8.2-7.4 22.7-8.7 24.3-6.9 2.4 2.8 6.7 4 9.7.4 3.1-3.6 13.9-1.3 12.5 1.6 5.8-3.3 9.8 2.8 9.8 2.8s21.8 2.8 9.9 59.1c-1 4.9-2.3 10.6-2.3 10.6-4.4.3-.5-6.6.2-27.3.9-28.6-25.6-22.4-35.5-23.5-11.9-1.3-31.9-2.9-35.5 12.5-3.6 15.4-1.9 36-1.9 36l-3.3 3.4V81.2z"/>
  <path fill="#FFF" d="M1465 139.4s.3 10.1-4.5 12.9c-4.3 2.5-6.2 3.1-6.2 3.1s20.9 8.4 37.7 1.6c-9-2.4-8.4-5.6-8.4-5.6l-1.6-10.5-17-1.5z"/>
  <path fill="none" stroke="#00A78E" stroke-width="2" stroke-miterlimit="10" d="M1465 139.4s.3 10.1-4.5 12.9c-4.3 2.5-6.2 3.1-6.2 3.1s20.9 8.4 37.7 1.6c-9-2.4-8.4-5.6-8.4-5.6l-1.6-10.5-17-1.5z"/>
  <path fill="#FFF" d="M1523.6 200l-21 4.8-2.3-9.9 2.4 24.3c.3 4.1.5 17.5-.5 29.6l-2.1 16.1H1443l-2.1-18.9c-.6-10 .1-24.8.4-28.7l3.3-22.6-2.8 9.3-20.1-4.7s2.1-7.3 9.3-22.9c7.2-15.6 23.2-21 23.2-21l19.3 3.1 18.4-1.5s17 4.3 24.3 19.9c7.2 15.6 7.2 23.1 7.2 23.1"/>
  <path fill="none" stroke="#00A78E" stroke-width="2" stroke-miterlimit="10" d="M1523.6 200l-21 4.8-2.3-9.9 2.4 24.3c.3 4.1.5 17.5-.5 29.6l-2.1 16.1H1443l-2.1-18.9c-.6-10 .1-24.8.4-28.7l3.3-22.6-2.8 9.3-20.1-4.7s2.1-7.3 9.3-22.9c7.2-15.6 23.2-21 23.2-21l19.3 3.1 18.4-1.5s17 4.3 24.3 19.9c7.2 15.6 7.2 23.1 7.2 23.1"/>
  <path fill="#FFF" d="M1439 275.4c.8 1.7 1.1 3.4-1.1 3.4l-.6-.8-3.6-4.9-1 1.4c-.6.8-.7 1.8-.4 2.7.3.7.6 1.5.8 2.1.2.4.5.8.9 1l2.5 1.7c.6.4.3.9.2 1.4l-.4.3c-.5.5-1.4.5-2.1.1l-2.8-2c-.3-.1-.5-.2-.7-.4l-4.3-6.5c-.3-.4-.7-2.2-.6-2.6l1.8-7.1c0-.2.2-1.7.1-1.9l-6.8-30.1V228s.8-26.5 2.4-26.2l16.2 3.5c1.3.3-2.6 14-2.6 14-1.7 6.7-2.4 9-2.8 12.9l1.8 32.5c0 .2 0 .3.1.5l3 10.2z"/>
  <path fill="none" stroke="#00A78E" stroke-width="2" stroke-miterlimit="10" d="M1439 275.4c.8 1.7 1.1 3.4-1.1 3.4l-.6-.8-3.6-4.9-1 1.4c-.6.8-.7 1.8-.4 2.7.3.7.6 1.5.8 2.1.2.4.5.8.9 1l2.5 1.7c.6.4.3.9.2 1.4l-.4.3c-.5.5-1.4.5-2.1.1l-2.8-2c-.3-.1-.5-.2-.7-.4l-4.3-6.5c-.3-.4-.7-2.2-.6-2.6l1.8-7.1c0-.2.2-1.7.1-1.9l-6.8-30.1V228s.8-26.5 2.4-26.2l16.2 3.5c1.3.3-2.6 14-2.6 14-1.7 6.7-2.4 9-2.8 12.9l1.8 32.5c0 .2 0 .3.1.5l3 10.2z"/>
  <path fill="#FFF" d="M1509.9 285.3c-.7 0-1.4-.3-1.8-.7l-.5-.5-.1-.4c-.1-.4-.5-1.6.6-2.4l2.6-1.7c.3-.2.5-.4.6-.6l.9-2c.3-.6.2-1.2-.2-1.7l-.2-.3-3.8 5h-.5c-1.4 0-2-.6-2.3-1-.7-1.1-.1-2.6.4-3.7l3.1-10.1v-.2l2.7-32.3c-.3-1.8-.8-4.2-1.6-7.2 0-.1-.1-.2-.1-.3-5.7-18.4-4.9-19.7-4.7-20.1.2-.3.4-.5.8-.5l16.4-3.2h.1c1 0 2.6 0 4.3 27.2l-.1 5.5-7.6 30c0 .1.1 1.3.1 1.5l1.6 7c.1.8-.4 2.9-.8 3.4l-4.5 6.4c-.2.4-.6.6-1.1.8l-2.7 1.8c-.5.2-1 .3-1.6.3"/>
  <path fill="#00A78E" d="M1522.1 202.3c1.6 0 3.4 26.3 3.4 26.3l-.1 5.3-7.6 29.9c-.1.2 0 1.7.1 1.9l1.7 7.1c.1.4-.4 2.2-.7 2.6l-4.5 6.4c-.1.2-.4.3-.7.4l-2.8 1.9c-.3.2-.6.3-.9.3-.4 0-.8-.1-1.1-.4l-.4-.3c-.2-.5-.4-1 .2-1.4l2.5-1.7c.4-.2.8-.6.9-1 .2-.5.6-1.4.9-2.1.4-.9.3-1.9-.3-2.7l-1-1.4-3.7 4.9-.6.8c-2.1 0-1.8-1.7-1-3.4l3.1-10.1c0-.1.1-.3.1-.5l2.7-32.4c-.4-3.2-1.7-7.6-1.7-7.8 0 0-5.9-19.1-4.7-19.4l16.2-3.2m0-2h-.4l-16.2 3.2c-.6.1-1.1.5-1.4 1-.5.8-1.3 2.1 4.6 20.9 0 .1 0 .2.1.3.8 2.9 1.3 5.3 1.6 7l-2.6 32.2-3 10c-.6 1.3-1.2 3.1-.3 4.6.4.6 1.2 1.4 2.7 1.5-.6.6-.9 1.6-.5 3.1v.1l.2.5.4.4.4.3c.6.6 1.6 1 2.5 1 .7 0 1.4-.2 2-.6l2.6-1.7c.6-.2 1.1-.6 1.4-1.1l4.5-6.4c.5-.7 1.2-3.1 1-4.1v-.2l-1.6-7c0-.3-.1-.9-.1-1.2l7.5-29.7.1-.2v-.2l.1-5.3v-.2c0-.1-.4-6.7-1.1-13.2-.4-3.9-.7-6.9-1.1-9.1-.7-3.1-1.1-5.9-3.4-5.9m-12.1 78.6l.5-.7-.2.5-.1.1h-.1l-.1.1z"/>
  <path fill="#FFF" d="M1467.2 379.2s-1.2-9.5-20.6-8.6c-19.4.8-20.9 7.1-21.6 8.8m93.2-.2s-1.2-9.5-20.6-8.6c-19.4.8-20.9 7.1-21.6 8.8m-353.4-177.2c0 78.3 62.2 141.7 139 141.7s139-63.5 139-141.7-62.2-141.7-139-141.7-139 63.5-139 141.7"/>
  <path fill="#00A78E" d="M1282.5 269.4v-10c-3-.3-5.4-2.9-5.4-6s2.3-5.6 5.4-6v-7.1h34c.4-4.7 4.2-8.4 9-8.5V116.4h-135.7v166.4h84.3c-.5-1.1-.7-2.4-.7-3.6 0-5.2 4-9.5 9.1-9.8"/>
  <path fill="none" stroke="#00A78E" stroke-miterlimit="10" d="M1282.5 269.4v-10c-3-.3-5.4-2.9-5.4-6s2.3-5.6 5.4-6v-7.1h34c.4-4.7 4.2-8.4 9-8.5V116.4h-135.7v166.4h84.3c-.5-1.1-.7-2.4-.7-3.6 0-5.2 4-9.5 9.1-9.8z"/>
  <path fill="#00A78E" d="M1326.3 245.2v1.7h-34.4v6.7c-.5 0-5.2.6-5.3 5.2-.1 3.7 3.4 4.7 5.3 5v11.7c-1.4 0-3.5.6-3.5.6s-2.8.6-4.9 4.1c-2.1 3.4 0 7.9 0 7.9h49.9v-49.5c0-.1-7.1 1.1-7.1 6.6"/>
  <path fill="#5E9732" d="M1209.5 268.4c.7.6 1.5 1.1 2.6 1.7 1 .6 2.2.9 3.6.9.5 0 1-.1 1.6-.2.5-.1.9-.3 1.3-.6s.7-.6.9-1.1c.2-.5.4-1 .4-1.6 0-.6-.1-1.2-.3-1.7-.2-.5-.5-.9-.9-1.2-.4-.3-.9-.6-1.4-.9-.5-.2-1.1-.5-1.8-.6-1-.3-1.9-.6-2.8-1-.9-.4-1.7-.9-2.3-1.5-.7-.6-1.2-1.3-1.6-2.2-.4-.9-.6-1.9-.6-3.1 0-1.9.5-3.4 1.6-4.6 1.1-1.2 2.4-2.1 4.1-2.5v-4h2.4v3.5h1.7v-3.5h2.4v3.9c.8.2 1.5.4 2.1.7.6.3 1 .5 1.3.7.7.5 1 1 1 1.8 0 .3-.1.8-.4 1.3-.3.6-.6 1.1-1.1 1.6-.6-.5-1.4-1-2.4-1.5s-2.1-.7-3.2-.7c-.5 0-.9 0-1.4.1-.5.1-.9.2-1.3.4s-.7.5-1 .9c-.3.4-.4.9-.4 1.5 0 .5.1 1 .3 1.4.2.4.5.7.9 1 .4.3.9.6 1.5.8.6.2 1.3.5 2.1.8 1 .3 1.9.7 2.7 1.1s1.6.9 2.2 1.6c.6.6 1.1 1.3 1.5 2.2.4.8.6 1.8.6 2.9 0 1.9-.4 3.5-1.3 4.8-.9 1.3-2.1 2.3-3.6 2.9v4.3h-2.4V275c-.3.1-.6.1-.9.1-.3 0-.6.1-.9.1v3.5h-2.4V275c-1.3-.1-2.3-.4-3.1-.7-.8-.3-1.4-.6-1.8-.9-.3-.2-.5-.5-.7-.8-.2-.3-.3-.6-.3-1s.2-1 .5-1.6c.3-.5.6-1.1 1-1.6m90.2 5.2c.7.6 1.5 1.1 2.6 1.7 1 .6 2.2.9 3.6.9.5 0 1-.1 1.6-.2.5-.1 1-.3 1.3-.6.4-.3.7-.6.9-1.1.2-.5.4-1 .4-1.6 0-.6-.1-1.2-.3-1.7-.2-.5-.5-.9-.9-1.2-.4-.3-.9-.6-1.4-.9-.5-.2-1.1-.5-1.8-.6-1-.3-1.9-.6-2.8-1-.9-.4-1.7-.9-2.3-1.5s-1.2-1.3-1.6-2.2c-.4-.9-.6-1.9-.6-3.1 0-1.9.5-3.4 1.6-4.6 1.1-1.2 2.4-2.1 4.1-2.5v-4h2.4v3.5h1.7v-3.5h2.4v3.9c.8.2 1.5.4 2.1.7.6.3 1 .5 1.3.7.7.5 1 1 1 1.8 0 .3-.1.8-.4 1.3-.3.6-.6 1.1-1.1 1.6-.6-.5-1.4-1-2.4-1.5s-2.1-.7-3.2-.7c-.5 0-.9 0-1.4.1-.5.1-.9.2-1.3.4s-.7.5-1 .9c-.3.4-.4.9-.4 1.5 0 .5.1 1 .3 1.4.2.4.5.7.9 1 .4.3.9.6 1.5.8.6.2 1.3.5 2.1.8 1 .3 1.9.7 2.7 1.1.8.4 1.6.9 2.2 1.6.6.6 1.1 1.3 1.5 2.2.4.8.6 1.8.6 2.9 0 1.9-.4 3.5-1.3 4.8-.9 1.3-2.1 2.3-3.6 2.9v4.3h-2.4v-3.7c-.3.1-.6.1-.9.1-.3 0-.6.1-.9.1v3.5h-2.4v-3.6c-1.3-.1-2.3-.4-3.1-.7s-1.4-.6-1.8-.9c-.3-.2-.5-.5-.7-.8-.2-.3-.3-.6-.3-1s.2-1 .5-1.6c.2-.6.6-1.2 1-1.7m-49.1-5.2c.7.6 1.5 1.1 2.6 1.7 1 .6 2.2.9 3.6.9.5 0 1-.1 1.6-.2.5-.1.9-.3 1.3-.6s.7-.6.9-1.1c.2-.5.4-1 .4-1.6 0-.6-.1-1.2-.3-1.7-.2-.5-.5-.9-.9-1.2-.4-.3-.9-.6-1.4-.9-.5-.2-1.1-.5-1.8-.6-1-.3-1.9-.6-2.8-1-.9-.4-1.7-.9-2.3-1.5-.7-.6-1.2-1.3-1.6-2.2-.4-.9-.6-1.9-.6-3.1 0-1.9.5-3.4 1.6-4.6 1.1-1.2 2.4-2.1 4.1-2.5v-4h2.4v3.5h1.7v-3.5h2.4v3.9c.8.2 1.5.4 2.1.7.6.3 1 .5 1.3.7.7.5 1 1 1 1.8 0 .3-.1.8-.4 1.3-.3.6-.6 1.1-1.1 1.6-.6-.5-1.4-1-2.4-1.5s-2.1-.7-3.2-.7c-.5 0-.9 0-1.4.1-.5.1-.9.2-1.3.4s-.7.5-1 .9c-.3.4-.4.9-.4 1.5 0 .5.1 1 .3 1.4.2.4.5.7.9 1 .4.3.9.6 1.5.8.6.2 1.3.5 2.1.8 1 .3 1.9.7 2.7 1.1.8.4 1.6.9 2.2 1.6.6.6 1.1 1.3 1.5 2.2.4.8.6 1.8.6 2.9 0 1.9-.4 3.5-1.3 4.8-.9 1.3-2.1 2.3-3.6 2.9v4.3h-2.4V275c-.3.1-.6.1-.9.1-.3 0-.6.1-.9.1v3.5h-2.4V275c-1.3-.1-2.3-.4-3.1-.7-.8-.3-1.4-.6-1.8-.9-.3-.2-.5-.5-.7-.8-.2-.3-.3-.6-.3-1s.2-1 .5-1.6c.2-.5.6-1.1 1-1.6"/>
  <path fill="#FFF" d="M1202.4 170.2h96.4v4h-96.4zm0 15.8h105.5v4h-105.5zm0-7.9h110.4v4h-110.4zm0 15.8h93.8v4h-93.8zm0 7.9h102.3v4h-102.3zm0 7.9h110.4v4h-110.4zm0 7.9h96.4v4h-96.4zm0 7.9h110.4v4h-110.4zm0 7.9h105.5v4h-105.5z"/>
  <path fill="#D20962" d="M1275.3 153.2c0 4.7-3.8 8.5-8.5 8.5h-18.3c-4.7 0-8.5-3.8-8.5-8.5v-18.3c0-4.7 3.8-8.5 8.5-8.5h18.3c4.7 0 8.5 3.8 8.5 8.5v18.3z"/>
  <path fill="#00A78E" d="M1269.4 143.1c0-1.4-1.1-2.5-2.5-2.5h-5.5s-.1 0-.1-.1V135c0-1.4-1.1-2.5-2.5-2.5h-2c-1.4 0-2.5 1.1-2.5 2.5v5.5s0 .1-.1.1h-5.5c-1.4 0-2.5 1.1-2.5 2.5v2c0 1.4 1.1 2.5 2.5 2.5h5.5s.1 0 .1.1v5.5c0 1.4 1.1 2.5 2.5 2.5h2c1.4 0 2.5-1.1 2.5-2.5v-5.5s0-.1.1-.1h5.5c1.4 0 2.5-1.1 2.5-2.5v-2z"/>
  <text transform="translate(61.81 33.38)">
    <tspan x="0" y="0" fill="#FFF" font-family="'Foco'" font-weight="400" font-size="40">P</tspan>
    <tspan x="20.6" y="0" fill="#FFF" font-family="'Foco'" font-weight="400" font-size="40">r</tspan>
    <tspan x="33.6" y="0" fill="#FFF" font-family="'Foco'" font-weight="400" font-size="40">emiums</tspan>
  </text>
  <text transform="translate(643.09 33.38)">
    <tspan x="0" y="0" fill="#FFF" font-family="'Foco'" font-weight="400" font-size="40">Net</tspan>
    <tspan x="60.6" y="0" fill="#FFF" font-family="'Foco'" font-weight="400" font-size="40">w</tspan>
    <tspan x="87.8" y="0" fill="#FFF" font-family="'Foco'" font-weight="400" font-size="40">ork</tspan>
  </text>
  <text transform="translate(1170.53 33.38)">
    <tspan x="0" y="0" fill="#FFF" font-family="'Foco'" font-weight="400" font-size="40">Deductib</tspan>
    <tspan x="152.2" y="0" fill="#FFF" font-family="'Foco'" font-weight="400" font-size="40">l</tspan>
    <tspan x="161.4" y="0" fill="#FFF" font-family="'Foco'" font-weight="400" font-size="40">e</tspan>
  </text>
  <path fill="#FFF" d="M889.2 89.7s-1.5-10.5-5-7.5c-3.7 3.2-3.3 16.7-2 21.7.9 3.5 5.5 7.4 7.4 5.6 1.8-1.8-.4-19.8-.4-19.8M576.9 201.3c0 78.3 62.2 141.7 139 141.7s139-63.5 139-141.7-62.2-141.7-139-141.7-139 63.4-139 141.7"/>
  <path fill="none" stroke="#00A78E" stroke-width="6.051" stroke-linecap="round" stroke-miterlimit="10" d="M612.1 202.8v-.8"/>
  <path fill="none" stroke="#00A78E" stroke-width="6.051" stroke-linecap="round" stroke-miterlimit="10" stroke-dasharray="1.635,11.447" d="M612.1 190.6v-7.4"/>
  <path fill="none" stroke="#00A78E" stroke-width="6.051" stroke-linecap="round" stroke-miterlimit="10" d="M612.1 177.5v-.7h.8"/>
  <path fill="none" stroke="#00A78E" stroke-width="6.051" stroke-linecap="round" stroke-miterlimit="10" stroke-dasharray="1.526,10.685" d="M623.6 176.8h190"/>
  <path fill="none" stroke="#00A78E" stroke-width="6.051" stroke-linecap="round" stroke-miterlimit="10" d="M818.9 176.8h.8v.7"/>
  <path fill="none" stroke="#00A78E" stroke-width="6.051" stroke-linecap="round" stroke-miterlimit="10" stroke-dasharray="1.635,11.447" d="M819.7 189v7.3"/>
  <path fill="none" stroke="#00A78E" stroke-width="6.051" stroke-linecap="round" stroke-miterlimit="10" d="M819.7 202v.8"/>
  <path fill="none" stroke="#00A78E" stroke-width="5.142" stroke-linecap="round" stroke-miterlimit="10" stroke-dasharray="1.285,8.998" d="M715.9 158.8v18"/>
  <text transform="translate(635.12 148.125)">
    <tspan x="0" y="0" fill="#00A78E" font-family="'Foco'" font-weight="700" font-size="34.746">In net</tspan>
    <tspan x="87.2" y="0" fill="#00A78E" font-family="'Foco'" font-weight="700" font-size="34.746">w</tspan>
    <tspan x="111.9" y="0" fill="#00A78E" font-family="'Foco'" font-weight="700" font-size="34.746">ork</tspan>
  </text>
  <path fill="#00A78E" d="M655.1 203.3c0 8.4-6.8 15.2-15.2 15.2-8.4 0-15.2-6.8-15.2-15.2 0-8.4 6.8-15.2 15.2-15.2 8.4 0 15.2 6.8 15.2 15.2m-36 28l13.9 32.8c2.6 6.1 11.3 6.1 13.9 0l13.9-32.8c2.1-5-1.5-10.5-6.9-10.5H626c-5.4 0-9 5.5-6.9 10.5m86.4-28c0 8.4-6.8 15.2-15.2 15.2-8.4 0-15.2-6.8-15.2-15.2 0-8.4 6.8-15.2 15.2-15.2 8.4 0 15.2 6.8 15.2 15.2m-36 28l13.9 32.8c2.6 6.1 11.3 6.1 13.9 0l13.9-32.8c2.1-5-1.5-10.5-6.9-10.5h-27.7c-5.5 0-9.2 5.5-7.1 10.5m86.5-28c0 8.4-6.8 15.2-15.2 15.2-8.4 0-15.2-6.8-15.2-15.2 0-8.4 6.8-15.2 15.2-15.2 8.4 0 15.2 6.8 15.2 15.2m-36 28l13.9 32.8c2.6 6.1 11.3 6.1 13.9 0l13.9-32.8c2.1-5-1.5-10.5-6.9-10.5h-27.7c-5.6 0-9.2 5.5-7.1 10.5m86.4-28c0 8.4-6.8 15.2-15.2 15.2-8.4 0-15.2-6.8-15.2-15.2 0-8.4 6.8-15.2 15.2-15.2 8.4 0 15.2 6.8 15.2 15.2m-36 28l13.9 32.8c2.6 6.1 11.3 6.1 13.9 0l13.9-32.8c2.1-5-1.5-10.5-6.9-10.5h-27.7c-5.5 0-9.2 5.5-7.1 10.5m193-110c0 10.5-8.5 19-19 19s-19-8.5-19-19 8.5-19 19-19c10.5.1 19 8.6 19 19"/>
  <circle fill="none" stroke="#FFF" stroke-width="2" stroke-miterlimit="10" cx="944.4" cy="121.3" r="19"/>
  <path fill="#FFF" d="M885.8 84.6c3.2-34.5 15.6-37.5 24.6-37.9 9-.4 32.2-1.9 42.7 9.4 8 8.5 7.7 10.2 4.4 35.9-1.8 13.6.4 18.6-13.3 32.8-13.5 14-12.8 12.2-27.6 12.2-3.5 0-10.1-4.3-19.1-12.7-13.9-12.9-11.3-25.3-11.6-29.6m72.9 162s3.5 7.5 3.1 9.1c-.3 1.6-3 7.6-5.5 9.6-2.4 2-6.6 3.1-5.5 1.5 1-1.6 1.2-.9 3.3-2.8 2.2-2.1 2.7-3.1 2.4-5.6-.3-2.4 0-2.2-2.2-2.7-3.4-.7-1.4 6.4-2.8 5.2-1.4-1.2-.9-3.7-.5-7.1.3-3.2 1.6-5.2 3.4-6 1.7-.8-5.1-40-5.1-40l-4.7-34.4c-.6 12.6-3.1 12-3.4 15.9-.9 10.8 3.5 28 2.4 28.3-1.9.4-42.9.5-44.3-.1-1.7-.7 2.9-15.1 2-29.5-.2-3.7-3.5-5.2-3-16.2 0 0-15-18.8-11.2-23.2 3.8-4.4 15.6-4.8 15.6-4.8l19.9 1.4 19.7-1.4s12.1.4 15.9 4.8c3.8 4.4 2.6 61.4 2.6 61.4l-2.1 36.6z"/>
  <path fill="#FFF" d="M883.8 256.7s-3.5 7.5-3.1 9.1c.3 1.6 3 7.6 5.5 9.6 2.4 2 6.6 3.1 5.5 1.5-1-1.6-1.2-.9-3.3-2.8-2.2-2.1-2.7-3.1-2.4-5.6.3-2.4 0-2.2 2.2-2.7 3.4-.7 1.4 6.4 2.8 5.2 1.4-1.2.9-3.7.5-7.1-.3-3.2-1.6-5.2-3.4-6-1.7-.8 5.1-40 5.1-40l4.7-34.4c.6 12.6 3.1 12 3.4 15.9.9 10.8-3.5 28-2.4 28.3 1.9.4 42.9.5 44.3-.1 1.7-.7-2.9-15.1-2-29.5.2-3.7 3.5-5.2 3-16.2 0 0 15-18.8 11.2-23.2-3.8-4.4-15.6-4.8-15.6-4.8l-19.9 1.4-19.7-1.4s-12.1.4-15.9 4.8c-3.8 4.4-2.6 61.4-2.6 61.4l2.1 36.6z"/>
  <path fill="#FFF" d="M917.3 137.5s-2 3.7-4.3 7.6c-2.3 3.8-7.9 8.3-7.9 8.3s7.6 6 17.4 5.8c8-.2 11.6-.8 18.1-5.8-7.5-1.6-8.7-5.7-9.9-8.4-1.8-4-2.3-7.2-1.5-7.3-7.9 0-11.9-.2-11.9-.2"/>
  <path fill="none" stroke="#00A78E" stroke-width="2.188" stroke-miterlimit="10" d="M917.3 137.5s-2 3.7-4.3 7.6c-2.3 3.8-7.9 8.3-7.9 8.3s7.6 6 17.4 5.8c8-.2 11.6-.8 18.1-5.8-7.5-1.6-8.7-5.7-9.9-8.4-1.8-4-2.3-7.2-1.5-7.3-7.9 0-11.9-.2-11.9-.2z"/>
  <path fill="#FFF" d="M915.2 379.1s-.6-5.1-9.6-4.7c-9 .5-9.7 3.8-10 4.7m12.4.2l-4.4-71.2-5.5-55c-1.1-12-1-14 0-17.7.4-1.6 1.6-5.6 1.6-5.6l43.6.1s1.2 4.4 1.5 5.2c1.1 3 2.8 9.2 1 18.5l-8.7 55.2-7.6 70.1h-6.8l3.1-80.9-1.2-45.9c0-2.4-.3-2.9-2-2.9h-.9c-1.7 0-2.2.9-2.2 3.3l-2.6 46.1-1.8 80.4-7.1.3zm13.4-.2s.6-5.1 9.6-4.7c9 .5 9.7 3.8 10 4.7"/>
  <path fill="#00A78E" d="M908.5 93.1c0 2.2-1.9 3.9-4.3 3.9s-4.3-1.8-4.3-3.9c0-2.2 1.9-3.9 4.3-3.9 2.4-.1 4.3 1.7 4.3 3.9"/>
  <path fill="#00A78E" d="M914.7 93.5s-.3-.3-.9-.7c-.6-.4-1.4-.9-2.4-1.4-.5-.3-1.1-.5-1.6-.7-.6-.2-1.2-.3-1.8-.4-.6-.1-1.3-.1-1.9 0-.7 0-1.3.3-2 .5-.6.3-1.3.5-1.9 1-.6.4-1.2.8-1.7 1.3-.5.4-1.2 1.1-1.8 1.4-.3.2-.7.3-1 .4-.3.1-.7.2-1 .2-1.2.1-2.2-.2-2.8-.6-.6-.4-.9-.7-.9-.7s.4.2 1 .3c.6.1 1.5 0 2.5-.4.2-.1.5-.2.7-.3.3-.2.5-.3.7-.5.5-.4.8-.9 1.5-1.5.6-.6 1.2-1.2 1.9-1.7s1.4-.9 2.2-1.2c.8-.2 1.6-.5 2.4-.5.8-.1 1.6.1 2.3.2.4.1.7.2 1.1.3.3.2.7.3 1 .5.6.4 1.2.7 1.7 1.2.5.4.9.8 1.3 1.2.4.4.6.8.9 1.1l.5 1"/>
  <path fill="#FFF" d="M902.7 92.7c0 .8-.4 1.4-.9 1.4s-.9-.6-.9-1.4c0-.8.4-1.4.9-1.4s.9.6.9 1.4"/>
  <path fill="#00A78E" d="M916.5 78.9s2.4 2.5-4 3.3c-6.5.7-11.9-4.5-14.9-.7s-8.1 5.2-3.9 1.5c4.2-3.7 3.3-6 9.9-5.6 6.8.4 12.5.3 12.9 1.5m10.9 1.5s-2 3.1 4.5 2.2c6.5-.9 10.9-7.3 14.5-4.4 3.6 3 8.8 3.1 4 .5-4.8-2.6-4.3-5-10.7-3-6.4 2.2-12.1 3.5-12.3 4.7"/>
  <path fill="#FFF" d="M922.3 100.2s2.3 6.8 4.3 9c7.4 8-12.9 6.8-7.7 3.9"/>
  <path fill="#00A78E" d="M922.3 100.2s.2.4.6 1c.2.3.4.7.7 1.2.3.4.5 1 .8 1.5.3.5.6 1.1 1 1.7.4.6.7 1.3 1.1 1.9.4.6.8 1 1.5 1.8.6.7 1.1 1.6 1.2 2.8.1.6-.1 1.3-.4 1.8-.3.5-.8.9-1.2 1.2-.9.5-1.8.7-2.6.9-1.7.2-3.2.1-4.5-.2-.7-.1-1.2-.4-1.7-.6-.2-.1-.5-.3-.7-.5-.2-.2-.3-.6-.2-.8.2-.4.5-.5.7-.6.2-.1.3-.1.3-.1l-.2.2c-.1.1-.4.4-.4.6 0 .2.3.4.7.5.4.1 1 .2 1.6.2 1.2 0 2.6-.1 4-.4.7-.2 1.4-.4 1.9-.8s.7-.7.7-1.2-.4-1.1-.8-1.7c-.4-.5-1.1-1.3-1.5-2-.8-1.5-1.3-2.9-1.7-4.1-.8-2.6-.9-4.3-.9-4.3M912 120.9s13.3 6.5 21.1-4c-5.6 18-22.7 2.8-21.1 4M931.2 93c0 2.2 1.9 3.9 4.3 3.9s4.3-1.8 4.3-3.9c0-2.2-1.9-3.9-4.3-3.9s-4.3 1.7-4.3 3.9"/>
  <path fill="#00A78E" d="M929.6 93.1s.3-.3.9-.7c.6-.4 1.4-.9 2.4-1.4.5-.3 1.1-.5 1.6-.7.6-.2 1.2-.3 1.8-.4.6-.1 1.3-.1 2 0 .7 0 1.3.3 2 .5.6.3 1.3.5 1.9 1 .6.4 1.2.8 1.7 1.3.5.4 1.2 1.1 1.8 1.4.3.2.7.3 1 .4.3.1.7.2 1 .2 1.2.1 2.2-.2 2.8-.6.6-.4.9-.7.9-.7s-.4.2-1 .3c-.6.1-1.5 0-2.5-.4-.2-.1-.5-.2-.7-.3-.3-.2-.5-.3-.7-.5-.5-.4-.8-.9-1.5-1.5-.6-.6-1.2-1.2-1.9-1.7s-1.4-.9-2.2-1.2c-.8-.2-1.6-.5-2.4-.5-.8-.1-1.6.1-2.3.2-.4.1-.7.2-1.1.3-.3.2-.7.3-1 .5-.6.4-1.2.7-1.7 1.2-.5.4-.9.8-1.3 1.2-.4.4-.6.8-.9 1.1-.4.6-.6 1-.6 1"/>
  <path fill="#FFF" d="M932.1 92.5c0 .8.4 1.4.9 1.4s.9-.6.9-1.4c0-.8-.4-1.4-.9-1.4s-.9.6-.9 1.4"/>
  <path fill="none" stroke="#00A78E" stroke-width="2.117" stroke-miterlimit="10" d="M922.5 159.2v68.6"/>
  <path fill="#00A78E" d="M920.4 165.1c0 .6-.5 1-1 1-.6 0-1-.5-1-1 0-.6.5-1 1-1 .6 0 1 .5 1 1m0 11.8c0 .6-.5 1-1 1-.6 0-1-.5-1-1 0-.6.5-1 1-1 .6 0 1 .5 1 1m0 11.8c0 .6-.5 1-1 1-.6 0-1-.5-1-1 0-.6.5-1 1-1 .6 0 1 .5 1 1m0 11.8c0 .6-.5 1-1 1-.6 0-1-.5-1-1 0-.6.5-1 1-1 .6 0 1 .5 1 1m0 11.8c0 .6-.5 1-1 1-.6 0-1-.5-1-1 0-.6.5-1 1-1 .6 0 1 .5 1 1m0 11.8c0 .6-.5 1-1 1-.6 0-1-.5-1-1 0-.6.5-1 1-1 .6 0 1 .5 1 1"/>
  <path fill="#FFF" d="M953.7 89.9s1.5-10.5 5-7.5c3.7 3.2 3.3 16.7 2 21.7-.9 3.5-5.5 7.4-7.4 5.6-1.9-1.8.4-19.8.4-19.8"/>
  <path fill="#00A78E" d="M927.1 45.2S927 66.7 954 78.7c0 0 5.1 5 .8 17-4.2 12-1.2 16.4-1.2 16.4s-2.1-6.9 8.1-18.2.8-32.4.8-32.4-6.3-20-35.4-16.3"/>
  <path fill="none" stroke="#FFF" stroke-width="2" stroke-miterlimit="10" d="M927.1 45.2S927 66.7 954 78.7c0 0 5.1 5 .8 17-4.2 12-1.2 16.4-1.2 16.4s-2.1-6.9 8.1-18.2.8-32.4.8-32.4-6.3-20-35.4-16.3z"/>
  <path fill="#00A78E" d="M951.2 48.8s-10.7 26-50.1 18.6c0 0-8.7 1.1-9.4 14.7-.6 13.6-6.6 15.6-6.6 15.6s6-4.8-1.2-21.9c-7.2-17.1 10.9-30.6 10.9-30.6s22.2-19.4 56.4 3.6"/>
  <path fill="none" stroke="#FFF" stroke-width="2" stroke-miterlimit="10" d="M951.2 48.8s-10.7 26-50.1 18.6c0 0-8.7 1.1-9.4 14.7-.6 13.6-6.6 15.6-6.6 15.6s6-4.8-1.2-21.9c-7.2-17.1 10.9-30.6 10.9-30.6s22.2-19.4 56.4 3.6z"/>
</svg>