<svg xmlns="http://www.w3.org/2000/svg" width="107.3" height="357.2" viewBox="0 0 107.3 357.2">
  <path fill="#FFF" d="M87.4 69.3s1.2-10.6 4.5-7.6c2.7 2.4 4 13.8 2.3 21.7-.7 3.5-4.9 7.5-6.7 5.8-1.8-1.8-.1-19.9-.1-19.9m-70.5-1.8s-1.5-10.5-5-7.5c-3.7 3.2-3.3 16.7-2 21.7.9 3.5 5.5 7.4 7.4 5.6 1.8-1.8-.4-19.8-.4-19.8"/>
  <path fill="#FFF" d="M15.2 52.6c0 3.7-2.4 33.5 8 46.5 5.9 7.4 14.2 14.6 19 15.7 7.8 1.8 12.9 3.2 19.8 1.7 6.9-1.5 17-8.7 23.3-22.6 3-6.6 11.1-58.5-3.9-73.2-9.8-9.6-31.3-8.4-39.6-8-8.5.4-26.9 3.3-26.6 39.9M26 357.2L22.1 245h58.4l-1.3 112.2H55.4v-90.9c0-2.4-.9-4.3-3.5-4.3-2.7 0-3.5 1.9-3.5 4.3v90.9H26z"/>
  <path fill="#00A78E" d="M66.5 64.9c0 2 1.7 3.7 3.7 3.7 2.1 0 3.7-1.6 3.7-3.7 0-2-1.7-3.7-3.7-3.7s-3.7 1.7-3.7 3.7"/>
  <path fill="#00A78E" d="M81.3 65.8S76.2 61 70.2 61c-3.1 0-6.4 1.3-9.3 5.2l.9 1.1c2.7-3.6 5.6-4.7 8.4-4.7 2.7 0 5.3 1.1 7.2 2.3 1 .6 1.7 1.1 2.3 1.6.3.2.5.4.6.5l.2.2.8-1.4z"/>
  <path fill="#FFF" d="M69.2 64.8c0 .7-.4 1.3-.9 1.3s-.9-.6-.9-1.3c0-.7.4-1.3.9-1.3.6.1.9.6.9 1.3"/>
  <path fill="#00A78E" d="M41.5 64.9c0 2-1.7 3.7-3.7 3.7s-3.7-1.6-3.7-3.7c0-2 1.7-3.7 3.7-3.7s3.7 1.7 3.7 3.7"/>
  <path fill="#00A78E" d="M27.4 67.1l.2-.2c1-.9 5.3-4.4 10.1-4.3 2.8 0 5.7 1.1 8.4 4.7l.9-1.1c-2.9-3.9-6.2-5.2-9.3-5.2-6 0-11 4.8-11.1 4.8l.8 1.3z"/>
  <path fill="#FFF" d="M36.3 64.8c0 .7-.4 1.3-.9 1.3s-.9-.6-.9-1.3c0-.7.4-1.3.9-1.3.6.1.9.6.9 1.3"/>
  <path fill="#00A78E" d="M44 48.7s4.7 4.2.7 4.9c-4 .8-10.4-.6-13.3 0-2.9.6-8.5 2.8-8.5 2.8l-.4-2.4c0 .1 7.7-7.2 21.5-5.3m19.6-3.8s-4.6 4-.6 4.9c4 .9 10.4-.3 13.3.5 2.9.7 8.6 3.2 8.6 3.2l.3-2.4c.1 0-7.9-7.6-21.6-6.2M49.5 84.3s1.2.1 2.9.2c.9 0 1.9.1 2.8 0 .2 0 .4-.1.6-.2.1 0 .1-.1.2-.1s.1-.1.1-.1c.1 0 0-.1.1-.1v.1-.1l.1-.2c.1-.3.1-.5.1-.7.1-1.1.1-2.2 0-3.3 0-1.1-.1-2.1-.1-3 0-1.8.1-3 .1-3s.6 1.1 1.1 2.8c.3.9.5 1.9.7 3 .2 1.1.3 2.3.2 3.6-.1.3-.1.8-.2 1l-.1.2v.2l-.1.3c-.1.2-.2.5-.4.6-.2.2-.4.3-.6.4-.2.1-.4.2-.6.2-.4.1-.7.2-1 .2-.7 0-1.2-.1-1.8-.2-.5-.1-1-.3-1.4-.4-1.7-.6-2.7-1.4-2.7-1.4m-7.3 6.5s13.1 5.4 23.8.9c-1.5 3.1-15.8 10.9-23.8-.9"/>
  <path fill="#00A78E" d="M13.7 59.1S6.8 41.3 8.2 34.2c1.4-7.1 4.9-13.5 17.5-24.9C33.9 1.9 48.4.6 50 2.4c2.4 2.8 6.7 4 9.7.4 3.1-3.6 13.9-1.3 12.5 1.6C78 1.1 82 7.3 82 7.3s21.8 2.8 9.9 59.1c-1 4.9-2.3 10.6-2.3 10.6-4.4.3-.5-6.6.2-27.3 1-28.7-25.6-22.4-35.4-23.5-11.9-1.3-31.9-2.9-35.5 12.5-3.6 15.4-1.9 36-1.9 36L13.7 78V59.1z"/>
  <path fill="none" stroke="#FFF" stroke-width="2" stroke-miterlimit="10" d="M13.7 59.1S6.8 41.3 8.2 34.2c1.4-7.1 4.9-13.5 17.5-24.9C33.9 1.9 48.4.6 50 2.4c2.4 2.8 6.7 4 9.7.4 3.1-3.6 13.9-1.3 12.5 1.6C78 1.1 82 7.3 82 7.3s21.8 2.8 9.9 59.1c-1 4.9-2.3 10.6-2.3 10.6-4.4.3-.5-6.6.2-27.3 1-28.7-25.6-22.4-35.4-23.5-11.9-1.3-31.9-2.9-35.5 12.5-3.6 15.4-1.9 36-1.9 36L13.7 78V59.1z"/>
  <path fill="#FFF" d="M44.8 117.3s.3 10.1-4.5 12.9c-4.3 2.5-6.2 3.1-6.2 3.1s20.9 8.4 37.7 1.6c-9-2.4-8.4-5.6-8.4-5.6l-1.6-10.5-17-1.5z"/>
  <path fill="none" stroke="#00A78E" stroke-width="2" stroke-miterlimit="10" d="M44.8 117.3s.3 10.1-4.5 12.9c-4.3 2.5-6.2 3.1-6.2 3.1s20.9 8.4 37.7 1.6c-9-2.4-8.4-5.6-8.4-5.6l-1.6-10.5-17-1.5z"/>
  <path fill="#FFF" d="M103.5 177.9l-21 4.8-2.3-9.9 2.4 24.3c.3 4.1.5 17.5-.5 29.6L80 242.8H22.8l-2.1-18.9c-.6-10 .1-24.8.4-28.7l3.3-22.6-2.8 9.3-20.1-4.7s2.1-7.3 9.3-22.9c7.2-15.6 23.2-21 23.2-21l19.3 3.1 18.4-1.5s17 4.3 24.3 19.9c7.2 15.6 7.2 23.1 7.2 23.1"/>
  <path fill="none" stroke="#00A78E" stroke-width="2" stroke-miterlimit="10" d="M103.5 177.9l-21 4.8-2.3-9.9 2.4 24.3c.3 4.1.5 17.5-.5 29.6L80 242.8H22.8l-2.1-18.9c-.6-10 .1-24.8.4-28.7l3.3-22.6-2.8 9.3-20.1-4.7s2.1-7.3 9.3-22.9c7.2-15.6 23.2-21 23.2-21l19.3 3.1 18.4-1.5s17 4.3 24.3 19.9c7.2 15.6 7.2 23.1 7.2 23.1"/>
  <path fill="#FFF" d="M18.8 253.3c.8 1.7 1.1 3.4-1.1 3.4l-.6-.8-3.6-4.9-1 1.4c-.6.8-.7 1.8-.4 2.7.3.7.6 1.5.8 2.1.2.4.5.8.9 1l2.5 1.7c.6.4.3.9.2 1.4l-.4.3c-.5.5-1.4.5-2.1.1l-2.8-2c-.3-.1-.5-.2-.7-.4l-4.3-6.5c-.3-.4-.7-2.2-.6-2.6l1.8-7.1c0-.2.2-1.7.1-1.9L1 211.1v-5.3s.8-26.5 2.4-26.2l16.2 3.5c1.3.3-2.6 14-2.6 14-1.7 6.7-2.4 9-2.8 12.9l1.8 32.5c0 .2 0 .3.1.5l2.7 10.3z"/>
  <path fill="none" stroke="#00A78E" stroke-width="2" stroke-miterlimit="10" d="M18.8 253.3c.8 1.7 1.1 3.4-1.1 3.4l-.6-.8-3.6-4.9-1 1.4c-.6.8-.7 1.8-.4 2.7.3.7.6 1.5.8 2.1.2.4.5.8.9 1l2.5 1.7c.6.4.3.9.2 1.4l-.4.3c-.5.5-1.4.5-2.1.1l-2.8-2c-.3-.1-.5-.2-.7-.4l-4.3-6.5c-.3-.4-.7-2.2-.6-2.6l1.8-7.1c0-.2.2-1.7.1-1.9L1 211.1v-5.3s.8-26.5 2.4-26.2l16.2 3.5c1.3.3-2.6 14-2.6 14-1.7 6.7-2.4 9-2.8 12.9l1.8 32.5c0 .2 0 .3.1.5l2.7 10.3z"/>
  <path fill="#FFF" d="M89.8 263.2c-.7 0-1.4-.3-1.8-.7l-.5-.5-.1-.4c-.1-.4-.5-1.6.6-2.4l2.6-1.7c.3-.2.5-.4.6-.6l.9-2c.3-.6.2-1.2-.2-1.7l-.2-.3-3.8 5h-.5c-1.4 0-2-.6-2.3-1-.7-1.1-.1-2.6.4-3.7l3.1-10.1v-.2l2.7-32.3c-.3-1.8-.8-4.2-1.6-7.2 0-.1-.1-.2-.1-.3-5.7-18.4-4.9-19.7-4.7-20.1.2-.3.4-.5.8-.5l16.4-3.2h.1c1 0 2.6 0 4.3 27.2l-.1 5.5-7.6 30c0 .1.1 1.3.1 1.5l1.6 7c.1.8-.4 2.9-.8 3.4l-4.5 6.4c-.2.4-.6.6-1.1.8l-2.7 1.8c-.6.2-1.1.3-1.6.3"/>
  <path fill="#00A78E" d="M101.9 180.2c1.6 0 3.4 26.3 3.4 26.3l-.1 5.3-7.6 29.9c-.1.2 0 1.7.1 1.9l1.7 7.1c.1.4-.4 2.2-.7 2.6l-4.5 6.4c-.1.2-.4.3-.7.4l-2.8 1.9c-.3.2-.6.3-.9.3-.4 0-.8-.1-1.1-.4l-.4-.3c-.2-.5-.4-1 .2-1.4l2.5-1.7c.4-.2.8-.6.9-1 .2-.5.6-1.4.9-2.1.4-.9.3-1.9-.3-2.7l-1-1.4-3.7 4.9-.6.8c-2.1 0-1.8-1.7-1-3.4l3.1-10.1c0-.1.1-.3.1-.5l2.7-32.4c-.4-3.2-1.7-7.6-1.7-7.8 0 0-5.9-19.1-4.7-19.4l16.2-3.2m0-2h-.4l-16.2 3.2c-.6.1-1.1.5-1.4 1-.5.8-1.3 2.1 4.6 20.9 0 .1 0 .2.1.3.8 2.9 1.3 5.3 1.6 7l-2.6 32.2-3 10c-.6 1.3-1.2 3.1-.3 4.6.4.6 1.2 1.4 2.7 1.5-.6.6-.9 1.6-.5 3.1v.1l.2.5.4.4.4.3c.6.6 1.6 1 2.5 1 .7 0 1.4-.2 2-.6l2.6-1.7c.6-.2 1.1-.6 1.4-1.1l4.5-6.4c.5-.7 1.2-3.1 1-4.1v-.2l-1.6-7c0-.3-.1-.9-.1-1.2l7.5-29.7.1-.2v-.2l.1-5.3v-.2c0-.1-.4-6.7-1.1-13.2-.4-3.9-.7-6.9-1.1-9.1-.6-3.1-1.1-5.9-3.4-5.9m-12 78.6l.5-.7-.2.5-.1.1H90l-.1.1z"/>
  <path fill="#FFF" d="M47.1 357.1s-1.2-9.5-20.6-8.6c-19.4.8-20.9 7.1-21.6 8.8m93.1-.2s-1.2-9.5-20.6-8.6c-19.4.8-20.9 7.1-21.6 8.8"/>
</svg>