<svg xmlns="http://www.w3.org/2000/svg" width="185.3" height="96.6" viewBox="0 0 185.3 96.6">
  <path fill="#FFF" d="M64.8 6.7h15.7v5.5h-3.8L72.5 36l1.5.3h19.5l-4.2-24.1h-3.8V6.7h15.7v2.1s42.7 1.3 53.5 1.9c10.8.6 11.4-7.5 11.4-7.5h-2.6v-.1H85.7v-.5c0-1.4-1.1-2.6-2.6-2.6-1.4 0-2.6 1.1-2.6 2.6v.5H2.6v.1H0s.6 8.1 11.4 7.5c10.8-.6 53.5-1.9 53.5-1.9V6.7zm114.9 43.9l2.1 10.3H177l-5.8-9 8.5-1.3zm-1.1-5l6.8-32.7h-3.2l-14.5 28.6H73.6c-38.2-9.6-55.9 10.2-55.9 25.7 0 13 14.3 17.4 26.5 17.4v6.9H36c-9.4 0-14.4-5-14.6-5.3l-3.7 3.5c.3.3 6.6 6.9 18.4 6.9h65.5v-5.1H82.8V81.2c14.4-4.9 24.1-14.9 28.9-25.3l-.1-.1 67-10.2zm-153.9 24c-.2-.7-.4-1.5-.4-2.4 0-8.3 8.2-21.5 30.3-21.5 5.2 0 10.9.8 16.9 2.2-1.2 11.3-5.5 16.3-18.2 16.3-15.3 0-23.1 2.5-28.6 5.4zm54.5 21.8H47.7v-6.9c7.3-.1 3.7-.3 15.6-.3 5.8 0 11.1-.8 15.9-2v9.2zm16-31.2h-5.5v5.5c0 .7-.6 1.3-1.3 1.3h-3c-.7 0-1.3-.6-1.3-1.3v-5.5h-5.5c-.7 0-1.3-.6-1.3-1.3v-3c0-.7.6-1.3 1.3-1.3h5.5v-5.5c0-.7.6-1.3 1.3-1.3h3c.7 0 1.3.6 1.3 1.3v5.5h5.5c.7 0 1.3.6 1.3 1.3v3c-.1.7-.6 1.3-1.3 1.3z"/>
</svg>