<svg xmlns="http://www.w3.org/2000/svg" width="208.9" height="228.2" viewBox="0 0 208.9 228.2">
  <path fill="#00A78E" d="M152.6 91.4c1.2-.8 2.7-.6 3.5.4l.2.3c.8 1 .5 2.6-.7 3.4L104 132.4c-1.1.8-2.7.6-3.5-.4l-.2-.3c-.8-1-.5-2.6.6-3.4l51.7-36.9z"/>
  <path fill="#61DEC7" d="M75.8 109.5c0 20.6-17 37.4-37.9 37.4-21-.1-37.9-16.8-37.9-37.4s16.9-37.4 37.9-37.4c20.9 0 37.9 16.7 37.9 37.4M208.9 81c0-21.8-17.9-39.5-40-39.5s-40 17.7-40 39.5c0 10.3 4 19.6 10.6 26.7 2.5-.7 5-1.1 7.7-1.1 10.4 0 19.4 5.6 24.3 13.8 20.8-1.3 37.4-18.5 37.4-39.4m-37.5 51.2c0 13.2-10.8 23.9-24.2 23.9-13.4 0-24.3-10.7-24.3-23.9s10.9-23.9 24.3-23.9 24.2 10.7 24.2 23.9m-15-90.8C149.4 17.5 127 0 100.5 0 68.2 0 42.1 25.8 42.1 57.6c0 4.3.5 8.5 1.4 12.6 19.5 3.5 34.4 20.2 34.4 40.5 6.9 2.9 14.5 4.4 22.5 4.4 12.4 0 23.9-3.8 33.4-10.4-4.8-6.7-7.6-14.9-7.6-23.7.1-18.8 12.8-34.6 30.2-39.6"/>
  <path fill="#00A78E" d="M105.4 94.3c0-3.1-2.5-5.6-5.7-5.6h-.8c-3.1 0-5.7 2.5-5.7 5.6v133.9h12.2V94.3zm-4.6 56c1 .7 1.1 2.5.1 3.9l-.3.4c-1 1.4-2.7 1.9-3.7 1.2l-48.2-34c-1-.7-1.1-2.5-.1-3.9l.3-.4c1-1.4 2.7-1.9 3.7-1.2l48.2 34z"/>
  <path fill="#00A78E" d="M139.8 139.2c.8-.7 2.2-.5 3.1.5l.2.2c.9 1 .9 2.4.1 3.1l-37.9 33c-.8.7-2.2.5-3.1-.5l-.2-.2c-.9-1-.9-2.4-.1-3.1l37.9-33z"/>
</svg>