<svg xmlns="http://www.w3.org/2000/svg" width="336.5" height="253.1" viewBox="0 0 336.5 253.1">
  <path fill="#FFF" stroke="#00A78E" stroke-width="8.191" stroke-miterlimit="10" d="M293.2 151.1c-15.9 0-34.7 10.6-37.5 26.2-2.8 15.6 11.7 31.8 26.2 37.5 18.1 7.1 34.5-9.4 37.5-26.2 3-16.8-6.3-38.4-26.2-37.5"/>
  <path fill="#00A78E" d="M285 196.9c-7.6-1.9-12.7-9.3-11.5-16.4 1.3-7.2 8.6-12.3 16.4-11.5 7.8.8 12.9 8.2 11.5 16.4-1.4 8.3-8.8 13.4-16.4 11.5"/>
  <path fill="#61DEC7" d="M286.7 187.7c-2.6-.5-4.4-3-3.9-5.6.5-2.6 3-4.3 5.6-3.9 2.6.4 4.4 2.9 3.9 5.6-.5 2.7-3 4.4-5.6 3.9"/>
  <path fill="#FFF" stroke="#00A78E" stroke-width="2" stroke-linecap="round" stroke-linejoin="round" stroke-miterlimit="10" d="M191.9 1v203l82-19.1V25.7zm0 0L7.3 51.1v107.7l-6.3.7V170l190.9 34z"/>
  <path fill="#FFF" stroke="#00A78E" stroke-width="2" stroke-linecap="round" stroke-linejoin="round" stroke-miterlimit="10" d="M202.7 12.3v190l66.2-15.9V30.6zm126.9 95v87l-60.7-7.9V30.6z"/>
  <path fill="#FFF" stroke="#00A78E" stroke-width="2" stroke-linecap="round" stroke-linejoin="round" stroke-miterlimit="10" d="M202.7 12.3v190l71.2 11.5V108.3zm126.9 95l-55.7 1v105.5l55.7-19.5z"/>
  <path fill="#FFF" stroke="#00A78E" stroke-width="2" stroke-linecap="round" stroke-linejoin="round" stroke-miterlimit="10" d="M268.9 30.6l60.7 76.7-55.7 1-71.2-96z"/>
  <path fill="#00A78E" d="M269.4 37.7l48.7 61.5c1 1.3.1 3.2-1.6 3.2h-35.8c-3.2 0-6.1-1.5-8-4l-53.3-71.6c-1.1-1.5.3-3.6 2.1-3.1L264 34.2c2.1.6 4 1.8 5.4 3.5zm-59.7.6v58.6c0 1 .8 1.9 1.9 2l46 3.3c1.7.1 2.8-1.8 1.7-3.2l-46-61.9c-1.1-1.6-3.6-.8-3.6 1.2zm56.2 101.2l20.9-2c2.1 0 3.8-1.7 3.8-3.8v-8c0-2.1-1.7-3.8-3.8-3.8l-20.9 1c-2.1 0-3.8 1.7-3.8 3.8v9c0 2.1 1.7 3.8 3.8 3.8zM316 135l17.3-1.8c1.8 0 3.2-1.4 3.2-3.2v-7.4c0-1.8-1.4-3.2-3.2-3.2l-17.3.8c-1.8 0-3.2 1.4-3.2 3.2v8.4c0 1.8 1.5 3.2 3.2 3.2zm-67.6 60.4l17.2 1.2c1.4.1 2.6-1 2.7-2.4l.4-5.9c.1-1.4-1-2.6-2.4-2.7l-17.2-1.2c-1.4-.1-2.6 1-2.7 2.4l-.4 5.9c0 1.4 1 2.7 2.4 2.7zm-237-33.9l17.2 1.2c1.4.1 2.6-1 2.7-2.4l.4-5.9c.1-1.4-1-2.6-2.4-2.7l-17.2-1.2c-1.4-.1-2.6 1-2.7 2.4l-.4 5.9c-.1 1.4 1 2.6 2.4 2.7zm199.2-53.1l16.4 1.1c.4 0 .8-.3.9-.8l.2-2.3c0-.4-.3-.8-.8-.9l-16.4-1.1c-.4 0-.8.3-.9.8l-.2 2.3c0 .4.3.8.8.9z"/>
  <path fill="#FFF" stroke="#00A78E" stroke-width="2" stroke-linecap="round" stroke-linejoin="round" stroke-miterlimit="10" d="M197.3 192.7V204l76.6 13.1V204zm136.7-7.8v11.2l-60.1 21V204z"/>
  <path fill="#00A78E" d="M126.1 91.6c-10.2.8-15.4 1.2-25.6 2-.3-10.8-.4-16.2-.7-27-.1-3.2-2.6-5.3-5.6-4.7-6 1.2-9.1 1.9-15.1 3.1-3 .6-5.4 3.5-5.3 6.3.2 9.7.4 14.6.6 24.3-10.2.8-15.4 1.2-25.6 2-3 .2-5.4 2.4-5.4 4.9.1 5 .2 7.5.3 12.5.1 2.5 2.6 4.6 5.6 4.7 10.3.3 15.4.4 25.7.7.2 9.7.4 14.6.6 24.3.1 2.9 2.6 5.6 5.7 6.1 6.1.9 9.2 1.4 15.3 2.4 3 .5 5.5-1.7 5.4-4.9-.3-10.8-.4-16.2-.7-27 10.3.3 15.4.4 25.7.7 3 .1 5.4-2.7 5.3-6.3-.2-7.2-.3-10.8-.4-17.9-.2-3.8-2.7-6.5-5.8-6.2z"/>
  <path fill="#FFF" stroke="#00A78E" stroke-width="6.219" stroke-miterlimit="10" d="M58.2 156c-12.1-.4-26.5 8.6-28.5 19.9-2 11.3 8.4 24.8 19.9 28.5 13.6 4.4 26.2-6.8 28.5-19.9 2.3-13.1-5.5-27.8-19.9-28.5"/>
  <path fill="#00A78E" d="M52 190.8c-5.8-1.4-9.7-7-8.7-12.5 1-5.4 6.6-9.3 12.5-8.7 5.9.6 9.8 6.2 8.7 12.5-1.1 6.2-6.7 10.1-12.5 8.7"/>
  <path fill="#61DEC7" d="M53.2 183.8c-2-.4-3.3-2.3-3-4.2.3-1.9 2.2-3.3 4.2-3 2 .3 3.3 2.2 3 4.3-.3 2-2.2 3.3-4.2 2.9"/>
  <path fill="#FFF" stroke="#00A78E" stroke-width="8.191" stroke-miterlimit="10" d="M207.2 172.5c-15.9 0-34.7 10.6-37.5 26.2-2.8 15.6 11.7 31.8 26.2 37.5 18.1 7.1 34.5-9.4 37.5-26.2 3-16.8-6.3-38.3-26.2-37.5"/>
  <path fill="#00A78E" d="M199.1 218.3c-7.6-1.9-12.7-9.3-11.5-16.4 1.3-7.2 8.6-12.3 16.4-11.5 7.8.8 12.9 8.2 11.5 16.4-1.4 8.3-8.8 13.4-16.4 11.5"/>
  <path fill="#61DEC7" d="M200.7 209.1c-2.6-.5-4.4-3-3.9-5.6.5-2.6 3-4.3 5.6-3.9 2.6.4 4.4 2.9 3.9 5.6-.5 2.7-3 4.5-5.6 3.9"/>
  <path fill="#00A78E" d="M321 153.6l-37.1 7v-9.1l37.1-5.2m0 20.4l-37.1 8.8v-9l37.1-7.1m0 19.6l-37.1 10.5v-9.1l37.1-8.8"/>
</svg>