<svg xmlns="http://www.w3.org/2000/svg" width="514.1" height="138.2" viewBox="0 0 514.1 138.2"><path fill="#FFF" d="M166.9 136.2c-19 0-32.2-3.4-41.4-10.7-9.2-7.2-14.5-18.6-16.2-34.7-3.4-.1-8.4-.3-14.8-.4-.2 5.1-.4 9.5-.4 13.2 0 6.8 0 19.5 1.4 27.9l.4 2.3h-2.4c-10.3 0-19.3.6-27.9 1.2-7.6.5-14.9 1-22.2 1C15.2 136 2 125 2 101.3c0-21.7 18.2-32.8 54.1-32.8H59v-.1c0-13.6-4-18-16.6-18-12.5 0-23.9 5.5-27 7.2l-2.8 1.5L11.1 32l1.3-.5c8.9-3.6 23-5.8 37.7-5.8C82.4 25.8 95 37.2 95 66.4V69c6.1 0 10.5.2 14.5.4 4-30 20.7-43.4 53.8-43.4 28 0 44.1 11.8 44.1 32.4 0 21.9-16.6 33-49.5 33-3.1 0-7.7-.1-11-.2.6 12.9 9.6 20.2 25 20.2 9 0 18.5-2.6 26.2-7.1l2.8-1.7 1.5 27.2-1.2.6c-7.2 3.5-21 5.8-34.3 5.8zM56.2 90c-8.7 0-18.7 1.3-18.7 11.7 0 6.6 2.3 10.7 13.5 10.7 2.5 0 5.3-.3 7.6-.7-.3-5.8-.2-13.1-.2-20.2v-1.6h-.5l-1.7.1zm90.6-20c1.9.1 4.4.1 7.3.1 16.2 0 18.3-6.7 18.3-12.5 0-7.7-6.4-8.9-10.1-8.9-10.1.1-15.2 7.1-15.5 21.3zm291.4 66.1c-28.2 0-41.4-11-41.4-34.7 0-21.7 18.2-32.8 54.1-32.8h2.9v-.1c0-13.6-4-18-16.6-18-12.5 0-23.9 5.5-27 7.2l-2.8 1.5-1.5-27.1 1.3-.5c8.9-3.6 23-5.8 37.7-5.8 32.3 0 44.9 11.4 44.9 40.6 0 8.6-.3 16.4-.6 23.3-.2 5.4-.4 10-.4 14 0 9.5.1 20.2 1.4 27.9l.4 2.3h-2.4c-10.3 0-19.3.6-28 1.2-7.4.5-14.7 1-22 1zM451.1 90c-8.7 0-18.7 1.3-18.7 11.7 0 6.6 2.3 10.7 13.5 10.7 2.5 0 5.3-.3 7.6-.7-.3-5.8-.2-13-.2-20V90h-2.2zm-192.7 46.1c-24.5 0-36.4-11.3-36.4-34.5 0-16.3.3-33.8.5-45.4v-1.3h-11.7l.1-2.1c.1-2.8.1-6.3 0-9.7 0-2.5-.1-5.1 0-7.3v-1.7l1.6-.3c15.2-2.5 21.2-10.1 23.8-30.1l.2-1.7h23.1l-.2 2.2c-.6 6.7-1.2 17-1.3 24.9h20.4V55h-20.7v37.3c0 14.9 2.9 17.4 11.6 17.4 3.1 0 6.5-1 8-2l2.9-1.9 1.7 27.5-1.5.4c-2.8.8-11.1 2.4-22.1 2.4zm92.5-2.2l.2-2.2c.6-8.2 1.1-33.7 1.1-46.9 0-5.6-.2-15.2-.2-15.3 0-14.6-3.2-19-13.8-19-3.5 0-7.1.5-10.4 1.5-.3 12.7-.4 23.4-.4 32.8-.1 15.6.6 38.8 1.4 46.9l.2 2.2h-38.4l.2-2.2c.6-7.8 1.2-32.7 1.1-46.9.1-22-.2-40.1-1.1-53.7l-.1-2.1h2.1c10.1 0 18.4-.8 26.4-1.6 7.8-.8 15.2-1.5 23.9-1.5C375 25.9 388 37.2 388 65c0 .1-.2 11.5-.2 19.9-.1 15.6.6 38.8 1.4 46.9l.2 2.2h-38.5z"/><path fill="#00A78E" d="M257.7 4c-.7 7.9-1.3 19.3-1.3 27h20.4v21.9h-20.7v39.3c0 15.2 3.1 19.4 13.6 19.4 3.3 0 7.1-1 9.1-2.3l1.4 22.5c-2.7.8-10.7 2.3-21.6 2.3-22.4 0-34.4-9.4-34.4-32.5 0-18.1.3-37.9.5-48.7H213c.2-4.9-.1-11.9 0-17 17.4-2.9 23-12.7 25.5-31.8h19.2m187.2 23.7c31.2 0 42.9 10.3 42.9 38.6 0 15.1-1 28.1-1 37.3 0 8.1 0 20 1.5 28.3-19.6 0-34.7 2.2-50.1 2.2-29.2 0-39.4-12.1-39.4-32.7 0-20 16.4-30.8 52.1-30.8 1.4 0 3.9 0 4.9.1v-2.1c0-14.1-4.3-20-18.6-20-10.2 0-20.8 3.6-28 7.5L408 33.5c8.2-3.4 21.7-5.7 36.9-5.7m.9 86.6c3.3 0 7.1-.4 9.7-1.1-.5-6.9-.3-16.8-.2-25.2-.7-.1-1.6-.1-2.5-.1h-1.7c-14.8 0-20.7 5-20.7 13.7 0 9.1 4.6 12.7 15.4 12.7M50.1 27.8C81.3 27.8 93 38.1 93 66.4V71c7.6 0 13.2.2 18.3.5 3.2-27.9 17.1-43.5 52.1-43.5 28.9 0 42.1 12.1 42.1 30.4 0 21.2-16.1 31-47.5 31-3.7 0-9.9-.1-13-.3v.7c0 14.5 9.5 23.6 27.1 23.6 10.6 0 20.3-3.3 27.2-7.3l1.2 22.6c-7 3.3-20.3 5.5-33.5 5.5-35.7 0-52.9-12.2-55.8-45.3-4.1-.2-10.2-.4-18.6-.5-.2 5.8-.4 11-.4 15.3 0 8.1.1 20 1.5 28.3-19.6 0-34.7 2.2-50.1 2.2C14.2 134.1 4 122 4 101.4c0-20 16.4-30.8 52.1-30.8 1.4 0 3.9 0 4.9.1v-2.1c0-14.1-4.3-20-18.6-20-10.2 0-20.8 3.6-28 7.5l-1.2-22.6c8.1-3.4 21.6-5.7 36.9-5.7m104.1 44.4c13.7 0 20.3-4.6 20.3-14.5 0-7-4.8-10.9-12.1-10.9-13 0-17.5 10.4-17.5 24.6v.5c2.5.2 6 .3 9.3.3M51 114.4c3.3 0 7.1-.4 9.7-1.1-.5-6.9-.3-16.8-.2-25.2-.8-.1-1.7-.1-2.6-.1h-1.7c-14.8 0-20.7 5-20.7 13.7 0 9.1 4.6 12.7 15.5 12.7m292-86.5c31.7 0 42.9 11.5 42.9 37.1 0 0-.2 11.4-.2 19.9-.1 15.7.6 39 1.4 47.1H353c.6-8.1 1.1-33.1 1.1-47.1 0-5.7-.2-15.3-.2-15.3 0-15.4-3.8-21-15.8-21-4.7 0-9 .9-12.4 2-.3 14.5-.5 25.3-.5 34.3-.1 15.7.6 39 1.4 47.1h-34.1c.6-8.1 1.2-33.1 1.1-47.1.1-13.7 0-35.9-1.1-53.8 20.1-.1 32.7-3.2 50.5-3.2M262 0h-27l-.5 3.5c-2.6 19.1-7.9 26-22.2 28.4l-3.3.5V43c0 3.2.1 6.5 0 9.1-2.9-18.1-19.2-28.3-45.6-28.3-33.2 0-51 13.8-55.5 43.3-3.1-.1-6.5-.2-10.8-.3v-.6c0-15.7-3.5-26.1-11.1-32.9-7.4-6.6-18.8-9.7-35.8-9.7-15 0-29.3 2.2-38.5 5.9L9 30.8l.2 2.8 1.2 22.6.3 6.3 5.5-3c6.3-3.4 16.5-7 26.1-7 10.9 0 14.3 3.1 14.6 14.1H56c-18.5 0-32.1 2.8-41.5 8.5C4.9 81 0 89.8 0 101.4c0 24.7 14.2 36.7 43.4 36.7 7.4 0 14.6-.5 22.3-1 8.6-.6 17.6-1.2 27.8-1.2h4.7l-.8-4.7C96 123 96 110.4 96 103.6c0-3.3.1-7 .3-11.2 4.5.1 8.3.2 11.1.3 4 31.8 21.9 45.5 59.5 45.5 13.8 0 27.6-2.3 35.2-5.9l2.4-1.1-.1-2.7-1.2-22.6-.4-6.5-5.7 3.3c-7.4 4.3-16.6 6.8-25.2 6.8-13.5 0-21.4-5.7-22.8-16.2 3 .1 6.4.1 8.8.1 34.1 0 51.5-11.8 51.5-35v-1.5h11.1c-.2 11.6-.5 28.7-.5 44.7 0 12.6 3.3 21.7 10.1 27.9 6.4 5.8 15.7 8.6 28.3 8.6 11.2 0 19.5-1.6 22.7-2.5l3.1-.9-.2-3.2-1.4-22.5-.4-6.9-5.8 3.9c-1.2.8-4.2 1.6-6.8 1.6-6.8 0-9.6-.6-9.6-15.4V56.9h20.7V27h-20.3c.2-7.5.7-16.6 1.2-22.7L262 0zM148.9 68.1c1-17.3 9.9-17.3 13.4-17.3 5.4 0 8.1 2.3 8.1 6.9 0 9.2-7.8 10.5-16.3 10.5-1.9 0-3.7-.1-5.2-.1zM51 110.4c-7.8 0-11.5-1.3-11.5-8.7 0-3.2 0-9.7 16.7-9.7h.2c-.1 6.3-.1 12.7.1 18-1.8.3-3.7.4-5.5.4zm393.9-86.6c-15 0-29.3 2.2-38.5 5.9l-2.6 1.1.2 2.8 1.2 22.6.3 6.3 5.5-3c6.3-3.4 16.5-7 26.1-7 10.9 0 14.3 3.1 14.6 14.1h-.9c-18.5 0-32.1 2.8-41.5 8.5-9.7 5.9-14.6 14.7-14.6 26.3 0 24.7 14.2 36.7 43.4 36.7 7.4 0 14.6-.5 22.3-1 8.6-.6 17.6-1.2 27.8-1.2h4.7l-.8-4.7c-1.4-8.2-1.4-20.8-1.4-27.6 0-3.9.2-8.5.4-13.9.3-6.9.6-14.8.6-23.4 0-15.7-3.5-26.1-11.1-32.9-7.2-6.5-18.6-9.6-35.7-9.6zm.9 86.6c-7.8 0-11.5-1.3-11.5-8.7 0-3.2 0-9.7 16.7-9.7h.2c-.1 6.3-.1 12.7.1 18-1.7.3-3.7.4-5.5.4zM343 23.9c-8.9 0-16.3.7-24.1 1.5-8 .8-16.2 1.6-26.2 1.6h-4.3l.3 4.2c.8 13.6 1.2 31.6 1.1 53.6.1 14.1-.5 39-1.1 46.7l-.3 4.3h42.8l-.4-4.4c-.8-8-1.4-31.1-1.4-46.6 0-9 .1-19.3.4-31.3 2.7-.7 5.6-1 8.4-1 6.1 0 8.1 1.7 9.1 3.1 1.8 2.4 2.6 6.8 2.6 13.9 0 .1.2 9.7.2 15.3 0 14.7-.5 39.2-1.1 46.8l-.3 4.3h42.8l-.4-4.4c-.8-8-1.5-31.1-1.4-46.6 0-8.4.2-19.8.2-19.9 0-28.8-14-41.1-46.9-41.1z"/><path fill="#FFF" d="M501.7 46.4c-1.6 0-3.1-.3-4.4-.9-1.3-.6-2.4-1.4-3.3-2.4-.9-1-1.6-2.2-2-3.5-.5-1.3-.7-2.7-.7-4.1 0-1.4.2-2.8.7-4.1.5-1.3 1.2-2.5 2.1-3.5.9-1 2-1.8 3.3-2.4 1.3-.6 2.8-.9 4.4-.9s3.1.3 4.4.9c1.3.6 2.4 1.4 3.3 2.4.9 1 1.6 2.2 2 3.5.5 1.3.7 2.7.7 4.1 0 1.4-.2 2.8-.7 4.1-.5 1.3-1.2 2.5-2.1 3.5-.9 1-2 1.8-3.3 2.4-1.3.6-2.8.9-4.4.9zm4.6-9c.1-.3.2-.7.2-1l-.1.1c-.1.2-.3.3-.4.4l.3.5z"/><path fill="#00A78E" d="M501.7 26.6c1.3 0 2.5.2 3.5.7 1 .5 1.9 1.1 2.6 1.9.7.8 1.3 1.7 1.7 2.8.4 1.1.6 2.2.6 3.4s-.2 2.4-.6 3.4c-.4 1.1-.9 2-1.7 2.8-.7.8-1.6 1.5-2.6 1.9-1 .5-2.2.7-3.5.7-1.3 0-2.5-.2-3.5-.7-1-.5-1.9-1.1-2.7-1.9-.7-.8-1.3-1.8-1.6-2.8-.4-1.1-.6-2.2-.6-3.4s.2-2.4.6-3.4c.4-1.1.9-2 1.7-2.8.7-.8 1.6-1.4 2.6-1.9s2.2-.7 3.5-.7m0 16.3c1.1 0 2.1-.2 2.9-.6.9-.4 1.6-1 2.2-1.6.6-.7 1-1.5 1.3-2.4.3-.9.5-1.8.5-2.8 0-1-.2-1.9-.5-2.8-.3-.9-.7-1.7-1.3-2.4-.6-.7-1.3-1.2-2.2-1.6-.9-.4-1.8-.6-2.9-.6-1.1 0-2.1.2-2.9.6s-1.6.9-2.1 1.6c-.6.7-1 1.5-1.3 2.4-.3.9-.5 1.8-.5 2.8 0 1.5.3 2.9 1 4.1.7 1.2 1.6 2.1 2.9 2.8.8.3 1.8.5 2.9.5m-.3-13c1.5 0 2.6.3 3.2.9.6.6 1 1.4 1 2.3 0 .4-.1.8-.2 1.2-.1.4-.3.7-.5.9-.2.3-.5.5-.8.7-.3.2-.6.3-.9.4h.1l2.6 4.3c-.2.1-.3.1-.5.2-.2 0-.3.1-.4.1-.3 0-.5-.1-.7-.2-.2-.1-.4-.3-.6-.6l-2.2-3.6h-1.3v4.2h-1.6V30.1c.5-.1 1-.1 1.5-.1.6-.1 1-.1 1.3-.1m-1.3 1.6l.1 3.5h1.6c1.5 0 2.2-.6 2.2-1.9 0-.6-.2-1-.6-1.3-.4-.3-1-.4-1.9-.4h-.8s-.4.1-.6.1m1.6-8.9c-1.9 0-3.6.4-5.2 1.1-1.5.7-2.9 1.7-4 2.9s-1.9 2.6-2.5 4.1c-.5 1.5-.8 3.1-.8 4.8 0 1.7.3 3.3.8 4.8.5 1.6 1.4 3 2.4 4.1 1.1 1.3 2.5 2.2 4 2.9 1.6.7 3.3 1.1 5.2 1.1 1.9 0 3.6-.4 5.2-1.1 1.5-.7 2.9-1.7 4-2.9s1.9-2.6 2.5-4.2c.5-1.5.8-3.1.8-4.8 0-1.7-.3-3.3-.8-4.8-.6-1.5-1.4-2.9-2.4-4.1-1.1-1.2-2.4-2.2-4-2.9-1.6-.6-3.3-1-5.2-1z"/></svg>