<svg xmlns="http://www.w3.org/2000/svg" width="59.7" height="176.8" viewBox="0 0 59.7 176.8"><path fill="#FFF" d="M24.5 164.9c1.1 2.4 1.4 4.7-1.5 4.6l-.8-1.1-4.9-6.8-1.4 1.9c-.8 1.1-1 2.5-.5 3.7.4 1 .8 2.1 1.1 2.8.2.6.7 1 1.3 1.4l3.4 2.4c.8.6.5 1.3.2 2l-.5.5c-.7.7-2 .8-2.8.2l-3.8-2.7c-.4-.1-.7-.3-.9-.6l-5.9-8.9c-.4-.5-.9-3-.8-3.6l2.5-9.7c0-.3.2-2.3.2-2.6L0 107.1v-7.3s1.1-36.4 3.3-35.9l22.2 4.9c1.7.4-3.6 19.3-3.6 19.3-2.4 9.2-3.2 12.3-3.9 17.7l2.5 44.5c0 .2 0 .4.1.6l3.9 14zM58.8 15.8S64.5 2.5 46.9.1 6.1 40.8 2.2 61.3l27.4 6.6 29.2-52.1z"/></svg>