<svg xmlns="http://www.w3.org/2000/svg" width="532.4" height="141.1" viewBox="0 0 532.4 141.1"><path fill="#32CFB6" d="M525.1 126.4V18h4.4v-6.4h2.3L516.1 0H16.3L.5 11.5h2.3V18h4.4v108.4H0v14.7h221.4v-22.5c0-5.4 4.9-9.8 11-9.8s11 4.4 11 9.8v22.5h11.8v-22.5c0-5.4 4.9-9.8 11-9.8s11 4.4 11 9.8v22.5H289v-22.5c0-5.4 4.9-9.8 11-9.8s11 4.4 11 9.8v22.5h221.4v-14.7h-7.3z"/><path fill="#00A78E" d="M45.6 121.4H30.9v-19.3c0-3.2 3.3-5.8 7.4-5.8 4.1 0 7.3 2.6 7.3 5.8v19.3zM28.9 65.2h18.5v23.7H28.9zm0-34.3h18.5v23.7H28.9zm58.3 90.5H72.5v-19.3c0-3.2 3.3-5.8 7.4-5.8 4.1 0 7.3 2.6 7.3 5.8v19.3zM70.6 65.2h18.5v23.7H70.6zm0-34.3h18.5v23.7H70.6zm58.2 90.5h-14.7v-19.3c0-3.2 3.3-5.8 7.4-5.8 4.1 0 7.3 2.6 7.3 5.8v19.3zm-16.6-56.2h18.5v23.7h-18.5zm0-34.3h18.5v23.7h-18.5zm58.3 90.5h-14.7v-19.3c0-3.2 3.3-5.8 7.4-5.8 4 0 7.3 2.6 7.3 5.8v19.3zm-16.6-56.2h18.5v23.7h-18.5zm0-34.3h18.5v23.7h-18.5zm58.2 90.5h-14.7v-19.3c0-3.2 3.3-5.8 7.4-5.8 4 0 7.3 2.6 7.3 5.8v19.3zm-16.6-56.2H214v23.7h-18.5zm0-34.3H214v23.7h-18.5zm27.7 34.3h17.9v31.2h-17.9zm0-34.3h17.9V50h-17.9zm34 34.3h17.9v31.2h-17.9zm0-34.3h17.9V50h-17.9zm34.1 34.3h17.9v31.2h-17.9zm0-34.3h17.9V50h-17.9zm43.7 90.5h-14.7v-19.3c0-3.2 3.3-5.8 7.3-5.8s7.3 2.6 7.3 5.8v19.3zm-16.7-56.2h18.5v23.7h-18.5zm0-34.3h18.5v23.7h-18.5zm58.3 90.5h-14.7v-19.3c0-3.2 3.3-5.8 7.3-5.8s7.3 2.6 7.3 5.8v19.3zM360 65.2h18.5v23.7H360zm0-34.3h18.5v23.7H360zm58.2 90.5h-14.7v-19.3c0-3.2 3.3-5.8 7.3-5.8 4.1 0 7.4 2.6 7.4 5.8v19.3zm-16.6-56.2h18.5v23.7h-18.5zm0-34.3h18.5v23.7h-18.5zm58.3 90.5h-14.7v-19.3c0-3.2 3.3-5.8 7.4-5.8 4 0 7.3 2.6 7.3 5.8v19.3zm-16.7-56.2h18.5v23.7h-18.5zm0-34.3h18.5v23.7h-18.5zm58.3 90.5h-14.7v-19.3c0-3.2 3.3-5.8 7.4-5.8 4.1 0 7.3 2.6 7.3 5.8v19.3zm-16.6-56.2h18.5v23.7h-18.5zm0-34.3h18.5v23.7h-18.5z"/></svg>