<svg xmlns="http://www.w3.org/2000/svg" width="153.4" height="134" viewBox="0 0 153.4 134"><path fill="#00A78E" d="M91.5 128.5c35.3-10.4 61.8-52.7 61.8-103.1 0-4.8-3.2-9-7.8-10.3l-18.8-5.2C124.1 4 118.3 0 111.5 0c-9.2 0-16.6 7.4-16.6 16.6 0 9.2 7.4 16.6 16.6 16.6 3.5 0 6.7-1.1 9.3-2.9l10.9 3c-2.7 41.7-26.2 74.6-55.1 76.1-28.8-1.4-52.3-34.3-55-76l10.7-3c2.6 1.8 5.8 2.8 9.2 2.8 9.2 0 16.6-7.4 16.6-16.6C58.2 7.4 50.8 0 41.6 0 34.8 0 29 4.1 26.4 9.9L7.8 15.1C3.2 16.3 0 20.6 0 25.4c0 54.3 30.8 99.2 70.2 104.9 0 4.9 21.3 5.5 21.3-1.8z"/></svg>