<svg xmlns="http://www.w3.org/2000/svg" width="108.1" height="108.1" viewBox="0 0 108.1 108.1"><g fill="#00A78E"><path d="M102.4 46.1l-7-1.5c-1.1-4.7-2.9-9.2-5.5-13.2l3.9-6c2.2-2.2 2.9-5.1 1.6-6.4l-6.3-6.3c-1.3-1.3-4.2-.6-6.4 1.6l-6 3.9c-4-2.5-8.4-4.4-13.2-5.5l-1.5-7C62 2.6 60.5 0 58.6 0h-9c-1.9 0-3.4 2.5-3.4 5.7l-1.5 7c-4.7 1.1-9.2 2.9-13.2 5.5l-6-3.9c-2.2-2.2-5.1-2.9-6.4-1.6L12.7 19c-1.3 1.3-.6 4.2 1.6 6.4l3.9 6c-2.5 4-4.4 8.4-5.5 13.2l-7 1.5c-3.1 0-5.7 1.5-5.7 3.4v9c0 1.9 2.5 3.4 5.7 3.4l7 1.5c1.1 4.7 2.9 9.2 5.5 13.2l-3.9 6c-2.2 2.2-2.9 5.1-1.6 6.4l6.3 6.3c1.3 1.3 4.2.6 6.4-1.6l6-3.9c4 2.5 8.4 4.4 13.2 5.5l1.5 7c0 3.1 1.5 5.7 3.4 5.7h9c1.9 0 3.4-2.5 3.4-5.7l1.5-7c4.7-1.1 9.2-2.9 13.2-5.5l6 3.9c2.2 2.2 5.1 2.9 6.4 1.6l6.3-6.3c1.3-1.3.6-4.2-1.6-6.4l-3.9-6c2.5-4 4.4-8.4 5.5-13.2l7-1.5c3.1 0 5.7-1.5 5.7-3.4v-9c.1-1.8-2.5-3.4-5.6-3.4zM54 88.9c-19.2 0-34.8-15.6-34.8-34.8 0-19.2 15.6-34.8 34.8-34.8 19.2 0 34.8 15.6 34.8 34.8.1 19.2-15.5 34.8-34.8 34.8z"/><path d="M54 21.7c-17.9 0-32.3 14.5-32.3 32.3 0 17.9 14.5 32.3 32.3 32.3 17.9 0 32.3-14.5 32.3-32.3.1-17.8-14.4-32.3-32.3-32.3zM54 70c-8.8 0-16-7.2-16-16s7.2-16 16-16 16 7.2 16 16c0 8.9-7.1 16-16 16z"/></g></svg>