<svg xmlns="http://www.w3.org/2000/svg" width="84.2" height="84.2" viewBox="0 0 84.2 84.2"><g fill="#00A78E"><path d="M76.1 21.6l-5.7.9c-2.2-3.2-5-6-8.1-8.3l1.1-5.7c1-2.3.7-4.7-.7-5.3L56 .5c-1.4-.6-3.4.8-4.4 3.1l-3.4 4.7c-3.8-.7-7.7-.8-11.5-.1l-3.3-4.8C32.5 1 30.5-.4 29.1.1l-6.7 2.7c-1.4.6-1.8 2.9-.9 5.3l.9 5.7c-3.2 2.2-6 5-8.3 8.1l-5.7-1.1c-2.3-1-4.7-.7-5.3.7L.2 28.2c-.6 1.4.8 3.4 3.1 4.4L8 36c-.7 3.8-.8 7.7-.1 11.5l-4.8 3.3C1 51.7-.4 53.6.1 55l2.7 6.7c.6 1.4 2.9 1.8 5.3.9l5.7-.9c2.2 3.2 5 6 8.1 8.3l-1.1 5.7c-1 2.3-.7 4.7.7 5.3l6.7 2.9c1.4.6 3.4-.8 4.4-3.1l3.4-4.7c3.8.7 7.7.8 11.5.1l3.3 4.8c.9 2.4 2.9 3.8 4.3 3.3l6.7-2.7c1.4-.6 1.8-2.9.9-5.3l-.9-5.7c3.2-2.2 6-5 8.3-8.1l5.7 1.1c2.3 1 4.7.7 5.3-.7l2.9-6.7c.6-1.4-.8-3.4-3.1-4.4l-4.7-3.4c.7-3.8.8-7.7.1-11.5l4.8-3.3c2.4-.9 3.8-2.9 3.3-4.3l-2.7-6.7c-.8-1.5-3.2-1.9-5.6-1zM52.6 68.3C38.1 74.1 21.7 67 15.9 52.6c-5.8-14.5 1.3-30.9 15.7-36.7 14.5-5.8 30.9 1.3 36.7 15.7 5.8 14.5-1.2 30.9-15.7 36.7z"/><path d="M32.7 18.4c-13.1 5.2-19.4 20.1-14.2 33.1 5.2 13.2 20 19.5 33.1 14.3C64.7 60.6 71 45.7 65.8 32.7c-5.2-13.1-20.1-19.5-33.1-14.3zm14.1 35.4c-6.5 2.6-13.8-.6-16.4-7-2.6-6.5.6-13.8 7-16.4 6.5-2.6 13.8.6 16.4 7 2.6 6.5-.5 13.9-7 16.4z"/></g></svg>