<svg xmlns="http://www.w3.org/2000/svg" width="278" height="283.5" viewBox="0 0 278 283.5"><path fill="#FFF" d="M0 141.7C0 220 62.2 283.5 139 283.5S278 220 278 141.7 215.7 0 139 0 0 63.5 0 141.7"/><path fill="#00A78E" d="M111.8 141.9c-3.2 2.6-7.1 5.6-10.5 7.9-5.5 3.8-18 14.8-27.7 24.5l-22.2 22.2c-2.5 2.5 1.8 10.9 9.5 18.6 6.2 6.2 12.9 10.2 16.6 10.2.9 0 1.6-.2 2.1-.7l22.2-22.2c9.7-9.7 20.7-22.2 24.5-27.7 2.4-3.5 5.4-7.5 8.1-10.7l-3.6-3.6c-7.5-7.6-13.9-13.8-19-18.5m-51.4 62l-2.5-4.5 33-33 3.5 3.5-34 34zm16.2 14.3l-4.5-2.5 33.9-33.9 3.5 3.5-32.9 32.9zM188.8 71.9l2 5.2-45.3 45.3c2.5 2.6 5.2 5.3 8.1 8.3L199 85.2l5.2 2 11.5-19.3-7.6-7.5-19.3 11.5zm27.3 107.7c-3.5-3.5-11-7.3-16.8-8.4-5.8-1.2-12.4-3-14.7-4.1-2.3-1.1-16.4-14.3-31.3-29.2-14.9-14.9-28.1-29.1-29.2-31.3-1.1-2.3-2.2-9.4-2.5-15.8-.2-6.4-3.7-14.9-7.6-18.9-4-4-11.7-8.3-17.3-9.7-3.5-.8-6.8-1.3-9.1-1.3-1.4 0-2.4.2-2.7.5l-2.3 2.3c-.3.3 3.8 5 9.2 10.3 5.4 5.4 9.7 10.4 9.7 11.2 0 .8-1.7 3.8-3.7 6.8s-6 7-9 9-6 3.6-6.8 3.7c-.8 0-5.8-4.4-11.2-9.7-5.2-5.2-9.7-9.2-10.3-9.2h-.1l-2.3 2.3c-.9.9-.6 6.2.8 11.8 1.4 5.6 5.7 13.4 9.7 17.3 4 4 12.4 7.4 18.9 7.6 6.4.2 13.5 1.4 15.8 2.5 2.3 1.1 16.4 14.3 31.3 29.2 14.9 14.9 28.1 29 29.2 31.3 1.1 2.3 3 8.9 4.1 14.7 1.2 5.8 5 13.4 8.4 16.8 3.5 3.5 10.3 7.3 15.2 8.5 2.2.5 4.4.8 6.3.8 2.4 0 4.3-.4 5.1-1.2 1.4-1.4 2.7-2.7 2.9-3 .2-.2-3.4-4.2-8.2-9-4.7-4.7-8.6-9-8.6-9.6 0-.6 1-2.8 2.3-5 1.3-2.1 4.1-4.9 6.2-6.2 2.1-1.3 4.3-2.3 4.9-2.3.6.1 4.9 3.9 9.6 8.6 4.6 4.6 8.5 8.2 8.9 8.2.2-.2 1.6-1.5 3-3 1.4-1.4 1.6-6.5.4-11.4-1-4.8-4.8-11.6-8.2-15.1"/></svg>