<svg xmlns="http://www.w3.org/2000/svg" width="149.8" height="502.3" viewBox="0 0 149.8 502.3"><path fill="#FFF" d="M122.5 97.3s1.7-14.9 6.3-10.7c3.8 3.4 5.6 19.3 3.3 30.4-1 5-6.9 10.5-9.4 8.1-2.5-2.3-.2-27.8-.2-27.8m-99.2-2.5S21.1 80 16.2 84.3c-5.1 4.5-4.6 23.6-2.9 30.5 1.2 4.9 7.8 10.4 10.4 7.9 2.7-2.6-.4-27.9-.4-27.9"/><path fill="#FFF" d="M21 73.8c.1 5.2-3.4 47.1 11.2 65.4 8.3 10.4 19.9 20.5 26.7 22.1 11 2.6 18.1 4.5 27.8 2.4s23.9-12.2 32.7-31.7c4.2-9.3 15.5-82.3-5.5-103-13.8-13.5-44-11.8-55.7-11.3-11.7.5-37.7 4.7-37.2 56.1m15.2 428.5l-5.5-157.8h82.2l-1.8 157.8H77.5V374.4c0-3.4-1.2-6.1-5-6.1s-5 2.7-5 6.1v127.9H36.2z"/><path fill="#00A78E" d="M93.1 91.1c0 2.8 2.3 5.1 5.2 5.1 2.9 0 5.2-2.3 5.2-5.1s-2.3-5.1-5.2-5.1c-2.9 0-5.2 2.3-5.2 5.1"/><path fill="#00A78E" d="M113.9 92.5c-.1 0-7.1-6.8-15.5-6.8-4.3 0-9 1.8-13.1 7.3l1.3 1.5c3.8-5 7.9-6.6 11.8-6.6 3.8 0 7.5 1.6 10.2 3.2 1.3.8 2.4 1.6 3.2 2.2.4.3.7.5.9.7l.3.3.9-1.8z"/><path fill="#FFF" d="M97 91c0 1-.5 1.8-1.2 1.8s-1.2-.8-1.2-1.8.5-1.8 1.2-1.8c.6.1 1.2.9 1.2 1.8"/><path fill="#00A78E" d="M57.9 91.1c0 2.8-2.3 5.1-5.2 5.1-2.9 0-5.2-2.3-5.2-5.1s2.3-5.1 5.2-5.1c2.9 0 5.2 2.3 5.2 5.1"/><path fill="#00A78E" d="M38.2 94.2l.3-.3c1.4-1.2 7.5-6.1 14.2-6.1 3.9 0 8.1 1.6 11.8 6.6l1.3-1.5c-4.1-5.4-8.8-7.3-13.1-7.3-8.4 0-15.5 6.8-15.6 6.8l1.1 1.8z"/><path fill="#FFF" d="M50.7 91c0 1-.5 1.8-1.2 1.8s-1.2-.8-1.2-1.8.5-1.8 1.2-1.8c.7.1 1.2.9 1.2 1.8"/><path fill="#00A78E" d="M61.4 68.4s6.6 5.9 1 6.9c-5.6 1.1-14.7-.9-18.7 0-4.1.9-12 4-12 4l-.5-3.3s10.9-10.3 30.2-7.6M89.1 63s-6.4 5.6-.8 6.9 14.6-.4 18.7.7 12.1 4.4 12.1 4.4l.4-3.3S108.3 61 89.1 63m-19.9 55.5s.4.1 1.1.2c.7.1 1.7.3 3 .4 1.2.1 2.6.3 4 .1.7-.1 1.3-.3 1.6-.6.1-.1.1-.2.2-.3v-.1.1-.1l.1-.3c.1-.4.1-.7.2-1.1.1-.8.1-1.6.1-2.3 0-.8 0-1.6-.1-2.3-.1-1.5-.2-3-.2-4.2-.1-2.5-.1-4.2-.1-4.2s.7 1.6 1.3 4c.3 1.2.6 2.7.8 4.2.1.8.2 1.6.2 2.4v2.6c-.1.5-.1 1-.3 1.4l-.1.3v.2l-.1.2c-.1.3-.3.5-.5.8-.4.4-.9.7-1.4.8-.5.1-.9.2-1.4.2-.9 0-1.7-.1-2.4-.2s-1.4-.3-2-.5c-1.2-.4-2.2-.8-2.8-1.1l-1.2-.6m-10.3 9.1s18.4 7.6 33.5 1.2c-2.1 4.4-22.2 15.4-33.5-1.2"/><path fill="#00A78E" d="M18.8 83s-9.7-25-7.7-35c2-10 6.9-19 24.6-35C47.2 2.4 67.6.6 69.8 3.2c3.4 3.9 9.4 5.6 13.7.6 4.3-5 19.5-1.8 17.6 2.3 8.1-4.7 13.8 4 13.8 4s30.6 3.9 13.9 83.1c-1.5 7-3.2 14.9-3.2 14.9-6.2.4-.7-9.2.3-38.4 1.3-40.3-36.1-31.5-49.9-33-16.8-1.9-44.8-4.1-49.9 17.5-5 21.6-2.7 50.7-2.7 50.7l-4.6 4.7V83z"/><path fill="none" stroke="#FFF" stroke-width="2.562" stroke-miterlimit="10" d="M18.8 83s-9.7-25-7.7-35c2-10 6.9-19 24.6-35C47.2 2.4 67.6.6 69.8 3.2c3.4 3.9 9.4 5.6 13.7.6 4.3-5 19.5-1.8 17.6 2.3 8.1-4.7 13.8 4 13.8 4s30.6 3.9 13.9 83.1c-1.5 7-3.2 14.9-3.2 14.9-6.2.4-.7-9.2.3-38.4 1.3-40.3-36.1-31.5-49.9-33-16.8-1.9-44.8-4.1-49.9 17.5-5 21.6-2.7 50.7-2.7 50.7l-4.6 4.7V83z"/><path fill="#FFF" d="M62.6 164.9s.4 14.2-6.3 18.1c-6 3.5-8.7 4.3-8.7 4.3s29.4 11.8 53 2.3c-12.7-3.4-11.8-7.8-11.8-7.8L86.5 167l-23.9-2.1z"/><path fill="none" stroke="#00A78E" stroke-width="2" stroke-miterlimit="10" d="M62.6 164.9s.4 14.2-6.3 18.1c-6 3.5-8.7 4.3-8.7 4.3s29.4 11.8 53 2.3c-12.7-3.4-11.8-7.8-11.8-7.8L86.5 167l-23.9-2.1z"/><path fill="#FFF" d="M145.2 250.1l-29.5 6.8-3.2-13.9 3.4 34.1c.4 5.8.7 24.6-.7 41.6l-2.9 22.7H31.7l-3-26.6c-.9-14 .1-34.9.6-40.3l4.7-31.8-3.9 13.1-28.2-6.7s3-10.3 13.1-32.2c10.1-21.9 32.6-29.6 32.6-29.6l27.1 4.3 25.9-2.1s24 6 34.1 27.9c10.1 21.9 10.1 32.4 10.1 32.4"/><path fill="none" stroke="#00A78E" stroke-width="2" stroke-miterlimit="10" d="M145.2 250.1l-29.5 6.8-3.2-13.9 3.4 34.1c.4 5.8.7 24.6-.7 41.6l-2.9 22.7H31.7l-3-26.6c-.9-14 .1-34.9.6-40.3l4.7-31.8-3.9 13.1-28.2-6.7s3-10.3 13.1-32.2c10.1-21.9 32.6-29.6 32.6-29.6l27.1 4.3 25.9-2.1s24 6 34.1 27.9c10.1 21.9 10.1 32.4 10.1 32.4"/><path fill="#FFF" d="M26.1 356.1c1.1 2.4 1.5 4.8-1.5 4.7l-.8-1.2-5.1-7-1.4 1.9c-.9 1.1-1 2.5-.5 3.8.4 1 .9 2.1 1.2 2.9.2.6.7 1.1 1.3 1.4l3.5 2.4c.8.6.5 1.3.2 2l-.5.5c-.7.7-2 .8-2.9.2l-3.9-2.7c-.4-.1-.7-.3-.9-.6l-6-9.1c-.4-.5-1-3.1-.9-3.7l2.6-9.9c.1-.3.2-2.4.2-2.7L1 296.8v-7.4s1.1-37.3 3.4-36.8l22.7 5c1.8.4-3.7 19.8-3.7 19.8-2.5 9.4-3.3 12.6-4 18.2l2.6 45.7c0 .2 0 .4.1.6l4 14.2z"/><path fill="none" stroke="#00A78E" stroke-width="2" stroke-miterlimit="10" d="M26.1 356.1c1.1 2.4 1.5 4.8-1.5 4.7l-.8-1.2-5.1-7-1.4 1.9c-.9 1.1-1 2.5-.5 3.8.4 1 .9 2.1 1.2 2.9.2.6.7 1.1 1.3 1.4l3.5 2.4c.8.6.5 1.3.2 2l-.5.5c-.7.7-2 .8-2.9.2l-3.9-2.7c-.4-.1-.7-.3-.9-.6l-6-9.1c-.4-.5-1-3.1-.9-3.7l2.6-9.9c.1-.3.2-2.4.2-2.7L1 296.8v-7.4s1.1-37.3 3.4-36.8l22.7 5c1.8.4-3.7 19.8-3.7 19.8-2.5 9.4-3.3 12.6-4 18.2l2.6 45.7c0 .2 0 .4.1.6l4 14.2z"/><path fill="#FFF" d="M125.9 369.7c-.9 0-1.7-.3-2.3-.9l-.7-.6-.1-.4c-.2-.6-.6-2 .7-2.9l3.6-2.4c.5-.3.8-.6 1-1l1.2-2.9c.4-.9.3-2-.3-2.8l-.6-.9-5.6 7.3h-.5c-1.4 0-2.4-.4-2.9-1.3-.7-1.1-.5-2.6.5-4.9l4.3-14.2c0-.1.1-.3.1-.4l3.7-45.5c-.4-2.5-1.1-6-2.3-10.2 0-.2-.1-.3-.1-.4-3-9.6-7.8-26-6.6-27.9.2-.3.5-.5.8-.6l23-4.5h.1c1.2 0 2.3 0 4.2 19.4.9 9.1 1.5 18.4 1.5 18.5l-.2 7.6-10.7 42.2c0 .3.1 2 .1 2.3l2.3 9.9c.1 1-.6 3.8-1.1 4.5l-6.3 9c-.3.4-.8.8-1.3.9l-3.8 2.6c-.4.3-1.1.5-1.7.5"/><path fill="#00A78E" d="M143 253.3c2.3 0 4.7 36.9 4.7 36.9l-.2 7.4-10.6 42.1c-.1.3 0 2.4.1 2.7l2.3 10c.1.6-.6 3.2-.9 3.7l-6.3 9c-.2.3-.6.5-.9.6l-4 2.7c-.4.3-.9.4-1.3.4-.6 0-1.2-.2-1.6-.6l-.5-.5c-.2-.7-.6-1.4.3-2l3.6-2.4c.6-.3 1.1-.8 1.3-1.4.3-.8.8-1.9 1.2-2.9.5-1.3.4-2.7-.4-3.8l-1.4-2-5.2 6.9-.9 1.1h-.1c-3 0-2.5-2.3-1.4-4.8l4.3-14.2c.1-.2.1-.4.1-.6l3.7-45.6c-.6-4.5-2.4-10.7-2.4-10.9 0 0-8.4-26.9-6.6-27.2l23.1-4.6c-.1 0 0 0 0 0m0-2h-.4l-22.8 4.5c-.6.1-1.1.5-1.5 1.1-.5.9-1.1 1.9 2.7 15.8 1.8 6.3 3.7 12.5 3.8 12.9 0 .1.1.2.1.4 1.1 4.2 1.9 7.5 2.2 10l-3.7 45.4v.2l-4.3 14.1c-.8 1.6-1.6 3.9-.5 5.7.5.8 1.5 1.7 3.7 1.7h1.1l.6-.8.9-1.1 3.6-4.7c.2.4.3 1 .1 1.6-.4 1-.9 2.1-1.2 2.9-.1.2-.2.3-.5.4h-.2l-3.6 2.4c-2 1.4-1.4 3.4-1.2 4.1l.1.2.2.5.4.4.5.5c.8.7 1.8 1.2 3 1.2.9 0 1.7-.2 2.4-.7l3.7-2.5c.7-.2 1.3-.7 1.7-1.3l6.3-9c.6-.9 1.5-3.9 1.3-5.1v-.2l-2.3-9.9c0-.4-.1-1.5-.1-2l10.6-41.9.1-.2v-.2l.2-7.4v-.2c0-.1-.6-9.4-1.5-18.5-.5-5.4-1-9.7-1.5-12.8-1.2-5.3-1.9-7.5-4-7.5"/><path fill="#FFF" d="M70.1 502.1s-1.7-13.3-29-12.1c-27.2 1.2-29.3 10-30.4 12.3m139.1-.2s-1.7-13.3-29-12.1c-27.2 1.2-29.3 10-30.4 12.3"/></svg>