<svg xmlns="http://www.w3.org/2000/svg" width="235.7" height="698.4" viewBox="0 0 235.7 698.4"><path fill="#FFF" d="M163.6 130.3s2.2-20 8.4-14.4c5.1 4.6 7.5 26 4.4 40.9-1.4 6.7-9.3 14.2-12.6 10.9-3.3-3.2-.2-37.4-.2-37.4m-133.3-3.4s-2.9-19.9-9.5-14.2c-6.9 6-6.2 31.7-3.9 41 1.7 6.6 10.5 13.9 14 10.6 3.6-3.3-.6-37.4-.6-37.4"/><path fill="#FFF" d="M27.2 98.7c.1 7-4.5 63.3 15.1 87.9 11.2 14 26.8 27.5 35.8 29.6 14.8 3.5 24.4 6.1 37.4 3.3s32.2-16.4 44-42.7c5.6-12.5 20.9-110.7-7.4-138.4C133.6 20.3 93 22.6 77.2 23.3c-15.7.7-50.7 6.3-50 75.4m63.1 575.8s-2.5-19.2-41.9-17.5C9.1 658.6 6 671.4 4.5 674.7m43.1-.1l-7.4-212.1h110.5l19.5 212.1h-45.1l-22-171.9c0-4.5-1.6-8.2-6.7-8.2s-6.7 3.7-6.7 8.2v171.9H47.6z"/><path fill="#00A78E" d="M124.1 122c0 3.8 3.1 6.9 7 6.9s7-3.1 7-6.9c0-3.8-3.1-6.9-7-6.9-3.8 0-7 3.1-7 6.9"/><path fill="#00A78E" d="M152.1 123.7c-.1-.1-9.6-9.1-20.9-9.1-5.8 0-12.1 2.5-17.6 9.8l1.7 2c5.1-6.7 10.6-8.9 15.9-8.9 5.2 0 10.1 2.1 13.7 4.3 1.8 1.1 3.3 2.2 4.3 3 .5.4.9.7 1.2 1l.4.4 1.3-2.5z"/><path fill="#FFF" d="M129.3 121.8c0 1.3-.7 2.4-1.6 2.4-.9 0-1.6-1.1-1.6-2.4 0-1.3.7-2.4 1.6-2.4.9 0 1.6 1.1 1.6 2.4"/><path fill="#00A78E" d="M76.8 122c0 3.8-3.1 6.9-7 6.9s-7-3.1-7-6.9c0-3.8 3.1-6.9 7-6.9s7 3.1 7 6.9"/><path fill="#00A78E" d="M50.3 126.1l.4-.4c1.8-1.6 10.1-8.2 19.1-8.2 5.3 0 10.9 2.2 15.9 8.9l1.7-2c-5.5-7.3-11.8-9.8-17.6-9.8-11.3 0-20.8 9.1-20.9 9.1l1.4 2.4zm31.2-34.7s8.9 7.9 1.4 9.3c-7.5 1.4-19.7-1.2-25.2 0s-16.1 5.4-16.1 5.4l-.7-4.5c.1 0 14.7-13.8 40.6-10.2m37.2-7.2s-8.6 7.6-1.1 9.3c7.5 1.7 19.7-.5 25.2.9s16.3 6 16.3 6l.5-4.5c0-.1-15-14.4-40.9-11.7M92 158.7s.6.1 1.5.3c1 .2 2.3.4 4 .6 1.6.2 3.6.4 5.4.2.9-.1 1.8-.4 2.2-.9.1-.1.1-.1.1-.2s.1-.1.1-.2v-.1.1-.1l.1-.4.1-.4v-.4l.1-.7c.1-1 .1-2.1.1-3.2s0-2.1-.1-3.2c-.1-2.1-.2-4-.3-5.7-.2-3.3-.3-5.6-.3-5.6s.8 2.1 1.6 5.4c.2.8.4 1.7.6 2.7.2 1 .4 2 .5 3 .1 1.1.3 2.1.3 3.3.1 1.1.1 2.3 0 3.5-.1.6-.2 1.4-.3 1.8l-.1.4v.2l-.1.3c-.1.2-.2.4-.3.5-.1.2-.2.3-.4.5-.5.6-1.2.9-1.9 1.1-.6.2-1.2.3-1.8.3-1.2.1-2.2-.1-3.2-.2-1-.2-1.9-.4-2.7-.7-1.6-.5-2.9-1.1-3.8-1.5-.9-.4-1.4-.7-1.4-.7"/><path fill="#00A78E" d="M24.3 111s-13-33.6-10.4-47.1c2.6-13.5 9.3-25.6 33-47.1C62.4 2.7 89.8.3 92.9 3.8c4.6 5.3 12.6 7.6 18.4.8 5.8-6.7 26.2-2.4 23.6 3.1 10.9-6.3 18.5 5.4 18.5 5.4s41.1 5.2 18.7 111.7c-2 9.4-4.3 20-4.3 20-8.3.5-.9-12.4.4-51.7 1.8-54.1-48.5-42.3-67.1-44.4-22.5-2.5-60.3-5.5-67 23.6-6.8 29-3.7 68.1-3.7 68.1l-6.2 6.3V111z"/><path fill="none" stroke="#FFF" stroke-width="2.383" stroke-miterlimit="10" d="M24.3 111s-13-33.6-10.4-47.1c2.6-13.5 9.3-25.6 33-47.1C62.4 2.7 89.8.3 92.9 3.8c4.6 5.3 12.6 7.6 18.4.8 5.8-6.7 26.2-2.4 23.6 3.1 10.9-6.3 18.5 5.4 18.5 5.4s41.1 5.2 18.7 111.7c-2 9.4-4.3 20-4.3 20-8.3.5-.9-12.4.4-51.7 1.8-54.1-48.5-42.3-67.1-44.4-22.5-2.5-60.3-5.5-67 23.6-6.8 29-3.7 68.1-3.7 68.1l-6.2 6.3V111z"/><path fill="#FFF" d="M83.2 221.1s.5 19.1-8.5 24.4c-8.1 4.7-11.7 5.8-11.7 5.8s39.6 15.9 71.2 3c-17-4.6-15.9-10.5-15.9-10.5l-3-19.8-32.1-2.9z"/><path fill="none" stroke="#00A78E" stroke-width="2.862" stroke-miterlimit="10" d="M83.2 221.1s.5 19.1-8.5 24.4c-8.1 4.7-11.7 5.8-11.7 5.8s39.6 15.9 71.2 3c-17-4.6-15.9-10.5-15.9-10.5l-3-19.8-32.1-2.9z"/><path fill="#FFF" d="M194.1 335.7l-39.6 9.1-4.4-18.7 4.6 45.9c.6 7.8.9 33.1-.9 56l-3.9 30.5H41.6l-4-35.8c-1.2-18.9.1-47 .8-54.2l6.3-42.8-5.2 17.6-38-9s4-13.9 17.7-43.3C32.8 261.5 63 251.2 63 251.2l36.4 5.8 34.8-2.8s32.2 8.1 45.9 37.6c13.6 29.5 13.6 43.6 13.6 43.6"/><path fill="none" stroke="#00A78E" stroke-width="2.383" stroke-miterlimit="10" d="M194.1 335.7l-39.6 9.1-4.4-18.7 4.6 45.9c.6 7.8.9 33.1-.9 56l-3.9 30.5H41.6l-4-35.8c-1.2-18.9.1-47 .8-54.2l6.3-42.8-5.2 17.6-38-9s4-13.9 17.7-43.3C32.8 261.5 63 251.2 63 251.2l36.4 5.8 34.8-2.8s32.2 8.1 45.9 37.6c13.6 29.5 13.6 43.6 13.6 43.6"/><path fill="#FFF" d="M168.2 496.2c-1.1 0-2.2-.4-3-1.1l-.9-.8-.2-.5c-.3-.8-.8-2.6.9-3.8l4.8-3.2c.7-.4 1.1-.8 1.3-1.4l1.7-3.9c.6-1.3.4-2.7-.5-4l-.9-1.3-6.1 7.9-1.5 2h-.6c-1.9 0-3.1-.5-3.8-1.6-.9-1.4-.7-3.4.7-6.4l5.8-19.1c.1-.2.1-.4.1-.6l5-61.2c-.5-3.4-1.5-8.1-3.1-13.8-.1-.2-.1-.4-.1-.5-4-12.9-10.5-34.8-8.9-37.4.2-.4.6-.6 1-.7l30.8-6.1h.2c1.5 0 3 0 5.5 25.9 1.2 12.3 2 24.7 2 24.9v.1l-.3 10.1-14.3 56.7c0 .4.1 2.7.1 3.1l3.1 13.4v.1c.2 1.2-.8 4.9-1.5 5.8l-8.4 12.1c-.4.6-1 1-1.7 1.2l-5.1 3.5c-.4.4-1.3.6-2.1.6"/><path fill="#00A78E" d="M191.1 339.9c3.1 0 6.3 49.6 6.3 49.6l-.3 10-14.3 56.5c-.1.4.1 3.2.1 3.6L186 473c.1.8-.8 4.2-1.3 5l-8.4 12.1c-.3.4-.7.6-1.2.8l-5.3 3.6c-.5.3-1.2.5-1.8.5-.8 0-1.6-.3-2.1-.8l-.7-.6c-.3-.9-.8-1.9.4-2.7l4.8-3.2c.8-.5 1.5-1.1 1.8-1.9.4-1 1.1-2.6 1.7-3.9.7-1.7.5-3.6-.6-5.1l-1.9-2.6-7.1 9.2-1.2 1.5h-.1c-4 0-3.4-3.1-1.8-6.4l5.8-19.1c.1-.3.1-.6.2-.9l5-61.3c-.8-6.1-3.2-14.4-3.3-14.7 0 0-11.2-36.1-8.9-36.6l31.1-6m0-2.4c-.2 0-.4 0-.5.1l-30.7 6.1c-.8.2-1.4.6-1.8 1.3-.7 1.2-1.5 2.5 3.7 21 2.3 8.3 4.8 16.4 5.1 17.3 0 .1.1.3.1.6 1.5 5.6 2.5 10.2 3 13.5l-5 61c0 .1 0 .3-.1.3l-5.8 19c-1 2.1-2.1 5.1-.6 7.5.6 1 1.9 2.2 4.7 2.2h1.3l.7-.9 1.2-1.5 5.1-6.6c.6.9.7 1.9.3 2.8-.6 1.3-1.2 2.9-1.7 3.9-.1.3-.4.5-.8.7h-.2l-4.8 3.2c-2.5 1.7-1.7 4.2-1.4 5.2l.1.2.2.6.4.4.7.6c1 .9 2.3 1.5 3.8 1.5 1.1 0 2.2-.3 3.1-.9l5-3.4c.9-.3 1.7-.8 2.2-1.6l8.4-12.1c.8-1.1 1.9-5.2 1.7-6.7v-.2l-3.1-13.3c0-.5-.1-2.2-.1-2.7l14.2-56.4.1-.3v-.3l.3-10v-.2c0-.1-.8-12.6-2-24.9-.7-7.3-1.4-13-2.1-17.2-1.1-6.9-2-9.8-4.7-9.8"/><path fill="#FFF" d="M234 660.9l-3.5-24.2c-1.6-10.9-11.7-18.5-22.6-17l-26.9 3.8-12.1-85.5c-.5-3.3-3.5-5.6-6.8-5.1l-59.4 8.5c-3.3.5-5.6 3.5-5.1 6.8l20.5 143.5c.5 3.3 3.5 5.6 6.8 5.1l59.4-8.5c.5-.1 1-.2 1.5-.4l31.3-4.5c10.8-1.5 18.4-11.7 16.9-22.5"/><path fill="none" stroke="#00A78E" stroke-width="3" stroke-miterlimit="10" d="M234 660.9l-3.5-24.2c-1.6-10.9-11.7-18.5-22.6-17l-26.9 3.8-12.1-85.5c-.5-3.3-3.5-5.6-6.8-5.1l-59.4 8.5c-3.3.5-5.6 3.5-5.1 6.8l20.5 143.5c.5 3.3 3.5 5.6 6.8 5.1l59.4-8.5c.5-.1 1-.2 1.5-.4l31.3-4.5c10.8-1.5 18.4-11.7 16.9-22.5z"/><path fill="#FFF" d="M174.1 574.3s-53.7-4.5-67.8 12.4c-17.1 20.6 36.1-50.9 36.1-50.9"/><path fill="none" stroke="#00A78E" stroke-width="3" stroke-miterlimit="10" d="M174.1 574.3s-53.7-4.5-67.8 12.4c-17.1 20.6 36.1-50.9 36.1-50.9"/><path fill="#FFF" d="M110.2 636.5s9.8-2.2 22.6-6.3c15.1-4.9 34.3-12.6 46-22.5"/><path fill="none" stroke="#00A78E" stroke-width="3" stroke-miterlimit="10" d="M110.2 636.5s9.8-2.2 22.6-6.3c15.1-4.9 34.3-12.6 46-22.5"/><path fill="#FFF" d="M199.7 620.9s-43.4 22.3-79.8 13.2"/><path fill="none" stroke="#00A78E" stroke-width="3" stroke-miterlimit="10" d="M199.7 620.9s-43.4 22.3-79.8 13.2"/><path fill="#FFF" d="M113.5 656.8s46.2.3 80.6 29.9"/><path fill="none" stroke="#00A78E" stroke-width="3" stroke-miterlimit="10" d="M113.5 656.8s46.2.3 80.6 29.9"/><path fill="#FFF" d="M226.7 629.2s-36.7 2.8-49.6 45.5"/><path fill="none" stroke="#00A78E" stroke-width="3" stroke-miterlimit="10" d="M226.7 629.2s-36.7 2.8-49.6 45.5"/></svg>