<svg xmlns="http://www.w3.org/2000/svg" width="128.9" height="80.4" viewBox="0 0 128.9 80.4">
  <path fill="#00A78E" d="M128.9 20.9L60 0 0 39.9l11.1 3.8 2.6 17.4c-1.3.8-2.2 2.4-1.9 4 .2 1.4 1.1 2.4 2.2 3-1.1 4.2-1.7 6.8-2.9 11.5 5.5 1.4 8.6.9 13.4-2-2.5-4.1-3.8-6.4-6.1-10.1.9-.9 1.4-2.2 1.2-3.5-.2-1.7-1.5-2.9-3-3.3l-2.3-15.9 12.5 4.3-1.4-9.6 1.6-1c.1 0 .1-.1.2-.1h.1C38.7 32 50.1 27.1 64.2 25c14.1-2.1 26.4-.8 39 2.2h.3l1.9.4 1.4 9.2 22.1-15.9zm-64.5 9c-12.5 1.8-24 5.9-34 11.7-.1 0-.2.1-.2.1l3 20.3 70.4-10.4-3-20.4c-.1 0-.2 0-.2-.1-11.3-2.5-23.5-3.1-36-1.2z"/>
</svg>