<svg xmlns="http://www.w3.org/2000/svg" width="106.9" height="104" viewBox="0 0 106.9 104">
  <path fill="#FFF" d="M92.2 14.1v3.5H19.9l-.1 14.1c-1.1.1-10.9 1.2-11.1 11-.2 7.7 7.2 9.9 11 10.5l-.1 24.5c-2.9 0-7.4 1.2-7.4 1.2s-5.9 1.3-10.3 8.5 0 16.6 0 16.6H107V0c-.1 0-14.8 2.5-14.8 14.1z"/>
  <path fill="#00A78E" d="M36.2 73.6c1.5 1.2 3.3 2.4 5.4 3.6 2.1 1.2 4.7 1.8 7.7 1.8 1.1 0 2.2-.1 3.3-.4 1.1-.3 2-.7 2.8-1.2.8-.6 1.5-1.3 2-2.3.5-.9.8-2.1.8-3.4 0-1.3-.2-2.5-.7-3.5-.5-1-1.1-1.8-2-2.5-.8-.7-1.8-1.3-3-1.8-1.1-.5-2.4-.9-3.8-1.3-2-.6-3.9-1.2-5.8-2.1-1.8-.8-3.5-1.8-4.9-3.1-1.4-1.3-2.6-2.8-3.4-4.6-.8-1.8-1.3-3.9-1.3-6.4 0-4 1.1-7.2 3.4-9.8 2.3-2.5 5.1-4.3 8.6-5.3V23h5.1v7.5h2.7c.3 0 .6 0 .8.1V23H59v8.2c1.7.4 3.2.9 4.4 1.5 1.2.5 2.1 1 2.6 1.4 1.5.9 2.2 2.2 2.2 3.7 0 .7-.3 1.6-.8 2.8-.6 1.2-1.3 2.3-2.3 3.4-1.3-1.1-3-2.2-5.1-3.1-2.1-1-4.4-1.5-6.7-1.5-.9 0-1.9.1-2.9.3-1 .2-1.9.5-2.8.9-.8.4-1.5 1.1-2.1 1.9-.5.8-.8 1.8-.8 3.1 0 1.1.2 2.1.6 2.9.4.8 1 1.5 1.8 2.1.8.6 1.8 1.2 3.1 1.7s2.7 1 4.5 1.6c2 .7 3.9 1.5 5.7 2.3 1.8.9 3.3 2 4.6 3.3 1.3 1.3 2.4 2.8 3.2 4.5.8 1.7 1.2 3.8 1.2 6.1 0 4-.9 7.4-2.8 10.1-1.8 2.7-4.4 4.8-7.5 6.1v9H54v-7.7l-1.8.3c-.6.1-1.2.1-1.8.2v7.3h-5.1v-7.5c-2.7-.3-4.9-.7-6.5-1.4-1.7-.6-2.9-1.2-3.8-1.8-.6-.4-1.1-1-1.5-1.6-.4-.6-.6-1.3-.6-2.1 0-.9.4-2 1.1-3.4.6-1.6 1.4-2.9 2.2-4z"/>
</svg>