<svg xmlns="http://www.w3.org/2000/svg" width="329.7" height="328.8" viewBox="0 0 329.7 328.8"><path fill="#00A78E" d="M35.9 15H279v81.1H35.9zm13 149.4h223.3v148.3H48.9z"/><path fill="#FFF" d="M5.5 328.8h316.6c4.6 0 7.5-2.9 7.5-6.5v-72.4c0-4.3-1.2-8.5-3.4-12.1l-54.6-89.4c-2.1-3.5-5.9-5.6-10-5.6h-38.1v-35.3h51c16.2 0 29.3-13.1 29.3-29.3V29.3c0-16.2-13.1-29.3-29.3-29.3H39.4C23.3 0 10.1 13.1 10.1 29.3v48.8c0 16.2 13.1 29.3 29.3 29.3H158v35.3H68c-4.1 0-7.8 2.1-10 5.6L3.4 237.6c-2.2 3.6-3.4 7.9-3.4 12.1v72.4c0 3.6 2.9 6.5 6.5 6.5m28-250.5V29.3c0-2.7 2.2-4.9 4.9-4.9h235.2c2.7 0 4.9 2.2 4.9 4.9v48.8c0 2.7-2.2 4.9-4.9 4.9H39.4c-2.7 0-4.9-2.2-4.9-4.9m215.1 128l2.3 5.4c1.3 3.1-.2 5.7-3.5 5.7H218c-3.3 0-6.4-2.6-7-5.7l-1.1-5.4c-.6-2.8 1.4-5.1 4.4-5.1H242c3 0 6.4 2.2 7.6 5.1M233 174.7c2.6 0 5.4 1.7 6.3 3.8l1.7 4c1 2.3-.5 4.2-3.3 4.2h-26c-2.8 0-5.4-1.9-5.9-4.2l-.8-4c-.4-2.1 1.3-3.8 3.9-3.8H233zm-83.9 3.8c.2-2.1 2.5-3.8 5.1-3.8h24.1c2.6 0 4.9 1.7 5.1 3.8l.4 4c.3 2.3-1.8 4.2-4.6 4.2h-26c-2.8 0-4.8-1.9-4.6-4.2l.5-4zm-3.4 33l.6-5.4c.3-2.8 3-5.1 6-5.1h27.8c3 0 5.6 2.2 6 5.1l.6 5.4c.3 3.1-2 5.7-5.3 5.7H151c-3.3 0-5.7-2.6-5.3-5.7m-57.1-29l1.7-4c.9-2.1 3.7-3.8 6.3-3.8h24.1c2.6 0 4.3 1.7 3.9 3.8l-.8 4c-.5 2.3-3.1 4.2-5.9 4.2h-26c-2.8 0-4.2-1.9-3.3-4.2m-10.8 29l2.3-5.4c1.2-2.8 4.6-5.1 7.5-5.1h27.8c3 0 5 2.2 4.4 5.1l-1.1 5.4c-.6 3.1-3.8 5.7-7 5.7H81.3c-3.3 0-4.8-2.6-3.5-5.7m-13 57.1H149c.3-8.5 7.3-15.4 15.9-15.4 8.6 0 15.6 6.8 15.9 15.4h84.1v32.5H64.8v-32.5z"/></svg>