<svg xmlns="http://www.w3.org/2000/svg" width="291.1" height="698.4" viewBox="0 0 291.1 698.4">
  <g fill="#55E1C8">
    <path d="M111.3 367.9c-1.3-2.2-.7-5 1.5-6.4 2.2-1.3 5-.7 6.4 1.5 1.3 2.2.7 5-1.5 6.4-2.2 1.4-5 .7-6.4-1.5"/>
    <path d="M108.9 364c-1.3-2.1-.6-4.7 1.4-6 2.1-1.3 4.7-.6 6 1.4 1.3 2.1.6 4.7-1.4 6-2 1.3-4.7.6-6-1.4m5.3 10.6c0 1.4-1.1 2.5-2.5 2.5s-2.5-1.1-2.5-2.5 1.1-2.5 2.5-2.5 2.5 1.1 2.5 2.5"/>
  </g>
  <path fill="#FFF" d="M219 130.3s2.2-20 8.4-14.4c5.1 4.6 7.5 26 4.4 40.9-1.4 6.7-9.3 14.2-12.6 10.9-3.3-3.2-.2-37.4-.2-37.4m-133.3-3.4s-2.9-19.9-9.5-14.2c-6.9 6-6.2 31.7-3.9 41 1.7 6.6 10.5 13.9 14 10.6 3.6-3.3-.6-37.4-.6-37.4"/>
  <path fill="#FFF" d="M82.6 98.7c.1 7-4.5 63.3 15.1 87.9 11.2 14 26.8 27.5 35.8 29.6 14.8 3.5 24.4 6.1 37.4 3.3s32.2-16.4 44-42.7c5.6-12.5 20.9-110.7-7.4-138.4-18.5-18.2-59.1-15.9-74.9-15.2-15.7.8-50.7 6.4-50 75.5m63.1 575.8s-2.5-19.2-41.9-17.5c-39.3 1.7-42.4 14.4-43.9 17.8m43.1-.2l-7.4-212.1h110.5l19.5 212.1h-45.1l-22-171.9c0-4.5-1.6-8.2-6.7-8.2s-6.7 3.7-6.7 8.2v171.9H103z"/>
  <path fill="#00A78E" d="M179.5 122c0 3.8 3.1 6.9 7 6.9s7-3.1 7-6.9c0-3.8-3.1-6.9-7-6.9-3.8 0-7 3.1-7 6.9"/>
  <path fill="#00A78E" d="M207.5 123.7c-.1-.1-9.6-9.1-20.9-9.1-5.8 0-12.1 2.5-17.6 9.8l1.7 2c5.1-6.7 10.6-8.9 15.9-8.9 5.2 0 10.1 2.1 13.7 4.3 1.8 1.1 3.3 2.2 4.3 3 .5.4.9.7 1.2 1l.4.4 1.3-2.5z"/>
  <path fill="#FFF" d="M184.7 121.8c0 1.3-.7 2.4-1.6 2.4-.9 0-1.6-1.1-1.6-2.4 0-1.3.7-2.4 1.6-2.4.9 0 1.6 1.1 1.6 2.4"/>
  <path fill="#00A78E" d="M132.2 122c0 3.8-3.1 6.9-7 6.9s-7-3.1-7-6.9c0-3.8 3.1-6.9 7-6.9s7 3.1 7 6.9"/>
  <path fill="#00A78E" d="M105.7 126.1l.4-.4c1.8-1.6 10.1-8.2 19.1-8.2 5.3 0 10.9 2.2 15.9 8.9l1.7-2c-5.5-7.3-11.8-9.8-17.6-9.8-11.3 0-20.8 9.1-20.9 9.1l1.4 2.4z"/>
  <path fill="#FFF" d="M122.5 121.8c0 1.3-.7 2.4-1.6 2.4-.9 0-1.6-1.1-1.6-2.4 0-1.3.7-2.4 1.6-2.4.9 0 1.6 1.1 1.6 2.4"/>
  <path fill="#00A78E" d="M136.9 91.4s8.9 7.9 1.4 9.3c-7.5 1.4-19.7-1.2-25.2 0S97 106.1 97 106.1l-.7-4.5c.1 0 14.7-13.8 40.6-10.2m37.2-7.2s-8.6 7.6-1.1 9.3c7.5 1.7 19.7-.5 25.2.9s16.3 6 16.3 6l.5-4.5c0-.1-15-14.4-40.9-11.7m-26.7 74.5s.6.1 1.5.3c1 .2 2.3.4 4 .6 1.6.2 3.6.4 5.4.2.9-.1 1.8-.4 2.2-.9.1-.1.1-.1.1-.2s.1-.1.1-.2v-.1.1-.1l.1-.4.1-.4v-.4l.1-.7c.1-1 .1-2.1.1-3.2s0-2.1-.1-3.2c-.1-2.1-.2-4-.3-5.7-.2-3.3-.3-5.6-.3-5.6s.8 2.1 1.6 5.4c.2.8.4 1.7.6 2.7.2 1 .4 2 .5 3 .1 1.1.3 2.1.3 3.3.1 1.1.1 2.3 0 3.5-.1.6-.2 1.4-.3 1.8l-.1.4v.2l-.1.3c-.1.2-.2.4-.3.5-.1.2-.2.3-.4.5-.5.6-1.2.9-1.9 1.1-.6.2-1.2.3-1.8.3-1.2.1-2.2-.1-3.2-.2-1-.2-1.9-.4-2.7-.7-1.6-.5-2.9-1.1-3.8-1.5-.9-.4-1.4-.7-1.4-.7M133.5 172s24.8 10.3 45 1.6c-2.8 6-29.8 20.7-45-1.6"/>
  <path fill="#00A78E" d="M79.7 111s-13-33.6-10.4-47.1c2.6-13.5 9.3-25.6 33-47.1 15.5-14.1 42.9-16.5 46-13 4.6 5.3 12.6 7.6 18.4.8 5.8-6.7 26.2-2.4 23.6 3.1 10.9-6.3 18.5 5.4 18.5 5.4s41.1 5.2 18.7 111.7c-2 9.4-4.3 20-4.3 20-8.3.5-.9-12.4.4-51.7 1.8-54.1-48.5-42.3-67.1-44.4-22.5-2.5-60.3-5.5-67 23.6-6.8 29-3.7 68.1-3.7 68.1l-6.2 6.3V111z"/>
  <path fill="none" stroke="#FFF" stroke-width="2.383" stroke-miterlimit="10" d="M79.7 111s-13-33.6-10.4-47.1c2.6-13.5 9.3-25.6 33-47.1 15.5-14.1 42.9-16.5 46-13 4.6 5.3 12.6 7.6 18.4.8 5.8-6.7 26.2-2.4 23.6 3.1 10.9-6.3 18.5 5.4 18.5 5.4s41.1 5.2 18.7 111.7c-2 9.4-4.3 20-4.3 20-8.3.5-.9-12.4.4-51.7 1.8-54.1-48.5-42.3-67.1-44.4-22.5-2.5-60.3-5.5-67 23.6-6.8 29-3.7 68.1-3.7 68.1l-6.2 6.3V111z"/>
  <path fill="#FFF" d="M138.6 221.1s.5 19.1-8.5 24.4c-8.1 4.7-11.7 5.8-11.7 5.8s39.6 15.9 71.2 3c-17-4.6-15.9-10.5-15.9-10.5l-3-19.8-32.1-2.9z"/>
  <path fill="none" stroke="#00A78E" stroke-width="2.862" stroke-miterlimit="10" d="M138.6 221.1s.5 19.1-8.5 24.4c-8.1 4.7-11.7 5.8-11.7 5.8s39.6 15.9 71.2 3c-17-4.6-15.9-10.5-15.9-10.5l-3-19.8-32.1-2.9z"/>
  <path fill="#FFF" d="M249.5 335.7l-39.6 9.1-4.4-18.7 4.6 45.9c.6 7.8.9 33.1-.9 56l-3.9 30.5H97l-4-35.8c-1.2-18.9.1-47 .8-54.2l6.3-42.8-5.2 17.6-38-9s4-13.9 17.7-43.3c13.6-29.4 43.8-39.8 43.8-39.8l36.4 5.8 34.8-2.8s32.2 8.1 45.9 37.6c13.6 29.5 13.6 43.6 13.6 43.6"/>
  <path fill="none" stroke="#00A78E" stroke-width="2.383" stroke-miterlimit="10" d="M249.5 335.7l-39.6 9.1-4.4-18.7 4.6 45.9c.6 7.8.9 33.1-.9 56l-3.9 30.5H97l-4-35.8c-1.2-18.9.1-47 .8-54.2l6.3-42.8-5.2 17.6-38-9s4-13.9 17.7-43.3c13.6-29.4 43.8-39.8 43.8-39.8l36.4 5.8 34.8-2.8s32.2 8.1 45.9 37.6c13.6 29.5 13.6 43.6 13.6 43.6"/>
  <path fill="#FFF" d="M223.5 496.2c-1.1 0-2.2-.4-3-1.1l-.9-.8-.2-.5c-.3-.8-.8-2.6.9-3.8l4.8-3.2c.7-.4 1.1-.8 1.3-1.4l1.7-3.9c.6-1.3.4-2.7-.5-4l-.9-1.3-6.1 7.9-1.5 2h-.6c-1.9 0-3.1-.5-3.8-1.6-.9-1.4-.7-3.4.7-6.4l5.8-19.1c.1-.2.1-.4.1-.6l5-61.2c-.5-3.4-1.5-8.1-3.1-13.8-.1-.2-.1-.4-.1-.5-4-12.9-10.5-34.8-8.9-37.4.2-.4.6-.6 1-.7l30.8-6.1h.2c1.5 0 3 0 5.5 25.9 1.2 12.3 2 24.7 2 24.9v.1l-.3 10.1-14.3 56.7c0 .4.1 2.7.1 3.1l3.1 13.4v.1c.2 1.2-.8 4.9-1.5 5.8l-8.4 12.1c-.4.6-1 1-1.7 1.2l-5.1 3.5c-.3.4-1.2.6-2.1.6"/>
  <path fill="#00A78E" d="M246.5 339.9c3.1 0 6.3 49.6 6.3 49.6l-.3 10-14.3 56.5c-.1.4.1 3.2.1 3.6l3.1 13.4c.1.8-.8 4.2-1.3 5l-8.4 12.1c-.3.4-.7.6-1.2.8l-5.3 3.6c-.5.3-1.2.5-1.8.5-.8 0-1.6-.3-2.1-.8l-.7-.6c-.3-.9-.8-1.9.4-2.7l4.8-3.2c.8-.5 1.5-1.1 1.8-1.9.4-1 1.1-2.6 1.7-3.9.7-1.7.5-3.6-.6-5.1l-1.9-2.6-7.1 9.2-1.2 1.5h-.1c-4 0-3.4-3.1-1.8-6.4l5.8-19.1c.1-.3.1-.6.2-.9l5-61.3c-.8-6.1-3.2-14.4-3.3-14.7 0 0-11.2-36.1-8.9-36.6l31.1-6m0-2.4c-.2 0-.4 0-.5.1l-30.7 6.1c-.8.2-1.4.6-1.8 1.3-.7 1.2-1.5 2.5 3.7 21 2.3 8.3 4.8 16.4 5.1 17.3 0 .1.1.3.1.6 1.5 5.6 2.5 10.2 3 13.5l-5 61c0 .1 0 .3-.1.3l-5.8 19c-1 2.1-2.1 5.1-.6 7.5.6 1 1.9 2.2 4.7 2.2h1.3l.7-.9 1.2-1.5 5.1-6.6c.6.9.7 1.9.3 2.8-.6 1.3-1.2 2.9-1.7 3.9-.1.3-.4.5-.8.7h-.2l-4.8 3.2c-2.5 1.7-1.7 4.2-1.4 5.2l.1.2.2.6.4.4.7.6c1 .9 2.3 1.5 3.8 1.5 1.1 0 2.2-.3 3.1-.9l5-3.4c.9-.3 1.7-.8 2.2-1.6l8.4-12.1c.8-1.1 1.9-5.2 1.7-6.7v-.2l-3.1-13.3c0-.5-.1-2.2-.1-2.7l14.2-56.4.1-.3v-.3l.3-10v-.2c0-.1-.8-12.6-2-24.9-.7-7.3-1.4-13-2.1-17.2-1.1-6.9-2-9.8-4.7-9.8"/>
  <path fill="#FFF" d="M289.4 660.9l-3.5-24.2c-1.6-10.9-11.7-18.5-22.6-17l-26.9 3.8-12.1-85.5c-.5-3.3-3.5-5.6-6.8-5.1l-59.4 8.5c-3.3.5-5.6 3.5-5.1 6.8l20.5 143.5c.5 3.3 3.5 5.6 6.8 5.1l59.4-8.5c.5-.1 1-.2 1.5-.4l31.3-4.5c10.8-1.5 18.4-11.7 16.9-22.5"/>
  <path fill="none" stroke="#00A78E" stroke-width="3" stroke-miterlimit="10" d="M289.4 660.9l-3.5-24.2c-1.6-10.9-11.7-18.5-22.6-17l-26.9 3.8-12.1-85.5c-.5-3.3-3.5-5.6-6.8-5.1l-59.4 8.5c-3.3.5-5.6 3.5-5.1 6.8l20.5 143.5c.5 3.3 3.5 5.6 6.8 5.1l59.4-8.5c.5-.1 1-.2 1.5-.4l31.3-4.5c10.8-1.5 18.4-11.7 16.9-22.5z"/>
  <path fill="#FFF" d="M229.4 574.3s-53.7-4.5-67.8 12.4c-17.1 20.6 36.1-50.9 36.1-50.9"/>
  <path fill="none" stroke="#00A78E" stroke-width="3" stroke-miterlimit="10" d="M229.4 574.3s-53.7-4.5-67.8 12.4c-17.1 20.6 36.1-50.9 36.1-50.9"/>
  <path fill="#FFF" d="M165.6 636.5s9.8-2.2 22.6-6.3c15.1-4.9 34.3-12.6 46-22.5"/>
  <path fill="none" stroke="#00A78E" stroke-width="3" stroke-miterlimit="10" d="M165.6 636.5s9.8-2.2 22.6-6.3c15.1-4.9 34.3-12.6 46-22.5"/>
  <path fill="#FFF" d="M255.1 620.9s-43.4 22.3-79.8 13.2"/>
  <path fill="none" stroke="#00A78E" stroke-width="3" stroke-miterlimit="10" d="M255.1 620.9s-43.4 22.3-79.8 13.2"/>
  <path fill="#FFF" d="M168.9 656.8s46.2.3 80.6 29.9"/>
  <path fill="none" stroke="#00A78E" stroke-width="3" stroke-miterlimit="10" d="M168.9 656.8s46.2.3 80.6 29.9"/>
  <path fill="#FFF" d="M282.1 629.2s-36.7 2.8-49.6 45.5"/>
  <path fill="none" stroke="#00A78E" stroke-width="3" stroke-miterlimit="10" d="M282.1 629.2s-36.7 2.8-49.6 45.5"/>
  <path fill="#FFF" d="M15.5 317.9l45.1-16.5-8.8-20.8s-18.6-29.1-3.2-50.7c4.6-6.5 17.3-16.8 31.9.2.8.9 1.8 1.8 2.3 3 11.5 25 7.8 34.4 8 45.4.3 14.3 3.2 24.6 12.8 35.2 8.3 9.2 14.4 30.4 6.4 49.1 0 0-1.2 38.2-7.6 39.2l-83.2-20"/>
  <path fill="#00A78E" d="M15.5 317.9l11.2-4.4 11.2-4.4 22.4-8.7-.6 1.4c-3.1-6.9-6.1-13.8-9.1-20.7l.1.2c-2.7-4.3-4.7-8.7-6.4-13.4-1.7-4.7-2.8-9.6-3.3-14.6-.4-5-.1-10.2 1.4-15.1.7-2.5 1.8-4.8 3.1-7.1.6-1.1 1.4-2.2 2.1-3.2.8-1.1 1.7-2 2.6-3 1.9-1.8 4-3.4 6.4-4.6 2.4-1.2 5.2-1.8 7.9-1.8 2.8 0 5.5.8 7.9 2 2.4 1.2 4.5 2.8 6.4 4.5.9.9 1.9 1.8 2.7 2.7l1.2 1.3c.4.5.9 1 1.3 1.6.2.3.4.7.6 1.1l.1.3.1.2.2.4.7 1.7c.5 1.1 1 2.2 1.4 3.4 1.9 4.6 3.5 9.3 4.6 14.2 1.1 4.9 1.7 10 1.5 15 0 2.5-.2 5-.3 7.3-.1 2.4-.1 4.6 0 7.1.2 4.7.8 9.4 2.2 13.7.6 2.2 1.5 4.3 2.5 6.4 1 2.1 2.2 4 3.6 5.9.7 1 1.4 1.8 2.1 2.8l2.3 2.7c1.7 2.1 3.1 4.2 4.2 6.5 2.3 4.5 3.8 9.4 4.8 14.4 1.8 9.9.9 20.4-3.1 29.7l.2-.7-.3 5.1-.4 5.1c-.3 3.4-.6 6.8-1.1 10.2-.4 3.4-1 6.8-1.8 10.2-.4 1.7-.9 3.4-1.5 5.1-.3.9-.7 1.7-1.3 2.6-.3.4-.6.9-1.1 1.3-.5.4-1.1.8-1.9 1l-.3.1-.3-.1L81 398c-6.9-1.8-13.8-3.5-20.7-5.4l-20.7-5.4c-6.9-1.8-13.8-3.7-20.7-5.5 7 1.5 14 2.9 20.9 4.5l20.9 4.6c7 1.5 13.9 3.1 20.9 4.6l20.9 4.7h-.6s.1 0 .3-.2c.2-.2.3-.4.5-.7.4-.6.7-1.3.9-2 .5-1.5.9-3.1 1.3-4.7.7-3.2 1.1-6.6 1.5-9.9.4-3.3.6-6.7.9-10.1.2-3.4.4-6.8.5-10.1v-.4l.1-.3c3.6-8.6 4.3-18.2 2.5-27.4-.9-4.6-2.4-9-4.5-13.1-1-2-2.3-4-3.7-5.6l-2.4-2.8c-.8-1-1.6-2-2.3-3-3-4.1-5.4-8.7-6.8-13.6-1.5-4.9-2.2-9.9-2.4-14.9-.1-2.4-.2-5 0-7.5.1-2.5.3-4.9.3-7.2.1-4.7-.4-9.3-1.4-13.9-1-4.6-2.6-9.1-4.3-13.5-.4-1.1-.9-2.2-1.4-3.3l-.7-1.7-.3-.7c-.1-.2-.2-.3-.3-.5-.2-.4-.6-.7-1-1.2l-1.2-1.4c-.8-.9-1.5-1.7-2.4-2.5-1.7-1.6-3.4-2.9-5.4-3.9-1.9-1-4-1.6-6.1-1.6-4.2-.2-8.3 2-11.5 5.1-.8.8-1.6 1.6-2.2 2.5-.7.9-1.3 1.9-1.9 2.8-1.2 2-2.1 4-2.8 6.2-1.4 4.3-1.9 9-1.6 13.7.3 4.7 1.3 9.3 2.8 13.8 1.5 4.5 3.4 8.9 5.8 12.9l.1.1v.1c2.8 7 5.7 14 8.5 21l.4 1-1 .3-22.7 7.8-11.4 3.9-11.1 4.3z"/>
  <path fill="#FFF" d="M43.4 309.3S11.5 317.7 8.9 322c0 0-13.3 17.4 2.5 26 0 0-3-5.1-10.6 10.3 0 0-5.5 16.6 11.8 24.6L.5 375.5s1.5 41.5 12 40.3c0 0-4.2 15.2 14.5 21.6 0 0 37.9 16.6 70.5 0 0 0 10.7-7.5 0-23 0 0 15.5-8.5-1.6-28.8 0 0 9.6-12.8.5-27.8 0 0 13.9-18.7-12.8-38.4l-40.2-10.1zM18.8 433s38.7 30.5 77.7 8.6c0 0 11.6-11.3 2.4-25.7"/>
  <path fill="#00A78E" d="M18.8 433c3 1.8 6 3.3 9.1 4.8 1.5.7 3.1 1.4 4.7 2.1 1.6.7 3.2 1.3 4.7 1.9 1.6.6 3.2 1.1 4.8 1.6 1.6.5 3.2 1 4.9 1.4 1.6.4 3.3.8 4.9 1.1 1.6.3 3.3.6 5 .8 3.3.4 6.6.6 10 .6 3.3 0 6.6-.3 9.9-.9 3.3-.5 6.5-1.4 9.6-2.4 1.6-.5 3.1-1.1 4.7-1.8 1.5-.6 3-1.4 4.5-2.1l-.4.3c.3-.3.7-.7 1-1.1.4-.4.7-.8 1-1.3.3-.4.6-.9.9-1.3.3-.5.6-.9.8-1.4 1.1-1.9 1.8-4 2.2-6.1.1-.5.2-1.1.2-1.6s.1-1.1.1-1.7c0-.6 0-1.1-.1-1.7-.1-.6-.2-1.1-.2-1.7-.2-1.1-.5-2.2-.9-3.3-.2-.6-.4-1.1-.6-1.6l-.7-1.6c.4.5.7.9 1.1 1.4.3.5.7 1 .9 1.5.6 1 1.1 2.1 1.5 3.3.8 2.3 1.2 4.7 1.1 7.2-.1 2.5-.7 4.9-1.7 7.2-.5 1.1-1.1 2.2-1.7 3.3-.3.5-.7 1-1.1 1.6-.4.5-.7 1-1.3 1.5l-.1.1-.3.2c-1.5.9-3.1 1.8-4.7 2.6s-3.2 1.5-4.9 2.1c-1.7.6-3.4 1.2-5.1 1.7-1.7.5-3.5.9-5.2 1.2-3.5.6-7.1 1-10.7 1-1.8 0-3.6-.1-5.3-.2-1.8-.2-3.5-.3-5.3-.7-3.5-.6-6.9-1.4-10.3-2.5-3.3-1.1-6.6-2.4-9.8-3.9-1.6-.8-3.1-1.6-4.7-2.4-1.5-.8-3-1.8-4.5-2.7-1.5-.9-2.9-2-4.3-3-1.1-1.2-2.4-2.4-3.7-3.5"/>
  <path fill="#FFF" d="M20.8 317.1s41.7-7.5 72.1 8c0 0 20.3 22.4 0 33.1 0 0-38.4 1.6-57.7-4.8"/>
  <path fill="#00A78E" d="M20.8 317.1c1.5-.4 3-.7 4.5-.9 1.5-.3 3-.5 4.6-.7 1.5-.2 3.1-.4 4.6-.6 1.5-.2 3.1-.3 4.6-.4 1.5-.2 3.1-.2 4.6-.3 1.5-.1 3.1-.1 4.6-.1h4.6c1.5.1 3.1.1 4.7.2l4.6.4c1.5.1 3.1.4 4.6.6l2.3.3 2.3.4c1.5.3 3.1.6 4.6.9l4.6 1.2c.8.2 1.5.4 2.3.7l2.2.8 2.2.8c.7.2 1.5.6 2.2.9l4.3 1.9.3.2.3.3c.6.7 1.1 1.3 1.7 2l1.5 2.1c1 1.4 1.9 2.9 2.7 4.4.4.8.8 1.5 1.2 2.3.4.8.7 1.6 1 2.4.3.8.6 1.7.8 2.5.2.9.4 1.7.5 2.7.1.9.2 1.8.2 2.7v1.4l-.2 1.4-.3 1.4c-.1.5-.3.9-.4 1.4-.1.5-.4.9-.6 1.3-.2.4-.4.9-.7 1.3-.5.8-1.1 1.6-1.6 2.3-.6.7-1.3 1.4-2 1.9-.7.6-1.4 1.1-2.2 1.6-.7.5-1.5.9-2.3 1.3l-.4.2h-.5c-2.5.1-4.9.1-7.3 0-2.4 0-4.9-.1-7.3-.2-2.4-.1-4.9-.2-7.3-.3l-3.6-.3-3.6-.3s-2.4-.2-3.6-.4c-1.2-.1-2.4-.3-3.6-.4l-3.6-.5-3.6-.6-1.8-.3-1.8-.4c-1.2-.3-2.4-.5-3.6-.9-1.2-.3-2.3-.6-3.5-1l-3.4-1.2 3.5.8 3.6.6c1.2.2 2.4.3 3.6.5 1.2.1 2.4.3 3.6.4l3.6.3 3.6.2c1.2.1 2.4.1 3.6.2 1.2.1 2.4.1 3.6.1 1.2 0 2.4.1 3.6.1h10.8l7.2-.2c2.4-.1 4.8-.1 7.2-.3l-.9.2c.6-.4 1.3-.7 1.9-1.2.6-.4 1.2-.8 1.7-1.3.6-.5 1-1 1.5-1.5.4-.6.9-1.1 1.2-1.7.2-.3.3-.6.5-.9.1-.3.3-.6.4-.9.1-.3.2-.6.3-1l.2-1 .1-1v-1c0-.7-.1-1.4-.2-2.1-.1-.7-.3-1.4-.5-2.1-.2-.7-.4-1.4-.7-2.1l-.9-2.1c-.3-.7-.7-1.4-1-2.1-.7-1.4-1.5-2.7-2.4-4-.4-.6-.9-1.3-1.4-1.9-.5-.6-1-1.2-1.4-1.8l.6.5-4.1-1.9c-.7-.3-1.3-.7-2-.9l-2.1-.8-2.1-.8c-.7-.3-1.4-.5-2.1-.7l-4.3-1.3c-1.4-.4-2.9-.7-4.4-1l-2.2-.5-2.2-.4c-1.5-.3-3-.6-4.5-.8l-4.5-.6c-1.5-.2-3-.3-4.5-.4-1.5-.2-3-.3-4.5-.3-1.5-.1-3-.2-4.6-.2-1.5 0-3-.1-4.6-.1h-4.6c-1.5 0-3.1 0-4.6.1-1.5 0-3.1.1-4.6.2-1.3 0-2.9.1-4.4.3"/>
  <path fill="#FFF" d="M95.6 361.4s7.5 16 0 26.7c0 0-21.2 12.3-65.2-3.2"/>
  <path fill="#00A78E" d="M95.6 361.4l.9 1.5c.3.5.5 1 .8 1.6.5 1.1.9 2.2 1.3 3.3.2.6.4 1.1.5 1.7.2.6.3 1.1.5 1.7.1.6.3 1.2.4 1.8l.3 1.8c.1.6.1 1.2.1 1.8.1.6 0 1.2 0 1.8 0 .6 0 1.2-.1 1.8-.1.6-.1 1.2-.2 1.9l-.4 1.8c-.1.6-.4 1.2-.6 1.8-.2.6-.4 1.2-.8 1.8-.3.6-.6 1.1-.9 1.7l-.2.3-.4.3c-.8.5-1.4.7-2.1 1.1-.7.3-1.4.6-2 .8-1.4.5-2.8.9-4.2 1.3-1.4.4-2.8.6-4.2.9-1.4.3-2.8.4-4.3.6l-4.3.3-4.3.1c-1.4 0-2.8-.1-4.3-.2l-2.1-.1-2.1-.3c-1.4-.2-2.8-.3-4.2-.6-1.4-.3-2.8-.5-4.2-.8-.7-.1-1.4-.3-2.1-.4l-2-.5c-1.4-.3-2.7-.7-4.1-1.1-1.4-.4-2.7-.9-4-1.3l-4-1.4c-2.6-1.1-5.2-2.2-7.7-3.4 2.8.5 5.5 1.1 8.2 1.8l4.1.8c1.4.3 2.7.6 4.1.8 1.4.2 2.7.4 4.1.6l2 .3c.7.1 1.4.2 2 .2 1.4.1 2.7.3 4.1.5 1.4.1 2.7.2 4.1.3l2 .2h2c1.4 0 2.7.1 4.1.1l4.1-.1 4-.3c1.3-.2 2.7-.3 4-.5 1.3-.2 2.6-.4 3.9-.8 1.3-.3 2.6-.6 3.8-1 .6-.2 1.3-.4 1.9-.6.6-.2 1.2-.5 1.7-.7l-.6.6c.3-.4.6-.9.8-1.3.3-.4.5-.9.7-1.4.2-.5.5-.9.6-1.4l.5-1.5c.1-.5.2-1 .4-1.6.1-.5.2-1.1.3-1.6.1-.5.2-1.1.2-1.6 0-.6.1-1.1.1-1.7v-1.7c0-.6-.1-1.1-.1-1.7 0-.6-.1-1.1-.2-1.7-.1-.6-.1-1.1-.2-1.7-.2-1.1-.4-2.3-.6-3.4-.5-1.1-.8-2.2-1.1-3.3"/>
  <path fill="#FFF" d="M98.9 390.2s12.4 13.4 0 25.6c0 0-19.2 13.9-65.8 0"/>
  <path fill="#00A78E" d="M98.9 390.2c.9.8 1.7 1.7 2.5 2.6.7 1 1.4 2 2 3.1.6 1.1 1.1 2.2 1.5 3.4.2.6.4 1.2.5 1.8.1.6.2 1.3.3 1.9.1.6.1 1.3.1 1.9 0 .7-.1 1.3-.1 2-.1.6-.2 1.3-.4 1.9-.2.6-.4 1.2-.6 1.9-.3.6-.5 1.2-.8 1.8-.3.6-.6 1.1-1 1.7-.3.6-.8 1.1-1.1 1.6-.4.5-.8 1-1.3 1.5l-.1.1-.2.1c-.8.5-1.4.9-2.1 1.3-.7.4-1.3.7-2 1l-2 .9c-.7.3-1.4.5-2.1.8-1.4.5-2.8.8-4.2 1.2-1.4.3-2.9.6-4.3.8-1.4.2-2.9.4-4.3.5l-4.3.3h-4.3c-1.4 0-2.9-.1-4.3-.2s-2.9-.2-4.3-.4l-4.2-.6c-1.4-.2-2.8-.5-4.2-.8l-4.2-.9c-2.7-.8-5.5-1.5-8.2-2.4-2.7-1-5.3-2-7.9-3 2.8.4 5.6.9 8.3 1.4l4.2.6 4.1.6c1.4.1 2.8.3 4.2.4 1.4.1 2.8.4 4.1.4 1.4.1 2.8.2 4.1.3.7.1 1.4.1 2.1.1h2.1c1.4 0 2.8.1 4.1 0 1.4 0 2.7-.1 4.1-.1l4.1-.3c1.4-.1 2.7-.3 4-.5 1.3-.2 2.7-.5 4-.7 1.3-.3 2.6-.6 3.9-1 .6-.2 1.3-.4 1.9-.6l1.9-.7c.6-.3 1.2-.5 1.8-.8l1.6-.8-.2.2 1.2-1.2c.4-.4.8-.8 1.1-1.2.3-.4.7-.9 1-1.3.3-.4.5-.9.8-1.4.2-.5.5-1 .6-1.5.2-.5.4-1 .5-1.5.1-.5.3-1 .3-1.6.1-.5.1-1.1.1-1.6v-1.7c-.1-.6-.1-1.1-.2-1.7-.2-1.1-.5-2.2-.9-3.3-.4-1.1-.8-2.2-1.3-3.2-.8-1-1.3-2.1-2-3.1M47 267.7v.8c0 .5 0 1.2.2 2 .1.4.2.9.3 1.3.1.5.3.9.5 1.4.3.5.4 1 .8 1.4l.5.7.5.6c.3.4.8.7 1.2 1.1.4.3.9.5 1.3.8.5.2.9.4 1.3.6.4.2.9.3 1.3.5.4.1.7.3 1.1.4.3.1.6.2.9.2.5.1.8.2.8.2v.1H56c-.4 0-.8-.1-1.2-.1-.4-.1-.9-.2-1.4-.3l-1.5-.6c-.5-.3-1-.6-1.4-1-.4-.4-.9-.8-1.2-1.3l-.5-.7c-.2-.3-.3-.5-.4-.8-.3-.5-.5-1.1-.7-1.6-.1-.5-.3-1-.4-1.5-.1-.5-.2-1-.2-1.4-.1-.9 0-1.6 0-2.1s.1-.8.1-.8l-.2.1zm44.1-6.8s.3 1 .6 2.7c.1.8.2 1.8.2 2.8 0 1-.1 2.2-.4 3.3-.1.6-.3 1.1-.5 1.6-.3.5-.4 1-.8 1.5-.4.4-.6.9-1.1 1.2-.4.3-.7.6-1.1.8-.4.2-.7.4-1.1.5-.3.1-.6.2-.9.2-.5.1-.8.1-.8.1v-.1s.2-.2.7-.4c.2-.1.5-.3.7-.4.3-.2.5-.4.9-.7.3-.2.6-.5.9-.8.3-.3.6-.7.9-1.1.3-.4.5-.8.8-1.2.2-.5.4-.9.6-1.4.3-1 .5-2.1.6-3.1.1-.5 0-1 .1-1.5v-1.3c-.1-1.6-.3-2.7-.3-2.7zm-7.6 72s1.1 1.1 2.2 3.2c.3.5.6 1.1.8 1.7.3.6.5 1.3.7 2 .2.7.4 1.5.5 2.2.1.8.2 1.6.2 2.4v1.2c0 .4-.1.8-.1 1.2 0 .4-.1.8-.1 1.2-.1.4-.2.7-.3 1.1-.1.4-.1.7-.3 1.1-.1.3-.3.7-.4 1-.1.3-.3.6-.4.9-.2.3-.3.5-.5.8-.3.5-.6 1-.9 1.3-.3.4-.6.7-.8.9-.5.5-.7.8-.7.8s.2-.4.4-1c.1-.3.3-.7.5-1.1.2-.4.3-.9.5-1.4.1-.3.2-.5.3-.8.1-.3.2-.6.2-.9.2-.6.3-1.2.4-1.9.1-.3.1-.7.2-1 0-.3 0-.7.1-1.1 0-.4.1-.7.1-1.1v-1.1c0-.7-.1-1.4-.2-2.2l-.3-2.1c-.2-.7-.3-1.3-.5-1.9-.2-.6-.3-1.2-.5-1.7-.3-1.1-.7-2-.9-2.6 0-.8-.2-1.1-.2-1.1m-1.8 32.8s1.1.9 2.1 2.7c.3.4.6.9.8 1.5.3.5.5 1.1.7 1.7.2.6.4 1.3.5 2 .1.7.2 1.4.2 2.1v1.1c0 .4-.1.7-.1 1.1 0 .7-.2 1.4-.4 2-.1.7-.5 1.2-.7 1.8-.1.3-.2.5-.4.8-.2.2-.3.5-.5.7-.3.4-.6.8-.9 1.1l-.8.8c-.4.4-.7.6-.7.6s.2-.3.4-.8c.1-.3.3-.6.5-.9.2-.3.3-.8.5-1.2.1-.2.2-.5.3-.7.1-.2.2-.5.2-.8.2-.5.4-1.1.4-1.7.1-.3.1-.6.2-.9.1-.3 0-.6.1-.9 0-.3.1-.6.1-.9v-1c0-.6-.1-1.3-.2-1.9-.1-.6-.2-1.2-.4-1.8-.2-.6-.3-1.2-.5-1.7s-.3-1-.5-1.5c-.3-2.1-.9-3.3-.9-3.3"/>
  <path fill="#00A78E" d="M92.4 396.2s1.1.9 2.1 2.7c.3.4.6.9.8 1.5.3.5.5 1.1.7 1.7.2.6.4 1.3.5 2 .1.7.2 1.4.2 2.1v1.1c0 .4-.1.7-.1 1.1 0 .7-.2 1.4-.4 2-.1.7-.5 1.2-.7 1.8-.1.3-.2.5-.4.8-.2.2-.3.5-.5.7-.3.4-.6.8-.9 1.1l-.8.8c-.4.4-.7.6-.7.6s.2-.3.4-.8c.1-.3.3-.6.5-.9.2-.3.3-.8.5-1.2.1-.2.2-.5.3-.7.1-.2.2-.5.2-.8.2-.5.4-1.1.4-1.7.1-.3.1-.6.2-.9.1-.3 0-.6.1-.9 0-.3.1-.6.1-.9v-1c0-.6-.1-1.3-.2-1.9-.1-.6-.2-1.2-.4-1.8-.2-.6-.3-1.2-.5-1.7s-.3-1-.5-1.5c-.3-2.1-.9-3.3-.9-3.3m-5.2 35.1s.9.5 2 1.6c.2.3.5.6.8 1 .3.4.5.8.7 1.2.2.4.4.9.6 1.4.1.5.3 1 .3 1.6v.8c0 .3-.1.5-.1.8 0 .5-.3 1-.5 1.5s-.5.8-.8 1.2c-.2.4-.6.6-.9.9-.3.3-.5.5-.8.7-.3.2-.5.3-.7.4l-.6.3s.2-.2.4-.6c.1-.2.3-.4.5-.6.2-.2.4-.5.6-.8.1-.1.2-.3.3-.5.1-.2.2-.3.3-.5.1-.4.4-.7.5-1.1.1-.4.3-.8.3-1.3l.1-.7v-.7c0-.4-.1-.9-.2-1.3-.2-.4-.2-.9-.4-1.3s-.3-.8-.5-1.2c-.2-.4-.4-.7-.5-1-.2-.3-.3-.6-.5-.9-.2-.3-.3-.5-.4-.7-.4 0-.5-.2-.5-.2"/>
</svg>