<svg xmlns="http://www.w3.org/2000/svg" width="14.6" height="20.8" viewBox="0 0 14.6 20.8"><path fill="#00A78E" d="M0 18s.5.1 1.4.2c.9.1 2.1.4 3.6.5 1.5.2 3.2.3 4.9.1.8-.1 1.6-.4 2-.8.1 0 .1-.1.1-.2s.1-.1.1-.2v-.1.1-.1l.1-.4c.2-.5.1-.9.2-1.3.1-.9.1-1.9.1-2.9s0-1.9-.1-2.9c-.1-1.9-.2-3.6-.3-5.1-.2-2.9-.2-4.9-.2-4.9s.8 1.9 1.5 4.9c.2.7.4 1.5.5 2.4.1.8.3 1.7.4 2.7.1 1 .3 1.9.3 3 .1 1 .1 2.1 0 3.1-.1.6-.1 1.2-.3 1.7l-.1.4v.2l-.2.2c-.1.3-.4.6-.6.9-.5.5-1.1.8-1.7 1-.6.2-1.1.2-1.6.3-1 .1-2-.1-2.9-.2-.9-.1-1.7-.4-2.4-.6-1.5-.4-2.7-1-3.5-1.3C.4 18.2 0 18 0 18"/></svg>