<svg xmlns="http://www.w3.org/2000/svg" width="180.9" height="610.6" viewBox="0 0 180.9 610.6">
  <path fill="#FFF" d="M81.5 610.3s-2.1-16.2-35.2-14.7c-33.1 1.4-35.7 12.1-36.9 15m155-.3s-2.1-16.2-35.2-14.7c-33.1 1.4-35.7 12.1-36.9 15m55.8-492.7s2-18.1 7.6-13c4.6 4.2 6.8 23.5 4 37-1.2 6-8.4 12.8-11.4 9.9-3-2.9-.2-33.9-.2-33.9"/>
  <path fill="none" stroke="#00A78E" stroke-width="2.157" stroke-miterlimit="10" d="M148.1 117.9s2-18.1 7.6-13c4.6 4.2 6.8 23.5 4 37-1.2 6-8.4 12.8-11.4 9.9-3-2.9-.2-33.9-.2-33.9"/>
  <path fill="#FFF" stroke="#00A78E" stroke-width="2.157" stroke-miterlimit="10" d="M27.4 114.8s-2.6-18-8.6-12.8c-6.3 5.5-5.6 28.7-3.5 37.1 1.5 6 9.5 12.6 12.7 9.6 3.2-3-.6-33.9-.6-33.9"/>
  <path fill="#FFF" d="M24.6 89.3c.1 6.3-4.1 57.3 13.7 79.6 10.1 12.7 24.3 24.9 32.4 26.8 13.4 3.1 22 5.5 33.8 3 11.8-2.5 29.1-14.9 39.8-38.6 5.1-11.3 18.9-100.1-6.7-125.3-16.8-16.5-53.5-14.4-67.8-13.7-14.2.6-45.8 5.7-45.2 68.2m18.5 521.3l-6.7-192h100l-2.2 192H93.3V455c0-4.1-1.5-7.4-6-7.4-4.6 0-6 3.3-6 7.4v155.6H43.1z"/>
  <path fill="#00A78E" d="M22 100.5S10.2 70 12.6 57.9 21 34.7 42.4 15.2C56.5 2.5 81.3.3 84 3.4c4.2 4.8 11.4 6.9 16.7.8 5.2-6.1 23.7-2.2 21.4 2.8 9.9-5.7 16.8 4.8 16.8 4.8s37.2 4.7 16.9 101.1c-1.8 8.5-3.9 18.1-3.9 18.1-7.5.5-.8-11.2.4-46.7 1.6-49-43.9-38.3-60.7-40.2-20.4-2.2-54.6-4.9-60.7 21.4-6.1 26.3-3.3 61.6-3.3 61.6l-5.6 5.7v-32.3z"/>
  <path fill="none" stroke="#FFF" stroke-width="2.157" stroke-miterlimit="10" d="M22 100.5S10.2 70 12.6 57.9 21 34.7 42.4 15.2C56.5 2.5 81.3.3 84 3.4c4.2 4.8 11.4 6.9 16.7.8 5.2-6.1 23.7-2.2 21.4 2.8 9.9-5.7 16.8 4.8 16.8 4.8s37.2 4.7 16.9 101.1c-1.8 8.5-3.9 18.1-3.9 18.1-7.5.5-.8-11.2.4-46.7 1.6-49-43.9-38.3-60.7-40.2-20.4-2.2-54.6-4.9-60.7 21.4-6.1 26.3-3.3 61.6-3.3 61.6l-5.6 5.7v-32.3z"/>
  <path fill="#FFF" d="M75.3 200.1s.5 17.3-7.7 22c-7.3 4.3-10.6 5.2-10.6 5.2s35.8 14.3 64.5 2.7c-15.4-4.2-14.4-9.5-14.4-9.5l-2.7-17.9-29.1-2.5z"/>
  <path fill="none" stroke="#00A78E" stroke-width="2.59" stroke-miterlimit="10" d="M75.3 200.1s.5 17.3-7.7 22c-7.3 4.3-10.6 5.2-10.6 5.2s35.8 14.3 64.5 2.7c-15.4-4.2-14.4-9.5-14.4-9.5l-2.7-17.9-29.1-2.5z"/>
  <path fill="#FFF" d="M175.7 303.8l-35.9 8.3-3.9-17 4.1 41.5c.5 7.1.8 30-.8 50.7l-3.5 27.6h-98L34 382.5c-1.1-17.1.1-42.5.7-49l5.7-38.7-4.7 15.9-34.3-8.1s3.6-12.6 16-39.2c12.3-26.7 39.7-36 39.7-36l33 5.3 31.5-2.5s29.2 7.3 41.5 34 12.3 39.5 12.3 39.5"/>
  <path fill="none" stroke="#00A78E" stroke-width="2.157" stroke-miterlimit="10" d="M175.7 303.8l-35.9 8.3-3.9-17 4.1 41.5c.5 7.1.8 30-.8 50.7l-3.5 27.6h-98L34 382.5c-1.1-17.1.1-42.5.7-49l5.7-38.7-4.7 15.9-34.3-8.1s3.6-12.6 16-39.2c12.3-26.7 39.7-36 39.7-36l33 5.3 31.5-2.5s29.2 7.3 41.5 34 12.3 39.5 12.3 39.5"/>
  <path fill="#FFF" d="M152.2 449.1c-1 0-2-.4-2.7-1l-.8-.8-.2-.5c-.2-.8-.8-2.3.8-3.4l4.4-2.9c.6-.3 1-.8 1.2-1.2l1.5-3.5c.5-1.2.4-2.5-.4-3.6l-.8-1.2-5.5 7.2-1.4 1.8h-.5c-1.7 0-2.8-.5-3.4-1.5-.8-1.3-.6-3.1.7-5.8l5.3-17.3c.1-.2.1-.3.1-.5l4.5-55.4c-.4-3.1-1.4-7.3-2.8-12.5-.1-.2-.1-.4-.1-.5-3.6-11.6-9.5-31.5-8.1-33.9.2-.3.5-.6.9-.6l27.9-5.5h.2c1.3 0 2.7 0 5 23.4 1.1 11.1 1.8 22.4 1.8 22.5l-.2 9.3-13 51.3c0 .3.1 2.5.1 2.8l2.8 12.1c.2 1.2-.7 4.5-1.3 5.4l-7.6 11c-.4.5-.9.9-1.6 1.1l-4.7 3.1c-.6.4-1.3.6-2.1.6"/>
  <path fill="#00A78E" d="M173 307.6c2.8 0 5.7 44.9 5.7 44.9l-.2 9.1-12.9 51.2c-.1.4.1 2.9.1 3.2l2.8 12.2c.1.7-.7 3.8-1.2 4.5l-7.6 11c-.3.4-.7.6-1.1.7l-4.8 3.2c-.5.3-1 .5-1.6.5-.7 0-1.4-.3-1.9-.7l-.6-.6c-.3-.8-.7-1.7.4-2.5l4.4-2.9c.8-.4 1.3-1 1.6-1.7.4-.9 1-2.3 1.5-3.5.7-1.5.5-3.2-.5-4.6l-1.7-2.4-6.4 8.3-1.1 1.4h-.1c-3.6 0-3.1-2.8-1.7-5.8l5.3-17.3c.1-.3.1-.5.1-.8l4.6-55.5c-.8-5.5-2.9-13-2.9-13.3 0 0-10.2-32.7-8-33.1l27.8-5.5m0-2.1h-.5l-27.8 5.5c-.7.1-1.2.5-1.6 1.2-.6 1-1.3 2.2 3.4 19.1 2.1 7.7 4.5 15.2 4.6 15.7 0 .1.1.3.1.5 1.4 5.1 2.3 9.2 2.7 12.2l-4.5 55.2v.3l-5.2 17.2c-.9 1.9-1.9 4.6-.6 6.7.6.9 1.8 2 4.2 2h1.1l.6-.8 1.1-1.4 4.6-6c.6.8.7 1.7.3 2.5-.5 1.2-1.1 2.6-1.5 3.5-.1.2-.4.5-.7.7h-.2l-4.4 2.9c-2.3 1.6-1.6 3.8-1.3 4.7l.1.2.2.5.4.4.6.6c.9.8 2.1 1.3 3.4 1.3 1 0 2-.3 2.8-.8l4.5-3.1c.8-.3 1.5-.8 2-1.4l7.6-11c.7-1 1.7-4.7 1.5-6v-.2l-2.8-12.1c0-.4-.1-2-.1-2.5l12.9-51 .1-.2v-.2l.2-9.1v-.2c0-.1-.7-11.4-1.8-22.5-.6-6.6-1.3-11.8-1.9-15.6-.9-6.2-1.7-8.8-4.1-8.8"/>
</svg>