<svg xmlns="http://www.w3.org/2000/svg" width="386.7" height="313.5" viewBox="0 0 386.7 313.5"><g fill="#5F78BB"><circle cx="3.1" cy="44.8" r="3.1"/><circle cx="18.7" cy="33.4" r="3.1"/><circle cx="125.8" cy="3.1" r="3.1"/><circle cx="86.1" cy="18.1" r="3.1"/><circle cx="109.2" cy="28.5" r="3.1"/><circle cx="69.3" cy="66" r="3.1"/><circle cx="72.4" cy="97.3" r="3.1"/><circle cx="79" cy="50.4" r="3.1"/><circle cx="69.3" cy="108.6" r="3.1"/><circle cx="68.8" cy="56.4" r="3.1"/><circle cx="75.5" cy="119.6" r="3.1"/><circle cx="65.6" cy="68.5" r="3.1"/><circle cx="81.7" cy="125.1" r="3.1"/><circle cx="66.2" cy="76.8" r="3.1"/><circle cx="84.8" cy="105.5" r="3.1"/><circle cx="82.1" cy="65" r="3.1"/><circle cx="84.8" cy="117.4" r="3.1"/><circle cx="73.8" cy="73.5" r="3.1"/><circle cx="100.6" cy="57.2" r="3.1"/><circle cx="89.2" cy="133.6" r="3.1"/><circle cx="65.6" cy="88.1" r="3.1"/><circle cx="92.3" cy="125.1" r="3.1"/><circle cx="73.8" cy="84.2" r="3.1"/><circle cx="97.5" cy="136.7" r="3.1"/><circle cx="69.5" cy="96.2" r="3.1"/><circle cx="106.1" cy="117.4" r="3.1"/><circle cx="89" cy="88.3" r="3.1"/><circle cx="107.6" cy="140.6" r="3.1"/><circle cx="73.9" cy="106" r="3.1"/><circle cx="118.7" cy="82.6" r="3.1"/><circle cx="122.4" cy="72.2" r="3.1"/><circle cx="125.8" cy="112.7" r="3.1"/><circle cx="147.9" cy="95.3" r="3.1"/><circle cx="105.2" cy="102.5" r="3.1"/><circle cx="105.2" cy="118.4" r="3.1"/><circle cx="92" cy="91.1" r="3.1"/><circle cx="106.4" cy="98.8" r="3.1"/><circle cx="125.8" cy="133.6" r="3.1"/><circle cx="91.9" cy="113.7" r="3.1"/><circle cx="133.9" cy="170.1" r="3.1"/><circle cx="140.1" cy="82.6" r="3.1"/><circle cx="137.7" cy="87.3" r="3.1"/><circle cx="149.1" cy="112.7" r="3.1"/><circle cx="123.1" cy="115.1" r="3.1"/><circle cx="171.2" cy="95.3" r="3.1"/><circle cx="145.1" cy="97.6" r="3.1"/><circle cx="128.5" cy="102.5" r="3.1"/><circle cx="102.5" cy="104.8" r="3.1"/><circle cx="128.5" cy="118.4" r="3.1"/><circle cx="102.5" cy="120.8" r="3.1"/><circle cx="115.3" cy="91.1" r="3.1"/><circle cx="89.3" cy="93.5" r="3.1"/><circle cx="143.2" cy="125.1" r="3.1"/><circle cx="165.3" cy="107.6" r="3.1"/><circle cx="122.6" cy="114.8" r="3.1"/><circle cx="122.6" cy="130.8" r="3.1"/><circle cx="109.4" cy="103.4" r="3.1"/><circle cx="110.2" cy="119.8" r="3.1"/><circle cx="152.2" cy="125.1" r="3.1"/><circle cx="116.7" cy="126.1" r="3.1"/><circle cx="174.3" cy="107.6" r="3.1"/><circle cx="138.7" cy="108.6" r="3.1"/><circle cx="131.6" cy="114.8" r="3.1"/><circle cx="96.1" cy="115.8" r="3.1"/><circle cx="131.6" cy="130.8" r="3.1"/><circle cx="96.1" cy="131.8" r="3.1"/><circle cx="118.4" cy="103.4" r="3.1"/><circle cx="82.8" cy="104.5" r="3.1"/><circle cx="152.2" cy="133.6" r="3.1"/><circle cx="110.7" cy="132.2" r="3.1"/><circle cx="159.6" cy="94.2" r="3.1"/><circle cx="143.5" cy="109.2" r="3.1"/><circle cx="165.6" cy="91.7" r="3.1"/><circle cx="122.9" cy="98.9" r="3.1"/><circle cx="122.9" cy="114.9" r="3.1"/><circle cx="109.7" cy="87.5" r="3.1"/><circle cx="162.7" cy="102.4" r="3.1"/><circle cx="140" cy="117.2" r="3.1"/><circle cx="162" cy="99.8" r="3.1"/><circle cx="119.4" cy="107" r="3.1"/><circle cx="119.4" cy="122.9" r="3.1"/><circle cx="106.2" cy="95.6" r="3.1"/><circle cx="159.6" cy="112.7" r="3.1"/><circle cx="130.6" cy="122.4" r="3.1"/><circle cx="152.6" cy="104.9" r="3.1"/><circle cx="110" cy="112.1" r="3.1"/><circle cx="110" cy="128.1" r="3.1"/><circle cx="96.8" cy="100.8" r="3.1"/><circle cx="169.8" cy="74.5" r="3.1"/><circle cx="162.7" cy="120.5" r="3.1"/><circle cx="127.4" cy="130.2" r="3.1"/><circle cx="169.8" cy="108.6" r="3.1"/><circle cx="140.7" cy="126.6" r="3.1"/><circle cx="162.7" cy="109.1" r="3.1"/><circle cx="120.1" cy="116.3" r="3.1"/><circle cx="120.1" cy="132.3" r="3.1"/><circle cx="106.9" cy="105" r="3.1"/><circle cx="180" cy="94.2" r="3.1"/><circle cx="181.1" cy="230.9" r="3.1"/><circle cx="181.1" cy="310.4" r="3.1"/><circle cx="142.1" cy="54.6" r="1.4"/><circle cx="189.4" cy="274.3" r="3.1"/><circle cx="240" cy="33.4" r="3.1"/><circle cx="212.7" cy="214.6" r="3.1"/><circle cx="215.8" cy="247.8" r="3.1"/><circle cx="236.9" cy="226" r="3.1"/><circle cx="233.8" cy="247.8" r="3.1"/><circle cx="293.4" cy="39.6" r="3.1"/><circle cx="320.7" cy="177.6" r="3.1"/><circle cx="354.6" cy="55.3" r="3.1"/><circle cx="332.8" cy="82.6" r="3.1"/><circle cx="324.3" cy="112.7" r="3.1"/><circle cx="325.8" cy="128.2" r="3.1"/><circle cx="330.5" cy="141.6" r="3.1"/><circle cx="339.8" cy="92.6" r="3.1"/><circle cx="354.7" cy="85.3" r="3.1"/><circle cx="335.9" cy="103.2" r="3.1"/><circle cx="350.7" cy="95.9" r="3.1"/><circle cx="339" cy="131.3" r="3.1"/><circle cx="342.9" cy="100.4" r="3.1"/><circle cx="357.8" cy="93.2" r="3.1"/><circle cx="351.5" cy="88" r="3.1"/><circle cx="366.4" cy="80.8" r="3.1"/><circle cx="351.5" cy="99.3" r="3.1"/><circle cx="366.4" cy="92.1" r="3.1"/><circle cx="362.5" cy="171.4" r="3.1"/><circle cx="371.2" cy="234" r="3.1"/><circle cx="359.4" cy="88" r="3.1"/><circle cx="374.3" cy="80.8" r="3.1"/><circle cx="371.2" cy="84.9" r="3.1"/><circle cx="371.2" cy="96.2" r="3.1"/><circle cx="380.5" cy="89.7" r="3.1"/><circle cx="383.6" cy="104.9" r="3.1"/></g></svg>