<svg xmlns="http://www.w3.org/2000/svg" viewBox="-251 113.5 95.5 374.5">
  <path fill="#FFF" d="M-210.9 487.7s-.6-5.7-10.7-5.2-10.8 4.3-11.2 5.3m14.8.2l-5-79.7-6.2-61.6c-1.2-13.4-1.1-15.7 0-19.8.5-1.8 1.8-6.3 1.8-6.3l48.8.1s1.3 4.9 1.6 5.8c1.2 3.4 3.2 10.3 1.1 20.7l-9.7 61.8-8.4 78.5h-7.7l3.4-90.6-1.4-51.4c0-2.7-.4-3.3-2.3-3.3h-1c-1.9 0-2.5 1-2.5 3.7l-2.9 51.6-2.1 90-7.5.5zm16-.3s.6-5.7 10.7-5.2 10.8 4.3 11.2 5.3"/>
  <path fill="#FFF" d="M-169.4 375.2c-.9 0-1.3-.4-1.5-.8-.2-.3-.3-.9.2-1.7.7-1.1 1.2-1.4 1.8-1.8.4-.3 1-.6 2-1.5 2.3-2.2 2.7-3 2.3-5.3-.1-.4-.1-.7-.1-1-.1-.4-.1-.8-.2-.9-.1 0-1.4-.3-1.4-.3h-.3c-.8 0-.9 1.6-1 3.3 0 1.3-.1 2.7-1.4 2.7-.3 0-.6-.1-1-.4-.2-.2-.4-.3-.5-.5.4 3.9 0 4-.7 4.2h-.3c-.6 0-1.9-.3-5-.9-6.2-1.3-17.9-3.8-26.2-3.8s-20.5 2.4-27.8 3.8c-3.4.7-4.9 1-5.5 1h-.3c-.7-.2-1-.2-.7-3.6-.3.2-.6.4-.9.4-1.3 0-1.3-1.4-1.4-2.7 0-1.7-.2-3.3-1-3.3h-.5c-.5.1-1.1.2-1.2.3 0 0 0 .5-.1.9 0 .3-.1.6-.1 1-.3 2.3 0 3.2 2.3 5.3 1 .9 1.5 1.3 2 1.5.7.4 1.1.7 1.8 1.8.5.8.4 1.3.2 1.7-.2.3-.6.8-1.5.8-1.6 0-4.5-1.3-6.3-2.7-3-2.4-6.1-9.4-6.5-11.3-.4-1.9 2.4-8.4 3.5-10.6l-2.3-41c-.1-6.6-1.3-64.4 3.1-69.5 4.5-5.2 18-5.7 18.6-5.7h.1l1.5.1c1-.1 1.6-.1 1.6-.1h.1l20.5 1.4 20.5-1.4h.1s.6 0 1.6.1l1.6-.1h.1c.6 0 14 .6 18.6 5.7 4.4 5.1 3.3 62.9 3.1 69.4l-2.3 41c1 2.3 3.9 8.8 3.5 10.7-.4 1.9-3.5 8.9-6.5 11.3-1.7 1.2-4.6 2.5-6.2 2.5zm-7.3-98.2c-.6 3.2-1.4 4.9-2 6.2-.5 1.1-.9 1.9-1 3.2-.6 7.1 3.4 36 6.3 57 1.1 8 1.9 13.6 2.4 17.6 0-.3.1-.6.1-.9.1-.5.1-1 .2-1.6.4-3.6 1.8-6.2 4.1-7.4.7-3.3-3.3-28.5-6-43.9l-4.1-30.2zm-63.2 74.2c2.3 1.2 3.7 3.8 4.1 7.4 0 .2 0 .5.1.7.5-3.8 1.3-8.8 2.2-15.5 3.1-21.2 7.3-50.2 6.7-57.4-.1-1.3-.5-2.1-1-3.2-.6-1.3-1.4-3-2-6.2l-4.1 30.3c-2.7 15.5-6.7 40.6-6 43.9z"/>
  <path fill="#00A78E" d="M-179.5 235.3s13.6.5 17.8 5.4c4.3 4.9 2.9 68.8 2.9 68.8l-2.3 41.2s3.9 8.5 3.5 10.2c-.4 1.8-3.4 8.5-6.1 10.8-1.8 1.5-4.5 2.5-5.7 2.5-.6 0-.9-.3-.5-.9 1.2-1.8 1.4-1 3.7-3.2 2.5-2.3 3-3.5 2.6-6.2-.4-2.7 0-2.5-2.4-3-.2 0-.4-.1-.5-.1-2.9 0-1.4 6-2.3 6-.1 0-.2 0-.3-.2-1.6-1.3-1-4.1-.6-8 .4-3.6 1.8-5.8 3.8-6.7 2-.9-5.7-44.8-5.7-44.8l-5.3-38.6c-.6 14.1-3.5 13.4-3.9 17.8-1 12.1 10.7 83.5 9.5 83.8h-.1c-1.8 0-19.4-4.8-31.2-4.8-11.7 0-31.4 4.8-33.3 4.8h-.1c-1.2-.3 11-71.7 10-83.8-.4-4.4-3.2-3.7-3.9-17.8l-5.3 38.6s-7.7 43.9-5.7 44.8c2 .9 3.4 3.1 3.8 6.7.4 3.9 1 6.6-.6 8-.1.1-.2.2-.3.2-.9 0 .6-6-2.3-6-.2 0-.3 0-.5.1-2.4.5-2 .3-2.4 3-.4 2.7.2 3.9 2.6 6.2 2.3 2.2 2.5 1.4 3.7 3.2.4.6.1.9-.5.9-1.2 0-3.9-1-5.7-2.5-2.7-2.2-5.7-9-6.1-10.8-.4-1.8 3.5-10.2 3.5-10.2l-2.3-41.2s-1.4-63.8 2.9-68.8c4.3-4.9 17.8-5.4 17.8-5.4l1.6.1c1-.1 1.7-.1 1.7-.1l20.5 1.4 20.5-1.4s.6 0 1.7.1l1.8-.1m-3.3-2l-20.5 1.4-20.4-1.4h-.2s-.6 0-1.6.1l-1.4-.1h-.2c-1.5.1-14.6.7-19.3 6.1-.9 1.1-3.2 3.6-3.5 37.5-.2 16.4.2 32.4.2 32.6l2.3 40.7c-1.9 4.1-3.9 9.1-3.4 11.1.4 1.8 3.5 9.2 6.8 11.9 2 1.6 5.1 3 7 3 1.5 0 2.1-.8 2.4-1.3s.6-1.5-.2-2.7l-.1-.1c.9-.1 2.4-.4 5.1-.9 6.8-1.3 19.4-3.8 27.6-3.8 8.2 0 19.8 2.5 26 3.8 3 .7 4.3.9 5 1 0 0 0 .1-.1.1-.8 1.2-.5 2.2-.2 2.7s.9 1.3 2.4 1.3c1.8 0 5-1.3 7-3 3.3-2.7 6.4-10 6.8-11.9.4-1.9-1.6-7-3.4-11l2.3-40.7c0-.2.4-16.2.2-32.6-.4-33.9-2.6-36.4-3.6-37.5-4.7-5.4-17.8-6-19.3-6.1h-.2l-1.4.1c-1-.1-1.6-.1-1.6-.1l-.5-.2zm12 121.4c-.5-3.4-1-7.3-1.6-11.4-2.9-21-6.9-49.8-6.3-56.8.1-1.2.4-1.8.9-2.9.2-.5.5-1.1.8-1.7l3.5 25.5c3.2 18.5 6.2 39 6 43.1-1.5 1-2.6 2.4-3.3 4.2zm-68.2-4.1c-.2-4.2 2.8-24.6 6-43.1l3.5-25.5c.3.7.5 1.2.8 1.7.5 1.1.8 1.7.9 2.9.6 7-3.6 36-6.7 57.2-.5 3.7-1 7.2-1.5 10.3-.7-1.6-1.7-2.7-3-3.5zm-1.8 12.4c.1 0 .3-.1.5-.1h.1c.2.6.2 1.7.2 2.3 0 1.2.1 3.6 2.2 3.7v.7c-.3-.2-.6-.5-1-.9-2.2-2-2.3-2.6-2-4.5.1-.4.1-.7.1-1-.2-.1-.2-.1-.1-.2zm72 5.8c2.3 0 2.3-2.5 2.4-3.7 0-.5 0-1.7.2-2.3h.1c.2 0 .3.1.5.1v.2c0 .3.1.6.1 1 .3 1.9.1 2.4-2 4.5-.7.7-1.2 1-1.6 1.3v-1.1h.3z"/>
  <path fill="none" stroke="#00A78E" stroke-width="2" stroke-miterlimit="10" d="M-201.2 241.5v123.8"/>
  <path fill="#00A78E" d="M-205.6 260.7c1.9 0 1.9-3 0-3-2 0-2 3 0 3zm0 24.5c1.9 0 1.9-3 0-3-2 0-2 3 0 3zm0 24.6c1.9 0 1.9-3 0-3-2 0-2 3 0 3zm0 24.6c1.9 0 1.9-3 0-3-2 0-2 3 0 3zm0 24.6c1.9 0 1.9-3 0-3-2 0-2 3 0 3z"/>
  <path fill="#FFF" stroke="#00A78E" stroke-width="2" stroke-miterlimit="10" d="M-246.8 346.4h7.1v6h-7.1zm79.9 0h7.1v6h-7.1z"/>
  <path fill="none" stroke="#00A78E" stroke-width="2" stroke-miterlimit="10" d="M-230 350.4l20.1-8.6m33.8 8.6l-20.2-8.6"/>
  <path fill="#00A78E" stroke="#FFF" stroke-miterlimit="10" d="M-241.2 145.3s.7 50-3.8 81c0 0 48.1 13.8 87.4 0 0 0-4.7-16.8-2.7-80.8l-41.5-19-39.4 18.8z"/>
  <path fill="#FFF" stroke="#00A78E" stroke-width="2.188" stroke-miterlimit="10" d="M-207.6 217.2s-2.2 4.2-4.8 8.5c-2.6 4.2-8.8 9.3-8.8 9.3s8.5 6.7 19.5 6.5c8.9-.2 13-.9 20.2-6.5-8.4-1.8-9.7-6.4-11.1-9.5-2-4.4-2.5-8.1-1.7-8.2-8.9.1-13.3-.1-13.3-.1z"/>
  <path fill="#FFF" stroke="#00A78E" stroke-width="2" stroke-miterlimit="10" d="M-221.2 235l-3.2 6.5 17.6 8.3 5.1-8.3zm39.5 0l3.1 6.5-17.5 8.3-5.1-8.3z"/>
  <path fill="#FFF" d="M-242.9 157.9c3.6-38.7 17.5-42 27.6-42.5 10.1-.5 36-2.1 47.8 10.5 8.9 9.5 8.7 11.4 4.9 40.2-2 15.2.4 20.8-14.9 36.7-15.1 15.7-14.4 13.7-30.9 13.7-4 0-11.3-4.8-21.4-14.2-15.6-14.5-12.7-28.3-13.1-33.2"/>
  <path d="M-165 167.9s1.2-11.1 4.7-8c2.8 2.6 4.2 14.4 2.5 22.7-.8 3.7-5.2 7.9-7 6.1-2-1.8-.2-20.8-.2-20.8m-74.1.8s-1.6-11.1-5.3-7.9c-3.8 3.4-3.4 17.7-2.1 22.9.9 3.7 5.8 7.7 7.8 5.9 1.9-1.9-.4-20.9-.4-20.9" fill="#FFF"/>
  <path fill="#00A78E" d="M-213.5 198.6s14.9 7.3 23.6-4.5c-6.3 20.2-25.4 3.1-23.6 4.5z"/>
  <path fill="#FFF" d="M-202 175.4s2.6 7.6 4.8 10.1c8.2 9-14.4 7.6-8.7 4.3"/>
  <path fill="#00A78E" d="M-202 175.4s.2.4.7 1.1c.2.4.4.8.7 1.3.3.5.6 1.1.9 1.7s.7 1.3 1.1 2c.4.7.8 1.4 1.3 2.1.5.7.9 1.2 1.6 2 .6.8 1.2 1.8 1.4 3.1.1.7-.1 1.4-.5 2-.4.6-.8 1-1.3 1.3-1 .6-2 .8-2.9 1-1.9.3-3.6.1-5.1-.2-.7-.2-1.4-.4-1.9-.7-.3-.1-.5-.3-.7-.6-.2-.2-.3-.6-.2-.9.2-.5.6-.6.8-.7.2-.1.3-.1.3-.1s-.1.1-.3.2c-.2.1-.4.4-.5.7-.1.3.3.5.8.6.5.2 1.1.2 1.8.2 1.3 0 3 0 4.6-.5.8-.2 1.6-.5 2.2-.9.6-.5.9-.9.8-1.4 0-.6-.5-1.3-1-2-.5-.6-1.2-1.5-1.7-2.3-.9-1.6-1.5-3.2-1.9-4.6-.8-2.5-1-4.4-1-4.4zm-8.8-7.5c0 2.4-2.2 4.4-4.8 4.4-2.7 0-4.8-2-4.8-4.4 0-2.4 2.2-4.4 4.8-4.4 2.6 0 4.8 2 4.8 4.4"/>
  <path fill="#FFF" d="M-211.8 168.3c0 .7-.4 1.3-.9 1.3s-.9-.6-.9-1.3.4-1.3.9-1.3.9.6.9 1.3"/>
  <path fill="#00A78E" d="M-207.1 168.1s-.4-.3-1-.8-1.6-1.1-2.7-1.6c-.6-.3-1.2-.5-1.8-.8-.7-.2-1.3-.4-2.1-.5-.7-.1-1.4-.1-2.2 0-.7 0-1.5.3-2.2.5-.7.3-1.4.6-2.1 1.1-.7.4-1.3.9-1.9 1.5-.6.5-1.3 1.2-2 1.6-.4.2-.8.4-1.1.5-.4.1-.7.2-1.1.2-1.4.1-2.5-.2-3.1-.6-.7-.4-1-.8-1-.8s.4.2 1.1.3c.7.1 1.7 0 2.8-.4.3-.1.6-.2.8-.4.3-.2.6-.3.8-.5.5-.4.9-1 1.6-1.7s1.3-1.4 2.1-1.9c.7-.6 1.6-1 2.5-1.4.9-.3 1.8-.6 2.7-.6.9-.1 1.8.1 2.6.3.4.1.8.2 1.2.4.4.2.7.4 1.1.5.7.4 1.3.8 1.9 1.3.6.4 1 .9 1.4 1.4.4.4.7.9 1 1.2.4.7.7 1.2.7 1.2m-1.3-16.6s2.7 2.8-4.5 3.7c-7.2.9-13.3-5-16.6-.8-3.3 4.2-9 5.8-4.3 1.7s3.7-6.7 11.1-6.2c7.3.4 13.8.3 14.3 1.6zm16.2 16.8c0 2.4 2.2 4.4 4.8 4.4 2.7 0 4.8-2 4.8-4.4 0-2.4-2.2-4.4-4.8-4.4s-4.8 2-4.8 4.4"/>
  <path fill="#FFF" d="M-183.5 168.6c0 .7-.4 1.3-.9 1.3s-.9-.6-.9-1.3c0-.7.4-1.3.9-1.3s.9.6.9 1.3"/>
  <path fill="#00A78E" d="M-196.2 168.4s.4-.3 1-.8 1.6-1.1 2.7-1.6c.6-.3 1.2-.5 1.8-.8.7-.2 1.4-.4 2.1-.5.7-.1 1.5-.1 2.2 0 .7 0 1.5.3 2.2.5.7.3 1.4.6 2.1 1.1.7.4 1.3.9 1.9 1.5.6.5 1.3 1.2 2.1 1.6.4.2.8.4 1.1.5.4.1.7.2 1.1.2 1.4.1 2.5-.2 3.2-.6s1-.8 1-.8-.4.2-1.1.3c-.7.1-1.7 0-2.8-.4-.3-.1-.6-.2-.8-.4-.3-.2-.6-.3-.8-.5-.5-.4-.9-1-1.7-1.7-.7-.7-1.3-1.4-2.1-1.9-.8-.6-1.6-1-2.5-1.4-.9-.3-1.8-.6-2.7-.6-.9-.1-1.8.1-2.6.3-.4.1-.8.2-1.2.4-.4.2-.7.4-1.1.5-.7.4-1.3.8-1.9 1.3-.6.4-1 .9-1.4 1.4-.4.4-.7.9-1 1.2-.6.8-.8 1.2-.8 1.2m-.1-15.1s-2.2 3.4 5.1 2.4 12.2-8.2 16.2-4.9 9.9 3.4 4.5.6c-5.4-2.9-4.8-5.6-12-3.3s-13.5 3.8-13.8 5.2z"/>
  <path fill="#00A78E" stroke="#FFF" stroke-miterlimit="10" d="M-180.1 116.5s-33.1-6.7-46.5 1.8c-13.4 8.5-16.3 26-16.3 26s36.4 7.3 85.4 1.3c0 0 .5-21.1-22.6-29.1z"/>
  <path fill="#00A78E" d="M-222.3 121.9s-8.8 11.1-11.8 23.5"/>
  <path fill="#FFF" d="M-222.3 121.9s-1 1.3-2.3 3.4c-1.3 2.1-2.9 5-4.3 8-.7 1.5-1.3 3-1.9 4.4-.3.7-.5 1.4-.7 2.1s-.4 1.3-.6 1.9c-.2.6-.3 1.1-.5 1.6-.1.5-.2.9-.3 1.2-.2.7-.2 1.1-.2 1.1l-1.9-.5s.1-.4.3-1.1c.1-.4.2-.8.4-1.3s.4-1 .6-1.6c.2-.6.5-1.2.8-1.9l.9-2.1c.7-1.4 1.4-2.9 2.3-4.3 1.6-2.9 3.5-5.7 4.9-7.7 1.4-2 2.5-3.2 2.5-3.2z"/>
  <path fill="#00A78E" d="M-209.1 123.1s-8.7 11.7-11.6 24"/>
  <path fill="#FFF" d="M-209.1 123.1s-.9 1.4-2.2 3.6-2.9 5.1-4.2 8.2c-.7 1.5-1.3 3.1-1.9 4.5-.3.7-.5 1.4-.7 2.1-.2.7-.4 1.3-.6 1.9-.2.6-.3 1.1-.5 1.6-.1.5-.2.9-.3 1.3-.2.7-.2 1.1-.2 1.1l-1.9-.5s.1-.4.3-1.1c.1-.4.2-.8.4-1.3s.4-1 .6-1.6c.2-.6.5-1.2.8-1.9l.9-2.1c.7-1.4 1.4-3 2.2-4.4 1.6-3 3.4-5.8 4.9-7.9 1.4-2.2 2.4-3.5 2.4-3.5z"/>
  <path fill="#00A78E" d="M-200.3 121.8s5 14.1 2.6 26.6"/>
  <path fill="#FFF" d="M-200.3 121.8s.6 1.6 1.3 4c.4 1.2.7 2.6 1.1 4.2.4 1.5.7 3.2.9 4.9.1.8.3 1.7.3 2.5.1.8.2 1.7.2 2.5s.1 1.6.1 2.3v2.1c0 .6-.1 1.2-.1 1.8 0 .5-.1 1-.2 1.4-.1.8-.1 1.2-.1 1.2l-2-.4s.1-.4.2-1.1c.1-.4.2-.8.2-1.3.1-.5.1-1.1.2-1.7.1-.6.1-1.3.2-2s.1-1.5.1-2.2v-2.4c0-.8-.1-1.7-.1-2.5-.1-1.7-.3-3.3-.6-4.9-.2-1.6-.5-3-.8-4.2-.4-2.6-.9-4.2-.9-4.2z"/>
  <path fill="#00A78E" d="M-178.2 122.6s8.8 7.5 13.8 23.5"/>
  <path fill="#FFF" d="M-178.2 122.6s1.3 1.1 3.1 3c.9 1 1.9 2.1 2.8 3.4 1 1.3 2 2.7 2.9 4.2.4.7.9 1.5 1.3 2.2.4.8.8 1.5 1.2 2.2.4.7.7 1.4 1 2.1.3.7.6 1.3.9 1.9.5 1.2.9 2.2 1.2 2.9.3.7.4 1.1.4 1.1l-2 .9s-.1-.4-.3-1.1c-.2-.7-.5-1.7-.9-2.9-.2-.6-.4-1.3-.7-1.9l-.9-2.1c-.3-.7-.7-1.5-1-2.3-.4-.8-.8-1.5-1.1-2.3-.8-1.5-1.7-3-2.5-4.3-.9-1.4-1.8-2.6-2.5-3.6-.8-1-1.5-1.8-2-2.4-.6-.7-.9-1-.9-1z"/>
  <path fill="#00A78E" d="M-189 123.6s8.8 7.5 13.8 23.5"/>
  <path fill="#FFF" d="M-189 123.6s1.3 1.1 3.1 3c.9 1 1.9 2.1 2.8 3.4 1 1.3 2 2.7 2.9 4.2.4.7.9 1.5 1.3 2.2.4.8.8 1.5 1.2 2.2.4.7.7 1.4 1 2.1.3.7.6 1.3.9 1.9.5 1.2.9 2.2 1.2 2.9.3.7.4 1.1.4 1.1l-1.9.9s-.1-.4-.3-1.1c-.2-.7-.5-1.7-.9-2.9-.2-.6-.4-1.3-.7-1.9l-.9-2.1c-.3-.7-.7-1.5-1-2.3-.4-.8-.8-1.5-1.1-2.3-.8-1.5-1.7-3-2.5-4.3-.9-1.4-1.8-2.6-2.5-3.6-.8-1-1.5-1.8-2-2.4l-1-1z"/>
  <path fill="none" stroke="#00A78E" stroke-width="3" stroke-miterlimit="10" d="M-238 158.1c4.3.7 14.6 2 22.6 1 5.4-.7 10.3 3.4 10.4 8.9v.2c0 2.6-.9 4.6-2 6.1-2.6 3.5-7.1 4.9-11.4 3.9-4.2-.9-10.4-3.7-17.2-11.1-9.2-10.2-7.1-10.3-5.5-9.8 1 .3 2 .6 3.1.8zm72.5.3c-4.3.7-14.6 2-22.6 1-5.4-.7-10.3 3.4-10.4 8.9v.2c0 2.6.9 4.6 2 6.1 2.6 3.5 7.1 4.9 11.4 3.9 4.2-.9 10.4-3.7 17.2-11.1 9.2-10.2 7.1-10.3 5.5-9.8-1 .4-2 .7-3.1.8zm-39.6 11s3.5-3.2 6.7 0"/>
</svg>