<svg xmlns="http://www.w3.org/2000/svg" width="254.4" height="209.6" viewBox="0 0 254.4 209.6"><path fill="#FFF" stroke="#00A78E" stroke-width="6" stroke-miterlimit="10" d="M248.983 3.07l2.354 200.58-245.975 2.886L3.007 5.956z"/><path fill="#009245" d="M29 55.6c-.7.9-1.4 1.9-2.1 3.2-.7 1.3-1 2.8-1 4.6 0 .7.1 1.3.2 1.9.2.6.4 1.2.7 1.7.3.5.8.9 1.4 1.2.6.3 1.2.4 2 .4s1.5-.2 2.1-.4c.6-.3 1.1-.7 1.5-1.2.4-.5.8-1.1 1-1.8.3-.7.5-1.4.8-2.3.3-1.2.7-2.3 1.2-3.4s1.1-2.1 1.8-2.9c.7-.9 1.6-1.5 2.7-2s2.3-.8 3.8-.8c2.4 0 4.3.6 5.8 1.9 1.5 1.3 2.6 3 3.2 5.1l5-.1v3l-4.4.1v2.1l4.4-.1v3l-4.9.1c-.3 1-.5 1.9-.8 2.6-.3.7-.6 1.2-.8 1.6-.6.9-1.3 1.3-2.2 1.3-.4 0-.9-.2-1.6-.5-.7-.3-1.4-.8-2.1-1.4.7-.8 1.3-1.8 1.8-3.1.6-1.3.8-2.6.8-4 0-.6-.1-1.1-.2-1.7-.1-.6-.3-1.1-.6-1.6s-.6-.9-1.1-1.2c-.5-.3-1.1-.5-1.8-.5s-1.2.1-1.7.4c-.5.2-.9.6-1.3 1.1-.4.5-.7 1.1-1 1.9-.3.7-.6 1.6-.9 2.7-.4 1.2-.8 2.3-1.4 3.4-.5 1-1.2 2-1.9 2.8-.8.8-1.6 1.4-2.7 1.9-1 .5-2.2.7-3.6.7-2.4 0-4.4-.5-6-1.6-1.6-1.1-2.9-2.6-3.7-4.4l-5.4.1v-3l4.6-.1c-.1-.4-.1-.7-.2-1.1 0-.3-.1-.7-.1-1.1l-4.3.1v-3l4.5-.1c.1-1.6.4-2.9.8-3.9s.7-1.7 1-2.2c.3-.4.6-.7.9-.9.4-.3.8-.4 1.2-.4.5 0 1.2.2 2 .6 1.2.4 1.9.8 2.6 1.3zm1.1 91.2c-.7.9-1.4 1.9-2.1 3.2-.7 1.3-1 2.8-1 4.6 0 .7.1 1.3.2 1.9.2.6.4 1.2.7 1.7.3.5.8.9 1.4 1.2.6.3 1.2.4 2 .4s1.5-.2 2.1-.4c.6-.3 1.1-.7 1.5-1.2.4-.5.8-1.1 1-1.8.3-.7.5-1.4.8-2.3.3-1.2.7-2.3 1.2-3.4s1.1-2.1 1.8-2.9c.7-.9 1.6-1.5 2.7-2s2.3-.8 3.8-.8c2.4 0 4.3.6 5.8 1.9 1.5 1.3 2.6 3 3.2 5.1l5-.1v3l-4.4.1v2.1l4.4-.1v3l-4.9.1c-.3 1-.5 1.9-.8 2.6-.3.7-.6 1.2-.8 1.6-.6.9-1.3 1.3-2.2 1.3-.4 0-.9-.2-1.6-.5-.7-.3-1.4-.8-2.1-1.4.7-.8 1.3-1.8 1.8-3.1.6-1.3.8-2.6.8-4 0-.6-.1-1.1-.2-1.7-.1-.6-.3-1.1-.6-1.6s-.6-.9-1.1-1.2c-.5-.3-1.1-.5-1.8-.5s-1.2.1-1.7.4c-.5.2-.9.6-1.3 1.1-.4.5-.7 1.1-1 1.9s-.6 1.6-.9 2.7c-.4 1.2-.8 2.3-1.4 3.4-.5 1-1.2 2-1.9 2.8-.8.8-1.6 1.4-2.7 1.9-1 .5-2.2.7-3.6.7-2.4 0-4.4-.5-6-1.6-1.6-1.1-2.9-2.6-3.7-4.4l-5.4.1v-3l4.6-.1c-.1-.4-.1-.7-.2-1.1 0-.3-.1-.7-.1-1.1l-4.3.1v-3l4.5-.1c.1-1.6.4-2.9.8-3.9s.7-1.7 1-2.2c.3-.4.6-.7.9-.9.4-.3.8-.4 1.2-.4.5 0 1.2.2 2 .6 1.2.4 1.9.8 2.6 1.3zm-.6-45.6c-.7.9-1.4 1.9-2.1 3.2-.7 1.3-1 2.8-1 4.6 0 .7.1 1.3.2 1.9.2.6.4 1.2.7 1.7.3.5.8.9 1.4 1.2.6.3 1.2.4 2 .4s1.5-.2 2.1-.4c.6-.3 1.1-.7 1.5-1.2.4-.5.8-1.1 1-1.8.3-.7.5-1.4.8-2.3.3-1.2.7-2.3 1.2-3.4s1.1-2.1 1.8-2.9c.7-.9 1.6-1.5 2.7-2s2.3-.8 3.8-.8c2.4 0 4.3.6 5.8 1.9 1.5 1.3 2.6 3 3.2 5.1l5-.1v3l-4.4.1v2.1l4.4-.1v3l-4.9.1c-.3 1-.5 1.9-.8 2.6-.3.7-.6 1.2-.8 1.6-.6.9-1.3 1.3-2.2 1.3-.4 0-.9-.2-1.6-.5-.7-.3-1.4-.8-2.1-1.4.7-.8 1.3-1.8 1.8-3.1.6-1.3.8-2.6.8-4 0-.6-.1-1.1-.2-1.7-.1-.6-.3-1.1-.6-1.6s-.6-.9-1.1-1.2c-.5-.3-1.1-.5-1.8-.5s-1.2.1-1.7.4c-.5.2-.9.6-1.3 1.1-.4.5-.7 1.1-1 1.8-.3.7-.6 1.6-.9 2.7-.4 1.2-.8 2.3-1.4 3.4-.5 1-1.2 2-1.9 2.8-.8.8-1.6 1.4-2.7 1.9-1 .5-2.2.7-3.6.7-2.4 0-4.4-.5-6-1.6-1.6-1.1-2.9-2.6-3.7-4.4l-5.4.1v-3l4.6-.1c-.1-.4-.1-.7-.2-1.1 0-.3-.1-.7-.1-1.1l-4.3.1v-3l4.5-.1c.1-1.6.4-2.9.8-3.9s.7-1.7 1-2.2c.3-.4.6-.7.9-.9.4-.3.8-.4 1.2-.4.5 0 1.2.2 2 .6 1.2.5 2 .9 2.6 1.4z"/><path fill="#45CDB6" d="M169.658 22.627l1.673 142.486-6 .07L163.66 22.7zm-23.314.296l1.83 155.985-6 .07-1.83-155.984zm11.672-.213l1.917 163.283-6 .07-1.916-163.283zm-23.362.27l1.628 138.687-6 .07-1.627-138.686zm-11.63.14l1.776 151.286-6 .07-1.775-151.284zm-11.75.128l1.917 163.284-5.99.07-1.92-163.282zm-11.628.137l1.672 142.486-6 .07-1.672-142.48zm-11.64.182L89.92 186.85l-6 .07-1.917-163.283zm-11.676.113l1.832 155.985-6 .07-1.83-155.984z"/><path fill="#E2066F" d="M193.6 134.2c-4.7.1-8.5-3.7-8.6-8.4l-.4-35.2c-.1-4.7 3.7-8.5 8.4-8.6l35.2-.4c4.7-.1 8.5 3.7 8.6 8.4l.4 35.2c.1 4.7-3.7 8.5-8.4 8.6l-35.2.4z"/><path fill="#FFF" d="M213.6 125.3c1.4 0 2.5-1.2 2.5-2.5l-.1-9.3c0-.1.1-.1.1-.1l9.3-.1c1.4 0 2.5-1.2 2.5-2.5l-.1-5.3c0-1.4-1.2-2.5-2.5-2.5l-9.3.1c-.1 0-.1-.1-.1-.1l-.1-9.3c0-1.4-1.2-2.5-2.5-2.5l-5.3.1c-1.4 0-2.5 1.2-2.5 2.5l.1 9.3c0 .1-.1.1-.1.1l-9.3.1c-1.4 0-2.5 1.2-2.5 2.5l.1 5.3c0 1.4 1.2 2.5 2.5 2.5l9.3-.1c.1 0 .1.1.1.1l.1 9.3c0 1.4 1.2 2.5 2.5 2.5l5.3-.1z"/></svg>