<svg xmlns="http://www.w3.org/2000/svg" width="348.7" height="293.2" viewBox="0 0 348.7 293.2"><path fill="#FFF" d="M71.6 123h.1c-.2-11-2.6-36.6-19.2-54.1C40.6 56.4 23.5 50 1.5 50L.8 38 260.1 6h.4c25.4 0 45.5 7.6 59.7 22.6 21.7 22.8 22.8 55.6 22.5 66V253L71.6 286.4V123z"/><path fill="#00A78E" d="M260.5 12c78.2 0 76.6 75.5 76.2 84.2h.1v151.4l-259.1 32V128.3h.1c.4-8.8 2-84.2-76.2-84.2L260.5 12m0-12h-.7l-.8.1-259 32L1.5 56c20.3 0 36 5.7 46.7 16.9 13.7 14.4 16.8 35.2 17.5 46.7v173.6l13.5-1.7 259.1-32 10.5-1.3V82.7h-.4c-1.3-15.6-6.3-39.9-23.8-58.3C309.1 8.2 287.6 0 260.5 0z"/></svg>