<svg xmlns="http://www.w3.org/2000/svg" width="501.2" height="311.4" viewBox="0 0 501.2 311.4">
  <path fill="#FFF" d="M-.05 239.955l36.468-197.25L278.31 87.428l-36.47 197.25z"/>
  <path fill="#009245" d="M226 230.8c.8-.7 1.7-1.6 2.7-2.8.9-1.1 1.6-2.6 1.9-4.3.1-.7.2-1.3.1-1.9 0-.6-.2-1.2-.4-1.8-.2-.5-.6-1-1.1-1.4-.5-.4-1.1-.7-1.9-.8-.8-.1-1.5-.1-2.1 0-.6.2-1.2.5-1.7.9s-1 .9-1.4 1.5c-.4.6-.8 1.3-1.2 2.1-.5 1.1-1.1 2.2-1.8 3.2s-1.5 1.8-2.3 2.5c-.9.7-1.9 1.2-3 1.5-1.1.3-2.4.3-3.9 0-2.3-.4-4.1-1.4-5.3-3-1.2-1.6-2-3.5-2.2-5.6l-4.9-.9.6-3 4.3.8c0-.2.1-.3.1-.5s0-.4.1-.6c0-.2.1-.3.1-.5s.1-.3.1-.5l-4.3-.8.6-3 4.8.9c.4-1 .9-1.8 1.3-2.4.4-.6.8-1.1 1.1-1.4.7-.7 1.5-1 2.4-.9.4.1.9.3 1.5.8s1.2 1 1.8 1.7c-.8.6-1.6 1.5-2.4 2.6-.8 1.1-1.3 2.4-1.6 3.8-.1.6-.2 1.1-.2 1.7 0 .6.1 1.2.2 1.7.2.5.5 1 .9 1.4.4.4 1 .7 1.7.8.7.1 1.2.1 1.7 0s1-.4 1.4-.8c.4-.4.9-.9 1.3-1.6.4-.7.9-1.5 1.4-2.4.6-1.1 1.3-2.1 2-3 .7-.9 1.5-1.7 2.4-2.4.9-.6 1.9-1.1 3-1.4 1.1-.3 2.3-.3 3.7 0 2.3.4 4.2 1.3 5.6 2.7 1.4 1.4 2.3 3.1 2.8 5.1l5.3 1-.6 3-4.6-.8v1.1c0 .3-.1.7-.1 1.1l4.3.8-.6 3-4.4-.8c-.5 1.5-1 2.8-1.5 3.7-.6.9-1 1.6-1.5 2-.3.3-.7.6-1.1.7-.4.2-.8.2-1.3.1s-1.2-.4-1.9-1c-.7-.7-1.4-1.3-1.9-1.9zm16.6-89.7c.8-.7 1.7-1.6 2.7-2.8.9-1.1 1.6-2.6 1.9-4.3.1-.7.2-1.3.1-1.9 0-.6-.2-1.2-.4-1.8-.2-.5-.6-1-1.1-1.4-.5-.4-1.1-.7-1.9-.8-.8-.1-1.5-.1-2.1 0-.6.2-1.2.5-1.7.9s-1 .9-1.4 1.5c-.4.6-.8 1.3-1.2 2.1-.5 1.1-1.1 2.2-1.8 3.2s-1.5 1.8-2.3 2.5c-.9.7-1.9 1.2-3 1.5-1.1.3-2.4.3-3.9 0-2.3-.4-4.1-1.4-5.3-3-1.2-1.6-2-3.5-2.2-5.6l-4.9-.9.6-3 4.3.8c0-.2.1-.3.1-.5s0-.4.1-.6c0-.2.1-.3.1-.5s.1-.3.1-.5l-4.3-.8.6-3 4.8.9c.4-1 .9-1.8 1.3-2.4.4-.6.8-1.1 1.1-1.4.7-.7 1.5-1 2.4-.9.4.1.9.3 1.5.8s1.2 1 1.8 1.7c-.8.6-1.6 1.5-2.4 2.6-.8 1.1-1.3 2.4-1.6 3.8-.1.6-.2 1.1-.2 1.7 0 .6.1 1.2.2 1.7.2.5.5 1 .9 1.4.4.4 1 .7 1.7.8.7.1 1.2.1 1.7 0s1-.4 1.4-.8c.4-.4.9-.9 1.3-1.6.4-.7.9-1.5 1.4-2.4.6-1.1 1.3-2.1 2-3 .7-.9 1.5-1.7 2.4-2.4.9-.6 1.9-1.1 3-1.4 1.1-.3 2.3-.3 3.7 0 2.3.4 4.2 1.3 5.6 2.7 1.4 1.4 2.3 3.1 2.8 5.1l5.3 1-.6 3-4.5-.8v1.1c0 .3-.1.7-.1 1.1l4.3.8-.6 3-4.4-.8c-.5 1.5-1 2.8-1.5 3.7-.6.9-1 1.6-1.5 2-.3.3-.7.6-1.1.7-.4.2-.8.2-1.3.1s-1.2-.4-1.9-1c-.8-.7-1.5-1.2-2-1.9zm-8.3 44.9c.8-.7 1.7-1.6 2.7-2.8.9-1.1 1.6-2.6 1.9-4.3.1-.7.2-1.3.1-1.9 0-.6-.2-1.2-.4-1.8-.2-.5-.6-1-1.1-1.4-.5-.4-1.1-.7-1.9-.8-.8-.1-1.5-.1-2.1 0-.6.2-1.2.5-1.7.9s-1 .9-1.4 1.5c-.4.6-.8 1.3-1.2 2.1-.5 1.1-1.1 2.2-1.8 3.2s-1.5 1.8-2.3 2.5c-.9.7-1.9 1.2-3 1.5-1.1.3-2.4.3-3.9 0-2.3-.4-4.1-1.4-5.3-3-1.2-1.6-2-3.5-2.2-5.6l-4.9-.9.6-3 4.3.8c0-.2.1-.3.1-.5s0-.4.1-.6c0-.2.1-.3.1-.5s.1-.3.1-.5l-4.3-.8.6-3 4.8.9c.4-1 .9-1.8 1.3-2.4.4-.6.8-1.1 1.1-1.4.7-.7 1.5-1 2.4-.9.4.1.9.3 1.5.8s1.2 1 1.8 1.7c-.8.6-1.6 1.5-2.4 2.6-.8 1.1-1.3 2.4-1.6 3.8-.1.6-.2 1.1-.2 1.7 0 .6.1 1.2.2 1.7.2.5.5 1 .9 1.4.4.4 1 .7 1.7.8.7.1 1.2.1 1.7 0s1-.4 1.4-.8c.4-.4.9-.9 1.3-1.6.4-.7.9-1.5 1.4-2.4.6-1.1 1.3-2.1 2-3 .7-.9 1.5-1.7 2.4-2.4.9-.6 1.9-1.1 3-1.4 1.1-.3 2.3-.3 3.7 0 2.3.4 4.2 1.3 5.6 2.7 1.4 1.4 2.3 3.1 2.8 5.1l5.3 1-.6 3-4.5-.8v1.1c0 .3-.1.7-.1 1.1l4.3.8-.6 3-4.4-.8c-.5 1.5-1 2.8-1.5 3.7-.6.9-1 1.6-1.5 2-.3.3-.7.6-1.1.7-.4.2-.8.2-1.3.1s-1.2-.4-1.9-1c-.8-.7-1.5-1.3-2-1.9z"/>
  <path fill="#45CDB6" d="M81.537 236.08l25.907-140.12 5.9 1.09-25.907 140.12zm22.97 4.175l28.36-153.395 5.9 1.09-28.36 153.395zm-11.487-2.08l29.69-160.572 5.898 1.09L98.92 239.267zm23.025 4.273l25.215-136.383 5.9 1.09-25.216 136.384zm11.472 2.04l27.507-148.774 5.9 1.09-27.507 148.774zm11.43 2.192l29.688-160.57 5.9 1.09-29.688 160.572zm11.54 2.12l25.905-140.122 5.9 1.09-25.906 140.122zm11.483 2.094L191.656 90.32l5.9 1.092-29.688 160.573zm11.47 2.178L201.8 99.677l5.9 1.09-28.36 153.395z"/>
  <path fill="#E2066F" d="M79.7 121.9c4.6.9 7.7 5.3 6.8 9.9l-6.4 34.6c-.9 4.6-5.3 7.7-9.9 6.8l-34.6-6.4c-4.6-.9-7.7-5.3-6.8-9.9l6.4-34.6c.9-4.6 5.3-7.7 9.9-6.8l34.6 6.4z"/>
  <path fill="#FFF" d="M58.3 126.8c-1.4-.2-2.7.7-2.9 2l-1.7 9.1c0 .1-.1.1-.2.1l-9.1-1.7c-1.4-.2-2.7.7-2.9 2l-1 5.2c-.2 1.4.7 2.7 2 2.9l9.1 1.7c.1 0 .1.1.1.2l-1.7 9.1c-.2 1.4.7 2.7 2 2.9l5.2 1c1.4.2 2.7-.7 2.9-2l1.7-9.1c0-.1.1-.1.2-.1l9.1 1.7c1.4.2 2.7-.7 2.9-2l1-5.2c.2-1.4-.7-2.7-2-2.9l-9.1-1.7c-.1 0-.1-.1-.1-.2l1.7-9.1c.2-1.4-.7-2.7-2-2.9l-5.2-1z"/>
  <path fill="#FFF" stroke="#00A78E" stroke-width="6" stroke-miterlimit="10" d="M61.38 308.045L33.737 109.35 277.4 75.453l27.643 198.694z"/>
  <path fill="#009245" d="M272.9 228.1c.6-.9 1.1-2.1 1.7-3.5.5-1.4.7-2.9.4-4.7-.1-.7-.3-1.3-.5-1.9-.2-.6-.5-1.1-.9-1.6-.4-.4-.9-.8-1.5-1-.6-.2-1.3-.3-2.1-.2-.8.1-1.4.3-2 .7-.5.4-1 .8-1.3 1.4-.3.5-.6 1.2-.8 1.9-.2.7-.4 1.5-.5 2.3-.2 1.2-.4 2.4-.7 3.6-.3 1.1-.8 2.2-1.4 3.1s-1.4 1.7-2.4 2.4c-1 .6-2.2 1.1-3.7 1.3-2.3.3-4.3-.1-6-1.2-1.7-1.1-3-2.7-3.8-4.6l-4.9.7-.4-3 4.4-.6c0-.2-.1-.3-.1-.5s-.1-.4-.1-.6c0-.2 0-.3-.1-.5v-.5l-4.4.6-.4-3 4.8-.7c.1-1.1.3-2 .5-2.7.2-.7.4-1.3.6-1.7.4-.9 1.1-1.5 2-1.6.4-.1 1 0 1.7.3.7.2 1.5.6 2.2 1.1-.6.8-1 1.9-1.4 3.3-.4 1.3-.5 2.7-.3 4.1.1.6.2 1.1.4 1.7.2.6.4 1.1.8 1.5.3.5.8.8 1.3 1.1.5.2 1.1.3 1.9.2.7-.1 1.2-.3 1.7-.6.4-.3.8-.7 1.1-1.2.3-.5.5-1.2.7-2s.4-1.7.6-2.8c.2-1.2.5-2.4.9-3.5s.9-2.1 1.5-3c.6-.9 1.4-1.6 2.4-2.2 1-.6 2.1-1 3.5-1.2 2.4-.3 4.4-.1 6.2.8 1.8.9 3.2 2.2 4.2 3.9l5.3-.7.4 3-4.5.6c.1.4.2.7.3 1 .1.3.2.7.2 1l4.3-.6.4 3-4.4.6c.1 1.6 0 2.9-.3 4-.2 1-.5 1.8-.7 2.4-.2.4-.5.7-.8 1-.3.3-.7.5-1.2.5-.5.1-1.2 0-2.1-.4-1.2 0-2-.4-2.7-.8zm-12.6-90.3c.6-.9 1.1-2.1 1.7-3.5.5-1.4.7-2.9.4-4.7-.1-.7-.3-1.3-.5-1.9-.2-.6-.5-1.1-.9-1.6-.4-.4-.9-.8-1.5-1-.6-.2-1.3-.3-2.1-.2-.8.1-1.4.3-2 .7-.5.4-1 .8-1.3 1.4-.3.5-.6 1.2-.8 1.9-.2.7-.4 1.5-.5 2.3-.2 1.2-.4 2.4-.7 3.6-.3 1.1-.8 2.2-1.4 3.1-.6.9-1.4 1.7-2.4 2.4-1 .6-2.2 1.1-3.7 1.3-2.3.3-4.3-.1-6-1.2s-3-2.7-3.8-4.6l-4.9.7-.4-3 4.4-.6c0-.2-.1-.3-.1-.5s-.1-.4-.1-.6c0-.2 0-.3-.1-.5v-.5l-4.4.6-.4-3 4.8-.7c.1-1.1.3-2 .5-2.7.2-.7.4-1.3.6-1.7.4-.9 1.1-1.5 2-1.6.4-.1 1 0 1.7.3.7.2 1.5.6 2.2 1.1-.6.8-1 1.9-1.4 3.3-.4 1.3-.5 2.7-.3 4.1.1.6.2 1.1.4 1.7.2.6.4 1.1.8 1.5.3.5.8.8 1.3 1.1.5.2 1.1.3 1.9.2.7-.1 1.2-.3 1.7-.6.4-.3.8-.7 1.1-1.2.3-.5.5-1.2.7-2 .2-.8.4-1.7.6-2.8.2-1.2.5-2.4.9-3.5s.9-2.1 1.5-3c.6-.9 1.4-1.6 2.4-2.2 1-.6 2.1-1 3.5-1.2 2.4-.3 4.4-.1 6.2.8 1.8.9 3.2 2.2 4.2 3.9l5.3-.7.4 3-4.5.6c.1.4.2.7.3 1 .1.3.2.7.2 1l4.3-.6.4 3-4.4.6c.1 1.6 0 2.9-.3 4-.2 1-.5 1.8-.7 2.4-.2.4-.5.7-.8 1-.3.3-.7.5-1.2.5-.5.1-1.2 0-2.1-.4-1.1-.1-1.9-.4-2.7-.8zm6.3 45.2c.6-.9 1.1-2.1 1.7-3.5.5-1.4.7-2.9.4-4.7-.1-.7-.3-1.3-.5-1.9-.2-.6-.5-1.1-.9-1.6-.4-.4-.9-.8-1.5-1-.6-.2-1.3-.3-2.1-.2-.8.1-1.4.3-2 .7-.5.4-1 .8-1.3 1.4-.3.5-.6 1.2-.8 1.9-.2.7-.4 1.5-.5 2.3-.2 1.2-.4 2.4-.7 3.6-.3 1.1-.8 2.2-1.4 3.1-.6.9-1.4 1.7-2.4 2.4-1 .6-2.2 1.1-3.7 1.3-2.3.3-4.3-.1-6-1.2-1.7-1.1-3-2.7-3.8-4.6l-4.9.7-.4-3 4.4-.6c0-.2-.1-.3-.1-.5s-.1-.4-.1-.6c0-.2 0-.3-.1-.5v-.5l-4.4.6-.4-3 4.8-.7c.1-1.1.3-2 .5-2.7.2-.7.4-1.3.6-1.7.4-.9 1.1-1.5 2-1.6.4-.1 1 0 1.7.3.7.2 1.5.6 2.2 1.1-.6.8-1 1.9-1.4 3.3-.4 1.3-.5 2.7-.3 4.1.1.6.2 1.1.4 1.7.2.6.4 1.1.8 1.5.3.5.8.8 1.3 1.1.5.2 1.1.3 1.9.2.7-.1 1.2-.3 1.7-.6.4-.3.8-.7 1.1-1.2.3-.5.5-1.2.7-2 .2-.8.4-1.7.6-2.8.2-1.2.5-2.4.9-3.5s.9-2.1 1.5-3c.6-.9 1.4-1.6 2.4-2.2 1-.6 2.1-1 3.5-1.2 2.4-.3 4.4-.1 6.2.8 1.8.9 3.2 2.2 4.2 3.9l5.3-.7.4 3-4.5.6c.1.4.2.7.3 1 .1.3.2.7.2 1l4.3-.6.4 3-4.4.6c.1 1.6 0 2.9-.3 4-.2 1-.5 1.8-.7 2.4-.2.4-.5.7-.8 1-.3.3-.7.5-1.2.5-.5.1-1.2 0-2.1-.4-1.1-.1-1.9-.4-2.7-.8z"/>
  <path fill="#45CDB6" d="M137.59 278.668l-19.637-141.146 5.943-.827 19.637 141.146zm23.123-3.283l-21.497-154.518 5.943-.826 21.49 154.52zm-11.567 1.61l-22.503-161.75 5.943-.826 22.504 161.74zm23.07-3.203L153.1 136.41l5.943-.827 19.113 137.382zm11.612-1.63L162.978 122.3l5.944-.827 20.85 149.863zm11.508-1.55l-22.503-161.75 5.943-.826 22.503 161.75zm11.574-1.622l-19.636-141.147 5.943-.827 19.636 141.146zm11.556-1.675l-22.502-161.75 5.943-.826 22.503 161.74zm11.568-1.61L208.537 111.19l5.943-.827 21.497 154.52z"/>
  <path fill="#E2066F" d="M99.7 170.9c4.6-.6 9 2.6 9.6 7.3l4.8 34.8c.6 4.6-2.6 9-7.3 9.6L72 227.4c-4.6.6-9-2.6-9.6-7.3l-4.8-34.8c-.6-4.6 2.6-9 7.3-9.6l34.8-4.8z"/>
  <path fill="#FFF" d="M81 182.3c-1.4.2-2.3 1.5-2.1 2.8l1.3 9.2c0 .1 0 .1-.1.1l-9.2 1.3c-1.4.2-2.3 1.5-2.1 2.8l.7 5.3c.2 1.4 1.5 2.3 2.8 2.1l9.2-1.3c.1 0 .1 0 .1.1l1.3 9.2c.2 1.4 1.5 2.3 2.8 2.1l5.3-.7c1.4-.2 2.3-1.5 2.1-2.8l-1.3-9.2c0-.1 0-.1.1-.1l9.2-1.3c1.4-.2 2.3-1.5 2.1-2.8l-.7-5.3c-.2-1.4-1.5-2.3-2.8-2.1l-9.2 1.3c-.1 0-.1 0-.1-.1l-1.3-9.2c-.2-1.4-1.5-2.3-2.8-2.1l-5.3.7z"/>
  <path fill="#FFF" stroke="#00A78E" stroke-width="6" stroke-miterlimit="10" d="M363.273 52.34l2.354 200.58-245.975 2.887-2.355-200.58z"/>
  <path fill="#009245" d="M143.3 105c-.7.9-1.4 1.9-2.1 3.2-.7 1.3-1 2.8-1 4.6 0 .7.1 1.3.2 1.9.2.6.4 1.2.7 1.7.3.5.8.9 1.4 1.2.6.3 1.2.4 2 .4s1.5-.2 2.1-.4c.6-.3 1.1-.7 1.5-1.2.4-.5.8-1.1 1-1.8.3-.7.5-1.4.8-2.3.3-1.2.7-2.3 1.2-3.4s1.1-2.1 1.8-2.9 1.6-1.5 2.7-2 2.3-.8 3.8-.8c2.4 0 4.3.6 5.8 1.9 1.5 1.3 2.6 3 3.2 5.1l5-.1v3l-4.4.1v2.1l4.4-.1v3l-4.9.1c-.3 1-.5 1.9-.8 2.6-.3.7-.6 1.2-.8 1.6-.6.9-1.3 1.3-2.2 1.3-.4 0-.9-.2-1.6-.5-.7-.3-1.4-.8-2.1-1.4.7-.8 1.3-1.8 1.8-3.1.6-1.3.8-2.6.8-4 0-.6-.1-1.1-.2-1.7-.1-.6-.3-1.1-.6-1.6s-.6-.9-1.1-1.2c-.5-.3-1.1-.5-1.8-.5s-1.2.1-1.7.4c-.5.2-.9.6-1.3 1.1-.4.5-.7 1.1-1 1.9-.3.7-.6 1.6-.9 2.7-.4 1.2-.8 2.3-1.4 3.4-.5 1-1.2 2-1.9 2.8-.8.8-1.6 1.4-2.7 1.9-1 .5-2.2.7-3.6.7-2.4 0-4.4-.5-6-1.6-1.6-1.1-2.9-2.6-3.7-4.4l-5.4.1v-3l4.6-.1c-.1-.4-.1-.7-.2-1.1s-.1-.7-.1-1.1l-4.3.1v-3l4.5-.1c.1-1.6.4-2.9.8-3.9s.7-1.7 1-2.2c.3-.4.6-.7.9-.9.4-.3.8-.4 1.2-.4.5 0 1.2.2 2 .6 1.1.3 1.9.8 2.6 1.3zm1 91.2c-.7.9-1.4 1.9-2.1 3.2-.7 1.3-1 2.8-1 4.6 0 .7.1 1.3.2 1.9.2.6.4 1.2.7 1.7.3.5.8.9 1.4 1.2.6.3 1.2.4 2 .4s1.5-.2 2.1-.4c.6-.3 1.1-.7 1.5-1.2.4-.5.8-1.1 1-1.8.3-.7.5-1.4.8-2.3.3-1.2.7-2.3 1.2-3.4s1.1-2.1 1.8-2.9 1.6-1.5 2.7-2 2.3-.8 3.8-.8c2.4 0 4.3.6 5.8 1.9 1.5 1.3 2.6 3 3.2 5.1l5-.1v3l-4.4.1v2.1l4.4-.1v3l-4.9.1c-.3 1-.5 1.9-.8 2.6-.3.7-.6 1.2-.8 1.6-.6.9-1.3 1.3-2.2 1.3-.4 0-.9-.2-1.6-.5-.7-.3-1.4-.8-2.1-1.4.7-.8 1.3-1.8 1.8-3.1.6-1.3.8-2.6.8-4 0-.6-.1-1.1-.2-1.7-.1-.6-.3-1.1-.6-1.6s-.6-.9-1.1-1.2c-.5-.3-1.1-.5-1.8-.5s-1.2.1-1.7.4c-.5.2-.9.6-1.3 1.1-.4.5-.7 1.1-1 1.8-.3.7-.6 1.6-.9 2.7-.4 1.2-.8 2.3-1.4 3.4-.5 1-1.2 2-1.9 2.8-.8.8-1.6 1.4-2.7 1.9-1 .5-2.2.7-3.6.7-2.4 0-4.4-.5-6-1.6-1.6-1.1-2.9-2.6-3.7-4.4l-5.4.1v-3l4.6-.1c-.1-.4-.1-.7-.2-1.1s-.1-.7-.1-1.1l-4.3.1v-3l4.5-.1c.1-1.6.4-2.9.8-3.9s.7-1.7 1-2.2c.3-.4.6-.7.9-.9.4-.3.8-.4 1.2-.4.5 0 1.2.2 2 .6 1.2.4 2 .9 2.6 1.4zm-.5-45.6c-.7.9-1.4 1.9-2.1 3.2-.7 1.3-1 2.8-1 4.6 0 .7.1 1.3.2 1.9.2.6.4 1.2.7 1.7.3.5.8.9 1.4 1.2.6.3 1.2.4 2 .4s1.5-.2 2.1-.4c.6-.3 1.1-.7 1.5-1.2.4-.5.8-1.1 1-1.8.3-.7.5-1.4.8-2.3.3-1.2.7-2.3 1.2-3.4s1.1-2.1 1.8-2.9c.7-.9 1.6-1.5 2.7-2s2.3-.8 3.8-.8c2.4 0 4.3.6 5.8 1.9 1.5 1.3 2.6 3 3.2 5.1l5-.1v3l-4.4.1v2.1l4.4-.1v3l-4.9.1c-.3 1-.5 1.9-.8 2.6-.3.7-.6 1.2-.8 1.6-.6.9-1.3 1.3-2.2 1.3-.4 0-.9-.2-1.6-.5-.7-.3-1.4-.8-2.1-1.4.7-.8 1.3-1.8 1.8-3.1.6-1.3.8-2.6.8-4 0-.6-.1-1.1-.2-1.7-.1-.6-.3-1.1-.6-1.6s-.6-.9-1.1-1.2c-.5-.3-1.1-.5-1.8-.5s-1.2.1-1.7.4c-.5.2-.9.6-1.3 1.1-.4.5-.7 1.1-1 1.9-.3.7-.6 1.6-.9 2.7-.4 1.2-.8 2.3-1.4 3.4-.5 1-1.2 2-1.9 2.8-.8.8-1.6 1.4-2.7 1.9-1 .5-2.2.7-3.6.7-2.4 0-4.4-.5-6-1.6-1.6-1.1-2.9-2.6-3.7-4.4l-5.4.1v-3l4.6-.1c-.1-.4-.1-.7-.2-1.1s-.1-.7-.1-1.1l-4.3.1v-3l4.5-.1c.1-1.6.4-2.9.8-3.9s.7-1.7 1-2.2c.3-.4.6-.7.9-.9.4-.3.8-.4 1.2-.4.5 0 1.2.2 2 .6 1.2.3 1.9.8 2.6 1.3z"/>
  <path fill="#45CDB6" d="M283.948 71.898l1.673 142.486-6 .07-1.67-142.485zm-23.314.296l1.83 155.985-6 .07-1.83-155.99zm11.673-.114l1.917 163.284-6 .07-1.916-163.283zm-23.362.272l1.628 138.686-6 .07-1.627-138.686zm-11.73.142l1.776 151.285-5.99.07-1.77-151.29zm-11.65.126l1.918 163.283-6 .07-1.916-163.283zm-11.628.136l1.672 142.486-6 .07-1.68-142.486zm-11.74.184l1.916 163.283-6 .07-1.916-163.284zm-11.675.113l1.83 155.984-5.998.07-1.83-155.984z"/>
  <path fill="#E2066F" d="M307.8 183.5c-4.7.1-8.5-3.7-8.6-8.4l-.4-35.2c-.1-4.7 3.7-8.5 8.4-8.6l35.2-.4c4.7-.1 8.5 3.7 8.6 8.4l.4 35.2c.1 4.7-3.7 8.5-8.4 8.6l-35.2.4z"/>
  <path fill="#FFF" d="M327.9 174.7c1.4 0 2.5-1.2 2.5-2.5l-.1-9.3c0-.1.1-.1.1-.1l9.3-.1c1.4 0 2.5-1.2 2.5-2.5l-.1-5.3c0-1.4-1.2-2.5-2.5-2.5l-9.3.1c-.1 0-.1-.1-.1-.1l-.2-9.4c0-1.4-1.2-2.5-2.5-2.5l-5.3.1c-1.4 0-2.5 1.2-2.5 2.5l.1 9.3c0 .1-.1.1-.1.1l-9.3.1c-1.4 0-2.5 1.2-2.5 2.5l.1 5.3c0 1.4 1.2 2.5 2.5 2.5l9.3-.1c.1 0 .1.1.1.1l.1 9.3c0 1.4 1.2 2.5 2.5 2.5h5.4zM224 123h.1c-.2-11-2.6-36.6-19.2-54.1-11.9-12.5-29-18.8-51-18.8l-.7-12L412.6 6h.4c25.4 0 45.5 7.6 59.7 22.6 21.7 22.8 22.8 55.6 22.5 66V253L224 286.4V123z"/>
  <path fill="#00A78E" d="M412.9 12c78.2 0 76.6 75.5 76.2 84.2h.1v151.4l-259.1 32V128.3h.1c.4-8.8 2-84.2-76.2-84.2L412.9 12m0-12h-.7l-.7.1-259 32L154 56c20.3 0 36 5.7 46.7 16.9 13.7 14.4 16.8 35.2 17.5 46.7v173.6l13.5-1.7 259.1-32 10.5-1.3V82.7h-.4c-1.3-15.6-6.3-39.9-23.8-58.3C461.6 8.2 440 0 412.9 0z"/>
  <circle fill="#00A78E" cx="286.4" cy="160.8" r="21.6"/>
  <path fill="none" stroke="#00A78E" stroke-width="16" stroke-miterlimit="10" d="M286.4 157.8l131.8-16.4"/>
  <path fill="#00A78E" d="M410.6 185.7l16.9-1.5c4.9-.4 8.6-4.8 8.2-9.7l-2.9-33.1c-.4-4.9-4.8-8.6-9.7-8.2l-16.9 1.5c-4.9.4-8.6 4.8-8.2 9.7l2.9 33.1c.4 4.9 4.7 8.6 9.7 8.2z"/>
</svg>