<svg xmlns="http://www.w3.org/2000/svg" width="122.3" height="188.3" viewBox="0 0 122.3 188.3"><path fill="#FFF" stroke="#00A78E" stroke-width="2.862" stroke-linecap="round" stroke-linejoin="round" stroke-miterlimit="10" d="M53.1 154.6c-1.9 8.4-6.8 22.5-13.9 28 0 0 17.7 7.8 45.8 2.3 0 0-9.2-9.7-10.6-28.7-.4-5.4-4.7-9.6-10.1-9.9h-.2c-5.1-.3-9.8 3.2-11 8.3z"/><path fill="#FFF" d="M110.1 94.9s1.6-14.5 6.1-10.4c3.7 3.3 5.5 18.9 3.2 29.7-1 4.8-6.8 10.3-9.2 7.9-2.4-2.5-.1-27.2-.1-27.2m-96.7-2.5s-2.1-14.5-6.9-10.3c-5 4.4-4.5 23-2.8 29.8 1.2 4.8 7.6 10.1 10.2 7.7 2.5-2.5-.5-27.2-.5-27.2"/><path fill="#FFF" stroke="#00A78E" stroke-width="2" stroke-linecap="round" stroke-linejoin="round" stroke-miterlimit="10" d="M11.1 71.9c.1 5.1-4.6 45.7 9.6 63.5 8.1 10.2 15.8 17.8 25.8 22.2 9.8 4.4 19.3 3.9 28.7 1.9 9.4-2 23.3-11.9 31.9-31 4.1-9.1 15.2-80.3-5.3-100.4-13.4-13.2-42.9-11.5-54.3-11-11.5.6-36.9 4.7-36.4 54.8"/><path fill="#00A78E" stroke="#FFF" stroke-width="2.383" stroke-miterlimit="10" d="M9 80.9S-.4 56.5 1.5 46.7c1.9-9.8 6.7-18.6 23.9-34.2C36.7 2.3 56.5.5 58.7 3c3.4 3.8 9.2 5.5 13.4.6 4.2-4.9 19-1.7 17.2 2.2 7.9-4.6 13.4 3.9 13.4 3.9s29.8 3.8 13.5 81.1c-1.4 6.8-3.1 14.5-3.1 14.5-6 .4-.6-9 .3-37.5 1.3-39.3-35.2-30.7-48.6-32.2-16.3-1.8-43.7-4-48.6 17.1-4.9 21.1-2.7 49.4-2.7 49.4L9 106.8V80.9z"/><path fill="#00A78E" d="M58.1 115.5s.4 0 1.1.1c.7.1 1.7.2 2.9.3 1.2.1 2.6.2 3.9 0 .6-.1 1.2-.3 1.4-.6.1-.1.1-.1.1-.2v-.1s-.1.2 0 .1v-.1l.1-.3c.1-.4.1-.7.2-1 .1-.7.1-1.5.1-2.3v-2.3c0-.7-.1-1.5-.1-2.2 0-.7-.1-1.3-.1-1.9v-4s.2.4.4 1c.3.7.6 1.6.9 2.8.3 1.2.7 2.6.9 4.1l.3 2.4c.1.8 0 1.7 0 2.6-.1.5-.1 1.1-.2 1.4l-.1.3v.2l-.1.2c-.1.3-.3.6-.6.8-.4.5-1 .7-1.5.9-.5.1-1 .2-1.4.2-.9 0-1.7-.1-2.4-.2s-1.4-.3-2-.5c-1.2-.4-2.1-.9-2.8-1.2l-1-.5zm-11-26.7c0 2.8-2.3 5-5.1 5s-5.1-2.2-5.1-5 2.3-5 5.1-5 5.1 2.2 5.1 5"/><path fill="#FFF" d="M40 88.7c0 1-.5 1.7-1.2 1.7-.6 0-1.2-.8-1.2-1.7 0-1 .5-1.7 1.2-1.7s1.2.8 1.2 1.7"/><path fill="#00A78E" d="M81.4 88.8c0 2.8 2.3 5 5.1 5s5.1-2.2 5.1-5-2.3-5-5.1-5-5.1 2.2-5.1 5"/><path fill="#FFF" d="M85.2 88.7c0 1-.5 1.7-1.2 1.7-.6 0-1.2-.8-1.2-1.7 0-1 .5-1.7 1.2-1.7.6 0 1.2.8 1.2 1.7"/><path fill="#00A78E" d="M27.9 91.8l.3-.3c1.3-1.2 7.3-6 13.9-6 3.8 0 7.9 1.6 11.6 6.4l1.2-1.5c-4-5.3-8.6-7.1-12.8-7.1-8.2 0-15.1 6.6-15.2 6.6l1 1.9zm73.8-1.7c-.1 0-6.9-6.6-15.2-6.6-4.2 0-8.8 1.8-12.8 7.1l1.2 1.5c3.7-4.9 7.7-6.4 11.6-6.4 3.8 0 7.3 1.5 9.9 3.1 1.3.8 2.4 1.6 3.1 2.1.4.3.7.5.8.7l.3.3 1.1-1.8zM49.8 68.7s7.1 4.9 1.9 6.6c-5.3 1.7-14.3.9-18.1 2.3-3.8 1.4-11.1 5.3-11.1 5.3l-.9-3.2s9.2-11.2 28.2-11zM80 65.8s-7.6 3.4-2.8 6.2c4.8 2.8 13.7 3.9 17.2 6.1 3.5 2.2 10 7.7 10 7.7l1.3-3s-7.3-13.2-25.7-17zm2 76.3s-3.6.7-1.5 4.2c-.1 0-.1-3 1.5-4.2z"/></svg>