<svg xmlns="http://www.w3.org/2000/svg" width="129.8" height="86.8" viewBox="0 0 129.8 86.8"><path fill="#00A78E" d="M28.2 24.7c.6 5.5 1.3 9.6-2.7 13.2-6.4 5.8-8.7 6.8-14.5 13.2S.7 66 1.2 75c.2 3.4 1.3 7 4 8.9 2.2 1.5 5 1.6 7.6 1.6 4.2 0 8.6-.1 12.2-2.5 1.5-1 2.7-2.4 3.9-3.7 3.6-4.1 7.3-8.2 9.5-13.3 1.3-2.8 2.1-5.9 3.9-8.3 2.5-3.4 6.7-4.9 10.7-5.6 4.9-.9 9.9-.7 14.7.5 7.3 1.8 14.5 6 21.8 4.2 6.4-1.6 11.1-7.6 17.4-9.6 4.3-1.4 9.1-.8 13.4-2.3 3.4-1.3 6.4-3.9 8.1-7.3.5-.9.1-4.9-.4-5.7-1.8-2.8-3.5-5.6-5.3-8.4-1.2-1.8-2.4-3.7-4-5.1-2-1.8-4.5-2.8-6.9-3.8-5.9-2.4-12-4.8-18.3-5-7.1-.3-16.1 10.2-23.3 9.7-8.1-.5-15.9-5-20.7-12L28.2 24.7z"/><path fill="#FFF" d="M27.1 24.7c.3 2.5.7 5.2.2 7.8-.7 3.6-3.6 5.6-6.2 7.9-3.8 3.2-7.6 6.3-10.9 10.1C3.9 57.4-1.3 67 .3 76.7 1.9 87 12.3 88.1 21 85.9c8.7-2.3 15.7-13.3 19.1-21 1.7-4 2.9-7.4 6.9-9.7 3.4-1.9 7.7-2.5 11.5-2.6 7.4-.1 13.6 2.9 20.6 4.7 4.5 1.2 9 1.4 13.3-.5 4.5-1.9 8-5.6 12.4-7.7 7.5-3.7 22.2-.8 24.8-12.1.8-3.6-1-6.4-2.8-9.3-2.9-4.5-5.4-9.6-10.1-12.4-5.2-3-11.9-5.3-17.8-6.4-4.6-.9-8.2-.8-12.5 1.4-4.9 2.5-9.9 7.4-15.7 7.7-7.9.5-15.7-5.3-20.2-11.3-.5-.6-1.2-.7-1.8-.2-7.1 5.8-14.3 11.6-21.4 17.4-1.1.9.5 2.5 1.6 1.6C36.1 19.7 43.2 13.8 50.4 8c-.6-.1-1.2-.2-1.8-.2 4.8 6.6 11.9 11.5 20.1 12.4 7.7.9 13.4-5.5 20-8.4 5.3-2.3 11.1-.5 16.3 1.3 6.5 2.2 12.3 4.3 16.3 10.2 3.1 4.6 8.6 10.4 4.7 15.9-3.8 5.5-10.1 5.2-16 6.2C99.2 47 93.1 58 81.4 55.6c-5.2-1.1-10-3.5-15.2-4.5-4.9-1-10.1-1-15 .2-3.7.9-7.2 2.6-9.6 5.6-3 3.8-3.9 8.8-6.5 12.9-2.8 4.3-7.3 10.7-12 13-2.6 1.3-5.7 1.5-8.6 1.5-5 .1-9.7-.3-11.5-6C-1 65.8 9.8 53 18.4 45.5c3.2-2.8 7.5-5.3 9.8-9 2.2-3.6 1.6-7.8 1.1-11.8-.2-1.5-2.4-1.5-2.2 0z"/><path fill="#00A78E" stroke="#FFF" stroke-width="2.5" stroke-miterlimit="10" d="M28.2 24.7L23.5 20 46.3 1.9l3.3 5.3z"/><path fill="#FFF" d="M35.6 31.2c3 11.8-5.3 16.9-12.6 24.2-4.6 4.6-8.3 10.7-7.8 17.3.1 1.4 2.4 1.4 2.3 0-.9-11.6 10-16.5 16.2-24.3 4.6-5.7 5.9-10.8 4.1-17.9-.4-1.3-2.5-.7-2.2.7zm7.3-8.7c4.1 5.9 5.5 12.9 3.8 19.9-.3 1.4 1.8 2 2.2.6 1.8-7.6.4-15.2-4-21.7-.9-1.1-2.9 0-2 1.2zm6.5-2.2c2.7 5.7 5.5 14.4 12.1 16.6 8.1 2.7 19.6-1.9 24.4 7.7.6 1.3 2.6.2 1.9-1.1-2.5-5.1-7.8-7.2-13.2-7.7-5-.5-12 .8-15.9-3.2-3.4-3.4-5.4-9-7.4-13.4-.6-1.3-2.5-.2-1.9 1.1zm25.2 7.4c12.7 5.1 32.8-4.8 42.7 7.4.9 1.1 2.5-.5 1.6-1.6-10.4-12.8-30.6-2.8-43.7-8-1.3-.5-1.9 1.7-.6 2.2z"/></svg>