<svg xmlns="http://www.w3.org/2000/svg" width="298.5" height="270.8" viewBox="0 0 298.5 270.8"><path fill="#00A78E" d="M114.5 9.8L72.6 0 30.7 9.8h-.8V25h84.4V9.8"/><path fill="#32CFB6" d="M16.5 68.5h265.4v202.3H16.5zm282 0H0L16.5 25H282"/><path fill="#32CFB6" d="M0 68.5h298.5v12.7H0z"/><path d="M26.5 81.2H57v39H26.5zm53.7 0h30.5v39H80.2zm53.6 0h30.5v39h-30.5zm53.6 0h30.5v39h-30.5zm53.6 0h30.5v39H241zM26.5 128.6H57v39H26.5zm53.7 0h30.5v39H80.2zm53.6 0h30.5v39h-30.5zm53.6 0h30.5v39h-30.5zm53.6 0h30.5v39H241zM26.5 176.1H57v39H26.5zm53.7 0h30.5v39H80.2zm53.6 0h30.5v39h-30.5zm53.6 0h30.5v39h-30.5zm53.6 0h30.5v39H241zM26.5 223.6H57v39H26.5zm53.7 0h30.5v39H80.2zm53.6 0h30.5v39h-30.5zm53.6 0h30.5v39h-30.5zm53.6 0h30.5v39H241z" fill="#00A78E"/></svg>