<svg id="Layer_1" xmlns="http://www.w3.org/2000/svg" viewBox="-163 206.7 272.9 188.3"><style>.st0{fill:#7D3F98;} .st1{fill:none;} .st2{enable-background:new ;} .st3{fill:#FFFFFF;}</style><path class="st0" d="M-163 206.7h272.9V395H-163V206.7z"/><path class="st1" d="M-126.2 247H87.5v107.6h-213.7V247z"/><g class="st2"><path class="st3" d="M-121.7 249.4c.2 0 .5-.1.8-.1h.7c.4 0 .8 0 1.2.1.4.1.8.3 1.2.5.4.3.7.7.9 1.1s.4 1.1.4 2v36.1h-5.2v-39.7zM-107.5 261.2c.3 0 .5-.1.7-.1h.4c.9 0 1.7.2 2.5.7.7.5 1.2 1.2 1.3 2.3.9-.9 2.1-1.7 3.7-2.4s3.4-1.1 5.5-1.1c2.7 0 4.7.6 6.2 1.8 1.4 1.2 2.4 2.7 2.8 4.5.2.8.3 1.7.4 2.6 0 1 .1 1.9.1 2.8v16.9h-5v-16.7-2.2c0-.7-.1-1.3-.3-1.9-.3-1-.9-1.8-1.8-2.4-.9-.6-2.1-.8-3.8-.8-1.1 0-2.2.1-3.1.4-.9.2-1.7.6-2.3.9-.6.4-1.1.9-1.5 1.4-.4.5-.5 1-.5 1.5v19.8h-5v-28z"/></g><g class="st2"><path class="st3" d="M-121.5 309c.2-.1.6-.1 1-.2s.9-.1 1.3-.1c.9 0 1.6.1 2 .4.5.3 1 .8 1.4 1.5l19.2 30v-31.9c.2 0 .5-.1.7-.1h.7c.4 0 .7 0 1.1.1.4.1.8.3 1.1.5.3.3.6.6.8 1.1.2.5.3 1.1.3 1.9v36.1h-4.8l-20.2-30.8v30.8h-4.8V309zM-78.9 335.6c.1 2.9.9 5.2 2.3 7 1.4 1.8 3.6 2.6 6.5 2.6 1.1 0 2.1-.1 3-.4.9-.2 1.6-.5 2.3-.9.6-.3 1.2-.7 1.6-1.1s.8-.8 1-1.1c.4.6.8 1.1 1.2 1.8.3.6.5 1.1.5 1.5 0 .3-.1.6-.3 1-.2.3-.5.7-1 1-.9.7-2.1 1.2-3.5 1.7s-3.1.7-5.2.7c-1.9 0-3.6-.3-5.3-.8-1.6-.5-3.1-1.4-4.3-2.6-1.2-1.2-2.2-2.7-2.9-4.7-.7-1.9-1.1-4.3-1.1-7 0-2.5.4-4.6 1.1-6.5.7-1.8 1.7-3.3 2.9-4.5 1.2-1.2 2.5-2 4.1-2.6 1.5-.6 3.1-.8 4.7-.8 2 0 3.7.3 5.2 1 1.4.7 2.6 1.6 3.5 2.7.9 1.1 1.6 2.4 2 3.9.4 1.5.7 3 .7 4.6v1.7c0 .6-.1 1.1-.1 1.6h-18.9zm13.9-3.8c0-1.1-.1-2.1-.3-3-.2-.9-.6-1.7-1.1-2.4-.5-.7-1.2-1.2-2-1.6-.9-.4-1.9-.6-3.1-.6-2.1 0-3.7.7-5.1 2-1.3 1.3-2.1 3.2-2.2 5.6H-65zM-53.2 312.1c.3 0 .5-.1.7-.1h.4c1.2 0 2.1.3 2.9.9.7.6 1.1 1.6 1.1 3.1v4.6h8.8v4.3h-8.8v15.3c0 3.2 1.3 4.9 3.9 4.9.6 0 1.2-.1 1.8-.3.6-.2 1.1-.5 1.5-.8.5-.3.8-.6 1.1-.9.3-.3.5-.5.5-.6.5.6.9 1.2 1.2 1.7.3.6.5 1.1.5 1.6 0 .4-.2.7-.5 1.2-.4.4-.9.8-1.5 1.2-.6.4-1.4.7-2.3.9-.9.2-1.9.4-3.1.4-2.1 0-3.7-.4-4.9-1.2-1.2-.8-2.1-1.9-2.6-3.3-.3-.8-.4-1.6-.5-2.5-.1-.9-.1-1.8-.1-2.6v-27.8zM-35.4 320.9c.4-.1.9-.2 1.3-.3.4-.1.9-.1 1.3-.1 1.9 0 3.1 1 3.7 3.1l6.1 19.6 5.7-13.9-3-8.4c.8-.2 1.5-.4 2.4-.4 1.8 0 3 .9 3.7 2.8l7.1 19.9 4.9-18.8c.3-1.1.7-2 1.2-2.8.6-.8 1.4-1.2 2.6-1.2.8 0 1.6.2 2.4.5l-8.5 27.8h-5l-5.6-14.4-6.1 14.4h-4.5l-9.7-27.8zM33.1 334.5c0 1.9-.2 3.8-.7 5.6s-1.2 3.4-2.3 4.8c-1 1.4-2.4 2.5-4.1 3.3-1.7.8-3.7 1.2-6.1 1.2-2.3 0-4.3-.4-6-1.2-1.7-.8-3-1.8-4-3.2-1-1.3-1.8-2.9-2.3-4.7s-.6-3.6-.6-5.6c0-2 .3-3.9.8-5.6.6-1.8 1.4-3.3 2.5-4.7 1.1-1.3 2.5-2.4 4.1-3.2 1.6-.8 3.6-1.2 5.8-1.2 2.3 0 4.3.4 5.9 1.2 1.6.8 3 1.8 4 3.2 1 1.3 1.8 2.9 2.3 4.6.5 1.7.7 3.6.7 5.5zm-5.3.1c0-1.2-.1-2.4-.3-3.6-.2-1.2-.6-2.3-1.2-3.3s-1.3-1.8-2.3-2.3c-1-.6-2.3-.9-3.9-.9-1.5 0-2.8.3-3.8.9-1 .6-1.8 1.4-2.4 2.3-.6 1-1 2.1-1.3 3.3-.3 1.2-.4 2.4-.4 3.6 0 1.2.1 2.5.3 3.7.2 1.2.6 2.4 1.2 3.4s1.4 1.9 2.4 2.5c1 .7 2.3 1 3.8 1 1.6 0 2.9-.3 3.9-1s1.8-1.5 2.4-2.5c.6-1 .9-2.1 1.2-3.4.3-1.3.4-2.5.4-3.7zM40.4 320.6c.3 0 .6-.1.7-.1h.3c.9 0 1.7.2 2.5.7.7.5 1.2 1.2 1.3 2.3.6-.8 1.4-1.6 2.5-2.3 1.1-.7 2.4-1.1 3.9-1.1.4 0 .9 0 1.4.1.5.1 1 .2 1.4.4s.8.4 1.1.7c.3.3.4.7.4 1.2 0 .6-.2 1.3-.5 2s-.6 1.3-.9 1.8c-.5-.5-1.1-.8-1.7-1.1-.6-.3-1.3-.4-2.3-.4-.7 0-1.3.1-1.9.3-.6.2-1.2.5-1.6.9-.5.4-.9.8-1.1 1.3-.3.5-.4 1-.4 1.5v19.7h-5v-27.9zM61 306.5c.3 0 .5-.1.7-.1h.4c1.2 0 2.1.3 2.9.9.7.6 1.1 1.6 1.1 3.1v38.1h-5v-42zm6.4 27.5v-2l10.2-10.1c1.1-1 2.3-1.5 3.4-1.5.7 0 1.2.1 1.7.4s.9.5 1.3.9l-11.4 11.2 13.2 15.7c-.9.4-1.9.5-3 .5-.8 0-1.6-.2-2.3-.5-.8-.3-1.5-.9-2.1-1.6l-11-13z"/></g></svg>