<svg xmlns="http://www.w3.org/2000/svg" width="56.7" height="174.8" viewBox="0 0 56.7 174.8"><path fill="#FFF" d="M30.5 162.8c-1.1 2.4-1.6 4.7 1.4 4.6l.9-1.1 5.1-6.7 1.4 1.9c.8 1.1 1 2.5.4 3.7-.4 1-.9 2.1-1.2 2.8-.2.6-.7 1-1.3 1.4l-3.5 2.3c-.8.6-.5 1.3-.3 2l.5.5c.7.7 2 .8 2.8.2l3.9-2.6c.4-.1.7-.3.9-.5l6.1-8.8c.4-.5 1-3 .9-3.6l-2.3-9.8c0-.3-.2-2.3-.1-2.6l10.4-41 .2-7.3s-2.4-36.5-4.6-36l-22.3 4.4c-1.8.4 6.4 26.6 6.4 26.6 0 .2 1.7 6.2 2.4 10.6L35 148.3c0 .2 0 .4-.1.6l-4.4 13.9zM0 11.6S1-1.3 10.8.1s35.7 16 44.2 59.5l-29.5 6.2L0 11.6z"/></svg>