<svg xmlns="http://www.w3.org/2000/svg" viewBox="-91 203.2 416.1 195.8"><path fill="#FFF" d="M-45.1 294.9c-4 .7-7.6 2.4-10.9 5-3.3 2.7-6.1 6-8.5 10.1-2.4 4.1-4.2 8.7-5.5 13.9-1.3 5.2-2 10.7-2 16.6 0 3.1.4 6 1.1 8.6.7 2.6 1.8 4.8 3.3 6.6 1.5 1.8 3.3 3 5.4 3.8 2.1.8 4.7.9 7.6.4 4.1-.7 7.9-2.2 11.3-4.5 3.4-2.3 6.3-5 8.7-8.1l1.6 1.3c1.4 1.1 2.1 2.3 2.1 3.4 0 1.8-.8 3.6-2.4 5.3-1 1-2.2 2.1-3.5 3.1-1.3 1.1-2.9 2.1-4.7 3.1-1.8 1-3.9 1.9-6.2 2.8-2.3.9-4.9 1.6-7.8 2.1-4.8.8-8.8.7-12.2-.4-3.4-1.1-6.2-2.9-8.3-5.4-2.1-2.5-3.7-5.6-4.7-9.2-1-3.6-1.5-7.6-1.5-11.9 0-5.8.8-11.8 2.4-17.8 1.6-6.1 4-11.7 7.2-16.8 3.2-5.2 7.2-9.6 12-13.3 4.8-3.7 10.5-6.2 16.9-7.3 3-.5 5.6-.7 7.8-.5 2.2.2 4.1.7 5.6 1.3 1.5.7 2.8 1.4 3.7 2.3 1 .9 1.7 1.7 2.1 2.6.5.9.8 1.9.8 3 0 .9-.2 1.9-.6 2.8-.4 1-1.1 1.8-2.1 2.5l-2.6 1.8c-1.8-3.5-4-5.8-6.7-6.7-2.7-.9-5.8-1.1-9.4-.5zM-3 359.2c-3.6.6-6.6.5-9.1-.3s-4.4-2.2-6-4c-1.5-1.8-2.6-3.9-3.3-6.4-.7-2.5-1-5.1-1-7.9 0-4.4.6-8.8 1.9-13.2 1.3-4.4 3.1-8.5 5.5-12.2 2.4-3.7 5.4-6.9 9-9.5 3.6-2.6 7.6-4.3 12.2-5.1 3.5-.6 6.5-.5 9 .3s4.4 2.1 6 4c1.5 1.8 2.6 3.9 3.3 6.4.7 2.5 1 5.1 1 7.9 0 4.4-.6 8.7-1.8 13.1-1.2 4.4-3 8.4-5.3 12.2-2.4 3.7-5.3 6.9-8.9 9.6-3.6 2.5-7.7 4.2-12.5 5.1zm-9.5-20.2c0 1.9.2 3.7.6 5.4.4 1.7 1 3 1.9 4.2.9 1.1 2 1.9 3.3 2.5 1.3.5 2.9.6 4.7.3 2.6-.5 5-1.6 7.2-3.4 2.2-1.8 4-4.1 5.6-6.8 1.5-2.7 2.7-5.8 3.6-9.3.9-3.5 1.3-7.2 1.3-11.1 0-1.9-.2-3.7-.6-5.4-.4-1.7-1.1-3-1.9-4.2-.8-1.1-1.9-1.9-3.3-2.5-1.3-.5-2.9-.6-4.8-.3-2.6.5-5 1.6-7.1 3.4-2.1 1.8-4 4.1-5.6 6.8-1.6 2.7-2.8 5.8-3.6 9.3-.9 3.5-1.3 7.2-1.3 11.1zm63.8-38.1c2-2.7 4.4-5 7.3-7.2 2.9-2.1 6.1-3.5 9.7-4.1 3.1-.6 5.8-.2 7.8 1 2.1 1.2 3.5 3 4.3 5.5 1.1-1.4 2.2-2.7 3.4-4 1.2-1.2 2.5-2.4 4-3.4s3.1-1.9 4.9-2.7c1.8-.8 3.9-1.4 6.2-1.8 2.5-.4 4.7-.4 6.4.2 1.8.6 3.2 1.5 4.3 2.7 1.1 1.2 1.9 2.7 2.4 4.5.5 1.8.7 3.6.7 5.5 0 1.4-.1 2.8-.2 4.2-.2 1.4-.3 2.8-.6 4.1l-5.3 32.8-9.8 1.7 5.3-32.8c.2-.9.3-2 .5-3.2.2-1.2.2-2.4.2-3.4 0-2.5-.6-4.5-1.8-5.8-1.2-1.3-3.2-1.7-5.9-1.3-3.2.6-6.2 2.1-8.9 4.6-2.7 2.5-4.5 6.3-5.3 11.2l-5.4 34.4-9.9 1.7 5.3-32.8c.2-1.1.3-2.1.4-3.1.1-1 .2-2 .2-3 0-2.4-.6-4.4-1.9-5.9-1.3-1.6-2.9-2.2-4.9-1.8-1.5.3-3.1.8-4.8 1.7-1.6.9-3.2 2-4.5 3.4-1.4 1.4-2.6 3.1-3.6 5.1-1 1.9-1.7 4.1-2.1 6.5l-5.5 33.7-9.8 1.7 9-55.7c.8-.3 1.5-.5 2.1-.6 4.1-.7 6.1.9 6.1 4.9v1.5zm88.3-16c2-2.7 4.3-4.9 7.1-6.9 2.7-1.9 5.6-3.2 8.6-3.7 3.1-.5 5.7-.4 7.8.4 2.1.8 3.8 2 5.2 3.7 1.3 1.7 2.3 3.8 2.9 6.3.6 2.5.9 5.2.9 8.2 0 4.6-.7 9.2-2.2 13.7-1.5 4.5-3.5 8.6-6 12.3-2.6 3.7-5.6 6.8-9.1 9.4-3.5 2.6-7.4 4.2-11.6 5-1.8.3-3.6.4-5.6.4s-3.7-.4-5.2-1l-4.3 26.6-9.7 1.7 13.1-81.3c.8-.3 1.5-.5 2.1-.6 4.1-.7 6.1.9 6.1 4.9v.9zm2.3 41.2c2.7-.5 5.2-1.6 7.6-3.5 2.4-1.8 4.5-4.2 6.3-7 1.8-2.8 3.2-6.1 4.3-9.7 1.1-3.6 1.6-7.5 1.6-11.6s-.8-7.2-2.3-9.3c-1.5-2-4.1-2.7-7.7-2.1-1.2.2-2.6.8-4.1 1.6-1.5.9-2.9 2-4.3 3.4s-2.6 3.1-3.6 5-1.7 4.1-2.1 6.5l-4.3 26.3c1 .4 2.1.7 3.4.8 1.4.1 3.1 0 5.2-.4zm81.1-19.4c-.1.5-.1.9-.2 1.3 0 .4-.1.8-.1 1.2 0 1.1.2 2 .7 2.5.5.5 1.3.6 2.5.4.6-.1 1.3-.4 2.2-.7l.8 4.3c-.9.7-2.1 1.3-3.4 1.9-1.3.5-2.5.9-3.5 1.1-2.8.5-4.9.3-6.3-.6-1.5-.9-2.4-2.6-2.8-5.1-1.8 2.6-3.9 4.9-6.4 6.9-2.5 2-5.3 3.2-8.5 3.8-2.9.5-5.4.4-7.4-.2s-3.7-1.7-5.1-3.3c-1.3-1.6-2.3-3.5-2.9-5.8-.6-2.3-.9-4.8-.9-7.5 0-4.4.7-8.9 2.1-13.5 1.4-4.6 3.4-9 5.9-13 2.6-4 5.7-7.5 9.4-10.3 3.7-2.9 7.9-4.7 12.5-5.5 1.8-.3 3.5-.4 5.2-.4 1.7 0 3.4.2 4.9.5 1.5.3 2.9.7 4.2 1.1 1.3.4 2.4.9 3.3 1.3l-6.2 39.6zM211.1 272c-2.6.5-5.1 1.7-7.4 3.7-2.3 2-4.4 4.5-6.2 7.5-1.8 3-3.2 6.4-4.2 10.1-1 3.7-1.6 7.7-1.6 11.7 0 7.8 3.1 11.2 9.3 10.1 1.2-.2 2.5-.7 4-1.5 1.4-.8 2.8-1.9 4.1-3.2 1.3-1.4 2.5-3 3.5-5 1-1.9 1.7-4.2 2.1-6.7l4.1-26c-1-.4-2.1-.7-3.2-.9-1-.2-2.6-.1-4.5.2zm43.3-7c1.9-2.3 4.1-4.6 6.6-6.7 2.5-2.1 5.2-3.4 8.1-4 2.5-.4 4.5-.2 6 .7 1.6.9 2.4 2.4 2.4 4.4 0 1.3-.3 2.4-.9 3.4-.6 1-1.4 1.8-2.4 2.6l-1.8 1.5c-.8-1.7-1.8-2.7-2.9-3.1-1.1-.4-2.3-.5-3.6-.2-1.4.2-2.8.8-4.2 1.7-1.4.9-2.7 2.1-3.9 3.5-1.2 1.4-2.2 3.1-3.2 5-.9 1.9-1.6 3.9-2 6.2l-5.5 33.5-9.8 1.7 9-55.7c.8-.3 1.5-.5 2.1-.6 4.1-.7 6.1.9 6.1 4.9v1.2zm62.8 31.6c-.7.8-1.5 1.7-2.5 2.6-1 .9-2.2 1.8-3.6 2.7-1.4.9-3.1 1.7-5 2.4s-4.1 1.3-6.6 1.7c-3 .5-5.7.6-8.3.1-2.5-.4-4.7-1.4-6.5-2.8-1.8-1.4-3.2-3.5-4.3-6-1-2.6-1.6-5.7-1.6-9.5 0-5.1.8-10 2.4-14.6 1.6-4.6 3.7-8.7 6.4-12.3 2.7-3.6 5.9-6.6 9.4-8.9s7.3-3.9 11.3-4.6c4.8-.8 8.5-.3 11.1 1.8 2.6 2 3.9 5.1 3.9 9 0 3.7-.9 7-2.7 9.8-1.8 2.9-4.1 5.4-7 7.5-2.9 2.1-6.1 3.8-9.5 5.2-3.5 1.3-6.9 2.3-10.3 2.9-.8.1-1.7.3-2.7.5-1 .2-1.9.3-2.7.4v1.5c0 4.8 1.1 8.1 3.4 10.1s5.2 2.7 8.8 2c3-.5 5.7-1.6 8.2-3.3 2.5-1.7 4.6-3.9 6.6-6.6l1.5.8c.8.4 1.4.9 1.8 1.4.4.5.6 1.2.6 2.1-.1 1.1-.8 2.5-2.1 4.1zm-24.5-19.5c3.1-.5 5.9-1.3 8.5-2.4 2.6-1.1 4.9-2.3 6.8-3.8 1.9-1.4 3.4-3.1 4.5-4.8 1.1-1.8 1.6-3.6 1.6-5.6 0-1.8-.5-3.2-1.4-4.3-1-1.1-2.7-1.4-5.2-1-2.3.4-4.4 1.3-6.4 2.6s-3.7 3-5.3 5c-1.6 2-2.9 4.3-4 6.8s-1.9 5.2-2.4 8.1c.6 0 1.2-.1 1.8-.2s1-.3 1.5-.4z"/></svg>