<svg xmlns="http://www.w3.org/2000/svg" viewBox="-150 180.6 297.1 241.4"><path fill="#FFF" d="M-91.2 371.4l8.2-50.6c.2-1.6.5-3.3.7-5.2.2-1.9.4-3.6.4-5.3 0-3.6-.9-6.4-2.7-8.6-1.8-2.2-4.8-2.9-9.1-2.1-2.6.5-5.2 1.3-7.8 2.6-2.6 1.3-5.1 3-7.4 5.2-2.3 2.2-4.3 4.8-5.9 7.7-1.7 3-2.8 6.3-3.4 10.1l-8.5 52.4-15.1 2.7 13.8-86c1.2-.4 2.2-.8 3.2-.9 6.3-1.1 9.4 1.4 9.4 7.6v2c3.1-4.1 6.9-7.7 11.4-11 4.5-3.2 9.6-5.3 15.3-6.3 4-.7 7.4-.7 10.2.2 2.8.8 5.1 2.2 6.8 4 1.8 1.9 3 4.2 3.8 6.9.8 2.7 1.2 5.6 1.2 8.7 0 2.1-.1 4.3-.4 6.5-.2 2.2-.5 4.3-.9 6.4l-8.2 50.6-15 2.4zm71.8-10c-5.6 1-10.2.8-14-.5-3.8-1.3-6.9-3.3-9.2-6.1-2.4-2.8-4.1-6.1-5.1-9.9-1.1-3.8-1.6-7.9-1.6-12.1 0-6.7 1-13.5 2.9-20.4 2-6.9 4.8-13.1 8.5-18.9 3.7-5.7 8.3-10.6 13.8-14.7 5.5-4 11.8-6.7 18.9-7.9 5.4-1 10.1-.8 13.8.5 3.8 1.3 6.9 3.3 9.2 6.1 2.4 2.8 4.1 6.1 5.1 9.9 1.1 3.8 1.6 7.9 1.6 12.1 0 6.7-.9 13.5-2.8 20.3-1.8 6.8-4.6 13-8.3 18.8-3.7 5.7-8.3 10.7-13.8 14.8-5.2 4-11.7 6.7-19 8zm-14.7-31.1c0 3 .3 5.7.9 8.3.6 2.6 1.6 4.7 2.9 6.4 1.4 1.7 3 3 5.1 3.8 2 .8 4.4 1 7.3.5 4-.7 7.7-2.5 11.1-5.2 3.4-2.8 6.2-6.3 8.6-10.5 2.4-4.2 4.2-9 5.6-14.4 1.4-5.4 2-11.1 2-17.1 0-3-.3-5.7-1-8.3-.7-2.5-1.6-4.7-2.9-6.4-1.3-1.7-3-3-5.1-3.8-2.1-.8-4.5-1-7.4-.5-4 .7-7.7 2.4-11 5.2-3.3 2.8-6.2 6.3-8.6 10.5-2.4 4.2-4.3 9-5.6 14.4-1.3 5.4-1.9 11.1-1.9 17.1zm143.3 6.4l-13.7 2.4-7.8-41.4-22.5 46.7-13.2 2.3-13-80.6c2.5-1.5 4.9-2.5 7.1-2.8 2.8-.5 4.9 0 6.3 1.6 1.4 1.5 2.3 3.8 2.8 6.8l7.6 56 21.7-45-4.6-23.9c2.2-1.3 4.4-2.2 6.6-2.6 3-.5 5.1 0 6.5 1.6 1.4 1.6 2.3 3.8 2.8 6.7l9.1 55.2 23.1-59.8c1.5-4.1 3.3-7.1 5.2-9.3 2-2.1 4.5-3.4 7.5-4 1.4-.2 2.6-.3 3.6-.2 1 .1 2 .4 2.9.8l-38 89.5z"/></svg>