<svg xmlns="http://www.w3.org/2000/svg" width="164.7" height="162.1" viewBox="0 0 164.7 162.1"><path fill="#FFF" d="M10.5 47h138.8v100.6H10.5z"/><path fill="none" stroke="#00A78E" stroke-width="5.739" stroke-miterlimit="10" d="M10.5 47h138.8v100.6H10.5z"/><path fill="#00A78E" d="M37.5 40.1c-2.3 0-4.2-1.9-4.2-4.2V7c0-2.3 1.9-4.2 4.2-4.2h5.7c2.3 0 4.2 1.9 4.2 4.2v29c0 2.3-1.9 4.2-4.2 4.2h-5.7z"/><path fill="#FFF" d="M43.2 5.7c.7 0 1.3.6 1.3 1.3v29c0 .7-.6 1.3-1.3 1.3h-5.7c-.7 0-1.3-.6-1.3-1.3V7c0-.7.6-1.3 1.3-1.3h5.7m0-5.7h-5.7c-3.9 0-7 3.2-7 7v29c0 3.9 3.2 7 7 7h5.7c3.9 0 7-3.2 7-7V7c.1-3.8-3.1-7-7-7"/><path fill="#00A78E" d="M114.4 40.1c-2.3 0-4.2-1.9-4.2-4.2V7c0-2.3 1.9-4.2 4.2-4.2h5.7c2.3 0 4.2 1.9 4.2 4.2v29c0 2.3-1.9 4.2-4.2 4.2h-5.7z"/><path fill="#FFF" d="M120.2 5.7c.7 0 1.3.6 1.3 1.3v29c0 .7-.6 1.3-1.3 1.3h-5.7c-.7 0-1.3-.6-1.3-1.3V7c0-.7.6-1.3 1.3-1.3h5.7m0-5.7h-5.7c-3.9 0-7 3.2-7 7v29c0 3.9 3.2 7 7 7h5.7c3.9 0 7-3.2 7-7V7c0-3.8-3.1-7-7-7"/><path fill="#00A78E" d="M21.7 159.2c-10.4 0-18.8-8.4-18.8-18.8V29.7c0-10.4 8.4-18.8 18.8-18.8h12.4v25c0 1.9 1.5 3.4 3.4 3.4h5.7c1.9 0 3.4-1.5 3.4-3.4v-25H111v25c0 1.9 1.5 3.4 3.4 3.4h5.7c1.9 0 3.4-1.5 3.4-3.4v-25H143c10.4 0 18.8 8.4 18.8 18.8v110.7c0 10.4-8.4 18.8-18.8 18.8H21.7zM34.5 58.8c-7.2 0-13.1 5.9-13.1 13.1v54.8c0 7.2 5.9 13.1 13.1 13.1h95.8c7.2 0 13.1-5.9 13.1-13.1V71.9c0-7.2-5.9-13.1-13.1-13.1H34.5z"/><path fill="#FFF" d="M143 13.8c8.8 0 16 7.2 16 15.9v110.7c0 8.8-7.2 15.9-16 15.9H21.7c-8.8 0-15.9-7.2-15.9-15.9V29.7c0-8.8 7.2-15.9 15.9-15.9h9.5V36c0 3.5 2.8 6.3 6.3 6.3h5.7c3.5 0 6.3-2.8 6.3-6.3V13.8h58.7V36c0 3.5 2.8 6.3 6.3 6.3h5.7c3.5 0 6.3-2.8 6.3-6.3V13.8H143M34.5 142.7h95.8c8.8 0 15.9-7.2 15.9-15.9V71.9c0-8.8-7.2-15.9-15.9-15.9H34.5c-8.8 0-15.9 7.2-15.9 15.9v54.8c-.1 8.8 7.1 16 15.9 16M143 8h-22.3v28c0 .3-.2.5-.5.5h-5.7c-.3 0-.5-.2-.5-.5V8H43.8v28c0 .3-.2.5-.5.5h-5.7c-.3 0-.5-.2-.5-.5V8H21.9C9.7 8 0 17.8 0 29.7v110.7c0 12 9.7 21.7 21.7 21.7H143c12 0 21.7-9.7 21.7-21.7V29.7C164.7 17.8 155 8 143 8M34.5 136.9c-5.6 0-10.2-4.6-10.2-10.2V71.9c0-5.6 4.6-10.2 10.2-10.2h95.8c5.6 0 10.2 4.6 10.2 10.2v54.8c0 5.6-4.6 10.2-10.2 10.2H34.5z"/></svg>