<svg xmlns="http://www.w3.org/2000/svg" width="183.4" height="180.4" viewBox="0 0 183.4 180.4"><path fill="#FFF" stroke="#00A78E" stroke-width="5.739" stroke-miterlimit="10" d="M166.1 164.9H11.9c-.4 0-.8-.4-.8-.8V52.8c0-.4.4-.8.8-.8H166c.4 0 .8.4.8.8V164c.1.5-.3.9-.7.9z"/><path fill="#00A78E" d="M41.3 44c-2.4 0-4.3-2-4.3-4.4V7.2c0-2.4 1.9-4.3 4.3-4.3h6.4c2.4 0 4.3 1.9 4.3 4.3v32.4c0 2.4-1.9 4.3-4.3 4.3h-6.4z"/><path fill="#FFF" d="M47.8 5.7c.8 0 1.5.7 1.5 1.5v32.4c0 .8-.7 1.5-1.5 1.5h-6.4c-.8 0-1.5-.7-1.5-1.5V7.2c0-.8.7-1.5 1.5-1.5h6.4m0-5.7h-6.4c-4 0-7.2 3.2-7.2 7.2v32.4c0 4 3.2 7.2 7.2 7.2h6.4c4 0 7.2-3.2 7.2-7.2V7.2c0-4-3.2-7.2-7.2-7.2z"/><path fill="#00A78E" d="M127.7 44c-2.4 0-4.3-1.9-4.3-4.3V7.2c0-2.4 1.9-4.3 4.3-4.3h6.4c2.4 0 4.3 1.9 4.3 4.3v32.4c0 2.4-1.9 4.3-4.3 4.3h-6.4z"/><path fill="#FFF" d="M134.1 5.7c.8 0 1.5.7 1.5 1.5v32.4c0 .8-.7 1.5-1.5 1.5h-6.4c-.8 0-1.5-.7-1.5-1.5V7.2c0-.8.7-1.5 1.5-1.5h6.4m0-5.7h-6.4c-4 0-7.2 3.2-7.2 7.2v32.4c0 4 3.2 7.2 7.2 7.2h6.4c4 0 7.2-3.2 7.2-7.2V7.2c0-4-3.2-7.2-7.2-7.2z"/><path fill="#00A78E" d="M23.6 177.6c-11.4 0-20.8-9.3-20.8-20.8V32.7c0-11.4 9.3-20.8 20.8-20.8h13.5v27.7c0 2.3 1.9 4.2 4.2 4.2h6.4c2.3 0 4.2-1.9 4.2-4.2V11.9h71.6v27.7c0 2.3 1.9 4.2 4.2 4.2h6.4c2.3 0 4.2-1.9 4.2-4.2V11.9h21.5c11.4 0 20.8 9.3 20.8 20.8v124.2c0 11.4-9.3 20.8-20.8 20.8H23.6zm7.7-120.7c-4.6 0-8.3 3.7-8.3 8.3v82.9c0 4.6 3.7 8.3 8.3 8.3h120.9c4.6 0 8.3-3.7 8.3-8.3V65.2c0-4.6-3.7-8.3-8.3-8.3H31.3z"/><path fill="#FFF" d="M159.8 14.8c9.8 0 17.9 8.1 17.9 17.9v124.2c0 9.8-8.1 17.9-17.9 17.9H23.6c-9.8 0-17.9-8.1-17.9-17.9V32.7c0-9.8 8.1-17.9 17.9-17.9h10.7v24.9c0 3.9 3.2 7 7 7h6.4c3.9 0 7-3.2 7-7V14.8h65.9v24.9c0 3.9 3.2 7 7 7h6.4c3.9 0 7-3.2 7-7V14.8h18.8M31.3 159.4h120.9c6.2 0 11.2-5 11.2-11.2v-83c0-6.2-5-11.2-11.2-11.2H31.3c-6.2 0-11.2 5-11.2 11.2v82.9c0 6.2 5 11.3 11.2 11.3M159.8 9h-24.3v30.6c0 .7-.6 1.3-1.3 1.3h-6.4c-.7 0-1.3-.6-1.3-1.3V9H49.1v30.6c0 .7-.6 1.3-1.3 1.3h-6.4c-.7 0-1.3-.6-1.3-1.3V9H23.6C10.6 9 0 19.6 0 32.7v124.2c0 13 10.6 23.6 23.6 23.6h136.2c13 0 23.6-10.6 23.6-23.6V32.7c0-13.1-10.6-23.7-23.6-23.7zM31.3 153.6c-3 0-5.5-2.5-5.5-5.5V65.2c0-3 2.5-5.5 5.5-5.5h120.9c3 0 5.5 2.5 5.5 5.5v82.9c0 3-2.5 5.5-5.5 5.5H31.3z"/><path fill="#00A78E" d="M41.2 86.4h10v10h-10z"/><path fill="#ED1C24" d="M55.9 86.4h10v10h-10z"/><path fill="#00A78E" d="M70.5 86.4h10v10h-10zm14.7 0h10v10h-10zm14.7 0h10v10h-10zm14.7 0h10v10h-10zm14.7 0h10v10h-10zm-88.1 13h10v10h-10zm14.7 0h10v10h-10zm14.6 0h10v10h-10zm14.7 0h10v10h-10zm14.7 0h10v10h-10zm14.7 0h10v10h-10zm14.7 0h10v10h-10zm-88.1 13h10v10h-10zm14.7 0h10v10h-10zm14.6 0h10v10h-10zm14.7 0h10v10h-10zm14.7 0h10v10h-10zm14.7 0h10v10h-10zm14.7 0h10v10h-10zm-88.1 12.9h10v10h-10zm14.7 0h10v10h-10zm14.6 0h10v10h-10zm14.7 0h10v10h-10zm14.7 0h10v10h-10zm14.7 0h10v10h-10zm14.7 0h10v10h-10zm-88.1 13h10v10h-10zm14.7 0h10v10h-10z"/><path fill="none" d="M30.6 60.8h120.5v22.4H30.6z"/><text transform="translate(39.667 78.555)" fill="#00A78E" font-family="'Foco'" font-weight="400" font-size="25" letter-spacing="1">Premium</text></svg>