<svg xmlns="http://www.w3.org/2000/svg" width="890.1" height="248.4" viewBox="0 0 890.1 248.4">
  <g fill="none" stroke="#FFF" stroke-width="5" stroke-linecap="round" stroke-miterlimit="10">
    <path d="M864.4 2.5v.1"/>
    <path stroke-dasharray="0.2642,21.134" d="M854.2 21.2l-35.8 65.9"/>
    <path d="M813.3 96.3l-.1.1"/>
  </g>
  <g fill="none" stroke="#FFF" stroke-width="5" stroke-linecap="round" stroke-miterlimit="10">
    <path d="M12.8 132.8v-.2"/>
    <path stroke-dasharray="0.2483,19.8672" d="M10.2 112.9l-6.4-50"/>
    <path d="M2.5 53.1V53"/>
  </g>
  <g fill="none" stroke="#FFF" stroke-width="5" stroke-linecap="round" stroke-miterlimit="10">
    <path d="M50.6 190.9l.1.1"/>
    <path stroke-dasharray="0.2487,19.8986" d="M67.6 201.4l43.1 26.3"/>
    <path d="M119.2 232.9l.1.1"/>
  </g>
  <g fill="none" stroke="#FFF" stroke-width="5" stroke-linecap="round" stroke-miterlimit="10">
    <path d="M298.9 122.3l-.1.1"/>
    <path stroke-dasharray="0.2438,19.5062" d="M286.2 137.2l-57.5 67.9"/>
    <path d="M222.4 212.6l-.1.1"/>
  </g>
  <g fill="none" stroke="#FFF" stroke-width="5" stroke-linecap="round" stroke-miterlimit="10">
    <path d="M427.8 94.8l.1.1"/>
    <path stroke-dasharray="0.2411,19.2873" d="M443 106.9l68.6 55.1"/>
    <path d="M519.1 168.1l.1.1"/>
  </g>
  <g fill="none" stroke="#FFF" stroke-width="5" stroke-linecap="round" stroke-miterlimit="10">
    <path d="M650.3 174.7h.1"/>
    <path stroke-dasharray="0.2776,22.2087" d="M672 169.5l54.8-13.3"/>
    <path d="M737.6 153.6h.1"/>
  </g>
  <g fill="none" stroke="#FFF" stroke-width="5" stroke-linecap="round" stroke-miterlimit="10">
    <path d="M823.1 178.1l.1.1"/>
    <path stroke-dasharray="0.2309,18.4759" d="M836 191.6l45.2 47.5"/>
    <path d="M887.6 245.8v.1"/>
  </g>
</svg>