<svg xmlns="http://www.w3.org/2000/svg" width="194.2" height="80.6" viewBox="0 0 194.2 80.6">
  <path d="M36.6 15.2c0 8.4-6.8 15.2-15.2 15.2S6.2 23.6 6.2 15.2C6.2 6.8 13 0 21.4 0s15.2 6.8 15.2 15.2m-36 28L14.5 76c2.6 6.1 11.3 6.1 13.9 0l13.9-32.8c2.1-5-1.5-10.5-6.9-10.5H7.5c-5.3 0-9 5.5-6.9 10.5m86.5-28c0 8.4-6.8 15.2-15.2 15.2s-15.2-6.8-15.2-15.2C56.6 6.8 63.4 0 71.9 0s15.2 6.8 15.2 15.2m-36 28L64.9 76c2.6 6.1 11.3 6.1 13.9 0l13.9-32.8c2.1-5-1.5-10.5-6.9-10.5H58c-5.4 0-9 5.5-6.9 10.5m86.4-28c0 8.4-6.8 15.2-15.2 15.2s-15.2-6.8-15.2-15.2c0-8.4 6.8-15.2 15.2-15.2s15.2 6.8 15.2 15.2m-36 28L115.4 76c2.6 6.1 11.3 6.1 13.9 0l13.9-32.8c2.1-5-1.5-10.5-6.9-10.5h-27.7c-5.5 0-9.2 5.5-7.1 10.5m86.5-28c0 8.4-6.8 15.2-15.2 15.2-8.4 0-15.2-6.8-15.2-15.2 0-8.4 6.8-15.2 15.2-15.2 8.4 0 15.2 6.8 15.2 15.2m-36 28L165.8 76c2.6 6.1 11.3 6.1 13.9 0l13.9-32.8c2.1-5-1.5-10.5-6.9-10.5H159c-5.5 0-9.1 5.5-7 10.5" fill="#00A78E"/>
</svg>