<svg xmlns="http://www.w3.org/2000/svg" width="429.5" height="163.4" viewBox="0 0 429.5 163.4">
  <g fill="#00A78E" stroke="#FFF" stroke-width="3" stroke-miterlimit="10">
    <path d="M226.3 1.9c-2.2.2-5.4.3-6.9.7 68.9 38.4 93.4 105.8 106.5 158.2 32.5-26.9 66.7-22.6 101.5-7.2C410 73.1 295.9-4.5 226.3 1.9m-18.1.3C139.1-1.5 33.2 56.4 3.6 144.7c-1.3 3.3-2.4 8.7-2 10.1 3.3-3.7 12.4-7.3 12.4-7.3 28.6-9.8 57.7-11.2 88.1 13C112 109.2 148.3 30.3 207.2 2"/>
    <path d="M215.4 159.3v-.1c4-2.9 20.7-14.8 43.3-16.8 24.1-2.2 42.7 2.8 63.7 16.9C311.2 107.9 283.8 36 215.8 3.5v-.1l-.9-.3c-.1 0-.1-.1-.2-.1l-2.2-.9-2.1.2c-62 26.3-99.2 106.4-106 157.7 33.7-24.2 68.7-24.2 105-.8l6 .1z"/>
  </g>
</svg>