<svg xmlns="http://www.w3.org/2000/svg" width="36.4" height="145.8" viewBox="0 0 36.4 145.8">
  <path fill="#FFF" stroke="#00AB9F" stroke-width="2.182" stroke-miterlimit="10" d="M27.4 144.7c1 0 1.9-.4 2.5-1l.8-.8.1-.5c.2-.8.7-2.3-.8-3.5l-4.2-2.9c-.6-.3-1-.8-1.2-1.2l-1.4-3.5c-.5-1.2-.3-2.5.4-3.6l.8-1.2 5.2 7.2 1.3 1.8h.5c1.6 0 2.7-.5 3.2-1.5.8-1.3.6-3.1-.6-5.8l-5-17.4c0-.2-.1-.3-.1-.5l-4.3-55.8c.4-3.1 1.3-7.3 2.6-12.6.1-.2.1-.4.1-.5 3.4-11.7 9-31.7 7.7-34.1-.2-.3-.5-.6-.8-.6L7.7 1.1h-.1c-1.3 0-2.6 0-4.7 23.6-1 11.2-1.7 22.6-1.7 22.7v.1l.2 9.2 12.3 51.7c0 .3-.1 2.5-.1 2.8l-2.7 12.2c-.1 1.1.7 4.5 1.3 5.3l7.3 11.1c.3.5.9.9 1.5 1.1l4.4 3.2c.5.4 1.2.6 2 .6z"/>
</svg>