<svg xmlns="http://www.w3.org/2000/svg" width="62.5" height="142.7" viewBox="0 0 62.5 142.7">
  <path fill="#FFF" stroke="#00AB9F" stroke-width="2.182" stroke-miterlimit="10" d="M8.8 141.3c.9.4 1.9.5 2.8.2l1-.4.3-.4c.5-.6 1.6-1.8.7-3.5l-2.7-4.5c-.4-.6-.6-1.1-.6-1.6l.1-3.8c0-1.3.7-2.4 1.8-3.1l1.2-.7 1.9 8.9.5 2.2.5.2c1.5.7 2.7.7 3.6.1 1.2-.8 1.8-2.6 1.8-5.6l2.4-18c0-.2.1-.3.1-.5l18.7-52.5C44.6 55.7 48 48 50.1 43c.1-.2.2-.4.2-.5C55.6 31.4 62.6 9.7 61.2 7.3c-.2-.3-.5-.5-.8-.6L33.2 1.1H33c-1.3 0 .5-2.1-5.1 21-2.6 10.9-5 22-5 22.1v.1l-2.4 5.5-9.6 52.4c-.1.3-1.1 2.2-1.3 2.5l-7.5 9.9c-.6.9-1.1 4.4-1 5.4l2.2 13.3c.1.6.4 1.2 1 1.6l2.8 4.8c.4.7 1 1.2 1.7 1.6z"/>
</svg>