<svg xmlns="http://www.w3.org/2000/svg" width="126.4" height="89.8" viewBox="0 0 126.4 89.8">
  <path fill="#FFF" stroke="#00AB9F" stroke-width="2.182" stroke-miterlimit="10" d="M2.7 4.7l.1.1H3L10.4 9l7.4 4.2h.2c.3.2 1.1.8 1.8 1.4.7.6 1.5 1.2 1.6 1.4L23 46.3l1.7 30.1c.1.1 1.8 1.6 3.7 3.4 1.9 1.7 4.1 3.7 5.1 4.6.2.2.4.3.6.4.2.1.5.2.7.2 20.1 2 43.5 3 61.5 3.4 18 .4 30.5.3 28.8.2l-8.3-14.8-8.3-14.8c-.1-.5-.4-1-.8-1.3-.4-.3-.9-.5-1.4-.6-4.7-.2-14.1.4-22.8 1.2-8.7.7-16.6 1.6-18.3 1.7h-.4c-.7 0-4.8.1-9.3.1-4.5 0-9.4-.3-11.7-1.2-.1-.1-.3-.1-.4-.2l-.3-.3-6.9-28.3-7-28.1-.4-.4c-.1-.1-.2-.3-.3-.4L15.6 2.9 2.7 4.7z"/>
</svg>