<svg xmlns="http://www.w3.org/2000/svg" width="124.6" height="97.4" viewBox="0 0 124.6 97.4">
  <path fill="#FFF" stroke="#00AB9F" stroke-width="2.182" stroke-miterlimit="10" d="M1.3 92.6c.3 1 1 1.8 1.9 2.2l1 .5h.5c.8 0 2.4-.1 2.9-2l1.2-5.1c.1-.7.4-1.2.7-1.6l2.8-2.6c.9-.9 2.2-1.2 3.5-.8l1.4.4-4.8 7.7-1.2 1.7.2.5c.6 1.6 1.4 2.5 2.5 2.7 1.5.3 3.1-.5 5.1-2.6l14.3-10.9c.1-.1.3-.2.5-.3l50-23.4c3-.7 12.6-10.3 16.2-14.3.2-.2.3-.3.3-.4 8.6-8.6 24.5-34.4 23.1-36.8-.2-.3-.5-.6-.9-.6L94.9 1.4h-.2c-1.3 0 3.6-3.8-9.3 15.9-6.1 9.4-12 19-12.1 19.1v.1l.1-.1L30 66.5c-.3.1-2.3.8-2.7.8l-12.2 1.5c-1 .2-3.9 2.3-4.4 3.1L3 82.9c-.4.5-.5 1.2-.5 1.9l-1.3 5.5c-.2.7-.1 1.5.1 2.3z"/>
</svg>