<svg xmlns="http://www.w3.org/2000/svg" width="39.7" height="159.7" viewBox="0 0 39.7 159.7">
  <path fill="#FFF" stroke="#00AB9F" stroke-width="2.182" stroke-miterlimit="10" d="M29.9 158.6c1.1 0 2.1-.4 2.8-1.1l.8-.8.2-.5c.3-.8.8-2.6-.9-3.8l-4.6-3.2c-.6-.4-1.1-.8-1.3-1.4l-1.6-3.9c-.5-1.3-.4-2.7.4-4l.9-1.3 5.7 7.9 1.4 2h.5c1.7 0 2.9-.5 3.6-1.6.8-1.4.6-3.4-.7-6.4l-5.5-19.1c-.1-.2-.1-.4-.1-.6l-4.7-61.2c.5-3.4 1.4-8.1 2.9-13.8.1-.2.1-.4.1-.5 3.8-12.9 9.9-34.8 8.4-37.4-.2-.4-.5-.6-.9-.7L8.4 1.1h-.2C6.8 1.1 5.3 1.1 3 27 1.9 39.3 1.1 51.7 1.1 51.8v.1L1.3 62l13.5 56.7c0 .4-.1 2.7-.1 3.1l-2.9 13.4c-.2 1.2.8 4.9 1.4 5.8l8 12.1c.4.6.9 1 1.6 1.2l4.9 3.5c.6.6 1.4.8 2.2.8z"/>
</svg>