<svg xmlns="http://www.w3.org/2000/svg" width="191.5" height="192.7" viewBox="0 0 191.5 192.7">
  <path fill="#FFF" d="M190.9 79.3l-36.3 8.4-4-17.2 4.2 42c.5 7.1.8 30.3-.8 51.3l-3.6 27.9H51.2l-3.6-32.8c-1.1-17.3.1-43 .7-49.6l3.2-57.8L22.4 60 2.2 11.6S13.8 18 37.6 9.3C70.1-2.6 70.8 1.9 70.8 1.9l33.4 5.4L136 4.7s29.5 7.4 42 34.4S190.4 79 190.4 79"/>
  <path fill="none" stroke="#00AB9F" stroke-width="2.182" stroke-miterlimit="10" d="M190.9 79.3l-36.3 8.4-4-17.2 4.2 42c.5 7.1.8 30.3-.8 51.3l-3.6 27.9H51.2l-3.6-32.8c-1.1-17.3.1-43 .7-49.6l3.2-57.8L22.4 60 2.2 11.6S13.8 18 37.6 9.3C70.1-2.6 70.8 1.9 70.8 1.9l33.4 5.4L136 4.7s29.5 7.4 42 34.4S190.4 79 190.4 79"/>
</svg>