<svg xmlns="http://www.w3.org/2000/svg" width="149.8" height="522.8" viewBox="0 0 149.8 522.8">
  <path fill="#FFF" d="M122.5 117.9s1.7-14.9 6.3-10.7c3.8 3.4 5.6 19.3 3.3 30.4-1 5-6.9 10.5-9.4 8.1-2.5-2.4-.2-27.8-.2-27.8m-99.2-2.6s-2.2-14.8-7.1-10.5c-5.1 4.5-4.6 23.6-2.9 30.5 1.2 4.9 7.8 10.4 10.4 7.9 2.7-2.5-.4-27.9-.4-27.9"/>
  <path fill="#FFF" d="M21 94.4c.1 5.2-3.4 47.1 11.2 65.4 8.3 10.4 19.9 20.5 26.7 22.1 11 2.6 18.1 4.5 27.8 2.4s23.9-12.2 32.7-31.7c4.2-9.3 15.5-82.3-5.5-103-13.8-13.5-44-11.8-55.7-11.3-11.7.5-37.7 4.7-37.2 56.1m15.2 428.4L30.7 365h82.2l-1.8 157.8H77.5V394.9c0-3.4-1.2-6.1-5-6.1s-5 2.7-5 6.1v127.9H36.2z"/>
  <path fill="#00A78E" d="M93.1 111.7c0 2.8 2.3 5.1 5.2 5.1 2.9 0 5.2-2.3 5.2-5.1s-2.3-5.1-5.2-5.1c-2.9 0-5.2 2.3-5.2 5.1"/>
  <path fill="#00A78E" d="M113.9 113c-.1 0-7.1-6.8-15.5-6.8-4.3 0-9 1.8-13.1 7.3l1.3 1.5c3.8-5 7.9-6.6 11.8-6.6 3.8 0 7.5 1.6 10.2 3.2 1.3.8 2.4 1.6 3.2 2.2.4.3.7.5.9.7l.3.3.9-1.8z"/>
  <path fill="#FFF" d="M97 111.6c0 1-.5 1.8-1.2 1.8s-1.2-.8-1.2-1.8.5-1.8 1.2-1.8c.6 0 1.2.8 1.2 1.8"/>
  <path fill="#00A78E" d="M57.9 111.7c0 2.8-2.3 5.1-5.2 5.1-2.9 0-5.2-2.3-5.2-5.1s2.3-5.1 5.2-5.1c2.9 0 5.2 2.3 5.2 5.1"/>
  <path fill="#00A78E" d="M38.2 114.8l.3-.3c1.4-1.2 7.5-6.1 14.2-6.1 3.9 0 8.1 1.6 11.8 6.6l1.3-1.5c-4.1-5.4-8.8-7.3-13.1-7.3-8.4 0-15.5 6.8-15.6 6.8l1.1 1.8z"/>
  <path fill="#FFF" d="M50.7 111.6c0 1-.5 1.8-1.2 1.8s-1.2-.8-1.2-1.8.5-1.8 1.2-1.8 1.2.8 1.2 1.8"/>
  <path fill="#00A78E" d="M61.7 84.2s6.6 5.9 1 6.9c-5.6 1.1-14.7-.9-18.7 0-4.1.9-12 4-12 4l-.5-3.3c.1 0 10.9-10.3 30.2-7.6m27.4-.6s-6.4 5.6-.8 6.9 14.6-.4 18.7.7 12.1 4.4 12.1 4.4l.4-3.3s-11.2-10.7-30.4-8.7M69.2 139s.4.1 1.1.2c.7.1 1.7.3 3 .4 1.2.1 2.6.3 4 .1.7-.1 1.3-.3 1.6-.6.1-.1.1-.2.2-.3v-.1.1-.1l.1-.3c.1-.4.1-.7.2-1.1.1-.8.1-1.6.1-2.3 0-.8 0-1.6-.1-2.3-.1-1.5-.2-3-.2-4.2-.1-2.5-.1-4.2-.1-4.2s.7 1.6 1.3 4c.3 1.2.6 2.7.8 4.2.1.8.2 1.6.2 2.4v2.6c-.1.5-.1 1-.3 1.4l-.1.3v.2l-.1.2c-.1.3-.3.5-.5.8-.4.4-.9.7-1.4.8-.5.1-.9.2-1.4.2-.9 0-1.7-.1-2.4-.2s-1.4-.3-2-.5c-1.2-.4-2.2-.8-2.8-1.1l-1.2-.6m-10.3 9.2s18.4 7.6 33.5 1.2c-2.1 4.4-22.2 15.4-33.5-1.2"/>
  <path fill="#FFF" d="M62.6 185.4s.4 14.2-6.3 18.1c-6 3.5-8.7 4.3-8.7 4.3s29.4 11.8 53 2.3c-12.7-3.4-11.8-7.8-11.8-7.8l-2.3-14.7-23.9-2.2z"/>
  <path fill="none" stroke="#00A78E" stroke-width="2" stroke-miterlimit="10" d="M62.6 185.4s.4 14.2-6.3 18.1c-6 3.5-8.7 4.3-8.7 4.3s29.4 11.8 53 2.3c-12.7-3.4-11.8-7.8-11.8-7.8l-2.3-14.7-23.9-2.2z"/>
  <path fill="#EF4135" d="M145.2 270.7l-29.5 6.8-3.2-13.9 3.4 34.1c.4 5.8.7 24.6-.7 41.6l-2.9 22.7H31.7l-3-26.6c-.9-14 .1-34.9.6-40.3l4.7-31.8-3.9 13.1-28.2-6.7s3-10.3 13.1-32.2c10.1-21.9 32.6-29.6 32.6-29.6l27.1 4.3 25.9-2.1s24 6 34.1 27.9c10.1 21.9 10.1 32.4 10.1 32.4"/>
  <path fill="none" stroke="#00A78E" stroke-width="2" stroke-miterlimit="10" d="M145.2 270.7l-29.5 6.8-3.2-13.9 3.4 34.1c.4 5.8.7 24.6-.7 41.6l-2.9 22.7H31.7l-3-26.6c-.9-14 .1-34.9.6-40.3l4.7-31.8-3.9 13.1-28.2-6.7s3-10.3 13.1-32.2c10.1-21.9 32.6-29.6 32.6-29.6l27.1 4.3 25.9-2.1s24 6 34.1 27.9c10.1 21.9 10.1 32.4 10.1 32.4"/>
  <path fill="#FFF" d="M26.1 376.7c1.1 2.4 1.5 4.8-1.5 4.7l-.8-1.2-5.1-7-1.4 1.9c-.9 1.1-1 2.5-.5 3.8.4 1 .9 2.1 1.2 2.9.2.6.7 1.1 1.3 1.4l3.5 2.4c.8.6.5 1.3.2 2l-.5.5c-.7.7-2 .8-2.9.2l-3.9-2.7c-.4-.1-.7-.3-.9-.6l-6-9.1c-.4-.5-1-3.1-.9-3.7l2.6-9.9c.1-.3.2-2.4.2-2.7L1 317.4V310s1.1-37.3 3.4-36.8l22.7 5c1.8.4-3.7 19.8-3.7 19.8-2.5 9.4-3.3 12.6-4 18.2l2.6 45.7c0 .2 0 .4.1.6l4 14.2z"/>
  <path fill="none" stroke="#00A78E" stroke-width="2" stroke-miterlimit="10" d="M26.1 376.7c1.1 2.4 1.5 4.8-1.5 4.7l-.8-1.2-5.1-7-1.4 1.9c-.9 1.1-1 2.5-.5 3.8.4 1 .9 2.1 1.2 2.9.2.6.7 1.1 1.3 1.4l3.5 2.4c.8.6.5 1.3.2 2l-.5.5c-.7.7-2 .8-2.9.2l-3.9-2.7c-.4-.1-.7-.3-.9-.6l-6-9.1c-.4-.5-1-3.1-.9-3.7l2.6-9.9c.1-.3.2-2.4.2-2.7L1 317.4V310s1.1-37.3 3.4-36.8l22.7 5c1.8.4-3.7 19.8-3.7 19.8-2.5 9.4-3.3 12.6-4 18.2l2.6 45.7c0 .2 0 .4.1.6l4 14.2z"/>
  <path fill="#FFF" d="M125.9 390.2c-.9 0-1.7-.3-2.3-.9l-.7-.6-.1-.4c-.2-.6-.6-2 .7-2.9l3.6-2.4c.5-.3.8-.6 1-1l1.2-2.9c.4-.9.3-2-.3-2.8l-.6-.9-5.6 7.3h-.5c-1.4 0-2.4-.4-2.9-1.3-.7-1.1-.5-2.6.5-4.9l4.3-14.2c0-.1.1-.3.1-.4l3.7-45.5c-.4-2.5-1.1-6-2.3-10.2 0-.2-.1-.3-.1-.4-3-9.6-7.8-26-6.6-27.9.2-.3.5-.5.8-.6l23-4.5h.1c1.2 0 2.3 0 4.2 19.4.9 9.1 1.5 18.4 1.5 18.5l-.2 7.6-10.7 42.2c0 .3.1 2 .1 2.3l2.3 9.9c.1 1-.6 3.8-1.1 4.5l-6.3 9c-.3.4-.8.8-1.3.9l-3.8 2.6c-.4.4-1.1.5-1.7.5"/>
  <path fill="#00A78E" d="M143 273.8c2.3 0 4.7 36.9 4.7 36.9l-.2 7.4-10.6 42.1c-.1.3 0 2.4.1 2.7l2.3 10c.1.6-.6 3.2-.9 3.7l-6.3 9c-.2.3-.6.5-.9.6l-4 2.7c-.4.3-.9.4-1.3.4-.6 0-1.2-.2-1.6-.6l-.5-.5c-.2-.7-.6-1.4.3-2l3.6-2.4c.6-.3 1.1-.8 1.3-1.4.3-.8.8-1.9 1.2-2.9.5-1.3.4-2.7-.4-3.8l-1.4-2-5.2 6.9-.9 1.1h-.1c-3 0-2.5-2.3-1.4-4.8l4.3-14.2c.1-.2.1-.4.1-.6l3.7-45.6c-.6-4.5-2.4-10.7-2.4-10.9 0 0-8.4-26.9-6.6-27.2l23.1-4.6c-.1 0 0 0 0 0m0-2h-.4l-22.8 4.5c-.6.1-1.1.5-1.5 1.1-.5.9-1.1 1.9 2.7 15.8 1.8 6.3 3.7 12.5 3.8 12.9 0 .1.1.2.1.4 1.1 4.2 1.9 7.5 2.2 10l-3.7 45.4v.2l-4.3 14.1c-.8 1.6-1.6 3.9-.5 5.7.5.8 1.5 1.7 3.7 1.7h1.1l.6-.8.9-1.1 3.6-4.7c.2.4.3 1 .1 1.6-.4 1-.9 2.1-1.2 2.9-.1.2-.2.3-.5.4h-.2l-3.6 2.4c-2 1.4-1.4 3.4-1.2 4.1l.1.2.2.5.4.4.5.5c.8.7 1.8 1.2 3 1.2.9 0 1.7-.2 2.4-.7l3.7-2.5c.7-.2 1.3-.7 1.7-1.3l6.3-9c.6-.9 1.5-3.9 1.3-5.1v-.2l-2.3-9.9c0-.4-.1-1.5-.1-2l10.6-41.9.1-.2v-.2l.2-7.4v-.2c0-.1-.6-9.4-1.5-18.5-.5-5.4-1-9.7-1.5-12.8-1.2-5.3-1.9-7.5-4-7.5"/>
  <path fill="#FFF" d="M70.1 522.6s-1.7-13.3-29-12.1c-27.2 1.2-29.3 10-30.4 12.3m139.1-.2s-1.7-13.3-29-12.1c-27.2 1.2-29.3 10-30.4 12.3M76.2 255.2l.2 2.9c-.3.1-1.4.3-2.8.3-2.9 0-4.4-1.2-4.4-4.1 0-2.3 0-4.8.1-6.2h-1.5v-2.2c2.2-.4 2.9-1.6 3.2-4.1h2.4c-.1 1-.2 2.5-.2 3.4H76v2.8h-2.6v5c0 1.9.4 2.5 1.7 2.5.4 0 .9-.1 1.1-.3m13.7-3.1v-2.5c0-3.3-1.4-4.7-5.5-4.7-2.3 0-3.9.4-6.4.4.1 2.3.1 5.1.1 6.9 0 1.8-.1 5-.1 6h4.3c-.1-1-.2-4-.2-6 0-1.1 0-2.5.1-4.4.4-.1 1-.3 1.6-.3 1.5 0 2 .7 2 2.7v2c0 1.8-.1 5-.1 6H90c-.1-1.1-.1-4.1-.1-6.1m-29.1.6h-1.7v.1c0 1.8 1.2 3 3.4 3 1.3 0 2.6-.4 3.5-.9l.2 2.9c-.9.4-2.6.7-4.3.7-4.5 0-6.7-1.6-7.1-5.8-.5 0-1.3-.1-2.4-.1 0 .7-.1 1.4-.1 1.9 0 1 0 2.6.2 3.6-2.5 0-4.4.3-6.4.3-3.7 0-5-1.5-5-4.2 0-2.5 2.1-3.9 6.6-3.9h.6v-.3c0-1.8-.6-2.6-2.4-2.6-1.3 0-2.7.5-3.6 1l-.2-2.9c1-.4 2.8-.7 4.7-.7 4 0 5.5 1.3 5.5 4.9v.6c1 0 1.7 0 2.3.1.4-3.6 2.2-5.5 6.6-5.5 3.7 0 5.4 1.5 5.4 3.9.3 2.6-1.8 3.9-5.8 3.9m-12.4 3c-.1-.9 0-2.1 0-3.2h-.5c-1.9 0-2.6.6-2.6 1.8 0 1.2.6 1.6 2 1.6.3 0 .8-.1 1.1-.2m12-5.2c1.7 0 2.6-.6 2.6-1.8 0-.9-.6-1.4-1.5-1.4-1.7 0-2.2 1.3-2.2 3.1v.1h1.1m42.5 7.6c-2.5 0-4.4.3-6.4.3-3.7 0-5-1.5-5-4.2 0-2.5 2.1-3.9 6.6-3.9h.6v-.3c0-1.8-.6-2.6-2.4-2.6-1.3 0-2.7.5-3.6 1l-.2-2.9c1-.4 2.8-.7 4.7-.7 4 0 5.5 1.3 5.5 4.9 0 1.9-.1 3.6-.1 4.8.2 1 .2 2.6.3 3.6m-4.1-2.4c-.1-.9 0-2.1 0-3.2h-.5c-1.9 0-2.6.6-2.6 1.8 0 1.2.6 1.6 2 1.6.2 0 .7-.1 1.1-.2m5.1-9.1c-.1-.1-.2-.2-.2-.4 0-.1-.1-.3-.1-.4s0-.3.1-.4c.1-.1.1-.3.2-.4.1-.1.2-.2.3-.2.1-.1.3-.1.5-.1s.3 0 .5.1c.1.1.2.1.3.2.1.1.2.2.2.4 0 .1.1.3.1.4s0 .3-.1.4c-.1.1-.1.3-.2.4-.1.1-.2.2-.3.2-.1.1-.3.1-.5.1s-.3 0-.5-.1c-.1 0-.3-.1-.3-.2m.4.1c.1.1.2.1.4.1s.3 0 .4-.1c.1-.1.2-.1.3-.2.1-.1.1-.2.2-.3 0-.1.1-.2.1-.4 0-.1 0-.2-.1-.4 0-.1-.1-.2-.2-.3-.1-.1-.2-.2-.3-.2-.1-.1-.2-.1-.4-.1s-.3 0-.4.1c-.1.1-.2.1-.3.2-.1.1-.1.2-.2.3 0 .1-.1.2-.1.4s0 .4.1.5c.2.2.3.3.5.4m0-1.6h.4c.2 0 .3 0 .4.1.1.1.1.2.1.3v.2s0 .1-.1.1l-.1.1h-.1l.3.6h-.3s-.1 0-.1-.1l-.3-.5h-.2v.5h-.2v-1.3zm.4.6c.2 0 .3-.1.3-.2s0-.1-.1-.2c0 0-.1-.1-.2-.1h-.2v.4h.2z"/>
  <path fill="#00A78E" d="M16.7 97.6S7.2 73 9.1 63.1s2.7-25 24.2-34.5C54.7 19 54 23.7 56.6 18.1c2.6-5.5 3.1 3.1 3.1 3.1l5.4-9.1s-.3 4.4 1.9 6.9c3.4 3.9 6.6-5.5 6.1-12.3 2.8 10.5 3.2 17.9 7.4 12.9 4.2-4.9 5.6-17.3 2.5-18.5C92.4 6.7 98.9 20 97 24c8-4.6 8-8.6 8-8.6l3.6 8s32.9 6.3 16.4 84.3c-1.4 6.8-3.1 14.7-3.1 14.7-6.1.4-.6-9.1.3-37.8 1.3-39.7-35.5-31-49.1-32.5-16.5-1.8-44.2-4-49.1 17.3-4.9 21.3-2.7 49.9-2.7 49.9l-4.5 4.6V97.6z"/>
  <path fill="none" stroke="#FFF" stroke-width="2.523" stroke-miterlimit="10" d="M16.7 97.6S7.2 73 9.1 63.1s2.7-25 24.2-34.5C54.7 19 54 23.7 56.6 18.1c2.6-5.5 3.1 3.1 3.1 3.1l5.4-9.1s-.3 4.4 1.9 6.9c3.4 3.9 6.6-5.5 6.1-12.3 2.8 10.5 3.2 17.9 7.4 12.9 4.2-4.9 5.6-17.3 2.5-18.5C92.4 6.7 98.9 20 97 24c8-4.6 8-8.6 8-8.6l3.6 8s32.9 6.3 16.4 84.3c-1.4 6.8-3.1 14.7-3.1 14.7-6.1.4-.6-9.1.3-37.8 1.3-39.7-35.5-31-49.1-32.5-16.5-1.8-44.2-4-49.1 17.3-4.9 21.3-2.7 49.9-2.7 49.9l-4.5 4.6V97.6z"/>
  <path fill="#00A78E" d="M127.8 103.5c-.5-.2-.9-.4-1.4-.5-10.2-3.5-20.7-5.3-31.5-4.8-4.6.2-9.2 1-13.5 2.9-1.4.6-2.8 1.3-2.8 3.2-1.6-.3-9.2-.3-10.9 0 0-1.8-1.4-2.5-2.8-3.2-4.3-1.9-8.8-2.7-13.5-2.9-10.8-.5-21.3 1.3-31.5 4.8-.5.2-.9.3-1.4.5-2 .9-2.7 2.3-2.3 4.4.1.3.6.7.9.7 2.3.1 1.9 0 2.9 1.6.4.7.8 1.3 1.6 1.7 2.7 1.2 3.5.9 4.3 4 .5 1.8 2.2 5.2 3.4 6.7 2.4 2.9 5.9 4.5 9.7 5 4.9.6 9.9.4 14.7-.8 4.5-1.1 7.5-4 9.6-8 1.4-2.7 2.3-5.6 2.5-8.7.2-2.9 2.6-4.5 5.5-4.6h3.6c2.9.1 5.3 1.6 5.5 4.6.2 3.1 1 6 2.5 8.7 2.1 4 5.1 6.9 9.6 8 4.8 1.2 9.8 1.4 14.7.8 3.8-.5 7.3-2 9.7-5 1.2-1.5 2.9-4.9 3.4-6.7.9-3.1 1.6-2.8 4.3-4 .8-.4 1.1-1 1.6-1.7.9-1.6.6-1.5 2.9-1.6.3 0 .8-.4.9-.7.5-2.2-.3-3.6-2.2-4.4M65.2 111c-.3 1.5-.5 3.1-1 4.6-2 5.6-5.5 9.7-11.6 10.9-4.6.9-9.3.7-13.9.3-5.9-.6-9.4-4.1-11.1-9.5-.6-1.9-1.2-4-1-5.9.7-7.8 9.6-10.1 16.4-10.7 6.1-.5 12-.1 17.7 2.3 3.1 1.3 5.3 3.7 4.5 8m53.7 6.3c-1.8 5.3-5.2 8.9-11.1 9.5-4.7.5-9.3.7-13.9-.3-6.1-1.2-9.6-5.3-11.6-10.9-.5-1.5-.7-3-1-4.6-.7-4.3 1.4-6.6 4.6-8 5.7-2.4 11.6-2.8 17.7-2.3 6.9.6 15.7 2.8 16.4 10.7.1 1.9-.4 4-1.1 5.9"/>
</svg>