<svg xmlns="http://www.w3.org/2000/svg" width="44.6" height="52.9" viewBox="0 0 44.6 52.9">
  <path fill="#FFF" d="M28.1 9.4c-1.5 5.7 0 11 3.3 11.8 3.3.8 7.1-3.1 8.6-8.8 1.5-5.7 0-11-3.3-11.8-3.3-.8-7.1 3.1-8.6 8.8"/>
  <ellipse transform="rotate(-165.6 34.045 10.936)" fill="none" stroke="#00AB9F" stroke-width="1.049" stroke-miterlimit="10" cx="34.1" cy="10.9" rx="6.1" ry="10.6"/>
  <path fill="#FFF" d="M41.9 45.1c.2 3-2.1 5.6-5.1 5.7L8.1 52.6c-3 .2-5.6-2.1-5.7-5.1-.2-3 2.1-5.6 5.1-5.7L36.2 40c3-.2 5.6 2.1 5.7 5.1"/>
  <path fill="none" stroke="#00AB9F" stroke-width=".636" stroke-miterlimit="10" d="M41.9 45.1c.2 3-2.1 5.6-5.1 5.7L8.1 52.6c-3 .2-5.6-2.1-5.7-5.1-.2-3 2.1-5.6 5.1-5.7L36.2 40c3-.2 5.6 2.1 5.7 5.1z"/>
  <path fill="#FFF" d="M44.3 33.4c.2 3.3-2.3 6.2-5.6 6.4L8 41.7c-3.3.2-6.2-2.3-6.4-5.6-.2-3.3 2.3-6.2 5.6-6.4l30.6-1.9c3.4-.2 6.3 2.3 6.5 5.6"/>
  <path fill="none" stroke="#00AB9F" stroke-width=".695" stroke-miterlimit="10" d="M44.3 33.4c.2 3.3-2.3 6.2-5.6 6.4L8 41.7c-3.3.2-6.2-2.3-6.4-5.6-.2-3.3 2.3-6.2 5.6-6.4l30.6-1.9c3.4-.2 6.3 2.3 6.5 5.6z"/>
  <path fill="#FFF" d="M39.8 22.3c.2 3-2.1 5.6-5.1 5.7l-28 1.7c-3 .2-5.6-2.1-5.7-5.1-.2-3 2.1-5.6 5.1-5.7l28-1.7c2.9-.2 5.5 2.1 5.7 5.1"/>
  <path fill="none" stroke="#00AB9F" stroke-width=".629" stroke-miterlimit="10" d="M39.8 22.3c.2 3-2.1 5.6-5.1 5.7l-28 1.7c-3 .2-5.6-2.1-5.7-5.1-.2-3 2.1-5.6 5.1-5.7l28-1.7c2.9-.2 5.5 2.1 5.7 5.1z"/>
  <path fill="#FFF" d="M32.6 12.1c.2 2.8-2 5.3-4.8 5.5L5.7 18.9c-2.8.2-5.3-2-5.5-4.8-.2-2.8 2-5.3 4.8-5.5l22.1-1.4c2.9-.1 5.4 2.1 5.5 4.9"/>
  <path fill="none" stroke="#00AB9F" stroke-width=".56" stroke-miterlimit="10" d="M32.6 12.1c.2 2.8-2 5.3-4.8 5.5L5.7 18.9c-2.8.2-5.3-2-5.5-4.8-.2-2.8 2-5.3 4.8-5.5l22.1-1.4c2.9-.1 5.4 2.1 5.5 4.9z"/>
  <path fill="#FFF" d="M29.9 42c-1.3.1-2.3 1.1-2.2 2.3l.2 3.5c.1 1.2 1.2 2.1 2.5 2 1-.1 2-.1 3-.2.9-.1 3-.2 3.2-.2 2-.1 3.6-2 3.4-4.1-.1-2.1-1.9-3.8-3.9-3.6-.2 0-.8 0-.9.1-1.7-.1-3.5 0-5.3.2"/>
  <path fill="none" stroke="#00AB9F" stroke-width=".779" stroke-miterlimit="10" d="M29.9 42c-1.3.1-2.3 1.1-2.2 2.3l.2 3.5c.1 1.2 1.2 2.1 2.5 2 1-.1 2-.1 3-.2.9-.1 3-.2 3.2-.2 2-.1 3.6-2 3.4-4.1-.1-2.1-1.9-3.8-3.9-3.6-.2 0-.8 0-.9.1-1.7-.1-3.5 0-5.3.2z"/>
  <path fill="#FFF" d="M32.2 29.9c-1.3.1-2.3 1.2-2.2 2.5l.2 3.9c.1 1.3 1.2 2.3 2.5 2.2 1-.1 2-.1 3-.2.9-.1 3-.2 3.2-.2 2-.1 3.5-2.1 3.4-4.5-.1-2.4-1.9-4.2-3.9-4.1-.2 0-.8 0-.9.1-1.8.1-3.6.2-5.3.3"/>
  <path fill="none" stroke="#00AB9F" stroke-width=".821" stroke-miterlimit="10" d="M32.2 29.9c-1.3.1-2.3 1.2-2.2 2.5l.2 3.9c.1 1.3 1.2 2.3 2.5 2.2 1-.1 2-.1 3-.2.9-.1 3-.2 3.2-.2 2-.1 3.5-2.1 3.4-4.5-.1-2.4-1.9-4.2-3.9-4.1-.2 0-.8 0-.9.1-1.8.1-3.6.2-5.3.3z"/>
  <path fill="#FFF" d="M28 19c-1.3.1-2.3 1.1-2.2 2.3l.2 3.5c.1 1.2 1.2 2 2.5 2 1-.1 2-.1 3-.2.9-.1 3-.2 3.2-.2 2-.1 3.6-1.9 3.4-4.1s-1.9-3.8-3.9-3.6c-.2 0-.8 0-.9.1-1.8 0-3.6.1-5.3.2"/>
  <path fill="none" stroke="#00AB9F" stroke-width=".778" stroke-miterlimit="10" d="M28 19c-1.3.1-2.3 1.1-2.2 2.3l.2 3.5c.1 1.2 1.2 2 2.5 2 1-.1 2-.1 3-.2.9-.1 3-.2 3.2-.2 2-.1 3.6-1.9 3.4-4.1-.1-2.1-1.9-3.8-3.9-3.6-.2 0-.8 0-.9.1-1.8 0-3.6.1-5.3.2z"/>
  <path fill="#FFF" d="M21.2 9.1c-1.2.1-2.1 1-2 2.1l.2 3.3c.1 1.1 1.1 2 2.3 1.9.9-.1 1.8-.1 2.8-.2.8 0 2.8-.2 3-.2 1.9-.1 3.3-1.8 3.2-3.9-.1-2-1.7-3.6-3.6-3.5-.2 0-.7 0-.8.1-1.9.2-3.5.3-5.1.4"/>
  <path fill="none" stroke="#00AB9F" stroke-width=".73" stroke-miterlimit="10" d="M21.2 9.1c-1.2.1-2.1 1-2 2.1l.2 3.3c.1 1.1 1.1 2 2.3 1.9.9-.1 1.8-.1 2.8-.2.8 0 2.8-.2 3-.2 1.9-.1 3.3-1.8 3.2-3.9-.1-2-1.7-3.6-3.6-3.5-.2 0-.7 0-.8.1-1.9.2-3.5.3-5.1.4z"/>
</svg>