<svg xmlns="http://www.w3.org/2000/svg" width="176.3" height="601.3" viewBox="0 0 176.3 601.3">
  <path fill="#FFF" d="M157.6 384h-11.5v-7.2h15.8"/>
  <path fill="none" stroke="#00AB9F" stroke-width="2.117" stroke-miterlimit="10" d="M157.6 384h-11.5v-7.2h15.8zM90.1 210.8v121.7"/>
  <path d="M86.4 221.3c0 1-.8 1.8-1.8 1.8s-1.8-.8-1.8-1.8.8-1.8 1.8-1.8c1-.1 1.8.8 1.8 1.8m0 20.9c0 1-.8 1.8-1.8 1.8s-1.8-.8-1.8-1.8.8-1.8 1.8-1.8 1.8.8 1.8 1.8m0 20.9c0 1-.8 1.8-1.8 1.8s-1.8-.8-1.8-1.8.8-1.8 1.8-1.8 1.8.8 1.8 1.8m0 21c0 1-.8 1.8-1.8 1.8s-1.8-.8-1.8-1.8.8-1.8 1.8-1.8c1-.1 1.8.8 1.8 1.8m0 20.9c0 1-.8 1.8-1.8 1.8s-1.8-.8-1.8-1.8.8-1.8 1.8-1.8 1.8.8 1.8 1.8m0 20.9c0 1-.8 1.8-1.8 1.8s-1.8-.8-1.8-1.8.8-1.8 1.8-1.8 1.8.8 1.8 1.8" fill="#00AB9F"/>
  <path fill="#FFF" d="M24.9 78.4C30.5 17.1 52.6 11.8 68.6 11c16-.8 57-3.3 75.8 16.7 14.2 15.1 13.7 18.1 7.8 63.7-3.1 24.1.6 33-23.7 58.2-24 24.9-22.8 21.6-49 21.6-6.3 0-18-7.5-33.9-22.4-24.6-22.9-20-44.9-20.7-52.5m129.6 287.4s6.2 13.4 5.6 16.2c-.6 2.8-5.3 13.5-9.7 17-4.3 3.5-11.7 5.5-9.8 2.6 1.9-2.8 2.2-1.6 5.8-5 3.9-3.7 4.8-5.6 4.2-9.8-.6-4.3 0-4-3.9-4.8-6.1-1.3-2.5 11.3-5 9.2-2.5-2.1-1.5-6.6-.9-12.7.6-5.7 2.9-9.2 6-10.6 3.1-1.4-9-71-9-71l-8.3-61.1c-1 22.3-5.5 21.2-6.1 28.2-1.6 19.2 6.1 49.7 4.2 50.1-3.4.7-76.1.9-78.7-.2-3-1.2 5.1-26.8 3.6-52.4-.4-6.7-6.2-9.2-5.3-28.8 0 0-26.6-33.3-19.8-41.1 6.8-7.8 27.7-8.6 27.7-8.6l35.2 2.5 35-2.5s21.5.8 28.3 8.6c6.8 7.8 4.6 108.9 4.6 108.9l-3.7 65.3z"/>
  <path fill="#FFF" d="M80.8 172.3s-3.5 6.6-7.6 13.5c-4 6.7-13.9 14.7-13.9 14.7s13.5 10.7 30.9 10.3c14.1-.3 20.6-1.5 32.1-10.3-13.2-2.9-15.4-10.1-17.5-15-3.1-7-4-12.8-2.7-13-14.2.2-21.3-.2-21.3-.2"/>
  <path fill="none" stroke="#00AB9F" stroke-width="2.188" stroke-miterlimit="10" d="M80.8 172.3s-3.5 6.6-7.6 13.5c-4 6.7-13.9 14.7-13.9 14.7s13.5 10.7 30.9 10.3c14.1-.3 20.6-1.5 32.1-10.3-13.2-2.9-15.4-10.1-17.5-15-3.1-7-4-12.8-2.7-13-14.2.2-21.3-.2-21.3-.2z"/>
  <path fill="#FFF" d="M77.2 600.8s-1-9.1-17-8.3c-15.9.8-17.2 6.8-17.8 8.4m21.9.4L56.4 475l-9.8-97.6c-1.9-21.3-1.8-24.8 0-31.3.8-2.9 2.8-10 2.8-10l77.3.1s2 7.8 2.6 9.2c2 5.4 5 16.4 1.8 32.8l-15.4 97.9-13.5 124.4h-12L95.6 457l-2.2-81.4c0-4.3-.6-5.2-3.6-5.2h-1.7c-3 0-3.9 1.6-3.9 5.8L79.6 458l-3.3 142.6-12 .7zm23.8-.5s1-9.1 17-8.3c15.9.8 17.2 6.8 17.8 8.4"/>
  <path fill="#00AB9F" d="M70.4 94c0 3.9-3.4 7-7.7 7-4.2 0-7.7-3.1-7.7-7s3.4-7 7.7-7c4.2 0 7.7 3.1 7.7 7"/>
  <path fill="#00AB9F" d="M76.2 94.2s-.6-.5-1.6-1.2-2.5-1.7-4.2-2.6c-.9-.5-1.9-.8-2.9-1.2-1-.3-2.1-.6-3.3-.7-1.1-.1-2.3-.2-3.4 0-1.2 0-2.3.5-3.5.9-1.1.5-2.3.9-3.3 1.7-1 .7-2 1.5-3 2.3-.9.7-2 1.9-3.2 2.5-.6.3-1.3.6-1.8.7-.6.2-1.2.3-1.7.3-2.1.2-3.9-.4-5-1-1.1-.7-1.6-1.3-1.6-1.3s.6.3 1.8.4c1.1.1 2.7 0 4.5-.6.4-.2.9-.4 1.3-.6.5-.3.9-.5 1.3-.9.9-.7 1.5-1.6 2.6-2.7 1-1 2.1-2.2 3.3-3 1.2-1 2.5-1.6 3.9-2.2 1.4-.4 2.8-.9 4.2-.9 1.4-.2 2.8.1 4.1.4.6.2 1.3.4 1.9.6.6.3 1.2.6 1.7.9 1.1.6 2.1 1.3 2.9 2.1.9.7 1.6 1.5 2.2 2.2.6.7 1.1 1.4 1.5 2 1 1.2 1.3 1.9 1.3 1.9"/>
  <path fill="#00AB9F" d="M60.1 91.4c0 1.4-.7 2.6-1.6 2.6-.9 0-1.6-1.2-1.6-2.6 0-1.4.7-2.6 1.6-2.6.9.1 1.6 1.2 1.6 2.6m19.4-23.2s4.3 4.5-7.2 5.8c-11.5 1.3-21.1-7.9-26.4-1.2-5.2 6.7-14.3 9.3-6.8 2.7 7.5-6.6 5.8-10.6 17.6-9.9 11.8.7 22 .6 22.8 2.6M98.7 71s-3.5 5.5 8.1 3.9 19.4-13 25.7-7.7c6.3 5.2 15.7 5.5 7.2.9s-7.5-8.9-19-5.2c-11.5 3.6-21.5 6-22 8.1"/>
  <path fill="#FFF" d="M89.7 106.1s4.1 12.1 7.6 16c13.1 14.2-22.8 12.1-13.7 6.9"/>
  <path fill="#00AB9F" d="M89.7 106.1s1.3 2.7 3.3 6.7c.5 1 1 2.1 1.6 3.2.6 1.1 1.2 2.3 2 3.4.2.3.4.6.6.8.2.3.4.5.6.8.4.5 1 1.1 1.4 1.7.9 1.2 1.9 2.7 2 4.6.1.9-.1 1.9-.7 2.8-.5.8-1.2 1.4-1.9 1.8-1.4.9-2.9 1.3-4.4 1.5-2.9.5-5.6.3-7.9-.1-1.1-.2-2.2-.5-3-.9-.4-.2-.8-.5-1.1-.8-.3-.3-.5-.9-.3-1.2.3-.7.9-.9 1.1-1.1.3-.2.5-.2.5-.2s-.2.1-.4.3c-.2.2-.7.6-.8 1.1-.1.5.5 1 1.3 1.2.8.3 1.8.4 2.9.5 2.2.2 4.8.1 7.4-.5 1.3-.3 2.6-.7 3.7-1.4s1.7-1.7 1.6-2.8c-.1-1.1-.8-2.4-1.6-3.4-.4-.6-.8-1-1.4-1.7-.3-.3-.5-.6-.7-.9l-.6-.9c-.7-1.3-1.3-2.5-1.9-3.7-.5-1.2-1-2.3-1.3-3.4-1.5-4.4-2-7.4-2-7.4m-18.2 36.8s23.6 11.6 37.4-7.2c-10 32-40.2 5-37.4 7.2M109 93.3c0 3.9 3.4 7 7.7 7 4.2 0 7.7-3.1 7.7-7s-3.4-7-7.7-7c-4.3.1-7.7 3.2-7.7 7"/>
  <path fill="#00AB9F" d="M102.6 93.6s.6-.5 1.6-1.2 2.5-1.7 4.3-2.6c.9-.5 1.9-.8 2.9-1.2 1-.3 2.1-.6 3.3-.7 1.1-.1 2.3-.2 3.5 0 1.2 0 2.3.5 3.5.9 1.1.5 2.3.9 3.3 1.7 1.1.6 2.1 1.5 3.1 2.3.9.7 2.1 1.9 3.3 2.5.6.3 1.3.6 1.8.7.6.2 1.2.3 1.7.3 2.2.2 3.9-.4 5-1 1.1-.7 1.6-1.3 1.6-1.3s-.6.3-1.8.4c-1.1.1-2.7 0-4.5-.6-.4-.2-.9-.4-1.3-.6-.5-.3-.9-.5-1.3-.9-.9-.7-1.5-1.6-2.6-2.7-1-1-2.1-2.2-3.4-3-1.2-1-2.6-1.6-3.9-2.2-1.4-.4-2.8-.9-4.3-.9-1.4-.2-2.8.1-4.2.4-.7.2-1.3.4-1.9.6l-1.8.9c-1.1.6-2.1 1.3-3 2.1-.9.7-1.6 1.5-2.2 2.2-.6.7-1.1 1.4-1.5 2-.9 1.1-1.2 1.9-1.2 1.9m8.9-2.2c0 1.4.7 2.6 1.6 2.6.9 0 1.6-1.2 1.6-2.6 0-1.4-.7-2.6-1.6-2.6-.9 0-1.6 1.2-1.6 2.6M95.9 222.1h37.7v14.1H95.9z"/>
  <path fill="#00AB9F" d="M56.8 30.9C61 45.7 59.3 59 51.7 72.3c-4.7 8.2-12 14.8-16.3 23.1-4.3 8.3-4.8 20 2.6 25.7.1.1 0 .2-.1.2-3.1-.2-5.7 3-5.8 6.1-.2 3.2 1.5 6.3 3.2 9 4.7 7.7 11.3 15.6 20.2 16.2-13.2 8.1-32.6 3.3-40.6-9.9-2.2-3.7-3.6-7.9-4.9-12.1-7-22.7-11.3-46.8-6.5-69.9C8.3 37.5 23.8 15.5 46.2 8.1c4.4-1.5-.4 5.7 3.8 9.2.3.3 10.4-7.5 10.6-7.1 3.8 6.8-4.1 10-4.9 15.6-.2 1.7.3 3.5 1.1 5.1 3.9 8 13.1 11.7 21.7 14 9.6 2.5 19.4 4.1 29.3 4.6 3.9.2 7.8.3 11.4 1.9 2.3 1 4.3 2.7 6.2 4.4 10.5 9.6 18.3 22.8 19.1 37 .9 14.6-6.7 29.9-20.1 35.8l15.9 1.4c-1.7 7.8-6.4 15-12.9 19.7-3 2.2-6.4 4-8.5 7-2.1 3.1-1.9 8.1 1.4 9.7 1.1.5 2.8 1 2.8 2.2 0 .6-.4 1.2-.9 1.6l-7.8 8.7c23.4 1.4 46.8-14.3 54.4-36.4 2-5.9 3-12.2 3.7-18.4 1.7-15.1 1.9-30.3 2-45.5.1-7 .1-14-1.6-20.8-2.8-10.8-9.9-19.9-16.8-28.5-2.7-3.4-5.6-6.7-8.7-9.7-5.8-5.8-12.4-11.4-20.4-14-4.3-1.4-8.7-1.8-13.2-2.2-17.4-1.5-35-2.1-52.6-1.8-4.9.1-12.4 2.2-15 6.4"/>
  <path fill="#FFF" d="M55.3 31.3c2.6 9.8 3 19.7-.1 29.4-3.2 9.9-9.4 17.4-15.6 25.5-4.3 5.7-8 11.7-8.8 19-.3 3.2-.1 6.5.9 9.6.3.9 4 7.7 4.6 6.1.5-.4 1-.7 1.4-1.1-10.2.8-7.1 12.3-3.5 18 4.9 7.9 11.4 15.2 21.1 16.3-.3-.9-.5-1.9-.8-2.8-11.2 6.4-26.3 4.3-35.2-5.2-5.3-5.6-7.3-13.3-9.4-20.5-2.3-8.1-4.3-16.3-5.6-24.7-4.2-29.2 1-61.9 25-81.7 2.7-2.2 5.5-4.1 8.5-5.8 1.2-.7 8.2-4.7 9-3.9.5.5-.2 4.3.1 5.3.3 1.2 1.3 3.6 2.7 3.9 2.1.5 5.4-2.9 6.9-4 1-.7 2.7-2.5 3.9-2.8l.6-.4c-.6-.5-1 3.3-1.2 3.7-.6 1.4-1.4 2.5-2.2 3.7-2.9 4.1-4.5 7.5-2.2 12.5 2.3 4.9 6.8 8.5 11.6 10.9 12.5 6.3 27.9 7.9 41.7 8.7 5 .3 9.4.8 13.5 4 3.3 2.5 6.1 5.6 8.7 8.8 5.5 6.7 9.7 14.6 11.4 23.2 3.2 15.8-3.5 33.3-18.6 40.4-1.5.7-.6 2.7.8 2.8 4.9.4 9.8 1.2 14.7 1.3.1 0 .9 0 1.1.1-1.7-1.1-1.5.1-2.1 1.1-1.5 2.3-2.1 5.4-3.7 7.8-3.5 5.3-8.3 8.1-13.1 11.9-5 4-7.5 10.5-2.2 15.2 1.1 1 2 .8 1.7 2.3-.2.8-2 2.2-2.5 2.8-1.6 1.8-3.3 3.6-4.9 5.4-.9 1-.3 2.5 1.1 2.6 17.7.8 35.1-7.2 46.4-20.8 14-16.9 14.3-40.4 14.9-61.3.3-11.6 1.3-23.9-.3-35.4-1.5-10.8-6.9-20-13.4-28.6-6.3-8.3-13-16.4-21.2-22.8-8.2-6.4-16.8-8.8-26.9-9.7C99.6.6 85.3 0 70.9 0c-8.7 0-20.3-.8-26 7.3-1.1 1.6 1.5 3.1 2.6 1.5C53.2.8 67.5 3 75.8 3c10.4.1 20.8.5 31.2 1.3 10.6.8 20.6 1.6 29.6 7.8 8 5.6 14.5 13.2 20.5 20.8 6.2 7.9 12.2 16.3 14.6 26.2 2.4 10.4 1.4 21.8 1.2 32.4-.2 10.9-.6 21.8-1.9 32.7-1.1 9.8-3.1 19.5-8.4 28-10.2 16.3-29 26.3-48.2 25.4.4.9.7 1.7 1.1 2.6 1.8-2 3.7-4.1 5.5-6.1 1.2-1.3 3.7-3.3 3.6-5.3 0-1.2-.7-1.9-1.6-2.6-2.4-1.9-4.9-3.2-3.6-6.9 1.8-5.6 10.2-8.6 14.1-12.9 2.2-2.5 12-15.7 6.7-17.8-2.2-.8-5.6-.5-7.8-.7-2.6-.2-5.3-.5-7.9-.7.3.9.5 1.9.8 2.8 22.1-10.4 25.3-38.3 14.7-58.1-5.1-9.5-14-21.6-25.4-23.3-15-2.2-30.5-1.7-44.6-8.2-7.3-3.3-16.1-10.7-10.2-19 2.9-4 4.6-7.2 2.3-12-.2-.5-.8-.8-1.3-.7-3.9.1-6.5 5.9-10.2 6.6-.2 0-.6.6-.8.5.2 0 0-3.8 0-3.5 0-1.1.3-2.4.1-3.5-.4-1.6-1.1-2.3-2.8-2.4-2.8-.1-6.9 2.5-9.3 3.7-3.5 1.8-6.8 4-9.8 6.5-6.6 5.1-11.8 11.4-16 18.3C2.3 51-.9 69.8.2 88.4c.6 10.4 2.5 20.7 5 30.8 2.2 8.8 4.3 18.9 9.8 26.3 9.3 12.6 27.8 16.1 41.2 8.4 1.4-.8.6-2.6-.8-2.8-6-.6-10.6-4.3-14.3-8.8-1.7-2.1-3.2-4.3-4.6-6.6-1.9-3.2-6.2-12.3 1.3-12.9.7-.1 1.2-.4 1.4-1.1 0-.1 0-.1.1-.2.2-.5 0-1.1-.4-1.5-6.6-5.6-6.3-15.2-3-22.6 3.5-7.8 10-13.8 14.7-20.8 9.4-13.8 11.8-30 7.5-46.1-.4-1.9-3.3-1.1-2.8.8"/>
  <text transform="translate(97.365 234.143)" fill="#FFF" font-family="'Foco-Bold'" font-size="15">BOSS</text>
</svg>