<svg xmlns="http://www.w3.org/2000/svg" width="240.6" height="601.3" viewBox="0 0 240.6 601.3">
  <path fill="none" stroke="#00A78E" stroke-width="2" stroke-miterlimit="10" d="M194.3 203.6v30.5m7-30.5v30.5m7-30.5v30.5"/>
  <path fill="#00AB9F" d="M160.2 222.1h37.7v14.1h-37.7z"/>
  <path fill="#FFF" d="M89.2 78.4c5.6-61.2 27.7-66.5 43.7-67.3 16-.8 57-3.3 75.8 16.7 14.2 15.1 13.7 18.1 7.8 63.7-3.1 24.1.6 33-23.7 58.2-24 24.9-22.8 21.6-49 21.6-6.3 0-18-7.5-33.9-22.4-24.6-22.9-20-44.9-20.7-52.5m129.7 287.3s6.2 13.4 5.6 16.2c-.6 2.8-5.3 13.5-9.7 17-4.3 3.5-11.7 5.5-9.8 2.6 1.9-2.8 2.2-1.6 5.8-5 3.9-3.7 4.8-5.6 4.2-9.8-.6-4.3 0-4-3.9-4.8-6.1-1.3-2.5 11.3-5 9.2-2.5-2.1-1.5-6.6-.9-12.7.6-5.7 2.9-9.2 6-10.6 3.1-1.4-9-71-9-71l-8.3-61.1c-1 22.3-5.5 21.2-6.1 28.2-1.6 19.2 6.1 49.7 4.2 50.1-3.4.7-76.1.9-78.7-.2-3-1.2 5.2-26.8 3.6-52.4-.4-6.7-6.2-9.2-5.3-28.8 0 0-26.6-33.3-19.8-41.1 6.8-7.8 27.7-8.6 27.7-8.6l35.2 2.5 35-2.5s21.5.8 28.3 8.6c6.8 7.8 4.6 108.9 4.6 108.9l-3.7 65.3z"/>
  <path fill="#FFF" d="M145.1 172.3s-3.5 6.6-7.6 13.5c-4 6.7-13.9 14.7-13.9 14.7s13.5 10.7 30.9 10.3c14.1-.3 20.6-1.5 32.1-10.3-13.2-2.9-15.4-10.1-17.5-15-3.1-7-4-12.8-2.7-13-14.2.2-21.3-.2-21.3-.2"/>
  <path fill="none" stroke="#00A78E" stroke-width="2.188" stroke-miterlimit="10" d="M145.1 172.3s-3.5 6.6-7.6 13.5c-4 6.7-13.9 14.7-13.9 14.7s13.5 10.7 30.9 10.3c14.1-.3 20.6-1.5 32.1-10.3-13.2-2.9-15.4-10.1-17.5-15-3.1-7-4-12.8-2.7-13-14.2.2-21.3-.2-21.3-.2z"/>
  <path fill="#FFF" d="M141.5 600.8s-1-9.1-17-8.3c-15.9.8-17.2 6.8-17.8 8.4m21.9.4L120.8 475l-9.8-97.6c-1.9-21.3-1.8-24.8 0-31.3.8-2.9 2.8-10 2.8-10l77.3.1s2 7.8 2.6 9.2c2 5.4 5 16.4 1.8 32.8l-15.4 97.9-13.5 124.4h-12.1l5.4-143.5-2.2-81.4c0-4.3-.6-5.2-3.6-5.2h-1.7c-3 0-3.9 1.6-3.9 5.8l-4.6 81.8-3.3 142.6-12 .7zm23.9-.5s1-9.1 17-8.3c15.9.8 17.2 6.8 17.8 8.4"/>
  <path fill="#00A78E" d="M134.7 94c0 3.9-3.4 7-7.7 7-4.2 0-7.7-3.1-7.7-7s3.4-7 7.7-7c4.3 0 7.7 3.1 7.7 7"/>
  <path fill="#00A78E" d="M140.5 94.2s-.6-.5-1.6-1.2-2.5-1.7-4.2-2.6c-.9-.5-1.9-.8-2.9-1.2-1-.3-2.1-.6-3.3-.7-1.1-.1-2.3-.2-3.4 0-1.2 0-2.3.5-3.5.9-1.1.5-2.3.9-3.3 1.7-1.1.6-2.1 1.5-3.1 2.3-.9.7-2 1.9-3.2 2.5-.6.3-1.3.6-1.8.7-.6.2-1.2.3-1.7.3-2.1.2-3.9-.4-5-1-1.1-.7-1.6-1.3-1.6-1.3s.6.3 1.8.4c1.1.1 2.7 0 4.5-.6.4-.2.9-.4 1.3-.6.5-.3.9-.5 1.3-.9.9-.7 1.5-1.6 2.6-2.7 1-1 2.1-2.2 3.3-3 1.2-1 2.5-1.6 3.9-2.2 1.4-.4 2.8-.9 4.2-.9 1.4-.2 2.8.1 4.1.4.6.2 1.3.4 1.9.6.6.3 1.2.6 1.7.9 1.1.6 2.1 1.3 2.9 2.1.9.7 1.6 1.5 2.2 2.2.6.7 1.1 1.4 1.5 2 1.1 1.2 1.4 1.9 1.4 1.9"/>
  <path fill="#00A78E" d="M124.4 91.4c0 1.4-.7 2.6-1.6 2.6-.9 0-1.6-1.2-1.6-2.6 0-1.4.7-2.6 1.6-2.6.9.1 1.6 1.2 1.6 2.6m19.4-23.2s4.3 4.5-7.2 5.8c-11.5 1.3-21.1-7.9-26.4-1.2-5.2 6.7-14.3 9.3-6.8 2.7 7.5-6.6 5.8-10.6 17.6-9.9 11.8.7 22 .6 22.8 2.6m19.3 2.8s-3.5 5.5 8.1 3.9 19.4-13 25.7-7.7c6.3 5.2 15.7 5.5 7.2.9s-7.5-8.9-19-5.2c-11.6 3.6-21.6 6-22 8.1"/>
  <path fill="#FFF" d="M154 106.1s4.1 12.1 7.6 16c13.1 14.3-22.8 12.1-13.7 6.9"/>
  <path fill="#00AB9F" d="M154 106.1s1.3 2.7 3.3 6.7c.5 1 1 2.1 1.6 3.2.6 1.1 1.2 2.3 2 3.4.2.3.4.6.6.8.2.3.4.5.6.8.4.5 1 1.1 1.4 1.7.9 1.2 1.9 2.7 2 4.6.1.9-.1 1.9-.7 2.8-.5.8-1.2 1.4-1.9 1.8-1.4.9-2.9 1.3-4.4 1.5-2.9.5-5.6.3-7.9-.1-1.1-.2-2.2-.5-3-.9-.4-.2-.8-.5-1.1-.8-.3-.3-.5-.9-.3-1.2.3-.7.9-.9 1.1-1.1.3-.2.5-.2.5-.2s-.2.1-.4.3c-.2.2-.7.6-.8 1.1-.1.5.5 1 1.3 1.2.8.3 1.8.4 2.9.5 2.2.2 4.8.1 7.4-.5 1.3-.3 2.6-.7 3.7-1.4s1.7-1.7 1.6-2.8c-.1-1.1-.8-2.4-1.6-3.4-.4-.6-.8-1-1.4-1.7-.3-.3-.5-.6-.7-.9l-.6-.9c-.7-1.3-1.3-2.5-1.9-3.7-.5-1.2-1-2.3-1.3-3.4-1.5-4.4-2-7.4-2-7.4"/>
  <path fill="#00A78E" d="M135.8 142.9s23.6 11.6 37.4-7.2c-10 32-40.2 5-37.4 7.2m37.5-49.6c0 3.9 3.4 7 7.7 7 4.2 0 7.7-3.1 7.7-7s-3.4-7-7.7-7c-4.2.1-7.7 3.2-7.7 7"/>
  <path fill="#00A78E" d="M166.9 93.6s.6-.5 1.6-1.2 2.5-1.7 4.3-2.6c.9-.5 1.9-.8 2.9-1.2 1-.3 2.1-.6 3.3-.7 1.1-.1 2.3-.2 3.5 0 1.2 0 2.3.5 3.5.9 1.1.5 2.3.9 3.3 1.7 1.1.6 2.1 1.5 3.1 2.3.9.7 2.1 1.9 3.3 2.5.6.3 1.3.6 1.8.7.6.2 1.2.3 1.7.3 2.2.2 3.9-.4 5-1 1.1-.7 1.6-1.3 1.6-1.3s-.6.3-1.8.4c-1.1.1-2.7 0-4.5-.6-.4-.2-.9-.4-1.3-.6-.5-.3-.9-.5-1.3-.9-.9-.7-1.5-1.6-2.6-2.7-1-1-2.1-2.2-3.4-3-1.2-1-2.6-1.6-3.9-2.2-1.4-.4-2.8-.9-4.3-.9-1.4-.2-2.8.1-4.2.4-.7.2-1.3.4-1.9.6l-1.8.9c-1.1.6-2.1 1.3-3 2.1-.9.7-1.6 1.5-2.2 2.2-.6.7-1.1 1.4-1.5 2-.8 1.1-1.2 1.9-1.2 1.9m8.9-2.2c0 1.4.7 2.6 1.6 2.6.9 0 1.6-1.2 1.6-2.6 0-1.4-.7-2.6-1.6-2.6-.9 0-1.6 1.2-1.6 2.6m-18.3 128.3h42.3v18.7h-42.3z"/>
  <path fill="none" stroke="#FFF" stroke-width="3" stroke-miterlimit="10" d="M157.5 219.7h42.3v18.7h-42.3z"/>
  <path fill="#FFF" d="M7.5 177.8c.1 0 .1.1.2.1l12.1 5.2s.1 0 .1.1c.5.3 2.6 1.6 2.9 1.8l8 46.1c.1.1 5.8 4.1 7.5 5.3.3.2.7.3 1.1.3 31.3-.3 72.5-5.2 69.9-5.1l-15.4-21.3c-.3-.8-1-1.3-1.8-1.2-7.3.5-28.9 5.3-31.4 5.9h-.3c-1.1.1-12.6 2-16.3 1l-.6-.3-15.7-42.3-.6-.6-19.7 5z"/>
  <path fill="#00A78E" d="M121.1 30.9c4.2 14.8 2.5 28.1-5.1 41.4-4.7 8.2-12 14.8-16.3 23.1-4.3 8.3-4.8 20 2.6 25.7.1.1 0 .2-.1.2-3.1-.2-5.7 3-5.8 6.1-.2 3.2 1.5 6.3 3.2 9 4.7 7.7 11.3 15.6 20.2 16.2-13.2 8.1-32.6 3.3-40.6-9.9-2.2-3.7-3.6-7.9-4.9-12.1-7-22.6-11.3-46.7-6.5-69.9C72.6 37.5 88 15.5 110.5 8.1c4.4-1.5-.4 5.7 3.8 9.2.3.3 10.4-7.5 10.6-7.1 3.8 6.8-4.1 10-4.9 15.6-.2 1.7.3 3.5 1.1 5.1 3.9 8 13.1 11.7 21.7 14 9.6 2.5 19.4 4.1 29.3 4.6 3.9.2 7.8.3 11.4 1.9 2.3 1 4.3 2.7 6.2 4.4 10.5 9.6 18.3 22.8 19.1 37 .9 14.6-6.7 29.9-20.1 35.8l15.9 1.4c-1.7 7.8-6.4 15-12.9 19.7-3 2.2-6.4 4-8.5 7-2.1 3.1-1.9 8.1 1.4 9.7 1.1.5 2.8 1 2.8 2.2 0 .6-.4 1.2-.9 1.6l-7.8 8.7c23.4 1.4 46.8-14.3 54.4-36.4 2-5.9 3-12.2 3.7-18.4 1.7-15.1 1.9-30.3 2-45.5.1-7 .1-14-1.6-20.8-2.8-10.8-9.9-19.9-16.8-28.5-2.7-3.4-5.6-6.7-8.7-9.7-5.8-5.8-12.4-11.4-20.4-14-4.3-1.4-8.7-1.8-13.2-2.2-17.5-1.5-35.1-2.1-52.7-1.8-4.9.1-12.4 2.2-15 6.4"/>
  <path fill="#FFF" d="M119.7 31.3c2.6 9.8 3 19.7-.1 29.4-3.2 9.9-9.4 17.4-15.6 25.5-4.3 5.7-8 11.7-8.8 19-.3 3.2-.1 6.5.9 9.6.3.9 4 7.7 4.6 6.1.5-.4 1-.7 1.4-1.1-10.2.8-7.1 12.3-3.5 18 4.9 7.9 11.4 15.2 21.1 16.3-.3-.9-.5-1.9-.8-2.8-11.2 6.4-26.3 4.3-35.2-5.2-5.3-5.6-7.3-13.3-9.4-20.5-2.3-8.1-4.3-16.3-5.6-24.7-4.5-29.2.8-62 24.7-81.8 2.7-2.2 5.5-4.1 8.5-5.8 1.2-.7 8.2-4.7 9-3.9.5.5-.2 4.3.1 5.3.3 1.2 1.3 3.6 2.7 3.9 2.1.5 5.4-2.9 6.9-4 1-.7 2.7-2.5 3.9-2.8l.6-.4c-.6-.5-1 3.3-1.2 3.7-.6 1.4-1.4 2.5-2.2 3.7-2.9 4.1-4.5 7.5-2.2 12.5 2.3 4.9 6.8 8.5 11.6 10.9 12.5 6.3 27.9 7.9 41.7 8.7 5 .3 9.4.8 13.5 4 3.3 2.5 6.1 5.6 8.7 8.8 5.5 6.7 9.7 14.6 11.4 23.2 3.2 15.8-3.5 33.3-18.6 40.4-1.5.7-.6 2.7.8 2.8 4.9.4 9.8 1.2 14.7 1.3.1 0 .9 0 1.1.1-1.7-1.1-1.5.1-2.1 1.1-1.5 2.3-2.1 5.4-3.7 7.8-3.5 5.3-8.3 8.1-13.1 11.9-5 4-7.5 10.5-2.2 15.2 1.1 1 2 .8 1.7 2.3-.2.8-2 2.2-2.5 2.8-1.6 1.8-3.3 3.6-4.9 5.4-.9 1-.3 2.5 1.1 2.6 17.7.8 35.1-7.2 46.4-20.8 14-16.9 14.3-40.4 14.9-61.3.3-11.6 1.3-23.9-.3-35.4-1.5-10.8-6.9-20-13.4-28.6-6.3-8.3-13-16.4-21.2-22.8-8.2-6.4-16.8-8.8-26.9-9.7C163.9.7 149.6.2 135.2.1c-8.7 0-20.3-.8-26 7.3-1.1 1.6 1.5 3.1 2.6 1.5 5.7-8 20-5.8 28.3-5.8 10.4.1 20.8.5 31.2 1.3 10.7.7 20.7 1.5 29.7 7.8 8 5.6 14.5 13.2 20.5 20.8 6.2 7.9 12.2 16.3 14.6 26.2 2.4 10.4 1.4 21.8 1.2 32.4-.2 10.9-.6 21.8-1.9 32.7-1.1 9.8-3.1 19.5-8.4 28-10.2 16.3-29 26.3-48.2 25.4.4.9.7 1.7 1.1 2.6 1.8-2 3.7-4.1 5.5-6.1 1.2-1.3 3.7-3.3 3.6-5.3 0-1.2-.7-1.9-1.6-2.6-2.4-1.9-4.9-3.2-3.6-6.9 1.8-5.6 10.2-8.6 14.1-12.9 2.2-2.5 12-15.7 6.7-17.8-2.2-.8-5.6-.5-7.8-.7-2.6-.2-5.3-.5-7.9-.7.3.9.5 1.9.8 2.8 22.1-10.4 25.3-38.3 14.7-58.1-5.1-9.5-14-21.6-25.4-23.3-15-2.2-30.5-1.7-44.6-8.2-7.3-3.3-16.1-10.7-10.2-19 2.9-4 4.6-7.2 2.3-12-.2-.5-.8-.8-1.3-.7-3.9.1-6.5 5.9-10.2 6.6-.2 0-.6.6-.8.5.2 0 0-3.8 0-3.5 0-1.1.3-2.4.1-3.5-.4-1.6-1.1-2.3-2.8-2.4-2.8-.1-6.9 2.5-9.3 3.7-3.5 1.8-6.8 4-9.8 6.5-6.6 5-11.9 11.3-16.1 18.2C66.6 51 63.4 69.8 64.5 88.4c.6 10.4 2.5 20.7 5 30.8 2.2 8.8 4.3 18.9 9.8 26.3 9.3 12.6 27.8 16.1 41.2 8.4 1.4-.8.6-2.6-.8-2.8-6-.6-10.6-4.3-14.3-8.8-1.7-2.1-3.2-4.3-4.6-6.6-1.9-3.2-6.2-12.3 1.3-12.9.7-.1 1.2-.4 1.4-1.1 0-.1 0-.1.1-.2.2-.5 0-1.1-.4-1.5-6.6-5.6-6.3-15.2-3-22.6 3.5-7.8 10-13.8 14.7-20.8 9.4-13.8 11.8-30 7.5-46.1-.3-1.9-3.2-1.1-2.7.8M18.8 152.6c-1 3.9 0 7.4 2.2 8 2.2.6 4.8-2.1 5.8-5.9 1-3.9 0-7.4-2.2-8-2.2-.6-4.8 2.1-5.8 5.9"/>
  <ellipse transform="rotate(-165.6 22.812 153.58)" fill="none" stroke="#00A78E" stroke-width="1.049" stroke-miterlimit="10" cx="22.8" cy="153.7" rx="4.1" ry="7.2"/>
  <path fill="#FFF" d="M28 174c.1 2-1.4 3.7-3.4 3.8L5.5 179c-2 .1-3.7-1.4-3.8-3.4-.1-2 1.4-3.7 3.4-3.8l19.1-1.2c1.9-.1 3.6 1.5 3.8 3.4"/>
  <path fill="none" stroke="#00A78E" stroke-width=".636" stroke-miterlimit="10" d="M28 174c.1 2-1.4 3.7-3.4 3.8L5.5 179c-2 .1-3.7-1.4-3.8-3.4-.1-2 1.4-3.7 3.4-3.8l19.1-1.2c1.9-.1 3.6 1.5 3.8 3.4z"/>
  <path fill="#FFF" d="M29.5 166.3c.1 2.2-1.6 4.1-3.7 4.2l-20.4 1.2c-2.2.1-4.1-1.6-4.2-3.7-.1-2.2 1.6-4.1 3.7-4.2l20.4-1.2c2.2-.1 4.1 1.5 4.2 3.7"/>
  <path fill="none" stroke="#00A78E" stroke-width=".695" stroke-miterlimit="10" d="M29.5 166.3c.1 2.2-1.6 4.1-3.7 4.2l-20.4 1.2c-2.2.1-4.1-1.6-4.2-3.7-.1-2.2 1.6-4.1 3.7-4.2l20.4-1.2c2.2-.1 4.1 1.5 4.2 3.7z"/>
  <path fill="#FFF" d="M26.5 158.9c.1 2-1.4 3.7-3.4 3.8l-18.6 1.1c-2 .1-3.7-1.4-3.8-3.4-.1-2 1.4-3.7 3.4-3.8l18.6-1.1c2-.1 3.7 1.4 3.8 3.4"/>
  <path fill="none" stroke="#00A78E" stroke-width=".629" stroke-miterlimit="10" d="M26.5 158.9c.1 2-1.4 3.7-3.4 3.8l-18.6 1.1c-2 .1-3.7-1.4-3.8-3.4-.1-2 1.4-3.7 3.4-3.8l18.6-1.1c2-.1 3.7 1.4 3.8 3.4z"/>
  <path fill="#FFF" d="M21.8 152.2c.1 1.9-1.3 3.5-3.2 3.6l-14.7.9c-1.9.1-3.5-1.3-3.6-3.2-.1-1.9 1.3-3.5 3.2-3.6l14.7-.9c1.8-.2 3.5 1.3 3.6 3.2"/>
  <path fill="none" stroke="#00A78E" stroke-width=".56" stroke-miterlimit="10" d="M21.8 152.2c.1 1.9-1.3 3.5-3.2 3.6l-14.7.9c-1.9.1-3.5-1.3-3.6-3.2-.1-1.9 1.3-3.5 3.2-3.6l14.7-.9c1.8-.2 3.5 1.3 3.6 3.2z"/>
  <path fill="#FFF" d="M20 172c-.9.1-1.5.7-1.5 1.5l.1 2.3c0 .8.8 1.4 1.6 1.3.7 0 1.3-.1 2-.1.6 0 2-.1 2.1-.1 1.3-.1 2.4-1.3 2.3-2.7-.1-1.4-1.2-2.5-2.6-2.4h-.6c-1.1 0-2.2.1-3.4.2"/>
  <path fill="none" stroke="#00A78E" stroke-width=".779" stroke-miterlimit="10" d="M20 172c-.9.1-1.5.7-1.5 1.5l.1 2.3c0 .8.8 1.4 1.6 1.3.7 0 1.3-.1 2-.1.6 0 2-.1 2.1-.1 1.3-.1 2.4-1.3 2.3-2.7-.1-1.4-1.2-2.5-2.6-2.4h-.6c-1.1 0-2.2.1-3.4.2z"/>
  <path fill="#FFF" d="M21.5 164c-.9.1-1.5.8-1.5 1.7l.2 2.6c.1.9.8 1.5 1.7 1.5l2-.1c.6 0 2-.1 2.1-.1 1.3-.1 2.4-1.4 2.3-3-.1-1.6-1.3-2.8-2.6-2.7h-.6c-1.3-.1-2.5 0-3.6.1"/>
  <path fill="none" stroke="#00A78E" stroke-width=".821" stroke-miterlimit="10" d="M21.5 164c-.9.1-1.5.8-1.5 1.7l.2 2.6c.1.9.8 1.5 1.7 1.5l2-.1c.6 0 2-.1 2.1-.1 1.3-.1 2.4-1.4 2.3-3-.1-1.6-1.3-2.8-2.6-2.7h-.6c-1.3-.1-2.5 0-3.6.1z"/>
  <path fill="#FFF" d="M18.7 156.7c-.9.1-1.5.7-1.5 1.5l.1 2.3c0 .8.8 1.4 1.6 1.3.7 0 1.3-.1 2-.1.6 0 2-.1 2.1-.1 1.3-.1 2.4-1.3 2.3-2.7-.1-1.4-1.2-2.5-2.6-2.4h-.6c-1.1.1-2.3.2-3.4.2"/>
  <path fill="none" stroke="#00A78E" stroke-width=".778" stroke-miterlimit="10" d="M18.7 156.7c-.9.1-1.5.7-1.5 1.5l.1 2.3c0 .8.8 1.4 1.6 1.3.7 0 1.3-.1 2-.1.6 0 2-.1 2.1-.1 1.3-.1 2.4-1.3 2.3-2.7-.1-1.4-1.2-2.5-2.6-2.4h-.6c-1.1.1-2.3.2-3.4.2z"/>
  <path fill="#FFF" d="M14.1 150.2c-.8 0-1.4.7-1.4 1.4l.1 2.2c0 .7.7 1.3 1.5 1.2.6 0 1.2-.1 1.8-.1.5 0 1.9-.1 2-.1 1.2-.1 2.2-1.2 2.1-2.6-.1-1.3-1.2-2.4-2.4-2.3h-.5c-1 .2-2.1.2-3.2.3"/>
  <path fill="none" stroke="#00A78E" stroke-width=".73" stroke-miterlimit="10" d="M14.1 150.2c-.8 0-1.4.7-1.4 1.4l.1 2.2c0 .7.7 1.3 1.5 1.2.6 0 1.2-.1 1.8-.1.5 0 1.9-.1 2-.1 1.2-.1 2.2-1.2 2.1-2.6-.1-1.3-1.2-2.4-2.4-2.3h-.5c-1 .2-2.1.2-3.2.3z"/>
  <text transform="translate(161.677 234.143)">
    <tspan x="0" y="0" fill="#FFF" font-family="'Foco-Bold'" font-size="15">B</tspan>
    <tspan x="8.8" y="0" fill="#FFF" font-family="'Foco-Bold'" font-size="15">O</tspan>
    <tspan x="19.2" y="0" fill="#FFF" font-family="'Foco-Bold'" font-size="15">SS</tspan>
  </text>
</svg>