<svg xmlns="http://www.w3.org/2000/svg" width="109.5" height="90.7" viewBox="0 0 109.5 90.7">
  <path fill="#FFF" d="M7.5 31.7c.1 0 .1.1.2.1L19.8 37s.1 0 .1.1c.5.3 2.6 1.6 2.9 1.8l8 46.1c.1.1 5.8 4.1 7.5 5.3.3.2.7.3 1.1.3 31.3-.3 72.5-5.2 69.9-5.1L93.9 64.2c-.3-.8-1-1.3-1.8-1.2-7.3.5-28.9 5.3-31.4 5.9h-.3c-1.1.1-12.6 2-16.3 1l-.6-.3-15.7-42.3-.6-.6-19.7 5zM18.8 6.5c-1 3.9 0 7.4 2.2 8 2.2.6 4.8-2.1 5.8-5.9 1-3.9 0-7.4-2.2-8-2.2-.6-4.8 2.1-5.8 5.9"/>
  <ellipse transform="rotate(-165.6 22.83 7.576)" fill="none" stroke="#00AB9F" stroke-width="1.049" stroke-miterlimit="10" cx="22.8" cy="7.6" rx="4.1" ry="7.2"/>
  <path fill="#FFF" d="M28 28c.1 2-1.4 3.7-3.4 3.8L5.5 33c-2 .1-3.7-1.4-3.8-3.4-.1-2 1.4-3.7 3.4-3.8l19.1-1.2c1.9-.1 3.6 1.4 3.8 3.4"/>
  <path fill="none" stroke="#00AB9F" stroke-width=".636" stroke-miterlimit="10" d="M28 28c.1 2-1.4 3.7-3.4 3.8L5.5 33c-2 .1-3.7-1.4-3.8-3.4-.1-2 1.4-3.7 3.4-3.8l19.1-1.2c1.9-.1 3.6 1.4 3.8 3.4z"/>
  <path fill="#FFF" d="M29.5 20.3c.1 2.2-1.6 4.1-3.7 4.2L5.4 25.7c-2.2.1-4.1-1.6-4.2-3.7-.1-2.2 1.6-4.1 3.7-4.2l20.4-1.2c2.2-.2 4.1 1.5 4.2 3.7"/>
  <path fill="none" stroke="#00AB9F" stroke-width=".695" stroke-miterlimit="10" d="M29.5 20.3c.1 2.2-1.6 4.1-3.7 4.2L5.4 25.7c-2.2.1-4.1-1.6-4.2-3.7-.1-2.2 1.6-4.1 3.7-4.2l20.4-1.2c2.2-.2 4.1 1.5 4.2 3.7z"/>
  <path fill="#FFF" d="M26.5 12.8c.1 2-1.4 3.7-3.4 3.8L4.5 17.8c-2 .1-3.7-1.4-3.8-3.4-.1-2 1.4-3.7 3.4-3.8l18.6-1.1c2-.2 3.7 1.4 3.8 3.3"/>
  <path fill="none" stroke="#00AB9F" stroke-width=".629" stroke-miterlimit="10" d="M26.5 12.8c.1 2-1.4 3.7-3.4 3.8L4.5 17.8c-2 .1-3.7-1.4-3.8-3.4-.1-2 1.4-3.7 3.4-3.8l18.6-1.1c2-.2 3.7 1.4 3.8 3.3z"/>
  <path fill="#FFF" d="M21.8 6.1c.1 1.9-1.3 3.5-3.2 3.6l-14.7.9C2 10.7.4 9.3.3 7.4.2 5.5 1.6 3.9 3.5 3.8l14.7-.9c1.8-.1 3.5 1.3 3.6 3.2"/>
  <path fill="none" stroke="#00AB9F" stroke-width=".56" stroke-miterlimit="10" d="M21.8 6.1c.1 1.9-1.3 3.5-3.2 3.6l-14.7.9C2 10.7.4 9.3.3 7.4.2 5.5 1.6 3.9 3.5 3.8l14.7-.9c1.8-.1 3.5 1.3 3.6 3.2z"/>
  <path fill="#FFF" d="M20 25.9c-.9.1-1.5.7-1.5 1.5l.1 2.3c0 .8.8 1.4 1.6 1.3.7 0 1.3-.1 2-.1.6 0 2-.1 2.1-.1 1.3-.1 2.4-1.3 2.3-2.7-.1-1.4-1.2-2.5-2.6-2.4h-.6c-1.1.1-2.2.1-3.4.2"/>
  <path fill="none" stroke="#00AB9F" stroke-width=".779" stroke-miterlimit="10" d="M20 25.9c-.9.1-1.5.7-1.5 1.5l.1 2.3c0 .8.8 1.4 1.6 1.3.7 0 1.3-.1 2-.1.6 0 2-.1 2.1-.1 1.3-.1 2.4-1.3 2.3-2.7-.1-1.4-1.2-2.5-2.6-2.4h-.6c-1.1.1-2.2.1-3.4.2z"/>
  <path fill="#FFF" d="M21.5 17.9c-.9.1-1.5.8-1.5 1.7l.2 2.6c.1.9.8 1.5 1.7 1.5l2-.1c.6 0 2-.1 2.1-.1 1.3-.1 2.4-1.4 2.3-3-.1-1.6-1.3-2.8-2.6-2.7h-.6c-1.3 0-2.5 0-3.6.1"/>
  <path fill="none" stroke="#00AB9F" stroke-width=".821" stroke-miterlimit="10" d="M21.5 17.9c-.9.1-1.5.8-1.5 1.7l.2 2.6c.1.9.8 1.5 1.7 1.5l2-.1c.6 0 2-.1 2.1-.1 1.3-.1 2.4-1.4 2.3-3-.1-1.6-1.3-2.8-2.6-2.7h-.6c-1.3 0-2.5 0-3.6.1z"/>
  <path fill="#FFF" d="M18.7 10.7c-.9.1-1.5.7-1.5 1.5l.1 2.3c0 .8.8 1.4 1.6 1.3.7 0 1.3-.1 2-.1.6 0 2-.1 2.1-.1 1.3-.1 2.4-1.3 2.3-2.7-.1-1.4-1.2-2.5-2.6-2.4h-.6c-1.1 0-2.3.1-3.4.2"/>
  <path fill="none" stroke="#00AB9F" stroke-width=".778" stroke-miterlimit="10" d="M18.7 10.7c-.9.1-1.5.7-1.5 1.5l.1 2.3c0 .8.8 1.4 1.6 1.3.7 0 1.3-.1 2-.1.6 0 2-.1 2.1-.1 1.3-.1 2.4-1.3 2.3-2.7-.1-1.4-1.2-2.5-2.6-2.4h-.6c-1.1 0-2.3.1-3.4.2z"/>
  <path fill="#FFF" d="M14.1 4.1c-.8 0-1.4.7-1.4 1.4l.1 2.2c.2.8.9 1.3 1.6 1.3.6 0 1.2-.1 1.8-.1.5 0 1.9-.1 2-.1 1.2-.1 2.2-1.2 2.1-2.6-.1-1.3-1.2-2.4-2.4-2.3h-.5c-1.1.1-2.2.1-3.3.2"/>
  <path fill="none" stroke="#00AB9F" stroke-width=".73" stroke-miterlimit="10" d="M14.1 4.1c-.8 0-1.4.7-1.4 1.4l.1 2.2c.2.8.9 1.3 1.6 1.3.6 0 1.2-.1 1.8-.1.5 0 1.9-.1 2-.1 1.2-.1 2.2-1.2 2.1-2.6-.1-1.3-1.2-2.4-2.4-2.3h-.5c-1.1.1-2.2.1-3.3.2z"/>
</svg>