<svg xmlns="http://www.w3.org/2000/svg" width="819.2" height="519.4" viewBox="0 0 819.2 519.4">
  <path fill="#FFF" d="M186.2 92.3h-.2c-4.7.8-8.5 5.4-8.5 10.2 0 4.8 3.8 8 8.5 7.1h.2c4.7-.8 8.5-5.4 8.5-10.2 0-4.7-3.8-7.9-8.5-7.1m18.5 394.2h-.2c-4.7.8-8.5 5.4-8.5 10.2 0 4.8 3.8 8 8.5 7.1h.2c4.7-.8 8.5-5.4 8.5-10.2.1-4.7-3.8-7.9-8.5-7.1m-85.4 15.4h-.2c-4.7.8-8.5 5.4-8.5 10.2 0 4.8 3.8 8 8.5 7.1h.2c4.7-.8 8.5-5.4 8.5-10.2 0-4.7-3.8-7.9-8.5-7.1m-18.6-394.2h-.3c-4.7.9-8.5 5.5-8.4 10.3.1 4.7 3.9 7.9 8.5 7h.3c4.7-.9 8.5-5.5 8.4-10.3 0-4.7-3.8-7.9-8.5-7m256.5-46.1h-.2c-4.7.8-8.5 5.4-8.5 10.2 0 4.8 3.8 8 8.5 7.1h.2c4.7-.8 8.5-5.4 8.5-10.2 0-4.8-3.8-8-8.5-7.1m-67 409.6h-.2c-4.7.8-8.5 5.4-8.5 10.2 0 4.8 3.8 8 8.5 7.1h.2c4.7-.8 8.5-5.4 8.5-10.2 0-4.8-3.8-8-8.5-7.1M271.7 76.9h-.2c-4.7.8-8.5 5.4-8.5 10.2 0 4.8 3.8 8 8.5 7.1h.2c4.7-.8 8.5-5.4 8.5-10.2 0-4.7-3.8-7.9-8.5-7.1M8.5 262.8c4.7-.8 8.5-5.4 8.5-10.2v-.2c0-4.8-3.8-8-8.5-7.1-4.7.8-8.5 5.4-8.5 10.2v.2c0 4.7 3.8 7.9 8.5 7.1m0 87.1c4.7-.8 8.5-5.4 8.5-10.2v-.2c0-4.8-3.8-8-8.5-7.1-4.7.8-8.5 5.4-8.5 10.2v.2c0 4.8 3.8 8 8.5 7.1m36.8 143.3l-.1-.1c-3.5-2.6-8.9-1.3-12 2.8-3.2 4.1-2.9 9.5.6 12.1l.2.2c1.6 1.2 3.6 1.5 5.7 1.2 2.3-.4 4.7-1.8 6.4-4 3.1-4.2 2.7-9.6-.8-12.2M17 426.8v-.2c0-4.8-3.8-8-8.5-7.1-4.7.8-8.5 5.4-8.5 10.2v.2c0 4.8 3.8 8 8.5 7.1 4.7-.8 8.5-5.4 8.5-10.2m358.7 29h-.2c-4.7.8-8.5 5.4-8.5 10.2 0 4.8 3.8 8 8.5 7.1h.2c4.7-.8 8.5-5.4 8.5-10.2 0-4.7-3.8-7.9-8.5-7.1m-341.9-284l.1-.2c2.8-4.3 2.1-9.6-1.7-11.8-3.8-2.2-9.1-.5-11.9 3.8l-.1.2c-2.8 4.3-2.1 9.6 1.7 11.8 1.5.9 3.3 1.1 5.1.8 2.6-.4 5.2-2.1 6.8-4.6m776.9 83.6c-4.7.8-8.5 5.4-8.5 10.2v.2c0 4.8 3.8 8 8.5 7.1 4.7-.8 8.5-5.4 8.5-10.2v-.2c0-4.8-3.8-8-8.5-7.1m-96 139.6c-4.2 2.9-5.8 8.5-3.7 12.3 1.5 2.7 4.5 3.9 7.6 3.4 1.3-.2 2.6-.8 3.9-1.7l.3-.2c4.1-3 5.7-8.5 3.5-12.3-2.2-3.8-7.4-4.5-11.6-1.5m83.1-52.5c-3.8-2.1-9.1-.3-11.9 4.1l-.1.1c-2.8 4.4-2 9.6 1.8 11.8 1.5.9 3.3 1.1 5.1.8 2.6-.5 5.2-2.1 6.8-4.7l.2-.3c2.8-4.4 1.9-9.6-1.9-11.8M785.4 22.6c3.1-4.2 2.7-9.6-.9-12.1l-.1-.1c-3.5-2.5-8.9-1.2-12 3-3.1 4.2-2.7 9.6.8 12.1l.2.1c1.6 1.1 3.6 1.5 5.5 1.1 2.4-.4 4.8-1.8 6.5-4.1M699.1.1h-.2c-4.7.8-8.5 5.4-8.5 10.2 0 4.8 3.8 8 8.5 7.1h.2c4.7-.8 8.5-5.4 8.5-10.2 0-4.7-3.8-7.9-8.5-7.1m111.6 81c-4.7.8-8.5 5.4-8.5 10.2v.2c0 4.8 3.8 8 8.5 7.1 4.7-.8 8.5-5.4 8.5-10.2v-.2c0-4.7-3.8-7.9-8.5-7.1m0 87.1c-4.7.8-8.5 5.4-8.5 10.2v.2c0 4.8 3.8 8 8.5 7.1 4.7-.8 8.5-5.4 8.5-10.2v-.2c0-4.7-3.8-7.9-8.5-7.1M461.2 440.5h-.2c-4.7.8-8.5 5.4-8.5 10.2 0 4.8 3.8 8 8.5 7.1h.2c4.7-.8 8.5-5.4 8.5-10.2 0-4.8-3.8-8-8.5-7.1M442.7 46.2h-.2c-4.7.8-8.5 5.4-8.5 10.2 0 4.8 3.8 8 8.5 7.1h.2c4.7-.8 8.5-5.4 8.5-10.2 0-4.7-3.8-7.9-8.5-7.1m85.4-15.3h-.2c-4.7.8-8.5 5.4-8.5 10.2 0 4.8 3.8 8 8.5 7.1h.2c4.7-.8 8.5-5.4 8.5-10.2.1-4.8-3.8-8-8.5-7.1m85.5-15.4h-.2c-4.7.8-8.5 5.4-8.5 10.2 0 4.8 3.8 8 8.5 7.1h.2c4.7-.8 8.5-5.4 8.5-10.2 0-4.7-3.8-7.9-8.5-7.1m18.6 394.2h-.2c-4.7.8-8.5 5.4-8.5 10.2 0 4.8 3.8 8 8.5 7.1h.2c4.7-.8 8.5-5.4 8.5-10.2 0-4.7-3.8-7.9-8.5-7.1m-85.5 15.4h-.2c-4.7.8-8.5 5.4-8.5 10.2 0 4.8 3.8 8 8.5 7.1h.2c4.7-.8 8.5-5.4 8.5-10.2 0-4.8-3.8-8-8.5-7.1"/>
</svg>