<svg xmlns="http://www.w3.org/2000/svg" width="151.4" height="508.6" viewBox="0 0 151.4 508.6">
  <path fill="#FFF" d="M124 98.3s1.7-15.1 6.4-10.9c3.9 3.5 5.7 19.6 3.3 30.9-1 5-7 10.7-9.5 8.2s-.2-28.2-.2-28.2"/>
  <path fill="none" stroke="#00A78E" stroke-width="1.797" stroke-miterlimit="10" d="M124 98.3s1.7-15.1 6.4-10.9c3.9 3.5 5.7 19.6 3.3 30.9-1 5-7 10.7-9.5 8.2s-.2-28.2-.2-28.2"/>
  <path fill="#FFF" d="M23.5 95.7s-2.2-15-7.2-10.7c-5.2 4.5-4.7 23.9-2.9 30.9 1.2 5 7.9 10.5 10.6 8 2.7-2.5-.5-28.2-.5-28.2"/>
  <path fill="#FFF" d="M21.2 74.4c.1 5.3-3.4 47.7 11.4 66.3 8.4 10.6 20.2 20.8 27 22.4 11.1 2.6 18.4 4.6 28.2 2.5 9.8-2.1 24.3-12.4 33.2-32.2 4.2-9.4 15.8-83.4-5.6-104.4-14-13.7-44.6-12-56.5-11.5-11.9.6-38.3 4.8-37.7 56.9m15.4 434.2L31 348.7h83.3l-1.9 159.9h-34V379c0-3.4-1.2-6.2-5-6.2s-5 2.8-5 6.2v129.6H36.6z"/>
  <path fill="#00A78E" d="M94.3 92c0 2.9 2.4 5.2 5.3 5.2s5.3-2.3 5.3-5.2c0-2.9-2.4-5.2-5.3-5.2-3 0-5.3 2.3-5.3 5.2"/>
  <path fill="#00A78E" d="M115.3 93.3c-.1 0-7.2-6.9-15.8-6.9-4.4 0-9.1 1.9-13.3 7.4l1.3 1.5c3.8-5.1 8-6.7 12-6.7 3.9 0 7.6 1.6 10.3 3.2 1.4.8 2.5 1.6 3.2 2.2.4.3.7.6.9.7l.3.3 1.1-1.7z"/>
  <path fill="#FFF" d="M98.2 91.9c0 1-.5 1.8-1.2 1.8s-1.2-.8-1.2-1.8.5-1.8 1.2-1.8c.6 0 1.2.8 1.2 1.8"/>
  <path fill="#00A78E" d="M58.6 92c0 2.9-2.4 5.2-5.3 5.2S48 94.9 48 92c0-2.9 2.4-5.2 5.3-5.2s5.3 2.3 5.3 5.2"/>
  <path fill="#00A78E" d="M38.6 95.1l.3-.3c1.4-1.2 7.6-6.2 14.4-6.2 4 0 8.2 1.6 12 6.7l1.3-1.5c-4.1-5.5-8.9-7.4-13.3-7.4-8.6 0-15.7 6.9-15.8 6.9l1.1 1.8z"/>
  <path fill="#FFF" d="M51.3 91.9c0 1-.5 1.8-1.2 1.8s-1.2-.8-1.2-1.8.6-1.8 1.2-1.8 1.2.8 1.2 1.8"/>
  <path fill="#00A78E" d="M62.1 68.9s6.7 6 1.1 7-14.9-.9-19 0c-4.1 1-12.1 4.1-12.1 4.1l-.5-3.4s11-10.4 30.5-7.7m28.1-5.4s-6.5 5.7-.8 7c5.7 1.3 14.8-.4 19 .7 4.2 1.1 12.3 4.5 12.3 4.5l.4-3.4c-.1 0-11.4-10.8-30.9-8.8m-20.1 56.2s.4.1 1.1.2c.7.1 1.8.3 3 .5 1.2.1 2.7.3 4.1.1.7-.1 1.4-.3 1.7-.7.1-.1.1-.2.2-.3v-.1.1-.1l.1-.3c.1-.4.1-.7.2-1.1.1-.8.1-1.6.1-2.4 0-.8 0-1.6-.1-2.4-.1-1.6-.2-3-.3-4.3-.2-2.5-.2-4.2-.2-4.2s.6 1.6 1.2 4.1c.3 1.2.6 2.7.8 4.3.1.8.2 1.6.2 2.5v2.6c-.1.5-.1 1-.3 1.4l-.1.3v.2l-.1.2c-.1.3-.3.5-.5.7-.9.9-1.9 1-2.8 1.1-.9.1-1.7-.1-2.4-.2s-1.4-.3-2-.5c-1.2-.4-2.2-.8-2.9-1.1-.7-.4-1-.6-1-.6M59.6 129s18.7 7.7 34 1.2c-2.2 4.4-22.6 15.5-34-1.2"/>
  <path fill="#00A78E" d="M19 83.7s-9.8-25.4-7.8-35.5c2-10.1 7-19.3 24.9-35.5C47.7 2.1 68.4.2 70.7 2.9c3.5 4 9.5 5.7 13.9.6 4.4-5.1 19.8-1.8 17.8 2.3 8.2-4.8 14 4 14 4s31 4 14.1 84.3c-1.5 7.1-3.2 15.1-3.2 15.1-6.3.4-.7-9.4.3-38.9C128.9 29.4 91 38.4 77 36.8c-17-1.9-45.5-4.1-50.5 17.8-5.1 21.9-2.8 51.3-2.8 51.3l-4.7 4.8v-27z"/>
  <path fill="none" stroke="#FFF" stroke-width="1.797" stroke-miterlimit="10" d="M19 83.7s-9.8-25.4-7.8-35.5c2-10.1 7-19.3 24.9-35.5C47.7 2.1 68.4.2 70.7 2.9c3.5 4 9.5 5.7 13.9.6 4.4-5.1 19.8-1.8 17.8 2.3 8.2-4.8 14 4 14 4s31 4 14.1 84.3c-1.5 7.1-3.2 15.1-3.2 15.1-6.3.4-.7-9.4.3-38.9C128.9 29.4 91 38.4 77 36.8c-17-1.9-45.5-4.1-50.5 17.8-5.1 21.9-2.8 51.3-2.8 51.3l-4.7 4.8v-27z"/>
  <path fill="#FFF" d="M63.4 166.7s.4 14.4-6.4 18.4c-6.1 3.6-8.9 4.3-8.9 4.3s29.8 12 53.7 2.3c-12.8-3.5-12-7.9-12-7.9l-2.3-14.9-24.1-2.2z"/>
  <path fill="none" stroke="#00A78E" stroke-width="2.158" stroke-miterlimit="10" d="M63.4 166.7s.4 14.4-6.4 18.4c-6.1 3.6-8.9 4.3-8.9 4.3s29.8 12 53.7 2.3c-12.8-3.5-12-7.9-12-7.9l-2.3-14.9-24.1-2.2z"/>
  <path fill="#FFF" d="M147 253.1l-29.9 6.9-3.3-14.1 3.4 34.6c.4 5.9.7 25-.7 42.2l-2.9 23H32l-3-27c-.9-14.2.1-35.4.6-40.8l4.7-32.2-3.9 13.3-28.6-6.8s3-10.5 13.3-32.7c10.3-22.2 33-30 33-30l27.5 4.4 26.2-2.1s24.3 6.1 34.6 28.3c10.3 22.2 10.2 32.9 10.2 32.9"/>
  <path fill="none" stroke="#00A78E" stroke-width="1.797" stroke-miterlimit="10" d="M147 253.1l-29.9 6.9-3.3-14.1 3.4 34.6c.4 5.9.7 25-.7 42.2l-2.9 23H32l-3-27c-.9-14.2.1-35.4.6-40.8l4.7-32.2-3.9 13.3-28.6-6.8s3-10.5 13.3-32.7c10.3-22.2 33-30 33-30l27.5 4.4 26.2-2.1s24.3 6.1 34.6 28.3c10.3 22.2 10.2 32.9 10.2 32.9"/>
  <path fill="#FFF" d="M26.3 360.5c1.1 2.5 1.5 4.9-1.5 4.8l-.9-1.2-5.1-7.1-1.5 2c-.9 1.2-1.1 2.6-.5 3.9.4 1 .9 2.2 1.2 3 .2.6.7 1.1 1.3 1.4l3.6 2.5c.9.6.5 1.4.2 2l-.5.5c-.8.7-2.1.8-2.9.2l-3.9-2.8c-.4-.1-.7-.3-.9-.6l-6.1-9.3c-.4-.5-1-3.1-.9-3.8l2.6-10.1c.1-.3.2-2.4.2-2.7L1 300.4v-7.5s1.1-37.8 3.4-37.3l23 5c1.8.4-3.8 20-3.8 20-2.5 9.5-3.4 12.8-4 18.4l2.6 46.3c0 .2 0 .4.1.6l4 14.6z"/>
  <path fill="none" stroke="#00A78E" stroke-width="1.797" stroke-miterlimit="10" d="M26.3 360.5c1.1 2.5 1.5 4.9-1.5 4.8l-.9-1.2-5.1-7.1-1.5 2c-.9 1.2-1.1 2.6-.5 3.9.4 1 .9 2.2 1.2 3 .2.6.7 1.1 1.3 1.4l3.6 2.5c.9.6.5 1.4.2 2l-.5.5c-.8.7-2.1.8-2.9.2l-3.9-2.8c-.4-.1-.7-.3-.9-.6l-6.1-9.3c-.4-.5-1-3.1-.9-3.8l2.6-10.1c.1-.3.2-2.4.2-2.7L1 300.4v-7.5s1.1-37.8 3.4-37.3l23 5c1.8.4-3.8 20-3.8 20-2.5 9.5-3.4 12.8-4 18.4l2.6 46.3c0 .2 0 .4.1.6l4 14.6z"/>
  <path fill="#FFF" d="M127.4 374.2c-.9 0-1.7-.3-2.2-.9l-.7-.6-.1-.4c-.2-.6-.6-1.9.7-2.9l3.6-2.4c.5-.3.8-.6 1-1l1.3-2.9c.4-1 .3-2.1-.3-3l-.7-1-5.7 7.5h-.4c-1.4 0-2.3-.4-2.8-1.2-.7-1.1-.5-2.6.6-4.8l4.4-14.4c0-.1.1-.3.1-.4l3.8-46.1c-.4-2.6-1.1-6.1-2.3-10.4 0-.2-.1-.3-.1-.4-3-9.7-7.9-26.2-6.7-28.2.2-.3.4-.5.7-.5l23.3-4.6h.1c1.1 0 2.3 0 4.2 19.5.9 9.3 1.5 18.6 1.5 18.7l-.2 7.7-10.8 42.7c0 .3.1 2 .1 2.3l2.3 10.1c.1 1-.6 3.8-1.1 4.5l-6.4 9.1c-.3.4-.8.7-1.3.9l-3.9 2.6c-.7.3-1.3.5-2 .5"/>
  <path fill="#00A78E" d="M144.8 256.3c2.3 0 4.8 37.4 4.8 37.4l-.2 7.5-10.8 42.6c-.1.3 0 2.4.1 2.7l2.4 10.1c.1.6-.6 3.2-1 3.7l-6.4 9.1c-.2.3-.6.5-.9.6l-4 2.7c-.4.3-.9.4-1.3.4-.6 0-1.2-.2-1.6-.6l-.5-.5c-.2-.7-.6-1.4.3-2l3.6-2.4c.6-.4 1.1-.8 1.3-1.4.3-.8.8-1.9 1.3-2.9.6-1.3.4-2.7-.4-3.9l-1.4-2-5.3 6.9-.9 1.2h-.1c-3 0-2.6-2.4-1.4-4.8l4.4-14.4c.1-.2.1-.4.1-.6l3.8-46.2c-.6-4.6-2.4-10.9-2.5-11 0 0-8.5-27.3-6.7-27.6l23.3-4.6m0-1.8h-.4l-23.2 4.6c-.6.1-1 .5-1.3 1-.5.9-1.1 1.9 2.8 15.9 1.8 6.4 3.7 12.7 3.8 13.1 0 .1.1.2.1.4 1.1 4.2 1.9 7.7 2.3 10.2l-3.8 46v.3l-4.4 14.3c-.8 1.6-1.6 3.9-.5 5.6.5.8 1.5 1.6 3.5 1.6h1l.5-.7.9-1.2 3.8-5c.5.7.6 1.4.3 2.1l-1.1 2.5-.2.4c-.1.2-.3.4-.6.6h-.2l-3.6 2.4c-1.9 1.3-1.3 3.3-1.1 3.9l.1.2.1.4.3.3.5.5c.7.7 1.8 1.1 2.8 1.1.8 0 1.6-.2 2.3-.7l3.8-2.5c.7-.2 1.3-.6 1.7-1.2l6.4-9.1c.6-.9 1.4-3.9 1.3-5v-.2l-2.3-10c0-.4-.1-1.6-.1-2.1l10.7-42.5v-.4l.2-7.5v-.2c0-.1-.6-9.5-1.5-18.8-.5-5.5-1-9.8-1.5-13-.7-5.1-1.4-7.3-3.4-7.3"/>
  <path fill="#FFF" d="M69.7 508.4s-1.8-13.5-29.5-12.3c-27.7 1.2-29.8 10.1-30.9 12.5m132.8-.2s-1.8-13.5-29.5-12.3c-27.7 1.2-29.8 10.1-30.9 12.5"/>
</svg>