<svg xmlns="http://www.w3.org/2000/svg" width="47.7" height="390" viewBox="0 0 47.7 390">
  <path fill="#00AB9F" d="M9.2 37.7l-4 307c-1.2.1-2.2.4-2.7.9-.9.9-1.6 18.7-.3 24.6 1.6 7.1 9.1 18.4 22.7 18.4 2 0 4.1-.2 6.3-.8 4.4-1 11.3-4.4 13.8-14.9.6-2.6 1.5-6.2 1-9.1-.3-1.8-6.8-1.7-7.2 0-.5 2.4-.2 4.8-.6 6.8-1.2 5.7-4.1 9.2-8.7 10.2-14.3 3.4-18.7-9.4-19-12.3-.6-5.7 1.4-21.8.3-22.9-.5-.5-1.5-.7-2.7-.9l4-307.4-2.9.4z"/>
  <path fill="none" stroke="#FFF" stroke-width="3" stroke-miterlimit="10" d="M9.2 37.7l-4 307c-1.2.1-2.2.4-2.7.9-.9.9-1.6 18.7-.3 24.6 1.6 7.1 9.1 18.4 22.7 18.4 2 0 4.1-.2 6.3-.8 4.4-1 11.3-4.4 13.8-14.9.6-2.6 1.5-6.2 1-9.1-.3-1.8-6.8-1.7-7.2 0-.5 2.4-.2 4.8-.6 6.8-1.2 5.7-4.1 9.2-8.7 10.2-14.3 3.4-18.7-9.4-19-12.3-.6-5.7 1.4-21.8.3-22.9-.5-.5-1.5-.7-2.7-.9l4-307.4-2.9.4z"/>
  <path fill="#00AB9F" d="M11.3 2.4s-.1-.6-.5-.6-.5.6-.5.6l-2.7 35h6.3l-2.6-35z"/>
  <path fill="none" stroke="#FFF" stroke-width="3.673" stroke-miterlimit="10" d="M11.3 2.4s-.1-.6-.5-.6-.5.6-.5.6l-2.7 35h6.3l-2.6-35z"/>
</svg>