<svg xmlns="http://www.w3.org/2000/svg" width="432.3" height="165.3" viewBox="0 0 432.3 165.3">
  <path fill="#00AB9F" d="M228.3 2.8c-2.2.2-3.4.4-4.9.8 68.9 38.3 91.6 105.5 104.8 157.9 32.4-26.9 66.6-22.7 101.4-7.4C412.1 73.7 297.9-3.7 228.3 2.8"/>
  <path fill="none" stroke="#FFF" stroke-width="3.673" stroke-miterlimit="10" d="M228.3 2.8c-2.2.2-3.4.4-4.9.8 68.9 38.3 91.6 105.5 104.8 157.9 32.4-26.9 66.6-22.7 101.4-7.4C412.1 73.7 297.9-3.7 228.3 2.8z"/>
  <path fill="#00AB9F" d="M207.2 2C138.1-1.5 33.3 56.6 3.9 145c-1.3 3.3-2.4 8.7-2 10.1 3.3-3.7 12.4-7.3 12.4-7.3 28.6-9.9 57.6-11.3 88.1 12.9 9.8-51.4 46-130.3 104.8-158.7"/>
  <path fill="none" stroke="#FFF" stroke-width="3.673" stroke-miterlimit="10" d="M207.2 2C138.1-1.5 33.3 56.6 3.9 145c-1.3 3.3-2.4 8.7-2 10.1 3.3-3.7 12.4-7.3 12.4-7.3 28.6-9.9 57.6-11.3 88.1 12.9 9.8-51.4 46-130.3 104.8-158.7z"/>
  <path fill="#00AB9F" d="M217.7 160.3v-.1c4-2.9 20.7-14.8 43.3-16.9 24.1-2.2 42.8 2.7 63.8 16.8-11.4-51.4-38.9-123.1-107-155.5v-.1l-.9-.3c-.1 0-.1-.1-.2-.1l-2.2-.8-2.1.2c-61.9 26.4-99 106.6-105.7 157.9 33.6-24.3 68.6-24.3 105-1l6-.1z"/>
  <path fill="none" stroke="#FFF" stroke-width="3.673" stroke-miterlimit="10" d="M217.7 160.3v-.1c4-2.9 20.7-14.8 43.3-16.9 24.1-2.2 42.8 2.7 63.8 16.8-11.4-51.4-38.9-123.1-107-155.5v-.1l-.9-.3c-.1 0-.1-.1-.2-.1l-2.2-.8-2.1.2c-61.9 26.4-99 106.6-105.7 157.9 33.6-24.3 68.6-24.3 105-1l6-.1z"/>
</svg>