<svg xmlns="http://www.w3.org/2000/svg" width="743.3" height="453.1" viewBox="0 0 743.3 453.1">
  <path fill="none" stroke="#FFF" stroke-width="20" stroke-miterlimit="10" d="M664 337L79.6 442c-38.1 6.8-69.2-19.3-69.2-58.1V199.1c0-38.8 31.2-76.2 69.2-83L664 11.1c38.1-6.8 69.2 19.3 69.2 58.1V254c.1 38.8-31.1 76.2-69.2 83z"/>
  <path fill="none" stroke="#FFF" stroke-width="20" stroke-miterlimit="10" d="M663.6 337L79.2 442c-38 6.9-69.2-19.3-69.2-58.1V199.1c0-38.8 31.2-76.2 69.2-83l584.4-105c38.1-6.8 69.2 19.3 69.2 58.1V254c.1 38.8-31.1 76.2-69.2 83z"/>
</svg>