<svg xmlns="http://www.w3.org/2000/svg" width="73.1" height="117.6" viewBox="0 0 73.1 117.6">
  <path fill="#00A78E" d="M3.2 113l64.6.8-1.2-103.5-64.5-.8"/>
  <path fill="#FFF" d="M10 115.9c-4.3-.1-7.9-4-7.9-8.9L1 9.7c0-4.3 2.7-8 6.5-8.6h.1l55.5.7c4.3.1 7.8 4 7.9 8.9l1.1 97.2c0 2.5-.9 4.9-2.5 6.5-1.4 1.4-3.2 2.2-5.1 2.2l-54.5-.7zm23-15.8c-.1 0-.2.1-.3.1-.1.1-.2.3-.2.4l.1 7.8c0 .3.2.6.5.6l8 .1c.1 0 .2-.1.3-.1.1-.1.2-.3.2-.4l-.1-7.8c0-.3-.2-.6-.5-.6l-8-.1v-1 1zM61.5 94l-.8-76-49.1-.6.8 76 49.1.6zm-15-82.3c.1-.1.3-.5.3-1.1 0-.7-.2-1.1-.3-1.2l-21-.3c-.1.1-.3.5-.3 1.1 0 .7.2 1.1.3 1.2l21 .3z"/>
  <path fill="#00A78E" d="M7.7 2.1l55.4.7c3.8 0 6.8 3.6 6.9 7.9l1.1 97.2c0 4.3-2.9 7.7-6.6 7.7h-.1l-54.4-.7c-3.8 0-6.8-3.6-6.9-7.9l-1-97.3c-.1-3.9 2.4-7 5.6-7.6m39 10.6c.7 0 1.2-1 1.2-2.2 0-1.2-.6-2.2-1.3-2.2L25.4 8c-.7 0-1.2 1-1.2 2.2 0 1.2.6 2.2 1.3 2.2l21.2.3m15.8 82.4l-.9-78-51.2-.6.9 78 51.2.6m-21.4 15.1c.8 0 1.5-.7 1.5-1.6l-.1-7.8c0-.9-.7-1.6-1.6-1.6l-8-.1c-.8 0-1.5.7-1.5 1.6l.1 7.8c0 .9.7 1.6 1.6 1.6l8 .1M7.5 0h-.2C3 .8-.1 4.9 0 9.7L1.1 107c.1 5.4 4.1 9.9 8.9 9.9l54.3.7h.1c2.2 0 4.3-.9 5.9-2.5 1.8-1.8 2.9-4.5 2.8-7.3L72 10.6C71.9 5.2 67.9.7 63.1.7L7.7 0h-.2zm18.8 10.4v-.3l19.5.2v.3l-19.5-.2zm-12.9 82l-.8-73.9 47 .6.8 73.9-47-.6zM33.6 108l-.1-6.9 6.9.1.1 6.9-6.9-.1z"/>
  <path fill="#FFF" d="M17.6 48.7h34.9v20.1H17.6z"/>
  <path fill="#FFF" d="M52.5 68.9l-17.4-16-17.5 16"/>
  <path fill="#00A78E" d="M54.4 69.6H15.7l19.4-17.7 19.3 17.7zm-34.9-1.5h31L35.1 53.9 19.5 68.1z"/>
  <path fill="#FFF" d="M52.2 48.7l-15 13.7c-1.4 1.3-3.6 1.3-5 0l-15-13.7h35z"/>
  <path fill="#00A78E" d="M34.8 64.2c-1.1 0-2.2-.4-3-1.2L15.4 48h38.7L37.8 63c-.8.7-1.9 1.2-3 1.2M19.3 49.5l13.5 12.4c.5.5 1.2.8 2 .8.7 0 1.4-.3 2-.8l13.5-12.4h-31z"/>
</svg>