<svg xmlns="http://www.w3.org/2000/svg" width="134.3" height="73.1" viewBox="0 0 134.3 73.1">
  <path fill="#FFF" d="M132 9.9l-.7-.4c-.9 0-1.9-.2-2.3 1l-1.6 5c-.2.8-.6 1.5-1.2 2-.8.6-2 1.6-3 2.4-1.3 1-3 1.3-4.6.7l-2.8-1-4.8-1.4-3.7-6.3c-.8-3-1.9-3.3-3.6-1.9-.7.6-1.2 1.4-1.2 2.4l-.6 7.2c-.2.2-.5.3-.7.3L49 38.9c-6.7 1.2-10.8 1.4-22.6 1.8h-.6c.6-2.6 1.4-5.7 2.5-9.6 0 0 6.7-23.6 4.5-24L5.1 1C2.3.4 1 45.8 1 45.8v9.1l3.3 16.8c.2 2.9 44.1-9.1 44.1-9.1l8.7-2.6 45.8-26.1c.3-.2 2.8-.7 3.2-.8l12.5-.5c.7-.1 3.5-1.7 4-2.3L131 20c.3-.3.4-.8.3-1.3l1.8-5.5c.5-1.2 0-2.7-1.1-3.3"/>
  <path fill="none" stroke="#00A78E" stroke-width="2" stroke-miterlimit="10" d="M132 9.9l-.7-.4c-.9 0-1.9-.2-2.3 1l-1.6 5c-.2.8-.6 1.5-1.2 2-.8.6-2 1.6-3 2.4-1.3 1-3 1.3-4.6.7l-2.8-1-4.8-1.4-3.7-6.3c-.8-3-1.9-3.3-3.6-1.9-.7.6-1.2 1.4-1.2 2.4l-.6 7.2c-.2.2-.5.3-.7.3L49 38.9c-6.7 1.2-10.8 1.4-22.6 1.8h-.6c.6-2.6 1.4-5.7 2.5-9.6 0 0 6.7-23.6 4.5-24L5.1 1C2.3.4 1 45.8 1 45.8v9.1l3.3 16.8c.2 2.9 44.1-9.1 44.1-9.1l8.7-2.6 45.8-26.1c.3-.2 2.8-.7 3.2-.8l12.5-.5c.7-.1 3.5-1.7 4-2.3L131 20c.3-.3.4-.8.3-1.3l1.8-5.5c.5-1.2 0-2.7-1.1-3.3z"/>
  <path fill="none" stroke="#00A78E" stroke-width="2" stroke-miterlimit="10" d="M129.5 13.8l-23 1.7c-.5 0-1-.4-1-.9l-.1-1c0-.5.4-1 .9-1l23-1.7c.5 0 1 .4 1 .9l.1 1c0 .5-.4 1-.9 1z"/>
</svg>