<svg xmlns="http://www.w3.org/2000/svg" width="296.3" height="613.4" viewBox="0 0 296.3 613.4">
  <path fill="#00BBA2" d="M207 323.9h15.2V428H207z"/>
  <path fill="#55E1C8" d="M241 318.3s-16-10.2-16-65.5h-33.6c0 55.4-16 65.5-16 65.5"/>
  <path fill="#FFF" d="M14.9 187.9c.1.1.2.1.2.2l14.3 8.2c.1 0 .1.1.1.1.6.4 3 2.3 3.3 2.7l3.4 58.5c.1.2 6.7 6 8.6 7.7.4.3.8.5 1.3.6 39.1 4.1 91.1 3.9 87.8 3.6l-16.2-28.8c-.2-1-1.1-1.8-2.1-1.8-9.2-.4-36.7 2.5-40 2.8h-.3c-1.4-.1-16 .7-20.5-1.1-.3-.1-.5-.3-.7-.5l-13.5-55c-.3-.2-.5-.5-.7-.8l-25 3.6zm13.2-37.6c-1.5 5.7 0 11 3.3 11.8 3.3.8 7.1-3.1 8.6-8.8 1.5-5.7 0-11-3.3-11.8-3.3-.8-7.1 3.2-8.6 8.8"/>
  <ellipse transform="rotate(-165.6 34.028 151.792)" fill="none" stroke="#00A78E" stroke-width="1.049" stroke-miterlimit="10" cx="34.1" cy="151.9" rx="6.1" ry="10.6"/>
  <path fill="#FFF" d="M41.9 186c.2 3-2.1 5.6-5.1 5.7L8 193.5c-3 .2-5.6-2.1-5.7-5.1-.2-3 2.1-5.6 5.1-5.7l28.8-1.8c3-.2 5.6 2.1 5.7 5.1"/>
  <path fill="none" stroke="#00A78E" stroke-width=".636" stroke-miterlimit="10" d="M41.9 186c.2 3-2.1 5.6-5.1 5.7L8 193.5c-3 .2-5.6-2.1-5.7-5.1-.2-3 2.1-5.6 5.1-5.7l28.8-1.8c3-.2 5.6 2.1 5.7 5.1z"/>
  <path fill="#FFF" d="M44.3 174.4c.2 3.3-2.3 6.2-5.6 6.4L8 182.6c-3.3.2-6.2-2.3-6.4-5.6-.2-3.3 2.3-6.2 5.6-6.4l30.6-1.9c3.4-.2 6.3 2.4 6.5 5.7"/>
  <path fill="none" stroke="#00A78E" stroke-width=".695" stroke-miterlimit="10" d="M44.3 174.4c.2 3.3-2.3 6.2-5.6 6.4L8 182.6c-3.3.2-6.2-2.3-6.4-5.6-.2-3.3 2.3-6.2 5.6-6.4l30.6-1.9c3.4-.2 6.3 2.4 6.5 5.7z"/>
  <path fill="#FFF" d="M39.8 163.2c.2 3-2.1 5.6-5.1 5.7l-28 1.7c-3 .2-5.6-2.1-5.7-5.1-.2-3 2.1-5.6 5.1-5.7l28-1.7c2.9-.2 5.5 2.1 5.7 5.1"/>
  <path fill="none" stroke="#00A78E" stroke-width=".629" stroke-miterlimit="10" d="M39.8 163.2c.2 3-2.1 5.6-5.1 5.7l-28 1.7c-3 .2-5.6-2.1-5.7-5.1-.2-3 2.1-5.6 5.1-5.7l28-1.7c2.9-.2 5.5 2.1 5.7 5.1z"/>
  <path fill="#FFF" d="M32.6 153c.2 2.8-2 5.3-4.8 5.5l-22.1 1.4c-2.8.2-5.3-2-5.5-4.8-.2-2.8 2-5.3 4.8-5.5l22.1-1.4c2.9-.2 5.4 2 5.5 4.8"/>
  <path fill="none" stroke="#00A78E" stroke-width=".56" stroke-miterlimit="10" d="M32.6 153c.2 2.8-2 5.3-4.8 5.5l-22.1 1.4c-2.8.2-5.3-2-5.5-4.8-.2-2.8 2-5.3 4.8-5.5l22.1-1.4c2.9-.2 5.4 2 5.5 4.8z"/>
  <path fill="#FFF" d="M29.9 182.9c-1.3.1-2.3 1.1-2.2 2.3l.2 3.5c.1 1.2 1.2 2.1 2.5 2 1-.1 2-.1 3-.2.9-.1 3-.2 3.2-.2 2-.1 3.6-2 3.4-4.1-.1-2.1-1.9-3.8-3.9-3.6-.2 0-.8 0-.9.1-1.7 0-3.5.1-5.3.2"/>
  <path fill="none" stroke="#00A78E" stroke-width=".779" stroke-miterlimit="10" d="M29.9 182.9c-1.3.1-2.3 1.1-2.2 2.3l.2 3.5c.1 1.2 1.2 2.1 2.5 2 1-.1 2-.1 3-.2.9-.1 3-.2 3.2-.2 2-.1 3.6-2 3.4-4.1-.1-2.1-1.9-3.8-3.9-3.6-.2 0-.8 0-.9.1-1.7 0-3.5.1-5.3.2z"/>
  <path fill="#FFF" d="M32.2 170.8c-1.3.1-2.3 1.2-2.2 2.5l.2 3.9c.1 1.3 1.2 2.3 2.5 2.2 1-.1 2-.1 3-.2.9-.1 3-.2 3.2-.2 2-.1 3.5-2.1 3.4-4.5-.1-2.4-1.9-4.2-3.9-4.1-.2 0-.8 0-.9.1-1.8.1-3.6.2-5.3.3"/>
  <path fill="none" stroke="#00A78E" stroke-width=".821" stroke-miterlimit="10" d="M32.2 170.8c-1.3.1-2.3 1.2-2.2 2.5l.2 3.9c.1 1.3 1.2 2.3 2.5 2.2 1-.1 2-.1 3-.2.9-.1 3-.2 3.2-.2 2-.1 3.5-2.1 3.4-4.5-.1-2.4-1.9-4.2-3.9-4.1-.2 0-.8 0-.9.1-1.8.1-3.6.2-5.3.3z"/>
  <path fill="#FFF" d="M28 159.9c-1.3.1-2.3 1.1-2.2 2.3l.2 3.5c.1 1.2 1.2 2 2.5 2 1-.1 2-.1 3-.2.9-.1 3-.2 3.2-.2 2-.1 3.6-1.9 3.4-4.1-.1-2.1-1.9-3.8-3.9-3.6-.2 0-.8 0-.9.1-1.8 0-3.6.1-5.3.2"/>
  <path fill="none" stroke="#00A78E" stroke-width=".778" stroke-miterlimit="10" d="M28 159.9c-1.3.1-2.3 1.1-2.2 2.3l.2 3.5c.1 1.2 1.2 2 2.5 2 1-.1 2-.1 3-.2.9-.1 3-.2 3.2-.2 2-.1 3.6-1.9 3.4-4.1-.1-2.1-1.9-3.8-3.9-3.6-.2 0-.8 0-.9.1-1.8 0-3.6.1-5.3.2z"/>
  <path fill="#FFF" d="M21.2 150.1c-1.2.1-2.1 1-2 2.1l.2 3.3c.1 1.1 1.1 2 2.3 1.9.9-.1 1.8-.1 2.8-.2.8 0 2.8-.2 3-.2 1.9-.1 3.3-1.8 3.2-3.9-.1-2-1.7-3.6-3.6-3.5-.2 0-.7 0-.8.1-1.9.2-3.5.3-5.1.4"/>
  <path fill="none" stroke="#00A78E" stroke-width=".73" stroke-miterlimit="10" d="M21.2 150.1c-1.2.1-2.1 1-2 2.1l.2 3.3c.1 1.1 1.1 2 2.3 1.9.9-.1 1.8-.1 2.8-.2.8 0 2.8-.2 3-.2 1.9-.1 3.3-1.8 3.2-3.9-.1-2-1.7-3.6-3.6-3.5-.2 0-.7 0-.8.1-1.9.2-3.5.3-5.1.4z"/>
  <path fill="#FFF" d="M195.9 611.6s-2.3-17.6-38.3-16c-36 1.5-38.8 13.2-40.2 16.3m165.6 1.2s-2.3-17.6-38.3-16c-36 1.5-38.8 13.2-40.2 16.3"/>
  <path fill="#FFF" d="M156.9 611.7l-6.8-194.2h101.2L249 611.7h-41.3V454.3c0-4.1-1.5-7.5-6.1-7.5s-6.1 3.4-6.1 7.5v157.4h-38.6zM188 196.4s.5 17.5-7.7 22.3c-7.4 4.3-10.8 5.3-10.8 5.3s36.2 14.5 65.2 2.8c-15.6-4.2-14.6-9.6-14.6-9.6l-2.8-18.1-29.3-2.7z"/>
  <path fill="#FFF" d="M291 301.4l-36.3 8.4-4-17.2 4.2 42c.5 7.1.8 30.3-.8 51.3l-3.6 27.9h-99.2l-3.6-32.8c-1.1-17.3.1-43 .7-49.6l3.2-57.8-29.1 8.5-20.2-48.3s11.6 6.4 35.4-2.3c32.5-11.9 33.2-7.4 33.2-7.4l33.4 5.4 31.8-2.6s29.5 7.4 42 34.4 12.4 39.9 12.4 39.9"/>
  <path fill="none" stroke="#00A78E" stroke-width="2.182" stroke-miterlimit="10" d="M291 301.4l-36.3 8.4-4-17.2 4.2 42c.5 7.1.8 30.3-.8 51.3l-3.6 27.9h-99.2l-3.6-32.8c-1.1-17.3.1-43 .7-49.6l3.2-57.8-29.1 8.5-20.2-48.3s11.6 6.4 35.4-2.3c32.5-11.9 33.2-7.4 33.2-7.4l33.4 5.4 31.8-2.6s29.5 7.4 42 34.4 12.4 39.9 12.4 39.9"/>
  <path fill="#FFF" d="M267.3 448.4c-1 0-2-.4-2.7-1.1l-.8-.8-.2-.5c-.2-.8-.8-2.4.9-3.5l4.4-2.9c.6-.4 1-.8 1.2-1.2l1.5-3.6c.5-1.2.4-2.5-.4-3.6l-.9-1.2-5.6 7.3-1.4 1.8h-.5c-1.7 0-2.8-.5-3.5-1.5-.8-1.3-.6-3.2.7-5.8l5.3-17.5c.1-.2.1-.3.1-.5l4.6-56c-.4-3.1-1.4-7.4-2.8-12.6-.1-.2-.1-.4-.1-.5-3.7-11.8-9.6-31.9-8.2-34.3.2-.3.5-.6.9-.6l28.2-5.6h.2c1.4 0 2.8 0 5 23.7 1.1 11.3 1.8 22.6 1.8 22.8v9.3l-13.1 51.9c0 .3.1 2.5.1 2.8l2.9 12.2c.2 1.2-.8 4.6-1.3 5.4l-7.7 11.1c-.4.5-.9.9-1.6 1.1l-4.7 3.2c-.8.5-1.5.7-2.3.7"/>
  <path fill="#00A78E" d="M288.3 305.3c2.8 0 5.8 45.5 5.8 45.5l-.2 9.2-13.1 51.8c-.1.4.1 2.9.1 3.3l2.9 12.3c.1.8-.7 3.9-1.2 4.5l-7.7 11.1c-.3.4-.7.6-1.1.7l-4.9 3.3c-.5.3-1.1.5-1.6.5-.7 0-1.4-.3-2-.7l-.6-.6c-.3-.9-.7-1.8.4-2.5l4.4-2.9c.8-.4 1.3-1 1.6-1.7.4-.9 1-2.3 1.5-3.6.7-1.6.5-3.3-.5-4.7l-1.7-2.4-6.5 8.4-1.1 1.4h-.1c-3.6 0-3.1-2.9-1.7-5.8l5.3-17.5c.1-.3.1-.5.1-.8L271 358c-.8-5.6-2.9-13.2-3-13.4 0 0-10.3-33.1-8.1-33.5l28.4-5.8m0-2.2h-.5l-28.1 5.5c-.7.1-1.3.6-1.6 1.2-.6 1.1-1.3 2.3 3.4 19.3 2.2 7.8 4.5 15.4 4.7 15.9 0 .1.1.3.1.5 1.4 5.2 2.3 9.3 2.8 12.4l-4.6 55.9v.3l-5.3 17.4c-.9 1.9-1.9 4.7-.6 6.8.6.9 1.8 2 4.3 2h1.2l.6-.8 1.1-1.4 4.7-6.1c.6.8.7 1.7.3 2.6l-1.3 3-.3.6c-.1.2-.4.5-.7.7h-.2l-4.4 2.9c-2.3 1.6-1.6 3.9-1.3 4.7l.1.2.2.5.4.4.6.6c.9.9 2.1 1.4 3.5 1.4 1 0 2-.3 2.8-.8l4.6-3.1c.8-.3 1.5-.8 2-1.5l7.7-11.1c.7-1 1.7-4.7 1.5-6.1v-.2l-2.8-12.2c0-.5-.1-2-.1-2.5l13-51.6.1-.2v-.2l.2-9.2v-.2c0-.1-.8-11.5-1.8-22.8-.6-6.6-1.3-11.9-1.9-15.8-1.1-6.4-1.9-9-4.4-9"/>
  <path fill="#00BBA2" d="M197.8 124.2h81.3s-34.5-24.2-81.3 0"/>
  <path fill="#FFF" d="M263.1 119.3s2.1-18.3 7.7-13.2c4.7 4.2 6.9 23.8 4.1 37.5-1.3 6.1-8.5 13-11.6 10-3-3-.2-34.3-.2-34.3"/>
  <path fill="none" stroke="#00A78E" stroke-width="2.182" stroke-miterlimit="10" d="M263.1 119.3s2.1-18.3 7.7-13.2c4.7 4.2 6.9 23.8 4.1 37.5-1.3 6.1-8.5 13-11.6 10-3-3-.2-34.3-.2-34.3"/>
  <path fill="#FFF" stroke="#00A78E" stroke-width="2" stroke-miterlimit="10" d="M138.2 90.4c.1 6.4-4.2 57.9 13.8 80.5 10.2 12.8 24.5 25.2 32.8 27.1 13.5 3.2 22.3 5.6 34.2 3 11.9-2.6 29.5-15.1 40.3-39.1 5.2-11.4 19.1-101.3-6.8-126.7-17-16.7-54.1-14.5-68.6-13.9-14.3.7-46.3 5.8-45.7 69.1"/>
  <path fill="#00A78E" d="M135.5 101.7s-11.9-30.8-9.5-43.1c2.4-12.3 8.5-23.4 30.2-43.1C170.4 2.6 195.5.4 198.3 3.6c4.2 4.8 11.6 6.9 16.9.8 5.3-6.2 24-2.2 21.7 2.8 10-5.8 17 4.9 17 4.9s37.7 4.8 17.1 102.3c-1.8 8.6-3.9 18.3-3.9 18.3-7.6.5-.8-11.4.4-47.3 1.6-49.6-44.4-38.7-61.4-40.6-20.6-2.3-55.2-5-61.4 21.6-6.2 26.6-3.4 62.4-3.4 62.4l-5.7 5.8v-32.9z"/>
  <path fill="none" stroke="#FFF" stroke-width="2.182" stroke-miterlimit="10" d="M135.5 101.7s-11.9-30.8-9.5-43.1c2.4-12.3 8.5-23.4 30.2-43.1C170.4 2.6 195.5.4 198.3 3.6c4.2 4.8 11.6 6.9 16.9.8 5.3-6.2 24-2.2 21.7 2.8 10-5.8 17 4.9 17 4.9s37.7 4.8 17.1 102.3c-1.8 8.6-3.9 18.3-3.9 18.3-7.6.5-.8-11.4.4-47.3 1.6-49.6-44.4-38.7-61.4-40.6-20.6-2.3-55.2-5-61.4 21.6-6.2 26.6-3.4 62.4-3.4 62.4l-5.7 5.8v-32.9z"/>
  <path fill="#FFF" d="M141 116.2s-2.7-18.2-8.7-13c-6.3 5.5-5.7 29-3.5 37.6 1.5 6.1 9.6 12.7 12.8 9.7 3.3-3.1-.6-34.3-.6-34.3"/>
  <path fill="#00A78E" d="M221 116.7c.6 3.4 3.8 5.8 7.3 5.2 3.5-.6 5.9-3.8 5.3-7.3-.6-3.4-3.8-5.8-7.3-5.2-3.5.6-5.9 3.9-5.3 7.3"/>
  <path fill="#00A78E" d="M252.4 110.5c-.1 0-10-6.8-20.2-5.2-5.2.8-10.6 4-14.5 11.4l1.8 1.6c3.6-6.8 8.3-9.6 13.1-10.4 4.7-.8 9.4.4 13 1.9 1.8.7 3.3 1.5 4.3 2.1.5.3.9.5 1.2.7l.4.3.9-2.4z"/>
  <path fill="#FFF" d="M225.6 115.8c.2 1.2-.3 2.3-1.1 2.4-.8.1-1.6-.7-1.8-1.9-.2-1.2.3-2.3 1.1-2.4.8-.1 1.7.7 1.8 1.9"/>
  <path fill="#00A78E" d="M168.4 115.6c.7 3.4-1.6 6.8-5.1 7.4-3.5.7-6.8-1.6-7.5-5-.7-3.4 1.6-6.8 5.1-7.4 3.5-.7 6.8 1.5 7.5 5"/>
  <path fill="#00A78E" d="M153.7 119.5l.3-.4c1.4-1.8 7.6-9.1 15.8-10.7 4.8-.9 10.1.1 15.9 5.2l1.2-2.1c-6.2-5.6-12.3-6.8-17.5-5.8-10.2 2-17.1 11.8-17.2 11.8l1.5 2z"/>
  <path fill="#FFF" d="M159.6 117.1c.2 1.2-.2 2.3-1 2.4-.8.2-1.6-.7-1.9-1.9-.2-1.2.2-2.3 1-2.4.9-.1 1.7.7 1.9 1.9"/>
  <path fill="#00A78E" d="M185.5 73.6s9.1 5.9 2.6 8.3c-6.6 2.3-18 1.6-22.8 3.5-4.8 1.9-13.8 7.1-13.8 7.1l-1.2-4c-.1-.1 11.2-14.6 35.2-14.9m36.7 6.2s-7.9 7-1 8.5 18-.5 23.1.8c5 1.3 14.9 5.4 14.9 5.4l.5-4.1c0-.1-13.8-13.2-37.5-10.6"/>
  <path fill="#00AB9F" d="M197.6 145.3s.5.1 1.4.2c.9.1 2.1.4 3.6.5 1.5.2 3.3.4 5 .1.8-.1 1.6-.4 2-.8.1 0 .1-.1.1-.2s.1-.1.1-.2v-.1.1-.1l.1-.4c.2-.5.1-.9.2-1.3.1-1 .1-1.9.1-2.9s0-1.9-.1-2.9c-.1-1.9-.2-3.7-.3-5.2-.2-3-.3-5.1-.3-5.1s.8 1.9 1.5 4.9c.2.7.4 1.6.5 2.4.2.9.3 1.8.5 2.8s.3 2 .3 3c.1 1 .1 2.1 0 3.2-.1.6-.2 1.2-.3 1.7l-.1.4v.2l-.1.2c-.1.3-.4.6-.6.9-.5.5-1.1.8-1.7 1-.6.2-1.1.2-1.7.3-1.1.1-2-.1-2.9-.2-.9-.2-1.7-.4-2.5-.6-1.5-.5-2.7-1-3.5-1.4-.9-.2-1.3-.5-1.3-.5m-10.4 28.1s19.3 6.2 34.5.2c-2 4.7-21.7 13.7-34.5-.2"/>
  <path fill-rule="evenodd" clip-rule="evenodd" fill="#00A78E" d="M274.6 99c-.7-.8-3-1.2-3.9-1.4-4.7-.9-9.8-1-14.5-1.4-6.7-.6-13.4-.7-20.1-.3-5.9.3-11.7 1.4-17.3 3-5 1.4-10.3 3.6-15.6 3.8v7.5c1.4 0 2.6.1 3.5 1.1 2.4 2.6 3.5 8.4 5.7 13.6 3.4 8 8.3 13.7 16.3 16.8 10.4 4.2 26.6 2.9 34.1-6.8 2-2.6 3.4-5.9 4.3-9.3 1.3-4.9 1.6-10 2.5-13.6.3-1.3.8-2.5 1.7-3.5.8-.8 2.1-.8 2.7-1.9.4-.7.5-2.2.6-3.1 0-1.2.9-3.5 0-4.5m-10 18.5c-.6 7.2-3.6 14.7-9.7 18.9-6.8 4.7-16.8 4.6-24.3 1.8-5.7-2-9.4-6.2-12.2-11.5-1.1-2-1.8-4.4-2.4-6.6-1.2-4.1-1.8-8.9.4-12.8 1.2-2.1 3.3-3.7 5.7-4.8 2.1-1 4.5-1.6 6.6-2 5-.8 10.2-1 15.3-.9 6.3.1 12.4.5 17.2 5 3.3 3.4 3.8 8.4 3.4 12.9m3.3-14c-.9-.1-2.7-.3-3.3-.9-1.2-1.3 2.3-1.3 3.3-1.2.9.1 2.6.3 3.2.9 1.3 1.3-2.2 1.3-3.2 1.2m-136.1.1c.1.8.2 2.3.6 3.1.6 1.1 1.9 1.1 2.7 1.9.9 1 1.4 2.3 1.7 3.5.9 3.6 1.2 8.7 2.5 13.6.9 3.4 2.3 6.7 4.3 9.3 7.5 9.7 23.7 11 34.1 6.8 8-3.2 12.9-8.8 16.3-16.8 2.2-5.2 3.3-11 5.7-13.6.9-1 2.1-1 3.5-1.1v-7.5c-5.3-.2-10.5-2.4-15.6-3.8-5.7-1.6-11.4-2.7-17.3-3-6.7-.4-13.5-.3-20.1.3-4.8.4-9.8.5-14.5 1.4-1 .2-3.3.6-3.9 1.4-1.1.9-.2 3.2 0 4.5m13.4 1.1c4.8-4.6 10.9-4.9 17.2-5 5-.1 10.3.1 15.3.9 2.1.3 4.4 1 6.6 2 2.4 1.1 4.4 2.7 5.7 4.8 2.2 3.9 1.6 8.7.4 12.8-.6 2.2-1.3 4.6-2.4 6.6-2.8 5.2-6.6 9.4-12.2 11.5-7.5 2.7-17.5 2.8-24.3-1.8-6.1-4.2-9.1-11.7-9.7-18.9-.6-4.6 0-9.6 3.4-12.9m-10.1-2.5c.6-.6 2.3-.8 3.2-.9 1-.1 4.5-.1 3.3 1.2-.6.6-2.4.9-3.3.9-1 .2-4.5.2-3.2-1.2"/>
  <path fill="#00AB9F" d="M208.5 151.7c-2.7 3.5-2.7 8.8-.2 12.4 3 4.2 10.3 5.9 15.6 6.6 6.2.7 13 .3 19-.9 4.8-.9 8.6-3.3 9.7-7.5 0-.2-.2-.3-.3-.2-3.9 2.6-10.3 1.1-13.7-1.5-3.6-2.6-6-6-10-8.3-5.8-3.4-14.8-6.1-20.1-.6-.2.2.2.4.4.2 6.9-7.1 19.5-.4 25 4.8 2.5 2.3 4.7 5 8.2 6.2 2.6.9 6.9 1.1 9.4-.1.8-.4.4-.1.2.6-.4 1.2-1.4 2.2-2.4 3.1-1.7 1.5-4.3 2.2-6.6 2.7-5 1.1-10.6 1.3-15.8 1.1-6-.2-12.4-1.7-16.9-5.2-4-3.1-4-9.7-1.2-13.4.2 0-.2-.2-.3 0"/>
  <path fill="#00A78E" d="M207.3 150.7c2-1.1 4.2-1.7 6.5-1.8h2.3c2.8.2 5.8.9 8.7 1.8-2-1.3-4.3-1.3-6.3-1.9-.6-.1-1.3-.2-1.9-.3-3.2-.3-6.5.2-9.5 1.9-.1 0 .3.3.2.3m-.6.7c2.5-1.1 5.2-1.4 8-1.2.7 0 1.4.1 2 .1 3.6.1 7.4.7 10.8 2.3.7.3 1.3.7 1.9 1.1 1.3.5 2.3 2.1 3.9 2.5-1.3-1.6-3.3-2.3-5.1-3.6-.7-.4-1.4-.7-2.2-.9-3.7-1.3-7.9-1.5-11.9-1.7-.7 0-1.3-.1-2-.1-2 0-3.9.4-5.8 1.4.1-.2.4.1.4.1"/>
  <path fill="#00A78E" d="M206.5 151.4c1.4-.3 2.9-.3 4.3-.3.7 0 1.4.1 2.1.2 4.8.3 9.8.7 14.3 2.3.6.2 1.3.4 1.9.7 1.8.5 3.4 1.5 4.9 2.6l1.5 1.2c3.1 2.8 6.7 7.4 11.6 6.1-4.6-.3-7.6-3.6-11-6.1-.5-.4-1.1-.8-1.6-1.2-2.2-1.6-4.6-2.9-7.3-3.7-.6-.2-1.3-.4-2-.6-3.3-.9-6.8-1.2-10.2-1.6l-2.1-.3c-2.2-.2-4.3-.1-6.5.6 0 .1.3.1.1.1m-2 2.3c-1.3 5.2 1.9 9.8 6.2 12.4.6.4 1.3.7 1.9 1 3 1.1 5.9 2.7 9.2 2.9.8.1 1.5.3 2.3.4 4.3.9 8.4 1.3 12.6.9.6-.1 1.1-.1 1.7-.1h3.8c-2.3-.7-4.6-.7-7-.1-.7 0-1.3.1-2 .1-3.4 0-6.8-.4-10.2-1.2l-1.5-.3c-2-.4-4-1-6.1-1.7-.8-.3-1.6-.7-2.3-1-5.7-2.1-8.7-7.4-8.6-13.3"/>
  <path fill="#00A78E" d="M204.7 153.1c.2 3.9 1.9 7.8 4.9 10.5.5.5 1 .9 1.6 1.2 2.9 1.8 6.1 3.2 9.3 4.1.6.2 1.3.3 1.9.5 1.3.3 2.7.3 3.6 1-2-.7-3.6-1.3-5.7-2-.7-.2-1.3-.4-2-.6-2.7-.8-5.2-1.9-7.6-3.4-.6-.4-1.1-.9-1.6-1.5-2.2-2.6-3.5-6.3-4.4-9.8m8.2-1.7c3.1.5 6.3 1 9.4 1.9.8.2 1.5.5 2.3.8 3.9 1.7 7.4 4 11.1 6.2.6.4 1.1.6 1.6.9 2.6 1.3 5.5 3.6 8.8 3-3-.7-5.9-1.6-8.6-3.5-.6-.3-1.1-.7-1.7-1-3.4-2-6.7-3.9-10.4-5.4-.7-.3-1.3-.6-2-.9-3.4-1.4-7-2.2-10.8-2.3l.3.3m-7.7 1.5c1.3.4 2.6.8 3.8 1.1.6.2 1.3.3 1.9.5 3.6.4 6.4 2.4 9.1 4.6.5.4 1.1.9 1.6 1.3 2.9 2.9 6.4 4.9 10.2 6.1.8.2 1.5.4 2.3.6 6.1 1.4 14 3 18.9-1.9-5.6 3.6-12.8 3.3-19.1 1.4-.7-.2-1.5-.4-2.2-.7-3.6-1.3-7-3.4-9.9-6-.4-.4-.9-.8-1.4-1.2-.5-.4-.9-.9-1.4-1.3-2.6-2-6.2-2.6-9.3-3.7-.8-.2-1.5-.4-2.3-.6-.8-.2-1.5-.4-2.2-.6.2.2.2.2 0 .4"/>
  <path fill="#00A78E" d="M214.8 151.8c2.3.7 4.4 1.7 6.4 2.7.7.4 1.4.7 2 1.1 3.1 1.7 6.1 3.4 9.2 4.9.6.3 1.3.6 1.9.9 6.2 2.8 14.8 5.4 20.4.5-5.9 3.9-14.5 2.6-20.2-1.2l-1.8-.9c-3-1.5-6-3.2-9-4.8-.7-.4-1.4-.7-2.1-1.1-2.1-1-4.3-1.9-6.7-2.5 0 0 0 .3-.1.4"/>
  <path fill="#00A78E" d="M205.1 152.9c.7 1.3 1.7 2.3 2.8 3.2.5.4 1.1.8 1.7 1.2 3.6 2 7 4.1 10.6 5.9.6.3 1.1.6 1.7.9 3.1 1.8 6.3 3 9.7 3.9.7.2 1.4.3 2 .4 6.2 1.5 13.4 1.9 19-1.8-5.3 2.3-11.2 3-16.7 1.8-.7-.1-1.4-.2-2.1-.4-5.1-1-9.8-3.2-14.4-5.8-.6-.3-1.2-.7-1.9-1-1.9-1-3.7-2.1-5.5-3.2-.5-.3-1.1-.7-1.7-1-1.8-1.2-3.6-2.5-5.2-4.1m.3-.3c2.6-.4 5.1-.2 7.4.5.7.2 1.3.3 2 .6 2.4.6 4.5 1.9 6.4 3.3.6.5 1.3 1 1.9 1.5 3.1 3.6 7.2 6.4 11.8 7.7.6.2 1.2.4 1.7.5 5.7.9 12 1.2 16.9-1.8-5.9 2-12.5 2.6-18.4.6-.6-.2-1.3-.4-1.9-.7-3.2-1.3-6.2-3.4-8.8-5.9-.5-.4-1-.9-1.6-1.3-2.4-2-5-3.7-8.2-4.6-.7-.2-1.3-.4-2.1-.6-2.4-.6-4.8-.6-7.1.2"/>
  <path fill="#00A78E" d="M205.9 151.8c2-.5 4.1-.7 6.2-.4.7.1 1.3.2 2 .4 2.3.7 4.4 1.9 6.3 3.3.7.5 1.3.9 2 1.4 3.7 2.8 7.9 5 12.2 6.6.7.3 1.3.5 1.9.7 5.7 2.4 13 2.7 18.2-.9-5.9 2.6-12.5 3.3-18.3.6-.6-.2-1.2-.5-1.9-.8-4.1-1.7-8-4-11.6-6.4l-1.8-1.2c-1.8-1.2-3.7-2.3-5.7-3.3-.6-.2-1.1-.3-1.7-.5-2.5-.7-5.3-.7-7.8.5m-.8.7c.6 2.3 1.6 4.3 2.9 6.2.4.6.9 1.2 1.4 1.7 3.2 3.5 7.4 6.2 12 7.7l1.8.6c4.4 1.3 8.9 2 13.3 1.7.7 0 1.4 0 2-.1 5.1-.3 10.3.1 13.9-3.5-4.6 2.6-9.5 3.3-14.7 3.1-.6 0-1.2 0-1.8.1-5.4.3-11-.7-16.1-2.7-.6-.2-1.3-.5-1.9-.8-3.1-1.5-5.9-3.7-8.1-6.5-.5-.6-.9-1.1-1.4-1.7-1.3-1.8-2.3-3.8-3-5.9 0 0-.3.3-.3.1"/>
  <path fill="#00A78E" d="M205.7 153.5c1.5 1.4 2.9 3 4.4 4.5.5.5.9 1 1.4 1.5 1.7 2 3.6 3.6 5.8 4.8.7.4 1.5.8 2.2 1.1 4.7 2.3 9.8 4 14.9 4.3.7 0 1.5.1 2.2.1 5.1-.1 10.3.3 14.9-2.4-4.3 1.3-8.6 2.3-13.2 2.1h-2.1c-4.8.1-9.6-1.2-14-3.4-.6-.3-1.3-.7-1.9-1.1-4-2.2-7.6-5.4-11-8.6-.6-.5-1.1-1.1-1.7-1.6-.5-.6-1-1.2-1.4-1.8-.2.4-.5.4-.5.5"/>
  <path fill="#00A78E" d="M205.5 153.2c.6.4 1.3.7 1.9 1 .7.3 1.3.6 2 1 3.9 1.9 7.8 3.9 11.7 6.1.6.4 1.2.7 1.7 1.1 2.9 1.9 5.6 4.2 8.9 5.5-3.3-2.6-7.2-3.9-10.3-7-.6-.4-1.2-.8-1.9-1.2-3.2-1.9-6.3-3.8-9.7-5.1-.7-.3-1.4-.5-2.1-.8-.7-.2-1.5-.4-2.2-.6"/>
  <path fill="none" d="M208.5 151.7c-.1 0-.1 0 0 0 0-.1 0-.1 0 0 0-.1 0-.1 0 0m0-.1c0 .1 0 .1 0 0 0 .1 0 .1 0 0-2.7 3.5-2.7 8.9-.2 12.4 3 4.2 10.3 5.9 15.6 6.6 6.2.7 13 .3 19-.9 4.8-.9 8.6-3.3 9.7-7.5 0-.2-.2-.3-.3-.2-3.9 2.6-10.3 1.1-13.7-1.5-3.6-2.6-6-6-10-8.3-3.4-2-7.9-3.7-12.1-3.7-3 0-5.8.9-8 3.1"/>
  <path fill="#00AB9F" d="M204.7 151.7c2.7 3.5 2.7 8.8.2 12.4-3 4.2-10.3 5.9-15.6 6.6-6.2.7-13 .3-19-.9-4.7-.9-8.6-3.3-9.7-7.5 0-.2.2-.3.3-.2 3.9 2.6 10.3 1.1 13.7-1.5 3.6-2.6 6-6 10-8.3 5.8-3.4 14.8-6.1 20.1-.6.2.2-.2.4-.4.2-6.9-7.1-19.5-.4-25 4.8-2.5 2.3-4.7 5-8.2 6.2-2.6.9-6.9 1.1-9.4-.1-.8-.4-.4-.1-.2.6.4 1.2 1.4 2.2 2.4 3.1 1.7 1.5 4.3 2.2 6.6 2.7 5 1.1 10.6 1.3 15.8 1.1 6-.2 12.4-1.7 16.9-5.2 4-3.1 4-9.7 1.2-13.4-.3 0 .1-.2.3 0"/>
  <path fill="#00A78E" d="M203.8 151.4c-3-1.5-6.3-2.1-9.6-2.1-.6 0-1.3.1-1.9.1-1.9.2-3.8.7-5.7 1.5 1.3-.9 2.7-1.4 4.2-1.7.7-.1 1.5-.2 2.2-.3 3.7 0 7.7.3 11 2.3.1 0-.3.3-.2.2"/>
  <path fill="#00A78E" d="M204.4 152c-3.6-1.8-7.6-1.5-11.1-1.4-.7 0-1.5.1-2.3.1-3.7.4-7.3 1.5-10.6 3.9-.8.4-1.5.8-2 1.6.2-1.2.7-1.6 1.4-2 .7-.3 1.5-.5 2.2-1 3.3-2.2 7.1-3.1 11-3.1h2.3c3.4.1 6.4.4 9.3 1.4.1 0-.2.3-.2.5"/>
  <path fill="#00A78E" d="M204.5 152c-3.7-.5-7.7-.2-11.2.2-.7.1-1.3.2-2 .3-4.2.5-8.2 1.6-12.1 3.1-.7.3-1.3.7-1.9 1.2-3 2.1-5.7 5.1-9.2 6.5-.6.2-1.2.3-1.9.4s-1.3-.1-2-.3c1-.1 2-.2 3-.4.5-.1.9-.2 1.4-.3 3.2-1.8 5.8-4.6 8.9-6.6.6-.4 1.3-.7 1.9-1.1 2.8-1 5.8-1.7 8.8-2.2.8-.1 1.5-.2 2.3-.4 4.5-1.2 9.1-1.2 13.7-.8.2-.1.2.2.3.4m2.1 2.2c.8 5.2-1.5 10.5-6.3 12.5-.7.4-1.5.7-2.3 1-2.4 1.1-5.2 1.8-8.2 2.3-.9.2-1.8.3-2.7.4-4.7.5-8.9 1.4-13.6.5-.7-.2-1.4-.2-2.1-.1-.7 0-1.5 0-2.1-.3h2.1c4.1.3 8.4.3 12.7-.2.9-.1 1.8-.3 2.7-.4 3.6-.4 7.1-1.2 10.1-2.3.8-.3 1.5-.6 2.1-.9 4.8-1.9 8.7-7.1 7.1-12.7.3.1.3.1.5.2"/>
  <path fill="#00A78E" d="M206.3 153.7c-.6 5.7-3.6 11.3-9.5 13.4-.6.1-1.2.2-1.9.6-.6.2-1.3.4-1.9.6-1.9.6-4 1.1-5.9 1.6-.8.2-1.5.5-2.2.7.1-.1-.2-.4-.2-.4 1.3-.3 2.6-1 3.8-1.2.7-.2 1.3-.3 2-.5s1.3-.4 2-.6c.7-.2 1.3-.4 2-.6 6.6-1.3 10.9-7.2 11.6-13.8-.1 0 .3.3.2.2m-7.5-1.8c-2.9 0-5.9.6-8.5 1.5-.7.2-1.4.5-2.1.7-2 .8-4 1.8-5.9 2.8-.6.3-1.1.7-1.7 1-4.4 2.4-8.5 5.2-13.6 5.6-.5.1-1.1.1-1.6.2.6-.3 1.2-.6 1.8-.7.6-.2 1.2-.3 1.8-.4 3.3-.9 6.3-2.5 9.4-4.1l1.8-.9c3.7-1.9 7.4-3.8 11.3-4.8.8-.2 1.5-.4 2.3-.6 1.4-.4 3.4-1.3 5-.3"/>
  <path fill="#00A78E" d="M205.8 153.5c-5.1 1-10 2.3-13.7 5.7-.5.4-1.1.8-1.7 1.2-2.4 1.7-4.7 3.4-7.3 4.6-.6.3-1.2.7-1.9.9-3.2 1.4-6.5 2.3-10.2 1.9-.7 0-1.4-.1-2.2-.2-3.9-.2-7.8-1.3-11.3-2.7 3.1.4 6.2 1.6 9.3 2.1.6.1 1.3.2 1.9.2 5 .4 10.3-.6 14.7-3 .6-.3 1.2-.6 1.7-.9.7-.5 1.3-.9 1.9-1.4.6-.5 1.3-.9 1.9-1.4 5-3.7 10.6-7 16.9-7"/>
  <path fill="#00A78E" d="M197.1 152.1c-2.6.7-5.2 2-7.4 3.3-.6.3-1.2.6-1.8 1-1.8 1-3.6 1.9-5.4 2.7-.6.3-1.1.6-1.7.9-4.5 2.1-9.1 4.2-14.1 3.8h-2.2c-2.9-.1-5.7-.7-8.1-2 2.3.7 4.7 1.2 7.1 1.5.8.1 1.6.1 2.4.1 4.3.2 8.5-1 12.4-2.7.7-.3 1.3-.6 2-.9 3.5-1.5 6.8-4.2 10.3-5.9.7-.3 1.4-.7 2.1-.9 1.5-.5 2.8-.8 4.4-.9"/>
  <path fill="#00A78E" d="M205.9 153.4c-4.2 4.7-9.8 7.7-15.2 9.9-.7.3-1.5.7-2.3 1-1.5.7-3 1.3-4.6 2.1-.7.3-1.3.6-2 .8-3.4 1.3-7 2-10.9 1.8h-1.8c-3.8-.2-7.6-1.5-10.8-3.2 3.5 1.2 7.2 2.5 11 2.7.7.1 1.4.2 2.1.2 3.4.2 6.7-.6 9.9-1.9.6-.2 1.3-.5 1.9-.8 1.9-1 3.8-1.8 5.8-2.7.7-.3 1.3-.6 2-.8 5.8-1.8 9.8-6.1 14.9-9.1"/>
  <path fill="#00A78E" d="M205.7 153.1c-5.9-.6-11.8 1.4-16.2 5.6-.7.5-1.3 1-2 1.5-2 1.5-3.9 2.9-6.1 4-.8.4-1.5.8-2.3 1.1-3.9 1.7-8.1 2.4-12.5 1.1-.8-.1-1.6-.2-2.4-.4-2.4-.4-4.7-1.1-6.9-1.7 3.5 0 7 .8 10.4 1.2.7.1 1.3.2 1.9.3 3.7.9 7.1.1 10.2-1.3.6-.3 1.2-.6 1.8-1 2.9-2.1 5.7-4.7 8.8-6.8.6-.4 1.1-.8 1.7-1.2 4.3-2.4 8.9-4.1 13.8-2.7.1 0-.2.4-.2.3"/>
  <path fill="#00A78E" d="M205.2 152.4c-6.1-1.9-11.7 1.1-16 4.7-.6.5-1.3.9-1.9 1.4-1.9 1.4-3.9 2.6-6 3.4l-2.1.9c-3.5 1.4-7.2 2.2-10.9 2h-2c-3.5-.1-6.8-.7-9.9-2.4 3.3.8 6.6 1.5 9.8 1.8.7.1 1.3.1 1.9.1 4.6.2 8.9-1.1 13.1-3 .7-.3 1.3-.6 1.9-.9 2.6-1 5-2.9 7.5-4.6.6-.4 1.2-.9 1.8-1.3 3.4-2.7 8.4-4.6 12.8-2.1"/>
  <path fill="#00A78E" d="M206 153.1c-1.9 4.7-4.5 9.3-9.3 11.7-.6.4-1.3.7-2 1.1-2.1 1.2-4.5 2-6.8 2.6-.8.2-1.5.4-2.3.7-4.5 1.1-9.2 1.4-13.6.9-.6-.1-1.3-.1-2-.1-4.1-.2-8.4-1-11.3-3.9 2.6 1.6 5.5 2.6 8.5 3.2.7.1 1.5.2 2.2.3 6.1.5 12.3.8 18.4-1.3.7-.2 1.5-.4 2.2-.7 1.4-.4 2.7-.9 4-1.6.6-.3 1.2-.7 1.8-1 4.3-2.9 7.9-6.9 9.6-12.1 0-.1.6-.1.6.2"/>
  <path fill="#00A78E" d="M205.3 154c-3.9 4.1-7.5 9-13 11l-1.8.9c-1.2.6-2.5 1.1-3.8 1.6-.7.3-1.4.5-2.1.8-4.8 1.7-10.1 2.4-15.2 1.2-.7 0-1.4-.1-2-.2-2.7-.4-5.3-1.1-7.8-2.6 3.3.8 6.4 1.8 9.8 2.2.7.1 1.3.2 1.9.3 4.9.6 9.7-.1 14-1.7.6-.2 1.2-.5 1.8-.7.8-.3 1.6-.5 2.3-.9.8-.3 1.5-.7 2.2-1 5.6-2.5 8.9-7.8 13.7-10.9"/>
  <path fill="#00A78E" d="M205.5 153.7c-5.1 2.1-9.7 4.8-14.2 7.1-.6.3-1.3.7-1.9 1.1-1.9 1.1-3.8 2.4-5.5 3.8-.4.3-.9.6-1.3.9-.9.6-2 1-3.2 1.1 1-.4 1.9-.9 2.9-1.5.5-.3.9-.6 1.4-.9 1.9-1.3 3.8-2.5 5.7-3.6.6-.4 1.3-.8 1.9-1.1 4.5-2.7 9.1-5.4 14.1-7.3 0 .2 0 .2.1.4"/>
  <path fill="none" d="M204.7 151.7c.1 0 0 0 0 0 0-.1 0-.1 0 0-.1-.1 0-.1 0 0m-20.1.5c-4 2.3-6.4 5.6-10 8.3-3.4 2.5-9.7 4-13.7 1.5-.2-.1-.4.1-.3.2 1.1 4.2 5 6.6 9.7 7.5 6.1 1.2 12.9 1.7 19 .9 5.3-.6 12.6-2.3 15.6-6.6 2.5-3.5 2.5-8.9-.2-12.4-2.2-2.2-5-3.1-7.9-3.1-4.3.1-8.8 1.8-12.2 3.7"/>
  <path fill="#00A78E" d="M230.6 225.6c-.2-5 .4-12.8-5.1-14.5-6.5-2-14.9 4.5-19.2 8.3-.9-1-2-1.7-3.4-1.5-1.4-.2-2.5.5-3.4 1.5 1.4-1.7-15.2-8.8-17.2-8.6-7 .5-7 9.4-7.2 14.9-.2 5.5-1.1 11.1 2.3 13.1 5.7 3.2 17.6-.4 22.9-6.6.8.6 1.6 1 2.6.9.9.1 1.8-.3 2.6-.9 5.2 6.1 16.9 9.3 22.6 6.3 3.5-2 2.7-7.2 2.5-12.9"/>
  <path fill="none" stroke="#FFF" stroke-width=".636" stroke-miterlimit="10" d="M230.6 225.6c-.2-5 .4-12.8-5.1-14.5-6.5-2-14.9 4.5-19.2 8.3-.9-1-2-1.7-3.4-1.5-1.4-.2-2.5.5-3.4 1.5 1.4-1.7-15.2-8.8-17.2-8.6-7 .5-7 9.4-7.2 14.9-.2 5.5-1.1 11.1 2.3 13.1 5.7 3.2 17.6-.4 22.9-6.6.8.6 1.6 1 2.6.9.9.1 1.8-.3 2.6-.9 5.2 6.1 16.9 9.3 22.6 6.3 3.5-2 2.7-7.2 2.5-12.9z"/>
  <path fill="#FFF" d="M213.6 228.9l.6.1c-.5-.2-.9-.4-1.4-.7.3.3.6.5.8.6m-4.3-4.8l6.7-.3c-1.8-1.1-4.9-.1-6.7.3m-5.3 6.1c1.7-.9 2.4-3 2.2-4.9-.1 1.6-.7 4.2-2.2 4.9m8.8-1.8c-.9-.7-1.9-1.4-2.8-2.1.9.9 1.8 1.5 2.8 2.1m8.4 2.1l-7-1.4c2.3 1 4.7 1.4 7 1.6.1-.1.1-.2 0-.2m-20.3-9.3c-.3 2.7-1.1 5.6.6 7.9l.1.1c-.7-2.7-.3-5.2-.6-8h-.1m-3.5 4c-2.7-.5-6.4-2.6-9.1-1.1l9.1 1.1c.1 0 .1 0 0 0m.8 1.2c-4.4 2.5-8.7 2.4-13.5 2.4 4.3 3 9.7-.2 13.5-2.4m15.2-6.4c-.9.4-1.7.9-2.5 1.6l9.2-3.7c-2.3-.1-4.7 1.1-6.7 2.1m-26.5-.9c2 .2 4.3.3 6.1 1.2 2.1 1 4 2.3 5.5 4 0 0 .1 0 0 0-2.8-3.6-7-5.2-11.6-5.2"/>
</svg>