<svg xmlns="http://www.w3.org/2000/svg" width="34.4" height="143" viewBox="0 0 34.4 143">
  <path fill="#FFF" d="M31.6 127.1c1.4 3 1.8 5.9-1.9 5.7l-1-1.4-6.2-8.5-1.8 2.4c-1 1.4-1.3 3.1-.7 4.6.5 1.2 1 2.6 1.4 3.5.3.7.8 1.3 1.6 1.7l4.3 3c1 .7.6 1.6.3 2.5l-.6.6c-.9.8-2.5.9-3.5.2l-4.7-3.3c-.5-.1-.9-.3-1.1-.7l-7.3-11.1c-.4-.7-1.2-3.8-1-4.5l3.2-12.1c.1-.4.3-2.9.2-3.2L1.1 54.9v-9.1S2.4.4 5.2 1l27.7 6.1c2.1.5-4.5 24-4.5 24-3 11.4-4.1 15.4-4.8 22.1l3.1 55.6c0 .3 0 .5.1.8l4.8 17.5z"/>
  <path fill="none" stroke="#00A78E" stroke-width="2.157" stroke-miterlimit="10" d="M31.6 127.1c1.4 3 1.8 5.9-1.9 5.7l-1-1.4-6.2-8.5-1.8 2.4c-1 1.4-1.3 3.1-.7 4.6.5 1.2 1 2.6 1.4 3.5.3.7.8 1.3 1.6 1.7l4.3 3c1 .7.6 1.6.3 2.5l-.6.6c-.9.8-2.5.9-3.5.2l-4.7-3.3c-.5-.1-.9-.3-1.1-.7l-7.3-11.1c-.4-.7-1.2-3.8-1-4.5l3.2-12.1c.1-.4.3-2.9.2-3.2L1.1 54.9v-9.1S2.4.4 5.2 1l27.7 6.1c2.1.5-4.5 24-4.5 24-3 11.4-4.1 15.4-4.8 22.1l3.1 55.6c0 .3 0 .5.1.8l4.8 17.5z"/>
</svg>