<svg xmlns="http://www.w3.org/2000/svg" width="1196.5" height="182.3" viewBox="0 0 1196.5 182.3">
  <ellipse fill="#FFF" cx="170.3" cy="91.2" rx="89.5" ry="91.2"/>
  <ellipse fill="#FFF" cx="484.9" cy="91.2" rx="89.5" ry="91.2"/>
  <ellipse fill="#FFF" cx="795.9" cy="91.2" rx="89.5" ry="91.2"/>
  <ellipse fill="#FFF" cx="1107" cy="91.2" rx="89.5" ry="91.2"/>
  <g fill="none" stroke="#FFF" stroke-width="6" stroke-linecap="round" stroke-miterlimit="10">
    <path d="M404.9 91.2h-.1"/>
    <path stroke-dasharray="0.2423,19.3818" d="M385.4 91.2H257.8"/>
    <path d="M248.1 91.2h-.2"/>
  </g>
  <g fill="none" stroke="#FFF" stroke-width="6" stroke-linecap="round" stroke-miterlimit="10">
    <path d="M719.6 92.1h-.1"/>
    <path stroke-dasharray="0.2423,19.3818" d="M700.1 92.1H572.4"/>
    <path d="M562.7 92.1h-.1"/>
  </g>
  <g fill="none" stroke="#FFF" stroke-width="6" stroke-linecap="round" stroke-miterlimit="10">
    <path d="M1029.6 92.1h-.1"/>
    <path stroke-dasharray="0.2423,19.3818" d="M1010.1 92.1H882.4"/>
    <path d="M872.7 92.1h-.1"/>
  </g>
  <path fill="#FFF" d="M156.6 104.9h24.9v9.4h-24.9z"/>
  <path fill="#00AB9F" d="M234.1 110.6V83.4h1.1v-1.6h.6l-4-2.9H106.4l-4 2.9h.6v1.6h1.1v27.2h-1.8v3.7h55.6v-5.7c0-1.4 1.2-2.5 2.8-2.5s2.8 1.1 2.8 2.5v5.7h3v-5.7c0-1.4 1.2-2.5 2.8-2.5 1.5 0 2.8 1.1 2.8 2.5v5.7h3v-5.7c0-1.4 1.2-2.5 2.8-2.5 1.5 0 2.8 1.1 2.8 2.5v5.7h55.6v-3.7h-2.2z"/>
  <path fill="none" d="M237.4 114.3V58.9H0v55.4"/>
  <path fill="#00AB9F" d="M134 76.1l-7.6-1.8-7.5 1.8h-.2v2.8H134v-2.8m85.5 0l-7.6-1.8-7.6 1.8h-.1v2.8h15.2v-2.8m-30.9-3.6c-2-5.9-9.6-10.3-18.9-10.5v-2.6h-1.1V62c-9.2.2-16.9 4.6-18.9 10.5h.1v6.9h38.6l.2-6.9z"/>
  <path fill="#FFF" d="M113.7 109.3H110v-4.8c0-.8.8-1.4 1.8-1.4s1.8.6 1.8 1.4v4.8z"/>
  <path fill="none" d="M237.4 114.3V58.9H0v55.4"/>
  <path fill="#FFF" d="M109.5 95.2h4.7v6h-4.7zm0-8.6h4.7v6h-4.7zm14.7 22.7h-3.7v-4.8c0-.8.8-1.4 1.8-1.4s1.8.6 1.8 1.4v4.8z"/>
  <path fill="none" d="M237.4 114.3V58.9H0v55.4"/>
  <path fill="#FFF" d="M120 95.2h4.7v6H120zm0-8.6h4.7v6H120zm14.6 22.7h-3.7v-4.8c0-.8.8-1.4 1.8-1.4s1.8.6 1.8 1.4v4.8z"/>
  <path fill="none" d="M237.4 114.3V58.9H0v55.4"/>
  <path fill="#FFF" d="M130.4 95.2h4.7v6h-4.7zm0-8.6h4.7v6h-4.7zm14.7 22.7h-3.7v-4.8c0-.8.8-1.4 1.8-1.4s1.8.6 1.8 1.4v4.8z"/>
  <path fill="none" d="M237.4 114.3V58.9H0v55.4"/>
  <path fill="#FFF" d="M140.9 95.2h4.7v6h-4.7zm0-8.6h4.7v6h-4.7zm14.6 22.7h-3.7v-4.8c0-.8.8-1.4 1.8-1.4s1.8.6 1.8 1.4v4.8z"/>
  <path fill="none" d="M237.4 114.3V58.9H0v55.4"/>
  <path fill="#FFF" d="M151.4 95.2h4.7v6h-4.7zm0-8.6h4.7v6h-4.7zm6.9 8.6h4.5v7.8h-4.5zm0-8.6h4.5v4.8h-4.5zm8.6 8.6h4.5v7.8h-4.5zm0-8.6h4.5v4.8h-4.5zm8.5 8.6h4.5v7.8h-4.5zm0-8.6h4.5v4.8h-4.5zm11 22.7h-3.7v-4.8c0-.8.8-1.4 1.8-1.4s1.8.6 1.8 1.4v4.8z"/>
  <path fill="none" d="M237.4 114.3V58.9H0v55.4"/>
  <path fill="#FFF" d="M182.2 95.2h4.7v6h-4.7zm0-8.6h4.7v6h-4.7zm14.6 22.7h-3.7v-4.8c0-.8.8-1.4 1.8-1.4s1.8.6 1.8 1.4v4.8z"/>
  <path fill="none" d="M237.4 114.3V58.9H0v55.4"/>
  <path fill="#FFF" d="M192.7 95.2h4.7v6h-4.7zm0-8.6h4.7v6h-4.7zm14.6 22.7h-3.7v-4.8c0-.8.8-1.4 1.8-1.4s1.8.6 1.8 1.4v4.8z"/>
  <path fill="none" d="M237.4 114.3V58.9H0v55.4"/>
  <path fill="#FFF" d="M203.1 95.2h4.7v6h-4.7zm0-8.6h4.7v6h-4.7zm14.6 22.7H214v-4.8c0-.8.8-1.4 1.8-1.4s1.8.6 1.8 1.4v4.8z"/>
  <path fill="none" d="M237.4 114.3V58.9H0v55.4"/>
  <path fill="#FFF" d="M213.6 95.2h4.7v6h-4.7zm0-8.6h4.7v6h-4.7zm14.6 22.7h-3.7v-4.8c0-.8.8-1.4 1.8-1.4s1.8.6 1.8 1.4v4.8z"/>
  <path fill="none" d="M237.4 114.3V58.9H0v55.4"/>
  <path fill="#FFF" d="M224 95.2h4.7v6H224zm0-8.6h4.7v6H224zm-44-12.1c0 .4-.3.7-.7.7H159c-.4 0-.7-.3-.7-.7V71c0-.4.3-.7.7-.7h20.3c.4 0 .7.3.7.7v3.5z"/>
  <path fill="#00AB9F" d="M94.2 108l-.3.1"/>
  <path fill="none" d="M237.4 114.3V58.9H0v55.4"/>
  <path fill="none" d="M237.4 114.3V58.9H0v55.4"/>
  <path fill="none" d="M237.4 114.3V58.9H0v55.4"/>
  <path fill="none" d="M237.4 114.3V58.9H0v55.4"/>
  <path fill="none" d="M237.4 114.3V58.9H0v55.4"/>
  <path fill="none" d="M237.4 114.3V58.9H0v55.4"/>
  <path fill="#00AB9F" d="M550.1 76.9l-69-20.9-60 39.9 11.1 3.8 2.6 17.4c-1.3.8-2.2 2.4-1.9 4 .2 1.4 1.1 2.4 2.2 3-1.1 4.2-1.7 6.8-2.9 11.5 5.5 1.4 8.6.9 13.4-2-2.5-4.1-3.8-6.4-6.1-10.1.9-.9 1.4-2.2 1.2-3.5-.2-1.7-1.5-2.9-3-3.3l-2.3-15.9 12.5 4.3-1.4-9.6 1.6-1c.1 0 .1-.1.2-.1h.1c11.3-6.4 22.7-11.3 36.7-13.3 14.1-2.1 26.4-.8 39 2.2h.3l1.9.4 1.4 9.2 22.4-16zm-64.5 9c-12.5 1.8-24 5.9-34 11.7-.1 0-.2.1-.2.1l3 20.3 70.4-10.4-3-20.4c-.1 0-.2 0-.2-.1-11.4-2.5-23.6-3.1-36-1.2z"/>
  <path fill="none" d="M726.3 74.6h135.3v35H726.3z"/>
  <text transform="translate(743.47 103.005)" fill="#00AB9F" font-family="'Foco-Regular'" font-size="40">Aetna</text>
  <path fill="#00AB9F" d="M1140.6 83.3h-21.7V61.5c0-3.6-2.9-6.6-6.6-6.6h-10.7c-3.6 0-6.6 2.9-6.6 6.6v21.7h-21.7c-3.6 0-6.6 2.9-6.6 6.6v10.7c0 3.6 2.9 6.6 6.6 6.6h21.7v21.7c0 3.6 2.9 6.6 6.6 6.6h10.7c3.6 0 6.6-2.9 6.6-6.6V107h21.7c3.6 0 6.6-2.9 6.6-6.6V89.8c-.1-3.6-3-6.5-6.6-6.5z"/>
</svg>