<svg xmlns="http://www.w3.org/2000/svg" width="1920" height="834" viewBox="0 0 1920 834">
  <path fill="#FFF" d="M1497.1 199.1c.1 6.4-4.2 57.9 13.8 80.5 10.2 12.8 24.5 25.2 32.8 27.1 13.5 3.2 22.3 5.6 34.2 3 11.9-2.6 29.5-15.1 40.3-39.1 5.2-11.4 19.1-101.3-6.8-126.7-17-16.7-54.1-14.5-68.6-13.9-14.4.7-46.4 5.8-45.7 69.1"/>
  <path fill="#00AB9F" d="M1494.4 210.4s-11.9-30.8-9.5-43.1c2.4-12.3 8.5-23.4 30.2-43.1 14.2-12.9 39.3-15.1 42.1-11.9 4.2 4.8 11.6 6.9 16.9.8 5.3-6.2 24-2.2 21.7 2.8 10-5.8 17 4.9 17 4.9s37.7 4.8 17.1 102.3c-1.8 8.6-3.9 18.3-3.9 18.3-7.6.5-.8-11.4.4-47.3 1.6-49.6-44.4-38.7-61.4-40.6-20.6-2.3-55.2-5-61.4 21.6-6.2 26.6-3.4 62.4-3.4 62.4l-5.7 5.8v-32.9z"/>
  <path fill="none" stroke="#FFF" stroke-width="2.182" stroke-miterlimit="10" d="M1494.4 210.4s-11.9-30.8-9.5-43.1c2.4-12.3 8.5-23.4 30.2-43.1 14.2-12.9 39.3-15.1 42.1-11.9 4.2 4.8 11.6 6.9 16.9.8 5.3-6.2 24-2.2 21.7 2.8 10-5.8 17 4.9 17 4.9s37.7 4.8 17.1 102.3c-1.8 8.6-3.9 18.3-3.9 18.3-7.6.5-.8-11.4.4-47.3 1.6-49.6-44.4-38.7-61.4-40.6-20.6-2.3-55.2-5-61.4 21.6-6.2 26.6-3.4 62.4-3.4 62.4l-5.7 5.8v-32.9z"/>
  <path fill="#FFF" d="M1316 315.6s1.7-15.1 6.4-10.9c3.9 3.5 5.7 19.6 3.3 30.9-1 5-7 10.7-9.5 8.2-2.6-2.4-.2-28.2-.2-28.2"/>
  <path fill="none" stroke="#00AB9F" stroke-width="1.797" stroke-miterlimit="10" d="M1316 315.6s1.7-15.1 6.4-10.9c3.9 3.5 5.7 19.6 3.3 30.9-1 5-7 10.7-9.5 8.2-2.6-2.4-.2-28.2-.2-28.2"/>
  <path fill="#FFF" d="M1215.4 313.1s-2.2-15-7.2-10.7c-5.2 4.5-4.7 23.9-2.9 30.9 1.2 5 7.9 10.5 10.6 8 2.7-2.5-.5-28.2-.5-28.2"/>
  <path fill="#FFF" d="M1213.1 291.8c.1 5.3-3.4 47.7 11.4 66.3 8.4 10.6 20.2 20.8 27 22.4 11.1 2.6 18.4 4.6 28.2 2.5 9.8-2.1 24.3-12.4 33.2-32.2 4.2-9.4 15.8-83.4-5.6-104.4-14-13.7-44.6-12-56.5-11.5-11.9.6-38.2 4.8-37.7 56.9m15.4 434.2l-5.6-159.9h83.3l-1.9 159.9h-34V596.4c0-3.4-1.2-6.2-5-6.2s-5 2.8-5 6.2V726h-31.8z"/>
  <path fill="#00AB9F" d="M1286.2 309.4c0 2.9 2.4 5.2 5.3 5.2s5.3-2.3 5.3-5.2c0-2.9-2.4-5.2-5.3-5.2-3 0-5.3 2.3-5.3 5.2"/>
  <path fill="#00AB9F" d="M1307.2 310.7c-.1 0-7.2-6.9-15.8-6.9-4.4 0-9.2 1.9-13.3 7.4l1.3 1.5c3.8-5.1 8-6.7 12-6.7 3.9 0 7.6 1.6 10.3 3.2 1.4.8 2.5 1.6 3.2 2.2.4.3.7.6.9.7l.3.3 1.1-1.7z"/>
  <path fill="#FFF" d="M1290.1 309.3c0 1-.5 1.8-1.2 1.8s-1.2-.8-1.2-1.8.5-1.8 1.2-1.8c.6 0 1.2.8 1.2 1.8"/>
  <path fill="#00AB9F" d="M1250.5 309.4c0 2.9-2.4 5.2-5.3 5.2s-5.3-2.3-5.3-5.2c0-2.9 2.4-5.2 5.3-5.2 3 0 5.3 2.3 5.3 5.2"/>
  <path fill="#00AB9F" d="M1230.5 312.5l.3-.3c1.4-1.2 7.6-6.2 14.4-6.2 4 0 8.2 1.6 12 6.7l1.3-1.5c-4.1-5.5-8.9-7.4-13.3-7.4-8.6 0-15.7 6.9-15.8 6.9l1.1 1.8z"/>
  <path fill="#FFF" d="M1243.2 309.3c0 1-.5 1.8-1.2 1.8s-1.2-.8-1.2-1.8.6-1.8 1.2-1.8 1.2.8 1.2 1.8"/>
  <path fill="#00AB9F" d="M1254.1 286.3s6.7 6 1.1 7c-5.6 1.1-14.9-.9-19 0s-12.1 4.1-12.1 4.1l-.5-3.4c-.1 0 10.9-10.4 30.5-7.7m28-5.5s-6.5 5.7-.8 7c5.7 1.3 14.8-.4 19 .7 4.2 1.1 12.3 4.5 12.3 4.5l.4-3.4c0 .1-11.4-10.8-30.9-8.8m-20.1 56.3s.4.1 1.1.2c.7.1 1.8.3 3 .5 1.2.1 2.7.3 4.1.1.7-.1 1.4-.3 1.7-.7.1-.1.1-.2.2-.3v-.1.1-.1l.1-.3c.1-.4.1-.7.2-1.1.1-.8.1-1.6.1-2.4 0-.8 0-1.6-.1-2.4-.1-1.6-.2-3-.3-4.3-.2-2.5-.2-4.2-.2-4.2s.6 1.6 1.2 4.1c.3 1.2.6 2.7.8 4.3.1.8.2 1.6.2 2.5v2.6c-.1.5-.1 1-.3 1.4l-.1.3v.2l-.1.2c-.1.3-.3.5-.5.7-.9.9-1.9 1-2.8 1.1-.9.1-1.7-.1-2.4-.2s-1.4-.3-2-.5c-1.2-.4-2.2-.8-2.9-1.1-.7-.4-1-.6-1-.6m-10.5 9.2s18.7 7.7 34 1.2c-2.2 4.5-22.6 15.6-34-1.2"/>
  <path fill="#00AB9F" d="M1210.9 301.1s-9.8-25.4-7.8-35.5c2-10.1 7-19.3 24.9-35.5 11.7-10.6 32.3-12.4 34.6-9.8 3.5 4 9.5 5.7 13.9.6 4.4-5.1 19.8-1.8 17.8 2.3 8.2-4.8 14 4 14 4s31 4 14.1 84.3c-1.5 7.1-3.2 15.1-3.2 15.1-6.3.4-.7-9.4.3-38.9 1.3-40.8-36.6-31.9-50.6-33.5-17-1.9-45.5-4.1-50.5 17.8-5.1 21.9-2.8 51.3-2.8 51.3l-4.7 4.8v-27z"/>
  <path fill="none" stroke="#FFF" stroke-width="1.797" stroke-miterlimit="10" d="M1210.9 301.1s-9.8-25.4-7.8-35.5c2-10.1 7-19.3 24.9-35.5 11.7-10.6 32.3-12.4 34.6-9.8 3.5 4 9.5 5.7 13.9.6 4.4-5.1 19.8-1.8 17.8 2.3 8.2-4.8 14 4 14 4s31 4 14.1 84.3c-1.5 7.1-3.2 15.1-3.2 15.1-6.3.4-.7-9.4.3-38.9 1.3-40.8-36.6-31.9-50.6-33.5-17-1.9-45.5-4.1-50.5 17.8-5.1 21.9-2.8 51.3-2.8 51.3l-4.7 4.8v-27z"/>
  <path fill="#FFF" d="M1255.3 384.1s.4 14.4-6.4 18.4c-6.1 3.6-8.9 4.3-8.9 4.3s29.8 12 53.7 2.3c-12.8-3.5-12-7.9-12-7.9l-2.3-14.9-24.1-2.2z"/>
  <path fill="none" stroke="#00AB9F" stroke-width="2.158" stroke-miterlimit="10" d="M1255.3 384.1s.4 14.4-6.4 18.4c-6.1 3.6-8.9 4.3-8.9 4.3s29.8 12 53.7 2.3c-12.8-3.5-12-7.9-12-7.9l-2.3-14.9-24.1-2.2z"/>
  <path fill="#FFF" d="M1338.9 470.5l-29.9 6.9-3.3-14.1 3.4 34.6c.4 5.9.7 25-.7 42.2l-2.9 23h-81.7l-3-27c-.9-14.2.1-35.4.6-40.8l4.7-32.2-3.9 13.3-28.6-6.8s3-10.5 13.3-32.7c10.3-22.2 33-30 33-30l27.5 4.4 26.2-2.1s24.3 6.1 34.6 28.3c10.3 22.2 10.2 32.9 10.2 32.9"/>
  <path fill="none" stroke="#00AB9F" stroke-width="1.797" stroke-miterlimit="10" d="M1338.9 470.5l-29.9 6.9-3.3-14.1 3.4 34.6c.4 5.9.7 25-.7 42.2l-2.9 23h-81.7l-3-27c-.9-14.2.1-35.4.6-40.8l4.7-32.2-3.9 13.3-28.6-6.8s3-10.5 13.3-32.7c10.3-22.2 33-30 33-30l27.5 4.4 26.2-2.1s24.3 6.1 34.6 28.3c10.3 22.2 10.2 32.9 10.2 32.9"/>
  <path fill="#FFF" d="M1218.2 577.9c1.1 2.5 1.5 4.9-1.5 4.8l-.9-1.2-5.1-7.1-1.5 2c-.9 1.2-1.1 2.6-.5 3.9.4 1 .9 2.2 1.2 3 .2.6.7 1.1 1.3 1.4l3.6 2.5c.9.6.5 1.4.2 2l-.5.5c-.8.7-2.1.8-2.9.2l-3.9-2.8c-.4-.1-.7-.3-.9-.6l-6.1-9.3c-.4-.5-1-3.1-.9-3.8l2.6-10.1c.1-.3.2-2.4.2-2.7l-9.7-42.8v-7.5s1.1-37.8 3.4-37.3l23 5c1.8.4-3.8 20-3.8 20-2.5 9.5-3.4 12.8-4 18.4l2.6 46.3c0 .2 0 .4.1.6l4 14.6z"/>
  <path fill="none" stroke="#00AB9F" stroke-width="1.797" stroke-miterlimit="10" d="M1218.2 577.9c1.1 2.5 1.5 4.9-1.5 4.8l-.9-1.2-5.1-7.1-1.5 2c-.9 1.2-1.1 2.6-.5 3.9.4 1 .9 2.2 1.2 2.9.2.6.7 1.1 1.3 1.4l3.6 2.5c.9.6.5 1.3.2 2l-.5.5c-.8.7-2.1.8-2.9.2l-3.9-2.8c-.4-.1-.7-.3-.9-.6l-6.1-9.3c-.4-.5-1-3.1-.9-3.8l2.6-10.1c.1-.3.2-2.4.2-2.7l-9.7-42.8v-7.5s1.1-37.8 3.4-37.3l23 5c1.8.4-3.8 20-3.8 20-2.5 9.5-3.4 12.8-4 18.4l2.6 46.3c0 .2 0 .4.1.6l4 14.7z"/>
  <path fill="#FFF" d="M1319.4 591.6c-.9 0-1.7-.3-2.2-.9l-.7-.6-.1-.4c-.2-.7-.6-1.9.7-2.9l3.6-2.4c.5-.3.8-.6 1-1l1.3-2.9c.4-1 .3-2.1-.3-3l-.7-1-5.7 7.5h-.4c-1.4 0-2.3-.4-2.8-1.2-.7-1.1-.5-2.6.6-4.8l4.4-14.4c0-.1.1-.3.1-.4l3.8-46.1c-.4-2.6-1.1-6.1-2.3-10.4 0-.2-.1-.3-.1-.4-3-9.7-7.9-26.2-6.7-28.2.2-.3.4-.5.7-.5l23.3-4.6h.1c1.1 0 2.3 0 4.2 19.5.9 9.3 1.5 18.6 1.5 18.7l-.2 7.7-10.8 42.7c0 .3.1 2 .1 2.3l2.3 10.1c.1 1-.6 3.8-1.1 4.5l-6.4 9.1c-.3.4-.8.7-1.3.9l-3.9 2.6c-.7.3-1.4.5-2 .5"/>
  <path fill="#00AB9F" d="M1336.7 473.7c2.3 0 4.8 37.4 4.8 37.4l-.2 7.5-10.8 42.6c-.1.3 0 2.4.1 2.7l2.4 10.1c.1.6-.6 3.2-1 3.7l-6.4 9.1c-.2.3-.6.5-.9.6l-4 2.7c-.4.3-.9.4-1.3.4-.6 0-1.2-.2-1.6-.6l-.5-.5c-.2-.7-.6-1.4.3-2l3.6-2.4c.6-.4 1.1-.8 1.3-1.4.3-.8.8-1.9 1.3-2.9.6-1.3.4-2.7-.4-3.9l-1.4-2-5.3 6.9-.9 1.2h-.1c-3 0-2.6-2.4-1.4-4.8l4.4-14.4c.1-.2.1-.4.1-.6l3.8-46.2c-.6-4.6-2.4-10.9-2.5-11 0 0-8.5-27.3-6.7-27.6l23.3-4.6m0-1.8h-.4l-23.2 4.6c-.6.1-1 .5-1.3 1-.5.9-1.1 1.9 2.8 15.9 1.8 6.4 3.7 12.7 3.8 13.1 0 .1.1.2.1.4 1.1 4.2 1.9 7.7 2.3 10.2l-3.8 46v.2l-4.4 14.3c-.8 1.6-1.6 3.9-.5 5.6.5.8 1.5 1.6 3.5 1.6h1l.5-.7.9-1.2 3.8-5c.5.7.6 1.4.3 2.1l-1.3 2.9c-.1.2-.3.4-.6.6h-.2l-3.6 2.4c-1.9 1.3-1.3 3.3-1.1 3.9l.1.2.1.4.3.3.5.5c.7.7 1.8 1.1 2.9 1.1.8 0 1.6-.2 2.3-.7l3.8-2.5c.7-.2 1.3-.6 1.7-1.2l6.4-9.1c.6-.9 1.4-3.9 1.3-5v-.2l-2.3-10c0-.4-.1-1.6-.1-2.1L1343 519v-.4l.2-7.5v-.2c0-.1-.6-9.5-1.5-18.8-.5-5.5-1-9.8-1.5-13-.8-5-1.5-7.2-3.5-7.2"/>
  <path fill="#FFF" d="M1373.7 302.7c.1.1.2.1.2.2l14.3 8.2c.1 0 .1.1.1.1.6.4 3 2.3 3.3 2.7l3.4 58.5c.1.2 6.7 6 8.6 7.7.4.3.8.5 1.3.6 39.1 4.1 91.1 3.9 87.8 3.6l-16.2-28.8c-.2-1-1.1-1.8-2.1-1.8-9.2-.4-36.7 2.5-40 2.8h-.3c-1.4-.1-16 .7-20.5-1.1-.3-.1-.5-.3-.7-.5l-13.5-55c-.3-.2-.5-.5-.7-.8l-25 3.6z"/>
  <path fill="#00AB9F" d="M1377.7 38c-2.2.3-3.4.6-4.8 1.1 70.9 34.5 97.2 100.4 113.2 152 30.9-28.7 65.3-26.3 100.9-12.9-21.9-79.4-140.2-150.5-209.3-140.2"/>
  <path fill="none" stroke="#FFF" stroke-width="3.673" stroke-miterlimit="10" d="M1377.7 38c-2.2.3-3.4.6-4.8 1.1 70.9 34.5 97.2 100.4 113.2 152 30.9-28.7 65.3-26.3 100.9-12.9-21.9-79.4-140.2-150.5-209.3-140.2z"/>
  <path fill="#00AB9F" d="M1356.6 38.3c-69.2.3-170.7 63.9-195.2 153.8-1.1 3.4-1.9 8.8-1.5 10.2 3.1-3.9 12-8 12-8 28-11.4 57-14.4 88.7 8.1 6.9-51.8 38.8-132.6 96-164.1"/>
  <path fill="none" stroke="#FFF" stroke-width="3.673" stroke-miterlimit="10" d="M1356.6 38.3c-69.2.3-170.7 63.9-195.2 153.8-1.1 3.4-1.9 8.8-1.5 10.2 3.1-3.9 12-8 12-8 28-11.4 56.9-14.4 88.7 8.1 6.9-51.8 38.8-132.6 96-164.1z"/>
  <path fill="#00AB9F" d="M1368 194.3l8.2 150.2c-1.2.2-2.2.5-2.6 1-.9 1-.6 18.8 1.1 24.6 2 7 10.1 17.9 23.6 17.1 2-.1 4-.4 6.2-1.1 4.4-1.3 11.1-5 13-15.6.5-2.6 1.2-6.3.5-9.2-.4-1.7-6.9-1.4-7.2.4-.3 2.4.1 4.8-.2 6.8-.9 5.8-3.6 9.4-8.1 10.7-14.1 4.1-19.1-8.4-19.6-11.2-.9-5.7.3-21.9-.9-22.9-.5-.4-1.5-.7-2.7-.7l-8.2-150.6-3.1.5z"/>
  <path fill="none" stroke="#FFF" stroke-width="3" stroke-miterlimit="10" d="M1368 194.3l8.2 150.2c-1.2.2-2.2.5-2.6 1-.9 1-.6 18.8 1.1 24.6 2 7 10.1 17.9 23.6 17.1 2-.1 4-.4 6.2-1.1 4.4-1.3 11.1-5 13-15.6.5-2.6 1.2-6.3.5-9.2-.4-1.7-6.9-1.4-7.2.4-.3 2.4.1 4.8-.2 6.8-.9 5.8-3.6 9.4-8.1 10.7-14.1 4.1-19.1-8.4-19.6-11.2-.9-5.7.3-21.9-.9-22.9-.5-.4-1.5-.7-2.7-.7l-8.2-150.6-3.1.5z"/>
  <path fill="#00AB9F" d="M1375.7 195.8v-.1c3.8-3.1 19.8-15.9 42.3-19.2 23.9-3.5 42.8.4 64.6 13.3-14.1-50.7-45.5-120.8-115.3-149.5v-.1l-.9-.3c-.1 0-.1-.1-.2-.1l-2.2-.7-2.1.3c-60.4 29.8-93 111.8-97 163.4 32.3-26.1 67.2-28 104.7-6.7l6.1-.3z"/>
  <path fill="none" stroke="#FFF" stroke-width="3.673" stroke-miterlimit="10" d="M1375.7 195.8v-.1c3.8-3.1 19.8-15.9 42.3-19.2 23.9-3.5 42.8.4 64.6 13.3-14.1-50.7-45.5-120.8-115.3-149.5v-.1l-.9-.3c-.1 0-.1-.1-.2-.1l-2.2-.7-2.1.3c-60.4 29.8-93 111.8-97 163.4 32.3-26.1 67.2-28 104.7-6.7l6.1-.3z"/>
  <path fill="#00AB9F" d="M1363.7 2.4s-.1-.6-.5-.6-.5.6-.5.6l-.8 35.1 6.3-.3-4.5-34.8z"/>
  <path fill="none" stroke="#FFF" stroke-width="3.673" stroke-miterlimit="10" d="M1363.7 2.4s-.1-.6-.5-.6-.5.6-.5.6l-.8 35.1 6.3-.3-4.5-34.8z"/>
  <path fill="#FFF" d="M1387 265.1c-1.5 5.7 0 11 3.3 11.8 3.3.8 7.1-3.1 8.6-8.8 1.5-5.7 0-11-3.3-11.8-3.3-.8-7.1 3.1-8.6 8.8"/>
  <ellipse transform="rotate(-165.6 1392.22 266.65)" fill="none" stroke="#00AB9F" stroke-width="1.049" stroke-miterlimit="10" cx="1392.9" cy="266.6" rx="6.1" ry="10.6"/>
  <path fill="#FFF" d="M1400.8 300.7c.2 3-2.1 5.6-5.1 5.7l-28.8 1.8c-3 .2-5.6-2.1-5.7-5.1-.2-3 2.1-5.6 5.1-5.7l28.8-1.8c2.9-.1 5.5 2.2 5.7 5.1"/>
  <path fill="none" stroke="#00AB9F" stroke-width=".636" stroke-miterlimit="10" d="M1400.8 300.7c.2 3-2.1 5.6-5.1 5.7l-28.8 1.8c-3 .2-5.6-2.1-5.7-5.1-.2-3 2.1-5.6 5.1-5.7l28.8-1.8c2.9-.1 5.5 2.2 5.7 5.1z"/>
  <path fill="#FFF" d="M1403.2 289.1c.2 3.3-2.3 6.2-5.6 6.4l-30.6 1.9c-3.3.2-6.2-2.3-6.4-5.6-.2-3.3 2.3-6.2 5.6-6.4l30.6-1.9c3.3-.2 6.2 2.3 6.4 5.6"/>
  <path fill="none" stroke="#00AB9F" stroke-width=".695" stroke-miterlimit="10" d="M1403.2 289.1c.2 3.3-2.3 6.2-5.6 6.4l-30.6 1.9c-3.3.2-6.2-2.3-6.4-5.6-.2-3.3 2.3-6.2 5.6-6.4l30.6-1.9c3.3-.2 6.2 2.3 6.4 5.6z"/>
  <path fill="#FFF" d="M1398.6 278c.2 3-2.1 5.6-5.1 5.7l-28 1.7c-3 .2-5.6-2.1-5.7-5.1-.2-3 2.1-5.6 5.1-5.7l28-1.7c3-.2 5.5 2.1 5.7 5.1"/>
  <path fill="none" stroke="#00AB9F" stroke-width=".629" stroke-miterlimit="10" d="M1398.6 278c.2 3-2.1 5.6-5.1 5.7l-28 1.7c-3 .2-5.6-2.1-5.7-5.1-.2-3 2.1-5.6 5.1-5.7l28-1.7c3-.2 5.5 2.1 5.7 5.1z"/>
  <path fill="#FFF" d="M1391.5 267.8c.2 2.8-2 5.3-4.8 5.5l-22.1 1.4c-2.8.2-5.3-2-5.5-4.8-.2-2.8 2-5.3 4.8-5.5l22.1-1.4c2.9-.2 5.3 2 5.5 4.8"/>
  <path fill="none" stroke="#00AB9F" stroke-width=".56" stroke-miterlimit="10" d="M1391.5 267.8c.2 2.8-2 5.3-4.8 5.5l-22.1 1.4c-2.8.2-5.3-2-5.5-4.8-.2-2.8 2-5.3 4.8-5.5l22.1-1.4c2.9-.2 5.3 2 5.5 4.8z"/>
  <path fill="#FFF" d="M1388.8 297.6c-1.3.1-2.3 1.1-2.2 2.3l.2 3.5c.1 1.2 1.2 2.1 2.5 2 1-.1 2-.1 3-.2.9-.1 3-.2 3.2-.2 2-.1 3.6-2 3.4-4.1-.1-2.1-1.9-3.8-3.9-3.6-.2 0-.8 0-.9.1-1.8 0-3.5.1-5.3.2"/>
  <path fill="none" stroke="#00AB9F" stroke-width=".779" stroke-miterlimit="10" d="M1388.8 297.6c-1.3.1-2.3 1.1-2.2 2.3l.2 3.5c.1 1.2 1.2 2.1 2.5 2 1-.1 2-.1 3-.2.9-.1 3-.2 3.2-.2 2-.1 3.6-2 3.4-4.1-.1-2.1-1.9-3.8-3.9-3.6-.2 0-.8 0-.9.1-1.8 0-3.5.1-5.3.2z"/>
  <path fill="#FFF" d="M1391 285.6c-1.3.1-2.3 1.2-2.2 2.5l.2 3.9c.1 1.3 1.2 2.3 2.5 2.2 1-.1 2-.1 3-.2.9-.1 3-.2 3.2-.2 2-.1 3.5-2.1 3.4-4.5-.1-2.4-1.9-4.2-3.9-4.1-.2 0-.8 0-.9.1-1.7.1-3.5.2-5.3.3"/>
  <path fill="none" stroke="#00AB9F" stroke-width=".821" stroke-miterlimit="10" d="M1391 285.6c-1.3.1-2.3 1.2-2.2 2.5l.2 3.9c.1 1.3 1.2 2.3 2.5 2.2 1-.1 2-.1 3-.2.9-.1 3-.2 3.2-.2 2-.1 3.5-2.1 3.4-4.5-.1-2.4-1.9-4.2-3.9-4.1-.2 0-.8 0-.9.1-1.7.1-3.5.2-5.3.3z"/>
  <path fill="#FFF" d="M1386.8 274.7c-1.3.1-2.3 1.1-2.2 2.3l.2 3.5c.1 1.2 1.2 2 2.5 2 1-.1 2-.1 3-.2.9-.1 3-.2 3.2-.2 2-.1 3.6-1.9 3.4-4.1s-1.9-3.8-3.9-3.6c-.2 0-.8 0-.9.1-1.7 0-3.5.1-5.3.2"/>
  <path fill="none" stroke="#00AB9F" stroke-width=".778" stroke-miterlimit="10" d="M1386.8 274.7c-1.3.1-2.3 1.1-2.2 2.3l.2 3.5c.1 1.2 1.2 2 2.5 2 1-.1 2-.1 3-.2.9-.1 3-.2 3.2-.2 2-.1 3.6-1.9 3.4-4.1-.1-2.1-1.9-3.8-3.9-3.6-.2 0-.8 0-.9.1-1.7 0-3.5.1-5.3.2z"/>
  <path fill="#FFF" d="M1380 264.8c-1.2.1-2.1 1-2 2.1l.2 3.3c.1 1.1 1.1 2 2.3 1.9.9-.1 1.8-.1 2.8-.2.8 0 2.8-.2 3-.2 1.9-.1 3.3-1.8 3.2-3.9-.1-2-1.7-3.6-3.6-3.5-.2 0-.7 0-.8.1-1.8.2-3.4.3-5.1.4"/>
  <path fill="none" stroke="#00AB9F" stroke-width=".73" stroke-miterlimit="10" d="M1380 264.8c-1.2.1-2.1 1-2 2.1l.2 3.3c.1 1.1 1.1 2 2.3 1.9.9-.1 1.8-.1 2.8-.2.8 0 2.8-.2 3-.2 1.9-.1 3.3-1.8 3.2-3.9-.1-2-1.7-3.6-3.6-3.5-.2 0-.7 0-.8.1-1.8.2-3.4.3-5.1.4z"/>
  <path fill="#FFF" d="M1622 228.1s2.1-18.3 7.7-13.2c4.7 4.2 6.9 23.8 4.1 37.5-1.3 6.1-8.5 13-11.6 10-3-3-.2-34.3-.2-34.3"/>
  <path fill="none" stroke="#00AB9F" stroke-width="2.182" stroke-miterlimit="10" d="M1622 228.1s2.1-18.3 7.7-13.2c4.7 4.2 6.9 23.8 4.1 37.5-1.3 6.1-8.5 13-11.6 10-3-3-.2-34.3-.2-34.3"/>
  <path fill="#FFF" d="M1499.9 224.9s-2.7-18.2-8.7-13c-6.3 5.5-5.7 29-3.5 37.6 1.5 6.1 9.6 12.7 12.8 9.7 3.2-3.1-.6-34.3-.6-34.3m54.9 501.5s-2.3-17.6-38.3-16c-36 1.5-38.8 13.2-40.2 16.3m165.5 1.2s-2.3-17.6-38.3-16c-36 1.5-38.8 13.2-40.2 16.3m-301.6-2.4s-1.8-13.5-29.5-12.3c-27.7 1.2-29.8 10.1-30.9 12.5m132.7-.2s-1.8-13.5-29.5-12.3c-27.7 1.2-29.8 10.1-30.9 12.5"/>
  <path fill="#FFF" d="M1515.8 726.5l-6.8-194.2h101.2l-2.3 194.2h-41.3V569.1c0-4.1-1.5-7.5-6.1-7.5s-6.1 3.4-6.1 7.5v157.4h-38.6z"/>
  <path fill="#00AB9F" d="M1579.9 225.5c.6 3.4 3.8 5.8 7.3 5.2 3.5-.6 5.9-3.8 5.3-7.3-.6-3.4-3.8-5.8-7.3-5.2-3.5.6-5.9 3.8-5.3 7.3"/>
  <path fill="#00AB9F" d="M1611.3 219.2c-.1 0-10-6.8-20.2-5.2-5.2.8-10.6 4-14.5 11.4l1.8 1.6c3.6-6.8 8.3-9.6 13.1-10.4 4.7-.8 9.4.4 13 1.9 1.8.7 3.3 1.5 4.3 2.1.5.3.9.5 1.2.7l.4.3.9-2.4z"/>
  <path fill="#FFF" d="M1584.5 224.6c.2 1.2-.3 2.3-1.1 2.4-.8.1-1.6-.7-1.8-1.9-.2-1.2.3-2.3 1.1-2.4.8-.2 1.6.7 1.8 1.9"/>
  <path fill="#00AB9F" d="M1527.3 224.3c.7 3.4-1.6 6.8-5.1 7.4-3.5.7-6.8-1.6-7.5-5-.7-3.4 1.6-6.8 5.1-7.4 3.5-.7 6.8 1.6 7.5 5"/>
  <path fill="#00AB9F" d="M1512.6 228.2l.3-.4c1.4-1.8 7.6-9.1 15.8-10.7 4.8-.9 10.1.1 15.9 5.2l1.2-2.1c-6.2-5.6-12.3-6.8-17.5-5.8-10.2 2-17.1 11.8-17.2 11.8l1.5 2z"/>
  <path fill="#FFF" d="M1518.5 225.9c.2 1.2-.2 2.3-1 2.4-.8.2-1.6-.7-1.9-1.9-.2-1.2.2-2.3 1-2.4.8-.2 1.7.7 1.9 1.9"/>
  <path fill="#00AB9F" d="M1544.4 182.4s9.1 5.9 2.6 8.3c-6.6 2.3-18 1.6-22.8 3.5-4.8 1.9-13.8 7.1-13.8 7.1l-1.2-4c-.1-.1 11.2-14.6 35.2-14.9m36.7 6.1s-7.9 7-1 8.5 18-.5 23.1.8c5 1.3 14.9 5.4 14.9 5.4l.5-4.1s-13.8-13.1-37.5-10.6m-24.7 65.6s.5.1 1.4.2c.9.1 2.1.4 3.6.5 1.5.2 3.3.4 5 .1.8-.1 1.6-.4 2-.8.1 0 .1-.1.1-.2s.1-.1.1-.2v-.1.1-.1l.1-.4c.2-.5.1-.9.2-1.3.1-1 .1-1.9.1-2.9s0-1.9-.1-2.9c-.1-1.9-.2-3.7-.3-5.2-.2-3-.3-5.1-.3-5.1s.8 1.9 1.5 4.9c.2.7.4 1.6.5 2.4.2.9.3 1.8.5 2.8.1 1 .3 2 .3 3 .1 1 .1 2.1 0 3.2-.1.6-.2 1.2-.3 1.7l-.1.4v.2l-.1.2c-.1.3-.4.6-.6.9-.5.5-1.1.8-1.7 1-.6.2-1.1.2-1.7.3-1.1.1-2-.1-2.9-.2-.9-.2-1.7-.4-2.5-.6-1.5-.5-2.7-1-3.5-1.4-.8-.3-1.3-.5-1.3-.5m-10.3 28.1s19.3 6.2 34.5.2c-2 4.6-21.7 13.6-34.5-.2"/>
  <path fill="#FFF" d="M1548.3 311.2s.5 17.5-7.7 22.3c-7.4 4.3-10.8 5.3-10.8 5.3s36.2 14.5 65.2 2.8c-15.6-4.2-14.6-9.6-14.6-9.6l-2.8-18.1-29.3-2.7z"/>
  <path fill="none" stroke="#00AB9F" stroke-width="2.62" stroke-miterlimit="10" d="M1548.3 311.2s.5 17.5-7.7 22.3c-7.4 4.3-10.8 5.3-10.8 5.3s36.2 14.5 65.2 2.8c-15.6-4.2-14.6-9.6-14.6-9.6l-2.8-18.1-29.3-2.7z"/>
  <path fill="#FFF" d="M1649.9 416.1l-36.3 8.4-4-17.2 4.2 42c.5 7.1.8 30.3-.8 51.3l-3.6 27.9h-99.2l-3.6-32.8c-1.1-17.3.1-43 .7-49.6l3.2-57.8-29.1 8.5-20.2-48.3s11.6 6.4 35.4-2.3c32.5-11.9 33.2-7.4 33.2-7.4l33.4 5.4 31.8-2.6s29.5 7.4 42 34.4 12.4 39.9 12.4 39.9"/>
  <path fill="none" stroke="#00AB9F" stroke-width="2.182" stroke-miterlimit="10" d="M1649.9 416.1l-36.3 8.4-4-17.2 4.2 42c.5 7.1.8 30.3-.8 51.3l-3.6 27.9h-99.2l-3.6-32.8c-1.1-17.3.1-43 .7-49.6l3.2-57.8-29.1 8.5-20.2-48.3s11.6 6.4 35.4-2.3c32.5-11.9 33.2-7.4 33.2-7.4l33.4 5.4 31.8-2.6s29.5 7.4 42 34.4 12.4 39.9 12.4 39.9"/>
  <path fill="#FFF" d="M1626.1 563.2c-1 0-2-.4-2.7-1.1l-.8-.8-.2-.5c-.3-.8-.8-2.4.9-3.5l4.4-2.9c.6-.4 1-.8 1.2-1.2l1.5-3.6c.5-1.2.4-2.5-.4-3.6l-.9-1.2-7 9.1h-.5c-1.7 0-2.8-.5-3.5-1.5-.8-1.3-.6-3.2.7-5.8l5.3-17.5c.1-.2.1-.3.1-.5l4.6-56c-.4-3.1-1.4-7.4-2.8-12.6-.1-.2-.1-.4-.1-.5-3.7-11.8-9.6-31.9-8.2-34.3.2-.3.5-.6.9-.6l28.2-5.6h.2c1.4 0 2.8 0 5 23.7 1.1 11.3 1.8 22.6 1.8 22.8l-.2 9.4-13.1 51.9c0 .3.1 2.5.1 2.8l2.9 12.2c.2 1.2-.8 4.6-1.3 5.4l-7.7 11.1c-.4.5-.9.9-1.6 1.1l-4.7 3.2c-.5.3-1.3.6-2.1.6"/>
  <path fill="#00AB9F" d="M1647.2 420c2.8 0 5.8 45.5 5.8 45.5l-.2 9.2-13.1 51.8c-.1.4.1 2.9.1 3.3l2.9 12.3c.1.8-.7 3.9-1.2 4.5l-7.7 11.1c-.3.4-.7.6-1.1.7l-4.9 3.3c-.5.3-1.1.5-1.6.5-.7 0-1.4-.3-2-.7l-.6-.6c-.3-.9-.7-1.8.4-2.5l4.4-2.9c.8-.4 1.3-1 1.6-1.7.4-.9 1-2.3 1.5-3.6.7-1.6.5-3.3-.5-4.7l-1.7-2.4-6.5 8.4-1.1 1.4h-.1c-3.6 0-3.1-2.9-1.7-5.8l5.4-17.5c.1-.3.1-.5.1-.8l4.6-56.1c-.8-5.6-2.9-13.2-3-13.4 0 0-10.3-33.1-8.1-33.5l28.3-5.8m0-2.2h-.5l-28.1 5.5c-.7.1-1.3.6-1.6 1.2-.6 1.1-1.3 2.3 3.4 19.3 2.2 7.8 4.5 15.4 4.7 15.9 0 .1.1.3.1.5 1.4 5.2 2.3 9.3 2.8 12.4l-4.6 55.9v.3l-5.3 17.4c-.9 1.9-1.9 4.7-.6 6.8.6.9 1.8 2 4.3 2h1.2l.6-.8 1.1-1.4 4.7-6.1c.6.8.7 1.7.3 2.6-.5 1.2-1.1 2.6-1.5 3.6-.1.2-.4.5-.7.7h-.2l-4.4 2.9c-2.3 1.6-1.6 3.9-1.3 4.7l.1.2.2.5.4.4.6.6c.9.9 2.1 1.4 3.5 1.4 1 0 2-.3 2.8-.8l4.6-3.1c.8-.3 1.5-.8 2-1.5l7.7-11.1c.7-1 1.7-4.7 1.5-6.1v-.2l-2.8-12.2c0-.5-.1-2-.1-2.5l13-51.6.1-.2v-.2l.2-9.2v-.2c0-.1-.8-11.5-1.8-22.8-.6-6.6-1.3-11.9-1.9-15.8-1.2-6.3-2.1-9-4.5-9"/>
  <path fill-rule="evenodd" clip-rule="evenodd" fill="#00AB9F" d="M1633.5 207.7c-.7-.8-3-1.2-3.9-1.4-4.7-.9-9.8-1-14.5-1.4-6.7-.6-13.4-.7-20.1-.3-5.9.3-11.7 1.4-17.3 3-5 1.4-10.3 3.6-15.6 3.8v7.5c1.4 0 2.6.1 3.5 1.1 2.4 2.6 3.5 8.4 5.7 13.6 3.4 8 8.3 13.7 16.3 16.8 10.4 4.2 26.6 2.9 34.1-6.8 2-2.6 3.4-5.9 4.3-9.3 1.3-4.9 1.6-10 2.5-13.6.3-1.3.8-2.5 1.7-3.5.8-.8 2.1-.8 2.7-1.9.4-.7.5-2.2.6-3.1 0-1.1.9-3.4 0-4.5m-10 18.5c-.6 7.2-3.6 14.7-9.7 18.9-6.8 4.7-16.8 4.6-24.3 1.8-5.7-2-9.4-6.2-12.2-11.5-1.1-2-1.8-4.4-2.4-6.6-1.2-4.1-1.8-8.9.4-12.8 1.2-2.1 3.3-3.7 5.7-4.8 2.1-1 4.5-1.6 6.6-2 5-.8 10.2-1 15.3-.9 6.3.1 12.4.5 17.2 5 3.2 3.4 3.8 8.4 3.4 12.9m3.3-14c-.9-.1-2.7-.3-3.3-.9-1.2-1.3 2.3-1.3 3.3-1.2.9.1 2.6.3 3.2.9 1.3 1.3-2.2 1.3-3.2 1.2m-136.2.2c.1.8.2 2.3.6 3.1.6 1.1 1.9 1.1 2.7 1.9.9 1 1.4 2.3 1.7 3.5.9 3.6 1.2 8.7 2.5 13.6.9 3.4 2.3 6.7 4.3 9.3 7.5 9.7 23.7 11 34.1 6.8 8-3.2 12.9-8.8 16.3-16.8 2.2-5.2 3.3-11 5.7-13.6.9-1 2.1-1 3.5-1.1v-7.5c-5.3-.2-10.5-2.4-15.6-3.8-5.7-1.6-11.4-2.7-17.3-3-6.7-.4-13.5-.3-20.1.3-4.8.4-9.8.5-14.5 1.4-1 .2-3.3.6-3.9 1.4-1 .9-.1 3.2 0 4.5m13.5 1.1c4.8-4.6 10.9-4.9 17.2-5 5-.1 10.3.1 15.3.9 2.1.3 4.4 1 6.6 2 2.4 1.1 4.4 2.7 5.7 4.8 2.2 3.9 1.6 8.7.4 12.8-.6 2.2-1.3 4.6-2.4 6.6-2.8 5.2-6.6 9.4-12.2 11.5-7.5 2.7-17.5 2.8-24.3-1.8-6.1-4.2-9.1-11.7-9.7-18.9-.6-4.7-.1-9.7 3.4-12.9M1494 211c.6-.6 2.4-.8 3.2-.9 1-.1 4.5-.1 3.3 1.2-.6.6-2.4.9-3.3.9-1 .1-4.5.1-3.2-1.2"/>
  <path fill="#00AB9F" d="M1567.3 260.4c-2.7 3.5-2.7 8.8-.2 12.4 3 4.2 10.3 5.9 15.6 6.6 6.2.7 13 .3 19-.9 4.8-.9 8.6-3.3 9.7-7.5 0-.2-.2-.3-.3-.2-3.9 2.6-10.3 1.1-13.7-1.5-3.6-2.6-6-6-10-8.3-5.7-3.3-14.8-6-20.1-.6-.2.2.2.4.4.2 6.9-7.1 19.5-.4 25 4.8 2.5 2.3 4.7 5 8.2 6.2 2.6.9 6.9 1.1 9.4-.1.8-.4.4-.1.2.6-.4 1.2-1.4 2.2-2.4 3.1-1.7 1.5-4.3 2.2-6.6 2.7-5 1.1-10.6 1.3-15.8 1.1-6-.2-12.4-1.7-16.9-5.2-4-3.1-4-9.7-1.2-13.4.3 0-.1-.2-.3 0m-1.1-.9c2-1.1 4.2-1.7 6.5-1.8h2.3c2.8.2 5.8.9 8.7 1.8-2-1.3-4.3-1.3-6.3-1.9-.6-.1-1.3-.2-1.9-.3-3.2-.3-6.5.2-9.5 1.9-.1-.1.2.3.2.3"/>
  <path fill="#00AB9F" d="M1565.5 260.1c2.5-1.1 5.2-1.4 8-1.2.7 0 1.4.1 2 .1 3.6.1 7.4.7 10.8 2.3.7.3 1.3.7 1.9 1.1 1.3.5 2.3 2.1 3.9 2.5-1.3-1.6-3.3-2.3-5.1-3.6-.7-.4-1.4-.7-2.2-.9-3.7-1.3-7.9-1.5-11.9-1.7-.7 0-1.3-.1-2-.1-2 0-3.9.4-5.8 1.4.1-.2.5.1.4.1"/>
  <path fill="#00AB9F" d="M1565.4 260.2c1.4-.3 2.9-.3 4.3-.3.7 0 1.4.1 2.1.2 4.8.3 9.8.7 14.3 2.3.6.2 1.3.4 1.9.7 1.8.5 3.4 1.5 4.9 2.6l1.5 1.2c3.1 2.8 6.7 7.4 11.6 6.1-4.6-.3-7.6-3.6-11-6.1-.5-.4-1.1-.8-1.6-1.2-2.2-1.6-4.6-2.9-7.3-3.7-.6-.2-1.3-.4-2-.6-3.3-.9-6.8-1.2-10.2-1.6l-2.1-.3c-2.2-.2-4.3-.1-6.5.6-.1 0 .3 0 .1.1m-2 2.2c-1.3 5.2 1.9 9.8 6.2 12.4.6.4 1.3.7 1.9 1 3 1.1 5.9 2.7 9.2 2.9.8.1 1.5.3 2.3.4 4.3.9 8.4 1.3 12.6.9.6-.1 1.1-.1 1.7-.1h3.8c-2.3-.7-4.6-.7-7-.2-.7 0-1.3.1-2 .1-3.4 0-6.8-.4-10.2-1.2l-1.5-.3c-2-.4-4-1-6.1-1.7-.8-.3-1.6-.7-2.3-1-5.8-2-8.7-7.2-8.6-13.2"/>
  <path fill="#00AB9F" d="M1563.6 261.9c.2 3.9 1.9 7.8 4.9 10.5.5.5 1 .9 1.6 1.2 2.9 1.8 6.1 3.2 9.3 4.1.6.2 1.3.3 1.9.5 1.3.3 2.7.3 3.6 1-2-.7-3.6-1.3-5.7-2-.7-.2-1.3-.4-2-.6-2.7-.8-5.2-1.9-7.6-3.4-.6-.4-1.1-.9-1.6-1.5-2.2-2.7-3.6-6.4-4.4-9.8m8.2-1.7c3.1.5 6.3 1 9.4 1.9.8.2 1.5.5 2.3.8 3.9 1.7 7.4 4 11.1 6.2.6.4 1.1.6 1.6.9 2.6 1.3 5.6 3.6 8.8 3-3-.7-5.9-1.6-8.6-3.5-.6-.3-1.1-.7-1.7-1-3.4-2-6.7-3.9-10.4-5.4-.7-.3-1.3-.6-2-.9-3.4-1.4-7-2.2-10.8-2.3 0-.1.3.2.3.3m-7.7 1.5c1.3.4 2.6.8 3.8 1.1.6.2 1.3.3 1.9.5 3.6.4 6.4 2.4 9.1 4.6.5.4 1.1.9 1.6 1.3 2.9 2.9 6.4 4.9 10.2 6.1.8.2 1.5.4 2.3.6 6.1 1.4 14 3 18.9-1.9-5.6 3.6-12.8 3.3-19.1 1.4-.7-.2-1.5-.4-2.2-.7-3.6-1.3-7-3.4-9.9-6-.4-.4-.9-.8-1.4-1.2-.5-.4-.9-.9-1.4-1.3-2.6-2-6.2-2.6-9.3-3.7-.8-.2-1.5-.4-2.3-.6-.8-.2-1.5-.4-2.2-.6.2.2.2.2 0 .4"/>
  <path fill="#00AB9F" d="M1573.7 260.6c2.3.7 4.4 1.7 6.4 2.7.7.4 1.4.7 2 1.1 3.1 1.7 6.1 3.4 9.2 4.9.6.3 1.3.6 1.9.9 6.2 2.8 14.8 5.4 20.4.5-5.9 3.9-14.5 2.6-20.2-1.2l-1.8-.9c-3-1.5-6-3.2-9-4.8-.7-.4-1.4-.7-2.1-1.1-2.1-1-4.3-1.9-6.7-2.5 0-.1 0 .3-.1.4"/>
  <path fill="#00AB9F" d="M1564 261.6c.7 1.3 1.7 2.3 2.8 3.2.5.4 1.1.8 1.7 1.2 3.6 2 7 4.1 10.6 5.9.6.3 1.1.6 1.7.9 3.1 1.8 6.3 3 9.7 3.9.7.2 1.4.3 2 .4 6.2 1.5 13.4 1.9 19-1.8-5.3 2.3-11.2 3-16.7 1.8-.7-.1-1.4-.2-2.1-.4-5.1-1-9.8-3.2-14.4-5.8-.6-.3-1.2-.7-1.9-1-1.9-1-3.7-2.1-5.5-3.2-.5-.3-1.1-.7-1.7-1-1.8-1.1-3.6-2.4-5.2-4.1m.2-.3c2.6-.4 5.1-.2 7.4.5.7.2 1.3.3 2 .6 2.4.6 4.5 1.9 6.4 3.3.6.5 1.3 1 1.9 1.5 3.1 3.6 7.2 6.4 11.8 7.7.6.2 1.2.4 1.7.5 5.7.9 12 1.2 16.9-1.8-5.9 2-12.5 2.6-18.4.6-.6-.2-1.3-.4-1.9-.7-3.2-1.3-6.2-3.4-8.8-5.9-.5-.4-1-.9-1.6-1.3-2.4-2-5-3.7-8.2-4.6-.7-.2-1.3-.4-2.1-.6-2.3-.5-4.7-.6-7.1.2"/>
  <path fill="#00AB9F" d="M1564.7 260.6c2-.5 4.1-.7 6.2-.4.7.1 1.3.2 2 .4 2.3.7 4.4 1.9 6.3 3.3.7.5 1.3.9 2 1.4 3.7 2.8 7.9 5 12.2 6.6.7.3 1.3.5 1.9.7 5.7 2.4 13 2.7 18.2-.9-5.9 2.6-12.5 3.3-18.3.6-.6-.2-1.2-.5-1.9-.8-4.1-1.7-8-4-11.6-6.4l-1.8-1.2c-1.8-1.2-3.7-2.3-5.7-3.3-.6-.2-1.1-.3-1.7-.5-2.4-.8-5.2-.7-7.8.5m-.7.7c.6 2.3 1.6 4.3 2.9 6.2.4.6.9 1.2 1.4 1.7 3.2 3.5 7.4 6.2 12 7.7l1.8.6c4.4 1.3 8.9 2 13.3 1.7.7 0 1.4 0 2-.1 5.1-.3 10.3.1 13.9-3.5-4.6 2.6-9.5 3.3-14.7 3.1-.6 0-1.2 0-1.8.1-5.4.3-11-.7-16.1-2.7-.6-.2-1.3-.5-1.9-.8-3.1-1.5-5.9-3.7-8.1-6.5-.5-.6-.9-1.1-1.4-1.7-1.3-1.8-2.3-3.8-3-5.9 0-.1-.4.3-.3.1"/>
  <path fill="#00AB9F" d="M1564.6 262.3c1.5 1.4 2.9 3 4.4 4.5.5.5.9 1 1.4 1.5 1.7 2 3.6 3.6 5.8 4.8.7.4 1.5.8 2.2 1.1 4.7 2.3 9.8 4 14.9 4.3.7 0 1.5.1 2.2.1 5.1-.1 10.3.3 14.9-2.4-4.3 1.3-8.6 2.3-13.2 2.1h-2.1c-4.8.1-9.6-1.2-14-3.4-.6-.3-1.3-.7-1.9-1.1-4-2.2-7.6-5.4-11-8.6-.6-.5-1.1-1.1-1.7-1.6-.5-.6-1-1.2-1.4-1.8-.2.3-.5.3-.5.5"/>
  <path fill="#00AB9F" d="M1564.4 261.9c.6.4 1.3.7 1.9 1 .7.3 1.3.6 2 1 3.9 1.9 7.8 3.9 11.7 6.1.6.4 1.2.7 1.7 1.1 2.9 1.9 5.6 4.2 8.9 5.5-3.3-2.6-7.2-3.9-10.3-7-.6-.4-1.2-.8-1.9-1.2-3.2-1.9-6.3-3.8-9.7-5.1-.7-.3-1.4-.5-2.1-.8-.8-.2-1.5-.4-2.2-.6"/>
  <path fill="none" d="M0 834h1920m-352.6-573.6c-.1.1-.1.1 0 0m0 0c-.1 0-.1 0 0 0-2.7 3.5-2.7 8.9-.2 12.4 3 4.2 10.3 5.9 15.6 6.6 6.2.7 13 .3 19-.9 4.8-.9 8.6-3.3 9.7-7.5 0-.2-.2-.3-.3-.2-3.9 2.6-10.3 1.1-13.7-1.5-3.6-2.6-6-6-10-8.3-3.4-2-7.9-3.7-12.1-3.7-3 0-5.9.9-8 3.1"/>
  <path fill="#00AB9F" d="M1563.6 260.4c2.7 3.5 2.7 8.8.2 12.4-3 4.2-10.3 5.9-15.6 6.6-6.2.7-13 .3-19-.9-4.7-.9-8.6-3.3-9.7-7.5 0-.2.2-.3.3-.2 3.9 2.6 10.3 1.1 13.7-1.5 3.6-2.6 6-6 10-8.3 5.8-3.3 14.8-6 20.1-.6.2.2-.2.4-.4.2-6.9-7.1-19.5-.4-25 4.8-2.5 2.3-4.7 5-8.2 6.2-2.6.9-6.9 1.1-9.4-.1-.8-.4-.4-.1-.2.6.4 1.2 1.4 2.2 2.4 3.1 1.7 1.5 4.3 2.2 6.6 2.7 5 1.1 10.6 1.3 15.8 1.1 6-.2 12.4-1.7 16.9-5.2 4-3.1 4-9.7 1.2-13.4-.3 0 .1-.2.3 0"/>
  <path fill="#00AB9F" d="M1562.7 260.1c-3-1.5-6.3-2.1-9.6-2.1-.6 0-1.3.1-1.9.1-1.9.2-3.8.7-5.7 1.5 1.3-.9 2.7-1.4 4.2-1.7.7-.1 1.5-.2 2.2-.3 3.7 0 7.7.3 11 2.3 0 0-.3.4-.2.2"/>
  <path fill="#00AB9F" d="M1563.3 260.7c-3.6-1.8-7.5-1.5-11.1-1.4-.7 0-1.5.1-2.3.1-3.7.4-7.3 1.5-10.6 3.9-.8.4-1.5.8-2 1.6.2-1.2.7-1.6 1.4-2 .7-.3 1.5-.5 2.2-1 3.3-2.2 7.1-3.1 11-3.1h2.3c3.4.1 6.4.4 9.3 1.4.1.1-.2.4-.2.5"/>
  <path fill="#00AB9F" d="M1563.4 260.8c-3.7-.5-7.7-.2-11.2.2-.7.1-1.3.2-2 .3-4.2.5-8.2 1.6-12.1 3.1-.7.3-1.3.7-1.9 1.2-3 2.1-5.7 5.1-9.2 6.5-.6.2-1.2.3-1.9.4s-1.3-.1-2-.3c1-.1 2-.2 3-.4.5-.1.9-.2 1.4-.3 3.2-1.8 5.8-4.6 8.9-6.6.6-.4 1.3-.7 1.9-1.1 2.8-1 5.8-1.7 8.8-2.2.8-.1 1.5-.2 2.3-.4 4.5-1.2 9.1-1.2 13.7-.8.2-.1.2.2.3.4m2.1 2.2c.8 5.2-1.5 10.5-6.3 12.5-.7.4-1.5.7-2.3 1-2.4 1.1-5.2 1.8-8.2 2.3-.9.2-1.8.3-2.7.4-4.7.5-8.9 1.4-13.6.5-.7-.2-1.4-.2-2.1-.1-.7 0-1.5 0-2.1-.3h2.1c4.1.3 8.4.3 12.7-.2.9-.1 1.8-.3 2.7-.4 3.6-.4 7.1-1.2 10.1-2.3.8-.3 1.5-.6 2.1-.9 4.8-1.9 8.7-7.1 7.1-12.7.2.1.2.1.5.2"/>
  <path fill="#00AB9F" d="M1565.2 262.4c-.6 5.7-3.6 11.3-9.5 13.4-.6.1-1.2.2-1.9.6-.6.2-1.3.4-1.9.6-1.9.6-4 1.1-5.9 1.6-.8.2-1.5.5-2.2.7.1-.1-.2-.4-.2-.4 1.3-.3 2.6-1 3.8-1.2.7-.2 1.3-.3 2-.5s1.3-.4 2-.6c.7-.2 1.3-.4 2-.6 6.6-1.3 10.9-7.2 11.6-13.8-.1 0 .2.4.2.2m-7.6-1.8c-2.9 0-5.9.6-8.5 1.5-.7.2-1.4.5-2.1.7-2 .8-4 1.8-5.9 2.8-.6.3-1.1.7-1.7 1-4.4 2.4-8.5 5.2-13.6 5.6-.5.1-1.1.1-1.6.2.6-.3 1.2-.6 1.8-.7.6-.2 1.2-.3 1.8-.4 3.3-.9 6.3-2.5 9.4-4.1l1.8-.9c3.7-1.9 7.4-3.8 11.3-4.8.8-.2 1.5-.4 2.3-.6 1.5-.3 3.4-1.3 5-.3"/>
  <path fill="#00AB9F" d="M1564.7 262.2c-5.1 1-10 2.3-13.7 5.7-.5.4-1.1.8-1.7 1.2-2.4 1.7-4.7 3.4-7.3 4.6-.6.3-1.2.7-1.9.9-3.2 1.4-6.5 2.3-10.2 1.9-.7 0-1.4-.1-2.2-.2-3.9-.2-7.8-1.3-11.3-2.7 3.1.4 6.2 1.6 9.3 2.1.6.1 1.3.2 1.9.2 5 .4 10.3-.6 14.7-3 .6-.3 1.2-.6 1.7-.9.7-.5 1.3-.9 1.9-1.4.6-.5 1.3-.9 1.9-1.4 5-3.7 10.5-7 16.9-7"/>
  <path fill="#00AB9F" d="M1556 260.9c-2.6.7-5.2 2-7.4 3.3-.6.3-1.2.6-1.8 1-1.8 1-3.6 1.9-5.4 2.7-.6.3-1.1.6-1.7.9-4.5 2.1-9.1 4.2-14.1 3.8h-2.2c-2.9-.1-5.7-.7-8.1-2 2.3.7 4.7 1.2 7.1 1.5.8.1 1.6.1 2.4.1 4.3.2 8.5-1 12.4-2.7.7-.3 1.3-.6 2-.9 3.5-1.5 6.8-4.2 10.3-5.9.7-.3 1.4-.7 2.1-.9 1.5-.5 2.8-.9 4.4-.9"/>
  <path fill="#00AB9F" d="M1564.8 262.1c-4.2 4.7-9.8 7.7-15.2 9.9-.7.3-1.5.7-2.3 1-1.5.7-3 1.3-4.6 2.1-.7.3-1.3.6-2 .8-3.4 1.3-7 2-10.9 1.8h-1.8c-3.8-.2-7.6-1.5-10.8-3.2 3.5 1.2 7.2 2.5 11 2.7.7.1 1.4.2 2.1.2 3.4.2 6.7-.6 9.9-1.9.6-.2 1.3-.5 1.9-.8 1.9-1 3.8-1.8 5.8-2.7.7-.3 1.3-.6 2-.8 5.8-1.7 9.8-6 14.9-9.1"/>
  <path fill="#00AB9F" d="M1564.6 261.9c-5.9-.6-11.8 1.4-16.2 5.6-.7.5-1.3 1-2 1.5-2 1.5-4 2.9-6.1 4-.8.4-1.5.8-2.3 1.1-3.9 1.7-8.1 2.4-12.5 1.1-.8-.1-1.6-.2-2.4-.4-2.4-.4-4.7-1.1-6.9-1.7 3.5 0 7 .8 10.4 1.2.7.1 1.3.2 1.9.3 3.7.9 7.1.1 10.2-1.3.6-.3 1.2-.6 1.8-1 2.9-2.1 5.7-4.7 8.8-6.8.6-.4 1.1-.8 1.7-1.2 4.3-2.4 8.9-4.1 13.8-2.7.1 0-.2.3-.2.3"/>
  <path fill="#00AB9F" d="M1564.1 261.1c-6.1-1.9-11.7 1.1-16 4.7-.6.5-1.3.9-1.9 1.4-1.9 1.4-3.9 2.6-6 3.4l-2.1.9c-3.5 1.4-7.2 2.2-10.9 2h-2c-3.5-.1-6.8-.7-9.9-2.4 3.3.8 6.6 1.5 9.8 1.8.7.1 1.3.1 1.9.1 4.6.2 8.9-1.1 13.1-3 .7-.3 1.3-.6 1.9-.9 2.6-1 5-2.9 7.5-4.6.6-.4 1.2-.9 1.8-1.3 3.4-2.6 8.4-4.6 12.8-2.1"/>
  <path fill="#00AB9F" d="M1564.9 261.8c-1.9 4.7-4.5 9.3-9.3 11.7-.6.4-1.3.7-2 1.1-2.1 1.2-4.5 2-6.8 2.6-.8.2-1.5.4-2.3.7-4.5 1.1-9.2 1.4-13.6.9-.6-.1-1.3-.1-2-.1-4.1-.2-8.4-1-11.3-3.9 2.6 1.6 5.5 2.6 8.5 3.2.7.1 1.5.2 2.2.3 6.1.5 12.3.8 18.4-1.3.7-.2 1.5-.4 2.2-.7 1.4-.4 2.7-.9 4-1.6.6-.3 1.2-.7 1.8-1 4.3-2.9 7.9-6.9 9.6-12.1 0 0 .6 0 .6.2"/>
  <path fill="#00AB9F" d="M1564.2 262.8c-3.9 4.1-7.5 9-13 11l-1.8.9c-1.2.6-2.5 1.1-3.8 1.6-.7.3-1.4.5-2.1.8-4.8 1.7-10.1 2.4-15.2 1.2-.7 0-1.4-.1-2-.2-2.7-.4-5.3-1.1-7.8-2.6 3.3.8 6.4 1.8 9.8 2.2.7.1 1.3.2 1.9.3 4.9.6 9.7-.1 14-1.7.6-.2 1.2-.5 1.8-.7.8-.3 1.6-.5 2.3-.9.8-.3 1.5-.7 2.2-1 5.5-2.6 8.8-7.8 13.7-10.9"/>
  <path fill="#00AB9F" d="M1564.4 262.4c-5.1 2.1-9.7 4.8-14.2 7.1-.6.3-1.3.7-1.9 1.1-1.9 1.1-3.8 2.4-5.5 3.8-.4.3-.9.6-1.3.9-.9.6-2 1-3.2 1.1 1-.4 1.9-.9 2.9-1.5.5-.3.9-.6 1.4-.9 1.9-1.3 3.8-2.5 5.7-3.6.6-.4 1.3-.8 1.9-1.1 4.5-2.7 9.1-5.4 14.1-7.3 0 .2 0 .2.1.4"/>
  <path fill="none" d="M0 834h1920m-356.4-573.6c0 .1 0 .1 0 0 0 0-.1 0 0 0-.1 0-.1 0 0 0m-20.1.6c-4 2.3-6.4 5.6-10 8.3-3.4 2.5-9.7 4-13.7 1.5-.2-.1-.4.1-.3.2 1.1 4.2 5 6.6 9.7 7.5 6.1 1.2 12.9 1.7 19 .9 5.3-.6 12.6-2.3 15.6-6.6 2.5-3.5 2.5-8.9-.2-12.4-2.2-2.2-5-3.1-7.9-3.1-4.3 0-8.8 1.7-12.2 3.7"/>
  <path fill="#00AB9F" d="M1589.5 340.3c-.2-5 .4-12.8-5.1-14.5-6.5-2-14.9 4.5-19.2 8.3-.9-1-2-1.7-3.4-1.5-1.4-.2-2.5.5-3.4 1.5 1.4-1.7-15.2-8.8-17.2-8.6-7 .5-7 9.4-7.2 14.9-.2 5.5-1.1 11.1 2.3 13.1 5.7 3.2 17.6-.4 22.9-6.6.8.6 1.6 1 2.6.9.9.1 1.8-.3 2.6-.9 5.2 6.1 16.9 9.3 22.6 6.3 3.5-2 2.7-7.1 2.5-12.9"/>
  <path fill="none" stroke="#FFF" stroke-width=".636" stroke-miterlimit="10" d="M1589.5 340.3c-.2-5 .4-12.8-5.1-14.5-6.5-2-14.9 4.5-19.2 8.3-.9-1-2-1.7-3.4-1.5-1.4-.2-2.5.5-3.4 1.5 1.4-1.7-15.2-8.8-17.2-8.6-7 .5-7 9.4-7.2 14.9-.2 5.5-1.1 11.1 2.3 13.1 5.7 3.2 17.6-.4 22.9-6.6.8.6 1.6 1 2.6.9.9.1 1.8-.3 2.6-.9 5.2 6.1 16.9 9.3 22.6 6.3 3.5-2 2.7-7.1 2.5-12.9z"/>
  <path fill="#FFF" d="M1572.5 343.7l.6.1c-.5-.2-.9-.4-1.4-.7.3.2.5.4.8.6m-4.3-4.9c-.1 0-.1.1 0 0l6.7-.3c-1.8-1-4.9 0-6.7.3m-5.3 6.2c1.7-.9 2.4-3 2.2-4.9-.1 1.5-.7 4.1-2.2 4.9m8.8-1.9c-.9-.7-1.9-1.4-2.8-2.1.8.9 1.8 1.6 2.8 2.1m8.4 2.2l-7-1.4c2.3 1 4.7 1.4 7 1.6.1-.1.1-.2 0-.2m-20.4-9.3c-.3 2.7-1.1 5.6.6 7.9l.1.1c-.7-2.7-.3-5.2-.6-8 .1-.1 0-.1-.1 0m-3.4 3.9c-2.7-.5-6.4-2.6-9.1-1.1l9.1 1.1c.1.1.1 0 0 0m.8 1.2c-4.4 2.5-8.7 2.4-13.5 2.4 4.3 3.1 9.7-.2 13.5-2.4m15.2-6.3c-.9.4-1.7.9-2.5 1.6l9.2-3.7c-2.4-.1-4.7 1.1-6.7 2.1m-26.5-.9c2 .2 4.3.3 6.1 1.2 2.1 1 4 2.3 5.5 4 0 0 .1 0 0 0-2.8-3.6-7-5.3-11.6-5.2"/>
</svg>