<svg xmlns="http://www.w3.org/2000/svg" width="144.2" height="191.1" viewBox="0 0 144.2 191.1">
  <path fill="#FFF" d="M130.9 111.7s3.2-17 8.2-11.8c4.1 4.3 4.8 22.8 1.1 35.4-1.6 5.6-8.9 11.5-11.6 8.5-2.6-3 2.3-32.1 2.3-32.1m-113.7 0s-3.2-17-8.1-11.8c-4.1 4.3-4.8 22.8-1.3 35.4 1.6 5.6 8.9 11.6 11.5 8.6 2.7-3.1-2.1-32.2-2.1-32.2m39.4-4.3s-2.5-17.1-8.2-12.2c-5.9 5.2-5.3 27.2-3.3 35.3 1.4 5.7 9 12 12 9.1 3.1-2.8-.5-32.2-.5-32.2"/>
  <path fill="#FFF" stroke="#00A78E" stroke-width="2" stroke-miterlimit="10" d="M12.8 84.9c.1 6-3.9 54.4 13 75.6 9.6 12.1 23.4 22.5 30.8 25.5 10.7 4.4 20.9 5.2 32.2 2.8 11.2-2.4 27.7-14.1 37.8-36.7 4.8-10.7 18-95.2-6.3-119-16-15.6-50.9-13.7-64.5-13.1-13.6.6-43.6 5.4-43 64.9"/>
  <path fill="#00A78E" d="M97.1 106.9c0 3.3 2.7 5.9 6 5.9s6-2.7 6-5.9c0-3.3-2.7-5.9-6-5.9s-6 2.6-6 5.9"/>
  <path fill="#00A78E" d="M120.2 106.4c-.1 0-8.2-7.8-18-7.9-5 0-10.4 2.1-15.2 8.4l1.5 1.8c4.4-5.8 9.1-7.6 13.7-7.6 4.4 0 8.7 1.8 11.8 3.7 1.6.9 2.8 1.9 3.7 2.5.4.3.8.6 1 .8l.3.3 1.2-2z"/>
  <path fill="#FFF" d="M101.6 106.8c0 1.1-.6 2.1-1.4 2.1-.8 0-1.4-.9-1.4-2.1 0-1.1.6-2.1 1.4-2.1.8 0 1.4.9 1.4 2.1"/>
  <path fill="#00A78E" d="M56.5 106.9c0 3.3-2.7 5.9-6 5.9s-6-2.7-6-5.9c0-3.3 2.7-5.9 6-5.9s6 2.6 6 5.9"/>
  <path fill="#00A78E" d="M32.6 108.5l.3-.3c1.6-1.4 8.7-7.1 16.4-7.1 4.6 0 9.3 1.9 13.7 7.6l1.4-1.8c-4.7-6.3-10.2-8.4-15.1-8.4-9.8 0-17.9 7.8-18 7.9l1.3 2.1z"/>
  <path fill="#FFF" d="M48.1 106.8c0 1.1-.6 2.1-1.4 2.1-.8 0-1.4-.9-1.4-2.1 0-1.1.6-2.1 1.4-2.1.8 0 1.4.9 1.4 2.1"/>
  <path fill="#00A78E" d="M59.5 78.6s7.7 6.8 1.2 8c-6.4 1.2-17-1.1-21.6 0-4.7 1-13.9 4.6-13.9 4.6l-.6-3.9c0 .1 12.6-11.8 34.9-8.7m32-6.2s-7.4 6.5-1 8c6.5 1.5 16.9-.4 21.7.8 4.7 1.2 14 5.1 14 5.1l.5-3.8c0-.1-13-12.4-35.2-10.1m-23 64.1s.5.1 1.3.2 2 .3 3.4.5 3.1.3 4.7.1c.8-.1 1.5-.4 1.9-.8.1-.1.2-.2.2-.3v-.1.1-.1l.1-.3c.2-.5.1-.8.2-1.2.1-.9.1-1.8.1-2.7 0-.9 0-1.8-.1-2.7-.1-1.8-.2-3.4-.3-4.9-.2-2.9-.2-4.8-.2-4.8s.7 1.8 1.4 4.6c.3 1.4.7 3.1.9 4.9.1.9.2 1.8.3 2.8v3c-.1.5-.1 1.2-.3 1.6l-.1.3v.2l-.1.2c-.1.3-.3.6-.6.8-.5.5-1.1.8-1.6.9-.5.2-1.1.2-1.6.3-1 .1-1.9-.1-2.8-.2-.8-.1-1.6-.4-2.3-.6-1.4-.4-2.5-.9-3.3-1.3-.8-.3-1.2-.5-1.2-.5m-11.9 23.6s21.3-5.8 38.7-.9c-2.4-3.4-25.7-11.8-38.7.9"/>
  <path fill="#00A78E" stroke="#FFF" stroke-width="2" stroke-miterlimit="10" d="M10.3 95.5S-.9 66.6 1.4 55c2.3-11.6 8-22 28.4-40.5C43.1 2.4 66.6.3 69.2 3.3c4 4.5 10.9 6.5 15.8.7 5-5.8 22.6-2.1 20.3 2.6 9.4-5.4 15.9 4.6 15.9 4.6s35.4 4.5 16 96.1c-1.7 8-3.7 17.2-3.7 17.2-7.2.4-.8-10.7.4-44.4 1.5-46.6-41.7-36.4-57.7-38.2-19.2-2.1-51.6-4.6-57.5 20.3-4.1 17.8-4 38.9-3.5 50.2.2 4.8.4 5.4-2.9 8.8h-1l-1-25.7z"/>
</svg>