<svg xmlns="http://www.w3.org/2000/svg" width="47.7" height="390" viewBox="0 0 47.7 390">
  <path fill="#00A78E" stroke="#FFF" stroke-width="3" stroke-miterlimit="10" d="M5.5 194.2l-.3 150.5c-1.2.1-2.2.4-2.7.9-.9.9-1.7 18.7-.3 24.6 1.6 7.1 9 18.4 22.6 18.4 2 0 4.1-.2 6.3-.8 4.4-1 11.3-4.4 13.8-14.9.6-2.6 1.5-6.2 1-9.1-.3-1.8-6.8-1.7-7.2 0-.5 2.4-.2 4.8-.6 6.8-1.2 5.7-4.1 9.1-8.7 10.2-14.3 3.4-18.6-9.5-18.9-12.3-.6-5.7 1.5-21.8.4-22.9-.5-.5-1.5-.7-2.7-.9l.2-150.8-2.9.3z"/>
  <path fill="#00A78E" stroke="#FFF" stroke-width="3.673" stroke-miterlimit="10" d="M11.9 2.4s-.1-.6-.5-.6-.5.6-.5.6l-2.8 35h6.3l-2.5-35z"/>
</svg>