<svg xmlns="http://www.w3.org/2000/svg" width="431.8" height="171.7" viewBox="0 0 431.8 171.7">
  <path fill="#00AB9F" d="M219.8 2.8c-2.2.3-3.4.6-4.8 1.1 70.9 34.5 97.2 100.4 113.2 152 30.9-28.7 65.3-26.3 100.9-12.9C407.1 63.6 288.9-7.4 219.8 2.8"/>
  <path fill="none" stroke="#FFF" stroke-width="3.673" stroke-miterlimit="10" d="M219.8 2.8c-2.2.3-3.4.6-4.8 1.1 70.9 34.5 97.2 100.4 113.2 152 30.9-28.7 65.3-26.3 100.9-12.9C407.1 63.6 288.9-7.4 219.8 2.8z"/>
  <path fill="#00AB9F" d="M198.7 3.1C129.5 3.4 28 67.1 3.4 157c-1.1 3.4-1.9 8.8-1.5 10.2 3.1-3.9 12-8 12-8 28-11.4 57-14.4 88.7 8.1 7-51.8 38.9-132.6 96.1-164.2"/>
  <path fill="none" stroke="#FFF" stroke-width="3.673" stroke-miterlimit="10" d="M198.7 3.1C129.5 3.4 28 67.1 3.4 157c-1.1 3.4-1.9 8.8-1.5 10.2 3.1-3.9 12-8 12-8 28-11.4 56.9-14.4 88.7 8.1 7-51.8 38.9-132.6 96.1-164.2z"/>
  <path fill="#00AB9F" d="M217.7 160.6v-.1c3.8-3.1 19.8-15.9 42.3-19.2 23.9-3.5 42.8.4 64.6 13.3-14.1-50.7-45.5-120.9-115.3-149.5V5l-.9-.3c-.1 0-.1-.1-.2-.1l-2.2-.7-2.1.3c-60.4 29.8-93 111.8-97 163.4 32.3-26.1 67.2-28 104.7-6.7l6.1-.3z"/>
  <path fill="none" stroke="#FFF" stroke-width="3.673" stroke-miterlimit="10" d="M217.7 160.6v-.1c3.8-3.1 19.8-15.9 42.3-19.2 23.9-3.5 42.8.4 64.6 13.3-14.1-50.7-45.5-120.9-115.3-149.5V5l-.9-.3c-.1 0-.1-.1-.2-.1l-2.2-.7-2.1.3c-60.4 29.8-93 111.8-97 163.4 32.3-26.1 67.2-28 104.7-6.7l6.1-.3z"/>
</svg>