<svg xmlns="http://www.w3.org/2000/svg" width="59.8" height="388.7" viewBox="0 0 59.8 388.7">
  <path fill="#00AB9F" d="M8 194.3l8.2 150.2c-1.2.2-2.2.5-2.6 1-.9 1-.6 18.8 1.1 24.6 2 7 10.1 17.9 23.6 17.1 2-.1 4-.4 6.2-1.1 4.4-1.3 11.1-5 13-15.6.5-2.6 1.2-6.3.5-9.2-.4-1.7-6.9-1.4-7.2.4-.3 2.4.1 4.8-.2 6.8-.9 5.8-3.6 9.4-8.1 10.7-14.1 4.1-19.1-8.4-19.6-11.2-.9-5.7.3-21.9-.9-22.9-.5-.4-1.5-.7-2.7-.7l-8.2-150.6-3.1.5z"/>
  <path fill="none" stroke="#FFF" stroke-width="3" stroke-miterlimit="10" d="M8 194.3l8.2 150.2c-1.2.2-2.2.5-2.6 1-.9 1-.6 18.8 1.1 24.6 2 7 10.1 17.9 23.6 17.1 2-.1 4-.4 6.2-1.1 4.4-1.3 11.1-5 13-15.6.5-2.6 1.2-6.3.5-9.2-.4-1.7-6.9-1.4-7.2.4-.3 2.4.1 4.8-.2 6.8-.9 5.8-3.6 9.4-8.1 10.7-14.1 4.1-19.1-8.4-19.6-11.2-.9-5.7.3-21.9-.9-22.9-.5-.4-1.5-.7-2.7-.7l-8.2-150.6-3.1.5z"/>
  <path fill="#00AB9F" d="M3.8 2.4s-.1-.6-.5-.6-.5.6-.5.6l-.9 35.2 6.3-.3L3.8 2.4z"/>
  <path fill="none" stroke="#FFF" stroke-width="3.673" stroke-miterlimit="10" d="M3.8 2.4s-.1-.6-.5-.6-.5.6-.5.6l-.9 35.2 6.3-.3L3.8 2.4z"/>
</svg>