<svg xmlns="http://www.w3.org/2000/svg" width="167.7" height="167.7" viewBox="0 0 167.7 167.7">
  <path fill="#00A78E" d="M158.4 118.7c-3.5-3.5-11-7.3-16.8-8.4-5.8-1.2-12.4-3-14.7-4.1-2.3-1.1-16.4-14.3-31.3-29.2-15-15-28.1-29.1-29.3-31.4-1.1-2.3-2.2-9.4-2.5-15.8-.2-6.4-3.7-14.9-7.6-18.9-4-4-11.7-8.3-17.3-9.7C35.5.5 32.1 0 29.8 0c-1.4 0-2.4.2-2.7.5l-2.3 2.3c-.3.3 3.8 5 9.2 10.3 5.4 5.4 9.7 10.4 9.7 11.2 0 .8-1.7 3.8-3.7 6.8s-6 7-9 9-6 3.6-6.8 3.7c-.8 0-5.8-4.4-11.2-9.7-5-5.2-9.5-9.3-10.1-9.3h-.1L.5 27.1c-.9.9-.6 6.2.8 11.8C2.6 44.5 7 52.3 11 56.2c4 4 12.4 7.4 18.9 7.6 6.4.2 13.5 1.4 15.8 2.5C47.9 67.5 62 80.6 77 95.5c14.9 14.9 28.1 29 29.2 31.3 1.1 2.3 3 8.9 4.1 14.7 1.2 5.8 5 13.4 8.4 16.8 3.5 3.5 10.3 7.3 15.2 8.5 2.2.5 4.4.8 6.3.8 2.4 0 4.3-.4 5.1-1.2 1.4-1.4 2.7-2.7 2.9-3 .2-.2-3.4-4.2-8.2-9-4.7-4.7-8.6-9-8.6-9.6 0-.6 1-2.8 2.3-5 1.3-2.1 4.1-4.9 6.2-6.2 2.1-1.3 4.3-2.3 4.9-2.3.6.1 4.9 3.9 9.6 8.6 4.6 4.6 8.5 8.2 8.9 8.2.2-.2 1.6-1.5 3-3 1.4-1.4 1.6-6.5.4-11.4-1-4.7-4.8-11.5-8.3-15"/>
</svg>