<?xml version="1.0" encoding="utf-8"?>
<!-- Generator: Adobe Illustrator 17.1.0, SVG Export Plug-In . SVG Version: 6.00 Build 0)  -->
<!DOCTYPE svg PUBLIC "-//W3C//DTD SVG 1.1//EN" "http://www.w3.org/Graphics/SVG/1.1/DTD/svg11.dtd">
<svg version="1.1" id="Layer_1" xmlns="http://www.w3.org/2000/svg" xmlns:xlink="http://www.w3.org/1999/xlink" x="0px" y="0px"
	 viewBox="0 0 1426.5 401.2" enable-background="new 0 0 1426.5 401.2" xml:space="preserve">
<path fill="#00A78E" d="M992.1,331.7h134.1v50.5H992.1V331.7z"/>
<g>
	<defs>
		<rect id="SVGID_1_" x="149.1" y="84" width="1277.4" height="298.3"/>
	</defs>
	<clipPath id="SVGID_2_">
		<use xlink:href="#SVGID_1_"  overflow="visible"/>
	</clipPath>
	<path clip-path="url(#SVGID_2_)" fill="#32CFB6" d="M1409,362.4V215.8h6v-8.7h3.2l-21.3-15.6H721.4l-21.3,15.6h3.2v8.7h5.9v146.5
		h-9.9v19.8h299.2v-30.5c0-7.4,6.6-13.3,14.9-13.3c8.2,0,14.9,5.9,14.9,13.3v30.5h16v-30.5c0-7.4,6.6-13.3,14.9-13.3
		c8.2,0,14.8,5.9,14.8,13.3v30.5h16v-30.5c0-7.4,6.6-13.3,14.9-13.3c8.2,0,14.8,5.9,14.8,13.3v30.5h299.1v-19.8h-9.8L1409,362.4z"/>
</g>
<path fill="#00BBA2" d="M870.3,176.8l-40.7-9.6l-40.8,9.6H788v14.7h82v-14.7 M1330.3,176.8l-40.8-9.6l-40.7,9.6h-0.8v14.7h82v-14.7"
	/>
<g>
	<defs>
		<rect id="SVGID_3_" x="149.1" y="84" width="1277.4" height="298.3"/>
	</defs>
	<clipPath id="SVGID_4_">
		<use xlink:href="#SVGID_3_"  overflow="visible"/>
	</clipPath>
	<path clip-path="url(#SVGID_4_)" fill="#32CFB6" d="M1163.5,154.2c-10.8-31.7-51.9-55.4-101.5-56.3V84h-5.7v13.9
		c-49.5,0.9-90.7,24.6-101.5,56.3h0.3v37.3h208v-37.3H1163.5L1163.5,154.2z"/>
</g>
<g>
	<defs>
		<rect id="SVGID_5_" x="149.1" y="84" width="1277.4" height="298.3"/>
	</defs>
	<clipPath id="SVGID_6_">
		<use xlink:href="#SVGID_5_"  overflow="visible"/>
	</clipPath>
	<path clip-path="url(#SVGID_6_)" fill="#00A78E" d="M761,355.6h-19.9v-26c0-4.3,4.5-7.8,9.9-7.8c5.5,0,9.9,3.5,9.9,7.8L761,355.6
		L761,355.6z"/>
</g>
<path fill="#00A78E" d="M738.5,279.7h25.1v32.1h-25.1V279.7z M738.5,233.3h25.1v32.1h-25.1V233.3z"/>
<g>
	<defs>
		<rect id="SVGID_7_" x="149.1" y="84" width="1277.4" height="298.3"/>
	</defs>
	<clipPath id="SVGID_8_">
		<use xlink:href="#SVGID_7_"  overflow="visible"/>
	</clipPath>
	<path clip-path="url(#SVGID_8_)" fill="#00A78E" d="M817.3,355.6h-19.9v-26c0-4.3,4.5-7.8,9.9-7.8c5.5,0,9.9,3.5,9.9,7.8
		L817.3,355.6L817.3,355.6z"/>
</g>
<path fill="#00A78E" d="M794.8,279.7h25.1v32.1h-25.1V279.7z M794.8,233.3h25.1v32.1h-25.1V233.3z"/>
<g>
	<defs>
		<rect id="SVGID_9_" x="149.1" y="84" width="1277.4" height="298.3"/>
	</defs>
	<clipPath id="SVGID_10_">
		<use xlink:href="#SVGID_9_"  overflow="visible"/>
	</clipPath>
	<path clip-path="url(#SVGID_10_)" fill="#00A78E" d="M873.5,355.6h-19.9v-26c0-4.3,4.4-7.8,9.9-7.8s9.9,3.5,9.9,7.8L873.5,355.6
		L873.5,355.6z"/>
</g>
<path fill="#00A78E" d="M851.1,279.7h25v32.1h-25V279.7z M851.1,233.3h25v32.1h-25V233.3z"/>
<g>
	<defs>
		<rect id="SVGID_11_" x="149.1" y="84" width="1277.4" height="298.3"/>
	</defs>
	<clipPath id="SVGID_12_">
		<use xlink:href="#SVGID_11_"  overflow="visible"/>
	</clipPath>
	<path clip-path="url(#SVGID_12_)" fill="#00A78E" d="M929.8,355.6h-19.9v-26c0-4.3,4.5-7.8,10-7.8s9.9,3.5,9.9,7.8V355.6z"/>
</g>
<path fill="#00A78E" d="M907.4,279.7h25v32.1h-25V279.7z M907.4,233.3h25v32.1h-25V233.3z"/>
<g>
	<defs>
		<rect id="SVGID_13_" x="149.1" y="84" width="1277.4" height="298.3"/>
	</defs>
	<clipPath id="SVGID_14_">
		<use xlink:href="#SVGID_13_"  overflow="visible"/>
	</clipPath>
	<path clip-path="url(#SVGID_14_)" fill="#00A78E" d="M986.1,355.6h-19.9v-26c0-4.3,4.4-7.8,9.9-7.8s9.9,3.5,9.9,7.8L986.1,355.6
		L986.1,355.6z"/>
</g>
<path fill="#00A78E" d="M963.6,279.7h25.1v32.1h-25.1V279.7z M963.6,233.3h25.1v32.1h-25.1V233.3z M1001,279.7h24.2v42.1H1001V279.7
	z M1001,233.3h24.2v25.9H1001V233.3z M1047.1,279.7h24.2v42.1h-24.2V279.7z M1047.1,233.3h24.2v25.9h-24.2V233.3z M1093.1,279.7
	h24.2v42.1h-24.2V279.7z M1093.1,233.3h24.2v25.9h-24.2V233.3z"/>
<g>
	<defs>
		<rect id="SVGID_15_" x="149.1" y="84" width="1277.4" height="298.3"/>
	</defs>
	<clipPath id="SVGID_16_">
		<use xlink:href="#SVGID_15_"  overflow="visible"/>
	</clipPath>
	<path clip-path="url(#SVGID_16_)" fill="#00A78E" d="M1152.1,355.6h-19.9v-26c0-4.3,4.4-7.8,9.9-7.8s9.9,3.5,9.9,7.8L1152.1,355.6
		L1152.1,355.6z"/>
</g>
<path fill="#00A78E" d="M1129.6,279.7h25v32.1h-25V279.7z M1129.6,233.3h25v32.1h-25V233.3z"/>
<g>
	<defs>
		<rect id="SVGID_17_" x="149.1" y="84" width="1277.4" height="298.3"/>
	</defs>
	<clipPath id="SVGID_18_">
		<use xlink:href="#SVGID_17_"  overflow="visible"/>
	</clipPath>
	<path clip-path="url(#SVGID_18_)" fill="#00A78E" d="M1208.3,355.6h-19.8v-26c0-4.3,4.4-7.8,9.9-7.8s9.9,3.5,9.9,7.8V355.6z"/>
</g>
<path fill="#00A78E" d="M1185.9,279.7h25v32.1h-25V279.7z M1185.9,233.3h25v32.1h-25V233.3z"/>
<g>
	<defs>
		<rect id="SVGID_19_" x="149.1" y="84" width="1277.4" height="298.3"/>
	</defs>
	<clipPath id="SVGID_20_">
		<use xlink:href="#SVGID_19_"  overflow="visible"/>
	</clipPath>
	<path clip-path="url(#SVGID_20_)" fill="#00A78E" d="M1264.6,355.6h-19.9v-26c0-4.3,4.4-7.8,9.9-7.8s9.9,3.5,9.9,7.8L1264.6,355.6
		L1264.6,355.6z"/>
</g>
<path fill="#00A78E" d="M1242.2,279.7h25v32.1h-25V279.7z M1242.2,233.3h25v32.1h-25V233.3z"/>
<g>
	<defs>
		<rect id="SVGID_21_" x="149.1" y="84" width="1277.4" height="298.3"/>
	</defs>
	<clipPath id="SVGID_22_">
		<use xlink:href="#SVGID_21_"  overflow="visible"/>
	</clipPath>
	<path clip-path="url(#SVGID_22_)" fill="#00A78E" d="M1320.9,355.6H1301v-26c0-4.3,4.4-7.8,9.9-7.8s9.9,3.5,9.9,7.8L1320.9,355.6
		L1320.9,355.6z"/>
</g>
<path fill="#00A78E" d="M1298.4,279.7h25.1v32.1h-25.1V279.7z M1298.4,233.3h25.1v32.1h-25.1V233.3z"/>
<g>
	<defs>
		<rect id="SVGID_23_" x="149.1" y="84" width="1277.4" height="298.3"/>
	</defs>
	<clipPath id="SVGID_24_">
		<use xlink:href="#SVGID_23_"  overflow="visible"/>
	</clipPath>
	<path clip-path="url(#SVGID_24_)" fill="#00A78E" d="M1377.1,355.6h-19.9v-26c0-4.3,4.4-7.8,9.9-7.8s9.9,3.5,9.9,7.8L1377.1,355.6
		L1377.1,355.6z"/>
</g>
<path fill="#00A78E" d="M1354.7,279.7h25v32.1h-25V279.7z M1354.7,233.3h25v32.1h-25V233.3z"/>
<g>
	<defs>
		<rect id="SVGID_25_" x="149.1" y="84" width="1277.4" height="298.3"/>
	</defs>
	<clipPath id="SVGID_26_">
		<use xlink:href="#SVGID_25_"  overflow="visible"/>
	</clipPath>
	<path clip-path="url(#SVGID_26_)" fill="#00A78E" d="M1117.6,167.9c0,2.1-1.7,3.7-3.8,3.7h-109.4c-2.1,0-3.8-1.7-3.8-3.7V149
		c0-2.1,1.7-3.7,3.8-3.7h109.4c2.1,0,3.8,1.7,3.8,3.7V167.9z M1407.1,335.2c0.4-0.3,0.9-0.2,1.2,0.2l0.1,0.1
		c0.3,0.4,0.2,0.9-0.2,1.2l-17.7,12.7c-0.4,0.3-0.9,0.2-1.2-0.2l-0.1-0.1c-0.3-0.4-0.2-0.9,0.2-1.2L1407.1,335.2z"/>
</g>
<g>
	<defs>
		<rect id="SVGID_27_" x="149.1" y="84" width="1277.4" height="298.3"/>
	</defs>
	<clipPath id="SVGID_28_">
		<use xlink:href="#SVGID_27_"  overflow="visible"/>
	</clipPath>
	<path clip-path="url(#SVGID_28_)" fill="#55E1C8" d="M1380.7,341.4c0,7.1-5.8,12.8-13,12.8s-13-5.8-13-12.8c0-7.1,5.8-12.8,13-12.8
		S1380.7,334.3,1380.7,341.4 M1426.5,331.6c0-7.5-6.1-13.6-13.7-13.6s-13.8,6.1-13.8,13.6c0,3.5,1.4,6.7,3.6,9.2
		c0.8-0.2,1.7-0.4,2.6-0.4c3.6,0,6.7,1.9,8.3,4.7C1420.8,344.7,1426.5,338.8,1426.5,331.6"/>
</g>
<g>
	<defs>
		<rect id="SVGID_29_" x="149.1" y="84" width="1277.4" height="298.3"/>
	</defs>
	<clipPath id="SVGID_30_">
		<use xlink:href="#SVGID_29_"  overflow="visible"/>
	</clipPath>
	<path clip-path="url(#SVGID_30_)" fill="#55E1C8" d="M1413.6,349.2c0,4.5-3.7,8.2-8.3,8.2c-4.6,0-8.3-3.7-8.3-8.2s3.7-8.2,8.3-8.2
		C1409.9,341,1413.6,344.7,1413.6,349.2 M1408.4,318c-2.4-8.2-10.1-14.2-19.2-14.2c-11.1,0-20,8.9-20,19.8c0,1.5,0.2,2.9,0.5,4.3
		c6.7,1.2,11.8,7,11.8,13.9c2.4,1,5,1.5,7.7,1.5c4.3,0,8.2-1.3,11.5-3.6c-1.6-2.3-2.6-5.1-2.6-8.1
		C1398.1,325.2,1402.5,319.7,1408.4,318"/>
</g>
<g>
	<defs>
		<rect id="SVGID_31_" x="149.1" y="84" width="1277.4" height="298.3"/>
	</defs>
	<clipPath id="SVGID_32_">
		<use xlink:href="#SVGID_31_"  overflow="visible"/>
	</clipPath>
	<path clip-path="url(#SVGID_32_)" fill="#00A78E" d="M1390.9,336.2c0-1.1-0.9-1.9-2-1.9h-0.3c-1.1,0-2,0.9-2,1.9v46h4.2v-46H1390.9
		z"/>
</g>
<g>
	<defs>
		<rect id="SVGID_33_" x="149.1" y="84" width="1277.4" height="298.3"/>
	</defs>
	<clipPath id="SVGID_34_">
		<use xlink:href="#SVGID_33_"  overflow="visible"/>
	</clipPath>
	<path clip-path="url(#SVGID_34_)" fill="#00A78E" d="M1389.3,355.4c0.4,0.3,0.4,0.9,0,1.3l-0.1,0.1c-0.3,0.5-0.9,0.7-1.3,0.4
		l-16.6-11.7c-0.4-0.3-0.4-0.9,0-1.3l0.1-0.1c0.3-0.5,0.9-0.7,1.3-0.4L1389.3,355.4z M1402.7,351.6c0.3-0.3,0.8-0.2,1.1,0.2l0.1,0.1
		c0.3,0.3,0.3,0.8,0,1.1l-13,11.3c-0.3,0.3-0.8,0.2-1.1-0.2l-0.1-0.1c-0.3-0.3-0.3-0.8,0-1.1L1402.7,351.6z M1240.9,335.2
		c0.4-0.3,0.9-0.2,1.2,0.2l0.1,0.1c0.3,0.4,0.2,0.9-0.2,1.2l-17.7,12.7c-0.4,0.3-0.9,0.2-1.2-0.2l-0.1-0.1c-0.3-0.4-0.2-0.9,0.2-1.2
		L1240.9,335.2z"/>
</g>
<g>
	<defs>
		<rect id="SVGID_35_" x="149.1" y="84" width="1277.4" height="298.3"/>
	</defs>
	<clipPath id="SVGID_36_">
		<use xlink:href="#SVGID_35_"  overflow="visible"/>
	</clipPath>
	<path clip-path="url(#SVGID_36_)" fill="#55E1C8" d="M1214.5,341.4c0,7.1-5.8,12.8-13,12.8s-13-5.8-13-12.8c0-7.1,5.8-12.8,13-12.8
		S1214.5,334.3,1214.5,341.4 M1260.3,331.6c0-7.5-6.2-13.6-13.7-13.6c-7.6,0-13.8,6.1-13.8,13.6c0,3.5,1.4,6.7,3.6,9.2
		c0.8-0.2,1.7-0.4,2.6-0.4c3.6,0,6.7,1.9,8.3,4.7C1254.6,344.7,1260.3,338.8,1260.3,331.6"/>
</g>
<g>
	<defs>
		<rect id="SVGID_37_" x="149.1" y="84" width="1277.4" height="298.3"/>
	</defs>
	<clipPath id="SVGID_38_">
		<use xlink:href="#SVGID_37_"  overflow="visible"/>
	</clipPath>
	<path clip-path="url(#SVGID_38_)" fill="#55E1C8" d="M1247.4,349.2c0,4.5-3.7,8.2-8.3,8.2c-4.6,0-8.3-3.7-8.3-8.2s3.7-8.2,8.3-8.2
		C1243.7,341,1247.4,344.7,1247.4,349.2 M1242.2,318c-2.4-8.2-10.1-14.2-19.2-14.2c-11.1,0-20,8.9-20,19.8c0,1.5,0.2,2.9,0.5,4.3
		c6.7,1.2,11.8,7,11.8,13.9c2.4,1,5,1.5,7.7,1.5c4.3,0,8.2-1.3,11.5-3.6c-1.6-2.3-2.6-5.1-2.6-8.1
		C1231.9,325.2,1236.3,319.7,1242.2,318"/>
</g>
<g>
	<defs>
		<rect id="SVGID_39_" x="149.1" y="84" width="1277.4" height="298.3"/>
	</defs>
	<clipPath id="SVGID_40_">
		<use xlink:href="#SVGID_39_"  overflow="visible"/>
	</clipPath>
	<path clip-path="url(#SVGID_40_)" fill="#00A78E" d="M1224.7,336.2c0-1.1-0.9-1.9-2-1.9h-0.3c-1.1,0-2,0.9-2,1.9v46h4.2v-46H1224.7
		z"/>
</g>
<g>
	<defs>
		<rect id="SVGID_41_" x="149.1" y="84" width="1277.4" height="298.3"/>
	</defs>
	<clipPath id="SVGID_42_">
		<use xlink:href="#SVGID_41_"  overflow="visible"/>
	</clipPath>
	<path clip-path="url(#SVGID_42_)" fill="#00A78E" d="M1223.1,355.4c0.4,0.3,0.4,0.9,0,1.3l-0.1,0.1c-0.3,0.5-0.9,0.7-1.3,0.4
		l-16.5-11.7c-0.4-0.3-0.4-0.9,0-1.3l0.1-0.1c0.3-0.5,0.9-0.7,1.3-0.4L1223.1,355.4z M1236.5,351.6c0.3-0.3,0.8-0.2,1.1,0.2l0.1,0.1
		c0.3,0.3,0.3,0.8,0,1.1l-13,11.3c-0.3,0.3-0.8,0.2-1.1-0.2l-0.1-0.1c-0.3-0.3-0.3-0.8,0-1.1L1236.5,351.6z M944.3,334.4
		c0.4-0.3,0.9-0.2,1.2,0.2l0.1,0.1c0.3,0.4,0.2,0.9-0.2,1.2l-17.7,12.7c-0.4,0.3-0.9,0.2-1.2-0.2l-0.1-0.1c-0.3-0.4-0.2-0.9,0.2-1.2
		L944.3,334.4z"/>
</g>
<g>
	<defs>
		<rect id="SVGID_43_" x="149.1" y="84" width="1277.4" height="298.3"/>
	</defs>
	<clipPath id="SVGID_44_">
		<use xlink:href="#SVGID_43_"  overflow="visible"/>
	</clipPath>
	<path clip-path="url(#SVGID_44_)" fill="#55E1C8" d="M917.9,340.6c0,7.1-5.8,12.8-13,12.8s-13-5.8-13-12.8s5.8-12.8,13-12.8
		C912,327.8,917.9,333.5,917.9,340.6 M963.6,330.9c0-7.5-6.1-13.6-13.7-13.6s-13.8,6.1-13.8,13.6c0,3.5,1.4,6.7,3.6,9.2
		c0.8-0.2,1.7-0.4,2.6-0.4c3.6,0,6.7,1.9,8.3,4.7C957.9,343.9,963.6,338.1,963.6,330.9"/>
</g>
<g>
	<defs>
		<rect id="SVGID_45_" x="149.1" y="84" width="1277.4" height="298.3"/>
	</defs>
	<clipPath id="SVGID_46_">
		<use xlink:href="#SVGID_45_"  overflow="visible"/>
	</clipPath>
	<path clip-path="url(#SVGID_46_)" fill="#55E1C8" d="M950.7,348.5c0,4.5-3.7,8.2-8.3,8.2s-8.3-3.7-8.3-8.2s3.7-8.2,8.3-8.2
		S950.7,343.9,950.7,348.5 M945.6,317.2c-2.4-8.2-10.1-14.2-19.2-14.2c-11.1,0-20,8.9-20,19.8c0,1.5,0.2,2.9,0.5,4.3
		c6.7,1.2,11.8,7,11.8,13.9c2.4,1,5,1.5,7.7,1.5c4.3,0,8.2-1.3,11.5-3.6c-1.6-2.3-2.6-5.1-2.6-8.1
		C935.2,324.4,939.6,319,945.6,317.2"/>
</g>
<g>
	<defs>
		<rect id="SVGID_47_" x="149.1" y="84" width="1277.4" height="298.3"/>
	</defs>
	<clipPath id="SVGID_48_">
		<use xlink:href="#SVGID_47_"  overflow="visible"/>
	</clipPath>
	<path clip-path="url(#SVGID_48_)" fill="#00A78E" d="M928.1,335.4c0-1.1-0.9-1.9-2-1.9h-0.3c-1.1,0-2,0.9-2,1.9v46h4.2L928.1,335.4
		L928.1,335.4z"/>
</g>
<g>
	<defs>
		<rect id="SVGID_49_" x="149.1" y="84" width="1277.4" height="298.3"/>
	</defs>
	<clipPath id="SVGID_50_">
		<use xlink:href="#SVGID_49_"  overflow="visible"/>
	</clipPath>
	<path clip-path="url(#SVGID_50_)" fill="#00A78E" d="M926.5,354.7c0.4,0.3,0.4,0.9,0,1.3l-0.1,0.1c-0.3,0.5-0.9,0.7-1.3,0.4
		l-16.6-11.7c-0.4-0.3-0.4-0.9,0-1.3l0.1-0.1c0.3-0.5,0.9-0.7,1.3-0.4L926.5,354.7z M939.9,350.9c0.3-0.3,0.8-0.2,1.1,0.2l0.1,0.1
		c0.3,0.3,0.3,0.8,0,1.1l-13,11.3c-0.3,0.3-0.8,0.2-1.1-0.2l-0.1-0.1c-0.3-0.3-0.3-0.8,0-1.1L939.9,350.9z M732.3,334.4
		c0.4-0.3,0.9-0.2,1.2,0.2l0.1,0.1c0.3,0.4,0.2,0.9-0.2,1.2l-17.7,12.7c-0.4,0.3-0.9,0.2-1.2-0.2l-0.1-0.1c-0.3-0.4-0.2-0.9,0.2-1.2
		L732.3,334.4z"/>
</g>
<g>
	<defs>
		<rect id="SVGID_51_" x="149.1" y="84" width="1277.4" height="298.3"/>
	</defs>
	<clipPath id="SVGID_52_">
		<use xlink:href="#SVGID_51_"  overflow="visible"/>
	</clipPath>
	<path clip-path="url(#SVGID_52_)" fill="#55E1C8" d="M705.9,340.6c0,7.1-5.8,12.8-13,12.8s-13-5.8-13-12.8s5.8-12.8,13-12.8
		C700,327.8,705.9,333.5,705.9,340.6 M751.6,330.9c0-7.5-6.2-13.6-13.7-13.6c-7.6,0-13.8,6.1-13.8,13.6c0,3.5,1.4,6.7,3.6,9.2
		c0.8-0.2,1.7-0.4,2.6-0.4c3.6,0,6.7,1.9,8.3,4.7C745.9,343.9,751.6,338.1,751.6,330.9"/>
</g>
<g>
	<defs>
		<rect id="SVGID_53_" x="149.1" y="84" width="1277.4" height="298.3"/>
	</defs>
	<clipPath id="SVGID_54_">
		<use xlink:href="#SVGID_53_"  overflow="visible"/>
	</clipPath>
	<path clip-path="url(#SVGID_54_)" fill="#55E1C8" d="M738.7,348.5c0,4.5-3.7,8.2-8.3,8.2s-8.3-3.7-8.3-8.2s3.7-8.2,8.3-8.2
		S738.7,343.9,738.7,348.5 M733.6,317.2c-2.4-8.2-10.1-14.2-19.2-14.2c-11.1,0-20,8.9-20,19.8c0,1.5,0.2,2.9,0.5,4.3
		c6.7,1.2,11.8,7,11.8,13.9c2.4,1,5,1.5,7.7,1.5c4.3,0,8.2-1.3,11.5-3.6c-1.6-2.3-2.6-5.1-2.6-8.1
		C723.2,324.4,727.6,319,733.6,317.2"/>
</g>
<g>
	<defs>
		<rect id="SVGID_55_" x="149.1" y="84" width="1277.4" height="298.3"/>
	</defs>
	<clipPath id="SVGID_56_">
		<use xlink:href="#SVGID_55_"  overflow="visible"/>
	</clipPath>
	<path clip-path="url(#SVGID_56_)" fill="#00A78E" d="M716,335.4c0-1.1-0.9-1.9-2-1.9h-0.3c-1.1,0-2,0.9-2,1.9v46h4.2L716,335.4
		L716,335.4z"/>
</g>
<g>
	<defs>
		<rect id="SVGID_57_" x="149.1" y="84" width="1277.4" height="298.3"/>
	</defs>
	<clipPath id="SVGID_58_">
		<use xlink:href="#SVGID_57_"  overflow="visible"/>
	</clipPath>
	<path clip-path="url(#SVGID_58_)" fill="#00A78E" d="M714.4,354.7c0.4,0.3,0.4,0.9,0,1.3l-0.1,0.1c-0.3,0.5-0.9,0.7-1.3,0.4
		l-16.6-11.7c-0.4-0.3-0.4-0.9,0-1.3l0.1-0.1c0.3-0.5,0.9-0.7,1.3-0.4L714.4,354.7z M727.9,350.9c0.3-0.3,0.8-0.2,1.1,0.2l0.1,0.1
		c0.3,0.3,0.3,0.8,0,1.1l-13,11.3c-0.3,0.3-0.8,0.2-1.1-0.2l-0.1-0.1c-0.3-0.3-0.3-0.8,0-1.1L727.9,350.9z M662.8,350.6l-2.8,0.5
		l-2.8-0.6c-0.5,1.1-0.5,2.4,0.3,3.4c1,1.5,3,1.8,4.4,0.8C663.1,353.8,663.5,352,662.8,350.6 M666.6,365.8v-7.3c0-1-0.8-1.9-1.8-1.9
		h-2.4l-1.6,3.7l-0.3-2.9l0.4-0.8h-1.7l0.4,0.8l-0.3,2.9l-1.6-3.7h-2.4c-1,0.1-1.8,0.9-1.8,1.9v10.1c0,1.1,0.9,1.9,2,1.9h0.4v9.9
		c0,0.6,0.9,1.1,2,1.1s2-0.5,2-1.1v-8.6h0.6v8.6c0,0.6,0.9,1.1,2,1.1s2-0.5,2-1.1v-9.9h0.4c1.1,0,2-0.9,2-1.9v-2.8L666.6,365.8z
		 M654.8,348.9C654.7,349,654.7,349,654.8,348.9l1.4,0.3v-0.9L654.8,348.9z"/>
</g>
<g>
	<defs>
		<rect id="SVGID_59_" x="149.1" y="84" width="1277.4" height="298.3"/>
	</defs>
	<clipPath id="SVGID_60_">
		<use xlink:href="#SVGID_59_"  overflow="visible"/>
	</clipPath>
	<path clip-path="url(#SVGID_60_)" fill="#00A78E" d="M665.2,348.9l-5.1-2.3h-0.2l-3.5,1.5v1.1l0.9,0.1l-0.2,0.9
		c0,0.1,0,0.2,0.2,0.2l2.5,0.5h0.4l2.5-0.5c0.1,0,0.2,0,0.2-0.2l-0.2-0.9L665.2,348.9C665.3,349,665.3,349,665.2,348.9 M656.6,351.7
		l-0.2-0.6c0.1-0.1,0.1-0.2,0.1-0.3v-0.5c0-0.1-0.1-0.3-0.1-0.3v-1.8l-0.1,0.1v1.7c-0.1,0.1-0.1,0.2-0.1,0.3v0.5
		c0,0.1,0,0.2,0.1,0.3l-0.2,0.6c0,0.1,0,0.1,0.1,0.1h0.5C656.6,351.9,656.6,351.8,656.6,351.7"/>
</g>
<path fill="#00BBA2" d="M585.6,185v18.2L542,224.8h-12.1v66.4L468.5,317v-45.6h-8.9V255l-22.9-18.8v-11.4h-4.3v-20.4h-1.6v20.4h-4.1
	v11.4L403.8,255v16.4h-8.9v110.3h247.6V224.8h-12.1l-43.6-21.6V185"/>
<g>
	<defs>
		<rect id="SVGID_61_" x="149.1" y="84" width="1277.4" height="298.3"/>
	</defs>
	<clipPath id="SVGID_62_">
		<use xlink:href="#SVGID_61_"  overflow="visible"/>
	</clipPath>
	<path clip-path="url(#SVGID_62_)" fill="#32CFB6" d="M554.3,360.9c-9,0-17.2,3.2-23.2,8.5c-7.5-9.1-19.4-15.1-32.8-15.1
		c-10.4,0-19.9,3.6-27.1,9.4c-5.9-8.9-16.6-15-28.9-15c-13.2,0-24.6,6.9-30.1,17c-5.2-3-11.4-4.8-18.1-4.8c-3.3,0-6.6,0.5-9.6,1.3
		c-4.8-18.7-23.2-32.7-45.2-32.7c-19.2,0-35.6,10.6-42.7,25.7c-5.7-4-12.8-6.4-20.6-6.4c-12.2,0-22.8,5.9-28.8,14.7
		c-5.9-3-12.8-4.8-20-4.8c-17,0-31.5,9.4-37.8,22.8h396.7C581.5,369.5,569,360.9,554.3,360.9"/>
</g>
<g>
	<defs>
		<rect id="SVGID_63_" x="149.1" y="84" width="1277.4" height="298.3"/>
	</defs>
	<clipPath id="SVGID_64_">
		<use xlink:href="#SVGID_63_"  overflow="visible"/>
	</clipPath>
	<path clip-path="url(#SVGID_64_)" fill="#00AB9F" d="M268.8,335.4c0,0,13.7,21.4,12,45.1h8.1c0,0-1.4-44.5,11.2-57.6
		c0,0-14.4,8.8-15.6,31.5L272,334.6L268.8,335.4z"/>
</g>
<g>
	<defs>
		<rect id="SVGID_65_" x="149.1" y="84" width="1277.4" height="298.3"/>
	</defs>
	<clipPath id="SVGID_66_">
		<use xlink:href="#SVGID_65_"  overflow="visible"/>
	</clipPath>
	<path clip-path="url(#SVGID_66_)" fill="#C0E4E1" d="M287.6,319.4c0.5-0.8,0.7-1.8,0.7-2.8c0-3.3-2.7-6-6.1-6
		c-1.3,0-2.5,0.4-3.5,1.1c-0.7-3-3.4-5.3-6.7-5.3c-1.9,0-3.6,0.8-4.8,2c-1-4-4.7-7-9.1-7c-5.2,0-9.4,4.1-9.4,9.2
		c0,2,0.6,3.8,1.7,5.3c-3.3,1.1-5.7,4.3-5.7,7.9c0,4.6,3.8,8.4,8.5,8.4v0.5c0,3.2,2.7,5.9,6,5.9h0.5c1.2,3.4,4.5,5.9,8.4,5.9
		c3.3,0,6.1-1.7,7.7-4.3c0.7,0.2,1.4,0.4,2.1,0.4c2.5,0,4.7-1.6,5.6-3.8c5.1,0,9.3-4.1,9.3-9.1C292.8,324,290.7,320.9,287.6,319.4"
		/>
</g>
<g>
	<defs>
		<rect id="SVGID_67_" x="149.1" y="84" width="1277.4" height="298.3"/>
	</defs>
	<clipPath id="SVGID_68_">
		<use xlink:href="#SVGID_67_"  overflow="visible"/>
	</clipPath>
	<path clip-path="url(#SVGID_68_)" fill="#55E1C8" d="M317.4,319.4c0.5-0.8,0.7-1.8,0.7-2.8c0-3.3-2.7-6-6.1-6
		c-1.3,0-2.5,0.4-3.5,1.1c-0.7-3-3.4-5.3-6.7-5.3c-1.9,0-3.6,0.8-4.8,2c-1-4-4.7-7-9.1-7c-5.2,0-9.4,4.1-9.4,9.2
		c0,2,0.6,3.8,1.7,5.3c-3.3,1.1-5.7,4.3-5.7,7.9c0,4.6,3.8,8.4,8.5,8.4v0.5c0,3.2,2.7,5.9,6,5.9h0.5c1.2,3.4,4.5,5.9,8.4,5.9
		c3.3,0,6.1-1.7,7.7-4.3c0.6,0.2,1.4,0.4,2.1,0.4c2.5,0,4.7-1.6,5.6-3.8c5.1,0,9.3-4.1,9.3-9.1C322.6,324,320.5,320.9,317.4,319.4"
		/>
</g>
<g>
	<defs>
		<rect id="SVGID_69_" x="149.1" y="84" width="1277.4" height="298.3"/>
	</defs>
	<clipPath id="SVGID_70_">
		<use xlink:href="#SVGID_69_"  overflow="visible"/>
	</clipPath>
	<path clip-path="url(#SVGID_70_)" fill="#55E1C8" d="M313.6,305.7c0.5-0.8,0.7-1.8,0.7-2.8c0-3.3-2.7-6-6.1-6
		c-1.3,0-2.5,0.4-3.5,1.1c-0.7-3-3.4-5.3-6.7-5.3c-1.9,0-3.6,0.8-4.8,2c-1-4-4.7-7-9.1-7c-5.2,0-9.4,4.1-9.4,9.2
		c0,2,0.6,3.8,1.7,5.3c-3.3,1.2-5.7,4.3-5.7,7.9c0,4.6,3.8,8.4,8.5,8.4v0.5c0,3.2,2.7,5.9,6,5.9h0.5c1.2,3.4,4.5,5.9,8.4,5.9
		c3.3,0,6.1-1.7,7.7-4.3c0.7,0.2,1.4,0.4,2.1,0.4c2.5,0,4.7-1.6,5.6-3.8c5.1,0,9.3-4.1,9.3-9.1C318.9,310.3,316.7,307.2,313.6,305.7
		"/>
</g>
<g>
	<defs>
		<rect id="SVGID_71_" x="149.1" y="84" width="1277.4" height="298.3"/>
	</defs>
	<clipPath id="SVGID_72_">
		<use xlink:href="#SVGID_71_"  overflow="visible"/>
	</clipPath>
	<path clip-path="url(#SVGID_72_)" fill="#C0E4E1" d="M286.1,301.4c0.4-0.8,0.7-1.8,0.7-2.8c0-3.3-2.7-6-6.1-6
		c-1.3,0-2.5,0.4-3.5,1.1c-0.7-3-3.4-5.3-6.7-5.3c-1.9,0-3.6,0.8-4.8,2c-1-4-4.7-7-9.1-7c-5.2,0-9.4,4.1-9.4,9.2
		c0,2,0.6,3.8,1.7,5.3c-3.3,1.2-5.7,4.3-5.7,7.9c0,4.6,3.8,8.4,8.5,8.4v0.5c0,3.2,2.7,5.9,6,5.9h0.5c1.2,3.4,4.5,5.9,8.4,5.9
		c3.3,0,6.1-1.7,7.7-4.3c0.7,0.2,1.4,0.4,2.1,0.4c2.5,0,4.7-1.6,5.6-3.8c5.1,0,9.3-4.1,9.3-9.1C291.3,306,289.2,302.9,286.1,301.4"
		/>
</g>
<path fill="#00A78E" d="M492.1,370.5v11h6.9v-11.4l7.9-15.7l-10.4,6.8v-5.7h-4v6.8L478.1,352"/>
<g>
	<defs>
		<rect id="SVGID_73_" x="149.1" y="84" width="1277.4" height="298.3"/>
	</defs>
	<clipPath id="SVGID_74_">
		<use xlink:href="#SVGID_73_"  overflow="visible"/>
	</clipPath>
	<path clip-path="url(#SVGID_74_)" fill="#55E1C8" d="M525.2,317.8c0.1-0.1,0.2-0.2,0.2-0.4c2-4-1.9-9.8-8.6-13.1
		c-3.9-1.9-7.9-2.5-11-1.9c-0.8-4.1-6.7-7-13.6-6.4c-5.9,0.5-10.6,3.2-12,6.6c-2.6-1-6.1-1-9.5,0.3c-5.9,2.2-9.5,7.4-7.8,11.5
		c0.1,0.4,0.3,0.7,0.5,1c-3.5,0.6-6.8,2.9-8.6,6.6c-2.8,5.6-0.9,12.2,4.3,14.6c0.9,0.4,1.8,0.7,2.7,0.8c-1.4,3.6-0.7,7.8,2.2,10.9
		c4,4.2,10.6,4.5,14.8,0.7c0.4-0.4,0.8-0.8,1.2-1.3c1.7,4.4,10.5,7.3,20.8,6.5c9.2-0.7,16.7-4.1,19-8.1c3.5-0.1,6.9-1.4,9.6-3.8
		c6-5.5,6.3-14.9,0.5-21C528.4,319.7,526.9,318.6,525.2,317.8"/>
</g>
<g>
	<defs>
		<rect id="SVGID_75_" x="149.1" y="84" width="1277.4" height="298.3"/>
	</defs>
	<clipPath id="SVGID_76_">
		<use xlink:href="#SVGID_75_"  overflow="visible"/>
	</clipPath>
	<path clip-path="url(#SVGID_76_)" fill="#55E1C8" d="M469.4,324c-0.2-0.3-0.3-0.6-0.5-0.9c-1.4-3.6,1.7-8.1,6.8-10
		c3-1.1,6-1.1,8.3-0.3c1.2-2.9,5.3-5.3,10.4-5.7c6-0.5,11.2,2,11.8,5.6c2.7-0.5,6.1,0,9.5,1.7c1,0.5,2,1.1,2.8,1.7
		c-0.7-2.7-3.4-5.7-7.3-7.6c-3.2-1.6-6.5-2.1-9-1.6c-0.6-3.4-5.5-5.7-11.2-5.3c-4.8,0.4-8.7,2.6-9.8,5.4c-2.2-0.8-5-0.8-7.8,0.3
		c-4.9,1.8-7.7,6.1-6.4,9.4c0.1,0.3,0.3,0.6,0.4,0.8c-2.9,0.5-5.6,2.4-7,5.4c-1.6,3.2-1.3,6.9,0.5,9.5c0.2-0.9,0.5-1.8,0.9-2.7
		C463.6,326.6,466.4,324.5,469.4,324"/>
</g>
<path fill="#00A78E" d="M584.6,373.1v8.4h5.2v-8.7l6-11.8l-7.9,5.1v-4.3h-3v5.1l-11-7.8"/>
<g>
	<defs>
		<rect id="SVGID_77_" x="149.1" y="84" width="1277.4" height="298.3"/>
	</defs>
	<clipPath id="SVGID_78_">
		<use xlink:href="#SVGID_77_"  overflow="visible"/>
	</clipPath>
	<path clip-path="url(#SVGID_78_)" fill="#55E1C8" d="M609.7,333.1c0.1-0.1,0.1-0.2,0.2-0.3c1.5-3-1.4-7.5-6.5-10
		c-3-1.4-6-1.9-8.3-1.5c-0.6-3.1-5.1-5.3-10.3-4.9c-4.4,0.3-8.1,2.4-9.1,5c-2-0.8-4.6-0.7-7.2,0.2c-4.5,1.7-7.2,5.6-6,8.7
		c0.1,0.3,0.2,0.5,0.4,0.7c-2.7,0.4-5.2,2.2-6.5,5c-2.1,4.3-0.7,9.3,3.2,11.1c0.7,0.3,1.3,0.5,2,0.6c-1.1,2.7-0.5,5.9,1.7,8.2
		c3,3.2,8,3.5,11.2,0.5c0.3-0.3,0.6-0.6,0.9-1c1.3,3.4,8,5.5,15.8,4.9c7-0.5,12.7-3.1,14.4-6.2c2.6-0.1,5.2-1,7.3-2.9
		c4.6-4.2,4.8-11.3,0.4-16C612.2,334.6,611,333.7,609.7,333.1"/>
</g>
<g>
	<defs>
		<rect id="SVGID_79_" x="149.1" y="84" width="1277.4" height="298.3"/>
	</defs>
	<clipPath id="SVGID_80_">
		<use xlink:href="#SVGID_79_"  overflow="visible"/>
	</clipPath>
	<path clip-path="url(#SVGID_80_)" fill="#55E1C8" d="M567.4,337.9c-0.1-0.2-0.2-0.4-0.3-0.7c-1.1-2.7,1.3-6.1,5.2-7.6
		c2.3-0.8,4.5-0.9,6.3-0.2c0.9-2.2,4.1-4,7.9-4.3c4.6-0.4,8.5,1.5,9,4.3c2-0.4,4.7,0,7.2,1.3c0.8,0.4,1.5,0.8,2.2,1.3
		c-0.5-2.1-2.6-4.3-5.5-5.7c-2.4-1.2-4.9-1.6-6.8-1.2c-0.5-2.6-4.2-4.3-8.5-4c-3.6,0.3-6.6,2-7.5,4.1c-1.6-0.6-3.8-0.6-5.9,0.2
		c-3.7,1.4-5.9,4.6-4.9,7.2l0.3,0.6c-2.2,0.4-4.2,1.8-5.3,4.1c-1.2,2.5-1,5.2,0.4,7.2c0.1-0.7,0.4-1.4,0.7-2.1
		C562.9,339.8,565.1,338.2,567.4,337.9"/>
</g>
<g>
	<defs>
		<rect id="SVGID_81_" x="149.1" y="84" width="1277.4" height="298.3"/>
	</defs>
	<clipPath id="SVGID_82_">
		<use xlink:href="#SVGID_81_"  overflow="visible"/>
	</clipPath>
	<path clip-path="url(#SVGID_82_)" fill="#00A78E" d="M455.4,351.8c1.7-1.1,2.1-3.4,1-5.1c-1.2-1.7-3.5-2.1-5.2-1s-2.1,3.4-1,5.1
		C451.4,352.5,453.7,352.9,455.4,351.8 M462.5,359l-5.2-0.2l-2.6-3c-0.2-0.9-0.9-1.8-1.9-2.2l-2.1-0.7c-1.5-0.5-3,0.2-3.5,1.5
		l-3.6,10.5c-0.5,1.3,0.4,2.8,1.8,3.3l1.5,0.5l3.8,1.6l-2.4,6.1c-0.4,1.1,0.1,2.3,1.2,2.7c0.3,0.1,0.5,0.1,0.8,0.1
		c0.8,0,1.6-0.5,1.9-1.3l3.2-8c0.4-1-0.1-2.2-1.1-2.6l-2.7-1.1l2.1-6l1.4,1.7c0.3,0.4,0.8,0.6,1.3,0.6l6,0.3h0.1
		c1,0,1.8-0.8,1.8-1.7C464.3,359.9,463.5,359.1,462.5,359 M439.1,379.7c-3.2,0-5.8-2.5-5.8-5.7c0-3.1,2.6-5.7,5.8-5.7
		c3.2,0,5.8,2.5,5.8,5.7C444.8,377.1,442.2,379.7,439.1,379.7 M439.1,367c-3.9,0-7.1,3.1-7.1,7s3.2,7,7.1,7s7.1-3.1,7.1-7
		S443,367,439.1,367"/>
</g>
<g>
	<defs>
		<rect id="SVGID_83_" x="149.1" y="84" width="1277.4" height="298.3"/>
	</defs>
	<clipPath id="SVGID_84_">
		<use xlink:href="#SVGID_83_"  overflow="visible"/>
	</clipPath>
	<path clip-path="url(#SVGID_84_)" fill="#00A78E" d="M463.2,380.2c-3.2,0-5.8-2.5-5.8-5.7c0-3.1,2.6-5.7,5.8-5.7
		c3.2,0,5.8,2.5,5.8,5.7C468.9,377.6,466.3,380.2,463.2,380.2 M463.2,367.5c-3.9,0-7.1,3.1-7.1,7s3.2,7,7.1,7s7.1-3.1,7.1-7
		C470.2,370.6,467.1,367.5,463.2,367.5"/>
</g>
<g>
	<defs>
		<rect id="SVGID_85_" x="149.1" y="84" width="1277.4" height="298.3"/>
	</defs>
	<clipPath id="SVGID_86_">
		<use xlink:href="#SVGID_85_"  overflow="visible"/>
	</clipPath>
	<path clip-path="url(#SVGID_86_)" fill="#00AB9F" d="M257.4,357.4c1.8-1,2.4-3.2,1.4-4.9c-1-1.7-3.2-2.4-5-1.4s-2.4,3.2-1.4,4.9
		C253.4,357.7,255.6,358.4,257.4,357.4"/>
</g>
<g>
	<defs>
		<rect id="SVGID_87_" x="149.1" y="84" width="1277.4" height="298.3"/>
	</defs>
	<clipPath id="SVGID_88_">
		<use xlink:href="#SVGID_87_"  overflow="visible"/>
	</clipPath>
	<path clip-path="url(#SVGID_88_)" fill="#00A78E" d="M554.5,357.1c1.8-1,2.4-3.2,1.4-4.9c-1-1.7-3.2-2.4-5-1.4s-2.4,3.2-1.4,4.9
		C550.5,357.5,552.7,358.1,554.5,357.1 M560.4,369l-3.5-10.1c-0.2-0.5-0.8-0.7-1.6-0.6h-4.8c-1.1,0-1.9,0.6-1.9,1.4v10.6
		c0,0.1-0.1,0.2-0.1,0.3v10.7c0,0.6,0.9,1.1,2,1.1s2-0.5,2-1.1v-8.2h0.4v8.2c0,0.6,0.9,1.1,2,1.1s2-0.5,2-1.1V372
		c0-0.1,0.1-0.2,0.1-0.4v-1.1c0.4,0.4,1.2,0.5,2.1,0.2C559.9,370.3,560.6,369.6,560.4,369"/>
</g>
<path fill="#2ABBB3" d="M546.2,370l4.8,1.9l2.9-7l-4.8-1.9"/>
<g>
	<defs>
		<rect id="SVGID_89_" x="149.1" y="84" width="1277.4" height="298.3"/>
	</defs>
	<clipPath id="SVGID_90_">
		<use xlink:href="#SVGID_89_"  overflow="visible"/>
	</clipPath>
	<path clip-path="url(#SVGID_90_)" fill="#00A78E" d="M548.6,370.8c-0.4,0-0.9-0.1-1.2-0.4l-3.1-2.5c-0.8-0.6-0.9-1.7-0.4-2.5l4-6.2
		c0.6-0.9,1.8-1.2,2.7-0.6s1.2,1.8,0.6,2.7l-3,4.8l1.8,1.5c0.8,0.7,1,1.9,0.3,2.7C549.7,370.6,549.1,370.8,548.6,370.8"/>
</g>
<path opacity="0.24" fill="#00AB9F" enable-background="new    " d="M301.7,257.3c0,0,0.6,0.5,1.6,1.4c0.5,0.5,1.1,1.1,1.7,1.8
	c0.7,0.7,1.3,1.6,2.1,2.5c0.4,0.5,0.7,1,1.1,1.5s0.8,1.1,1.1,1.6c0.4,0.6,0.7,1.2,1.1,1.8c0.4,0.6,0.7,1.3,1.1,1.9
	c0.8,1.3,1.3,2.7,2,4.1c0.6,1.4,1.2,2.9,1.7,4.4s1,3,1.4,4.5c0.3,1.5,0.7,3,1,4.5c0.2,1.5,0.4,2.9,0.6,4.3c0.1,1.4,0.1,2.7,0.2,3.8
	c0.1,1.2,0.1,2.3,0,3.2c0,1-0.1,1.8-0.1,2.5c-0.1,1.4-0.1,2.2-0.1,2.2h-0.1c0,0,0-0.8-0.1-2.2c0-0.7-0.1-1.5-0.1-2.5s-0.1-2-0.3-3.2
	c-0.1-1.2-0.2-2.4-0.4-3.8c-0.2-1.3-0.4-2.7-0.6-4.2c-0.3-1.4-0.6-2.9-0.9-4.4s-0.8-3-1.2-4.5c-0.5-1.5-1-3-1.6-4.4
	s-1.2-2.8-1.9-4.1c-0.3-0.7-0.7-1.3-1-1.9c-0.4-0.6-0.7-1.2-1.1-1.8c-0.3-0.6-0.7-1.1-1.1-1.7c-0.4-0.5-0.7-1-1-1.5
	c-0.7-0.9-1.4-1.8-2-2.5s-1.2-1.3-1.7-1.8C302.2,257.9,301.6,257.4,301.7,257.3L301.7,257.3z M298.4,269.2c0,0,0.7,0.4,1.8,1.2
	c0.5,0.4,1.2,0.9,2,1.5s1.6,1.3,2.4,2.2l1.3,1.3c0.4,0.5,0.9,0.9,1.4,1.5c0.4,0.5,0.9,1,1.4,1.6s0.9,1.1,1.3,1.7
	c0.9,1.2,1.7,2.5,2.6,3.8c0.8,1.3,1.6,2.7,2.4,4.1c0.7,1.4,1.4,2.9,2,4.3c0.6,1.5,1.2,2.9,1.7,4.3c0.4,1.4,0.8,2.8,1.2,4.1
	c0.3,1.3,0.5,2.6,0.8,3.8c0.2,1.2,0.4,2.2,0.5,3.2s0.2,1.8,0.3,2.5c0.1,1.4,0.2,2.2,0.2,2.2h-0.1c0,0-0.2-0.8-0.4-2.1
	c-0.1-0.7-0.3-1.5-0.5-2.4c-0.1-0.9-0.4-2-0.7-3.1c-0.3-1.1-0.6-2.4-0.9-3.7c-0.4-1.3-0.8-2.6-1.2-4c-0.5-1.4-1-2.8-1.5-4.3
	c-0.6-1.4-1.2-2.8-1.9-4.3c-0.7-1.4-1.4-2.8-2.2-4.1c-0.8-1.3-1.6-2.6-2.5-3.8c-0.4-0.6-0.8-1.2-1.3-1.8c-0.4-0.5-0.9-1.1-1.3-1.6
	s-0.9-1-1.3-1.5s-0.8-0.9-1.3-1.3c-0.8-0.8-1.6-1.6-2.3-2.2c-0.7-0.7-1.4-1.1-1.9-1.6C299,269.7,298.4,269.3,298.4,269.2
	L298.4,269.2z"/>
<path opacity="0.24" fill="#00AB9F" enable-background="new    " d="M321.2,260.1c0,0,0.3,0.7,0.7,2.1c0.2,0.7,0.4,1.5,0.6,2.4
	s0.4,2,0.6,3.2c0.1,0.6,0.1,1.2,0.2,1.8c0.1,0.6,0.2,1.3,0.2,2s0.1,1.4,0.1,2.1v2.2c0,1.5-0.1,3-0.3,4.6c-0.1,1.6-0.4,3.1-0.6,4.7
	c-0.3,1.5-0.6,3.1-1,4.6s-0.8,3-1.3,4.4c-0.6,1.4-1.1,2.7-1.6,4c-0.5,1.2-1.2,2.4-1.7,3.5s-1,2-1.6,2.8c-0.5,0.8-0.9,1.5-1.3,2.1
	c-0.7,1.2-1.2,1.8-1.2,1.8l-0.1-0.1c0,0,0.3-0.7,1-2l1.1-2.2c0.5-0.8,0.9-1.8,1.3-2.9c0.5-1.1,1-2.2,1.5-3.5s1-2.6,1.5-4
	s0.9-2.8,1.4-4.3c0.4-1.5,0.8-3,1.1-4.5c0.3-1.5,0.6-3.1,0.7-4.6s0.4-3,0.4-4.5c0-0.7,0.1-1.5,0.1-2.2s0-1.4-0.1-2.1
	c0-0.7-0.1-1.3-0.1-2c-0.1-0.6-0.1-1.2-0.2-1.8c-0.2-1.2-0.3-2.2-0.5-3.2c-0.2-0.9-0.4-1.8-0.5-2.4
	C321.4,260.8,321.1,260.1,321.2,260.1L321.2,260.1z"/>
<path fill="#32CFB6" d="M269.1,93.1V31.9h-35.8L191.9,0H107L65.7,31.9H29.3v61.2H0v289.1h298.4V93.1"/>
<path fill="#00A78E" d="M12.9,108.6h25v32.1h-25L12.9,108.6z M62.4,108.6h25v32.1h-25V108.6z M111.9,108.6h25v32.1h-25L111.9,108.6z
	 M161.4,108.6h25v32.1h-25V108.6z M210.9,108.6h25v32.1h-25V108.6z M260.3,108.6h25v32.1h-25V108.6z M12.9,164h25v32.1h-25L12.9,164
	z M62.4,164h25v32.1h-25V164z M111.9,164h25v32.1h-25L111.9,164z M161.4,164h25v32.1h-25V164z M210.9,164h25v32.1h-25V164z
	 M260.3,164h25v32.1h-25V164z M12.9,219.4h25v32.1h-25L12.9,219.4z M62.4,219.4h25v32.1h-25V219.4z M111.9,219.4h25v32.1h-25
	L111.9,219.4z M161.4,219.4h25v32.1h-25V219.4z M210.9,219.4h25v32.1h-25V219.4z M260.3,219.4h25v32.1h-25V219.4z M12.9,274.8h25
	v32.1h-25L12.9,274.8z M62.4,274.8h25v32.1h-25V274.8z M111.9,274.8h25v32.1h-25L111.9,274.8z M161.4,274.8h25v32.1h-25V274.8z
	 M210.9,274.8h25v32.1h-25V274.8z M260.3,274.8h25v32.1h-25V274.8z M151.4,401.2H147c-10.2,0-18.5-8.3-18.5-18.5v-44.1
	c0-10.2,8.3-18.5,18.5-18.5h4.4c10.2,0,18.5,8.3,18.5,18.5v44.1C169.9,392.9,161.6,401.2,151.4,401.2z M207.4,401.2H203
	c-10.2,0-18.5-8.3-18.5-18.5v-44.1c0-10.2,8.3-18.5,18.5-18.5h4.4c10.2,0,18.5,8.3,18.5,18.5v44.1
	C225.8,392.9,217.5,401.2,207.4,401.2z M95.4,401.2H91c-10.2,0-18.5-8.3-18.5-18.5v-44.1c0-10.2,8.3-18.5,18.5-18.5h4.4
	c10.2,0,18.5,8.3,18.5,18.5v44.1C113.9,392.9,105.6,401.2,95.4,401.2z"/>
<path fill="none" d="M36.9,55.6h221.3v19H36.9V55.6z"/>
<g enable-background="new    ">
	<path fill="#00A78E" d="M42.3,69.5c0.5,0.4,1,0.7,1.7,1.1c0.7,0.4,1.5,0.5,2.4,0.5c0.4,0,0.7,0,1-0.1c0.3-0.1,0.6-0.2,0.9-0.4
		s0.5-0.4,0.6-0.7c0.2-0.3,0.2-0.6,0.2-1c0-0.4-0.1-0.8-0.3-1.1c-0.2-0.3-0.4-0.6-0.7-0.8c-0.3-0.2-0.6-0.4-1.1-0.5
		c-0.4-0.2-0.8-0.3-1.2-0.5c-0.5-0.2-1.1-0.4-1.6-0.6s-1-0.5-1.5-0.9c-0.4-0.3-0.8-0.8-1.1-1.3s-0.4-1.2-0.4-2.1
		c0-0.8,0.2-1.5,0.5-2.1c0.3-0.6,0.8-1.1,1.3-1.5c0.6-0.4,1.2-0.7,1.9-0.9c0.7-0.2,1.5-0.3,2.3-0.3c0.5,0,1.1,0,1.5,0.1
		c0.5,0.1,0.9,0.2,1.3,0.3c0.4,0.1,0.7,0.2,0.9,0.4s0.5,0.2,0.6,0.3c0.5,0.3,0.7,0.6,0.7,1.1c0,0.2-0.1,0.5-0.3,0.8
		c-0.2,0.3-0.4,0.7-0.7,1c-0.4-0.3-1-0.7-1.6-1c-0.7-0.3-1.4-0.5-2.1-0.5c-0.3,0-0.6,0-0.9,0.1c-0.3,0.1-0.6,0.2-0.9,0.3
		c-0.3,0.1-0.5,0.3-0.6,0.6c-0.2,0.2-0.2,0.6-0.2,0.9c0,0.3,0.1,0.7,0.2,0.9c0.2,0.3,0.4,0.5,0.7,0.7s0.6,0.4,1,0.5
		c0.4,0.2,0.8,0.3,1.2,0.5c0.5,0.2,1.1,0.4,1.6,0.7c0.5,0.2,1,0.5,1.5,0.9c0.4,0.4,0.8,0.8,1.1,1.3c0.3,0.5,0.4,1.2,0.4,2
		c0,0.9-0.2,1.7-0.5,2.3c-0.3,0.7-0.7,1.2-1.3,1.7c-0.6,0.5-1.2,0.8-2,1c-0.8,0.2-1.6,0.3-2.5,0.3c-1.2,0-2.2-0.1-2.9-0.4
		c-0.7-0.2-1.3-0.5-1.6-0.7c-0.2-0.1-0.4-0.3-0.5-0.5c-0.1-0.2-0.2-0.4-0.2-0.6c0-0.3,0.1-0.6,0.3-1C41.8,70.2,42.1,69.9,42.3,69.5z
		"/>
	<path fill="#00A78E" d="M60.1,59.4h-5.2v0c0-0.2-0.1-0.4-0.1-0.5c0-0.1,0-0.3,0-0.5c0-0.5,0.2-0.9,0.5-1.2c0.3-0.4,0.9-0.6,1.6-0.6
		h11.8c0.1,0.3,0.1,0.7,0.1,1.1c0,0.4-0.1,0.8-0.5,1.2c-0.3,0.4-0.8,0.5-1.6,0.5h-3.1v14h-3.4V59.4z"/>
	<path fill="#00A78E" d="M84.4,66.6c0,0.3,0,0.7,0,1c0,0.3,0,0.7-0.1,1c-0.1,0.7-0.2,1.4-0.5,2s-0.7,1.2-1.2,1.6
		c-0.5,0.5-1.2,0.8-2,1.1c-0.8,0.3-1.7,0.4-2.8,0.4c-1.1,0-2-0.1-2.8-0.3c-0.8-0.2-1.4-0.6-1.9-1s-0.9-1-1.1-1.6s-0.5-1.4-0.5-2.2
		c0-0.3-0.1-0.6-0.1-0.9s0-0.7,0-1v-10c0.2,0,0.5-0.1,0.7-0.1s0.4,0,0.5,0c0.2,0,0.5,0,0.8,0.1c0.3,0.1,0.5,0.1,0.7,0.3
		c0.2,0.1,0.4,0.3,0.5,0.6s0.2,0.6,0.2,1v8.4c0,0.6,0,1.1,0.1,1.6c0.1,0.5,0.2,0.9,0.4,1.2s0.5,0.6,0.9,0.8s0.9,0.3,1.6,0.3
		c1.1,0,1.9-0.3,2.4-1c0.4-0.7,0.7-1.6,0.7-2.8V56.6c0.2,0,0.5-0.1,0.7-0.1s0.4,0,0.5,0c0.2,0,0.5,0,0.8,0.1
		c0.3,0.1,0.5,0.1,0.7,0.3c0.2,0.1,0.4,0.3,0.5,0.6s0.2,0.6,0.2,1V66.6z"/>
	<path fill="#00A78E" d="M102.1,64.7c0,1.2-0.2,2.3-0.5,3.4s-0.8,2-1.4,2.8s-1.5,1.4-2.5,1.9c-1,0.5-2.2,0.7-3.6,0.7h-5.3V56.8
		c1.1-0.1,2-0.2,2.7-0.2s1.4-0.1,2-0.1c1.7,0,3.1,0.2,4.2,0.7c1.1,0.4,2,1,2.6,1.8c0.7,0.8,1.1,1.6,1.4,2.6
		C101.9,62.5,102.1,63.6,102.1,64.7z M98.6,64.8c0-0.8-0.1-1.5-0.2-2.2c-0.1-0.7-0.4-1.3-0.8-1.8c-0.4-0.5-0.9-0.9-1.5-1.2
		c-0.6-0.3-1.4-0.4-2.4-0.4c-0.5,0-1,0-1.5,0.1v11.5h1.4c1,0,1.8-0.1,2.4-0.4c0.6-0.3,1.2-0.7,1.5-1.2c0.4-0.5,0.6-1.2,0.8-1.9
		C98.5,66.5,98.6,65.6,98.6,64.8z"/>
	<path fill="#00A78E" d="M114.6,70.7c0.8,0,1.3,0.2,1.6,0.6c0.3,0.4,0.4,0.8,0.4,1.2c0,0.2,0,0.3,0,0.5s0,0.3,0,0.4h-10.8V56.6h10.4
		c0,0.2,0.1,0.3,0.1,0.5s0,0.3,0,0.5c0,0.6-0.1,1-0.5,1.3c-0.3,0.3-0.9,0.4-1.7,0.4h-4.9v4.1h5.3v2.7h-5.3v4.6H114.6z"/>
	<path fill="#00A78E" d="M133.1,73.4h-2.9l-7.1-11v11h-3.3V56.7c0.2,0,0.4-0.1,0.7-0.1c0.3,0,0.6,0,0.9,0c0.5,0,1,0.1,1.2,0.3
		c0.3,0.2,0.6,0.5,0.8,0.9l6.5,10.5V56.6c0.2,0,0.5-0.1,0.6-0.1c0.2,0,0.4,0,0.5,0c0.2,0,0.5,0,0.8,0.1c0.2,0.1,0.5,0.1,0.7,0.3
		c0.2,0.1,0.4,0.3,0.5,0.6c0.1,0.2,0.2,0.6,0.2,1V73.4z"/>
	<path fill="#00A78E" d="M141.2,59.4H136v0c0-0.2-0.1-0.4-0.1-0.5c0-0.1,0-0.3,0-0.5c0-0.5,0.2-0.9,0.5-1.2c0.3-0.4,0.9-0.6,1.6-0.6
		h11.8c0.1,0.3,0.1,0.7,0.1,1.1c0,0.4-0.1,0.8-0.5,1.2c-0.3,0.4-0.8,0.5-1.6,0.5h-3.1v14h-3.4V59.4z"/>
	<path fill="#00A78E" d="M162.8,63.4h6.3v-6.8c0.2,0,0.5-0.1,0.7-0.1s0.4,0,0.6,0c0.2,0,0.5,0,0.7,0.1c0.3,0.1,0.5,0.1,0.7,0.3
		c0.2,0.1,0.4,0.3,0.5,0.6c0.1,0.2,0.2,0.6,0.2,1v14.9h-3.4v-7.2h-6.3v7.2h-3.4V56.6c0.2,0,0.5-0.1,0.7-0.1s0.4,0,0.5,0
		c0.2,0,0.5,0,0.8,0.1c0.3,0.1,0.5,0.1,0.7,0.3c0.2,0.1,0.4,0.3,0.5,0.6s0.2,0.6,0.2,1V63.4z"/>
	<path fill="#00A78E" d="M185.6,70.7c0.8,0,1.3,0.2,1.6,0.6c0.3,0.4,0.4,0.8,0.4,1.2c0,0.2,0,0.3,0,0.5s0,0.3,0,0.4h-10.8V56.6h10.4
		c0,0.2,0.1,0.3,0.1,0.5s0,0.3,0,0.5c0,0.6-0.1,1-0.5,1.3c-0.3,0.3-0.9,0.4-1.7,0.4h-4.9v4.1h5.3v2.7h-5.3v4.6H185.6z"/>
	<path fill="#00A78E" d="M201.3,73.4l-1.4-4.1h-5.8l-1.4,4.1h-3.4l5.8-16.5c0.2-0.1,0.5-0.2,0.8-0.2c0.4-0.1,0.7-0.1,1.2-0.1
		c0.2,0,0.4,0,0.6,0s0.4,0.1,0.7,0.2c0.2,0.1,0.4,0.3,0.6,0.5c0.2,0.2,0.3,0.5,0.5,0.8l5.4,15.3H201.3z M197.1,59.6l-2.3,7.1h4.5
		L197.1,59.6z"/>
	<path fill="#00A78E" d="M211.2,70.6h4.9c0.4,0,0.7,0.1,1,0.2s0.5,0.2,0.6,0.4c0.2,0.2,0.3,0.4,0.3,0.6c0.1,0.2,0.1,0.4,0.1,0.7
		c0,0.2,0,0.4,0,0.6c0,0.2,0,0.4,0,0.4h-10.3V56.6c0.2,0,0.5-0.1,0.7-0.1s0.4,0,0.5,0c0.2,0,0.5,0,0.8,0.1c0.3,0.1,0.5,0.1,0.7,0.3
		s0.4,0.3,0.5,0.6s0.2,0.6,0.2,1V70.6z"/>
	<path fill="#00A78E" d="M222.1,59.4h-5.2v0c0-0.2-0.1-0.4-0.1-0.5c0-0.1,0-0.3,0-0.5c0-0.5,0.2-0.9,0.5-1.2
		c0.3-0.4,0.9-0.6,1.6-0.6h11.8c0.1,0.3,0.1,0.7,0.1,1.1c0,0.4-0.1,0.8-0.5,1.2c-0.3,0.4-0.8,0.5-1.6,0.5h-3.1v14h-3.4V59.4z"/>
	<path fill="#00A78E" d="M236.9,63.4h6.3v-6.8c0.2,0,0.5-0.1,0.7-0.1s0.4,0,0.6,0c0.2,0,0.5,0,0.7,0.1c0.3,0.1,0.5,0.1,0.7,0.3
		s0.4,0.3,0.5,0.6s0.2,0.6,0.2,1v14.9h-3.4v-7.2h-6.3v7.2h-3.4V56.6c0.2,0,0.5-0.1,0.7-0.1s0.4,0,0.5,0c0.2,0,0.5,0,0.8,0.1
		c0.3,0.1,0.5,0.1,0.7,0.3c0.2,0.1,0.4,0.3,0.5,0.6s0.2,0.6,0.2,1V63.4z"/>
</g>
</svg>
