<svg xmlns="http://www.w3.org/2000/svg" width="759.4" height="415" viewBox="0 0 759.4 415"><path opacity=".79" fill="#55E1C8" d="M208 344.1c.1-.2.3-.4.4-.7 3.9-7.7-3.6-19.2-16.7-25.5-7.6-3.7-15.3-4.9-21.3-3.8-1.5-8.1-13-13.6-26.5-12.5-11.4.9-20.7 6.2-23.4 12.8-5.1-2-11.9-1.9-18.6.6-11.5 4.3-18.4 14.4-15.3 22.4.3.7.6 1.3 1 1.9-6.6 1.1-13.1 5.7-16.5 12.7-5.4 11-1.7 23.7 8.3 28.5 1.7.8 3.4 1.3 5.2 1.6-2.7 6.9-1.3 15.2 4.2 21.1 7.7 8.2 20.6 8.8 28.7 1.4.9-.8 1.6-1.6 2.3-2.5 3.3 8.7 20.4 14.2 40.5 12.6 17.9-1.4 32.6-8 36.9-15.8 6.7-.2 13.4-2.6 18.6-7.5 11.7-10.7 12.2-29 1-40.9-2.5-2.7-5.6-4.9-8.8-6.4"/><path opacity=".4" fill="#00BBA2" d="M172.6 52.8c.2-.3.4-.5.5-.8 4.8-9.5-4.5-23.7-20.7-31.6-9.4-4.6-19-6-26.4-4.7-1.8-10-16.1-16.8-32.8-15.5-14.1 1-25.5 7.7-28.9 15.8-6.4-2.4-14.7-2.3-23 .7C27 22.1 18.5 34.5 22.4 44.4c.3.9.8 1.6 1.2 2.4-8.4 1.4-16.3 7-20.6 15.8-6.6 13.6-2 29.5 10.3 35.3 2.1 1 4.3 1.6 6.5 2-3.4 8.6-1.7 18.8 5.2 26.1 9.6 10.2 25.5 10.9 35.5 1.7 1.1-1 2-2 2.8-3.1 4.1 10.7 25.3 17.6 50.2 15.6 22.1-1.7 40.3-9.9 45.7-19.6 8.3-.2 16.6-3.3 23.1-9.2 14.5-13.3 15.1-36 1.3-50.6-3.3-3.4-7-6-11-8"/><path opacity=".79" fill="#32CFB6" d="M734.3 170c.2-.3.4-.6.6-1 5.7-11.4-5.3-28.4-24.8-37.9-11.2-5.5-22.7-7.2-31.6-5.6-2.2-11.9-19.3-20.2-39.2-18.6-16.9 1.3-30.6 9.2-34.6 19-7.6-2.9-17.6-2.8-27.5.9-17.1 6.4-27.2 21.3-22.6 33.2.4 1 .9 2 1.5 2.9-10.1 1.6-19.6 8.4-24.7 18.9-8 16.2-2.5 35.2 12.3 42.2 2.5 1.2 5.1 1.9 7.7 2.3-4 10.3-2 22.5 6.3 31.3 11.4 12.2 30.5 13.1 42.5 2.1 1.3-1.1 2.4-2.4 3.4-3.7 4.9 12.8 30.3 21 60.1 18.7 26.5-2.1 48.2-11.8 54.7-23.4 10-.3 19.8-3.9 27.6-11.1 17.4-15.9 18.1-43 1.5-60.6-3.9-4-8.4-7.2-13.2-9.6"/></svg>