<?xml version="1.0" encoding="utf-8"?>
<!-- Generator: Adobe Illustrator 19.0.0, SVG Export Plug-In . SVG Version: 6.00 Build 0)  -->
<svg version="1.1" id="Layer_1" xmlns="http://www.w3.org/2000/svg" xmlns:xlink="http://www.w3.org/1999/xlink" x="0px" y="0px"
	 viewBox="-202 4.7 193.8 592.3" style="enable-background:new -202 4.7 193.8 592.3;" xml:space="preserve">
<style type="text/css">
	.st0{fill:#FFFFFF;}
	.st1{fill:#FFFFFF;stroke:#00A78E;stroke-width:2;stroke-miterlimit:10;}
	.st2{fill:#55E1C8;}
	.st3{fill:none;}
	.st4{fill:#00A78E;}
</style>
<path class="st0" d="M-185,16.5h-12.5v580.6h12.5V16.5z"/>
<circle class="st1" cx="-191.2" cy="16.5" r="10.8"/>
<path class="st2" d="M-52,67.3V69 M-45.7,88.6c-5.4-0.2-6.3-6.8-6.3-6.8V69c0,7.5,9.3,7.1,9.3,7.1h33.5v12.6
	C-28.3,88.7-43.8,88.7-45.7,88.6z M-52,88.8v1.7 M-45.7,110.1c-5.4-0.2-6.3-6.8-6.3-6.8V90.5c0,7.5,9.3,7.1,9.3,7.1h33.5v12.7
	C-28.3,110.2-43.8,110.2-45.7,110.1L-45.7,110.1z M-52,110.2v1.7 M-45.7,131.5c-5.4-0.2-6.3-6.8-6.3-6.8v-12.8
	c0,7.5,9.3,7.1,9.3,7.1h33.5v12.7C-28.3,131.6-43.8,131.6-45.7,131.5L-45.7,131.5z M-52,131.6v1.7 M-45.7,152.9
	c-5.4-0.2-6.3-6.8-6.3-6.8v-12.8c0,7.5,9.3,7.1,9.3,7.1h33.5v12.7C-28.3,153-43.8,153-45.7,152.9z M-52,45.9v1.7 M-42.7,54.6h33.5
	v12.7c-19.1,0-34.6,0-36.5-0.1c-5.4-0.2-6.3-6.8-6.3-6.8V47.6C-52,55.1-42.7,54.6-42.7,54.6L-42.7,54.6z"/>
<path class="st3" d="M-52.2,91.9v-1.7"/>
<path class="st0" d="M-58.4,70.6c5.4,0.2,6.3,6.8,6.3,6.8v12.8c0-7.5-9.3-7.1-9.3-7.1h-46V70.5C-82.9,70.5-60.7,70.5-58.4,70.6z
	 M-58.4,92.1c5.4,0.2,6.3,6.8,6.3,6.8v12.8c0-7.5-9.3-7.1-9.3-7.1h-115.8V92.1C-177.2,92.1-63.9,91.9-58.4,92.1z M-58.4,49.2
	c5.4,0.2,6.3,6.8,6.3,6.8v12.8c0-7.5-9.3-7.1-9.3-7.1h-46V49.1C-82.9,49.1-60.7,49.1-58.4,49.2z M-58.4,27.8
	c5.4,0.2,6.3,6.8,6.3,6.8v12.8c0-7.5-9.3-7.1-9.3-7.1h-46V27.7C-82.9,27.7-60.7,27.7-58.4,27.8z M-58.2,113.5
	c5.4,0.2,6.3,6.8,6.3,6.8v12.8c0-7.5-9.3-7.1-9.3-7.1H-177v-12.6C-177,113.5-63.7,113.3-58.2,113.5z M-111.4,27.7h-65.8v56h65.8
	V27.7z"/>
<path class="st4" d="M-120.5,32.6l-2,4l-4.5,0.7l3.2,3.2l-0.7,4.4l4-2.1l4,2.1l-0.8-4.4l3.3-3.2l-4.5-0.7 M-136.4,32.6l-2,4
	l-4.5,0.7l3.3,3.2l-0.8,4.4l4-2.1l4,2.1l-0.7-4.4l3.2-3.2l-4.5-0.7 M-152.2,32.6l-2.1,4l-4.4,0.7l3.2,3.2l-0.8,4.4l4.1-2.1l4,2.1
	l-0.8-4.4l3.3-3.2l-4.5-0.7 M-168.1,32.6l-2,4l-4.5,0.7l3.2,3.2l-0.7,4.4l4-2.1l4,2.1l-0.8-4.4l3.3-3.2l-4.5-0.7 M-120.6,49.5
	l-2,4.1l-4.5,0.6l3.3,3.2l-0.8,4.5l4-2.1l4.1,2.1l-0.8-4.5l3.2-3.2l-4.5-0.6 M-136.4,49.5l-2,4.1l-4.5,0.6l3.2,3.2l-0.7,4.5l4-2.1
	l4,2.1l-0.8-4.5l3.3-3.2l-4.5-0.6 M-152.3,49.5l-2,4.1l-4.5,0.6l3.3,3.2l-0.8,4.5l4-2.1l4.1,2.1l-0.8-4.5l3.2-3.2l-4.4-0.6
	 M-168.1,49.5l-2,4.1l-4.5,0.6l3.2,3.2l-0.7,4.5l4-2.1l4,2.1l-0.8-4.5l3.3-3.2l-4.5-0.6 M-120.5,66.4l-2.1,4.1l-4.4,0.7l3.2,3.1
	l-0.8,4.5l4.1-2.1l4,2.1l-0.8-4.5l3.3-3.1l-4.5-0.7 M-136.4,66.4l-2,4.1l-4.5,0.7l3.2,3.1l-0.7,4.5l4-2.1l4,2.1l-0.8-4.5l3.3-3.1
	l-4.5-0.7 M-152.3,66.4l-2,4.1l-4.5,0.7l3.3,3.1l-0.8,4.5l4-2.1l4,2.1l-0.7-4.5l3.2-3.1l-4.5-0.7 M-168.1,66.4l-2,4.1l-4.5,0.7
	l3.2,3.1l-0.7,4.5l4-2.1l4,2.1l-0.8-4.5l3.3-3.1l-4.5-0.7"/>
</svg>
