<svg xmlns="http://www.w3.org/2000/svg" width="823.1" height="538.6" viewBox="0 0 823.1 538.6">
  <path fill="none" stroke="#FFF" stroke-width="9.997" d="M10.5 239.9c-1-7.2-9.6-14.9-3.1-21.8l9.6-16-10.5-24.2 26.4-76.5C32.5 93.8 30.4 87 29 80c10.4 2.3 20.4 9.7 31.4 12.4l1.2-2.7-6.2-18 266.6-.3 28.8.1 1.9-.1h115.5c7.3 1.1 17-.6 24.7 1.3L469.6 105c.3 1.7 1.4 5.3 3.8 3 15.1-7.1 30.1-14.7 45.6-20.9 4.2 3 6.2 11.3 12.5 8.8l36.5-9.7c1.7 2.2 2.8 5.6 3.2 9l-28.5 12.1-16.7 28.9c.7 2.3 3.2 3.4 4.9 5.3 4.3-2.3 9.2-3.4 13.4-5.7l7 60.5c1.8 1.4 3.8 2.3 6 2.3l19.4-21.1c-3.4-13.6-10.5-26.7-14.7-40.4l15.3-23.4 24.3 8.2c-.4 10.7-2.6 21.7-4.3 32.3 1.3 2.2 2.9 0 3.8-1 4.3-5.2 8.3-11.3 13.3-15.4 5.7 7.1 10.4 14.9 15.4 22.4L619.6 182c4 2.6 9.6 1.6 14.8 1.5 13.8-12.6 28.3-23.7 42-36.3l-3.2-6.3c9.6-5.3 19.9-9.3 28.9-16.1-.2-4.2-.1-12-.1-12l.9-13.8 63-37.3 2.2-2.4c-1-17.1 1.5-34.1 1.3-51.4 8.1-1.2 17.5-1.9 25.4-2.4l3.1 20.4c6.1 3.9 11.8 9.1 18.1 12.7-8.3 12.5-20.6 24.4-30 37 1 14.4-.6 29.6 1.1 42.5 2.3.3 4.8.7 7.3.9l-33.7 36.3-1.7 3.7c-2.3 23-5.6 45.6-8.6 68.4-4.5-2.2-8.5-5.8-13.2-7.7-2.2 1.7.6 3 .8 4.5l24.6 40.4-.3 1.7-61 79c-4.2 2.9-4.7 7.7-3.9 11.7l-.5 25.2 54.7 76.7c.9 8.7-1.1 17.8-1.7 26.6l-15.3 2.2-30.9-26.1-7.3-32-30.4-21.2c-4.9 1.6-6.1 7.6-9.1 11.4l-37.8-2.8-55.3 17.2.2 2.8c4.9 3 9.9 6.1 14.8 9.1.1 2.3-1.9 3.5-2.9 5.3-10.9-.3-24.3-.5-32.7-1-13 0-27.3-.2-40.7-.8l-57.2 34.7c-6.1 7.6-11.9 15.9-17 24.4.4 8 1.3 16.3 1 24.2l-20.6.6c-16.8-21-32.6-42.6-49-64l-23.6.4c-2.4 4.3 0 10.5-1.1 15.1l-21-6.1-16.1-25.2-3.8-2.5c-18.7-6.6-36.2-16.1-54.9-22.7-1.3 3.5-.3 7.7-1.7 11.2l-39.9.3-58.9-22.3c-2.3-3.5-3.3-8-6.5-10.7h-39l-1.4-1.6c-1.5-5.6 3.8-18-6.2-19.3l-46.4-26.8c10.1-14.3-5.8-27.7-8.8-41.7l-24-59.2 4.1-18.5z"/>
</svg>