<svg xmlns="http://www.w3.org/2000/svg" viewBox="32 188.6 664.3 224.4"><g fill="none" stroke="#FFF" stroke-width="4.552" stroke-linecap="round" stroke-miterlimit="10"><path d="M34.3 410.7v-.5"/><path stroke-dasharray="1.1497,8.0481" d="M34.3 402.1v-69.5"/><path d="M34.3 328.5v-.5h.5"/><path stroke-dasharray="1.1455,8.0182" d="M42.9 328h646.6"/><path d="M693.5 328h.5v.5"/><path stroke-dasharray="1.1497,8.0481" d="M694 336.6v69.5"/><path d="M694 410.2v.5"/></g><path fill="none" stroke="#FFF" stroke-width="3.868" stroke-linecap="round" stroke-miterlimit="10" stroke-dasharray="0.9669,6.7686" d="M364.2 270.8V328"/><path fill="none" d="M229.2 194.8h270v58h-270v-58z"/><path d="M250 196.8c.5-.1.9-.1 1.4-.2.4 0 .8-.1 1-.1.5 0 1 0 1.5.2.5.1 1 .3 1.4.6.4.3.8.7 1.1 1.2.3.5.4 1.2.4 2v29.8H250v-33.5zm20.1 33.4h-6.8v-23.7l.6-.1c.2 0 .4-.1.7-.1h1c1.1 0 2 .2 2.8.6.8.4 1.3 1.1 1.5 2 .6-.8 1.4-1.5 2.6-2.1 1.2-.7 2.8-1 4.8-1 2.4 0 4.1.5 5.2 1.4 1.1.9 1.9 2.2 2.2 3.7.2.8.3 1.6.3 2.5 0 .9.1 1.8.1 2.7v14.1h-6.8v-13.8c0-.7 0-1.4-.1-2 0-.6-.2-1.2-.4-1.6-.2-.5-.6-.8-1-1.1-.5-.2-1.2-.4-2-.4-1.2 0-2.3.3-3.2.8-.9.5-1.3 1.2-1.3 1.9v16.2zm39.6 0h-6.8v-23.7l.6-.1c.2 0 .4-.1.7-.1h1c1.1 0 2 .2 2.8.6.8.4 1.3 1.1 1.5 2 .6-.8 1.4-1.5 2.6-2.1 1.2-.7 2.8-1 4.8-1 2.4 0 4.1.5 5.2 1.4 1.1.9 1.9 2.2 2.2 3.7.2.8.3 1.6.3 2.5 0 .9.1 1.8.1 2.7v14.1h-6.8v-13.8c0-.7 0-1.4-.1-2 0-.6-.2-1.2-.4-1.6-.2-.5-.6-.8-1-1.1-.5-.2-1.2-.4-2-.4-1.2 0-2.3.3-3.2.8-.9.5-1.3 1.2-1.3 1.9v16.2zm33.5-4.2c.8 0 1.6-.1 2.2-.3.6-.2 1.2-.4 1.7-.7.5-.3.9-.6 1.3-.9.4-.3.7-.6 1-.9.4.5.8 1.1 1.2 1.9.4.8.6 1.4.6 1.9 0 .7-.4 1.4-1.2 2-.7.5-1.7 1-3 1.4-1.3.4-2.8.6-4.5.6-1.6 0-3.1-.2-4.6-.6-1.5-.4-2.9-1.1-4.1-2.1-1.2-1-2.1-2.3-2.9-4-.7-1.7-1.1-3.8-1.1-6.4 0-2.1.3-3.9 1-5.4.7-1.5 1.5-2.8 2.6-3.8s2.3-1.7 3.7-2.2c1.4-.5 2.8-.7 4.2-.7 1.9 0 3.5.3 4.8.9 1.3.6 2.4 1.4 3.2 2.3.8 1 1.4 2.1 1.8 3.4.4 1.3.5 2.6.5 4v2.4c0 .3 0 .5-.1.7h-14.7c.1 1.8.7 3.4 1.7 4.6 1 1.3 2.6 1.9 4.7 1.9zm2.3-10.2c0-1.6-.3-2.9-.9-3.9-.6-1-1.7-1.5-3.3-1.5-1.4 0-2.5.5-3.3 1.4-.8 1-1.2 2.3-1.2 4h8.7zm11.5 10.9c-.2-.7-.4-1.4-.4-2.1-.1-.7-.1-1.5-.1-2.2v-23.2l.8-.1c.2 0 .5-.1.8-.1h.8c.5 0 1.1 0 1.6.1s1 .3 1.5.6c.4.3.8.7 1 1.2.3.5.4 1.2.4 2v3.5h7v5.1h-7v10.7c0 2.3.9 3.5 2.9 3.5.5 0 .9-.1 1.3-.2.4-.2.8-.3 1.1-.5.4-.2.6-.4.9-.6s.4-.4.5-.5c.5.7.9 1.4 1.2 1.9.3.5.4 1 .4 1.5 0 .4-.2.9-.5 1.3-.4.4-.8.8-1.5 1.2-.6.3-1.4.6-2.3.8-.9.2-1.9.3-3 .3-2.1 0-3.7-.4-4.8-1.2-1.3-.7-2.1-1.7-2.6-3zm43.1 3.8h-5.3l-4-10.8-4.6 10.8h-4.8l-8.8-23.5c.6-.2 1.2-.4 1.9-.5.7-.1 1.2-.2 1.7-.2 1 0 1.9.2 2.6.6.7.4 1.3 1.2 1.6 2.2l4.5 13.5 3.3-8.2-2.4-7.6c.6-.2 1.2-.3 1.8-.4s1.1-.1 1.6-.1c.9 0 1.6.2 2.2.6.6.4 1.1 1.1 1.4 2.1l4.3 13.1 3.2-11.3c.4-1.5.9-2.6 1.5-3.4.6-.8 1.6-1.1 2.8-1.1.7 0 1.3.1 1.8.2s1.1.3 1.6.5l-7.9 23.5zm33.4-12.2c0 1.7-.2 3.3-.6 4.8-.4 1.5-1.1 2.9-2 4.1-1 1.2-2.2 2.1-3.7 2.8s-3.3 1-5.4 1c-2.1 0-3.9-.3-5.4-1-1.5-.7-2.7-1.6-3.6-2.8-.9-1.1-1.6-2.5-2-4-.4-1.5-.6-3.1-.6-4.8 0-1.7.2-3.3.8-4.8.5-1.5 1.2-2.8 2.2-4 1-1.2 2.2-2.1 3.7-2.7s3.2-1 5.2-1c2.1 0 3.9.3 5.4 1s2.7 1.6 3.6 2.7c.9 1.1 1.6 2.5 2 4 .2 1.4.4 3 .4 4.7zm-6.9 0c0-.9-.1-1.8-.2-2.7-.1-.9-.4-1.7-.8-2.3-.4-.7-.9-1.2-1.5-1.6-.6-.4-1.4-.6-2.4-.6s-1.8.2-2.4.7c-.7.4-1.2 1-1.5 1.7-.4.7-.7 1.5-.8 2.3-.2.9-.2 1.8-.2 2.7 0 .9.1 1.8.2 2.7.2.9.4 1.7.8 2.4s.9 1.3 1.5 1.7c.7.4 1.5.7 2.4.7 1 0 1.8-.2 2.5-.7.7-.4 1.2-1 1.5-1.7.4-.7.6-1.5.8-2.4.1-1 .1-1.9.1-2.9zm18.8-9.3c.2-.3.5-.6.8-1 .4-.4.8-.7 1.2-1 .5-.3 1-.5 1.6-.8.6-.2 1.2-.3 1.9-.3.4 0 .8 0 1.3.1s.9.2 1.2.4c.4.2.7.4.9.8.2.3.4.7.4 1.2 0 .7-.2 1.5-.5 2.5-.4 1-.7 1.8-1.1 2.5-.6-.5-1.1-.8-1.7-1.1s-1.2-.4-2-.4c-1 0-1.9.3-2.6.9-.7.6-1 1.3-1 2.1v15.4H439v-23.7l.6-.1c.2 0 .4-.1.7-.1h1c1.1 0 2 .2 2.8.6s1.1 1.1 1.3 2zm20.4 11.7c-.6-.7-.9-1.5-1.1-2.5v12h-6.8V195c.1 0 .3-.1.8-.1s1-.1 1.5-.1 1.1 0 1.6.2c.5.1 1 .3 1.4.6s.8.7 1.1 1.2c.3.5.4 1.2.4 2v17.9c.2-.9.6-1.7 1.3-2.5l5.3-6c.6-.7 1.1-1.2 1.7-1.6.6-.4 1.3-.5 2.1-.5.9 0 1.6.2 2.3.5.7.3 1.3.7 2 1.2l-8.1 9.4 9.3 12.4c-.5.3-1 .6-1.8.9-.7.2-1.4.3-2.2.3-1.2 0-2.2-.2-3-.6s-1.6-1.1-2.3-2l-5.5-7.5z" fill="#FFF"/></svg>