<svg xmlns="http://www.w3.org/2000/svg" width="98.6" height="27.5" viewBox="0 0 98.6 27.5"><path d="M9.7.4c.2-.1.5-.2.8-.2s.8-.2 1.1-.2c.5 0 1 .1 1.4.3s.7.7 1 1.3l9.2 25.2h-3.6l-2.7-7.2H6.1l-2.6 7.2H0L9.7.4zM16 16.8L11.5 4.1 7 16.8h9zm13.2 1.3c.1 1.9.6 3.5 1.5 4.7.9 1.2 2.4 1.8 4.4 1.8.7 0 1.4-.1 2-.2.6-.2 1.1-.4 1.5-.6s.8-.5 1.1-.7.5-.5.7-.7c.3.4.6.8.8 1.2.2.4.3.8.3 1 0 .2-.1.4-.2.7-.1.2-.4.5-.7.7-.6.5-1.4.8-2.4 1.1-1 .3-2.1.5-3.5.5-1.3 0-2.4-.2-3.5-.5-1.1-.4-2.1-.9-2.9-1.7-.8-.8-1.5-1.8-2-3.1s-.7-2.9-.7-4.7c0-1.7.2-3.1.7-4.4.5-1.2 1.1-2.2 1.9-3 .8-.8 1.7-1.4 2.7-1.7s2.1-.6 3.2-.6c1.4 0 2.5.2 3.5.7 1 .5 1.8 1.1 2.4 1.8.6.8 1.1 1.6 1.4 2.6.3 1 .4 2 .4 3.1v1.1c0 .4 0 .8-.1 1.1H29.2zm9.3-2.5c0-.7-.1-1.4-.2-2-.1-.6-.4-1.2-.7-1.6-.3-.5-.8-.8-1.4-1.1s-1.3-.4-2.1-.4c-1.4 0-2.5.5-3.4 1.4-.9.9-1.4 2.2-1.5 3.8h9.3zm8-13.3h.8c.8 0 1.4.2 1.9.6.5.4.7 1.1.7 2.1v3.1h6V11h-6v10.3c0 2.2.9 3.3 2.6 3.3.4 0 .8-.1 1.2-.2.4-.1.7-.3 1-.5.3-.2.6-.4.7-.6s.3-.3.4-.4c.3.4.6.8.8 1.2.2.4.3.7.3 1.1 0 .2-.1.5-.4.8-.2.3-.6.5-1 .8-.4.2-1 .4-1.6.6-.6.2-1.3.2-2.1.2-1.4 0-2.5-.3-3.3-.8-.8-.5-1.4-1.3-1.8-2.2-.2-.5-.3-1.1-.3-1.7 0-.6-.1-1.2-.1-1.8V2.3zM60.8 8h.6c.6 0 1.2.2 1.7.5s.9.8 1 1.5c.6-.6 1.4-1.2 2.5-1.6 1.1-.5 2.3-.7 3.7-.7 1.8 0 3.2.4 4.2 1.2s1.6 1.8 1.9 3c.1.5.2 1.1.2 1.8V27h-3.4V14.1c0-.5-.1-.9-.2-1.3-.2-.7-.6-1.2-1.2-1.6-.6-.4-1.4-.6-2.6-.6-.8 0-1.5.1-2.1.2-.6.2-1.1.4-1.6.6-.4.3-.8.6-1 .9-.2.3-.4.7-.4 1v13.3h-3.4V8zm22.4 4.3c-.2-.3-.4-.7-.5-1.1-.1-.4-.2-.7-.2-1 0-.3.2-.7.6-1 .4-.3 1-.6 1.7-.8.7-.2 1.4-.4 2.2-.6.8-.1 1.6-.2 2.4-.2 1.4 0 2.5.1 3.4.4.9.3 1.6.7 2.2 1.3.6.6 1 1.3 1.2 2.2s.3 1.9.3 3v7.9c0 .6 0 1.1.1 1.5.1.4.2.6.3.8.1.2.3.3.6.3.3.1.6.1 1 .1v1.6c-.2.2-.5.3-.8.3-.3.1-.7.1-1.1.1-.8 0-1.5-.2-2.2-.5s-1-.9-1.1-1.8c-.7.7-1.5 1.2-2.4 1.7-.9.5-2.2.7-3.7.7-.7 0-1.4-.1-2.1-.2-.7-.2-1.3-.5-1.9-.9s-1-1-1.4-1.7c-.4-.7-.6-1.6-.6-2.8 0-1.4.4-2.5 1.1-3.4.7-.9 1.6-1.6 2.6-2.1s2.2-.9 3.3-1 2.3-.3 3.3-.3h1.6v-.6c0-1.2-.3-2.1-.9-2.7-.6-.6-1.7-.9-3.3-.9-1.2 0-2.2.2-3 .5-.8.3-1.6.7-2.4 1.3h-.3zm10.1 5.1h-1.2c-.9 0-1.7.1-2.6.2-.9.1-1.7.3-2.4.6s-1.3.7-1.8 1.2-.7 1.2-.7 2 .2 1.5.7 2.1c.5.6 1.4.9 2.7.9.7 0 1.4-.1 2-.3s1.2-.4 1.7-.7c.5-.3.9-.6 1.1-1 .3-.3.4-.7.4-1v-4z" fill="#00A78E"/></svg>