<svg xmlns="http://www.w3.org/2000/svg" width="710.4" height="93.2" viewBox="0 0 710.4 93.2"><path fill="#61DEC7" d="M653.4 56.3c-16.1 0-30.7 5.8-41.6 15.2-13.4-16.3-34.7-27-58.8-27-18.6 0-35.6 6.4-48.5 16.8-10.6-16-29.8-26.8-51.8-26.8-23.6 0-44 12.4-54 30.4-9.4-5.4-20.5-8.6-32.4-8.6-6 0-11.7.8-17.2 2.3C340.6 25 307.7 0 268.3 0c-34.3 0-63.7 19-76.5 46-10.2-7.2-22.9-11.5-36.8-11.5-21.8 0-40.8 10.6-51.5 26.3-10.6-5.4-22.8-8.6-35.9-8.6-30.4.1-56.4 17-67.6 41h710.4c-8.3-21.5-30.6-36.9-57-36.9"/></svg>