<svg xmlns="http://www.w3.org/2000/svg" width="266.6" height="507.3" viewBox="0 0 266.6 507.3"><path fill="#00BBA2" d="M110.3 459.7h10v47.5h-10z"/><path fill="#32CFB6" d="M130.3 459.7h10v47.5h-10z"/><path fill="#55E1C8" d="M120.3 459.7h10v47.5h-10z"/><path fill="#32CFB6" d="M98.1 474.1h12.3v33.1H98.1z"/><path fill="#00BBA2" d="M78.6 444.9h11.1v62.4H78.6z"/><path fill="#32CFB6" d="M70.9 471h3.9v36.3h-3.9z"/><path fill="#00BBA2" d="M67 471h3.9v36.3H67zm88.3 0h3.9v36.3h-3.9z"/><path fill="#32CFB6" d="M151.4 471h3.9v36.3h-3.9z"/><path fill="#00BBA2" d="M147.5 471h3.9v36.3h-3.9z"/><path fill="#55E1C8" d="M74.8 471h3.9v36.3h-3.9z"/><path fill="#00BBA2" d="M235.055 427.6L231 425.887l30.328-71.86 4.053 1.71zm-49.025.01l-2.994-3.225 57.167-53.063 2.993 3.225z"/><path fill="#32CFB6" d="M230.262 427.6l-4.054-1.71 30.327-71.862 4.053 1.71z"/><path fill="#55E1C8" d="M225.47 427.6l-4.055-1.71 30.327-71.86 4.054 1.71z"/><path fill="#00BBA2" d="M.6 308.1h86.7v15.8H.6z"/><path fill="#55E1C8" d="M.6 323.8h86.7v15.8H.6z"/><path fill="#32CFB6" d="M254.3 300.1h12.3v38.3h-12.3z"/><path fill="#55E1C8" d="M.6 293.8h44.1v4.3H.6z"/><path fill="#00BBA2" d="M.6 289.5h44.1v4.3H.6z"/><path fill="#32CFB6" d="M.6 298.1h71.9v10H.6z"/><path fill="#00BBA2" d="M167.8 194.3h10v54.9h-10z"/><path fill="#32CFB6" d="M187.7 194.3h10v54.9h-10z"/><path fill="#55E1C8" d="M177.8 194.3h10v54.9h-10z"/><path fill="#32CFB6" d="M155.5 211h12.3v38.3h-12.3z"/><path fill="#55E1C8" d="M112.7 211H125v38.3h-12.3z"/><path fill="#00BBA2" d="M144.4 177.3h11.1v72.1h-11.1z"/><path fill="#32CFB6" d="M101.6 177.3h11.1v72.1h-11.1zm35 30.1h3.9v41.9h-3.9z"/><path fill="#00BBA2" d="M132.8 207.4h3.9v41.9h-3.9z"/><path fill="#32CFB6" d="M128.9 207.4h3.9v41.9h-3.9z"/><path fill="#00BBA2" d="M125 207.4h3.9v41.9H125z"/><path fill="#55E1C8" d="M140.5 207.4h3.9v41.9h-3.9z"/><path fill="#00BBA2" d="M61.59 249.257l-2.67-2.263 39.89-47.07 2.67 2.262z"/><path fill="#32CFB6" d="M229.8 118.4h3.9v41.7h-3.9zm-12.2-24.6h6.1V160h-6.1z"/><path fill="#00BBA2" d="M223.7 93.8h6.1V160h-6.1z"/><path fill="#55E1C8" d="M211.4 93.8h6.1V160h-6.1z"/><path fill="#00BBA2" d="M198.4 88.6h13v71.5h-13z"/><path fill="#32CFB6" d="M0 18.2h9.6V71H0z"/><path fill="#55E1C8" d="M9.6 18.2h9.6V71H9.6z"/><path fill="#32CFB6" d="M28.8 34.2h11.8V71H28.8z"/><path fill="#00BBA2" d="M40.6 1.8h10.7v69.3H40.6zm83.384 10.73l3.242 1.318-23.343 57.437-3.242-1.318z"/><path fill="#32CFB6" d="M145.5 5.1h6.1v66.2h-6.1z"/><path fill="#00BBA2" d="M151.6 5.1h6.1v66.2h-6.1zm12.3 0h6.1v66.2h-6.1z"/><path fill="#55E1C8" d="M139.3 5.1h6.1v66.2h-6.1z"/><path fill="#00BBA2" d="M126.3 0h13v71.5h-13z"/></svg>