<svg xmlns="http://www.w3.org/2000/svg" width="431.4" height="234.7" viewBox="0 0 431.4 234.7"><path fill="#FFF" d="M156.8 0c-5.9 0-12.8 4.3-15.4 9.5l-30 60.8c-2.6 5.3-9.3 10.9-14.9 12.5L16.9 94.4C8 96.9-2.1 97 .4 119.1L2 133.4c.7 5.8 1.2 13.3 1.2 16.7s1.2 9.6 2.7 10.2c1.5.7 7.5 1.2 13.3 1.2h390.2c5.8 0 14.1-1.2 14.8-2.7.7-1.5 1.2-5.4 1.2-8.8v-29.4c0-4.4-2.7-11.9-6.1-16.7L352.7 8.7C349.4 3.9 341.9 0 336 0H156.8z"/><path fill="#00A78E" d="M279.1 8.6v68H127.9l36.6-68m136.4 0v68H379l-42.9-68"/><path fill="#FFF" d="M78.5 121.2c-30.1 0-54.4 24.4-54.4 54.5s24.4 54.4 54.4 54.4c30.1 0 54.5-24.4 54.5-54.4-.1-30.2-24.5-54.5-54.5-54.5"/><path fill="none" stroke="#00A78E" stroke-width="9.308" stroke-miterlimit="10" d="M78.5 121.2c-30.1 0-54.4 24.4-54.4 54.5s24.4 54.4 54.4 54.4c30.1 0 54.5-24.4 54.5-54.4-.1-30.2-24.5-54.5-54.5-54.5z"/><path fill="#00A78E" d="M78.5 199.5c-13.2 0-23.9-10.7-23.9-23.8 0-13.2 10.7-23.9 23.9-23.9s23.9 10.7 23.9 23.9c-.1 13.1-10.8 23.8-23.9 23.8"/><path fill="#61DEC7" d="M78.5 183.7c-4.5 0-8.1-3.6-8.1-8.1s3.6-8.1 8.1-8.1 8.1 3.6 8.1 8.1-3.7 8.1-8.1 8.1"/><path fill="#FFF" d="M361.4 121.2c-30.1 0-54.4 24.4-54.4 54.5s24.4 54.4 54.4 54.4 54.5-24.4 54.5-54.4c0-30.2-24.4-54.5-54.5-54.5"/><path fill="none" stroke="#00A78E" stroke-width="9.308" stroke-miterlimit="10" d="M361.4 121.2c-30.1 0-54.4 24.4-54.4 54.5s24.4 54.4 54.4 54.4 54.5-24.4 54.5-54.4c0-30.2-24.4-54.5-54.5-54.5z"/><path fill="#00A78E" d="M361.4 199.5c-13.2 0-23.9-10.7-23.9-23.8 0-13.2 10.7-23.9 23.9-23.9s23.9 10.7 23.9 23.9c0 13.1-10.7 23.8-23.9 23.8"/><path fill="#61DEC7" d="M361.4 183.7c-4.5 0-8.1-3.6-8.1-8.1s3.6-8.1 8.1-8.1 8.1 3.6 8.1 8.1-3.6 8.1-8.1 8.1"/><path fill="#00A78E" d="M2.7 153.6c0 1 1.1 1.8 2.5 1.8h6c1.4 0 2.5-.8 2.5-1.8v-5.2c0-1-1.1-1.8-2.5-1.8h-6c-1.4 0-2.5.8-2.5 1.8v5.2zm422.4-32.4c-3.6 0-6.5 5.6-6.5 12.6-.1 7 2.8 12.6 6.3 12.7 3.6 0 6.5-5.6 6.6-12.6 0-7-2.9-12.7-6.4-12.7"/><path fill="#FFF" d="M408.8 90.4c1.7 2.4 5 3 7.4 1.4l5.7-3.9c2.4-1.7 3-5 1.4-7.4l-46.8-68.1c-1.7-2.4-5-3-7.4-1.4l-5.7 3.9c-2.4 1.7-3 5-1.4 7.4l46.8 68.1z"/><path fill="#FFF" d="M397 38.5c2.4-1.7 5.7-1 7.4 1.4l3.2 4.6c1.7 2.4 1.1 5.7-1.4 7.4l-1.8 1.2-9.2-13.4 1.8-1.2z"/><path fill="#00A78E" d="M250.3 101.9c0 1.7 1.3 3 3 3h10.4c1.7 0 3-1.3 3-3s-1.3-3-3-3h-10.4c-1.6 0-3 1.3-3 3"/></svg>