<svg xmlns="http://www.w3.org/2000/svg" width="180" height="117.9" viewBox="0 0 180 117.9"><g fill="#00A78E"><path d="M35.8 116.4c-.5 0-1-.3-1.2-.7L1.7 60.9c-.4-.6-.2-1.4.3-1.9.3-.3.6-.4 1-.4.3 0 .6.1.9.3l33.9 24.8c52.7-61 138-82 138.9-82.2h.3c.6 0 1.2.4 1.4 1.1.2.8-.2 1.6-.9 1.8-.8.3-85 32.2-140.5 111.4-.2.4-.7.6-1.2.6z"/><path d="M177 3S92.2 34.5 35.8 114.9L3 60.2l35 25.6C90.9 23.6 177 3 177 3m0-3c-.2 0-.5 0-.7.1-.9.2-22.1 5.4-50.2 18.3C100.7 30 65 50.4 37.5 81.7l-32.8-24c-.5-.4-1.2-.6-1.8-.6-.7 0-1.5.3-2 .8-1.1 1-1.3 2.5-.6 3.8l32.8 54.7c.5.9 1.5 1.4 2.5 1.5h.1c1 0 1.9-.5 2.5-1.3 28.8-41.1 65.3-69 90.8-85.2 27.7-17.6 48.8-25.5 49-25.6 1.5-.6 2.3-2.2 1.8-3.7C179.5.8 178.3 0 177 0z"/></g></svg>