<svg xmlns="http://www.w3.org/2000/svg" width="515.2" height="323.1" viewBox="0 0 515.2 323.1"><g fill="#55E1C8"><path d="M17.3 20.7v42.9c0 .4.1.8.1 1.2 0 2.9 30.4 3.4 30.4.5V20.7H17.3z"/><ellipse opacity=".44" cx="32.6" cy="12.1" rx="18.2" ry="2.6"/><path stroke="#00A78E" stroke-miterlimit="10" d="M32.6 14.7c-10.1 0-18.2-1.1-18.2-2.6V23c0 1.4 8.2 2.6 18.2 2.6 10.1 0 18.2-1.1 18.2-2.6V12.1c0 1.4-8.2 2.6-18.2 2.6z"/></g><path fill="#00A78E" d="M40.2 41.1h-4.3v-4.5c0-.7-.6-1.3-1.3-1.3H30c-.7 0-1.3.6-1.3 1.3v4.5h-4.3c-.7 0-1.3.6-1.3 1.3v4.3c0 .7.6 1.3 1.3 1.3h4.3v4.5c0 .7.6 1.3 1.3 1.3h4.5c.7 0 1.3-.6 1.3-1.3V48h4.3c.7 0 1.3-.6 1.3-1.3v-4.3c.1-.7-.5-1.3-1.2-1.3z"/><g fill="#55E1C8"><path d="M55.3 13.1v50.5c0 .5.1.9.1 1.4 0 3.4 35.8 4 35.8.6V13.1H55.3z"/><ellipse opacity=".44" cx="73.3" cy="3" rx="21.5" ry="3"/><path stroke="#00A78E" stroke-miterlimit="10" d="M73.3 6C61.4 6 51.8 4.7 51.8 3v12.8c0 1.7 9.6 3 21.5 3s21.5-1.3 21.5-3V3c0 1.7-9.6 3-21.5 3z"/></g><path fill="#00A78E" d="M84.5 35.8h-6.4v-6.6c0-.7-.6-1.3-1.3-1.3h-7.1c-.7 0-1.3.6-1.3 1.3v6.6H62c-.7 0-1.3.6-1.3 1.3v6.7c0 .7.6 1.3 1.3 1.3h6.4v6.6c0 .7.6 1.3 1.3 1.3h7.1c.7 0 1.3-.6 1.3-1.3v-6.6h6.4c.7 0 1.3-.6 1.3-1.3v-6.7c.1-.7-.5-1.3-1.3-1.3z"/><g fill="#55E1C8"><path d="M94.8 32.8v31.1c0 .3.1.6.1.9 0 2.1 22.1 2.5 22.1.4V32.8H94.8z"/><ellipse opacity=".44" cx="105.9" cy="26.6" rx="13.2" ry="1.9"/><path stroke="#00A78E" stroke-miterlimit="10" d="M105.9 28.4c-7.3 0-13.2-.8-13.2-1.9v7.9c0 1 5.9 1.9 13.2 1.9 7.3 0 13.2-.8 13.2-1.9v-7.9c0 1.1-5.9 1.9-13.2 1.9z"/></g><path fill="#00A78E" d="M110.9 47.6H108v-2.9c0-.3-.3-.6-.6-.6h-3.1c-.3 0-.6.3-.6.6v2.9h-2.8c-.3 0-.6.3-.6.6v3c0 .3.3.6.6.6h2.8v2.9c0 .3.3.6.6.6h3.1c.3 0 .6-.3.6-.6v-2.9h2.8c.3 0 .6-.3.6-.6v-3c.1-.3-.2-.6-.5-.6z"/><path fill="#00BBA2" d="M487.3 65.4h-24.8c-4.8 0-8.7-3.9-8.7-8.7v-44c0-4.8 3.9-8.7 8.7-8.7h24.8c4.8 0 8.7 3.9 8.7 8.7v44c.1 4.8-3.9 8.7-8.7 8.7z"/><path fill="#00BBA2" d="M456.3 6.6s5.8-3.4 5.8-6.2h25.8c0 2.9 5.8 6.2 5.8 6.2"/><circle fill="#32CFB6" cx="489.3" cy="32.3" r="6"/><circle fill="#32CFB6" cx="489.1" cy="36.9" r="4.6"/><circle fill="#32CFB6" cx="484.8" cy="33.1" r="4.4"/><circle fill="#32CFB6" cx="493.3" cy="33.9" r="2.5"/><circle fill="#32CFB6" cx="477" cy="40.4" r="6"/><circle fill="#32CFB6" cx="476.2" cy="44" r="4.6"/><circle fill="#32CFB6" cx="473.5" cy="40.3" r="4.4"/><circle fill="#32CFB6" cx="481.1" cy="37.8" r="2.5"/><circle fill="#32CFB6" cx="488.7" cy="47.3" r="6"/><circle fill="#32CFB6" cx="486.2" cy="44.5" r="4.6"/><circle fill="#32CFB6" cx="490.8" cy="44.4" r="4.4"/><circle fill="#32CFB6" cx="488.6" cy="52" r="2.5"/><circle fill="#32CFB6" cx="461.8" cy="46" r="6"/><circle fill="#32CFB6" cx="460.9" cy="49.7" r="4.6"/><circle fill="#32CFB6" cx="458.2" cy="45.9" r="4.4"/><circle fill="#32CFB6" cx="465.8" cy="43.5" r="2.5"/><circle fill="#32CFB6" cx="470.7" cy="52.6" r="6"/><circle fill="#32CFB6" cx="470.7" cy="48.9" r="4.6"/><circle fill="#32CFB6" cx="474.2" cy="51.9" r="4.4"/><circle fill="#32CFB6" cx="467.4" cy="56.1" r="2.5"/><circle fill="#32CFB6" cx="487.5" cy="58.5" r="6"/><circle fill="#32CFB6" cx="487.5" cy="54.8" r="4.6"/><circle fill="#32CFB6" cx="491" cy="57.8" r="4.4"/><circle fill="#32CFB6" cx="484.2" cy="62" r="2.5"/><circle fill="#32CFB6" cx="478.1" cy="58.5" r="6"/><circle fill="#32CFB6" cx="478.1" cy="54.8" r="4.6"/><circle fill="#32CFB6" cx="481.6" cy="57.8" r="4.4"/><circle fill="#32CFB6" cx="474.8" cy="62" r="2.5"/><circle fill="#32CFB6" cx="462.1" cy="58.7" r="6"/><circle fill="#32CFB6" cx="464.8" cy="56" r="4.6"/><circle fill="#32CFB6" cx="465" cy="60.6" r="4.4"/><circle fill="#32CFB6" cx="457.3" cy="58.8" r="2.5"/><path fill="#32CFB6" stroke="#00A78E" stroke-width="4" stroke-miterlimit="10" d="M2 67.1h511.2v64H2z"/><path fill="#32CFB6" d="M497.8 69.1h15.5v254h-15.5zM2 69.1h15.5v254H2z"/></svg>