<svg xmlns="http://www.w3.org/2000/svg" width="201.1" height="202" viewBox="0 0 201.1 202"><path fill="#FFF" d="M88.9 12.1L87.6.5l2.6-.3 1.3 11.6m-11.8 2L77.2 2.4l2.5-.5 2.6 11.4m-11.5 3.2L67.1 5.4l2.4-.8 3.8 11m-11.1 4.5L57.3 9.4l2.4-1.1L64.5 19m-9.4 7.4c-.9 0-1.8-.4-2.3-1.3l-6-10.1c-.7-1.2-.3-2.8.9-3.6 1.2-.7 2.8-.3 3.6.9l6 10.1c.7 1.2.3 2.8-.9 3.6-.4.3-.8.4-1.3.4zm97.5 163.2c-.9 0-1.8-.4-2.3-1.3l-6-10.1c-.7-1.2-.3-2.8.9-3.6 1.2-.7 2.8-.3 3.6.9l6 10c.7 1.2.3 2.8-.9 3.6-.4.4-.8.5-1.3.5zM46.3 29.8l-7-9.4 2.1-1.5 7 9.3m111.4 154.1l-7-9.4 2.1-1.6 6.9 9.4M39.2 35.9l-7.9-8.6 1.8-1.8 8 8.6m120.82 131.187l7.93 8.602-1.912 1.76-7.93-8.6zM32.8 42.6L24 34.9l1.7-2 8.8 7.8m140.9 127.5l-8.7-7.7 1.7-2 8.8 7.7M27.1 50l-9.6-6.7 1.5-2.1 9.5 6.7m145.572 103.138l9.542 6.77-1.504 2.12-9.543-6.77zM22.8 59.5c-.4 0-.9-.1-1.3-.3l-10.2-5.7c-1.3-.7-1.7-2.3-1-3.5.7-1.2 2.3-1.7 3.5-1L24 54.7c1.3.7 1.7 2.3 1 3.5-.4.8-1.3 1.2-2.2 1.3zm165.7 93.1c-.4 0-.9-.1-1.3-.3l-10.2-5.7c-1.3-.7-1.7-2.3-1-3.5.7-1.3 2.3-1.7 3.5-1l10.2 5.7c1.2.7 1.7 2.3 1 3.5-.4.8-1.3 1.3-2.2 1.3zM18.2 66.4L7.4 61.8l1-2.4L19.2 64m173.5 77.7l-10.8-4.6 1.1-2.4 10.7 4.7M4.665 69.225l11.17 3.483-.774 2.482-11.17-3.483zM196.5 131.9l-11.2-3.5.8-2.5 11.2 3.5M12.9 84.3L1.4 82l.5-2.5 11.5 2.3m185.8 39.9l-11.4-2.3.5-2.6 11.4 2.3M11.6 93.6L0 92.5l.2-2.6L11.9 91m189 20.3l-11.6-1.1.2-2.6 11.6 1.1M.5 113.6L.2 111l11.6-1.4.3 2.6m177.2-20.7l-.3-2.6 11.6-1.3.3 2.6M2.4 123.9l-.5-2.5 11.4-2.6.5 2.6m174.1-39.1l-.6-2.5 11.4-2.6.6 2.5M5.4 134.1l-.8-2.5 11-3.7.9 2.4m169-57l-.8-2.5 11-3.7.9 2.4M9.4 143.8l-1.1-2.3 10.7-4.9 1 2.4m171.68-81.72l1.08 2.365-10.64 4.866-1.08-2.36zM13.8 154.6c-.9 0-1.8-.4-2.3-1.3-.7-1.2-.3-2.8.9-3.6l10-6c1.2-.7 2.8-.3 3.6.9.7 1.2.3 2.8-.9 3.6l-10.1 6c-.3.3-.7.4-1.2.4zm163.5-96.9c-.9 0-1.8-.4-2.3-1.3-.7-1.2-.3-2.8.9-3.6l10-6c1.2-.7 2.8-.3 3.6.9.7 1.2.3 2.8-.9 3.6l-10.1 6c-.3.3-.7.4-1.2.4zM20.4 161.8l-1.5-2 9.3-7 1.6 2.1M172.9 48.4l-1.6-2.1 9.4-7 1.6 2.1m-155 128.5l-1.8-1.9 8.6-7.9 1.7 1.9M167 41.1l-1.7-1.9 8.6-7.9 1.7 1.9m-140.7 144l-1.9-1.7 7.7-8.8 1.9 1.7M166.18 23.96l1.952 1.716-7.727 8.785-1.952-1.71zM43.3 183.6l-2.2-1.5 6.8-9.5 2.1 1.5M153.2 28.6l-2.1-1.5 6.8-9.6L160 19M51.2 191.1c-.4 0-.9-.1-1.3-.3-1.3-.7-1.7-2.3-1-3.5l5.7-10.2c.7-1.2 2.3-1.7 3.6-1 1.2.7 1.7 2.3 1 3.5l-5.7 10.2c-.6.8-1.4 1.3-2.3 1.3zm93.1-165.7c-.4 0-.9-.1-1.3-.3-1.3-.7-1.7-2.3-1-3.5l5.7-10.2c.7-1.3 2.3-1.7 3.5-1 1.2.7 1.7 2.3 1 3.5l-5.7 10.2c-.4.8-1.3 1.3-2.2 1.3zm-7.2-6.2l-2.4-1 4.7-10.8 2.3 1.1m-13.3 7.3l-2.5-.8 3.5-11.1 2.5.8m-12.5 8.7l-2.6-.5 2.3-11.5 2.6.5m-11.5 10l-2.6-.3L108.7 0l2.6.2m.9 189.7l1.4 11.6-2.6.3-1.4-11.6m11.8-2l2.5 11.4-2.5.5-2.6-11.4m11.5-3.2l3.8 11.1-2.5.8-3.7-11M139 182l4.8 10.6-2.3 1.1-4.9-10.7m-72.6-.2l2.4 1-4.6 10.8-2.4-1m13.4-7.4l2.4.8-3.5 11.1-2.4-.8m12.5-8.7l2.5.5-2.3 11.5-2.5-.5m11.5-10l2.6.3-1.1 11.6-2.6-.2"/></svg>