<svg xmlns="http://www.w3.org/2000/svg" width="190.3" height="55.1" viewBox="0 0 190.3 55.1"><path d="M21.2 45.1c.9-.6 1.7-.9 2.3-.7.6.2 1.1.5 1.5 1 .1.2.3.4.4.5.1.1.2.3.3.5L13.5 55 0 36.2l11.8-8.3c.2.2.3.3.4.5s.2.3.4.5c.5.7.6 1.3.5 1.8-.1.6-.6 1.2-1.5 1.8L6 36.4l3.3 4.7 6-4.2 2.1 3-6 4.2 3.7 5.2 6.1-4.2zm-1.4-22.3c.7-.4 1.3-.5 1.8-.3.5.1 1 .4 1.5.8l10.4 8.5-1-13.3c-.1-.8.1-1.5.3-2 .3-.5.7-.9 1.2-1.2.4-.2.8-.4 1.3-.6.4-.2.7-.2 1-.3L48.5 34l-4 2.1-8-13.1.7 11.5-3.5 1.8-8.7-6.7 6 13.7-4 2.1-9.2-21.1c.2-.2.4-.4.8-.7s.8-.6 1.2-.8zM62 25.5c1-.4 1.8-.4 2.4 0 .5.3.9.8 1.1 1.4.1.2.1.4.2.6 0 .2.1.4.1.6l-14.1 5L44 11.3l13.6-4.8c.2.1.3.3.4.5s.1.4.2.6c.3.8.3 1.4 0 1.9s-.9 1-2 1.3l-6.4 2.3 1.9 5.4 6.9-2.4 1.2 3.5-6.9 2.4 2.1 6 7-2.5zM80.4 8.1c.2.9.2 1.8.2 2.6-.1.8-.3 1.5-.6 2.1s-.7 1.2-1.1 1.6c-.4.5-.9.9-1.4 1.2l7.5 8.2c-.4.3-.8.5-1.3.7-.5.2-.9.3-1.3.4-.8.2-1.6.1-2.2-.1-.6-.2-1.3-.7-1.9-1.4L73 17.6l-1.9.4 1.7 8.5-4.7.9-4.5-22.5c1-.3 2-.6 3.1-.9s2-.5 2.9-.7c3.3-.7 5.8-.6 7.5.2 1.7.8 2.8 2.4 3.3 4.6zm-4.8 1.4c-.3-1.4-.9-2.3-1.7-2.8-.9-.4-1.9-.5-3.2-.2-.4.1-.8.2-1 .2-.4.2-.7.2-.9.3l1.6 7.8 1.6-.3c1.4-.3 2.4-.8 3-1.6.7-.9.8-2 .6-3.4zm19.9 5.1l-.1-3.6 8.4-.3.4 10.4c-.2.3-.5.6-.9.9-.4.3-1 .7-1.7 1s-1.5.6-2.4.8c-.9.2-2 .4-3.2.4-2 .1-3.6-.2-5-.8S88.5 22 87.5 21c-.9-1-1.6-2.3-2.1-3.8s-.7-3.1-.8-4.8c-.1-1.7.1-3.3.5-4.8s1-2.8 1.9-3.9c.9-1.1 2-2 3.4-2.7 1.4-.7 3-1 4.9-1.1.9 0 1.8 0 2.7.2.9.2 1.7.4 2.4.8s1.3.7 1.7 1.1c.4.4.7.8.7 1.3 0 .4-.1.8-.5 1.3-.3.5-.7.9-1.1 1.4-.3-.2-.6-.5-1-.8-.4-.3-.8-.5-1.2-.7-.5-.2-1-.4-1.5-.5-.6-.1-1.2-.2-1.9-.2-1.2 0-2.3.3-3.1.8-.8.5-1.4 1.1-1.9 1.9-.5.8-.8 1.6-.9 2.6s-.2 2-.2 3c0 1.1.2 2.2.4 3.2.3 1 .6 1.9 1.2 2.6s1.2 1.4 2.1 1.8c.9.4 1.9.6 3.2.6.6 0 1.1-.1 1.5-.2.4-.1.8-.2 1-.3.3-.1.6-.3.8-.5l-.2-4.9-4 .2zm24.8 7.3c1.1.2 1.8.5 2.1 1.1.3.6.4 1.1.4 1.8 0 .3-.1.5-.1.6 0 .2-.1.4-.1.6l-14.8-2.2L111.1.9 125.4 3v.6s0 .4-.1.6c-.1.8-.4 1.4-.9 1.7-.5.3-1.3.4-2.4.3l-6.7-1-.8 5.6 7.2 1.1-.5 3.7-7.2-1.1-.9 6.3 7.2 1.1zm21.6 10.2l-3.8-1.3-4.5-17.5-4.8 14.4-4.3-1.4 7.3-21.9c.2 0 .5.1.9.2s.8.2 1.1.3c.7.2 1.2.5 1.5.9.3.4.5.9.7 1.5l3.8 16.6 5-15.1c.3.1.6.1.9.2.3.1.5.1.6.2.3.1.6.3.9.4.3.2.6.4.8.7.2.3.3.6.4 1 .1.4 0 .9-.2 1.4l-6.3 19.4zm18.5 8.3c-.2.1-.5.1-.8.1-.4 0-.8 0-1.4-.1-.6-.1-1.2-.2-1.9-.4s-1.5-.6-2.4-1c-1.6-.9-2.9-1.9-3.8-3.1-.9-1.2-1.5-2.4-1.8-3.8-.3-1.4-.2-2.8.1-4.3s.9-3 1.8-4.5c.8-1.5 1.8-2.9 2.9-3.9s2.3-1.9 3.6-2.4c1.3-.5 2.7-.7 4.2-.6 1.5.1 3 .6 4.6 1.5.8.4 1.5.9 2 1.4l1.4 1.4c.4.5.7.9.9 1.3.2.4.3.7.4.9.1.3.1.5.2.8 0 .3-.1.6-.2.8-.2.4-.6.7-1.1 1-.5.2-1.1.4-1.6.6-.1-.4-.2-.8-.4-1.2s-.4-.8-.7-1.2-.6-.8-1-1.2c-.4-.4-.9-.7-1.5-1.1-1-.6-2-.8-2.9-.8s-1.8.3-2.6.7c-.8.4-1.5 1-2.2 1.8-.6.8-1.2 1.6-1.7 2.5-.5 1-.9 1.9-1.2 2.9s-.4 1.9-.3 2.8c.1.9.4 1.8.9 2.6s1.3 1.5 2.4 2.1c.6.3 1.1.5 1.7.6.6.1 1.1.2 1.5.2.5 0 .9 0 1.3-.1s.7-.1 1-.2c0 .2.1.5.1.7.1.3.1.6.1.9v.9c0 .3-.1.5-.2.7-.1.3-.3.5-.5.6-.3-.1-.6 0-.9.1zm15.6 2l-5.3 7.1-3.8-2.8 5.2-7 2.3-15.5c.4.1.9.2 1.4.4s.9.4 1.3.7c.7.5 1.1 1 1.2 1.5s.2 1.1 0 1.8l-1.6 8.9 8-4c.6-.3 1.1-.4 1.7-.4s1.2.2 1.9.7c.4.3.8.6 1 .9.3.3.5.7.8 1L176 42.4z" fill="#00A78E"/></svg>