<svg xmlns="http://www.w3.org/2000/svg" width="244.2" height="244.3" viewBox="0 0 244.2 244.3"><path fill="#FFF" d="M127 12.2h-1.8l-7.5-6.8.1 6.8h-1.4L116.3 0h1.9l7.5 6.7-.2-6.7h1.4l.1 12.2zm105 113.2l-.1-9.2 12.2-.1.1 8.9-1.4.3v-4.9h-1l.1 4.9-1.4-.3v-4.5l-7 .1v4.9l-1.5-.1zM118 236.3c0-1.2.4-2.3 1.1-3.1.9-1 2.3-1.5 4.2-1.5 1.4 0 2.6.3 3.6.9 1.1.6 1.6 1.5 1.6 2.7 0 .8-.4 1.5-1.2 2-.7-.2-1.3-.6-1.8-1 .8-.4 1.2-.8 1.2-1.2 0-.5-.3-1-.9-1.4-.7-.5-1.5-.7-2.6-.7-1.9 0-2.8.6-2.8 1.6 0 .6.3 1.1 1 1.5.1.1.6.2 1.4.4 1.6.5 2.6.8 3.2 1.2 1.4.8 2 1.8 2 3 0 1-.4 1.8-1.2 2.5-.9.7-2.1 1.1-3.5 1.1-.7 0-1.4-.1-2.1-.4-.8-.3-1.4-.7-1.8-1.3.1-.2.3-.5.6-.7.3-.2.6-.3.9-.4.2.4.5.7 1 1 .5.3 1 .5 1.5.5 1 0 1.5-.3 1.5-1 0-.4-.3-.6-1-.8-.5-.1-1-.2-1.5-.4s-1.1-.3-1.6-.5c-.8-.3-1.4-.7-1.9-1.3-.6-.5-.9-1.5-.9-2.7zM0 114.1l12.2 4.6v.8l-5.4 2 5.4 2v.6L.1 128.7V124l5-1.9-5-1.9v-.9l5-1.9-5-1.9-.1-1.4z"/></svg>