<svg xmlns="http://www.w3.org/2000/svg" width="1215.1" height="408.6" viewBox="0 0 1215.1 408.6">
  <path fill="#00A78E" d="M1178.3 346.4c.6-.4 1.3-.3 1.7.2l.1.1c.4.5.2 1.3-.3 1.7l-25.3 18.1c-.6.4-1.3.3-1.7-.2l-.1-.1c-.4-.5-.2-1.3.3-1.7l25.3-18.1z"/>
  <path fill="#61DEC7" d="M1140.5 355.3c0 10.1-8.3 18.4-18.6 18.4s-18.6-8.2-18.6-18.4c0-10.1 8.3-18.4 18.6-18.4s18.6 8.2 18.6 18.4m65.5-14c0-10.7-8.8-19.4-19.7-19.4s-19.7 8.7-19.7 19.4c0 5.1 2 9.6 5.2 13.1 1.2-.3 2.5-.5 3.8-.5 5.1 0 9.5 2.7 11.9 6.8 10.3-.7 18.5-9.1 18.5-19.4m-18.5 25.2c0 6.5-5.3 11.8-11.9 11.8-6.6 0-11.9-5.3-11.9-11.8 0-6.5 5.3-11.7 11.9-11.7 6.6-.1 11.9 5.2 11.9 11.7m-7.3-44.7c-3.5-11.7-14.5-20.3-27.5-20.3-15.8 0-28.7 12.7-28.7 28.3 0 2.1.2 4.2.7 6.2 9.6 1.7 16.9 10 16.9 19.9 3.4 1.4 7.1 2.2 11 2.2 6.1 0 11.8-1.9 16.4-5.1-2.4-3.3-3.7-7.3-3.7-11.6.1-9.3 6.3-17.1 14.9-19.6"/>
  <path fill="#00A78E" d="M1154.9 347.6c0-1.4-1.2-2.6-2.6-2.6h-.4c-1.4 0-2.6 1.2-2.6 2.6v61h5.6v-61zm-2.1 27.8c.5.4.5 1.2 0 1.9l-.1.2c-.5.7-1.3 1-1.8.6l-23.7-16.7c-.5-.4-.5-1.2 0-1.9l.1-.2c.5-.7 1.3-.9 1.8-.6l23.7 16.7z"/>
  <path fill="#00A78E" d="M1172 369.9c.4-.4 1.1-.3 1.5.2l.1.1c.4.5.5 1.2 0 1.5l-18.6 16.2c-.4.4-1.1.3-1.5-.2l-.1-.1c-.4-.5-.4-1.2 0-1.5l18.6-16.2z"/>
  <path fill="#61DEC7" d="M567.2 365.2c-14 0-26.7 5-36.1 13.2-11.6-14.2-30.1-23.4-51-23.4-16.2 0-30.9 5.6-42.1 14.6-9.2-13.9-25.9-23.2-45-23.2-20.5 0-38.2 10.7-46.9 26.4-8.1-4.7-17.8-7.5-28.1-7.5-5.2 0-10.2.7-14.9 2-7.5-29.1-36-50.9-70.2-50.9-29.8 0-55.3 16.5-66.4 40-8.9-6.2-19.9-10-32-10-18.9 0-35.5 9.2-44.7 22.9-9.2-4.7-19.8-7.4-31.1-7.4-26.4 0-49 14.6-58.7 35.5h616.6c-7.1-18.8-26.6-32.2-49.4-32.2"/>
  <path fill="#00A78E" d="M232.5 261.4c1.2-.8 2.7-.6 3.5.4l.2.3c.8 1 .5 2.6-.7 3.4L184 302.3c-1.1.8-2.7.6-3.5-.4l-.2-.3c-.8-1-.5-2.6.6-3.4l51.6-36.8z"/>
  <path fill="#61DEC7" d="M155.7 279.4c0 20.6-17 37.4-37.9 37.4s-37.9-16.7-37.9-37.4 17-37.4 37.9-37.4 37.9 16.8 37.9 37.4m133.1-28.5c0-21.8-17.9-39.5-40-39.5s-40 17.7-40 39.5c0 10.3 4 19.6 10.6 26.7 2.5-.7 5-1.1 7.7-1.1 10.4 0 19.4 5.6 24.3 13.8 20.9-1.3 37.4-18.4 37.4-39.4m-37.5 51.3c0 13.2-10.8 23.9-24.2 23.9-13.4 0-24.3-10.7-24.3-23.9s10.9-23.9 24.3-23.9 24.2 10.7 24.2 23.9m-15-90.9c-7.1-23.9-29.4-41.4-56-41.4-32.2 0-58.3 25.8-58.3 57.6 0 4.3.5 8.5 1.4 12.6 19.5 3.5 34.4 20.2 34.4 40.5 6.9 2.9 14.5 4.4 22.5 4.4 12.4 0 23.9-3.8 33.4-10.4-4.8-6.7-7.6-14.9-7.6-23.7.1-18.7 12.8-34.6 30.2-39.6"/>
  <path fill="#00A78E" d="M185.3 264.2c0-3.1-2.5-5.6-5.7-5.6h-.8c-3.1 0-5.7 2.5-5.7 5.6v133.9h12.2V264.2zm-4.6 56.1c1 .7 1.1 2.5.1 3.9l-.3.4c-1 1.4-2.7 1.9-3.7 1.2l-48.2-34c-1-.7-1.1-2.5-.1-3.9l.3-.4c1-1.4 2.7-1.9 3.7-1.2l48.2 34z"/>
  <path fill="#00A78E" d="M219.7 309.1c.8-.7 2.2-.5 3.1.5l.2.2c.9 1 .9 2.4.1 3.1l-37.9 33c-.8.7-2.2.5-3.1-.5l-.2-.2c-.9-1-.9-2.4-.1-3.1l37.9-33z"/>
  <path fill="#45CDB6" d="M532.2 0H839v395.3H532.2zM296.4 197.6h235.8v197.6H296.4z"/>
  <path fill="#45CDB6" d="M838.1 197.6h215.2v197.6H838.1z"/>
  <path fill="#00A78E" d="M694 111.7h-16.8c-3.2 0-5.8-2.6-5.8-5.8V21.8c0-3.2 2.6-5.8 5.8-5.8H694c3.2 0 5.8 2.6 5.8 5.8V106c0 3.1-2.6 5.7-5.8 5.7z"/>
  <path fill="#00A78E" d="M637.8 72.2V55.4c0-3.2 2.6-5.8 5.8-5.8h84.2c3.2 0 5.8 2.6 5.8 5.8v16.8c0 3.2-2.6 5.8-5.8 5.8h-84.2c-3.3 0-5.8-2.6-5.8-5.8z"/>
  <path fill="#45CDB6" d="M532.9 73.6l-140.3 124h140.3m305.2-124l140.2 124H838.1"/>
  <path fill="#00A78E" d="M826.2 211.6h47.7v70.5h-47.7zm82.1 0H956v70.5h-47.7zm-328.7 84.9h100.5v101.6H579.6zm109.7 0h102.3v101.6H689.3zm-381 0h100.5v101.6H308.3zm109.7 0h102.3v101.6H418zm572.4-84.9h47.7v70.5h-47.7zm-410.8-.1h47.7V282h-47.7zm82.2 0h47.7V282h-47.7zm82.1 0h47.7V282h-47.7zm-164.3-84.3h47.7v70.5h-47.7zm-81.5 0h47.7v70.5h-47.7zm163.7 0h47.7v70.5h-47.7zm82.1 0h47.7v70.5h-47.7zm82.3 0h47.7v70.5h-47.7zm0 169.3h47.7V367h-47.7zm82.1 0H956V367h-47.7zm82.1 0h47.7V367h-47.7z"/>
  <path fill="none" d="M320 280.6s93.2-92.1 185.3 0"/>
  <text transform="matrix(.815 -.58 .58 .815 328.16 273.208)">
    <tspan x="0" y="0" fill="#00A78E" font-family="'Foco'" font-weight="600" font-size="34.552">E</tspan>
    <tspan x="17.5" y="-.4" fill="#00A78E" font-family="'Foco'" font-weight="600" font-size="34.552" rotate="7.4">M</tspan>
    <tspan x="44.2" y="3.4" fill="#00A78E" font-family="'Foco'" font-weight="600" font-size="34.552" rotate="15.7">E</tspan>
    <tspan x="61" y="7.9" fill="#00A78E" font-family="'Foco'" font-weight="600" font-size="34.552" rotate="23.5">R</tspan>
    <tspan x="78.5" y="15.2" fill="#00A78E" font-family="'Foco'" font-weight="600" font-size="34.552" rotate="33.4">G</tspan>
    <tspan x="96.8" y="27.5" fill="#00A78E" font-family="'Foco'" font-weight="600" font-size="34.552" rotate="43.7">E</tspan>
    <tspan x="109.4" y="39.2" fill="#00A78E" font-family="'Foco'" font-weight="600" font-size="34.552" rotate="53.9">N</tspan>
    <tspan x="122.3" y="56.8" fill="#00A78E" font-family="'Foco'" font-weight="600" font-size="34.552" rotate="63.9">C</tspan>
    <tspan x="131.1" y="75" fill="#00A78E" font-family="'Foco'" font-weight="600" font-size="34.552" rotate="72.1">Y</tspan>
  </text>
  <path fill="#00A78E" d="M1101.4 273.8c1.2-.8 2.7-.6 3.5.4l.2.3c.8 1 .5 2.6-.7 3.4l-51.6 36.8c-1.1.8-2.7.6-3.5-.4l-.2-.3c-.8-1-.5-2.6.6-3.4l51.7-36.8z"/>
  <path fill="#61DEC7" d="M1024.6 291.8c0 20.6-17 37.4-37.9 37.4s-37.9-16.7-37.9-37.4 16.9-37.4 37.9-37.4c20.9 0 37.9 16.8 37.9 37.4m133.1-28.4c0-21.8-17.9-39.5-40-39.5s-40 17.7-40 39.5c0 10.3 4 19.6 10.6 26.7 2.5-.7 5-1.1 7.7-1.1 10.4 0 19.4 5.6 24.3 13.8 20.8-1.4 37.4-18.5 37.4-39.4m-37.5 51.2c0 13.2-10.8 23.9-24.2 23.9-13.4 0-24.3-10.7-24.3-23.9s10.9-23.9 24.3-23.9 24.2 10.7 24.2 23.9m-15-90.9c-7.1-23.9-29.4-41.4-56-41.4-32.2 0-58.3 25.8-58.3 57.6 0 4.3.5 8.5 1.4 12.6 19.5 3.5 34.4 20.2 34.4 40.5 6.9 2.9 14.5 4.4 22.5 4.4 12.4 0 23.9-3.8 33.4-10.4-4.8-6.7-7.6-14.9-7.6-23.7.1-18.7 12.8-34.6 30.2-39.6"/>
  <path fill="#00A78E" d="M1054.1 276.6c0-3-2.5-5.6-5.6-5.6h-.8c-3.1 0-5.6 2.5-5.6 5.6v132.1h12.1V276.6zm-4.5 56.1c1 .7 1.1 2.5.1 3.9l-.3.4c-1 1.4-2.7 1.9-3.7 1.2l-48.2-34c-1-.7-1.1-2.5-.1-3.9l.3-.4c1-1.4 2.7-1.9 3.7-1.2l48.2 34z"/>
  <path fill="#00A78E" d="M1088.6 321.6c.8-.7 2.2-.5 3.1.5l.2.2c.9 1 .9 2.4.1 3.1l-37.9 33c-.8.7-2.2.5-3.1-.5l-.2-.2c-.9-1-.9-2.4-.1-3.1l37.9-33z"/>
  <path fill="#61DEC7" d="M1189.1 391.8c-7.3 0-14 2.6-18.9 6.9-6.1-7.4-15.8-12.3-26.8-12.3-8.5 0-16.2 2.9-22.1 7.7-4.8-7.3-13.6-12.2-23.6-12.2-10.8 0-20 5.6-24.6 13.8-4.3-2.5-9.3-3.9-14.8-3.9-2.7 0-5.3.4-7.8 1.1-3.9-15.3-18.9-26.7-36.9-26.7-15.6 0-29 8.6-34.8 21-4.6-3.3-10.4-5.2-16.8-5.2-9.9 0-18.6 4.8-23.5 12-4.8-2.5-10.4-3.9-16.3-3.9-13.8 0-25.7 7.7-30.8 18.6h323.7c-3.8-9.8-14-16.9-26-16.9"/>
</svg>