<svg xmlns="http://www.w3.org/2000/svg" width="414.2" height="150.9" viewBox="0 0 414.2 150.9"><path fill="#00BBA2" d="M36 51.7h18v99H36z"/><path fill="#32CFB6" d="M0 51.7h18v99H0z"/><path fill="#55E1C8" d="M18 51.7h18v99H18z"/><path fill="#32CFB6" d="M54 81.7h22.2v69H54z"/><path fill="#55E1C8" d="M131.2 81.7h22.2v69h-22.2z"/><path fill="#00BBA2" d="M76.2 20.9h20v130h-20z"/><path fill="#32CFB6" d="M153.3 20.9h20v130h-20zm-50.1 54.2h7v75.5h-7z"/><path fill="#00BBA2" d="M110.2 75.1h7v75.5h-7z"/><path fill="#32CFB6" d="M117.2 75.1h7v75.5h-7z"/><path fill="#00BBA2" d="M124.2 75.1h7v75.5h-7z"/><path fill="#55E1C8" d="M96.2 75.1h7v75.5h-7z"/><path fill="#00BBA2" d="M173.35 43.754l6.08-2.567 45.218 107.148-6.08 2.566zM275.7 150.7H357s-34.5-24.3-81.3 0zM371.8.5l-55.5 144.6"/><path d="M371.8.5l-55.5 144.6M370.583-.035l2.52.968-55.546 144.6-2.52-.97z" fill="#00BBA2"/><circle fill="#32cfb6" cx="343.5" cy="70.3" r="54.9"/><path fill="#00BBA2" d="M367.2 10.2s.2.1.5.2c.4.1.9.4 1.5.7 1.3.6 3.3 1.5 5.7 2.9 2.4 1.4 5.3 3.1 8.4 5.4 1.6 1.1 3.2 2.4 4.9 3.8.9.7 1.7 1.4 2.6 2.2.9.8 1.7 1.6 2.6 2.4 1.7 1.7 3.5 3.5 5.2 5.5 1.7 2 3.4 4.2 5 6.5 3.2 4.7 6.1 10.1 8 16.3.2.8.5 1.5.7 2.3.3.8.4 1.6.6 2.4.2.8.3 1.6.5 2.4.1.8.2 1.7.3 2.5.5 3.3.5 6.8.2 10.2-.5 6.9-2.4 13.7-5.3 19.8l-.3.6-.1.3-.2.5-.5 1-1.1 2-.5 1-.7 1.1-1.4 2.2c-.9 1.5-1.9 2.8-2.9 4.2-1 1.4-2.1 2.6-3.2 3.9l-.8 1-.9.9c-.6.6-1.2 1.2-1.7 1.8l-.9.9-.9.8c-.6.5-1.2 1.1-1.8 1.6-.6.6-1.3 1-1.9 1.5-.6.5-1.3 1-1.9 1.5-1.3 1-2.7 1.8-4 2.7-5.4 3.3-11 5.7-16.3 7.4-1.4.4-2.7.8-4 1.1-.7.2-1.3.3-2 .5s-1.3.3-2 .4c-.6.1-1.3.2-1.9.4-.6.1-1.3.2-1.9.3-.6.1-1.2.2-1.9.3-.6.1-1.2.1-1.8.2-1.2.1-2.4.2-3.5.3-1.1.1-2.3.1-3.4.2H341c-1 0-2-.1-3-.1-3.9-.1-7.2-.6-9.9-1s-4.8-1-6.3-1.3c-.7-.2-1.3-.4-1.6-.5-.4-.1-.6-.2-.6-.2l.1-.7s.7.1 2.2.3c1.4.1 3.5.3 6.2.4 5.4.2 13.1-.1 22.1-1.7 4.5-.9 9.3-2.1 14.3-4 4.9-1.9 9.9-4.3 14.7-7.5 4.7-3.2 9.2-7.2 13-11.8 3.9-4.6 7.1-9.8 9.7-15.4 2.6-5.5 4.3-11.4 4.9-17.4.6-6 0-11.9-1.5-17.4-1.5-5.5-3.8-10.6-6.5-15.1s-5.7-8.5-8.8-11.9c-6.1-6.9-12-11.9-16.3-15.1-2.1-1.6-3.9-2.8-5.1-3.6-1.2-.8-1.9-1.2-1.9-1.2l.5-.9z"/><path fill="#55E1C8" d="M369.9 22.2c-26.5-14.6-59.9-4.9-74.5 21.6-14.6 26.5-4.9 59.9 21.7 74.5 26.6 14.6 59.9 4.9 74.5-21.6 14.6-26.6 4.9-59.9-21.7-74.5zm-23.1 72.9c-.6.2-1.6 2.6-2.9 3.4-1.3.7-2.7.5-4.2.1-1.5-.3-.2.8-.8 1.2-.6.3-1.5.3-2.7 1.6-1.2 1.3-2-.2-2.5.4-.5.6-1.7.7-2.7.2-1-.5-.6.4-1.5.7-.9.2-1.3 0-1.8.7-.5.8-.9.5-1.7.9-.7.3 0 1.2-.8 1.7-.9.6-.3.6-1.4.7-1.2.2-.8 1.8-.4 2.3.4.6 1.1 1.4.7 1-7.6-3.6-.4-8.2.2-9.8.6-1.6 4.3-5.1 5.5-6.8 1.2-1.6 3.7-2.3 1.7-4.7-2-2.5-.9-1.3-.9-5.2-.1-3.9 1.8-4.2 2.8-4.5.9-.3.7-.3 1.2-1.4.5-1.1 0-.8 0-1.4 0-.6-.9-.6-1.6-1.1-.7-.6-.5-.5-.8-2.1-.3-1.6-1.1-.7-1.9-2.7-.8-2-.8-.8-1.8-1.8-1-.9-3.2-2.6-2.7-3.8.5-1.2.3-2.1.3-2.1 0-1.5-.6-4.5-2.3-6.8-1.7-2.2-1.1-6.5.3-7.8 1.4-1.2.3-1.5.5-3.4.1-1.9-.2-3.8-1.9-8.2-1.7-4.4-8.2-4.3-10.5-5.8 3.3-2.8 9.3-5.6 9.3-5.6 2.7 1.4 4.5 3.4 6.6 4.9 2.2 1.5 3.9.6 5.8-.2s3.4-1.4 5.2-1.5c1.8 0 3.3.6 6.8 1.8 3.5 1.2 2.5-.5 5.3-.7 2.8-.2 8.2 1.5 12.8 4.2 4.6 2.7-2.2 2-3.6 2-1.4-.1-2.6.8-3.9 1.4-1.4.6-1.5 1-1.7 2.4-.2 1.4 2.2 4.3 2.6 5.2.4.9-.5 1.2 0 2.7.5 1.4.2 2.1-.8 1.3s-.9.4-.7 1.4c.2 1 .1 2.1-1.2 1.5-1.2-.6-.5-1.9-1.9-3-1.3-1-.5-1.6 1.2-2.2 1.7-.6-1.6-1.7-2.7-2.7-1.1-1-1.3.7-2 1.7-.8 1-.8 2.2-1.9 1.7-1.3-.5-1-1.4-1.7-2.3-.7-.9-1.5.3-3.1.9-1.7.6-.8 2.3-.2 3 .6.7.6 2.1 1.8 2.7 1.2.7.6 1 .7 3.2 0 2.2 1.3-1 2.2-1.1.9-.1 1.4-.4 1.6-1.8.2-1.4.3-2.1 1.8-2.5 1.5-.4 1.9 1.3 2.4 2.3.4 1-.9 2 .2 2.2 1.1.2 2.1-.3 1.9.5-.2.8.5 1.3.7 2.5.2 1.2.6 2 .3 3.1-.3 1-.1 1.8 0 3.1 0 1.2-1.3.1-2.3-.4-1.1-.5.6-1.1.4-2-.2-.8-1.2-.1-3 .2-1.8.3 1 2.2-.2 2.1-1.2 0-1.6-.6-3.2-.9-1.6-.3-1.5.8-2.4.5-.9-.2-1.5.5-2.1 1.2-.7.7-1.7.9-3 .9-1.3.1-1.6 2.3-1.8 3.1-.2.9-.9.8-.9-.4 0-1.2.1-1.4-.5-2.6-.5-1.2-2.4-1-4.5-1.7s-3.1 1.9-3.1 3.4c-.1 1.5 1.4 2.1 2.3 1.9 1-.2 1.8-.1 2.3.1.5.2-.9 1.2-1.6 1.6-.8.5.4 1.1 1.3 1.6.9.4-.3 1.5-.7 2-.4.5 0 1 .2 1.5.3.5 1.2.4 1.7 1s.8-.1 1.8-.2c1 0 1.2.3 2.5 1.3s1.1.9 2.1 1.4c1 .5 1.3 1.3 1.5 2.3.2 1.1-.2 1.4 1.3 2.2 1.5.8 1.4 2 1.1 2.7-.3.6.8 1.9 1.3 2.5.5.6 1 1.4 2 2 1 .5 1.3 1.5 1.4 2.9.3 1.9-2.4 2-3.1 2.2zM342.2 75c-.4-.5-.3-.8-.9-.7-.5 0-1.4.1-1.4-.7 0-.8-.4-.9-.8-1.1-.4-.2-.9-.9-1.3-1.1-.4-.2-.2-.6-.4-1.1-.2-.5-1-1.2-1.6-1.3-.6-.1-1-.2-.3-.3.7-.1 1.6.3 2.2 1 .6.7.6 1.1 1 1.6s.6.8.8 1c.2.2 1.3.3 1.5 1 .2.7.3.8.6.9.2.1.7.3.9.5.2.3.1.7-.3.3zM372 56.1c-1.4.1-2.1.3-3.5.1-1.3-.2-2.1.4-3.9 2-1.8 1.6-1.5-2.9-2-4.4-.5-1.5 1-2.4 1.4-4 .4-1.5-1-1.7.5-3.7 1.5-2.1 0-3.8-2.1-4.9-2.1-1.2-1.4-2-2.7-3.4-1.3-1.4 1.5-.8 3.5-.1 2 .8.7-.7 2.6-.5 0 0 2.8-.1 4.7.5 1.5.5 2.1 1 4.6 1.8 2.5.8 2.6 1 4.4 1.8 1.8.8 2 1.1 3.9 3.3 1.8 2.2 1 1.5 3.2 3.3 2.2 1.8-1.3 1-2.7 1.4-1.3.3-1.2.7-1.6 1.7-.5 1-.5 2-1.4 2.4-.9.5-1.3.2-2.2 1.5-.9 1.3-.9 2.1-1.7 2.1-.9 0-3.6-1-5-.9zm3.9 3.6c0-1.2.9.2 2.8 1.2 1.5.9-.2 1.3-1.4 1.2-1.3-.2-1.3-1.2-1.4-2.4zm-7.8 52.1c-.1-1.7 1.2-3.5 2.4-4.7 1.3-1.2.6-3.2.3-4.6-.3-1.4.2-2.1.7-3.4.5-1.4-1-1.8-2.6-2.2-1.6-.4-3.5-1.7-4.9-3.8-1.4-2-1-1.5.1-5.6s4.9-3.9 6.3-4.7c1.3-.8 2.7-1.1 2.8-1.8.1-.7-.7-1.1-.1-2.4.6-1.3 1.6-1.5 3.1-.9s2.3-.2 1.7-1.4c-.5-1.2.4-.8 1.3-1.1.9-.4-.4-.6-.8-1.5s.3-.7 1.3-.9c1-.2.5-1.1.2-1.3-.3-.3-1.2 1.1-2.5.8-1.2-.3-.7-1.1.1-1.6.8-.5 1.3-.1 1.7-.8.5-.7-.1-1.2 1.5-.7s.6.9.3 1.6c-.3.8.3 2 .2 3.8-.1 1.8-.5 1.2.6.9 1.2-.3 1.7.1 2.6-.3.9-.4 1.6-.5 2.8-1.8 1.2-1.3-1.6-.9-1.7-2-.1-1 1.3-1.1 1.9-1.9.6-.8 1.1-.3 2.8-.7 1.7-.5 2-1.8 2.2-1 .2.9 0 3.8-.1 4-.1.2-.5.3-.9.9-.4.6.3.6.3 1 0 .3-.1.5-.3.5-.4 0-.8.2-1.1.3-.4.1-.5.6-.8 1-.3.3-.5 0-1.3-.1s-.9-.1-1.4.4c-.4.6.4.4 1 .6.6.2.6.1 1.4.5.8.4 1.2.4 1.9.4s.5-1 1.3-1.2c-.4 6.2-3.3 13.3-3.3 13.3s-.6-.4-.8-1.1c-.3-.8.3-.7.5-1.4s-.8-.6-1.3-.6c-.5-.1 0 .6-.1 1.2-.1.7-.3.7-.9.9-.6.2-.3-.4-.3-1.1 0-.7 0-.7-.3-1.5-.3-.9.1-.4.3-1.1.2-.8-.4-1-.9-1.8s-.5-.8-.7-1.7c-.3-.9-.5.3-.6.5-.1.2.1.5.1 1.5 0 .9.5.9.9 1.5s0 .5 0 .5-.2-.4-.5-.2c-.3.1 0 .3-.1.4 0 .1-.4.3-.7.4-.3.1-.3.3-.7.5-.4.2-.3-.3-.6-.7-.3-.4 0-.4.3-.3.2.1.6.2.9.3.2.1.1-.3.3-.9.1-.6-.1-.3-.4-1-.2-.7-.5-.8-.5-1.8-.1-1-1.1-.4-2.4-1.1-1.3-.7-.7-.1-1.5 0s-1.4-.1-1.9.2c-.5.3-1.1 1.1-2.3.9-1.1-.1.5.9 2 1.2 1.5.3 2.8 1.2 3.7 2.1.9.9.3 1.5.3 2.2 0 .8 1.2 2.1 2.1 2.6.9.5 1.2-.6 2-.1s.8 1.9 2.4 2.6c-5.2 11.8-13.8 17.9-16.8 19.8-2.9 1.5-2.3 1.1-2.5-.5z"/></svg>