<svg xmlns="http://www.w3.org/2000/svg" width="211.4" height="211.4" viewBox="0 0 211.4 211.4"><path fill="#FFF" d="M134.6 104.9c-.1-10.6-5.9-19.7-14.5-24.7L105.9 0h-2.7L90.7 80.6c-8.4 5.1-14 14.4-13.9 25v1c.1 10.6 5.9 19.7 14.4 24.7l14.3 80.3h2.7l12.5-80.6c8.4-5.1 14-14.4 13.9-25v-1.1z"/><path fill="#FFF" d="M104.9 76.8c-10.6.1-19.7 5.9-24.7 14.5L0 105.6v2.7l80.6 12.5c5.2 8.4 14.4 14 25 13.9h1c10.6-.1 19.7-5.9 24.7-14.4l80.3-14.3v-2.7L131 90.8c-5.1-8.4-14.4-14-25-13.9h-.5c-.3-.1-.4-.1-.6-.1z"/><path fill="#FFF" d="M120.2 119.4c5.1-5.2 6.7-12.5 5-19.1l32.2-46.2-1.3-1.3L110.7 86c-6.6-1.6-13.9.2-19 5.4-.1.1-.1.2-.2.3-.1.1-.2.1-.2.2-5.1 5.2-6.7 12.5-5 19.1L54 157.3l1.3 1.3 45.4-33.2c6.6 1.6 13.9-.2 19-5.4.1-.1.1-.2.2-.2.2-.2.3-.3.3-.4z"/><path fill="#FFF" d="M119.4 91.2c-5.2-5.1-12.5-6.7-19.1-5L54.2 54l-1.3 1.3 33.2 45.4c-1.6 6.6.2 13.9 5.4 19 .1.1.2.1.3.2.1.1.1.2.2.3 5.2 5.1 12.5 6.7 19.1 5l46.2 32.2 1.3-1.3-33.2-45.4c1.6-6.6-.2-13.9-5.4-19-.1-.1-.2-.1-.2-.2-.2-.1-.3-.2-.4-.3z"/><path fill="#00A78E" d="M105.7 116.3c-6.4 0-11.7-5.2-11.7-11.7 0-6.4 5.2-11.7 11.7-11.7 6.4 0 11.7 5.2 11.7 11.7 0 6.4-5.2 11.7-11.7 11.7zm0-20.3c-4.7 0-8.5 3.8-8.5 8.5s3.8 8.5 8.5 8.5 8.5-3.8 8.5-8.5c.1-4.6-3.8-8.5-8.5-8.5z"/><path fill="#00A78E" d="M105.7 140.1c-19.6 0-35.5-15.9-35.5-35.6C70.2 85 86.1 69 105.7 69s35.6 15.9 35.6 35.6c0 19.6-16 35.5-35.6 35.5zm0-61.5c-14.3 0-26 11.7-26 26s11.7 26 26 26 26-11.7 26-26c0-14.4-11.6-26-26-26z"/></svg>