<svg xmlns="http://www.w3.org/2000/svg" width="945.3" height="73.1" viewBox="0 0 945.3 73.1"><path fill="#00A78E" d="M931 38.4c.3-.2.7-.2.9.1l.1.1c.2.3.1.7-.2.9l-13.1 9.4c-.3.2-.7.2-.9-.1v-.1c-.2-.3-.1-.7.2-.9l13-9.4z"/><path fill="#61DEC7" d="M911.4 42.9c0 5.2-4.3 9.5-9.6 9.5s-9.6-4.3-9.6-9.5 4.3-9.5 9.6-9.5 9.6 4.3 9.6 9.5m33.9-7.2c0-5.5-4.5-10-10.2-10-5.6 0-10.2 4.5-10.2 10 0 2.6 1 5 2.7 6.8.6-.2 1.3-.3 2-.3 2.6 0 4.9 1.4 6.2 3.5 5.3-.3 9.5-4.7 9.5-10"/><path fill="#61DEC7" d="M935.7 48.7c0 3.4-2.8 6.1-6.2 6.1-3.4 0-6.2-2.7-6.2-6.1 0-3.4 2.8-6.1 6.2-6.1 3.5.1 6.2 2.8 6.2 6.1m-3.8-23.1c-1.8-6.1-7.5-10.5-14.2-10.5-8.2 0-14.8 6.6-14.8 14.6 0 1.1.1 2.2.4 3.2 5 .9 8.7 5.1 8.8 10.3 1.8.7 3.7 1.1 5.7 1.1 3.2 0 6.1-1 8.5-2.6-1.2-1.7-1.9-3.8-1.9-6-.1-4.8 3.1-8.8 7.5-10.1"/><path fill="#00A78E" d="M919 39.1c0-.8-.6-1.4-1.4-1.4h-.2c-.8 0-1.5.6-1.5 1.4v34h3.1v-34zm-1.2 14.2c.3.2.3.6 0 1l-.1.1c-.3.4-.7.5-1 .3l-12.2-8.6c-.3-.2-.3-.6 0-1l.1-.1c.3-.4.7-.5 1-.3l12.2 8.6z"/><path fill="#00A78E" d="M927.7 50.5c.2-.2.6-.1.8.1l.1.1c.2.3.2.6 0 .8l-9.6 8.4c-.2.2-.6.1-.8-.1l-.1-.1c-.2-.3-.2-.6 0-.8l9.6-8.4zM808 38.4c.3-.2.7-.2.9.1v.1c.2.3.1.7-.2.9l-13.1 9.4c-.3.2-.7.2-.9-.1l-.1-.1c-.2-.3-.1-.7.2-.9l13.2-9.4z"/><path fill="#61DEC7" d="M788.4 42.9c0 5.2-4.3 9.5-9.6 9.5s-9.6-4.3-9.6-9.5 4.3-9.5 9.6-9.5 9.6 4.3 9.6 9.5m33.9-7.2c0-5.5-4.6-10-10.2-10s-10.2 4.5-10.2 10c0 2.6 1 5 2.7 6.8.6-.2 1.3-.3 2-.3 2.6 0 4.9 1.4 6.2 3.5 5.3-.3 9.5-4.7 9.5-10"/><path fill="#61DEC7" d="M812.8 48.7c0 3.4-2.8 6.1-6.2 6.1-3.4 0-6.2-2.7-6.2-6.1 0-3.4 2.8-6.1 6.2-6.1 3.4.1 6.2 2.8 6.2 6.1m-3.9-23.1c-1.8-6.1-7.5-10.5-14.2-10.5-8.2 0-14.8 6.6-14.8 14.6 0 1.1.1 2.2.4 3.2 5 .9 8.7 5.1 8.8 10.3 1.8.7 3.7 1.1 5.7 1.1 3.2 0 6.1-1 8.5-2.6-1.2-1.7-1.9-3.8-1.9-6-.1-4.8 3.1-8.8 7.5-10.1"/><path fill="#00A78E" d="M796 39.1c0-.8-.6-1.4-1.5-1.4h-.2c-.8 0-1.4.6-1.4 1.4v34h3.1v-34zm-1.2 14.2c.3.2.3.6 0 1l-.1.1c-.3.4-.7.5-1 .3l-12.2-8.6c-.3-.2-.3-.6 0-1l.1-.1c.3-.4.7-.5 1-.3l12.2 8.6z"/><path fill="#00A78E" d="M804.7 50.5c.2-.2.6-.1.8.1l.1.1c.2.3.2.6 0 .8l-9.6 8.4c-.2.2-.6.1-.8-.1l-.1-.1c-.2-.3-.2-.6 0-.8l9.6-8.4zM588.5 37.8c.3-.2.7-.2.9.1l.1.1c.2.3.1.7-.2.9l-13.1 9.4c-.3.2-.7.2-.9-.1v-.1c-.2-.3-.1-.7.2-.9l13-9.4z"/><path fill="#61DEC7" d="M568.9 42.4c0 5.2-4.3 9.5-9.6 9.5s-9.6-4.3-9.6-9.5 4.3-9.5 9.6-9.5 9.6 4.2 9.6 9.5m33.9-7.2c0-5.5-4.5-10-10.2-10-5.6 0-10.2 4.5-10.2 10 0 2.6 1 5 2.7 6.8.6-.2 1.3-.3 2-.3 2.6 0 4.9 1.4 6.2 3.5 5.3-.4 9.5-4.7 9.5-10"/><path fill="#61DEC7" d="M593.2 48.2c0 3.4-2.8 6.1-6.2 6.1-3.4 0-6.2-2.7-6.2-6.1 0-3.4 2.8-6.1 6.2-6.1 3.5 0 6.2 2.7 6.2 6.1m-3.8-23.1c-1.8-6.1-7.5-10.5-14.2-10.5-8.2 0-14.8 6.6-14.8 14.6 0 1.1.1 2.2.4 3.2 5 .9 8.7 5.1 8.8 10.3 1.8.7 3.7 1.1 5.7 1.1 3.2 0 6.1-1 8.5-2.6-1.2-1.7-1.9-3.8-1.9-6-.1-4.8 3.1-8.9 7.5-10.1"/><path fill="#00A78E" d="M576.5 38.5c0-.8-.6-1.4-1.4-1.4h-.2c-.8 0-1.5.6-1.5 1.4v34h3.1v-34zm-1.2 14.3c.3.2.3.6 0 1l-.1.1c-.3.4-.7.5-1 .3L562 45.5c-.3-.2-.3-.6 0-1l.1-.1c.3-.4.7-.5 1-.3l12.2 8.7z"/><path fill="#00A78E" d="M585.2 50c.2-.2.6-.1.8.1l.1.1c.2.3.2.6 0 .8l-9.6 8.4c-.2.2-.6.1-.8-.1l-.1-.1c-.2-.3-.2-.6 0-.8l9.6-8.4zM431.6 37.8c.3-.2.7-.2.9.1l.1.1c.2.3.1.7-.2.9l-13.1 9.4c-.3.2-.7.2-.9-.1v-.1c-.2-.3-.1-.7.2-.9l13-9.4z"/><path fill="#61DEC7" d="M412 42.4c0 5.2-4.3 9.5-9.6 9.5s-9.6-4.3-9.6-9.5 4.3-9.5 9.6-9.5 9.6 4.2 9.6 9.5m33.9-7.2c0-5.5-4.6-10-10.2-10s-10.2 4.5-10.2 10c0 2.6 1 5 2.7 6.8.6-.2 1.3-.3 2-.3 2.6 0 4.9 1.4 6.2 3.5 5.3-.4 9.5-4.7 9.5-10"/><path fill="#61DEC7" d="M436.3 48.2c0 3.4-2.8 6.1-6.2 6.1-3.4 0-6.2-2.7-6.2-6.1 0-3.4 2.8-6.1 6.2-6.1 3.5 0 6.2 2.7 6.2 6.1m-3.8-23.1c-1.8-6.1-7.5-10.5-14.2-10.5-8.2 0-14.8 6.6-14.8 14.6 0 1.1.1 2.2.4 3.2 5 .9 8.7 5.1 8.8 10.3 1.8.7 3.7 1.1 5.7 1.1 3.2 0 6.1-1 8.5-2.6-1.2-1.7-1.9-3.8-1.9-6-.1-4.8 3.1-8.9 7.5-10.1"/><path fill="#00A78E" d="M419.6 38.5c0-.8-.6-1.4-1.4-1.4h-.2c-.8 0-1.5.6-1.5 1.4v34h3.1v-34zm-1.2 14.3c.3.2.3.6 0 1l-.1.1c-.3.4-.7.5-1 .3l-12.2-8.6c-.3-.2-.3-.6 0-1l.1-.1c.3-.4.7-.5 1-.3l12.2 8.6z"/><path fill="#00A78E" d="M428.3 50c.2-.2.6-.1.8.1l.1.1c.2.3.2.6 0 .8l-9.6 8.4c-.2.2-.6.1-.8-.1l-.1-.1c-.2-.3-.2-.6 0-.8l9.6-8.4zm-106 16.4v6.2h3.8v-6.4l4.5-8.8-5.9 3.8V58h-2.2v3.8l-8.1-5.8"/><path fill="#61DEC7" d="M340.9 36.8c0-.1.1-.1.1-.2 1.1-2.2-1-5.5-4.8-7.4-2.2-1.1-4.4-1.4-6.1-1.1-.4-2.3-3.8-3.9-7.6-3.6-3.3.3-6 1.8-6.7 3.7-1.5-.6-3.4-.5-5.4.2-3.3 1.3-5.3 4.1-4.4 6.5l.3.6c-2 .3-3.8 1.6-4.8 3.7-1.6 3.2-.5 6.9 2.4 8.2.5.2 1 .4 1.5.5-.8 2-.4 4.4 1.2 6.1 2.2 2.4 5.9 2.6 8.3.4l.7-.7c1 2.5 5.9 4.1 11.7 3.6 5.2-.4 9.4-2.3 10.7-4.6 1.9-.1 3.9-.8 5.4-2.2 3.4-3.1 3.5-8.4.3-11.8-1-.8-1.9-1.4-2.8-1.9m-62.6-11.3c.1-.1.1-.2.2-.3 1.5-2.9-1.4-7.3-6.4-9.7-2.9-1.4-5.8-1.9-8.1-1.4-.6-3.1-4.9-5.2-10.1-4.8-4.3.3-7.9 2.4-8.9 4.9-2-.7-4.5-.7-7.1.2-4.4 1.7-7 5.5-5.8 8.5.1.3.2.5.4.7-2.6.4-5 2.2-6.3 4.8-2.1 4.2-.6 9 3.2 10.8.6.3 1.3.5 2 .6-1 2.6-.5 5.8 1.6 8 2.9 3.1 7.8 3.4 10.9.5.3-.3.6-.6.9-1 1.3 3.3 7.8 5.4 15.4 4.8 6.8-.5 12.4-3 14-6 2.6-.1 5.1-1 7.1-2.8 4.5-4.1 4.6-11.1.4-15.6-1-.8-2.1-1.6-3.4-2.2"/><path fill="#00A78E" d="M253.9 64.5v8.1h5v-8.4l5.9-11.6-7.7 5v-4.2h-3v5l-10.6-7.6"/><path fill="#61DEC7" d="M101.4 13.4c.3-.6.5-1.3.5-2.1 0-2.5-2-4.4-4.5-4.4-1 0-1.9.3-2.6.8-.5-2.2-2.5-3.9-4.9-3.9-1.4 0-2.7.6-3.6 1.5-.7-3-3.5-5.2-6.7-5.2-3.8 0-6.9 3.1-6.9 6.8 0 1.5.5 2.8 1.3 3.9-2.5.9-4.2 3.2-4.2 5.9 0 3.4 2.8 6.2 6.3 6.2v.4c0 2.4 2 4.3 4.4 4.3h.4c.9 2.5 3.4 4.4 6.2 4.4 2.4 0 4.5-1.3 5.7-3.2.5.2 1 .3 1.6.3 1.9 0 3.5-1.2 4.1-2.8 3.8 0 6.8-3 6.8-6.8 0-2.7-1.6-5.1-3.9-6.1"/><path fill="#61DEC7" d="M121.8 16.5c.3-.6.5-1.3.5-2.1 0-2.5-2-4.4-4.5-4.4-1 0-1.9.3-2.6.8-.5-2.2-2.5-3.9-4.9-3.9-1.4 0-2.7.6-3.6 1.5-.7-3-3.5-5.2-6.7-5.2-3.8 0-6.9 3.1-6.9 6.8 0 1.5.5 2.8 1.3 3.9-2.5.9-4.2 3.2-4.2 5.9 0 3.4 2.8 6.2 6.3 6.2v.4c0 2.4 2 4.3 4.4 4.3h.4c.9 2.5 3.4 4.4 6.2 4.4 2.4 0 4.5-1.3 5.7-3.2.5.2 1 .3 1.6.3 1.9 0 3.5-1.2 4.1-2.8 3.8 0 6.8-3 6.8-6.8 0-2.6-1.6-5-3.9-6.1"/><path fill="#61DEC7" d="M124.6 26.7c.3-.6.5-1.3.5-2.1 0-2.5-2-4.5-4.5-4.5-1 0-1.8.3-2.6.8-.5-2.2-2.5-3.9-4.9-3.9-1.4 0-2.7.6-3.6 1.5-.7-3-3.5-5.2-6.7-5.2-3.8 0-6.9 3.1-6.9 6.8 0 1.5.5 2.8 1.3 3.9-2.5.8-4.2 3.2-4.2 5.9 0 3.4 2.8 6.2 6.3 6.2v.4c0 2.4 2 4.3 4.4 4.3h.4c.9 2.5 3.4 4.4 6.2 4.4 2.4 0 4.5-1.3 5.7-3.2.5.2 1 .3 1.6.3 1.9 0 3.5-1.2 4.1-2.8 3.8 0 6.8-3 6.8-6.8 0-2.6-1.6-4.9-3.9-6"/><path fill="#61DEC7" d="M102.5 26.7c.3-.6.5-1.3.5-2.1 0-2.5-2-4.5-4.5-4.5-1 0-1.9.3-2.6.8-.5-2.2-2.5-3.9-4.9-3.9-1.4 0-2.7.6-3.6 1.5-.7-3-3.5-5.2-6.7-5.2-3.8 0-6.9 3.1-6.9 6.8 0 1.5.5 2.8 1.3 3.9-2.5.8-4.2 3.2-4.2 5.9 0 3.4 2.8 6.2 6.3 6.2v.4c0 2.4 2 4.3 4.4 4.3h.4c.9 2.5 3.4 4.4 6.2 4.4 2.4 0 4.5-1.3 5.7-3.2.5.2 1 .3 1.6.3 1.9 0 3.5-1.2 4.1-2.8 3.8 0 6.8-3 6.8-6.8 0-2.6-1.6-4.9-3.9-6"/><path fill="#00A78E" d="M88.6 38.5s10.1 15.9 8.9 33.4h6s-1-32.9 8.3-42.6c0 0-10.7 6.5-11.6 23.3L90.9 38l-2.3.5zm-60 25.6v8.1h5v-8.4l5.9-11.6-7.7 5V53h-3v5l-10.6-7.6"/><path fill="#61DEC7" d="M53 25.1c.1-.1.1-.2.2-.3 1.5-2.9-1.4-7.3-6.4-9.7-2.9-1.4-5.8-1.9-8.1-1.4-.6-3.1-4.9-5.2-10.1-4.8-4.3.3-7.9 2.4-8.9 4.9-2-.7-4.5-.7-7.1.2-4.4 1.7-7 5.5-5.8 8.5.2.3.3.5.5.8-2.6.4-5 2.2-6.3 4.8-2.1 4.2-.6 9 3.2 10.8.6.3 1.3.5 2 .6-1 2.6-.5 5.8 1.6 8 2.9 3.1 7.8 3.4 10.9.5.3-.3.6-.6.9-1 1.3 3.3 7.8 5.4 15.4 4.8 6.8-.5 12.4-3 14-6 2.6-.1 5.1-1 7.1-2.8 4.5-4.1 4.6-11.1.4-15.6-1.1-.9-2.2-1.7-3.5-2.3"/></svg>