<svg xmlns="http://www.w3.org/2000/svg" width="93" height="105.7" viewBox="0 0 93 105.7"><path fill="#FFF" d="M5.9 9.4h81v75h-81z"/><path fill="#FFF" stroke="#00A78E" stroke-width="2" stroke-miterlimit="10" d="M75.6 76.9H16.9V18.2h58.7zm-29.3 0V18.2"/><path fill="#FFF" d="M25.3 0h42v7.5h-42zm0 105.4c-3.5 0-6.4-2.9-6.4-6.4v-6.7c0-3.5 2.9-6.4 6.4-6.4 3.5 0 6.4 2.9 6.4 6.4V99c-.1 3.5-2.9 6.4-6.4 6.4zm42 .3c-3.5 0-6.4-2.9-6.4-6.4v-6.7c0-3.5 2.9-6.4 6.4-6.4 3.5 0 6.4 2.9 6.4 6.4v6.7c-.1 3.6-2.9 6.4-6.4 6.4z"/><path fill="#FFF" d="M4.9 84.6h83v8.5h-83z"/><path fill="#00A78E" d="M86.9 85.6v6.5h-81v-6.5h81m2-2h-85v10.5h85V83.6zM3.6 74.1h5c2 0 3.6 1.6 3.6 3.6s-1.6 3.6-3.6 3.6h-5c-2 0-3.6-1.6-3.6-3.6 0-1.9 1.6-3.6 3.6-3.6zm80.8 0h5c2 0 3.6 1.6 3.6 3.6s-1.6 3.6-3.6 3.6h-5c-2 0-3.6-1.6-3.6-3.6 0-1.9 1.6-3.6 3.6-3.6z"/></svg>