<svg xmlns="http://www.w3.org/2000/svg" width="474.5" height="90.5" viewBox="0 0 474.5 90.5"><path fill="#00A78E" d="M16.6 90.5H1.9V71.2c0-3.2 3.3-5.8 7.4-5.8 4.1 0 7.3 2.6 7.3 5.8v19.3zM0 34.3h18.5V58H0zM0 0h18.5v23.7H0zm58.3 90.5H43.6V71.2c0-3.2 3.3-5.8 7.4-5.8 4.1 0 7.3 2.6 7.3 5.8v19.3zM41.6 34.3h18.5V58H41.6zm0-34.3h18.5v23.7H41.6zm58.3 90.5H85.2V71.2c0-3.2 3.3-5.8 7.4-5.8 4.1 0 7.3 2.6 7.3 5.8v19.3zM83.3 34.3h18.5V58H83.3zm0-34.3h18.5v23.7H83.3zm58.2 90.5h-14.7V71.2c0-3.2 3.3-5.8 7.4-5.8 4 0 7.3 2.6 7.3 5.8v19.3zm-16.6-56.2h18.5V58h-18.5zm0-34.3h18.5v23.7h-18.5zm58.3 90.5h-14.7V71.2c0-3.2 3.3-5.8 7.4-5.8 4 0 7.3 2.6 7.3 5.8v19.3zm-16.6-56.2h18.5V58h-18.5zm0-34.3h18.5v23.7h-18.5zm27.6 34.3h17.9v31.2h-17.9zm0-34.3h17.9v19.1h-17.9zm34.1 34.3h17.9v31.2h-17.9zm0-34.3h17.9v19.1h-17.9zm34.1 34.3h17.9v31.2h-17.9zm0-34.3h17.9v19.1h-17.9zM306 90.5h-14.7V71.2c0-3.2 3.3-5.8 7.3-5.8s7.3 2.6 7.3 5.8v19.3zm-16.6-56.2h18.5V58h-18.5zm0-34.3h18.5v23.7h-18.5zm58.2 90.5H333V71.2c0-3.2 3.3-5.8 7.3-5.8s7.3 2.6 7.3 5.8v19.3zM331 34.3h18.5V58H331zM331 0h18.5v23.7H331zm58.3 90.5h-14.7V71.2c0-3.2 3.3-5.8 7.3-5.8 4.1 0 7.4 2.6 7.4 5.8v19.3zm-16.6-56.2h18.5V58h-18.5zm0-34.3h18.5v23.7h-18.5zm58.2 90.5h-14.7V71.2c0-3.2 3.3-5.8 7.4-5.8 4 0 7.3 2.6 7.3 5.8v19.3zm-16.6-56.2h18.5V58h-18.5zm0-34.3h18.5v23.7h-18.5zm58.3 90.5h-14.7V71.2c0-3.2 3.3-5.8 7.4-5.8 4.1 0 7.3 2.6 7.3 5.8v19.3zm-16.7-56.2h18.5V58h-18.5zm0-34.3h18.5v23.7h-18.5z"/></svg>