<svg xmlns="http://www.w3.org/2000/svg" width="355.7" height="374.5" viewBox="0 0 355.7 374.5"><path fill="#00AB9E" d="M1.8 0h38.4v37.4H1.8zm43.1 0h38.4v37.4H44.9zM2.4 41h38.4v37.4H2.4zm42.5 0h38.4v37.4H44.9zM274.3 0h38.4v37.4h-38.4zm43 0h38.4v37.4h-38.4zm-42.5 41h38.4v37.4h-38.4zm42.5 0h38.4v37.4h-38.4zM0 173.8h38.4v37.4H0zm43 0h38.4v37.4H43zM.5 214.9h38.4v37.4H.5zm42.5 0h38.4v37.4H43zm231.3-41.1h38.4v37.4h-38.4zm43 0h38.4v37.4h-38.4zm-42.5 41.1h38.4v37.4h-38.4zm42.5 0h38.4v37.4h-38.4z"/><path fill="#29BAB2" d="M121.9 160.8h113.3v213.7H121.9z"/><path fill="#00ADA1" d="M220.7 270.2c0 6.4-3.6 11.5-8.1 11.5s-8.1-5.2-8.1-11.5c0-6.4 3.6-11.5 8.1-11.5s8.1 5.2 8.1 11.5"/></svg>