<svg xmlns="http://www.w3.org/2000/svg" width="28.3" height="27" viewBox="0 0 28.3 27"><path fill="#00A78E" d="M17.4 5c1.3-.8 1.6-2.5.7-3.8-.9-1.2-2.6-1.6-3.8-.7-1.3.8-1.6 2.5-.8 3.7.9 1.3 2.6 1.6 3.9.8m5.2 5.3l-3.8-.2-1.9-2.2c-.1-.7-.7-1.3-1.4-1.6l-1.6-.5c-1.1-.4-2.3.1-2.6 1.1l-2.7 7.7c-.3 1 .3 2.1 1.4 2.4l1.1.4 2.8 1.2-1.9 4.5c-.3.8.1 1.7.9 2 .2.1.4.1.6.1.6 0 1.2-.4 1.4-1l2.4-5.9c.3-.8-.1-1.6-.8-2l-2-.8 1.6-4.5 1.1 1.2c.2.3.6.5 1 .5l4.4.2h.1c.7 0 1.3-.6 1.4-1.3-.2-.6-.8-1.2-1.5-1.3"/><path fill="#00A78E" d="M5.2 25.6c-2.4 0-4.3-1.9-4.3-4.2 0-2.3 1.9-4.2 4.3-4.2s4.3 1.9 4.3 4.2c0 2.3-1.9 4.2-4.3 4.2m0-9.4c-2.9 0-5.2 2.3-5.2 5.2 0 2.9 2.4 5.2 5.2 5.2 2.9 0 5.2-2.3 5.2-5.2.1-2.8-2.3-5.2-5.2-5.2M23.1 26c-2.4 0-4.3-1.9-4.3-4.2 0-2.3 1.9-4.2 4.3-4.2s4.3 1.9 4.3 4.2c-.1 2.3-2 4.2-4.3 4.2m0-9.4c-2.9 0-5.2 2.3-5.2 5.2 0 2.9 2.4 5.2 5.2 5.2 2.9 0 5.2-2.3 5.2-5.2 0-2.9-2.3-5.2-5.2-5.2"/></svg>