<svg xmlns="http://www.w3.org/2000/svg" width="243" height="505.5" viewBox="0 0 243 505.5"><path fill="#55E1C8" d="M11.1 472.3h12.3v33.1H11.1z"/><path fill="#32CFB6" d="M0 443.1h11.1v62.4H0zm27.3 26h3.9v36.3h-3.9z"/><path fill="#00BBA2" d="M23.4 469.1h3.9v36.3h-3.9z"/><path fill="#32CFB6" d="M171.8 381.2h9.6v44.9h-9.6z"/><path fill="#55E1C8" d="M162.2 396.4h9.6V426h-9.6z"/><path fill="#32CFB6" d="M78.4 385.9h3.7v40.2h-3.7z"/><path fill="#55E1C8" d="M82.1 385.9h3.7v40.2h-3.7z"/><path fill="#32CFB6" d="M96.3 387.9h12.2V426H96.3z"/><path fill="#55E1C8" d="M125.8 392.7H138V426h-12.2z"/><path fill="#00BBA2" d="M108.6 354.4h11v71.7h-11z"/><path fill="#32CFB6" d="M176.168 360.408l6.337 4.012-38.36 60.58-6.336-4.013zM119.6 384.3h3.9V426h-3.9zm65-108.4h15.6v60.7h-15.6z"/><path fill="#00BBA2" d="M166.9 281.7h10v54.9h-10z"/><path fill="#32CFB6" d="M146.9 292.5h10v44.1h-10z"/><path fill="#55E1C8" d="M156.9 264.6h10v71.9h-10zm62.7 33.7h12.3v38.3h-12.3z"/><path fill="#32CFB6" d="M231.9 264.6H243v72.1h-11.1zm-27.8 30.1h3.9v41.9h-3.9z"/><path fill="#00BBA2" d="M208 294.7h3.9v41.9H208z"/><path fill="#32CFB6" d="M211.9 294.7h3.9v41.9h-3.9z"/><path fill="#00BBA2" d="M215.8 294.7h3.9v41.9h-3.9z"/><path fill="#32CFB6" d="M176.9 294.7h3.9v41.9h-3.9z"/><path fill="#00BBA2" d="M180.7 294.7h3.9v41.9h-3.9z"/><path fill="#55E1C8" d="M200.2 294.7h3.9v41.9h-3.9zM0 193.9h9.8v53.7H0z"/><path fill="#00BBA2" d="M9.8 186.7h9.8v60.8H9.8z"/><path fill="#32CFB6" d="M19.5 198.1h9.8v49.4h-9.8z"/><path fill="#00BBA2" d="M29.4 189.2h9.8v58.4h-9.8z"/><path fill="#55E1C8" d="M39.1 184.4h9.8v63.1h-9.8z"/><path fill="#32CFB6" d="M48.9 193.9h9.8v53.7h-9.8zM172.8 118h3.7v40.2h-3.7z"/><path fill="#00BBA2" d="M176.5 118h3.7v40.2h-3.7z"/><path fill="#32CFB6" d="M180.3 118h3.7v40.2h-3.7z"/><path fill="#00BBA2" d="M184 118h3.7v40.2H184z"/><path fill="#55E1C8" d="M169.1 118h3.7v40.2h-3.7z"/><path fill="#32CFB6" d="M156.8 120.2H169v38.1h-12.2z"/><path fill="#00BBA2" d="M145.8 86.7h11v71.7h-11z"/><path fill="#55E1C8" d="M69.9 32.4h11.8v36.8H69.9z"/><path fill="#32CFB6" d="M81.7 0h10.7v69.3H81.7zM63.8 3.3h6.1v66.2h-6.1z"/></svg>