<svg xmlns="http://www.w3.org/2000/svg" width="257.4" height="376.1" viewBox="0 0 257.4 376.1"><path fill="#00BBA2" d="M220.2 72.8H34.8c-6.6 0-12-5.4-12-12V12c0-6.6 5.4-12 12-12h185.5c6.6 0 12 5.4 12 12v48.8c-.1 6.6-5.5 12-12.1 12zm.9 78.3H35.6c-6.6 0-12-5.4-12-12V90.3c0-6.6 5.4-12 12-12h185.5c6.6 0 12 5.4 12 12v48.8c0 6.6-5.4 12-12 12zm0 78.3H35.6c-6.6 0-12-5.4-12-12v-48.8c0-6.6 5.4-12 12-12h185.5c6.6 0 12 5.4 12 12v48.8c0 6.6-5.4 12-12 12zM0 235.4h256.7v15.2H0z"/><path fill="#00BBA2" d="M0 145.5h15.2v104.1H0zm242.2 0h15.2v104.1h-15.2zM91.7 235.4h71.7v30.5H91.7z"/><path fill="none" stroke="#00BBA2" stroke-width="16" stroke-miterlimit="10" d="M127.5 250.6s-3.1 50.3-50.3 50.3S22 356.1 22 356.1m106.4-103.6s3.1 50.3 50.3 50.3 55.2 55.2 55.2 55.2"/><path fill="none" stroke="#00BBA2" stroke-width="16" stroke-miterlimit="10" d="M132.4 243s-24.8 28.5 1.3 54.3c26.1 25.8 1.5 59.6 1.5 59.6"/><path fill="#00BBA2" d="M22 369c-9.2 0-16.7-7.5-16.7-16.7s7.5-16.7 16.7-16.7 16.7 7.5 16.7 16.7S31.2 369 22 369z"/><path fill="#00A78E" d="M22 338.1c7.8 0 14.2 6.4 14.2 14.2 0 7.8-6.4 14.2-14.2 14.2s-14.2-6.4-14.2-14.2c0-7.8 6.4-14.2 14.2-14.2m0-5c-10.6 0-19.2 8.6-19.2 19.2s8.6 19.2 19.2 19.2 19.2-8.6 19.2-19.2-8.6-19.2-19.2-19.2z"/><path fill="#00BBA2" d="M138.7 364.8c-9.2 0-16.7-7.5-16.7-16.7s7.5-16.7 16.7-16.7 16.7 7.5 16.7 16.7-7.5 16.7-16.7 16.7z"/><path fill="#00A78E" d="M138.7 333.9c7.8 0 14.2 6.4 14.2 14.2 0 7.8-6.4 14.2-14.2 14.2-7.8 0-14.2-6.4-14.2-14.2 0-7.8 6.4-14.2 14.2-14.2m0-5c-10.6 0-19.2 8.6-19.2 19.2s8.6 19.2 19.2 19.2 19.2-8.6 19.2-19.2-8.6-19.2-19.2-19.2z"/><path fill="#00BBA2" d="M233.9 373.6c-9.2 0-16.7-7.5-16.7-16.7s7.5-16.7 16.7-16.7 16.7 7.5 16.7 16.7-7.5 16.7-16.7 16.7z"/><path fill="#00A78E" d="M233.9 342.7c7.8 0 14.2 6.4 14.2 14.2 0 7.8-6.4 14.2-14.2 14.2s-14.2-6.4-14.2-14.2c0-7.9 6.3-14.2 14.2-14.2m0-5c-10.6 0-19.2 8.6-19.2 19.2s8.6 19.2 19.2 19.2 19.2-8.6 19.2-19.2c-.1-10.6-8.7-19.2-19.2-19.2z"/></svg>