<svg xmlns="http://www.w3.org/2000/svg" width="443" height="163.9" viewBox="0 0 443 163.9"><path fill="#32CFB6" d="M0 109.5h14.7v53.6H0z"/><path fill="#55E1C8" d="M28.1 117.3h14.7v45.9H28.1z"/><path fill="#00BBA2" d="M14.7 76.8H28v86.5H14.7z"/><path fill="#32CFB6" d="M42.8 76.8h13.3v86.5H42.8z"/><path fill="#00BBA2" d="M56.107 91.995l4.054-1.71 30.1 71.308-4.05 1.71z"/><path fill="#32CFB6" d="M104.2 106.5h-.1c-.5.1-1-.2-1.1-.8l-1-5.2c-.1-.5.2-1 .8-1.1h.1c.5-.1 1 .2 1.1.8l1 5.2c0 .5-.3 1-.8 1.1z"/><path fill="none" stroke="#55E1C8" stroke-width=".75" stroke-miterlimit="10" d="M103.9 104.3s.3.2.7.6c.4.4 1 1 1.6 1.8.3.4.6.9.9 1.4.3.5.6 1 .8 1.6.2.6.5 1.2.7 1.8.2.6.3 1.3.5 1.9.1.6.2 1.3.3 1.9.1.6.1 1.3.1 1.9 0 .6 0 1.2-.1 1.8 0 .6-.1 1.1-.2 1.6-.1 1-.4 1.8-.6 2.3l-.3.9h-.2v-.9c0-.5 0-1.3-.1-2.3 0-.5 0-1-.1-1.5s-.1-1.1-.2-1.7l-.3-1.8c-.1-.6-.2-1.2-.4-1.8-.1-.6-.3-1.2-.4-1.8-.2-.6-.3-1.2-.5-1.7-.3-1.1-.7-2.1-1.1-3-.7-1.7-1.4-2.8-1.4-2.8l.3-.2z"/><path fill="#55E1C8" d="M111.8 135.9l-.3-1.8c-.1-.5-.2-1.1-.3-1.6l-5.6-29.4-4.1.8 5.4 28.1c.2 1 .4 2 .5 2.9.4 1.8.7 3.6 1.1 5.3.4 1.7.8 3.5 1.2 5.1.8 3.3 1.6 6.4 2.4 9 .8 2.6 1.5 4.8 2 6.3.3.8.5 1.3.6 1.8.2.4.2.6.2.6v-.7c0-.4 0-1.1-.1-1.9-.1-1.6-.2-3.9-.4-6.6-.3-2.7-.6-5.9-1.1-9.2-.2-1.7-.5-3.4-.8-5.2-.2-1-.3-2-.5-3l-.2-.5z"/><path fill="#32CFB6" d="M137 105.6c-.8-.4-1.2-1.4-.8-2.2l.5-1c.4-.8 1.4-1.2 2.2-.8.8.4 1.2 1.4.8 2.2l-.5 1c-.4.8-1.3 1.1-2.2.8z"/><path fill="#55E1C8" d="M135.952 104.01l2.995 1.386-22.6 48.823-2.996-1.39z"/><path fill="#32CFB6" d="M129.7 100.6c-.9-.2-1.5-1.1-1.3-2l.2-1.1c.2-.9 1.1-1.5 2-1.3.9.2 1.5 1.1 1.3 2l-.2 1.1c-.3.9-1.2 1.5-2 1.3z"/><path fill="#55E1C8" d="M128.288 99.27l3.224.703-11.476 52.563-3.224-.704z"/><path fill="none" stroke="#00BBA2" stroke-width=".25" stroke-miterlimit="10" d="M129.1 99.5l-7.5 36.4m8.8-36.1l-7.5 36.4m13.9-31.8l-15.5 33.8m16.8-33.1l-15.5 33.8"/><path fill="#32CFB6" d="M100.8 117.3l9.1 46.4h19l5.9-46.4"/><path d="M111.7 125.1c.1 0 .3 0 .4.1.1 0 .2.1.4.1h.2c.1 0 .1 0 .1-.1h.1v1h-.2c-.1-.3-.2-.5-.4-.6-.2-.1-.4-.2-.7-.2-.2 0-.4 0-.5.1-.1.1-.2.2-.3.4-.1.1-.1.3-.2.5v.5c0 .2 0 .4.1.5 0 .2.1.3.2.5s.2.3.3.4c.1.1.3.1.5.1h.4c.1 0 .2-.1.3-.2.1-.1.2-.2.2-.3.1-.1.1-.3.1-.4h.2v1.1h-.1v-.1l-.1-.1h-.2c-.1 0-.1.1-.2.1s-.1 0-.2.1h-.4c-.6 0-1-.1-1.3-.4-.3-.3-.4-.7-.4-1.2 0-.3 0-.5.1-.8.1-.2.2-.4.4-.5.2-.1.3-.3.5-.3.2-.3.5-.3.7-.3zm3.5 3.4c-.5 0-.9-.1-1.2-.4-.3-.3-.4-.7-.4-1.3 0-.2 0-.5.1-.7.1-.2.2-.4.3-.5.1-.1.3-.3.5-.3.2-.1.4-.1.7-.1.2 0 .5 0 .6.1.2.1.4.2.5.3.1.1.3.3.3.5.1.2.1.4.1.7 0 .3 0 .5-.1.7-.1.2-.2.4-.3.5-.1.1-.3.3-.5.3-.2.2-.4.2-.6.2zm0-.2c.2 0 .3 0 .4-.1l.3-.3c.1-.1.1-.3.2-.5 0-.2.1-.4.1-.6 0-.2 0-.4-.1-.6 0-.2-.1-.3-.2-.5-.1-.1-.2-.3-.3-.3-.1-.1-.3-.1-.5-.1s-.3 0-.5.1-.2.2-.3.3c-.1.1-.1.3-.2.5 0 .2-.1.4-.1.5v.6c0 .2.1.3.2.5l.3.3c.3.1.5.2.7.2zm3.6.2c-.2-.4-.4-.9-.5-1.3-.2-.4-.3-.9-.5-1.3 0-.1-.1-.2-.1-.2 0-.1-.1-.1-.1-.2 0 0-.1-.1-.2-.1s-.1 0-.3-.1v-.2h1.6v.2h-.3s-.1 0-.1.1v.1c0 .1.1.3.2.7.1.4.3.9.6 1.5l.4-1c0-.1.1-.1.1-.3 0-.1.1-.2.1-.3 0-.1.1-.2.1-.3v-.3s0-.1-.1-.1h-.3v-.2h1.2v.2h-.1c-.1 0-.2 0-.2.1-.1 0-.1.1-.2.2 0 .1-.1.1-.1.2s-.1.2-.1.3l-.8 2-.2.4v.1h-.1c.1-.2.1-.2 0-.2zm4.5-3.3c.1 0 .1 0 .1.1v.6h-.2c0-.1 0-.2-.1-.3 0-.1-.1-.1-.1-.2 0 0-.1-.1-.2-.1h-.9s0 .1-.1.1v1.1h.4c.1 0 .1 0 .2-.1l.1-.1v-.2h.2v1.1h-.2v-.2c0-.1 0-.1-.1-.1 0 0-.1-.1-.2-.1h-.4v1c0 .1 0 .1.1.2l.1.1s.1 0 .1.1h.8c.1 0 .1 0 .2-.1l.1-.1s.1-.1.1-.2 0-.1.1-.2h.2v.8h-2.7v-.2h.3c.1 0 .1 0 .1-.1l.1-.1v-2.4c0-.1 0-.1-.1-.1l-.1-.1h-.2v-.2h2.3zm1.3.8v-.4c0-.1 0-.1-.1-.1l-.1-.1h-.2v-.2h1.9c.1 0 .2.1.3.1.1.1.2.2.2.3.1.1.1.2.1.4 0 .1 0 .2-.1.3 0 .1-.1.2-.2.2l-.2.2c-.1 0-.2.1-.3.1.2.1.3.2.4.2.1.1.1.2.2.3 0 .1.1.2.1.3s0 .2.1.3c0 .1 0 .1.1.2l.1.1h.1l.1-.1v-.1h.1c0 .1 0 .1-.1.2 0 .1-.1.1-.1.1-.1 0-.1.1-.2.1h-.2c-.1 0-.2 0-.3-.1-.1 0-.1-.1-.2-.2 0-.1 0-.1-.1-.2 0-.1 0-.1-.1-.2v-.4c-.1-.2-.1-.4-.2-.4-.1-.1-.2-.1-.4-.1h-.1l-.1.1v1c0 .1.1.1.1.2 0 0 .1.1.2.1h.2v.2H124v-.2h.2c.1 0 .1 0 .1-.1l.1-.1v-2zm.5.6c0 .1 0 .1.1.1h.5c.1 0 .2-.1.2-.1.1-.1.1-.1.1-.2v-.6c0-.1-.1-.2-.1-.2 0-.1-.1-.1-.2-.1h-.5s-.1.1-.1.2v.9zm-6.6 23.9c-1.3 0-2.5-.2-3.5-.5-1.1-.3-2-.8-2.7-1.5-.7-.7-1.3-1.5-1.7-2.5-.4-1-.6-2.2-.6-3.6v-13.1h6.6v12.8c0 .7.1 1.3.4 1.7.3.4.8.6 1.5.6s1.2-.2 1.5-.6c.3-.4.4-.9.4-1.7v-12.8h6.6v13.1c0 1.4-.2 2.5-.6 3.6-.4 1-1 1.8-1.7 2.5-.8.7-1.7 1.2-2.7 1.5-1 .3-2.2.5-3.5.5zm0-3.7c-3.1 0-4.6-1.5-4.6-4.6v-10.4h-.8v10.4c0 1.7.5 3.1 1.4 4 .9.9 2.3 1.4 4 1.4 1.8 0 3.1-.5 4.1-1.4.9-.9 1.4-2.2 1.4-4v-10.4h-.8v10.4c0 3.1-1.6 4.6-4.7 4.6z" fill="#00A78E"/><path fill="#32CFB6" d="M431 139H205c-6.6 0-12-5.4-12-12V12c0-6.6 5.4-12 12-12h226c6.6 0 12 5.4 12 12v115c0 6.6-5.4 12-12 12z"/><path fill="#55E1C8" d="M350.8 163.9s-16-10.2-16-65.5h-33.6c0 55.4-16 65.5-16 65.5"/><path fill="none" stroke="#00A78E" stroke-width="2" stroke-miterlimit="10" d="M304 49v30.5m7-30.5v30.5m7-30.5v30.5m7-30.5v30.5m7-30.5v30.5"/></svg>