<svg xmlns="http://www.w3.org/2000/svg" width="171" height="381.7" viewBox="0 0 171 381.7"><path fill="#00BBA2" d="M154.9 381.7H16.1c-8.9 0-16.1-7.2-16.1-16.1V170.1c0-8.9 7.2-16.1 16.1-16.1h138.8c8.9 0 16.1 7.2 16.1 16.1v195.5c0 8.9-7.2 16.1-16.1 16.1z"/><path fill="#00BBA2" d="M0 260.6h171v121.2H0z"/><path fill="#FFF" d="M40.9 197.2c-3.2.2-6.3.5-9.5.6-3.2.2-6.3.4-9.5.5l1.2-1.2c.2 3.4.4 6.9.5 10.3l.4 10.3.3 10.3.3 10.3.2 10.3c0 3.4.1 6.9.1 10.3l.1 20.6c0 6.9 0 13.8-.1 20.6 0 3.4-.1 6.9-.1 10.3l-.3 10.6c0 3.4-.2 6.9-.3 10.3l-.2 10.3-.4 10.3c-.1 3.4-.3 6.9-.5 10.3l-1.2-1.2c3.2.1 6.3.3 9.5.5s6.3.4 9.5.6c-3.2.2-6.3.5-9.5.6-3.2.2-6.3.4-9.5.5h-1.1l-.1-1.2c-.2-3.4-.4-6.9-.5-10.3l-.4-10.3-.3-10.3-.3-10.3-.2-10.3c-.1-3.4-.1-6.9-.1-10.3-.1-6.9-.1-13.8-.1-20.6l.1-20.6c0-3.4.1-6.9.1-10.3l.2-10.3c0-3.4.2-6.9.3-10.3l.3-10.3.4-10.3c.1-3.4.3-6.9.5-10.3l.1-1.2h1.1c3.2.1 6.3.3 9.5.5 3.2.3 6.4.5 9.5.7z" opacity=".5"/><path fill="#55E1C8" d="M19.9 166.4h46.7v10.3H19.9z"/><path fill="#00BBA2" stroke="#00A78E" stroke-width="2" stroke-miterlimit="10" d="M78.5 103l5.7-13.5h56.7l7.8 13.6z"/><path fill="#00BBA2" stroke="#00A78E" stroke-width="2" stroke-linejoin="bevel" stroke-miterlimit="10" d="M101.9 103.1c-12.4 0-10.7-7.1-10.7-7.1 0 7.8-12.7 7.1-12.7 7.1s-31.6 48.4 35.1 48.4 35.1-48.3 35.1-48.3c-12.4 0-10.7-7.1-10.7-7.1 0 7.8-12.7 7.1-12.7 7.1"/><path fill="#00BBA2" stroke="#00A78E" stroke-width="2" stroke-linejoin="bevel" stroke-miterlimit="10" d="M101.9 103.1s12.7.7 12.7-7.1c0 0-1.6 7.1 10.7 7.1"/><path fill="#00A78E" d="M96.5 120.2l6.3-6.3s2.8 3.5 0 6.3"/><ellipse fill="#00A78E" cx="99.5" cy="123.4" rx="10.4" ry="4.8"/><path fill="#32CFB6" d="M110.2 123.4l6.3-6.2v13.3m-13.3-6.4l-6.2 6.4s-2.9-3.4-.1-6.3"/><circle fill="#55E1C8" cx="92.9" cy="122.3" r=".7"/><circle fill="#32CFB6" cx="94.4" cy="111.4" r="1.4"/><circle fill="#55E1C8" cx="90.9" cy="107.5" r="2.5"/><circle fill="#32CFB6" cx="89.7" cy="115.1" r="1.2"/><circle fill="#55E1C8" cx="92.7" cy="115.7" r=".6"/><circle fill="#32CFB6" cx="91.2" cy="118.6" r=".3"/><path fill="#00BBA2" d="M64.1 102.9H9.9l15.4 34.8-6.3 13.7h36l-6.3-13.7M25 7.7L9.9 101.8h54.2L43.8 7.7M25.4 7h18.2L42 0H26.6"/><circle fill="#55E1C8" cx="56.1" cy="96" r="3"/><circle fill="#55E1C8" cx="27.7" cy="88.4" r="11.9"/><circle fill="#32CFB6" cx="38.6" cy="85.9" r="11.9"/><circle fill="#55E1C8" cx="37.7" cy="61.3" r="6.8"/><circle fill="#32CFB6" cx="46.7" cy="68.2" r="3"/><circle fill="#55E1C8" cx="25.4" cy="42.3" r="3"/><ellipse fill="#55E1C8" cx="31.7" cy="16.2" rx="5.9" ry="5.6"/><circle fill="#32CFB6" cx="33.2" cy="27.1" r="7.4"/><circle fill="#32CFB6" cx="38.6" cy="36.6" r="8"/><circle fill="#32CFB6" cx="40" cy="30.2" r="6.8"/></svg>