<svg xmlns="http://www.w3.org/2000/svg" width="312" height="211.2" viewBox="0 0 312 211.2"><path fill="#32CFB6" d="M52.1 76c13.2 5.2 11.8 19.6 4.2 29.4-6.6 8.5-15.9 14.8-21 24.6-9.3 17.7 9.4 38 26.6 40.1 3.8.5 3.8-5.5 0-6-10.2-1.3-21.6-11.8-22.9-22.1-1.4-10.6 8.8-18.8 15.4-25.6 7.5-7.6 13.8-15.8 13.9-26.9.1-9.5-6.2-16-14.5-19.4-3.7-1.3-5.3 4.5-1.7 5.9z"/><path fill="#55E1C8" d="M64.6 177.5c-5.8 0-10.5-4.7-10.5-10.5s4.7-10.5 10.5-10.5 10.5 4.7 10.5 10.5c0 5.9-4.7 10.5-10.5 10.5z"/><path fill="#00A78E" d="M64.6 157.6c5.2 0 9.5 4.2 9.5 9.5s-4.2 9.5-9.5 9.5c-5.2 0-9.5-4.2-9.5-9.5s4.3-9.5 9.5-9.5m0-2c-6.3 0-11.5 5.1-11.5 11.5s5.1 11.5 11.5 11.5 11.5-5.1 11.5-11.5-5.2-11.5-11.5-11.5z"/><path fill="#32CFB6" d="M54.3 6l-2.7 4.3c7.5 4.7 11.9 10.9 13.3 18.5 2.9 16.9-10.1 36.1-13.6 40.9-5.8-.9-28-5-37.7-18.7-4.4-6.3-5.7-13.9-3.6-22.5l-5-1.2c-2.3 10.1-.9 19.1 4.5 26.6C22 71.5 51 74.7 52.2 74.9l1.4.1.9-1.1c.8-1 19.2-24.4 15.5-46-1.7-9-6.9-16.4-15.7-21.9z"/><circle fill="#55E1C8" cx="6.9" cy="29.8" r="6.9"/><circle fill="#55E1C8" cx="49.7" cy="6.9" r="6.9"/><path fill="#32CFB6" d="M122.6 44.5h5.8v86.9h-5.8zm26.2-9s0-.1 0 0zm-7.8-8.6V44c.3-.1.6-.2.9-.4V27.3c-.3-.1-.6-.3-.9-.4zm12.9 7.8h-.9c-1.5 0-3.4-.2-5.1-1.6v4.7c1.8-1.4 3.7-1.6 5.2-1.6h1.4v-1.7c-.2.2-.4.2-.6.2zm-5.1.8c0-.1 0 0 0 0zm-2.7-4.2v8.3c.3-.4.6-.8.9-1.1v-6.1c-.3-.3-.6-.7-.9-1.1zm-1.7-2.1v12.6c.3-.3.6-.7.9-1.1V30.2c-.3-.4-.6-.7-.9-1zm-6.1-2.8h-25.7v18.1h25.9V26.4h-.2zm4.4 1.3v15.4c.3-.2.6-.4.9-.7v-14c-.3-.2-.6-.5-.9-.7zm-3.4-1.2v17.9c.3 0 .6-.1.9-.2V26.7c-.3-.1-.6-.2-.9-.2z"/><path fill="#00BBA2" d="M237.9 111.7l-42.6-2.8c-6.6-.4-11.6-6.2-11.2-12.8l4.4-67.2c.4-6.6 6.2-11.6 12.8-11.2l42.6 2.8c6.6.4 11.6 6.2 11.2 12.8l-4.4 67.2c-.5 6.6-6.2 11.7-12.8 11.2z"/><path fill="#32CFB6" d="M234.8 107.7l-42.6-2.8c-6.6-.4-11.6-6.2-11.2-12.8l4.4-67.2c.4-6.6 6.2-11.6 12.8-11.2l42.6 2.8c6.6.4 11.6 6.2 11.2 12.8l-4.4 67.2c-.5 6.6-6.2 11.6-12.8 11.2z"/><path fill="#00BBA2" d="M248.8 71l-29.3-2.3c-1.7-.1-2.9-1.6-2.8-3.2l.7-8.7c.1-1.7 1.6-2.9 3.2-2.8l29.3 2.3c1.7.1 2.9 1.6 2.8 3.2l-.7 8.7c-.1 1.7-1.5 2.9-3.2 2.8z"/><path fill="#32CFB6" d="M205.9 106.4c4.1 6.2 5.8 12.2 4.2 19.6-1.2 6-4.5 11.5-7.5 16.8-4.2 7.6-10.1 17.9-6.1 26.7 3.7 8.2 11.9 12.5 20.1 15.4 10.9 3.9 22.9 4.3 34.3 2.9 9.4-1.1 18.7-3 24.3-11.3 5.6-8.3 5.8-21 6.3-30.6 1.3-23.7-17.1-49.1-4-71.7 1-1.7-1.6-3.2-2.6-1.5-10.2 17.6-2.1 37.5 2 55.6 2.6 11.7 1.6 23.4-.2 35.1-.9 5.5-2.7 10.7-6.6 14.9-4.3 4.6-12 5.5-17.9 6.4-11.1 1.8-22.5 1.1-33.2-2.1-10.5-3.1-22.5-10.2-20.4-22.9 1.7-10 9.1-18.6 12.8-27.9 3.8-9.4 2.6-18.5-3-26.8-1-1.7-3.6-.2-2.5 1.4z"/><path fill="#32CFB6" d="M193.5 100.5c8 15.4-1.2 28-8.5 41.3-5.8 10.6-7 22.6-2.1 33.9 10.8 24.8 40.4 35.8 65.8 35.5 12.4-.1 24.9-3.5 34.5-11.7 8.5-7.3 13.1-18.3 15-29.1 4.9-27.8-16-56.7-2.8-83.3 2.3-4.6 6.4-7.9 7.7-13 .5-1.9-2.4-2.7-2.9-.8-1.4 5.7-6.8 9.9-8.9 15.5-2.2 5.7-3.1 11.6-3.2 17.7-.3 13.8 4.5 27.3 6.9 40.8 2.3 13 1.1 26.4-4.8 38.3-6.3 12.6-18.2 19.4-31.7 21.8-27.4 4.9-64.3-7.6-74-35.9-5-14.7 2.2-26.4 9.2-38.8 6.1-10.7 8.3-22.2 2.3-33.6-.8-1.8-3.4-.3-2.5 1.4z"/><path fill="#32CFB6" stroke="#32CFB6" stroke-miterlimit="10" d="M275.7 74.2l-3.6-.9 1.1-4c-10.2-16.8 8-26.8 8-26.8l1.3-4.7 2.9.7m-9.7 35.7l3.6.9 1.1-4C297.8 61.4 287 44 287 44l1.3-4.7-2.9-.7"/><circle fill="#55E1C8" cx="302.8" cy="62.7" r="9.2"/><path fill="#32CFB6" stroke="#32CFB6" stroke-miterlimit="10" d="M296.89 71.245l11.088.517-.173 3.696-11.088-.517z"/></svg>