<svg xmlns="http://www.w3.org/2000/svg" width="12.5" height="23.7" viewBox="0 0 12.5 23.7"><path fill="#00A78E" d="M8.2 5c1.3-.7 1.8-2.4 1.1-3.7C8.6 0 6.9-.5 5.6.3 4.2 1.1 3.7 2.7 4.4 4c.8 1.3 2.4 1.8 3.8 1m4.3 8.8L9.9 6.3c-.1-.4-.6-.5-1.2-.5H5.2c-.8 0-1.4.5-1.4 1.1v15.9c0 .5.6.8 1.4.8s1.5-.4 1.5-.8v-6H7v6c0 .5.7.8 1.5.8s1.5-.4 1.5-.8v-7.9c.3.3.9.3 1.5.1.7-.2 1.2-.8 1-1.2"/><path fill="#2ABBB3" d="M2 14.6L5.5 16l2.2-5.2-3.6-1.4"/><path fill="#00A78E" d="M3.8 15.2c-.3 0-.6-.1-.9-.3L.5 13c-.6-.5-.7-1.3-.3-1.9l2.9-4.6c.4-.7 1.3-.9 2-.4.7.4.9 1.3.5 1.9l-2.2 3.5 1.3 1.1c.6.5.7 1.4.2 2-.3.4-.7.6-1.1.6"/></svg>