<svg xmlns="http://www.w3.org/2000/svg" width="157.4" height="157.4" viewBox="0 0 157.4 157.4"><path fill="#00A78E" d="M78.7 151.4C38.6 151.4 6 118.8 6 78.7S38.6 6 78.7 6s72.7 32.6 72.7 72.7-32.6 72.7-72.7 72.7z"/><path fill="#FFF" d="M78.7 12c36.8 0 66.7 29.9 66.7 66.7s-29.9 66.7-66.7 66.7c-36.8 0-66.7-29.9-66.7-66.7S41.9 12 78.7 12m0-12C35.3 0 0 35.3 0 78.7s35.3 78.7 78.7 78.7c43.4 0 78.7-35.3 78.7-78.7S122.1 0 78.7 0z"/><text transform="translate(28.93 90.52)" fill="#FFF" font-family="'Foco'" font-weight="600" font-size="36.309">DORM</text></svg>