<svg xmlns="http://www.w3.org/2000/svg" width="287.4" height="314" viewBox="0 0 287.4 314"><path fill="#00A78E" d="M210 125.8c1.6-1.1 3.7-.8 4.8.6l.3.4c1.1 1.4.6 3.5-.9 4.7l-71 50.7c-1.5 1.1-3.7.9-4.8-.6l-.3-.4c-1.1-1.4-.7-3.5.9-4.7l71-50.7z"/><path fill="#61DEC7" d="M104.2 150.6c0 28.4-23.4 51.4-52.1 51.4-28.8.1-52.1-23-52.1-51.4s23.3-51.4 52.1-51.4 52.1 23 52.1 51.4m183.2-39.2c0-30-24.6-54.3-55-54.3s-55.1 24.3-55.1 54.3c0 14.2 5.6 27 14.5 36.7 3.4-.9 6.9-1.5 10.6-1.5 14.3 0 26.7 7.6 33.4 18.9 28.9-1.7 51.6-25.2 51.6-54.1"/><path fill="#61DEC7" d="M235.9 181.9c0 18.2-14.9 32.9-33.3 32.9s-33.4-14.7-33.4-32.9c0-18.1 15-32.9 33.4-32.9 18.3.1 33.3 14.8 33.3 32.9m-20.7-125C205.5 24 174.7 0 138.2 0 93.9 0 58 35.5 58 79.2c0 5.9.7 11.8 1.9 17.3 26.9 4.8 47.3 27.9 47.4 55.8 9.5 3.9 20 6.1 30.9 6.1 17.1 0 32.9-5.3 46-14.3-6.6-9.2-10.5-20.5-10.5-32.6.1-25.9 17.6-47.7 41.5-54.6"/><path fill="#00A78E" d="M145 129.7c0-4.3-3.5-7.7-7.8-7.7H136c-4.3 0-7.9 3.5-7.9 7.7V314H145V129.7z"/><path fill="#00A78E" d="M192.4 191.6c1.2-1 3-.7 4.3.6l.3.3c1.2 1.4 1.3 3.3.1 4.3L145 242.1c-1.1 1-3 .7-4.3-.6l-.3-.3c-1.2-1.4-1.2-3.3-.1-4.3l52.1-45.3z"/></svg>