<svg xmlns="http://www.w3.org/2000/svg" width="136.1" height="148.7" viewBox="0 0 136.1 148.7"><path fill="#00A78E" d="M99.4 59.6c.8-.5 1.7-.4 2.3.3l.1.2c.5.7.3 1.7-.4 2.2l-33.6 24c-.7.5-1.7.4-2.3-.3l-.1-.2c-.5-.7-.3-1.7.4-2.2l33.6-24z"/><path fill="#61DEC7" d="M49.4 71.3c0 13.5-11.1 24.4-24.7 24.4C11 95.7 0 84.8 0 71.3 0 57.9 11 47 24.7 47c13.6 0 24.7 10.9 24.7 24.3m86.7-18.5c0-14.2-11.7-25.7-26.1-25.7S84 38.6 84 52.8c0 6.7 2.6 12.8 6.9 17.4 1.6-.4 3.3-.7 5-.7 6.8 0 12.6 3.6 15.8 9 13.6-.9 24.4-12.1 24.4-25.7"/><path fill="#61DEC7" d="M111.7 86.2c0 8.6-7.1 15.6-15.8 15.6-8.7 0-15.8-7-15.8-15.6s7.1-15.6 15.8-15.6c8.7 0 15.8 7 15.8 15.6M101.9 27C97.3 11.4 82.7 0 65.5 0c-21 0-38 16.8-38 37.5 0 2.8.3 5.6.9 8.2C41.1 48 50.8 58.9 50.8 72.1 55.3 74 60.3 75 65.5 75c8.1 0 15.6-2.5 21.8-6.8-3.1-4.4-4.9-9.7-4.9-15.4-.1-12.2 8.2-22.6 19.5-25.8"/><path fill="#00A78E" d="M68.7 61.4c0-2-1.7-3.7-3.7-3.7h-.5c-2 0-3.7 1.7-3.7 3.7v87.3h8V61.4zm-3 36.6c.7.5.7 1.6.1 2.5l-.2.3c-.6.9-1.8 1.3-2.4.8L31.7 79.4c-.7-.5-.7-1.6-.1-2.5l.2-.3c.6-.9 1.8-1.2 2.4-.8L65.7 98z"/><path fill="#00A78E" d="M91.1 90.7c.5-.5 1.4-.3 2 .3l.2.2c.6.6.6 1.6.1 2l-24.7 21.5c-.5.5-1.4.3-2-.3l-.2-.2c-.6-.6-.6-1.6-.1-2l24.7-21.5z"/></svg>