<svg xmlns="http://www.w3.org/2000/svg" width="147.7" height="162.2" viewBox="0 0 147.7 162.2"><path fill="url(#b)" stroke="url(#c)" stroke-miterlimit="10" d="M30.6 59.3l-2.3-2c.2-.3 24.8-29 31.7-39.4.2-.3.4-.7.6-1 1.1-1.9 2.5-4.4 5.3-4.7 2.4-.3 5.1 1.2 8.2 4.6 8.2 8.9 25.5 39.6 26.2 40.9l-2.6 1.5C97.6 58.7 80 27.3 72 18.8c-3-3.2-4.7-3.8-5.7-3.7-1.3.2-2.2 1.8-3.1 3.2-.3.4-.5.9-.7 1.2-6.9 10.6-30.9 38.6-31.9 39.8z"/><path fill="#FFF" stroke="#00ADA1" stroke-width="4.977" stroke-miterlimit="10" d="M134.4 149.4l-111 10.2c-6.6.6-12.4-4.3-13-10.9l-7.9-85c-.6-6.6 4.3-12.4 10.9-13l111-10.2c6.6-.6 12.4 4.3 13 10.9l7.8 85.1c.6 6.5-4.3 12.3-10.8 12.9z"/><path fill="#FFF" d="M126.3 144.1l-96 8.8c-6.6.6-12.4-4.3-13-10.9l-6.7-73c-.6-6.6 4.3-12.4 10.9-13l96-8.8c6.6-.6 12.4 4.3 13 10.9l6.7 73c.6 6.5-4.3 12.4-10.9 13z"/><path fill="none" stroke="#00ADA1" stroke-width="2.175" stroke-linecap="round" stroke-miterlimit="10" stroke-dasharray="2.1945,7.6806" d="M126.3 144.1l-96 8.8c-6.6.6-12.4-4.3-13-10.9l-6.7-73c-.6-6.6 4.3-12.4 10.9-13l96-8.8c6.6-.6 12.4 4.3 13 10.9l6.7 73c.6 6.5-4.3 12.4-10.9 13z"/><text transform="rotate(-5.73 829.03 -287.51)"><tspan x="0" y="0" fill="#00A78E" stroke="#00A78E" stroke-miterlimit="10" font-family="'Harrington'" font-size="23.68" letter-spacing="1">HOME </tspan><tspan x="-2.9" y="28.4" fill="#00A78E" stroke="#00A78E" stroke-miterlimit="10" font-family="'Harrington'" font-size="23.68" letter-spacing="1">SWEET</tspan><tspan x="3.6" y="56.8" fill="#00A78E" stroke="#00A78E" stroke-miterlimit="10" font-family="'Harrington'" font-size="23.68" letter-spacing="1">HOME</tspan></text><path fill="#00A78E" d="M122.9 64.8c0-1.6-1.3-3-3-3-1 0-1.8.5-2.4 1.2v-.2c0-1.6-1.3-3-3-3-1.6 0-3 1.3-3 3 0 .3 0 .5.1.7-.3-.1-.7-.2-1-.2-1.6 0-3 1.3-3 3 0 1.6 1.3 3 3 3h.3c-.5.5-.7 1.2-.7 1.9 0 1.6 1.3 3 3 3 1.6 0 2.8-1.2 2.9-2.8.4 1.2 1.5 2 2.8 2 1.6 0 3-1.3 3-3 0-1.2-.7-2.2-1.8-2.7 1.6 0 2.8-1.3 2.8-2.9zm-6.9 5.4h-.2c-1.3 0-2.4-.8-2.8-2-.1-.3-.2-.6-.2-1 0-1.6 1.3-3 3-3 1.6 0 3 1.3 3 3v.2c-.2 1.6-1.4 2.7-2.8 2.8zm-77.5 60.4c0-1.7-1.4-3.1-3.1-3.1-1 0-2 .5-2.5 1.3v-.2c0-1.7-1.4-3.1-3.1-3.1-1.7 0-3.1 1.4-3.1 3.1 0 .3 0 .5.1.8-.3-.1-.7-.2-1.1-.2-1.7 0-3.1 1.4-3.1 3.1s1.4 3.1 3.1 3.1h.3c-.5.6-.8 1.3-.8 2 0 1.7 1.4 3.1 3.1 3.1 1.7 0 3-1.3 3.1-2.9.4 1.2 1.6 2.1 2.9 2.1 1.7 0 3.1-1.4 3.1-3.1 0-1.3-.8-2.4-1.9-2.9 1.7-.1 3-1.5 3-3.1zm-7.3 5.7h-.3c-1.3 0-2.5-.9-2.9-2.1-.1-.3-.2-.7-.2-1 0-1.7 1.4-3.1 3.1-3.1s3.1 1.4 3.1 3.1v.2c0 1.6-1.3 2.8-2.8 2.9z"/><ellipse transform="rotate(59.6 62.35 4.21)" fill="#00ADA1" cx="62.4" cy="4.2" rx="2.8" ry="6.9"/><path fill="#00ADA1" d="M73.7 31.9L64.2 4l-2.9 2.1"/></svg>