<svg xmlns="http://www.w3.org/2000/svg" width="398.8" height="431.6" viewBox="0 0 398.8 431.6"><path fill="#00998E" d="M281.3 180.8c2.2-1.6 5.1-1.2 6.6.9l.4.6c1.5 2 .9 4.9-1.3 6.5L188.5 259c-2.2 1.6-5.1 1.2-6.6-.9l-.4-.6c-1.5-2-1-4.9 1.2-6.5l98.6-70.2z"/><path fill="#61DEC7" d="M144.7 209.1c0 39.4-32.4 71.4-72.4 71.4-40 0-72.4-32-72.4-71.4s32.4-71.4 72.4-71.4c40 0 72.4 32 72.4 71.4m254.1-54.8c-.2-41.6-34.5-75.3-76.7-75.1s-76.3 34.1-76.2 75.7c.1 19.7 7.9 37.5 20.4 50.9 4.7-1.3 9.6-2.1 14.7-2.1 19.8-.1 37.1 10.5 46.5 26.1 39.9-2.7 71.5-35.5 71.3-75.5"/><path fill="#61DEC7" d="M327.5 252.6c0 25.2-20.7 45.7-46.2 45.7-25.6 0-46.3-20.5-46.3-45.7 0-25.2 20.8-45.6 46.3-45.6 25.5 0 46.2 20.5 46.2 45.6M298.9 79C285.4 33.4 242.6 0 192 0 130.4 0 80.5 49.3 80.5 110c0 8.3 1 16.3 2.7 24.1 37.3 6.7 65.7 38.7 65.8 77.4 13.2 5.5 27.7 8.5 42.9 8.5 23.7 0 45.7-7.3 63.8-19.8-9.2-12.8-14.5-28.4-14.5-45.2.1-36.1 24.4-66.4 57.7-76"/><path fill="#00998E" d="M192.4 175.8c0-5.9-4.9-10.8-10.9-10.8h-1.6c-6 0-10.9 4.9-10.9 10.8v255.9h23.4V175.8zm.1 111.5c2 1.4 2.1 4.8.1 7.4l-.6.8c-1.9 2.7-5.2 3.7-7.2 2.3l-92-65c-2-1.4-2.1-4.8-.2-7.4l.6-.8c1.9-2.7 5.2-3.7 7.2-2.3l92.1 65z"/><path fill="#00998E" d="M249 257.4c1.6-1.4 4.2-1 5.9.9l.5.5c1.7 1.9 1.8 4.6.1 6l-72.4 63c-1.6 1.4-4.2 1-5.9-.9l-.5-.5c-1.7-1.9-1.7-4.6-.2-5.9l72.5-63.1z"/></svg>