<svg xmlns="http://www.w3.org/2000/svg" width="482.2" height="482.1" viewBox="0 0 482.2 482.1">
  <path fill="#FFF" d="M241 0C108 0 0 107.9 0 241c0 133.2 108 241.1 241 241.1 133.1 0 241.1-107.9 241.1-241.1C482.2 107.9 374.2 0 241 0zm65.6 329.7c-2.1 1.9-.5 13.5-3.9 19.4-3.5 5.6-9.5 7.6-16.1 9.4-6.5 1.9.9 3.7-.6 6.4-1.4 2.4-5 4.4-7.1 12.1-2 7.7-8.1 3.6-8.6 6.9-.6 3.3-5.1 6.2-9.8 6.4-4.8.1-1.2 2.8-4.4 5.7-3 2.8-5 2.6-5.3 6.5-.3 3.9-2.4 4-4.6 6.9-2.2 2.8 2.4 4.5.3 8.2-2.1 4 .3 2.9-3.8 5.8-4.1 3.1.6 8.6 3.3 9.9 2.7 1.5 7.3 2.9 4.7 2.5-36.7 2.3-19-30.5-20.1-37.9-1.3-7.5 5.8-28.7 6.9-37.8 1.2-8.9 9.5-16.6-3.5-21.9-13-5.2-6.1-3.3-14.6-18.1-8.6-14.9-1.9-20.2 1.1-23.3 3-3 2.2-2.5 1.8-7.8-.5-5.4-1.6-3.2-2.9-5.3-1.3-2.1-4.7-.4-8.6-1-4-.6-3.1-.8-7.5-6.4-4.5-5.6-5.8-.5-13-6.3-7.3-5.9-4.8-1.4-10.5-3-5.7-1.5-17.9-3.3-18.5-8.9-.6-5.6-3.1-8.9-3.1-8.9-3.1-6-11.8-16.1-23-21.2-11-5-17.8-22.6-15.2-30.5 2.8-7.8-1.8-6.4-5.4-14.1-3.6-7.6-8.8-14.2-24.5-27.5s-40.5.9-52.7-.2c6.8-17.7 24.2-41.3 24.2-41.3 13.5-.5 24.5 3.8 36 4.9 11.5 1.1 16.2-6 21.9-12.9 5.6-6.9 10-12.7 17-16.7 6.8-3.9 14.1-4.5 30.2-7.4 16.1-2.8 8.5-7.1 18.9-13.9 10.5-6.8 34.8-11.7 58.3-11 23.5.8-4.3 12.5-9.7 15.2-5.4 2.6-8.3 8.7-12.2 13.6-4 5.1-3.6 7.1-1.4 12.8 2.2 5.7 17.7 12 21.1 14.7 3.4 2.5.8 5.7 5.8 10.1 5 4.4 5 7.7-.3 6.5-5.5-1.1-2.8 3.4.2 6.9 3 3.4 4.7 7.8-1.3 8.2-6 .2-6.2-6.2-13.6-7.4-7.4-1.2-5.4-5.2 0-11.1 5.4-5.8-9.8-3.1-15.9-4.5s-3.5 5.3-4.3 10.7c-.9 5.5 1.8 10.1-3.9 10.5-6 .6-6.6-3.4-11.5-5-4.6-1.9-5 4.4-10.2 10.1-5.3 5.7 1.7 10.5 5.6 12 4 1.4 6.9 6.7 12.9 6.6 6 0 4.4 2.5 9.4 10.6 4.8 8.3 2.8-6.8 6.2-9 3.3-2.2 4.5-4.7 2.5-10.6-2.2-6-3.2-8.8 1.5-13.6 4.8-4.6 10.2 1 14.1 4 3.7 3.1.7 9.7 5.2 8.1 4.5-1.6 7.6-5.7 8.5-1.9.8 3.7 4.6 4.1 8 8.2 3.4 4.1 6.5 6.7 7.6 11.1 1.1 4.6 3.5 7.2 6.4 11.8 2.8 4.7-4.8 3.1-9.8 3.5-5.2.2.1-5.6-2.6-8.4-2.7-2.8-4.7 2.2-11.1 7-6.2 4.8 8.5 6.4 3.8 8.6-4.9 2.5-7.4 1.2-14.2 3.5-6.7 2.2-4 6.1-7.9 7.1-3.9 1.1-4.7 5-5.8 9-1.1 4.2-4.9 7.1-9.7 9.9-4.7 2.9-1.4 12.2-.4 15.8 1.1 3.7-1.7 4.9-4.2.5-2.4-4.7-2.8-5.7-7.3-9-4.6-3.3-11.4 1.1-21 3-9.4 1.9-7.9 13.7-4.9 19.6 2.8 5.9 9.7 5.3 12.9 2.5 3.3-2.6 6.6-4.4 9.2-4.6 2.6-.2-.8 6.3-2.8 9.8-1.9 3.7 3.9 3.4 8.5 3.3 4.4-.4 2.2 6.5 1.7 9.4-.5 2.7 1.9 3.9 3.9 5.3 2.2 1.5 5.6-1.2 8.8.3 3.3 1.3 2.9-2.3 6.8-4.5s5.2-1.3 12.2-.3c6.9 1.1 6 1.1 11 1.1 4.9 0 7.9 2 10.9 5.8 3.1 3.8 2.2 6 9.7 5.9 7.5-.1 9.7 4.9 9.9 8 .2 2.9 7 5.6 10.3 6.9 3.2 1.3 6.9 3.3 11.8 3.3 4.8-.1 8.4 3.1 11.7 8.2 3.1 5.1-7.3 11.1-9.4 13.2zm-60.5-67.6c-2.5-.9-2.9-2.2-4.9-.9-2 1.3-5.3 3.3-7 .3-1.6-2.9-3.2-2.5-5.2-2.5-2.1 0-5.4-1.6-7.3-1.7-1.9-.2-1.9-1.8-3.6-3.3-1.8-1.6-6.4-2.3-8.9-1.5-2.5.8-4.1 1.5-1.6-.5 2.4-1.8 6.8-2.3 10.6-.7 3.6 1.4 4.7 3 7.3 3.9 2.8 1.2 3.9 1.8 5.2 2.2 1.1.5 5.7-1.5 7.7.7 2 2.3 2.9 2.2 4.1 2.3 1 0 3.4-.6 4.6 0 1.1.8 1.5 2.6-1 1.7zm74.7-135.9c-5.2 3.4-7.6 5.6-13.1 7.7-5.5 2-7.2 6-10.8 16.1-3.5 10-12-7.8-17.2-12.6-4.9-4.7-1.5-11.5-3-18.2-1.5-6.6-7.4-4.5-5.8-15.5 1.5-11.1-8.1-14.7-18.4-14.7-10.6 0-9.5-4.8-17.6-7.2-8-2.4 3.9-6.3 13.4-7.8 9.4-1.4 1.3-4 8.9-7.6 0 0 10.4-6.4 19.1-8.1 6.6-1.3 10.2-.4 21.3-2.9 11.1-2.3 11.9-1.7 20.5-2.4 8.8-.8 10.2 0 21.9 4.5s6.9 3.7 19.1 5.9c12.3 2.1-2.9 6.9-7.3 10.9-4.4 4.1-2.9 5.3-2.7 10.2.4 4.9 2.3 8.6-.3 12.3-2.5 3.7-4.7 3.7-5.4 10.6-.8 7 1.1 9.9-1.9 11.8-2.9 2.1-15.4 3.7-20.7 7zm22.7 5.5c-2.8-4.7 3.8-1.2 13.2-1.2 7.7.1 2 5.4-3 7.5-5 2.1-7.4-1.7-10.2-6.3zm80.4 217.4c-4-6.2-2.9-15.9-.9-23.1 2.4-7.4-4.3-13.6-8.5-18.2-4.3-4.6-3.6-8.4-4.4-14.6-.9-6.3-7.5-4.9-14.8-3.1-7.2 1.9-17.2.9-26.7-4.1s-7-3.8-11.6-21.8c-4.5-18 10.7-25.4 14.2-31.5 3.2-6 8-9.8 6.9-13.1-1.1-3-4.9-2.7-5.3-9.1-.6-6.4 2.9-9.3 10-10 7.2-.7 8.3-5.6 3.6-9.2-4.5-3.6-.2-3.8 2.6-7.1 2.8-3.4-2.7-1.7-6.3-4.3-3.5-2.6-.4-3.2 3.1-6.2 3.6-2.9-.2-5.2-2.1-5.5-1.9-.2-2.2 6.8-7.8 8.2-5.5 1.4-5.1-2.7-3.1-6.2 2-3.6 4.6-3.1 5.1-6.7.4-3.5-2.9-4.5 4.2-6 7-1.5 4.2 2 4.4 5.7.3 3.6 5.6 7.1 8.9 14.1 3.2 7 .4 5.6 4.2 2.1 3.9-3.6 6.6-3.3 9.2-6.7 2.5-3.2 5.2-5.3 6.9-13 2-7.6-8-.3-10.6-4-2.4-3.9 2.6-6.8 3.4-11.2.7-4.4 3.6-3.4 9.3-8.6 5.5-5.4 4.1-11.2 6.4-8.4 2.4 3 8.2 14.7 8.1 15.9-.1 1-1.4 2.2-1.7 5.2-.1 3 2.2 1.7 3.2 3 .8 1.3.8 1.9-.2 2.7-1.3.9-2.7 2.3-3.6 3.5-1.2 1.3-.5 3.5-1.1 5.6-.6 2-2 1.2-5.3 2.3-3.4 1.1-3.9 1.5-4.6 4.7-.4 3.2 2.4.6 5.3.3 2.9-.6 2.7-1 6.5-1.3 3.7-.3 5.5-.9 8.1-2.5 2.5-1.5-.4-5 2.7-7.3 11.5 24.6 15.5 58.3 15.5 58.3s-3-.3-5.7-2.6c-2.8-2.3-.3-3.5-.9-6.5-.6-3.1-4.2-.5-6.4.3-2.1.9 1.2 2.2 2 4.8.9 2.8.3 3.1-1.5 5.5-2 2.3-1.8-.8-3.4-3.6-1.5-2.9-1.3-2.7-4.3-5.3-3-2.7-.2-1.7-1.2-5-.8-3.3-3.7-2.8-7.4-5.1-3.6-2.2-3.6-2.1-6.3-5.1-3-3.1-1.2 2-1.2 2.9 0 .9 1.7 1.8 3.7 5.3s4 2.5 6.9 3.9c2.6 1.4.8 1.9.8 1.9s-1.8-1.1-2.3.3c-.8 1.2.5 1.2.6 1.8.2.6-.8 1.9-1.9 2.8-1.1 1-.5 2-1.7 3.6-1.1 1.7-1.8-.5-3.9-1.5-2.1-1.1-.7-1.8.6-1.8 1.2 0 2.9-.5 4.1-.9.8-.2-.2-1.6-.9-4.1-.7-2.5-1-1.1-3.7-3-2.4-2.1-3.6-2.2-5.9-5.9-2.3-3.6-5.1.9-11.5.7-6.5-.1-2.9 1-5.8 3.3-2.8 2.2-5.4 2.5-6.7 4.8-1.4 2.3-2 6.4-6.9 8.4-4.7 1.9 3.9 2.4 10.3.5s13.2-1.3 18.6.2c5.3 1.5 4.2 5.1 5.9 8 1.6 3 9 5.7 13.6 5.5 4.6-.1 3.3-4.7 7.5-4.4 4.3.1 6.8 5.5 14.8 4.8 5.1 56.3-15.3 98.1-22.8 111.8-7.8 13.4-6.3 10.9-10.3 4.9z"/>
</svg>