<svg xmlns="http://www.w3.org/2000/svg" xmlns:xlink="http://www.w3.org/1999/xlink" width="136.8" height="379.8" viewBox="0 0 136.8 379.8">
  <path fill="#FFF" d="M24.7 270.7c.9 1.8 1.3 3.5-1 3.6l-.7-.8-4-5-1 1.5c-.6.9-.7 1.9-.3 2.9.3.7.7 1.6 1 2.1.2.4.5.8 1 1l2.7 1.7c.6.4.4 1 .3 1.5l-.4.4c-.5.5-1.5.6-2.2.2l-3-1.9c-.3-.1-.5-.2-.7-.4l-4.8-6.6c-.3-.4-.8-2.3-.8-2.7l1.6-7.5c0-.2.1-1.8 0-2L4 227.3l-.3-5.6s-.5-27.9 1.3-27.6l17.1 2.9c1.3.4-2.1 15-2.1 15-1.5 7.1-2.1 9.5-2.3 13.7l3.5 34c0 .2 0 .3.1.5l3.4 10.5zM112.3 268.1c-.9 1.8-1.3 3.5 1 3.6l.7-.8 4-5 1 1.5c.6.9.7 1.9.3 2.9-.3.7-.7 1.6-1 2.1-.2.4-.5.8-1 1l-2.7 1.7c-.6.4-.4 1-.3 1.5l.4.4c.5.5 1.5.6 2.2.2l3-1.9c.3-.1.5-.2.7-.4l4.8-6.6c.3-.4.8-2.3.8-2.7l-1.6-7.5c0-.2-.1-1.8 0-2l8.6-31.2.3-5.6s.5-27.9-1.3-27.6l-17.1 2.9c-1.3.2 2.1 14.9 2.1 14.9 1.5 7.1 2.1 9.5 2.3 13.7l-3.5 34c0 .2 0 .3-.1.5l-3.6 10.4z"/>
  <path fill="#FFF" stroke="#00AB9F" stroke-width="1.589" stroke-miterlimit="10" d="M6.4 141.6s56.1-32.5 121.4 2.9l8.3 64.1-7.2 47.2-15.1-2.8.6-34.4-3.8-42.3s-1 30.1-2.2 47.3c-1.3 18.8-10.1 36.7-10.1 36.7H34s-6.8-28-6.4-40c.4-13.9.1-41.1.1-41.1l-7.2 45 4 28.9-17 .6-6.7-30.3 5.6-81.8z"/>
  <path fill="none" stroke="#00AB9F" stroke-width="2.777" stroke-miterlimit="10" d="M65.6 211.3v58.3"/>
  <path fill="#FFF" d="M119.5 379.6s-1.4-10.7-23.3-9.7h-.4l1.3-108H35.7l3.8 108c-21.1 1.1-22.8 8-23.6 9.8l26.3-.1h21.1v-.1h.3s-.1-.4-.3-1v-94.4c0-2.5.9-4.5 3.7-4.5 2.8 0 3.7 2 3.7 4.5v95.5h1.2v.1l47.6-.1zM41 166.3c-.6-.9-14-21.7-7-34.5 3.4-6.2 10.9-9.4 22.4-9.4h.7c.1 0 3.5-.1 8.1-.1 10.4 0 23.7.6 28.6 3.3 1.3.4 7.2 2.6 9 8.6 1.8 6-1 13.5-8.5 22.4l-.4.4-2.1-1.8.4-.4c6.8-8.1 9.5-14.8 8-19.8-1.6-5.1-7.1-6.8-7.3-6.8l-.2-.1c-3.4-1.9-13.1-3-27.6-3-4.5 0-7.8.1-7.9.1h-.7c-10.4 0-17.1 2.7-20 7.9-6.2 11.3 6.8 31.5 6.9 31.7l.3.5-2.3 1.5-.4-.5z"/>
  <path fill="#00AB9F" d="M65.2 122.9c9.2 0 23.5.5 28.4 3.2.9.3 6.9 2.3 8.7 8.3 1.8 5.8-1 13.2-8.4 21.9l-1.3-1.1c7-8.3 9.7-15.1 8.1-20.4-1.7-5.4-7.6-7.2-7.7-7.2l-.2-.1c-4.5-2.6-18.7-3-27.8-3-4.6 0-7.9.1-8 .1h-.7c-10.6 0-17.5 2.8-20.5 8.2-6.4 11.7 6.8 32 6.9 32.2l-1.4.9c-.6-.9-13.8-21.4-7-34 3.3-6 10.7-9.1 21.9-9.1h.7c.6.2 3.8.1 8.3.1m0-1.1c-4.4 0-7.6.1-8.1.1h-.7c-11.7 0-19.4 3.2-22.9 9.7-7.2 13.1 6.5 34.2 7 35.1l.6.9.9-.6 1.4-.9.9-.6-.6-.9c-.1-.2-12.9-20.1-6.9-31.1 2.8-5.1 9.3-7.6 19.5-7.6h.7s3.3-.1 7.9-.1c14.3 0 24 1 27.2 2.9h.2l.2.1h.2s5.4 1.6 6.9 6.4c1.5 4.8-1.2 11.3-7.9 19.3l-.7.8.8.7 1.3 1.1.8.7.7-.9c7.6-9.1 10.5-16.8 8.6-23-1.9-6.2-7.9-8.5-9.3-9-4.9-2.6-18.3-3.1-28.7-3.1z"/>
  <circle fill="#FFF" stroke="#00AB9F" stroke-width="1.589" stroke-miterlimit="10" cx="42.2" cy="165.6" r="6.5"/>
  <circle fill="#00AB9F" cx="42.2" cy="165.6" r="4.4"/>
  <path fill="#FFF" d="M95.4 183c15.5-9.7-.3-29.6-.3-29.6s-24.9 2.6-20.7 20.5"/>
  <path fill="#FFF" d="M94 181.8l.5-.3c3.3-2.1 5.3-4.8 5.8-8.1 1.2-7.2-4-15.4-6-18.1-3.3.5-12.5 2.5-16.7 8.3-2 2.8-2.5 6.1-1.6 9.9l.1.5-3.3.8-.1-.5c-1.1-4.8-.4-9.1 2.1-12.7 5.9-8.3 19.5-9.8 20-9.9l.9-.1.6.7c.4.5 9 11.4 7.2 21.6-.7 4.3-3.2 7.9-7.4 10.5l-.5.3-1.6-2.9z"/>
  <path fill="#00AB9F" d="M95.6 152.2l.4.5c.4.5 8.8 11.2 7.1 21.2-.7 4.2-3.1 7.6-7.2 10.1l-1.2-2c3.4-2.2 5.5-5 6.1-8.5 1.3-7.8-4.7-16.6-6.3-18.8-2.7.4-12.9 2.3-17.4 8.6-2 2.9-2.6 6.4-1.7 10.4l-2.3.5c-1.1-4.7-.4-8.8 2-12.2 5.7-8.1 19.1-9.6 19.6-9.7l.9-.1m.5-1.2l-.6.1-.6.1c-.6.1-14.4 1.6-20.4 10.1-2.6 3.7-3.4 8.1-2.2 13.1l.3 1.1 1.1-.3 2.3-.5 1.1-.3-.3-1.1c-.9-3.7-.4-6.9 1.5-9.5 3.9-5.5 12.9-7.5 15.9-8 1.8 2.6 6.9 10.6 5.7 17.4-.5 3.2-2.4 5.8-5.6 7.8l-.9.6.6.9 1.2 2 .6.9.9-.6c4.3-2.7 6.9-6.3 7.7-10.8 1.8-10.4-7-21.6-7.4-22l-.4-.5-.5-.5z"/>
  <circle fill="#00AB9F" cx="74.2" cy="173" r="3.2"/>
  <circle fill="#00AB9F" cx="93.9" cy="183.6" r="3.2"/>
  <path fill="#00AB9F" d="M75.3 201.8L65.1 216l-10.2-14.2 10.2-52"/>
  <path fill="#FFF" stroke="#00AB9F" stroke-width="1.589" stroke-miterlimit="10" d="M57.5 118.4s.3 10.6-4.7 13.5c-4.5 2.6-6.5 3.2-6.5 3.2l18.4 17.4s14-12.8 21.2-15.7c-9.5-2.6-8.8-5.8-8.8-5.8l-1.7-11-17.9-1.6z"/>
  <path fill="#00AB9F" d="M65.158 135.772l8.415 8.415-8.415 8.414-8.414-8.413z"/>
  <path fill="#FFF" d="M26.4 50.5c0 3.9-2.5 35.1 8.4 48.8 6.2 7.8 14.9 15.3 19.9 16.5 8.2 1.9 13.5 3.4 20.8 1.8 7.2-1.6 17.9-9.1 24.4-23.7C103 87 111.5 32.4 95.8 17 85.5 6.9 63 8.2 54.2 8.6 45.4 9 26 12.1 26.4 50.5"/>
  <path fill="#FFF" stroke="#00AB9F" stroke-width="1.323" stroke-miterlimit="10" d="M102.2 68s1.2-11.1 4.7-8c2.8 2.6 4.2 14.4 2.5 22.7-.8 3.7-5.2 7.9-7 6.1-1.9-1.8-.2-20.8-.2-20.8"/>
  <path fill="#FFF" d="M28.1 68.9s-1.6-11.1-5.3-7.9c-3.8 3.4-3.4 17.6-2.1 22.8.9 3.7 5.8 7.7 7.8 5.9 2-1.9-.4-20.8-.4-20.8"/>
  <path fill="#00AB9F" stroke="#FFF" stroke-miterlimit="10" d="M103.3 59.6s3.7 10.4 4.6 0c.8-9.4-8.1-40.4-4.6-40.2 0 0-1.7-6.2 1.7-8.4S96.8-.7 91.4 3.9s-11-2-11-2-3.2-3.6-10.1.9-12.9 1-12.9 1-1.5 8.3-11.6 3.2-26.9 6.3-22.9 11.3 2.6 20.5 2.6 20.5.9 16.8-.2 20.5 4.3 8.4 4.1.4c-.2-8-4.9-26.8 5.6-37.5 10.7-10.8 29.8 7.9 52.5-3.3 2.1.1 15.4-1.6 15.8 40.7z"/>
  <path opacity=".5" fill="#00AB9F" d="M56.3 101.1s1.1.4 2.8.7c.8.1 1.8.2 2.9.2 1.1 0 2.2-.1 3.3-.2.8-.1 1.7-.2 2.5-.4 1.4-.3 2.6-.6 3.6-1 1.6-.5 2.6-1.1 2.6-1.1s-1.1.1-2.8.3c-.8.1-1.8.2-2.8.4-1 .1-2.1.3-3.2.4-2.2.3-4.4.4-6.1.5-1.6.2-2.8.2-2.8.2"/>
  <path fill="#00AB9F" d="M62.4 80.5l3 .5c.9.1 2 .2 3 .1.5-.1 1-.2 1.2-.5.1-.1.1-.1.1-.2v-.1s0-.1 0 0v-.1l.1-.2c.1-.3.1-.5.1-.8.1-1.2 0-2.4 0-3.5-.1-1.1-.1-2.2-.2-3.1-.1-1.8-.2-3.1-.2-3.1s.5 1.2.9 3c.2.9.4 2 .6 3.1.2 1.2.3 2.4.2 3.7-.1.3-.1.8-.2 1l-.1.2v.2l.1.2c-.1.2-.2.4-.4.5-.6.6-1.4.7-2 .8-.6 0-1.2 0-1.8-.1-.5-.1-1-.2-1.5-.4-1.8-.6-2.9-1.2-2.9-1.2zM68.2 85.8c-1.9 2.4-1.9 6.2-.1 8.7 2.1 3 7.2 4.2 10.9 4.6 4.3.5 9.1.2 13.3-.6 3.3-.7 6-2.3 6.8-5.3 0-.1-.1-.2-.2-.2-2.8 1.8-7.2.7-9.6-1-2.5-1.9-4.2-4.2-7-5.8-4.1-2.4-10.4-4.3-14.1-.4-.1.1.1.3.3.2 4.8-4.9 13.7-.3 17.5 3.4 1.7 1.6 3.3 3.5 5.8 4.3 1.8.6 4.8.8 6.6 0 .6-.3.3 0 .1.4-.3.8-1 1.6-1.7 2.2-1.2 1-3 1.6-4.6 1.9-3.5.8-7.4.9-11 .8-4.2-.1-8.7-1.2-11.9-3.7-2.8-2.2-2.8-6.8-.8-9.3.1-.2-.2-.4-.3-.2z"/>
  <defs>
    <path id="a" d="M68.2 85.8c-1.9 2.4-1.9 6.2-.1 8.7 2.1 3 7.2 4.2 10.9 4.6 4.3.5 9.1.2 13.3-.6 3.3-.7 6-2.3 6.8-5.3 0-.1-.1-.2-.2-.2-2.8 1.8-7.2.7-9.6-1-2.5-1.9-4.2-4.2-7-5.8-4.1-2.4-10.4-4.3-14.1-.4-.1.1.1-.2 0 0z"/>
  </defs>
  <clipPath id="b">
    <use xlink:href="#a" overflow="visible"/>
  </clipPath>
  <g clip-path="url(#b)">
    <path fill="#00AB9F" d="M67.4 85.1c1.4-.8 3-1.2 4.5-1.3h1.6c2 .1 4 .6 6.1 1.3-1.4-.9-3-.9-4.4-1.3-.5-.1-.9-.1-1.4-.2-2.3-.2-4.5.1-6.7 1.3.1 0 .3.2.3.2zM67 85.5c1.7-.8 3.6-1 5.6-.9.5 0 1 0 1.4.1 2.5.1 5.2.5 7.6 1.6.5.2.9.5 1.4.7.9.3 1.6 1.5 2.8 1.7-.9-1.2-2.3-1.6-3.6-2.5-.5-.2-1-.5-1.5-.6-2.6-.9-5.6-1-8.3-1.2H71c-1.4 0-2.7.3-4 .9-.2 0 0 .2 0 .2zM66.9 85.6c1-.2 2-.2 3-.2.5 0 1 .1 1.5.1 3.4.2 6.9.5 10 1.6.4.2.9.3 1.3.5 1.3.3 2.4 1 3.4 1.8.3.3.7.5 1 .8 2.1 2 4.7 5.2 8.1 4.3-3.2-.2-5.3-2.5-7.7-4.3-.4-.3-.8-.6-1.1-.9-1.5-1.1-3.2-2.1-5.1-2.6-.5-.2-.9-.3-1.4-.4-2.3-.6-4.8-.8-7.2-1.1-.5-.1-1-.1-1.5-.2-1.5-.2-3-.1-4.6.4.2.1.4.1.3.2zM65.5 87.2c-.9 3.6 1.3 6.9 4.3 8.7.4.3.9.5 1.3.7 2.1.8 4.1 1.9 6.4 2 .6.1 1.1.2 1.6.3 3 .7 5.9.9 8.8.6.4 0 .8-.1 1.2-.1h2.7c-1.6-.5-3.2-.5-4.9-.1h-1.4c-2.4 0-4.8-.3-7.1-.9-.3-.1-.7-.1-1-.2-1.4-.3-2.8-.7-4.3-1.2-.6-.2-1.1-.5-1.6-.7-4.1-1.3-6.1-5-6-9.1z"/>
    <path fill="#00AB9F" d="M65.6 86.8c.2 2.7 1.4 5.5 3.4 7.3.3.3.7.6 1.1.9 2 1.3 4.2 2.2 6.5 2.9.5.1.9.2 1.3.4.9.2 1.9.2 2.5.7-1.4-.5-2.5-.9-4-1.4-.5-.1-.9-.3-1.4-.4-1.9-.6-3.7-1.3-5.3-2.4-.4-.3-.8-.6-1.1-1-1.5-2-2.4-4.6-3-7zM71.4 85.6c2.2.3 4.4.7 6.6 1.3.5.2 1.1.4 1.6.6 2.7 1.2 5.2 2.8 7.8 4.3.4.2.8.5 1.1.7 1.8.9 3.9 2.5 6.2 2.1-2.1-.5-4.1-1.2-6-2.4-.4-.2-.8-.5-1.2-.7-2.4-1.4-4.7-2.8-7.3-3.8-.5-.2-.9-.4-1.4-.6-2.4-.9-4.9-1.5-7.6-1.6-.1-.2.2 0 .2.1zM66 86.6c.9.3 1.8.5 2.7.8.4.1.9.2 1.3.3 2.5.3 4.5 1.7 6.4 3.2.4.3.8.6 1.1.9 2 2 4.5 3.4 7.1 4.2.5.2 1.1.3 1.6.4 4.2.9 9.8 2.1 13.2-1.4-3.9 2.5-9 2.3-13.4 1-.5-.1-1-.3-1.5-.5-2.5-.9-4.9-2.4-6.9-4.2-.3-.3-.6-.6-1-.9-.3-.3-.6-.6-1-.9-1.8-1.4-4.4-1.8-6.5-2.6-.5-.2-1.1-.3-1.6-.4-.5-.1-1.1-.3-1.6-.4.2.4.2.4.1.5z"/>
    <path fill="#00AB9F" d="M72.7 85.8c1.6.5 3.1 1.2 4.5 1.9.5.3.9.5 1.4.8 2.2 1.2 4.3 2.4 6.5 3.4.4.2.9.4 1.3.6 4.4 1.9 10.3 3.8 14.3.3-4.1 2.8-10.1 1.8-14.1-.9-.4-.2-.8-.4-1.3-.6-2.1-1.1-4.2-2.2-6.3-3.4-.5-.3-1-.5-1.5-.8-1.5-.7-3-1.3-4.7-1.7-.1.1-.1.4-.1.4zM65.9 86.6c.5.9 1.2 1.6 1.9 2.2.4.3.8.6 1.2.8 2.5 1.4 4.9 2.9 7.4 4.1l1.2.6c2.1 1.2 4.4 2.1 6.8 2.7.5.1 1 .2 1.4.3 4.3 1.1 9.4 1.3 13.3-1.2-3.7 1.6-7.8 2.1-11.7 1.3l-1.5-.3c-3.5-.7-6.9-2.2-10.1-4-.4-.2-.9-.5-1.3-.7-1.3-.7-2.6-1.5-3.9-2.2-.4-.2-.8-.5-1.2-.7-1.1-.8-2.4-1.8-3.5-2.9zM66.1 86.4c1.8-.3 3.5-.2 5.2.3.5.1.9.2 1.4.4 1.7.5 3.1 1.3 4.5 2.3.5.3.9.7 1.3 1 2.2 2.5 5.1 4.5 8.2 5.4l1.2.3c4 .6 8.4.8 11.8-1.2-4.1 1.4-8.7 1.8-12.9.4-.4-.1-.9-.3-1.4-.5-2.3-.9-4.4-2.4-6.2-4.1-.4-.3-.7-.6-1.1-.9-1.7-1.4-3.5-2.6-5.7-3.2-.5-.1-.9-.3-1.5-.4-1.5-.4-3.2-.4-4.8.2z"/>
    <path fill="#00AB9F" d="M66.4 85.8c1.4-.4 2.9-.5 4.3-.3.5.1.9.2 1.4.3 1.6.5 3.1 1.4 4.4 2.3.5.3.9.7 1.4 1 2.6 2 5.5 3.5 8.6 4.6.5.2.9.3 1.4.5 4 1.6 9.1 1.9 12.8-.7-4.1 1.8-8.7 2.3-12.8.4-.4-.2-.8-.3-1.3-.5-2.9-1.2-5.6-2.8-8.2-4.5-.4-.3-.8-.6-1.2-.8-1.3-.8-2.6-1.6-4-2.3-.4-.1-.8-.2-1.2-.4-1.9-.4-3.8-.4-5.6.4zM65.9 86.4c.4 1.6 1.1 3 2 4.3.3.4.6.8 1 1.2 2.2 2.5 5.2 4.4 8.4 5.4.4.2.9.3 1.3.4 3.1.9 6.2 1.4 9.3 1.2h1.4c3.5-.2 7.2 0 9.8-2.5-3.2 1.8-6.7 2.3-10.3 2.2h-1.3c-3.8.2-7.7-.5-11.3-1.9-.4-.2-.9-.4-1.3-.6-2.2-1.1-4.1-2.6-5.7-4.5-.3-.4-.7-.8-1-1.2-.9-1.3-1.6-2.7-2.1-4.1 0-.1-.3.2-.2.1z"/>
    <path fill="#00AB9F" d="M66.3 87.1c1 1 2 2.1 3.1 3.2.3.4.6.7.9 1.1 1.2 1.4 2.5 2.5 4 3.4.5.3 1 .6 1.5.8 3.3 1.6 6.8 2.8 10.4 3 .5 0 1 0 1.5.1 3.6-.1 7.2.2 10.5-1.7-3 .9-6 1.6-9.2 1.4h-1.5c-3.3.1-6.7-.8-9.8-2.3-.4-.2-.9-.5-1.3-.7-2.8-1.5-5.3-3.8-7.7-6-.4-.4-.8-.7-1.2-1.2-.4-.4-.7-.8-1-1.3 0 0-.2 0-.2.2z"/>
    <path fill="#00AB9F" d="M66.2 86.8c.4.2.9.5 1.4.7.5.2.9.5 1.4.7 2.7 1.3 5.5 2.8 8.2 4.3.5.3.8.5 1.2.7 2.1 1.3 3.9 2.9 6.2 3.8-2.3-1.8-5.1-2.8-7.2-4.9-.4-.3-.9-.5-1.3-.8-2.2-1.4-4.4-2.6-6.8-3.6-.5-.2-1-.4-1.5-.5-.6-.1-1.1-.3-1.6-.4z"/>
  </g>
  <path fill="#00AB9F" d="M65.6 85.8c1.9 2.4 1.9 6.2.1 8.7-2.1 3-7.2 4.2-10.9 4.6-4.3.5-9.1.2-13.3-.6-3.3-.7-6-2.3-6.8-5.3 0-.1.1-.2.2-.2 2.8 1.8 7.2.7 9.6-1 2.5-1.9 4.2-4.2 7-5.8 4.1-2.4 10.4-4.3 14.1-.4.1.1-.1.3-.3.2-4.8-4.9-13.7-.3-17.5 3.4-1.7 1.6-3.3 3.5-5.8 4.3-1.8.6-4.8.8-6.6 0-.6-.3-.3 0-.1.4.3.8 1 1.6 1.7 2.2 1.2 1 3 1.6 4.6 1.9 3.5.8 7.4.9 11 .8 4.2-.1 8.7-1.2 11.9-3.7 2.8-2.2 2.8-6.8.8-9.3-.1-.2.2-.4.3-.2z"/>
  <defs>
    <path id="c" d="M65.6 85.8c1.9 2.4 1.9 6.2.1 8.7-2.1 3-7.2 4.2-10.9 4.6-4.3.5-9.1.2-13.3-.6-3.3-.7-6-2.3-6.8-5.3 0-.1.1-.2.2-.2 2.8 1.8 7.2.7 9.6-1 2.5-1.9 4.2-4.2 7-5.8 4.1-2.4 10.4-4.3 14.1-.4.1.1-.1-.2 0 0z"/>
  </defs>
  <clipPath id="d">
    <use xlink:href="#c" overflow="visible"/>
  </clipPath>
  <g clip-path="url(#d)">
    <path fill="#00AB9F" d="M65 85.5c-2.1-1-4.4-1.5-6.7-1.5-.4 0-.9 0-1.3.1-1.3.2-2.7.5-4 1 .9-.6 1.9-1 3-1.2.5-.1 1-.2 1.6-.2 2.6 0 5.4.2 7.7 1.6-.1.1-.4.3-.3.2z"/>
    <path fill="#00AB9F" d="M65.4 86c-2.5-1.2-5.3-1-7.8-1-.5 0-1.1 0-1.6.1-2.6.3-5.1 1.1-7.4 2.7-.6.2-1.1.5-1.4 1.1.1-.8.5-1.2 1-1.4.5-.2 1.1-.4 1.5-.7 2.3-1.6 5-2.2 7.7-2.1H59c2.4.1 4.5.3 6.5 1 .1-.1-.1.2-.1.3z"/>
    <path fill="#00AB9F" d="M65.5 86c-2.6-.4-5.4-.1-7.8.2-.5.1-.9.1-1.4.2-2.9.4-5.7 1.1-8.4 2.2-.5.2-.9.5-1.3.8-2.1 1.5-4 3.6-6.5 4.5-.4.1-.9.2-1.3.3-.5 0-.9 0-1.4-.2l2.1-.3c.4-.1.7-.1 1-.2 2.2-1.3 4.1-3.3 6.3-4.6.4-.3.9-.5 1.4-.7 2-.7 4.1-1.2 6.2-1.6.5-.1 1.1-.2 1.6-.2 3.2-.8 6.4-.8 9.6-.6-.2-.2-.2.1-.1.2zM66.9 87.5c.5 3.6-1.1 7.3-4.4 8.7-.5.3-1 .5-1.6.7-1.7.7-3.7 1.3-5.7 1.6-.6.1-1.3.2-1.9.3-3.3.3-6.3 1-9.5.4-.5-.1-1-.1-1.5-.1s-1 0-1.5-.2h1.5c2.9.2 5.9.2 8.9-.1.6-.1 1.2-.2 1.9-.3 2.5-.3 5-.8 7.1-1.6l1.5-.6c3.4-1.3 6.1-5 5-8.9.1.1.1.1.2.1z"/>
    <path fill="#00AB9F" d="M66.7 87.1c-.4 4-2.5 7.9-6.7 9.4-.4.1-.9.2-1.3.4s-.9.3-1.3.4c-1.4.4-2.8.7-4.2 1.1-.5.2-1 .3-1.6.5.1-.1-.1-.3-.1-.3.9-.2 1.8-.7 2.7-.8.5-.1.9-.2 1.4-.4.5-.1.9-.3 1.4-.4.5-.1.9-.3 1.4-.4 4.6-.9 7.6-5.1 8.1-9.7 0 .1.3.4.2.2zM61.4 85.9c-2 0-4.1.4-6 1.1-.5.2-1 .3-1.4.5-1.4.6-2.8 1.2-4.2 2-.4.2-.8.5-1.2.7-3.1 1.7-6 3.7-9.5 3.9-.4 0-.8.1-1.1.1.4-.2.8-.4 1.3-.5.4-.1.8-.2 1.3-.3 2.3-.6 4.4-1.8 6.6-2.9.4-.2.9-.4 1.3-.7 2.6-1.3 5.2-2.6 7.9-3.4.5-.2 1.1-.3 1.6-.4.9-.1 2.3-.8 3.4-.1z"/>
    <path fill="#00AB9F" d="M66.4 87c-3.5.7-7 1.6-9.6 4l-1.2.9c-1.7 1.2-3.3 2.4-5.1 3.2-.4.2-.9.5-1.3.7-2.2 1-4.6 1.6-7.1 1.3-.5 0-1-.1-1.5-.1-2.7-.2-5.4-.9-7.9-1.9 2.2.3 4.3 1.1 6.5 1.5.4.1.9.1 1.3.2 3.5.3 7.2-.4 10.3-2.1.4-.2.8-.4 1.2-.7.5-.3.9-.7 1.4-1 .5-.3.9-.7 1.4-1 3.2-2.7 7.1-5 11.6-5z"/>
    <path fill="#00AB9F" d="M60.3 86.1c-1.8.5-3.7 1.4-5.2 2.3-.4.2-.8.5-1.3.7-1.3.7-2.5 1.4-3.8 1.9l-1.2.6c-3.1 1.5-6.3 3-9.8 2.7h-1.5c-2-.1-4-.5-5.7-1.4 1.6.5 3.3.9 5 1 .6.1 1.1.1 1.7.1 3 .1 5.9-.7 8.7-1.9.5-.2.9-.4 1.4-.6 2.5-1 4.8-2.9 7.2-4.1.5-.2 1-.5 1.4-.6 1-.5 2-.7 3.1-.7z"/>
    <path fill="#00AB9F" d="M66.5 87c-2.9 3.3-6.8 5.4-10.7 6.9-.5.2-1.1.5-1.6.7-1.1.4-2.1.9-3.2 1.4-.5.2-.9.4-1.4.6-2.4.9-4.9 1.4-7.6 1.3h-1.3c-2.7-.1-5.3-1.1-7.5-2.3 2.4.9 5.1 1.7 7.7 1.9.5.1 1 .1 1.5.1 2.4.1 4.7-.4 6.9-1.3.4-.2.9-.4 1.3-.6 1.3-.7 2.7-1.3 4.1-1.9.5-.2.9-.4 1.4-.6 4-1.1 6.7-4.1 10.4-6.2z"/>
    <path fill="#00AB9F" d="M66.3 86.8c-4.1-.4-8.3.9-11.4 3.9-.5.3-.9.7-1.4 1-1.4 1-2.8 2-4.3 2.8-.5.3-1.1.6-1.6.8-2.6 1.2-5.6 1.7-8.6.8-.6-.1-1.1-.2-1.7-.3-1.7-.3-3.3-.7-4.8-1.2 2.4 0 4.9.5 7.3.9.5.1.9.2 1.3.2 2.6.6 5 .1 7.1-.9.4-.2.9-.4 1.3-.7 2.1-1.5 4-3.3 6.1-4.7l1.2-.9c3-1.7 6.2-2.8 9.7-1.9l-.2.2z"/>
    <path fill="#00AB9F" d="M65.9 86.3c-4.2-1.3-8.2.8-11.2 3.3-.4.3-.9.7-1.4 1-1.4 1-2.7 1.8-4.2 2.4l-1.5.6c-2.5 1-5 1.6-7.7 1.4h-1.4c-2.4-.1-4.8-.5-6.9-1.7 2.3.6 4.6 1.1 6.9 1.3.5 0 .9.1 1.3.1 3.2.2 6.2-.8 9.2-2.1.5-.2.9-.4 1.3-.6 1.8-.7 3.5-2 5.2-3.2l1.2-.9c2.7-2 6.1-3.4 9.2-1.6z"/>
    <path fill="#00AB9F" d="M66.5 86.7c-1.3 3.3-3.2 6.5-6.5 8.2-.5.3-.9.5-1.4.8-1.5.8-3.1 1.4-4.8 1.8-.5.2-1.1.3-1.6.5-3.2.8-6.4 1-9.5.6-.5 0-.9-.1-1.4-.1-2.9-.1-5.9-.7-7.9-2.7 1.8 1.2 3.9 1.8 5.9 2.2.5.1 1 .2 1.6.2 4.3.3 8.6.6 12.9-.9.5-.1 1-.3 1.6-.5 1-.3 1.9-.6 2.8-1.1.4-.2.9-.5 1.3-.7 3-2 5.5-4.8 6.7-8.5-.1.1.3.1.3.2z"/>
    <path fill="#00AB9F" d="M66 87.4c-2.7 2.8-5.3 6.3-9.1 7.7-.4.2-.8.4-1.3.6-.9.4-1.8.8-2.7 1.1-.5.2-1 .4-1.4.5-3.4 1.2-7.1 1.7-10.6.8-.5 0-1-.1-1.4-.1-1.9-.2-3.7-.8-5.5-1.8 2.3.6 4.5 1.2 6.8 1.5.5.1.9.1 1.3.2 3.5.4 6.8-.1 9.8-1.2.4-.2.9-.3 1.3-.5.6-.2 1.1-.4 1.6-.6.5-.2 1.1-.5 1.6-.7 3.9-1.7 6.2-5.3 9.6-7.5z"/>
    <path fill="#00AB9F" d="M66.2 87.2c-3.5 1.5-6.8 3.3-9.9 5-.4.2-.9.5-1.4.7-1.3.8-2.6 1.6-3.8 2.7l-.9.6c-.7.4-1.4.7-2.2.7.7-.3 1.4-.7 2-1.1.3-.2.6-.4 1-.6 1.3-.9 2.7-1.7 4-2.5.5-.3.9-.5 1.3-.8 3.2-1.9 6.4-3.8 9.9-5.1-.1.2-.1.2 0 .4z"/>
  </g>
  <path fill="#00AB9F" d="M51.2 65.1c0 2.1-1.7 3.8-3.9 3.8-2.1 0-3.9-1.7-3.9-3.8 0-2.1 1.7-3.8 3.9-3.8 2.2-.1 3.9 1.7 3.9 3.8"/>
  <path fill="#FFF" d="M45.8 65c0 .7-.4 1.3-.9 1.3s-.9-.6-.9-1.3c0-.7.4-1.3.9-1.3s.9.6.9 1.3"/>
  <path fill="#00AB9F" d="M36.5 67.4l.2-.2c1-.9 5.6-4.6 10.6-4.6 2.9 0 6 1.2 8.8 4.9l.9-1.1c-3-4.1-6.6-5.5-9.8-5.4-6.3 0-11.6 5-11.6 5.1l.9 1.3zM54.9 40.9s4.9 4.4.8 5.2c-4.2.8-10.9-.7-14 0-3 .7-8.9 3-8.9 3l-.4-2.5s8.1-7.7 22.5-5.7zM83.6 64.5c0 2.1 1.7 3.8 3.9 3.8s3.9-1.7 3.9-3.8-1.7-3.8-3.9-3.8-3.9 1.7-3.9 3.8"/>
  <path fill="#FFF" d="M86.5 64.4c0 .7-.4 1.3-.9 1.3s-.9-.6-.9-1.3c0-.7.4-1.3.9-1.3s.9.6.9 1.3"/>
  <path fill="#00AB9F" d="M99.1 65.5s-5.3-5.1-11.6-5.1c-3.2 0-6.7 1.4-9.8 5.4l.9 1.1c2.8-3.7 5.9-4.9 8.8-4.9 2.9 0 5.6 1.2 7.6 2.4 1 .6 1.8 1.2 2.4 1.6.3.2.5.4.6.5l.2.2.9-1.2zM77.3 42.4s-4.8 4.2-.6 5.2c4.2.9 10.9-.3 14 .5 3.1.8 9 3.3 9 3.3l.3-2.5s-8.4-8-22.7-6.5z"/>
  <path opacity=".5" fill="#00AB9F" d="M75.5 35.6s-1-.6-2.6-1.2c-.8-.3-1.8-.6-2.8-.8-1-.2-2.2-.4-3.3-.5-.8-.1-1.7-.1-2.5-.1-1.4 0-2.7.1-3.7.2-1.7.2-2.8.5-2.8.5s1.1.1 2.8.3c.8.1 1.8.1 2.8.2 1 .1 2.1.1 3.2.2 2.2.2 4.4.4 6.1.6 1.6.4 2.8.6 2.8.6M86.2 28.7s-2.1-.6-5.5-1.2c-1.7-.3-3.8-.6-6-.8-2.2-.2-4.6-.4-7-.5-1.8-.1-3.6-.1-5.3-.1-2.9 0-5.7.1-7.9.2-3.6.2-5.9.5-5.9.5s2.4.1 5.9.3c1.8.1 3.8.1 6 .2s4.5.1 6.9.2c4.7.2 9.3.4 12.8.6 3.6.4 6 .6 6 .6"/>
</svg>