<svg xmlns="http://www.w3.org/2000/svg" viewBox="-151 155.3 296.6 291.7">
  <path fill="#FFF" d="M-136.4 247.2h258.3v177.7h-258.3V247.2z"/>
  <path fill="none" stroke="#00AB9F" stroke-width="5.739" stroke-miterlimit="10" d="M-136.4 247.2h258.3v177.7h-258.3V247.2z"/>
  <path fill="#00A78E" d="M-86.2 222.6c-2.9 0-5.3-2.4-5.3-5.3v-53.8c0-2.9 2.4-5.3 5.3-5.3h10.7c2.9 0 5.3 2.4 5.3 5.3v53.8c0 2.9-2.4 5.3-5.3 5.3h-10.7z"/>
  <path fill="#FFF" d="M-75.6 161c1.3 0 2.4 1.1 2.4 2.4v53.8c0 1.3-1.1 2.4-2.4 2.4h-10.6c-1.3 0-2.4-1.1-2.4-2.4v-53.7c0-1.3 1.1-2.4 2.4-2.4h10.6m0-5.8h-10.6c-4.5 0-8.2 3.7-8.2 8.2v53.8c0 4.5 3.7 8.2 8.2 8.2h10.7c4.5 0 8.2-3.7 8.2-8.2v-53.8c-.1-4.5-3.7-8.2-8.3-8.2"/>
  <path fill="#00A78E" d="M57 222.6c-2.9 0-5.3-2.4-5.3-5.3v-53.8c0-2.9 2.4-5.3 5.3-5.3h10.7c2.9 0 5.3 2.4 5.3 5.3v53.8c0 2.9-2.4 5.3-5.3 5.3H57z"/>
  <path fill="#FFF" d="M67.6 161c1.3 0 2.4 1.1 2.4 2.4v53.8c0 1.3-1.1 2.4-2.4 2.4H57c-1.3 0-2.4-1.1-2.4-2.4v-53.7c0-1.3 1.1-2.4 2.4-2.4h10.6m0-5.8H57c-4.5 0-8.2 3.7-8.2 8.2v53.8c0 4.5 3.7 8.2 8.2 8.2h10.7c4.5 0 8.2-3.7 8.2-8.2v-53.8c-.1-4.5-3.7-8.2-8.3-8.2"/>
  <path fill="#00A78E" d="M-115.6 444.1c-17.9 0-32.5-14.6-32.5-32.5V205.7c0-17.9 14.6-32.5 32.5-32.5H-95v44.1c0 4.8 3.9 8.8 8.8 8.8h10.7c4.8 0 8.8-3.9 8.8-8.8v-44.2h115v44.1c0 4.8 3.9 8.8 8.8 8.8h10.7c4.8 0 8.8-3.9 8.8-8.8v-44.1h33.8c17.9 0 32.5 14.6 32.5 32.5v205.9c0 17.9-14.6 32.5-32.5 32.5h-226v.1zm23.8-186.8c-14.8 0-26.8 12-26.8 26.8v102c0 14.8 12 26.8 26.8 26.8H86.5c14.8 0 26.8-12 26.8-26.8v-102c0-14.8-12-26.8-26.8-26.8H-91.8z"/>
  <path fill="#FFF" d="M110.2 176c16.3 0 29.7 13.4 29.7 29.7v205.9c0 16.3-13.4 29.7-29.7 29.7h-225.8c-16.3 0-29.7-13.4-29.7-29.7V205.7c0-16.3 13.4-29.7 29.7-29.7h17.7v41.3c0 6.4 5.2 11.7 11.7 11.7h10.7c6.4 0 11.7-5.2 11.7-11.7V176H45.4v41.3c0 6.4 5.2 11.7 11.7 11.7h10.7c6.4 0 11.7-5.2 11.7-11.7V176h30.7m-202 239.8H86.5c16.3 0 29.7-13.4 29.7-29.7v-102c0-16.3-13.4-29.7-29.7-29.7H-91.8c-16.3 0-29.7 13.4-29.7 29.7v102c0 16.3 13.3 29.7 29.7 29.7m202-245.5H73.6v47c0 3.3-2.7 5.9-5.9 5.9H57c-3.3 0-5.9-2.7-5.9-5.9v-47H-69.6v47c0 3.3-2.7 5.9-5.9 5.9h-10.7c-3.3 0-5.9-2.7-5.9-5.9v-47h-23.5c-19.5 0-35.4 15.8-35.4 35.4v205.9c0 19.5 15.9 35.4 35.4 35.4h225.8c19.5 0 35.4-15.9 35.4-35.4V205.7c0-19.6-15.9-35.4-35.4-35.4m-202 239.8c-13.2 0-23.9-10.7-23.9-23.9v-102c0-13.2 10.7-23.9 23.9-23.9H86.5c13.2 0 23.9 10.7 23.9 23.9v102c0 13.2-10.7 23.9-23.9 23.9H-91.8z"/>
  <path fill="#00A78E" d="M-86.5 294.8h16.6v16.6h-16.6v-16.6z"/>
  <path fill="#D20962" d="M-62.2 294.8h16.6v16.6h-16.6v-16.6zm24.4 0h16.6v16.6h-16.6v-16.6z"/>
  <path fill="#00A78E" d="M-13.4 294.8H3.2v16.6h-16.6v-16.6zm24.3 0h16.6v16.6H10.9v-16.6zm24.4 0h16.6v16.6H35.3v-16.6zm24.3 0h16.6v16.6H59.6v-16.6zm-146.1 21.5h16.6v16.6h-16.6v-16.6zm24.3 0h16.6v16.6h-16.6v-16.6zm24.4 0h16.6v16.6h-16.6v-16.6zm24.4 0H3.2v16.6h-16.6v-16.6zm24.3 0h16.6v16.6H10.9v-16.6zm24.4 0h16.6v16.6H35.3v-16.6zm24.3 0h16.6v16.6H59.6v-16.6zm-146.1 21.5h16.6v16.6h-16.6v-16.6zm24.3 0h16.6v16.6h-16.6v-16.6zm24.4 0h16.6v16.6h-16.6v-16.6zm24.4 0H3.2v16.6h-16.6v-16.6zm24.3 0h16.6v16.6H10.9v-16.6zm24.4 0h16.6v16.6H35.3v-16.6zm24.3 0h16.6v16.6H59.6v-16.6zm-146.1 21.6h16.6V376h-16.6v-16.6zm24.3 0h16.6V376h-16.6v-16.6zm24.4 0h16.6V376h-16.6v-16.6zm24.4 0H3.2V376h-16.6v-16.6zm24.3 0h16.6V376H10.9v-16.6z"/>
  <path fill="#D20962" d="M35.3 359.4h16.6V376H35.3v-16.6z"/>
  <path fill="#00A78E" d="M59.6 359.4h16.6V376H59.6v-16.6zm-146.1 21.5h16.6v16.6h-16.6v-16.6zm24.3 0h16.6v16.6h-16.6v-16.6zm-5.9-116.5c.1 0 .3-.1.5-.1s.4-.1.7-.1c.3 0 .6.1.8.2s.4.4.6.8l5.5 15.1h-2.2l-1.6-4.3h-6.5l-1.6 4.3H-74l5.9-15.9zm3.8 9.9l-2.7-7.7-2.7 7.7h5.4zm6.6-5.3h.5c.4 0 .7.1 1 .3.3.2.5.5.6.9.3-.4.7-.7 1.3-.9.5-.3 1.2-.4 2-.4.6 0 1.2.1 1.8.3.6.2 1 .5 1.5 1 .4.5.8 1 1 1.8.2.7.4 1.6.4 2.7 0 1.2-.1 2.2-.4 3-.3.8-.7 1.4-1.2 1.9s-1 .8-1.6 1c-.6.2-1.1.3-1.7.3-.9 0-1.5-.1-2-.4-.5-.3-.8-.6-1-.8v6.1h-2V269zm2.1 8.6c.1.1.2.3.4.4.2.2.4.3.6.4.2.1.5.2.8.3.3.1.6.1.9.1 1 0 1.8-.4 2.3-1.1.5-.7.7-1.8.7-3.2 0-.6-.1-1.1-.2-1.6s-.3-1-.5-1.3c-.2-.4-.5-.7-.9-.9-.4-.2-.9-.3-1.5-.3-.8 0-1.4.2-1.9.5s-.8.7-.8 1.2v5.5zm10.9-8.6h.5c.4 0 .7.1 1 .3.3.2.5.5.6.9.3-.4.7-.7 1.3-.9.5-.3 1.2-.4 2-.4.6 0 1.2.1 1.8.3.6.2 1 .5 1.5 1 .4.5.8 1 1 1.8.2.7.4 1.6.4 2.7 0 1.2-.1 2.2-.4 3-.3.8-.7 1.4-1.2 1.9s-1 .8-1.6 1c-.6.2-1.1.3-1.7.3-.9 0-1.5-.1-2-.4-.5-.3-.8-.6-1-.8v6.1h-2V269zm2 8.6c.1.1.2.3.4.4.2.2.4.3.6.4.2.1.5.2.8.3.3.1.6.1.9.1 1 0 1.8-.4 2.3-1.1.5-.7.7-1.8.7-3.2 0-.6-.1-1.1-.2-1.6s-.3-1-.5-1.3c-.2-.4-.5-.7-.9-.9-.4-.2-.9-.3-1.5-.3-.8 0-1.4.2-1.9.5s-.8.7-.8 1.2v5.5zm20.8-2.9c0 .8-.1 1.5-.3 2.3-.2.7-.5 1.4-.9 1.9-.4.6-1 1-1.6 1.3-.7.3-1.5.5-2.4.5-.9 0-1.8-.2-2.4-.5-.7-.3-1.2-.7-1.6-1.3-.4-.5-.7-1.2-.9-1.9s-.3-1.5-.3-2.3c0-.8.1-1.6.3-2.3.2-.7.6-1.3 1-1.9.4-.5 1-1 1.7-1.3.7-.3 1.4-.5 2.3-.5.9 0 1.7.2 2.4.5s1.2.7 1.6 1.3c.4.5.7 1.2.9 1.9.1.7.2 1.5.2 2.3zm-2.1 0c0-.5 0-1-.1-1.5s-.2-.9-.5-1.3c-.2-.4-.5-.7-.9-.9-.4-.2-.9-.4-1.6-.4-.6 0-1.1.1-1.5.4-.4.2-.7.6-1 .9-.2.4-.4.8-.5 1.3s-.2 1-.2 1.5 0 1 .1 1.5.3 1 .5 1.4c.2.4.6.8 1 1 .4.3.9.4 1.5.4s1.2-.1 1.6-.4c.4-.3.7-.6 1-1 .2-.4.4-.9.5-1.4 0-.5.1-1 .1-1.5zm4.7-9.3c0-.4.1-.7.4-1 .2-.3.6-.4.9-.4.4 0 .7.1.9.4s.4.6.4 1-.1.7-.4.9-.6.4-.9.4c-.4 0-.7-.1-.9-.4-.3-.3-.4-.6-.4-.9zm.3 3.5h.5c.5 0 .9.1 1.2.4.3.2.4.7.4 1.3v7.6c0 .5.1.8.2 1 .1.2.5.3.9.3v.9c-.1 0-.3.1-.6.1h-.7c-.5 0-.8-.1-1.1-.2-.2-.1-.4-.3-.6-.6-.1-.2-.2-.5-.2-.8v-10zm5.9.1h.4c.4 0 .7.1 1 .3.3.2.5.5.5.9.4-.4.9-.7 1.5-1 .6-.3 1.4-.4 2.2-.4 1.1 0 1.9.2 2.5.7.6.5 1 1.1 1.1 1.8.1.3.1.7.1 1.1v7.9h-2v-7.6c0-.3-.1-.5-.1-.8-.1-.4-.4-.7-.7-1-.3-.2-.9-.3-1.5-.3-.5 0-.9 0-1.2.1-.4.1-.7.2-.9.4s-.5.3-.6.6c-.1.2-.2.4-.2.6v8h-2V269zm12.9-3.4h.5c.5 0 .9.1 1.2.4.3.2.4.7.4 1.3v1.8h3.6v1.7H1.9v6.2c0 1.3.5 2 1.6 2 .3 0 .5 0 .7-.1l.6-.3c.2-.1.3-.2.4-.3l.2-.2c.2.2.4.5.5.7.1.2.2.4.2.6 0 .1-.1.3-.2.5s-.3.3-.6.5c-.3.1-.6.3-.9.4s-.8.1-1.2.1c-.8 0-1.5-.2-2-.5s-.8-.8-1.1-1.3c-.1-.3-.2-.6-.2-1v-12.5zm8.6 3.4h.5c.4 0 .8.1 1 .3.3.2.4.5.5.9.4-.4.9-.7 1.5-1 .6-.3 1.3-.4 2.1-.4.3 0 .6 0 .9.1.3.1.6.1.9.3.3.1.6.3.8.5.2.2.4.4.6.7.4-.4.9-.7 1.5-1s1.4-.4 2.2-.4c1.1 0 1.9.2 2.4.7.6.5.9 1.1 1.1 1.8.1.3.1.7.1 1.1v7.9h-2v-7.6c0-.3-.1-.5-.1-.8-.1-.4-.3-.7-.7-1-.3-.2-.9-.3-1.6-.3-.5 0-1 .1-1.5.3-.5.2-.8.5-1 .7 0 .3.1.6.1.9v7.7h-2v-7.6c0-.3-.1-.6-.2-.8-.3-.8-1-1.2-2.2-1.2-.4 0-.7 0-1 .1-.3.1-.6.2-.9.4-.3.2-.5.3-.6.5-.2.2-.2.4-.2.6v8h-2V269zm21.1 6.1c0 1.2.4 2.1.9 2.8.6.7 1.4 1.1 2.6 1.1.4 0 .8 0 1.2-.1.4-.1.7-.2.9-.3.3-.1.5-.3.6-.4l.4-.4c.2.2.3.5.5.7.1.3.2.5.2.6 0 .1 0 .3-.1.4-.1.1-.2.3-.4.4-.4.3-.8.5-1.4.7s-1.3.3-2.1.3-1.5-.1-2.1-.3c-.7-.2-1.2-.6-1.7-1-.5-.5-.9-1.1-1.2-1.9-.3-.8-.4-1.7-.4-2.8 0-1 .1-1.9.4-2.6.3-.7.7-1.3 1.2-1.8s1-.8 1.6-1c.6-.2 1.3-.3 1.9-.3.8 0 1.5.1 2.1.4.6.3 1.1.6 1.4 1.1s.6 1 .8 1.6c.2.6.3 1.2.3 1.9v.7c0 .2 0 .5-.1.7h-7.5zm5.6-1.5c0-.4 0-.8-.1-1.2-.1-.4-.2-.7-.4-1s-.5-.5-.8-.7-.8-.2-1.3-.2c-.8 0-1.5.3-2.1.8-.5.5-.8 1.3-.9 2.3h5.6zM40 269h.4c.4 0 .7.1 1 .3.3.2.5.5.5.9.4-.4.9-.7 1.5-1 .6-.3 1.4-.4 2.2-.4 1.1 0 1.9.2 2.5.7.6.5 1 1.1 1.1 1.8.1.3.1.7.1 1.1v7.9h-2v-7.6c0-.3-.1-.5-.1-.8-.1-.4-.4-.7-.7-1-.3-.2-.9-.3-1.5-.3-.5 0-.9 0-1.2.1-.4.1-.7.2-.9.4s-.5.3-.6.6-.2.4-.2.6v8h-2V269zm13-3.4h.5c.5 0 .9.1 1.2.4.3.2.4.7.4 1.3v1.8h3.6v1.7H55v6.2c0 1.3.5 2 1.6 2 .3 0 .5 0 .7-.1l.6-.3c.2-.1.3-.2.4-.3l.2-.2c.2.2.4.5.5.7.1.2.2.4.2.6 0 .1-.1.3-.2.5s-.3.3-.6.5c-.3.1-.6.3-.9.4s-.8.1-1.2.1c-.8 0-1.5-.2-2-.5s-.8-.8-1.1-1.3c-.1-.3-.2-.6-.2-1v-12.5zm14.7 6.1c-.3-.3-.7-.6-1.2-.9-.5-.2-1.1-.4-1.7-.4-.2 0-.4 0-.7.1s-.5.1-.7.2c-.2.1-.4.3-.5.4-.1.2-.2.4-.2.7 0 .3.1.5.2.6l.5.5s.5.2.8.3l.9.3c.5.1.9.3 1.4.4s.8.4 1.2.6c.3.3.6.6.8 1 .2.4.3.9.3 1.5s-.1 1.1-.4 1.5c-.2.4-.6.8-1 1.1-.4.3-.9.5-1.4.7-.5.2-1.1.2-1.7.2-.6 0-1.1 0-1.5-.1-.4-.1-.8-.2-1.1-.3-.4-.2-.7-.3-.8-.5s-.2-.3-.2-.5.1-.4.2-.6c.1-.2.3-.5.4-.8.1.1.3.2.5.3.2.1.4.3.7.4l.9.3s.7.1 1.1.1c.3 0 .6 0 .8-.1.3-.1.5-.1.7-.3.2-.1.4-.3.5-.5.1-.2.2-.5.2-.8s-.1-.6-.2-.8c-.1-.2-.3-.4-.6-.5s-.5-.3-.8-.3c-.3-.1-.6-.2-.9-.2-.5-.1-.9-.2-1.3-.4s-.8-.4-1.1-.6-.6-.6-.8-.9-.3-.8-.3-1.4c0-.5.1-1 .3-1.4.2-.4.5-.7.9-1 .4-.3.8-.5 1.3-.6s1-.2 1.5-.2c.6 0 1.2.1 1.7.2s.9.3 1.2.5c.3.2.5.3.6.5.1.2.2.3.2.4 0 .2 0 .4-.1.6-.1.2-.2.5-.3.7h-.3z"/>
</svg>