<svg xmlns="http://www.w3.org/2000/svg" xmlns:xlink="http://www.w3.org/1999/xlink" width="239.9" height="143.6" viewBox="0 0 239.9 143.6"><defs><path id="a" d="M16.67 143.63L-.034 33.992 223.194-.012l16.702 109.635z"/></defs><clipPath id="b"><use xlink:href="#a" overflow="visible"/></clipPath><path clip-path="url(#b)" fill="#5F78BB" d="M22.5 141.3S-28.3 48.9 74.8 27.6C177.9 6.2 177.4 90.1 177.4 90.1s66.4-6.1 59 1.7c-28.2 30.1-213.9 49.5-213.9 49.5"/><path clip-path="url(#b)" fill="none" stroke="#FFF" stroke-width="3.645" stroke-miterlimit="10" d="M65.7 124.2c109.2-13 111.7-34.1 111.7-34.1"/><path clip-path="url(#b)" fill="#FFF" d="M83.3 26.2c.4 2.7-2.4 5.3-6.2 5.9-3.8.6-7.2-1.1-7.6-3.8-.4-2.7 2.4-5.3 6.2-5.9 3.8-.5 7.2 1.2 7.6 3.8"/><path clip-path="url(#b)" fill="none" stroke="#FFF" stroke-width="1.825" stroke-miterlimit="10" d="M72.5 32.2s-23.4 7.9-6.9 92"/></svg>