<svg xmlns="http://www.w3.org/2000/svg" width="354.1" height="717.3" viewBox="0 0 354.1 717.3">
  <path fill="#FFF" d="M0 409.2l34.9 10.7c1.1.2 7.4 3.5 8.4 3l15.9-10c.5-.3 4-1.8 4.5-1.9l71.6 7.8c.3 0 12.7-4.7 12.9-4.8 0 0 44.8-66.1 42.7-69.1l-41.5 6c-1.6-2.3-9.1 20.6-9.1 20.6-.3.2-8.1 17.1-12.3 20.1L54.2 396l-1.2.3-27 3.5c-4.8 0-9.1 1-7.4 5.2l2.4.5 14.7 2.8-4.2-.9c-1.5 1.9-3.9.1-6.3.2-1.9.1-20-4.8-21.5-4.8L0 409.2zM239.3 717s-2.7-20.9-45.6-19.1c-42.8 1.8-46.2 15.7-47.8 19.4m200.2-.3s-2.8-20.9-45.6-19.1c-42.8 1.8-46.2 15.7-47.8 19.4"/>
  <path fill="#FFF" d="M192.9 717.1l-8.1-231h120.3l-2.7 231h-49.2V529.9c0-4.9-1.8-8.9-7.3-8.9s-7.3 4-7.3 8.9v187.2h-45.7zm38.7-483.9s.6 20.8-9.2 26.5c-8.8 5.2-12.8 6.3-12.8 6.3s43.1 17.3 77.6 3.3c-18.6-5-17.3-11.4-17.3-11.4l-3.3-21.5-35-3.2zM352.4 358l-43.2 10-4.7-20.4 5 49.9c.6 8.5 1 36.1-1 61l-4.2 33.2h-118l-4.3-39c-1.3-20.5.1-51.1.9-59l6.8-46.6-5.7 19.2-41.3-9.8s4.4-15.1 19.2-47.2c14.8-32.1 47.7-43.3 47.7-43.3l39.7 6.4 37.9-3.1s35.1 8.8 50 40.9c14.8 32.1 14.8 47.5 14.8 47.5"/>
  <path fill="#FFF" d="M314.9 503.6c-1.7 3.5-2.3 7 2.1 7l1.3-1.7 7.7-10 2 2.9c1.2 1.7 1.4 3.7.6 5.6-.6 1.4-1.3 3.1-1.8 4.2-.4.8-1 1.5-1.9 2.1l-5.2 3.4c-1.3.9-.7 1.9-.4 3l.7.7c1.1 1 2.9 1.2 4.3.3l5.8-3.9c.5-.1 1.1-.4 1.4-.8l9.2-13.2c.5-.8 1.5-4.5 1.4-5.4l-3.4-14.6c-.1-.4-.2-3.4-.1-3.9l15.6-61.6.3-10.9s-3.6-54.7-7-54.1l-33.5 6.6c-2.6.5 9.7 39.9 9.7 39.9 0 .3 2.6 9.3 3.5 16l-5.5 66.8c0 .3-.1.6-.2.9l-6.6 20.7z"/>
  <path fill="none" stroke="#00A78E" stroke-width="2.595" stroke-miterlimit="10" d="M352.4 358l-43.2 10-4.7-20.4 5 49.9c.6 8.5 1 36.1-1 61l-4.2 33.2h-118l-4.3-39c-1.3-20.5.1-51.1.9-59l6.8-46.6-5.7 19.2-41.3-9.8s4.4-15.1 19.2-47.2c14.8-32.1 47.7-43.3 47.7-43.3l39.7 6.4 37.9-3.1s35.1 8.8 50 40.9c14.8 32.1 14.8 47.5 14.8 47.5"/>
  <path fill="#FFF" d="M319.2 141.9s2.4-21.8 9.2-15.7c5.6 5 8.2 28.3 4.8 44.6-1.5 7.3-10.2 15.4-13.8 11.9-3.6-3.6-.2-40.8-.2-40.8"/>
  <path fill="none" stroke="#00A78E" stroke-width="2.595" stroke-miterlimit="10" d="M319.2 141.9s2.4-21.8 9.2-15.7c5.6 5 8.2 28.3 4.8 44.6-1.5 7.3-10.2 15.4-13.8 11.9-3.6-3.6-.2-40.8-.2-40.8"/>
  <path fill="#FFF" d="M174 138.2s-3.2-21.7-10.4-15.4c-7.5 6.6-6.8 34.5-4.2 44.7 1.8 7.2 11.4 15.2 15.3 11.5 3.9-3.7-.7-40.8-.7-40.8"/>
  <path fill="#FFF" stroke="#00A78E" stroke-width="2" stroke-miterlimit="10" d="M170.6 107.5c.1 7.6-4.9 68.9 16.4 95.8 12.1 15.3 29.2 30 39 32.3 16.1 3.8 26.5 6.6 40.7 3.6 14.2-3 35-17.9 47.9-46.5 6.1-13.6 22.8-120.5-8-150.7-20.2-19.8-64.4-17.3-81.6-16.5-17 .6-55.1 6.7-54.4 82"/>
  <path fill="#00A78E" d="M269.1 138.8c.7 4.1 4.6 6.9 8.7 6.2 4.2-.7 7-4.5 6.3-8.6-.7-4.1-4.6-6.9-8.7-6.2-4.1.6-7 4.5-6.3 8.6"/>
  <path fill="#00A78E" d="M306.5 131.4c-.1 0-11.9-8.1-24.1-6.2-6.2 1-12.6 4.8-17.2 13.6l2.2 1.9c4.3-8.1 9.9-11.4 15.6-12.3 5.6-.9 11.2.5 15.4 2.2 2.1.8 3.9 1.7 5.1 2.4.6.3 1.1.6 1.4.8l.5.3 1.1-2.7z"/>
  <path fill="#FFF" d="M274.7 137.8c.2 1.4-.4 2.7-1.3 2.9-1 .2-1.9-.9-2.2-2.3-.2-1.4.4-2.7 1.3-2.9 1-.2 1.9.8 2.2 2.3"/>
  <path fill="#00A78E" d="M206.6 137.4c.8 4.1-1.9 8-6.1 8.8-4.1.8-8.1-1.9-8.9-5.9-.8-4.1 1.9-8 6.1-8.8 4.1-.8 8.1 1.9 8.9 5.9"/>
  <path fill="#00A78E" d="M189.1 142.1l.3-.5c1.6-2.1 9.1-10.9 18.8-12.7 5.7-1.1 12.1.1 18.9 6.2l1.4-2.5c-7.4-6.7-14.6-8.1-20.8-6.9-12.1 2.4-20.4 14-20.5 14.1l1.9 2.3z"/>
  <path fill="#FFF" d="M196.1 139.3c.3 1.4-.3 2.7-1.2 2.9-1 .2-2-.8-2.2-2.2-.3-1.4.3-2.7 1.2-2.9 1-.2 2 .8 2.2 2.2"/>
  <path fill="#00A78E" d="M226.9 87.6s10.9 7.1 3 9.8c-7.8 2.8-21.4 1.9-27.1 4.1-5.7 2.2-16.5 8.4-16.5 8.4l-1.5-4.7c.2 0 13.6-17.3 42.1-17.6m43.7 7.3s-9.4 8.3-1.2 10.1c8.2 1.8 21.4-.6 27.4.9s17.8 6.4 17.8 6.4l.6-4.9s-16.5-15.5-44.6-12.5m-29.3 77.9s.6.1 1.7.3c1.1.2 2.5.4 4.3.7 1.8.2 3.9.4 5.9.2.5-.1 1-.2 1.4-.3.4-.2.8-.4 1-.6.1-.1.1-.1.1-.2.1-.1.1-.1.1-.2l.1-.1s-.1.2 0 .1v-.2l.1-.4.1-.4v-.4l.1-.7c.1-1.1.1-2.3.1-3.5 0-1.2 0-2.3-.1-3.4-.1-2.3-.3-4.4-.4-6.2-.1-1.8-.2-3.3-.2-4.4 0-1.1-.1-1.7-.1-1.7s.9 2.3 1.8 5.9c.2.9.4 1.9.6 2.9.2 1 .4 2.1.5 3.3.1 1.1.3 2.3.3 3.6.1 1.2.1 2.5 0 3.8-.1.7-.2 1.5-.4 2l-.1.4v.3l-.1.3-.3.6c-.1.2-.3.4-.4.5-.6.6-1.3 1-2 1.2-.7.2-1.3.3-2 .3-1.3.1-2.4-.1-3.5-.3-1.1-.2-2-.4-2.9-.7-1.8-.5-3.2-1.2-4.2-1.6-1-.7-1.5-1.1-1.5-1.1m-12.4 33.5s22.9 7.4 41 .3c-2.3 5.4-25.7 16.1-41-.3"/>
  <path fill="#00A78E" d="M167.5 120.9s-14.2-36.6-11.3-51.3c2.9-14.7 10.1-27.9 35.9-51.3C209 3 238.8.3 242.1 4.1c5 5.7 13.8 8.2 20.1.9 6.3-7.3 28.6-2.6 25.8 3.3 11.9-6.9 20.2 5.8 20.2 5.8s44.8 5.7 20.3 121.7l-4.7 21.8c-9.1.6-1-13.5.4-56.3 1.9-59-52.8-46.1-73-48.3-24.5-2.7-65.7-6-73 25.7-7.4 31.6-4 74.2-4 74.2l-6.8 6.9v-38.9z"/>
  <path fill="none" stroke="#FFF" stroke-width="2.595" stroke-miterlimit="10" d="M167.5 120.9s-14.2-36.6-11.3-51.3c2.9-14.7 10.1-27.9 35.9-51.3C209 3 238.8.3 242.1 4.1c5 5.7 13.8 8.2 20.1.9 6.3-7.3 28.6-2.6 25.8 3.3 11.9-6.9 20.2 5.8 20.2 5.8s44.8 5.7 20.3 121.7l-4.7 21.8c-9.1.6-1-13.5.4-56.3 1.9-59-52.8-46.1-73-48.3-24.5-2.7-65.7-6-73 25.7-7.4 31.6-4 74.2-4 74.2l-6.8 6.9v-38.9z"/>
  <path fill-rule="evenodd" clip-rule="evenodd" fill="#00A78E" d="M332.9 117.7c-.8-.9-3.5-1.4-4.7-1.6-5.6-1-11.6-1.1-17.3-1.7-7.9-.7-16-.8-23.9-.4-7 .4-13.9 1.7-20.6 3.6-6 1.7-12.2 4.3-18.5 4.5v9c1.7 0 3.1.1 4.2 1.3 2.9 3.1 4.1 9.9 6.8 16.2 4.1 9.5 9.9 16.2 19.4 20 12.4 4.9 31.7 3.5 40.6-8.1 2.4-3.1 4.1-7 5.1-11.1 1.5-5.8 1.9-11.9 3-16.2.4-1.5 1-3 2-4.2.9-1 2.5-1 3.2-2.2.5-.9.6-2.6.7-3.6 0-1.5 1.1-4.2 0-5.5m-11.9 22c-.8 8.5-4.3 17.5-11.6 22.5-8.1 5.6-20 5.4-28.9 2.2-6.7-2.4-11.2-7.4-14.5-13.6-1.3-2.4-2.1-5.3-2.9-7.9-1.4-4.9-2.1-10.6.5-15.2 1.5-2.5 3.9-4.4 6.7-5.7 2.5-1.2 5.3-2 7.8-2.4 5.9-1 12.2-1.2 18.1-1 7.5.2 14.7.6 20.4 6 4.2 3.8 4.8 9.8 4.4 15.1m3.9-16.6c-1-.1-3.2-.4-3.9-1.1-1.4-1.6 2.7-1.5 3.9-1.5 1 .1 3.1.3 3.8 1.1 1.6 1.6-2.6 1.6-3.8 1.5"/>
  <path fill-rule="evenodd" clip-rule="evenodd" fill="#00A78E" d="M163 123.2c.1 1 .2 2.8.7 3.6.7 1.3 2.3 1.3 3.2 2.2 1.1 1.2 1.7 2.7 2 4.2 1 4.3 1.5 10.3 3 16.2 1 4 2.7 7.9 5.1 11.1 8.9 11.6 28.1 13 40.6 8.1 9.5-3.8 15.3-10.5 19.4-20 2.7-6.2 3.9-13.1 6.8-16.2 1.1-1.2 2.5-1.2 4.2-1.3v-9c-6.3-.3-12.5-2.8-18.5-4.5-6.8-1.9-13.6-3.2-20.6-3.6-7.9-.4-16-.3-23.9.4-5.7.5-11.7.6-17.3 1.7-1.2.2-3.9.7-4.7 1.6-1.3 1.3-.2 4 0 5.5m15.9 1.3c5.7-5.4 12.9-5.8 20.4-6 6-.1 12.3.1 18.1 1 2.5.4 5.3 1.2 7.8 2.4 2.8 1.3 5.3 3.2 6.7 5.7 2.6 4.6 1.9 10.3.5 15.2-.7 2.6-1.6 5.5-2.9 7.9-3.3 6.2-7.8 11.2-14.5 13.6-8.9 3.2-20.8 3.4-28.9-2.2-7.3-5-10.8-14-11.6-22.5-.2-5.2.4-11.2 4.4-15.1m-11.9-2.9c.7-.8 2.8-1 3.8-1.1 1.2-.1 5.4-.1 3.9 1.5-.7.8-2.9 1.1-3.9 1.1-1.2.1-5.4.1-3.8-1.5"/>
  <path fill="#00AB9F" d="M254.2 180.4c-3.2 4.1-3.2 10.5-.2 14.7 3.5 5.1 12.2 7.1 18.5 7.8 7.3.9 15.4.3 22.6-1.1 5.6-1.1 10.3-3.9 11.6-8.9 0-.2-.2-.4-.4-.3-4.7 3.1-12.2 1.3-16.2-1.7-4.2-3.1-7.2-7.1-11.9-9.8-7-4-17.7-7.2-24-.7-.2.2.2.5.4.3 8.1-8.4 23.2-.5 29.8 5.7 2.9 2.8 5.6 5.9 9.8 7.4 3.1 1.1 8.2 1.4 11.2-.1 1-.5.5-.1.2.7-.5 1.4-1.6 2.7-2.8 3.7-2.1 1.8-5.1 2.6-7.8 3.3-6 1.3-12.6 1.5-18.8 1.3-7.1-.2-14.8-2-20.1-6.2-4.7-3.7-4.7-11.5-1.4-15.9.2-.2-.3-.5-.5-.2"/>
  <path fill="#00A78E" d="M252.8 179.2c2.4-1.4 5-2 7.7-2.2.9-.1 1.8 0 2.7 0 3.4.2 6.9 1 10.4 2.2-2.3-1.6-5.1-1.6-7.5-2.3-.8-.1-1.5-.2-2.3-.3-3.9-.3-7.7.2-11.3 2.2 0 .1.4.5.3.4"/>
  <path fill="#00A78E" d="M252.1 180c2.9-1.4 6.2-1.7 9.5-1.5.8 0 1.6.1 2.4.1 4.3.1 8.9.8 12.8 2.7.8.4 1.6.8 2.3 1.3 1.6.6 2.7 2.5 4.7 2.9-1.6-2-3.9-2.7-6.1-4.3-.8-.4-1.7-.8-2.6-1.1-4.5-1.5-9.4-1.8-14.2-2-.8-.1-1.6-.1-2.4-.1-2.4 0-4.7.4-6.9 1.6.1.1.5.4.5.4m-.2.1c1.7-.3 3.4-.4 5.1-.3.8 0 1.7.1 2.5.2 5.8.3 11.7.8 17.1 2.8.8.3 1.5.5 2.2.8 2.2.6 4.1 1.7 5.8 3.1.6.5 1.2.9 1.7 1.4 3.7 3.3 8 8.8 13.8 7.2-5.5-.4-9-4.3-13.1-7.2-.6-.5-1.3-1-1.9-1.5-2.6-1.9-5.4-3.5-8.7-4.4-.8-.3-1.6-.5-2.3-.7-3.9-1-8.1-1.4-12.2-1.9-.8-.1-1.7-.2-2.5-.3-2.6-.3-5.1-.2-7.8.7.1 0 .5 0 .3.1m-2.4 2.7c-1.5 6.2 2.2 11.7 7.3 14.8.7.4 1.5.8 2.3 1.1 3.5 1.3 7 3.3 10.9 3.4.9.2 1.8.3 2.7.5 5.2 1.1 10 1.6 15 1 .7-.1 1.3-.1 2-.2h4.6c-2.7-.8-5.5-.8-8.3-.2-.8.1-1.6.1-2.4.1-4 0-8.1-.5-12.1-1.4-.6-.1-1.1-.2-1.7-.3-2.4-.5-4.8-1.2-7.2-2-1-.4-1.9-.8-2.8-1.2-6.9-2.3-10.4-8.6-10.3-15.6"/>
  <path fill="#00A78E" d="M249.8 182.1c.3 4.6 2.3 9.3 5.8 12.5.6.5 1.2 1 1.9 1.5 3.5 2.2 7.2 3.8 11 4.8.8.2 1.5.4 2.3.6 1.6.4 3.2.4 4.3 1.2-2.3-.8-4.3-1.6-6.7-2.4-.8-.2-1.6-.5-2.4-.7-3.2-1-6.2-2.2-9.1-4-.7-.5-1.3-1.1-1.8-1.7-2.8-3.3-4.3-7.7-5.3-11.8m9.8-2c3.7.6 7.5 1.1 11.2 2.3.9.3 1.8.6 2.7 1 4.6 2 8.8 4.8 13.2 7.3.7.4 1.3.8 1.9 1.1 3.1 1.6 6.6 4.3 10.5 3.5-3.5-.8-7-2-10.2-4.1-.7-.4-1.3-.8-2.1-1.2-4-2.3-7.9-4.7-12.3-6.4-.8-.4-1.6-.7-2.4-1-4-1.6-8.3-2.6-12.8-2.8l.3.3m-9.2 1.8c1.5.5 3 .9 4.6 1.3.8.2 1.5.4 2.2.6 4.3.5 7.7 2.9 10.9 5.5.6.5 1.3 1.1 1.9 1.6 3.4 3.4 7.6 5.8 12.1 7.2.9.3 1.8.5 2.8.7 7.2 1.6 16.6 3.6 22.5-2.3-6.6 4.3-15.3 3.9-22.7 1.7-.9-.2-1.8-.5-2.6-.8-4.3-1.5-8.3-4-11.7-7.2-.5-.5-1.1-1-1.6-1.5-.6-.5-1.1-1-1.6-1.6-3.1-2.3-7.4-3.1-11.1-4.4-.9-.3-1.8-.5-2.7-.7-.9-.2-1.8-.5-2.7-.7-.1.3-.1.3-.3.6"/>
  <path fill="#00A78E" d="M261.7 180.6c2.7.8 5.2 2 7.6 3.2.8.4 1.6.9 2.4 1.3 3.7 2 7.3 4 11 5.8.7.4 1.5.7 2.2 1.1 7.4 3.3 17.6 6.4 24.2.5-7 4.7-17.2 3.1-24-1.5-.7-.3-1.4-.7-2.2-1.1-3.6-1.8-7.1-3.8-10.7-5.8-.8-.4-1.6-.9-2.5-1.3-2.5-1.2-5.1-2.2-7.9-3 .1.2.1.6-.1.8"/>
  <path fill="#00A78E" d="M250.3 181.8c.9 1.5 2 2.8 3.3 3.8.7.5 1.3 1 2.1 1.4 4.2 2.4 8.3 4.9 12.6 7 .7.4 1.4.7 2 1 3.6 2.1 7.5 3.6 11.5 4.6.8.2 1.6.4 2.4.5 7.4 1.8 16 2.2 22.6-2.1-6.3 2.7-13.3 3.5-19.8 2.2-.8-.1-1.7-.3-2.5-.4-6-1.2-11.7-3.8-17.1-6.9-.7-.4-1.5-.8-2.2-1.2-2.2-1.2-4.4-2.5-6.5-3.7-.7-.4-1.3-.8-2-1.2-2.4-1.5-4.6-3-6.4-5m.2-.3c3.1-.5 6-.3 8.8.5.9.2 1.6.4 2.4.7 2.9.8 5.3 2.2 7.6 4 .8.6 1.5 1.2 2.2 1.8 3.7 4.3 8.6 7.7 14 9.2l2.1.6c6.8 1 14.2 1.4 20.1-2.1-7 2.3-14.9 3.1-21.8.7-.8-.2-1.5-.5-2.3-.8-3.9-1.6-7.4-4-10.5-7-.6-.5-1.2-1-1.9-1.6-2.9-2.3-5.9-4.4-9.7-5.4-.8-.2-1.6-.5-2.5-.7-2.8-.9-5.7-.9-8.5.1"/>
  <path fill="#00A78E" d="M251.1 180.5c2.4-.6 4.9-.8 7.3-.5.8.1 1.6.3 2.3.4 2.8.9 5.2 2.3 7.5 4 .8.6 1.6 1.1 2.3 1.7 4.4 3.4 9.3 6 14.6 7.8.9.3 1.6.6 2.3.8 6.8 2.8 15.4 3.2 21.7-1.1-7 3.1-14.9 3.9-21.7.7-.7-.3-1.4-.6-2.2-.9-4.9-2-9.5-4.8-13.9-7.6-.7-.5-1.4-1-2.1-1.4-2.1-1.4-4.3-2.8-6.7-3.9-.7-.2-1.3-.4-2.1-.6-3-.8-6.2-.8-9.3.6m-.9.9c.7 2.7 1.9 5.2 3.4 7.3.5.7 1.1 1.4 1.7 2.1 3.8 4.2 8.8 7.4 14.2 9.1.8.3 1.5.5 2.2.7 5.3 1.5 10.5 2.4 15.8 2 .9-.1 1.6 0 2.4-.1 6-.3 12.3.1 16.6-4.2-5.5 3.1-11.3 3.9-17.5 3.7-.7 0-1.4 0-2.2.1-6.4.4-13.1-.9-19.1-3.2-.8-.3-1.5-.6-2.3-1-3.7-1.8-7-4.4-9.6-7.7-.6-.7-1.1-1.4-1.6-2.1-1.5-2.2-2.7-4.5-3.6-7 0 .1-.4.5-.4.3"/>
  <path fill="#00A78E" d="M250.9 182.6c1.8 1.7 3.5 3.5 5.3 5.4.6.6 1.1 1.2 1.6 1.8 2 2.4 4.3 4.2 6.9 5.7.9.5 1.7.9 2.6 1.4 5.5 2.7 11.6 4.7 17.7 5.1.9.1 1.7.1 2.6.1 6-.1 12.3.3 17.8-2.8-5.1 1.6-10.2 2.7-15.7 2.5h-2.5c-5.7.2-11.4-1.4-16.7-4-.8-.4-1.5-.8-2.3-1.3-4.8-2.6-9-6.4-13.1-10.3-.7-.6-1.4-1.3-2-2-.6-.7-1.2-1.4-1.7-2.2-.1.4-.5.4-.5.6"/>
  <path fill="#00A78E" d="M250.7 182.2c.8.4 1.5.8 2.3 1.2.8.4 1.6.8 2.4 1.1 4.6 2.2 9.3 4.7 13.9 7.3.8.4 1.4.8 2 1.3 3.5 2.2 6.6 5 10.5 6.5-3.9-3.1-8.6-4.7-12.3-8.3-.7-.5-1.5-.9-2.2-1.4-3.8-2.3-7.5-4.5-11.6-6.1-.8-.3-1.7-.6-2.5-.9-.8-.3-1.6-.5-2.5-.7"/>
  <path fill="#00AB9F" d="M249.7 180.4c3.2 4.1 3.2 10.5.2 14.7-3.5 5.1-12.2 7.1-18.5 7.8-7.3.9-15.4.3-22.6-1.1-5.6-1.1-10.3-3.9-11.6-8.9 0-.2.2-.4.4-.3 4.7 3.1 12.2 1.3 16.2-1.7 4.2-3.1 7.2-7.1 11.9-9.8 7-4 17.8-7.2 24-.7.2.2-.2.5-.4.3-8.1-8.4-23.2-.5-29.8 5.7-2.9 2.8-5.6 5.9-9.8 7.4-3.1 1.1-8.2 1.4-11.2-.1-1-.5-.5-.1-.2.7.5 1.4 1.6 2.7 2.9 3.7 2.1 1.8 5.1 2.6 7.8 3.3 6 1.3 12.6 1.5 18.8 1.3 7.1-.2 14.8-2 20.1-6.2 4.7-3.7 4.7-11.5 1.4-15.9-.2-.2.2-.5.4-.2"/>
  <path fill="#00A78E" d="M248.7 180c-3.6-1.8-7.5-2.6-11.4-2.5-.8 0-1.5.1-2.3.2-2.3.3-4.5.9-6.7 1.7 1.6-1 3.3-1.7 5-2 .9-.2 1.8-.3 2.7-.3 4.4 0 9.1.4 13 2.7 0 0-.4.4-.3.2"/>
  <path fill="#00A78E" d="M249.4 180.8c-4.3-2.1-9-1.7-13.2-1.7-.9 0-1.8.1-2.7.2-4.5.4-8.7 1.8-12.6 4.6-1 .4-1.8.9-2.4 1.9.2-1.4.9-2 1.7-2.3.8-.4 1.8-.6 2.6-1.2 3.9-2.7 8.4-3.7 13.1-3.6h2.8c4.1.1 7.6.5 11.1 1.7 0-.2-.4.2-.4.4"/>
  <path fill="#00A78E" d="M249.5 180.8c-4.4-.6-9.1-.2-13.3.3l-2.4.3c-5 .6-9.8 1.9-14.3 3.7-.8.4-1.5.9-2.2 1.4-3.6 2.5-6.7 6-11 7.7-.7.2-1.5.4-2.2.4-.8 0-1.6-.1-2.3-.4 1.2-.1 2.4-.3 3.6-.5.6-.1 1.1-.2 1.6-.4 3.8-2.1 6.9-5.5 10.6-7.9.7-.5 1.5-.9 2.3-1.3 3.4-1.2 6.9-2 10.5-2.7.9-.2 1.8-.3 2.7-.4 5.4-1.4 10.9-1.4 16.3-1 0 .2 0 .6.1.8m2.5 2.6c.9 6.2-1.8 12.5-7.6 14.9-.9.5-1.8.8-2.7 1.2-2.9 1.3-6.2 2.2-9.7 2.8-1.1.2-2.1.3-3.2.5-5.5.5-10.6 1.7-16.1.6-.8-.2-1.6-.2-2.5-.1-.9 0-1.8 0-2.5-.3h2.5c4.9.4 10 .4 15.1-.2 1.1-.1 2.1-.3 3.2-.4 4.3-.5 8.4-1.4 12-2.8.9-.3 1.7-.7 2.5-1 5.7-2.2 10.4-8.5 8.4-15.1.3-.2.3-.2.6-.1"/>
  <path fill="#00A78E" d="M251.7 182.8c-.7 6.8-4.3 13.5-11.3 16-.7.2-1.5.3-2.2.7-.7.3-1.5.5-2.3.7-2.3.7-4.7 1.3-7.1 1.9-.9.3-1.8.6-2.6.9.2-.1-.2-.5-.2-.5 1.6-.4 3.1-1.2 4.6-1.4l2.4-.6c.8-.3 1.6-.5 2.4-.7.8-.2 1.6-.5 2.3-.8 7.9-1.6 13-8.6 13.8-16.4-.2 0 .2.3.2.2m-9-2.2c-3.5-.1-7 .7-10.2 1.8-.8.3-1.7.5-2.5.9-2.4.9-4.8 2.1-7.1 3.3-.7.4-1.3.8-2.1 1.2-5.2 2.9-10.1 6.2-16.1 6.6-.6.1-1.3.1-1.9.2.7-.4 1.4-.7 2.2-.9.7-.2 1.4-.3 2.1-.5 3.9-1.1 7.5-3 11.1-4.9.7-.4 1.4-.7 2.2-1.1 4.4-2.3 8.8-4.5 13.5-5.7.9-.3 1.8-.5 2.7-.7 1.8-.2 4.2-1.4 6.1-.2m8.4 1.9c-6 1.2-11.9 2.8-16.3 6.8-.6.5-1.3 1-2 1.5-2.8 2-5.6 4.1-8.6 5.5-.7.4-1.5.8-2.2 1.1-3.7 1.7-7.8 2.7-12.1 2.2-.9 0-1.7-.1-2.6-.2-4.6-.3-9.2-1.5-13.4-3.2 3.7.5 7.3 1.9 11.1 2.5.8.1 1.5.2 2.2.3 6 .5 12.2-.7 17.5-3.6.7-.4 1.4-.7 2-1.1.8-.5 1.5-1.1 2.3-1.7.8-.6 1.5-1.1 2.3-1.7 5.6-4.4 12.2-8.3 19.8-8.4"/>
  <path fill="#00A78E" d="M240.7 181c-3.1.8-6.2 2.4-8.9 3.9-.7.4-1.4.8-2.2 1.2-2.1 1.2-4.3 2.3-6.4 3.2-.7.3-1.3.7-2.1 1-5.3 2.5-10.8 5-16.7 4.6h-2.6c-3.4-.2-6.7-.9-9.7-2.4 2.8.9 5.6 1.5 8.5 1.8.9.1 1.9.2 2.8.2 5.2.2 10.1-1.2 14.8-3.2.8-.3 1.6-.7 2.3-1 4.2-1.7 8.1-5 12.3-7 .8-.4 1.6-.8 2.5-1.1 2-.8 3.5-1.2 5.4-1.2"/>
  <path fill="#00A78E" d="M251.2 182.4c-5 5.6-11.6 9.1-18.1 11.7l-2.7 1.2c-1.8.8-3.6 1.6-5.4 2.5-.8.4-1.6.7-2.4 1-4.1 1.5-8.4 2.4-12.9 2.1-.7 0-1.4 0-2.2-.1-4.5-.2-9-1.8-12.8-3.9 4.2 1.5 8.6 2.9 13.1 3.3.9.1 1.7.2 2.5.2 4.1.2 8-.8 11.7-2.2.7-.3 1.5-.6 2.2-.9 2.3-1.1 4.6-2.2 6.9-3.2.8-.3 1.5-.7 2.3-1 7-1.9 11.7-7 17.8-10.7"/>
  <path fill="#00A78E" d="M250.9 182.1c-7-.7-14.1 1.6-19.3 6.7-.8.6-1.6 1.2-2.3 1.8-2.3 1.8-4.7 3.5-7.3 4.7-.9.5-1.8.9-2.7 1.3-4.6 2-9.6 2.8-14.8 1.3-.9-.1-1.9-.3-2.8-.5-2.8-.5-5.6-1.3-8.2-2 4.2 0 8.3.9 12.4 1.5.8.1 1.5.3 2.3.4 4.4 1 8.4.2 12.1-1.6.7-.4 1.5-.7 2.2-1.2 3.5-2.5 6.8-5.6 10.4-8.1.7-.5 1.4-1 2.1-1.4 5.1-2.9 10.6-4.8 16.4-3.3-.1.1-.5.5-.5.4"/>
  <path fill="#00A78E" d="M250.3 181.2c-7.2-2.2-13.9 1.3-19 5.6-.8.6-1.5 1.1-2.3 1.7-2.3 1.6-4.6 3.1-7.1 4-.8.4-1.6.7-2.5 1.1-4.2 1.7-8.6 2.7-13 2.3H204c-4.1-.1-8.1-.9-11.7-2.8 3.9 1 7.8 1.8 11.7 2.1.8.1 1.5.1 2.3.2 5.5.3 10.6-1.3 15.6-3.6.8-.4 1.5-.7 2.2-1.1 3.1-1.2 6-3.4 8.9-5.4l2.1-1.5c4.1-3.2 10-5.5 15.2-2.6"/>
  <path fill="#00A78E" d="M251.3 182.1c-2.3 5.6-5.4 11-11 13.9-.8.5-1.5.9-2.4 1.3-2.6 1.4-5.3 2.4-8.1 3.1-.9.3-1.8.5-2.7.8-5.4 1.3-10.9 1.7-16.2 1-.8-.1-1.5-.1-2.4-.2-4.9-.3-10-1.1-13.5-4.7 3.1 2 6.5 3.1 10.1 3.8.9.2 1.8.3 2.6.4 7.3.5 14.7.9 21.9-1.5.9-.3 1.8-.5 2.6-.8 1.6-.5 3.2-1.1 4.8-1.9.8-.4 1.5-.8 2.2-1.2 5.1-3.5 9.4-8.1 11.4-14.4 0 .1.7.1.7.4"/>
  <path fill="#00A78E" d="M250.5 183.2c-4.6 4.8-8.9 10.7-15.4 13-.7.4-1.4.7-2.2 1.1-1.5.7-3 1.3-4.5 1.9l-2.4.9c-5.8 2-12 2.9-18 1.4-.8-.1-1.6-.1-2.4-.2-3.2-.4-6.3-1.3-9.3-3.1 3.9 1 7.7 2.1 11.6 2.6.8.1 1.5.2 2.3.3 5.9.7 11.5-.1 16.7-2 .7-.3 1.5-.6 2.2-.9.9-.3 1.9-.7 2.8-1 .9-.4 1.8-.8 2.6-1.2 6.3-2.9 10.2-9.1 16-12.8"/>
  <path fill="#00A78E" d="M250.7 182.8c-6 2.5-11.5 5.6-16.9 8.4-.8.4-1.5.8-2.3 1.3-2.3 1.3-4.5 2.8-6.5 4.6-.5.4-1 .8-1.6 1.1-1.1.7-2.3 1.1-3.8 1.3 1.2-.5 2.3-1.1 3.4-1.8.6-.3 1.1-.7 1.6-1 2.2-1.5 4.5-2.9 6.8-4.3.8-.5 1.5-.9 2.3-1.3 5.4-3.2 10.9-6.4 16.8-8.7l.2.4m29.9 85.1c-.2-6 .5-15.3-6.1-17.3-7.7-2.3-17.8 5.4-22.9 9.9-1.1-1.2-2.4-2-4.1-1.8-1.6-.2-3 .6-4.1 1.8 1.7-2-18.1-10.4-20.4-10.3-8.3.5-8.3 11.2-8.6 17.7-.2 6.5-1.3 13.2 2.7 15.5 6.7 3.8 20.9-.4 27.3-7.9.9.7 1.9 1.1 3.1 1.1 1.1.1 2.2-.4 3.1-1.1 6.2 7.3 20.1 11 26.8 7.5 4.3-2.2 3.4-8.3 3.2-15.1"/>
  <path fill="none" stroke="#FFF" stroke-width=".756" stroke-miterlimit="10" d="M280.6 267.9c-.2-6 .5-15.3-6.1-17.3-7.7-2.3-17.8 5.4-22.9 9.9-1.1-1.2-2.4-2-4.1-1.8-1.6-.2-3 .6-4.1 1.8 1.7-2-18.1-10.4-20.4-10.3-8.3.5-8.3 11.2-8.6 17.7-.2 6.5-1.3 13.2 2.7 15.5 6.7 3.8 20.9-.4 27.3-7.9.9.7 1.9 1.1 3.1 1.1 1.1.1 2.2-.4 3.1-1.1 6.2 7.3 20.1 11 26.8 7.5 4.3-2.2 3.4-8.3 3.2-15.1z"/>
  <path fill="#FFF" d="M260.4 271.9l.7.1c-.6-.2-1.1-.5-1.6-.8.2.3.5.5.9.7m-5.2-5.8l7.9-.3c-2-1.3-5.7-.1-7.9.3m-6.3 7.3c2-1.1 2.8-3.6 2.6-5.8-.1 1.8-.8 4.9-2.6 5.8m10.5-2.2l-3.3-2.4c1 1 2.1 1.8 3.3 2.4m10 2.5L261 272c2.7 1.1 5.6 1.7 8.3 1.9.2 0 .2-.1.1-.2m-24.2-11c-.4 3.2-1.3 6.6.7 9.3l.1.1c-.8-3.3-.4-6.2-.7-9.5 0 .1-.1.1-.1.1m-4.1 4.7c-3.3-.6-7.6-3.1-10.8-1.3l10.8 1.4c.1 0 .1-.1 0-.1m.9 1.4c-5.2 3-10.3 2.9-16 2.9 5 3.6 11.5-.3 16-2.9m18.1-7.5c-1.1.5-2.1 1.1-2.9 1.9l10.9-4.3c-2.8-.2-5.6 1.2-8 2.4m-31.5-1.1c2.4.2 5.1.4 7.3 1.4 2.5 1.2 4.7 2.8 6.6 4.8h.1c-3.5-4.3-8.5-6.3-14-6.2"/>
</svg>