<svg xmlns="http://www.w3.org/2000/svg" width="169.6" height="138.2" viewBox="0 0 169.6 138.2"><path fill="#FFF" d="M29 123.7c1.3 2.8 1.7 5.6-1.8 5.5l-1-1.3-5.9-8-1.7 2.2c-1 1.3-1.2 2.9-.6 4.4.5 1.1 1 2.5 1.4 3.4.3.7.8 1.2 1.5 1.7l4.1 2.8c1 .7.6 1.5.3 2.3l-.6.5c-.9.8-2.3.9-3.4.2l-4.5-3.2c-.4-.1-.8-.3-1.1-.7l-7-10.6c-.4-.6-1.1-3.6-1-4.3l3-11.5c.1-.4.3-2.7.2-3.1L0 55.2v-8.6S2.3-.6 4.9 0l26.3 5.8c2 .5-5.3 26.8-5.3 26.8-2.8 10.9-3.9 14.6-4.6 21l3 52.8c0 .2 0 .5.1.7l4.6 16.6zm109.6.3c-1.4 2.8-1.9 5.5 1.6 5.5l1-1.3 6.1-7.9 1.6 2.3c.9 1.3 1.1 2.9.5 4.4-.5 1.1-1.1 2.4-1.4 3.3-.3.7-.8 1.2-1.5 1.6l-4.1 2.7c-1 .7-.6 1.5-.3 2.3l.6.5c.8.8 2.3.9 3.4.3l4.6-3.1c.4-.1.8-.3 1.1-.6l7.3-10.4c.4-.6 1.2-3.6 1.1-4.3l-2.7-11.6c-.1-.4-.2-2.7-.1-3.1L169.7 56l.2-8.6S165.1.2 162.4.7L135.6 6c-2 .4 9.6 35.5 9.6 35.5 0 .2 2.1 7.3 2.8 12.6l-4.3 52.7c0 .2-.1.5-.1.7l-5 16.5z"/></svg>