<svg xmlns="http://www.w3.org/2000/svg" width="270.2" height="137.9" viewBox="0 0 270.2 137.9"><path fill="#FFF" d="M241.2 123.8c-1.3 2.8-1.7 5.6 1.8 5.5l1-1.3 5.9-8 1.7 2.2c1 1.3 1.2 2.9.6 4.4-.5 1.1-1 2.5-1.4 3.4-.3.7-.8 1.2-1.5 1.7l-4.1 2.8c-1 .7-.6 1.5-.3 2.3l.6.5c.9.8 2.3.9 3.4.2l4.5-3.2c.4-.1.8-.3 1.1-.7l7-10.6c.4-.6 1.1-3.6 1-4.3l-3-11.5c-.1-.4-.3-2.7-.2-3.1l11-48.9v-8.6S268-.6 265.4 0L239 5.8c-2 .5 5.3 26.8 5.3 26.8 2.8 10.9 3.9 14.6 4.6 21l-3 52.8c0 .2 0 .5-.1.7l-4.6 16.7zM9.1 49.9l10.8 3.5c.8.1 4.3-.4 5-.7l11.7-7c.4-.2 2.9-1.3 3.3-1.3L96.8 53c.2 0 9.3-3.2 9.4-3.2 0 0 33.4-47.1 32-49.3L108 .1c-1.1-1.7-6.9 18.8-6.9 18.8-.2.1-6.1 12.2-9.2 14.4l-58.7.1c-.3.1-.6.2-.8.2l-19.5 2.1c-3.5-.1-6.6.6-5.4 3.6l1.8.4 10.6 2.2-3 .5c-1.1 1.4-1.6.8-3.4.8-.9 0-6.4-3.9-10.3-6.5-1.4-1-3.3.3-3.1 2l.1.7c.7 4.9 4.2 8.9 8.9 10.5z"/></svg>