<svg xmlns="http://www.w3.org/2000/svg" width="271" height="367" viewBox="0 0 271 367"><path fill="#FFF" d="M0 0h271v367H0z"/><path fill="#5E9732" d="M58.2 319.9c1.2 1 2.7 2 4.6 3 1.8 1 4 1.5 6.5 1.5.9 0 1.9-.1 2.8-.3.9-.2 1.7-.6 2.4-1 .7-.5 1.2-1.1 1.7-1.9.4-.8.6-1.8.6-2.9 0-1.1-.2-2.1-.6-2.9-.4-.8-1-1.5-1.7-2.1-.7-.6-1.5-1.1-2.5-1.5-1-.4-2-.8-3.2-1.1-1.7-.5-3.3-1-4.9-1.7-1.6-.7-2.9-1.6-4.1-2.6-1.2-1.1-2.2-2.3-2.9-3.8-.7-1.5-1.1-3.3-1.1-5.4 0-3.3 1-6.1 2.9-8.2 1.9-2.1 4.3-3.6 7.2-4.5v-7.1h4.3v6.3h2.3c.2 0 .5 0 .7.1v-6.3h4.3v6.9c1.5.4 2.7.8 3.7 1.2 1 .4 1.8.8 2.2 1.2 1.2.8 1.8 1.8 1.8 3.1 0 .6-.2 1.3-.7 2.3-.5 1-1.1 2-2 2.9-1.1-.9-2.5-1.8-4.3-2.6-1.8-.8-3.7-1.2-5.7-1.2-.8 0-1.6.1-2.5.2-.8.1-1.6.4-2.3.8-.7.4-1.3.9-1.7 1.6-.4.7-.7 1.5-.7 2.6 0 .9.2 1.8.5 2.4.3.7.8 1.3 1.5 1.8s1.6 1 2.6 1.4c1.1.4 2.3.9 3.8 1.3 1.7.6 3.3 1.2 4.8 2s2.8 1.7 3.9 2.8c1.1 1.1 2 2.4 2.7 3.8.7 1.5 1 3.2 1 5.2 0 3.4-.8 6.2-2.3 8.5-1.6 2.3-3.7 4-6.4 5.2v7.6h-4.3V332c-.5.1-1 .2-1.5.2s-1 .1-1.5.1v6.1h-4.3V332c-2.3-.2-4.1-.6-5.5-1.2-1.4-.5-2.5-1-3.2-1.5-.5-.4-1-.8-1.3-1.3s-.5-1.1-.5-1.8c0-.8.3-1.7.9-2.9.6-1.4 1.3-2.5 2-3.4m129.6 0c1.2 1 2.7 2 4.6 3 1.8 1 4 1.5 6.5 1.5.9 0 1.9-.1 2.8-.3.9-.2 1.7-.6 2.4-1 .7-.5 1.2-1.1 1.7-1.9.4-.8.6-1.8.6-2.9 0-1.1-.2-2.1-.6-2.9-.4-.8-1-1.5-1.7-2.1-.7-.6-1.5-1.1-2.5-1.5-1-.4-2-.8-3.2-1.1-1.7-.5-3.3-1-4.9-1.7-1.6-.7-2.9-1.6-4.1-2.6-1.2-1.1-2.2-2.3-2.9-3.8-.7-1.5-1.1-3.3-1.1-5.4 0-3.3 1-6.1 2.9-8.2 1.9-2.1 4.3-3.6 7.2-4.5v-7.1h4.3v6.3h2.3c.2 0 .5 0 .7.1v-6.3h4.3v6.9c1.5.4 2.7.8 3.7 1.2 1 .4 1.8.8 2.2 1.2 1.2.8 1.8 1.8 1.8 3.1 0 .6-.2 1.3-.7 2.3-.5 1-1.1 2-2 2.9-1.1-.9-2.5-1.8-4.3-2.6-1.8-.8-3.7-1.2-5.7-1.2-.8 0-1.6.1-2.5.2-.8.1-1.6.4-2.3.8-.7.4-1.3.9-1.7 1.6-.4.7-.7 1.5-.7 2.6 0 .9.2 1.8.5 2.4.3.7.8 1.3 1.5 1.8s1.6 1 2.6 1.4c1.1.4 2.3.9 3.8 1.3 1.7.6 3.3 1.2 4.8 2s2.8 1.7 3.9 2.8c1.1 1.1 2 2.4 2.7 3.8.7 1.5 1 3.2 1 5.2 0 3.4-.8 6.2-2.3 8.5-1.6 2.3-3.7 4-6.4 5.2v7.6h-4.3V332c-.5.1-1 .2-1.5.2s-1 .1-1.5.1v6.1h-4.3V332c-2.3-.2-4.1-.6-5.5-1.2-1.4-.5-2.5-1-3.2-1.5-.5-.4-1-.8-1.3-1.3s-.5-1.1-.5-1.8c0-.8.3-1.7.9-2.9.6-1.4 1.2-2.5 2-3.4m-64.8 0c1.2 1 2.7 2 4.6 3 1.8 1 4 1.5 6.5 1.5.9 0 1.9-.1 2.8-.3.9-.2 1.7-.6 2.4-1 .7-.5 1.2-1.1 1.7-1.9.4-.8.6-1.8.6-2.9 0-1.1-.2-2.1-.6-2.9-.4-.8-1-1.5-1.7-2.1-.7-.6-1.5-1.1-2.5-1.5-1-.4-2-.8-3.2-1.1-1.7-.5-3.3-1-4.9-1.7-1.6-.7-2.9-1.6-4.1-2.6-1.2-1.1-2.2-2.3-2.9-3.8-.7-1.5-1.1-3.3-1.1-5.4 0-3.3 1-6.1 2.9-8.2 1.9-2.1 4.3-3.6 7.2-4.5v-7.1h4.3v6.3h2.3c.2 0 .5 0 .7.1v-6.3h4.3v6.9c1.5.4 2.7.8 3.7 1.2 1 .4 1.8.8 2.2 1.2 1.2.8 1.8 1.8 1.8 3.1 0 .6-.2 1.3-.7 2.3-.5 1-1.1 2-2 2.9-1.1-.9-2.5-1.8-4.3-2.6-1.8-.8-3.7-1.2-5.7-1.2-.8 0-1.6.1-2.5.2-.8.1-1.6.4-2.3.8-.7.4-1.3.9-1.7 1.6-.4.7-.7 1.5-.7 2.6 0 .9.2 1.8.5 2.4.3.7.8 1.3 1.5 1.8s1.6 1 2.6 1.4c1.1.4 2.3.9 3.8 1.3 1.7.6 3.3 1.2 4.8 2s2.8 1.7 3.9 2.8c1.1 1.1 2 2.4 2.7 3.8.7 1.5 1 3.2 1 5.2 0 3.4-.8 6.2-2.3 8.5-1.6 2.3-3.7 4-6.4 5.2v7.6h-4.3V332c-.5.1-1 .2-1.5.2s-1 .1-1.5.1v6.1h-4.3V332c-2.3-.2-4.1-.6-5.5-1.2-1.4-.5-2.5-1-3.2-1.5-.5-.4-1-.8-1.3-1.3s-.5-1.1-.5-1.8c0-.8.3-1.7.9-2.9.6-1.4 1.2-2.5 2-3.4"/><path fill="#00BBA2" d="M13.6 119.5h202.5v8.5H13.6zm0 33.1h221.7v8.5H13.6zm0-16.6h232v8.5h-232zm0 33.2h197.1v8.5H13.6zm0 16.6h215v8.5h-215zm0 16.6h232v8.5h-232zm0 16.6h202.5v8.5H13.6zm0 16.6h232v8.5h-232zm0 16.6h221.7v8.5H13.6z"/><path fill="#D20962" d="M172.6 90.9c0 4.7-3.8 8.5-8.5 8.5H107c-4.7 0-8.5-3.8-8.5-8.5V33.8c0-4.7 3.8-8.5 8.5-8.5h57.1c4.7 0 8.5 3.8 8.5 8.5v57.1z"/><path fill="#FFF" d="M160.3 57.7c0-1.4-1.1-2.5-2.5-2.5h-14.2c-.1 0-.2-.1-.2-.2V40.7c0-1.4-1.1-2.5-2.5-2.5h-9.6c-1.4 0-2.5 1.1-2.5 2.5V55c0 .1-.1.2-.2.2h-14.2c-1.4 0-2.5 1.1-2.5 2.5v9.6c0 1.4 1.1 2.5 2.5 2.5h14.2c.1 0 .2.1.2.2v14.2c0 1.4 1.1 2.5 2.5 2.5h9.6c1.4 0 2.5-1.1 2.5-2.5V70c0-.1.1-.2.2-.2h14.2c1.4 0 2.5-1.1 2.5-2.5v-9.6z"/></svg>