<svg xmlns="http://www.w3.org/2000/svg" width="125.2" height="115.7" viewBox="0 0 125.2 115.7">
  <path fill="#00A78E" d="M107.91 59.145L76.384 54.27l7.73-50.007 31.528 4.874z"/>
  <path fill="#FFF" d="M104.1 31.6c-1.7-.3-3.2.9-3.5 2.6-.1.7 0 1.3.3 1.9-.6.3-1.3.4-1.9.3-2-.3-3.4-2.3-3.4-4.8 3.4-.5 6.4-4 7.2-8.6.1-.4-.2-.9-.6-1.1l-1.7-.8c-.2-.6-.6-1-1.3-1.1-.8-.1-1.6.4-1.8 1.3-.1.8.4 1.6 1.3 1.8.3 0 .6 0 .9-.1l1 .4c-.8 3.8-3.5 6.5-6.2 6.2-2.6-.6-4.3-3.9-4-7.8l1-.1c.2.2.5.3.8.4.8.1 1.6-.4 1.8-1.3.1-.8-.4-1.6-1.3-1.8-.6-.1-1.2.2-1.5.7l-1.8.2c-.4.1-.8.4-.9.8-.8 5 1.4 9.6 5 10.7 0 3.5 2.1 6.4 5.1 6.9 1.3.2 2.6-.1 3.8-.8.2.1.5.2.7.2 1.7.3 3.2-.9 3.5-2.6.3-1.7-.8-3.3-2.5-3.5m-.7 4.6c-.9-.1-1.5-1-1.4-1.9.1-.9 1-1.5 1.9-1.4.9.1 1.5 1 1.4 1.9-.2.9-1.1 1.5-1.9 1.4"/>
  <path fill="#FFF" d="M79.5 56.1c-2.1-.3-3.5-2.5-3.2-4.9l7.3-47c.3-2.1 1.9-3.6 3.8-3.7l27.1 4.2c2.1.3 3.5 2.5 3.2 4.9l-7.3 47c-.4 2.3-2.4 4-4.5 3.7l-26.4-4.2zm12.5-6c-.1 0-.3.1-.3.2l-.6 3.8c0 .2.1.3.2.3l3.9.6c.1 0 .3-.1.3-.2l.6-3.8c0-.2-.1-.3-.2-.3l-3.9-.6zm20.1-37.7l-24-3.7-5.7 36.7 24 3.7 5.7-36.7zm-6.4-4.1c.1-.1.2-.2.2-.5s0-.5-.1-.6L95.6 5.6c-.1.1-.2.2-.2.5s0 .5.1.6l10.2 1.6z"/>
  <path fill="#00A78E" d="M114.5 5.2c1.8.3 3.1 2.2 2.7 4.3l-7.3 47c-.3 2.1-2.1 3.5-3.9 3.2l-26.5-4.1c-1.8-.3-3.1-2.2-2.7-4.3l7.3-47c.3-1.9 1.7-3.2 3.3-3.3l27.1 4.2M95.3 7.3l10.4 1.6c.3.1.7-.4.8-1 .1-.6-.1-1.1-.4-1.2L95.7 5.1c-.3-.1-.7.4-.8 1-.1.6.1 1.1.4 1.2M81.9 45.8l25 3.9 5.8-37.7-25-3.9-5.8 37.7zm9.4 9.1l3.9.6c.4.1.8-.2.9-.7l.6-3.8c.1-.4-.2-.8-.6-.9l-3.9-.6c-.4-.1-.8.2-.9.7l-.7 3.8c0 .4.3.9.7.9m23.4-50.7L87.6 0h-.2c-2.1.1-4 1.8-4.3 4.1l-7.3 47c-.4 2.6 1.2 5.1 3.6 5.4l26.5 4.1c2.4.4 4.7-1.5 5.1-4.1l7.3-47c.4-2.5-1.2-4.9-3.6-5.3m-18.8 2l9.6 1.5v.2l-9.6-1.5v-.2m-7.3 3.1l23 3.6-5.6 35.6L83 45l5.6-35.7zm3.6 41.3l3.4.5-.5 3.3-3.4-.5.5-3.3z"/>
  <path fill-rule="evenodd" clip-rule="evenodd" fill="#FFF" d="M111.6 39c-1.9-.3-3-1.8-2.8-3.8v-.1l.1-.1c.1-.1.1-.3.2-.5.2-.4.4-.9.8-1.3 1.8-1.7 3.5-3.2 5.2-4.5 1.1-.9 2.3-1.2 3.6-1.1 1.1.2 2 .8 2.7 1.7.6.9.8 1.9.6 3-.2 1.2-1 2.3-2.1 3-.5.3-.9.6-1.4.9-.8.5-1.7 1.1-2.5 1.7-1.1.8-2.3 1.2-3.7 1.2-.3-.1-.5-.1-.7-.1"/>
  <path fill="#00A78E" d="M118.5 28.2c.9.1 1.6.6 2.2 1.4 1.1 1.6.6 3.8-1.3 5-1.3.9-2.7 1.7-4 2.6-1 .8-2 1.1-3.2 1.1h-.5c-1.5-.2-2.4-1.4-2.2-3.1.3-.5.4-1.2.9-1.6 1.7-1.5 3.4-3.1 5.1-4.5.9-.7 2-1 3-.9m.2-1.4c-1.4-.2-2.9.2-4.1 1.2-1.7 1.3-3.4 2.8-5.2 4.5-.5.5-.8 1.1-1 1.6-.1.2-.1.3-.2.4l-.1.2v.3c-.2 2.4 1.2 4.3 3.4 4.6.2 0 .5.1.7.1 1.5 0 2.9-.4 4.1-1.4.8-.6 1.6-1.1 2.5-1.6.5-.3 1-.6 1.4-.9 1.3-.9 2.2-2.1 2.4-3.5.2-1.2 0-2.5-.8-3.5-.7-1.1-1.8-1.8-3.1-2"/>
  <path fill-rule="evenodd" clip-rule="evenodd" fill="#FFF" d="M110.1 48c-1.1-.2-2-.7-2.4-1.6-.5-.9-.4-2 .1-3.1.4-.7.9-1.4 1.5-1.9l.5-.5c.6-.6 1.3-.9 2.3-.8 1.3.2 2.6-.2 4-1 .4-.2.8-.5 1.1-.7.2-.1.3-.2.5-.3l.4-.2.4.2c.9.5 1.4 1.5 1.5 2.7.1 1.2-.4 2.3-1.2 2.9-1.6 1.3-3.4 2.3-5.1 3.4-.5.3-.9.6-1.4.9-.5.3-1 .3-1.5.3h-.1c-.2-.2-.4-.2-.6-.3"/>
  <path fill="#00A78E" d="M118 38.6c1.6.9 1.5 3.5.3 4.4-2 1.6-4.3 2.9-6.5 4.2-.3.2-.7.2-1.1.1h-.5c-1.9-.3-2.7-1.8-1.8-3.6.4-.9 1.2-1.6 1.8-2.3.4-.5 1-.6 1.7-.5 1.6.2 3.1-.3 4.4-1.1.6-.4 1.2-.8 1.7-1.2m0-1.7l-.7.5c-.2.1-.3.2-.5.3-.4.2-.8.5-1.1.7-1.3.8-2.4 1.1-3.5.9-1.2-.2-2.2.2-2.9 1-.1.2-.3.3-.5.5-.6.6-1.2 1.3-1.6 2.1-.6 1.3-.7 2.6-.1 3.7s1.6 1.8 2.9 2c.2 0 .5.1.7.1h.1c.5 0 1.2 0 1.9-.4.5-.3.9-.6 1.4-.9 1.7-1.1 3.5-2.2 5.2-3.4 1-.8 1.5-2.1 1.5-3.5-.1-1.4-.8-2.6-1.9-3.2l-.9-.4z"/>
  <path fill-rule="evenodd" clip-rule="evenodd" fill="#FFF" d="M108.4 56.2c-.9-.1-1.6-.6-2.1-1.4-.4-.8-.4-2.1.2-3.4.6-1.3 1.5-2.1 2.4-2.3.2-.1.4 0 .5 0h.4c1.6.3 3.1-.1 4.6-1.1.4-.3.8-.5 1.2-.8l1.1-.7.4.5c1.4 1.9 1 4.1-.9 5.5-1.5 1.1-3.1 2.1-4.5 3-.6.4-1.4.6-2.2.6-.4.2-.8.2-1.1.1"/>
  <path fill="#00A78E" d="M116.5 47.6c1.1 1.5.9 3.3-.7 4.5-1.4 1.1-2.9 2-4.4 2.9-.5.3-1.2.5-1.9.5h-1c-.6-.1-1.2-.4-1.6-1.1-.7-1.4.6-4.3 2.1-4.7h.6c1.9.3 3.6-.2 5.1-1.2.7-.2 1.2-.6 1.8-.9m.3-2l-1.1.7-.6.4c-.4.2-.8.5-1.1.7-1.3.9-2.7 1.2-4.1 1h-.4c-.2 0-.5-.1-.8 0-1.1.3-2.2 1.3-2.8 2.7-.7 1.5-.7 3-.2 4 .4.7 1.1 1.6 2.6 1.8.4.1.8.1 1.3 0 .9-.1 1.8-.3 2.5-.7 1.4-.8 3-1.8 4.5-3 2.2-1.7 2.6-4.4 1-6.5l-.8-1.1z"/>
  <path fill-rule="evenodd" clip-rule="evenodd" fill="#FFF" d="M116.5 24c.3-1.7.5-3.4.8-5 .1-.5.7-1.2 1.2-1.2h.4c.8-.1 1.6-.1 2.3 0 .1 0 .2 0 .3.1 1.4.3 2.4 1.2 2.8 2.5.4 1.2 0 2.6-1 3.7-.6.6-1.1 1-1.6 1.1-1 .4-2.1.7-3.2 1-.5.1-.9.3-1.4.4l-1.1.3.5-2.9z"/>
  <path fill="#00A78E" d="M121.2 18.4c.1 0 .2 0 .3.1 2.5.6 3.2 3.1 1.4 5-.4.4-.8.8-1.3 1-1.4.5-2.9.9-4.6 1.5.4-2.4.7-4.6 1.1-6.7 0-.3.4-.6.6-.7.7-.2 1.6-.3 2.5-.2m.2-1.4c-.9-.1-1.8-.1-2.5 0h-.4c-1 .1-1.7 1-1.9 1.8-.3 1.6-.5 3.3-.8 5-.1.5-.2 1.1-.3 1.7l-.3 2.2 2.2-.7c.5-.1.9-.3 1.4-.4 1.1-.3 2.2-.7 3.3-1 .6-.2 1.2-.7 1.9-1.3 1.2-1.2 1.6-2.9 1.2-4.4-.4-1.5-1.7-2.6-3.3-2.9h-.5"/>
  <path fill-rule="evenodd" clip-rule="evenodd" fill="#FFF" d="M70 68.2c-.5-9.6-1.9-15.5-2.4-24.2-.1-1.3 0-2.7.5-3.9 1.6-3.9 3.2-7.8 5.3-11.4 2.8-5.1 6-10 9.1-14.9.4-.6.8-1.2 1.1-1.8 2.8 1.1 4.1 4.2 2.7 7.1-1.6 3.4-3.6 6.6-5.4 9.9-.3.5-.5 1.1-.6 1.6-.9 5.8-1.8 11.5-2.7 17.3-.7 4.7 1.9 8.3 6.7 8.8 6.1.7 12.2 1.4 18.2 2.8 2.2.5 4.2.2 6-1 .6-.4 1.5-.3 2.2-.7-.5.5-.9 1.1-1.3 1.7-3.7 4.4-6.4 8.3-10.9 12-.9.7-.6.4-1.9 1.8-.1.1-1.4 1.2-1.6 1.3-16.7 6.7-25-6.4-25-6.4"/>
  <path fill="#00A78E" d="M82.7 77.2c-8.9-1.4-13.3-8.2-13.5-8.5l-.2-.2v-.2c-.3-4.9-.8-8.9-1.3-12.8-.5-3.7-.9-7.2-1.2-11.5-.1-1.2 0-2.8.6-4.3l.3-.7c1.5-3.6 3.1-7.4 5-10.9 2-3.6 4.2-7.2 6.4-10.6.9-1.5 1.8-2.9 2.7-4.4.3-.4.5-.9.8-1.3l.8-1.2.7.3c1.6.6 2.8 1.8 3.4 3.4.6 1.6.6 3.4-.2 5-1.1 2.3-2.4 4.6-3.6 6.7-.6 1.1-1.2 2.2-1.8 3.2-.2.4-.4.9-.5 1.3-.5 2.8-.9 5.7-1.3 8.5-.5 2.9-.9 5.9-1.4 8.8-.3 2 0 3.8 1 5.2 1 1.4 2.7 2.3 4.8 2.6 3.3.4 6.8.8 10.3 1.3 2.9.4 5.5.9 7.9 1.5 1.9.4 3.7.2 5.3-.8.4-.3.9-.4 1.3-.5.3-.1.6-.1.8-.2l6.2-4.3-5 5.7c-.2.3-.5.6-.7.9-.2.3-.4.5-.6.8-.9 1-1.7 2.1-2.5 3-2.6 3.2-5 6.2-8.5 9.1-.2.1-.3.2-.4.3-.4.3-.4.3-1.4 1.4 0 .1-1.5 1.3-1.9 1.5-4.1 1.9-8.3 2.5-12.3 1.9zm-11.8-9.4c.8 1.1 4.9 6.4 12.1 7.5 3.6.6 7.5 0 11.5-1.6.3-.2 1.2-1 1.3-1.1 1.1-1.1 1.1-1.2 1.6-1.6.1-.1.2-.2.4-.3 3.3-2.7 5.7-5.7 8.2-8.8.5-.6 1-1.3 1.5-1.9-1.7.7-3.4.8-5.3.4-2.4-.5-4.9-1-7.8-1.5-3.5-.5-7-1-10.3-1.3-2.7-.3-4.8-1.5-6.1-3.3-1.3-1.8-1.8-4.1-1.4-6.6.5-2.9.9-5.8 1.4-8.8.4-2.8.9-5.7 1.3-8.5.1-.7.4-1.4.7-1.9l1.8-3.3c1.2-2.1 2.5-4.4 3.5-6.6.5-1.2.6-2.4.2-3.5-.3-.8-.9-1.5-1.7-2-.2.4-.5.7-.7 1.1-.9 1.5-1.8 2.9-2.7 4.4-2.1 3.4-4.4 6.9-6.3 10.5-1.9 3.4-3.4 7.1-4.9 10.7l-.3.7c-.5 1.1-.5 2.5-.4 3.4.2 4.2.7 7.7 1.2 11.4.4 3.7.9 7.7 1.2 12.5z"/>
  <path fill-rule="evenodd" clip-rule="evenodd" fill="#FFF" d="M0 61.3s10 42 13 45.3c3 3.3 13.3 9 13.3 9l21.7-8 40.3-34.3-16-13.3L36 86 25.3 49.3 0 61.3z"/>
</svg>