<svg xmlns="http://www.w3.org/2000/svg" width="128.8" height="181" viewBox="0 0 128.8 181">
  <path fill="#00A78E" d="M27.1 11h75v118.9h-75z"/>
  <path fill="#FFF" d="M83.3 67.3c-4 0-7.2 3.2-7.2 7.2 0 1.6.5 3.1 1.4 4.3-1.3.8-2.8 1.3-4.3 1.3-4.7 0-8.7-4.2-9.6-9.9C71.2 68 77 58.7 77 47.7c0-1.1-.7-2-1.7-2.3l-4.1-1.1c-.6-1.3-1.8-2.2-3.3-2.2-2 0-3.6 1.6-3.6 3.6s1.6 3.6 3.6 3.6c.8 0 1.5-.2 2-.6l2.4.7c-.6 9.1-5.7 16.3-12.1 16.7-6.3-.3-11.5-7.5-12.1-16.7l2.4-.7c.6.4 1.3.6 2 .6 2 0 3.6-1.6 3.6-3.6s-1.6-3.6-3.6-3.6c-1.5 0-2.8.9-3.3 2.2l-4.1 1.1c-1 .3-1.7 1.2-1.7 2.3 0 11.9 6.8 21.7 15.4 23 1.2 8 7.2 14.2 14.3 14.2 3.1 0 6.1-1.2 8.5-3.2.5.1 1.1.2 1.7.2 4 0 7.2-3.2 7.2-7.2 0-4.1-3.2-7.4-7.2-7.4m0 11.1c-2.1 0-3.8-1.7-3.8-3.8 0-2.1 1.7-3.8 3.8-3.8 2.1 0 3.8 1.7 3.8 3.8 0 2.1-1.7 3.8-3.8 3.8"/>
  <path fill="#FFF" d="M35 133.2c-5 0-9.1-4.5-9.1-10.1V11.2c0-5 3.2-9.2 7.6-10h64.6c5 0 9.1 4.5 9.1 10.1V123c0 5.6-4.1 10.1-9.1 10.1H35zm26.9-18.5c-.3 0-.6.3-.6.7v9c0 .4.3.7.6.7h9.3c.3 0 .6-.3.6-.7v-9c0-.4-.3-.7-.6-.7h-9.3zM95.1 20H38v87.3h57.1V20zm-16.3-7.2c.1-.1.4-.6.4-1.3 0-.7-.2-1.2-.4-1.3H54.4c-.1.1-.4.6-.4 1.3 0 .7.2 1.2.4 1.3h24.4z"/>
  <path fill="#00A78E" d="M98.1 2.4c4.4 0 7.9 4 7.9 8.9V123c0 4.9-3.5 8.9-7.9 8.9H35c-4.4 0-7.9-4-7.9-8.9V11.2c0-4.4 2.9-8.1 6.6-8.8h64.4M54.2 14h24.7c.8 0 1.4-1.1 1.4-2.5S79.7 9 78.9 9H54.2c-.8 0-1.4 1.1-1.4 2.5s.6 2.5 1.4 2.5m-17.4 94.5h59.5V18.8H36.8v89.7zm25.1 17.7h9.3c1 0 1.8-.8 1.8-1.9v-9c0-1-.8-1.9-1.8-1.9h-9.3c-1 0-1.8.8-1.8 1.9v9c0 1.1.8 1.9 1.8 1.9M98.1 0H33.3c-5 .9-8.6 5.6-8.6 11.2V123c0 6.3 4.6 11.3 10.3 11.3h63.1c5.7 0 10.3-5.1 10.3-11.3V11.3c0-6.2-4.6-11.3-10.3-11.3M55.2 11.4h22.7v.2H55.2v-.2m-16 9.9h54.7v84.9H39.2V21.3zm23.3 94.6h8.1v7.9h-8.1v-7.9z"/>
  <path fill-rule="evenodd" clip-rule="evenodd" fill="#FFF" d="M103.3 81.9c-4.5 0-7.6-3.2-7.9-7.9v-.3l.1-.3.3-1.2c.3-1.1.6-2.3 1.4-3.3 3.7-4.6 7.1-8.7 10.4-12.3 2.2-2.4 5-3.7 7.9-3.7 2.6 0 5 1.1 6.8 3 1.7 1.8 2.6 4.2 2.6 6.7-.1 2.9-1.5 5.6-3.8 7.8-1 .9-2 1.8-3 2.6-1.8 1.5-3.6 3.1-5.2 4.8-2.3 2.4-4.9 3.7-8.1 4.2-.6-.1-1-.1-1.5-.1"/>
  <path fill="#00A78E" d="M115.5 54.4c2.1 0 4 .8 5.6 2.5 3.2 3.4 2.7 8.6-1.2 12.1-2.7 2.5-5.7 4.8-8.3 7.5-2 2.1-4.4 3.3-7.2 3.7-.4.1-.8.1-1.2.1-3.6 0-6-2.5-6.3-6.4.5-1.4.6-3 1.4-4 3.3-4.2 6.7-8.3 10.3-12.2 2.2-2.2 4.6-3.3 6.9-3.3m0-3.3c-3.4 0-6.6 1.5-9.1 4.3-3.4 3.7-6.8 7.8-10.5 12.4-1 1.3-1.4 2.8-1.7 4-.1.4-.2.8-.3 1.1l-.2.6v.6c.3 5.6 4.3 9.5 9.6 9.5.5 0 1.1 0 1.6-.1 3.6-.5 6.6-2 9.1-4.7 1.6-1.6 3.3-3.1 5.1-4.7 1-.9 2-1.7 3-2.6 2.7-2.5 4.2-5.7 4.4-9 .1-3-1-5.8-3-7.9-2.1-2.3-5-3.5-8-3.5"/>
  <path fill-rule="evenodd" clip-rule="evenodd" fill="#FFF" d="M103.1 103.5c-2.7 0-4.9-1-6.2-2.8-1.4-1.9-1.7-4.4-.8-7.2.6-1.9 1.7-3.5 2.7-5 .3-.5.6-.9.9-1.4 1.1-1.7 2.7-2.6 5-2.6 3-.1 5.9-1.3 8.8-3.8l2.4-2.1c.4-.3.7-.7 1.1-1l.8-.7 1 .4c2.3.9 3.9 3 4.5 5.6.6 2.7-.1 5.5-1.7 7.2-3.3 3.5-7.1 6.7-10.7 9.7-1 .8-2 1.7-2.9 2.5-1 .8-2.3 1-3.3 1.1h-.1c-.5 0-1 .1-1.5.1"/>
  <path fill="#00A78E" d="M118.2 78.7c4 1.6 4.7 7.5 2.2 10.1-4.2 4.4-8.9 8.2-13.5 12.1-.6.5-1.7.6-2.5.7-.4.1-.8.1-1.2.1-4.4 0-6.9-3.2-5.4-7.8.7-2.2 2.2-4.1 3.5-6 .8-1.3 2-1.8 3.7-1.8 3.8-.1 7-1.8 9.9-4.2 1-1.1 2.2-2.1 3.3-3.2m-.7-3.8l-1.6 1.4c-.4.3-.7.6-1.1 1l-2.4 2.1c-2.7 2.3-5.1 3.4-7.8 3.4-2.9.1-5 1.2-6.4 3.4-.3.4-.6.9-.9 1.3-1.1 1.6-2.3 3.4-2.9 5.5-1 3.3-.6 6.3 1.1 8.6 1.7 2.3 4.3 3.5 7.6 3.5.5 0 1.1 0 1.6-.1h.1c1.1-.1 2.8-.3 4.2-1.5 1-.8 2-1.7 2.9-2.5 3.6-3.1 7.4-6.3 10.8-9.8 2-2.1 2.8-5.4 2.1-8.7-.7-3.2-2.7-5.7-5.5-6.8l-1.8-.8z"/>
  <path fill-rule="evenodd" clip-rule="evenodd" fill="#FFF" d="M102.2 123.1c-2.2 0-4-.9-5.3-2.6-1.3-1.8-1.6-4.7-.7-7.9.9-3.1 2.6-5.5 4.6-6.3.5-.2 1-.2 1.3-.2h.8c3.9 0 7.2-1.4 10.4-4.2.8-.7 1.6-1.4 2.4-2.2l2.3-2 1.1 1.1c3.9 3.8 3.8 9.1-.1 13.2-3 3.2-6.4 6.1-9.3 8.5-1.3 1.1-3 1.9-4.9 2.3-1 .2-1.8.3-2.6.3"/>
  <path fill="#00A78E" d="M117.9 100.1c3.2 3.1 3.2 7.4-.1 10.8-2.9 3-6 5.7-9.2 8.3-1.1.9-2.7 1.6-4.1 1.9-.7.2-1.5.3-2.2.3-1.5 0-2.9-.5-4-1.9-2.2-2.9-.2-10.3 3.2-11.6.2-.1.4-.1.7-.1h.7c4.4 0 8.2-1.7 11.5-4.6 1.1-1 2.2-2 3.5-3.1m.1-4.6l-2.3 2.1-1.2 1.1c-.8.7-1.6 1.4-2.3 2.1-2.8 2.5-5.8 3.8-9.3 3.8h-.8c-.5 0-1.1 0-1.9.3-2.5 1-4.6 3.8-5.6 7.4-1 3.6-.6 7.1 1 9.3 1.1 1.5 3.2 3.2 6.6 3.2.9 0 1.8-.1 2.9-.3 2.1-.5 4.1-1.4 5.6-2.6 2.9-2.4 6.4-5.4 9.5-8.6 4.5-4.7 4.5-11.1 0-15.5l-2.2-2.3z"/>
  <path fill-rule="evenodd" clip-rule="evenodd" fill="#FFF" d="M109.3 45.4c0-4.1 0-8.1.1-12 0-1.3 1.1-3 2.4-3.3.3-.1.6-.2.9-.2 1.8-.4 3.6-.9 5.4-.9h.8c3.3.2 6.1 2 7.4 4.7 1.3 2.8.9 6.1-1 8.9-1.1 1.5-2.2 2.6-3.3 3.2-2.3 1.3-4.7 2.4-7.2 3.6-1 .5-2 1-3.1 1.5l-2.4 1.2v-6.7z"/>
  <path fill="#00A78E" d="M118.2 30.6h.6c5.9.4 8.5 6.1 5.1 11-.7 1-1.6 2.1-2.7 2.7-3.2 1.7-6.5 3.2-10.2 5 0-5.7 0-10.8.1-15.9 0-.6.7-1.6 1.2-1.7 1.9-.4 3.9-1.1 5.9-1.1m0-3.3c-2.1 0-4.1.5-5.9 1-.3.1-.6.2-.9.2-2.2.5-3.7 3-3.7 4.9-.1 3.9-.1 7.9-.1 12v9.3l4.8-2.3c1.1-.5 2.1-1 3.1-1.5 2.5-1.2 4.9-2.3 7.2-3.6 1.4-.8 2.6-2 3.9-3.7 2.3-3.3 2.8-7.3 1.2-10.6-1.6-3.3-4.8-5.4-8.8-5.6-.2-.1-.5-.1-.8-.1"/>
  <path fill-rule="evenodd" clip-rule="evenodd" fill="#FFF" d="M17.2 164.6c-4.6-22-10-35.3-14.4-55.4-.6-2.9-.9-6.3-.2-9.1 2.4-9.6 4.7-19.2 8.1-28.5 4.7-12.8 10.5-25.3 15.8-38 .7-1.6 1.4-3.1 2-4.6 6.8 1.5 11 8.3 8.9 15.6-2.5 8.5-5.9 16.6-8.9 24.9-.5 1.3-.9 2.6-.9 4-.1 13.7 0 27.4-.1 41.2-.1 11.1 7.5 18.5 18.7 18 14.4-.6 28.8-1 43.2 0 5.2.4 9.7-1.1 13.6-4.4 1.3-1.1 3.5-1.3 4.7-2.5-.9 1.4-1.7 2.9-2.5 4.4-7.1 11.6-11.9 21.6-21 31.7-1.7 2-1.2 1.1-3.8 4.9-.3.4-2.8 3.3-3.2 3.6-35.8 21.7-60-5.8-60-5.8"/>
  <path fill="none" stroke="#00A78E" stroke-width="4.448" stroke-miterlimit="10" d="M17.2 164.6c-4.6-22-10-35.3-14.4-55.4-.6-2.9-.9-6.3-.2-9.1 2.4-9.6 4.7-19.2 8.1-28.5 4.7-12.8 10.5-25.3 15.8-38 .7-1.6 1.4-3.1 2-4.6 6.8 1.5 11 8.3 8.9 15.6-2.5 8.5-5.9 16.6-8.9 24.9-.5 1.3-.9 2.6-.9 4-.1 13.7 0 27.4-.1 41.2-.1 11.1 7.5 18.5 18.7 18 14.4-.6 28.8-1 43.2 0 5.2.4 9.7-1.1 13.6-4.4 1.3-1.1 3.5-1.3 4.7-2.5-.9 1.4-1.7 2.9-2.5 4.4-7.1 11.6-11.9 21.6-21 31.7-1.7 2-1.2 1.1-3.8 4.9-.3.4-2.8 3.3-3.2 3.6-35.8 21.7-60-5.8-60-5.8z"/>
</svg>