<svg xmlns="http://www.w3.org/2000/svg" width="269.8" height="264.1" viewBox="0 0 269.8 264.1"><path fill="#32CFB6" d="M105.7 75.2S70.4 89 50.4 64.4c-17.3-21.3-22-56-22-56l-24 5.3s-5 90.7 72 148.7c7.2 5.4 5.4 100.9 5.4 100.9l99.8.8.3-101.3s49.2-46.4 61.2-70.4 24.7-85.3 24.7-85.3l-28-2.7s-4 76.7-78.7 73.7c-15.9-.6-35.2 5.7-55.4-2.9"/><text transform="translate(68.63 146.34)" fill="#FFF" font-family="'Foco-Bold'" font-size="30.478">COLLEGE</text><path fill="#32CFB6" stroke="#FCFCFC" stroke-width="2" stroke-miterlimit="10" d="M1.1 4.1l2 18 26.5-3 1-18zm267.5 15.6l-1.7-15.1L241 2.5l-5.6 13.8zm-187 230.1l99.5-.5"/></svg>