<svg xmlns="http://www.w3.org/2000/svg" width="145.4" height="39.2" viewBox="0 0 145.4 39.2"><path fill="#FFF" d="M2.7 25.1l25.6 5.7c.6.3 3.6.9 4.3.8L44 29.2c.4-.1 2.7-.2 3.1-.2l48.7 9h8.6s40.4-29.1 39.8-31.3l-25.6-5.4c-.5-1.7-9.8 10.1-9.8 10.1-.2 0-8.4 8.3-11.5 9.1l-52.6-2.4c-.3 0-.5 0-.7-.1l-16.5-3.7c-2.8-1-5.6-1.4-5.4 1.4l1.3.8 8 4.8-2.2 1.4c-1.3.8-2.9 1-4.4.5-1.1-.4-17.5-.8-18.4-1.1l-3.7 3z"/><path fill="none" stroke="#00A78E" stroke-width="2.383" stroke-miterlimit="10" d="M2.7 25.1l25.6 5.7c.6.3 3.6.9 4.3.8L44 29.2c.4-.1 2.7-.2 3.1-.2l48.7 9h8.6s40.4-29.1 39.8-31.3l-25.6-5.4c-.5-1.7-9.8 10.1-9.8 10.1-.2 0-8.4 8.3-11.5 9.1l-52.6-2.4c-.3 0-.5 0-.7-.1l-16.5-3.7c-2.8-1-5.6-1.4-5.4 1.4l1.3.8 8 4.8-2.2 1.4c-1.3.8-2.9 1-4.4.5-1.1-.4-17.5-.8-18.4-1.1l-3.7 3z"/></svg>