<svg xmlns="http://www.w3.org/2000/svg" width="87.5" height="55.2" viewBox="0 0 87.5 55.2"><path fill="#00A78E" d="M0 0h8.9v8.9H0z"/><path fill="#D20962" d="M13.1 0H22v8.9h-8.9z"/><path fill="#00A78E" d="M26.2 0h8.9v8.9h-8.9zm13.1 0h8.9v8.9h-8.9zm13.1 0h8.9v8.9h-8.9zm13.1 0h8.9v8.9h-8.9zm13.1 0h8.9v8.9h-8.9zM0 11.6h8.9v8.9H0zm13.1 0H22v8.9h-8.9zm13.1 0h8.9v8.9h-8.9zm13.1 0h8.9v8.9h-8.9zm13.1 0h8.9v8.9h-8.9zm13.1 0h8.9v8.9h-8.9zm13.1 0h8.9v8.9h-8.9zM0 23.1h8.9V32H0zm13.1 0H22V32h-8.9zm13.1 0h8.9V32h-8.9zm13.1 0h8.9V32h-8.9zm13.1 0h8.9V32h-8.9zm13.1 0h8.9V32h-8.9zm13.1 0h8.9V32h-8.9zM0 34.7h8.9v8.9H0zm13.1 0H22v8.9h-8.9zm13.1 0h8.9v8.9h-8.9zm13.1 0h8.9v8.9h-8.9zm13.1 0h8.9v8.9h-8.9zm13.1 0h8.9v8.9h-8.9zm13.1 0h8.9v8.9h-8.9zM0 46.3h8.9v8.9H0zm13.1 0H22v8.9h-8.9z"/></svg>