<svg xmlns="http://www.w3.org/2000/svg" width="331.2" height="443.1" viewBox="0 0 331.2 443.1">
  <path fill="#FFF" d="M0 0h331.2v443.1H0z"/>
  <path d="M133.3 22.8h62.1c.1.4.2.9.2 1.4.1.5.1 1.2.1 2 0 2.5-.7 4.5-2.1 6.2-1.4 1.7-4 2.5-7.7 2.5h-38.6V68h36.5v12.4h-36.5v38h40.9c3.4 0 6 .8 7.6 2.5 1.6 1.7 2.4 3.7 2.4 6.2v1.4c0 .5-.1 1.2-.2 2h-64.7V22.8zM95.2 152.3h46.6c.1.4.1.7.2 1 0 .3.1.8.1 1.5 0 1.9-.5 3.4-1.6 4.6-1 1.2-3 1.9-5.9 1.9h-28.8v24.1h27.4v9.2h-27.4V233H95.2v-80.7zm86.9.2c3-.3 6.1-.6 9.5-.8 3.3-.2 6.5-.3 9.6-.3 11.1 0 19.2 2 24.3 5.9 5.1 3.9 7.7 9.8 7.7 17.6 0 5.2-.9 9.6-2.6 13-1.7 3.5-4.1 6.2-7.1 8.3-3 2.1-6.4 3.6-10.3 4.4-3.9.8-7.9 1.3-12.1 1.3h-8.6v31H182v-80.4zm15.2 40.7c3.9 0 7.5-.2 10.6-.7 3.1-.5 5.7-1.4 7.8-2.7 2.1-1.3 3.8-3.1 4.9-5.4 1.1-2.3 1.7-5.2 1.7-8.9 0-3-.5-5.4-1.6-7.4-1-2-2.5-3.5-4.3-4.7-1.8-1.2-4-2-6.5-2.5s-5.1-.7-8-.7c-2.1 0-3.9 0-5.4.1-1.5.1-3 .2-4.3.4h.2v32.5h4.9zM81.1 255.1H64c-.2-.7-.2-1.4-.2-2.3 0-1 .4-1.9 1.2-2.7.8-.8 2.1-1.2 3.7-1.2h36.9c.1.3.1.6.1 1v.8c0 1.2-.4 2.2-1.2 3-.8.8-2 1.2-3.7 1.2H88.2v47.7h-7.1v-47.5zM182 275.7c0 3.9-.4 7.5-1.3 10.9-.9 3.4-2.3 6.4-4.1 9-1.9 2.6-4.3 4.6-7.3 6.2-3 1.5-6.6 2.3-10.7 2.3s-7.7-.8-10.7-2.4c-2.9-1.6-5.3-3.7-7.1-6.3-1.8-2.6-3.1-5.6-3.9-9-.8-3.4-1.2-7-1.2-10.7 0-3.7.5-7.2 1.4-10.6.9-3.4 2.3-6.3 4.3-8.8 1.9-2.5 4.4-4.6 7.4-6.1s6.5-2.3 10.7-2.3c4 0 7.5.7 10.3 2.2 2.9 1.4 5.2 3.4 7.1 5.9 1.8 2.5 3.2 5.4 4.1 8.8.6 3.5 1 7 1 10.9m-7.3 0c0-2.9-.3-5.7-.8-8.3-.5-2.6-1.4-4.9-2.6-6.8-1.2-2-2.8-3.5-4.8-4.7-2-1.2-4.5-1.7-7.4-1.7-3.1 0-5.6.6-7.6 1.7-2 1.2-3.7 2.7-4.9 4.7-1.3 2-2.2 4.2-2.7 6.8-.5 2.6-.8 5.4-.8 8.3 0 2.9.3 5.7.8 8.3.5 2.7 1.4 5 2.7 7 1.2 2 2.9 3.7 4.9 4.9s4.5 1.8 7.5 1.8c2.9 0 5.4-.6 7.5-1.8 2-1.2 3.7-2.9 4.9-4.9 1.2-2 2.1-4.4 2.7-7 .3-2.6.6-5.4.6-8.3m37.6 22l29.8-42.6h-27.4c-.2-.7-.2-1.4-.2-2.3 0-1 .4-1.9 1.2-2.7.8-.8 2-1.1 3.7-1.1h28.8c.9 0 1.6.2 2.1.6.5.4.8 1.1.8 2.1v2.3l-30.2 42.8h25.7c1.7 0 2.9.4 3.7 1.2.8.8 1.2 1.8 1.2 3 0 .7-.1 1.3-.2 1.8h-38.8v-5.1zM58.2 317.6c.3 0 .6-.1 1-.1h.9c.5 0 1 .1 1.5.2s1 .3 1.5.7c.4.3.8.8 1.1 1.4.3.6.4 1.4.4 2.4v39h17c1.6 0 2.7.4 3.4 1.1.7.8 1 1.7 1 2.7v.7c0 .2 0 .5-.1 1H58.2v-49.1zm57 .2c1.8-.2 3.7-.4 5.7-.5 2-.1 4-.2 5.8-.2 6.7 0 11.6 1.2 14.7 3.6 3.1 2.4 4.6 6 4.6 10.7 0 3.2-.5 5.8-1.6 7.9-1 2.1-2.5 3.8-4.3 5-1.8 1.3-3.9 2.2-6.2 2.7-2.3.5-4.8.8-7.3.8h-5.2v18.8H115v-48.8zm9.2 24.7c2.4 0 4.5-.1 6.4-.4 1.9-.3 3.5-.8 4.8-1.6 1.3-.8 2.3-1.9 3-3.3.7-1.4 1-3.2 1-5.4 0-1.8-.3-3.3-1-4.5-.6-1.2-1.5-2.1-2.6-2.9-1.1-.7-2.4-1.2-3.9-1.5-1.5-.3-3.1-.4-4.8-.4-1.3 0-2.4 0-3.3.1-.9 0-1.8.1-2.6.2h.1v19.7h2.9zm52.1-24.8h28.2c0 .2.1.4.1.6v.9c0 1.1-.3 2.1-1 2.8-.6.8-1.8 1.1-3.5 1.1h-17.6v15.1h16.6v5.6h-16.6v17.3h18.6c1.6 0 2.7.4 3.4 1.1.7.8 1.1 1.7 1.1 2.8v.6c0 .2 0 .5-.1.9h-29.4v-48.8zm59.3.2c2.6-.3 4.9-.5 6.9-.6 1.9-.1 3.8-.1 5.5-.1 4.7 0 8.6.6 11.7 1.9 3.1 1.3 5.6 3 7.5 5.2 1.9 2.2 3.2 4.8 4 7.7.8 2.9 1.2 6 1.2 9.4 0 4.4-.7 8.5-2.2 12.1-1.5 3.7-3.8 6.7-6.9 9-1.9 1.4-4.2 2.4-6.9 3.1-2.7.7-5.8 1.1-9.4 1.1h-11.4v-48.8zm12.4 43.3c3.3 0 6-.5 8.3-1.5 2.3-1 4.1-2.4 5.5-4.2 1.4-1.8 2.4-3.8 3-6.2.6-2.4.9-4.9.9-7.6 0-2.7-.3-5.3-.8-7.6s-1.5-4.3-2.9-6c-1.4-1.7-3.2-3-5.5-3.9-2.3-.9-5.1-1.4-8.5-1.4-1 0-2 0-3 .1-1.1 0-2.1.1-3.1.3v38h6.1zM48.8 384.1c1.2-.1 2.5-.2 3.8-.3 1.3-.1 2.6-.1 3.9-.1 4.5 0 7.8.8 9.8 2.4 2.1 1.6 3.1 4 3.1 7.1 0 2.1-.3 3.9-1 5.3s-1.7 2.5-2.9 3.4c-1.2.8-2.6 1.4-4.1 1.8-1.6.3-3.2.5-4.9.5H53v12.5h-4.2v-32.6zm6.1 16.4c1.6 0 3-.1 4.3-.3 1.3-.2 2.3-.6 3.2-1.1.9-.5 1.5-1.2 2-2.2.5-.9.7-2.1.7-3.6 0-1.2-.2-2.2-.6-3-.4-.8-1-1.4-1.7-1.9s-1.6-.8-2.6-1c-1-.2-2.1-.3-3.2-.3h-2.2c-.6 0-1.2.1-1.8.1v13.1h1.9zm46.9-16.5h18.8c0 .1.1.3.1.4v.6c0 .7-.2 1.4-.6 1.9-.4.5-1.2.8-2.3.8h-11.7v10h11.1v3.8h-11.1V413h12.4c1 0 1.8.3 2.3.8.5.5.7 1.1.7 1.9v1h-19.6V384zm72.9 6.6l-1.2-1.2c-.5-.4-1-.8-1.6-1.1-.6-.3-1.3-.6-2.1-.8-.8-.2-1.6-.3-2.6-.3-2 0-3.6.4-4.9 1.1-1.3.8-2.3 1.8-3.1 3-.8 1.3-1.3 2.7-1.6 4.2-.3 1.6-.5 3.2-.5 4.9 0 1.7.2 3.3.5 4.9.3 1.6.9 3 1.7 4.3.8 1.3 1.9 2.3 3.2 3 1.3.7 3 1.1 5 1.1 1.1 0 2-.2 2.9-.5.9-.3 1.6-.7 2.3-1.1.7-.4 1.2-.8 1.6-1.2l.9-.9c.4.3.7.7 1.1 1.2.4.5.6 1 .6 1.4 0 .5-.2 1-.7 1.5-.2.2-.5.4-.9.8-.5.4-1.1.7-1.8 1.1-.7.4-1.7.7-2.7 1-1.1.3-2.3.4-3.7.4-2.5 0-4.7-.4-6.5-1.3s-3.3-2-4.5-3.5c-1.2-1.5-2-3.3-2.6-5.4-.6-2.1-.8-4.3-.8-6.8 0-2.4.3-4.7.9-6.8.6-2.1 1.4-3.9 2.6-5.4 1.2-1.5 2.7-2.7 4.5-3.6 1.8-.9 4-1.3 6.5-1.3 1.3 0 2.5.1 3.7.4 1.2.3 2.2.7 3.1 1.1.9.5 1.6 1 2.1 1.5.5.6.8 1.1.8 1.6 0 .4-.1.9-.4 1.3-.3.5-.6.9-.9 1.2h-.9zm34.7-6.6h18.8c0 .2.1.3.1.4v.6c0 .7-.2 1.4-.6 1.9-.4.5-1.2.8-2.4.8h-11.7v9.8h11.1v3.7h-11.1v15.5h-4.2V384zm47.4.1c1.8-.2 3.3-.3 4.6-.4 1.3-.1 2.5-.1 3.7-.1 3.1 0 5.7.4 7.8 1.3 2.1.8 3.7 2 5 3.5 1.3 1.5 2.1 3.2 2.7 5.1.5 2 .8 4 .8 6.2 0 3-.5 5.7-1.5 8.1-1 2.4-2.5 4.4-4.6 6-1.3.9-2.8 1.6-4.6 2.1-1.8.5-3.9.7-6.2.7h-7.6v-32.5zm8.3 28.9c2.2 0 4-.3 5.5-1s2.7-1.6 3.7-2.8c.9-1.2 1.6-2.5 2-4.1.4-1.6.6-3.3.6-5.1s-.2-3.5-.5-5c-.4-1.5-1-2.9-1.9-4-.9-1.1-2.1-2-3.6-2.6-1.5-.6-3.4-.9-5.7-.9h-2c-.7 0-1.4.1-2.1.2V413h4z" fill="#00A78E"/>
</svg>