<svg xmlns="http://www.w3.org/2000/svg" viewBox="-208 279.7 181.4 42.3">
  <path d="M-204.8 286.4c1.4-.2 2.7-.3 3.8-.3 1.1-.1 2.1-.1 3-.1 2.6 0 4.7.3 6.4 1s3.1 1.6 4.1 2.8c1 1.2 1.8 2.6 2.2 4.2.4 1.6.6 3.3.6 5.1 0 2.4-.4 4.6-1.2 6.6s-2.1 3.6-3.8 4.9c-1 .7-2.3 1.3-3.8 1.7-1.5.4-3.2.6-5.1.6h-6.2v-26.5zm6.8 23.7c1.8 0 3.3-.3 4.5-.8 1.2-.6 2.2-1.3 3-2.3s1.3-2.1 1.6-3.4c.3-1.3.5-2.7.5-4.2s-.1-2.9-.4-4.1c-.3-1.3-.8-2.4-1.6-3.3-.7-.9-1.7-1.6-3-2.1-1.2-.5-2.8-.8-4.7-.8h-1.7c-.6 0-1.1.1-1.7.2v20.8h3.5zm20.8-5.8c.1 1.9.6 3.5 1.5 4.7.9 1.2 2.4 1.8 4.4 1.8.7 0 1.4-.1 2-.2.6-.2 1.1-.4 1.5-.6.4-.2.8-.5 1.1-.7l.7-.7c.3.4.6.8.8 1.2.2.4.3.8.3 1 0 .2-.1.4-.2.7-.1.2-.4.5-.7.7-.6.5-1.4.8-2.4 1.1-1 .3-2.1.5-3.5.5-1.3 0-2.4-.2-3.5-.5-1.1-.4-2.1-.9-2.9-1.7-.8-.8-1.5-1.8-2-3.1s-.7-2.9-.7-4.7c0-1.7.2-3.1.7-4.4.5-1.2 1.1-2.2 1.9-3 .8-.8 1.7-1.4 2.7-1.7 1-.4 2.1-.6 3.2-.6 1.4 0 2.5.2 3.5.7 1 .5 1.8 1.1 2.4 1.8.6.8 1.1 1.6 1.4 2.6s.4 2 .4 3.1v1.1c0 .4 0 .8-.1 1.1h-12.5zm9.3-2.5c0-.7-.1-1.4-.2-2-.1-.6-.4-1.2-.7-1.6-.3-.5-.8-.8-1.4-1.1-.6-.3-1.3-.4-2.1-.4-1.4 0-2.5.5-3.4 1.4-.9.9-1.4 2.2-1.5 3.8h9.3zm20.4 9.7c-.2.2-.5.5-.8.7s-.7.5-1.1.7c-.4.2-.9.4-1.5.5-.6.1-1.2.2-1.8.2-1 0-2-.2-3-.5s-1.8-.9-2.5-1.7c-.7-.8-1.3-1.8-1.7-3-.4-1.2-.6-2.8-.6-4.5 0-1.8.2-3.3.7-4.6.4-1.3 1-2.3 1.8-3.1.7-.8 1.6-1.4 2.6-1.8 1-.4 2-.6 3-.6 1.2 0 2.2.2 3.1.6.8.4 1.5.9 2.1 1.4v-11.1h.8c.8 0 1.4.2 1.9.6.5.4.7 1.1.7 2.1v25.7h-3.3v-1.6zm-.1-12.7c-.1-.2-.3-.4-.6-.6-.3-.2-.6-.5-1-.7-.4-.2-.8-.4-1.3-.6-.5-.1-1.1-.2-1.7-.2-1.5 0-2.7.6-3.6 1.7-.9 1.1-1.3 2.8-1.3 5.1 0 1 .1 2 .2 2.9.2.9.4 1.6.8 2.3.4.7.9 1.2 1.6 1.5.7.4 1.5.5 2.4.5.6 0 1.2-.1 1.8-.2.5-.2 1-.4 1.4-.6s.7-.5.9-.8.3-.6.3-1v-9.3zm9.2-4.7h.8c.8 0 1.4.2 1.9.6.5.4.7 1.1.7 2.1v9.3c0 1 .1 1.9.2 2.5.1.6.4 1.1.9 1.4.4.3.8.5 1.3.6.5.1 1 .2 1.6.2.7 0 1.4-.1 2-.3.6-.2 1.1-.4 1.5-.7.4-.3.8-.6 1-.9.2-.3.4-.6.4-.9v-13.8h.8c.8 0 1.4.2 1.9.6.5.4.7 1.1.7 2.1v16.3h-3.4v-1.8c-.5.6-1.3 1.2-2.2 1.6-1 .5-2.2.7-3.7.7s-2.7-.2-3.6-.7c-.9-.5-1.5-1.1-1.9-1.8-.4-.7-.7-1.6-.7-2.5s-.1-1.8-.1-2.6v-12zm34.5 4.9c-.5-.5-1-1-1.8-1.5-.7-.5-1.7-.7-2.9-.7-1 0-1.9.2-2.6.5-.7.3-1.3.8-1.8 1.5-.5.6-.8 1.4-1 2.2-.2.8-.3 1.7-.3 2.7 0 1 .1 1.9.3 2.8.2.9.6 1.6 1 2.3.5.6 1.1 1.1 1.8 1.5.7.4 1.6.6 2.7.6.7 0 1.4-.1 1.9-.3.6-.2 1.1-.5 1.5-.8.5-.3 1-.7 1.3-1.1l.4.4s.3.4.4.6.3.4.4.6c.1.2.1.4.1.6 0 .4-.3.8-.8 1.3s-1.2.8-2.2 1.2c-.9.3-2.1.5-3.5.5-.9 0-1.8-.1-2.8-.4-1-.2-2-.7-2.9-1.4s-1.6-1.7-2.3-3c-.6-1.3-.9-3-.9-5.1 0-2 .3-3.6 1-4.9.6-1.3 1.4-2.3 2.4-3s1.9-1.2 3-1.5c1.1-.3 2-.4 2.8-.4 1 0 1.8.1 2.6.3.8.2 1.4.5 2 .8.5.3 1 .6 1.3 1 .3.3.4.7.4 1 0 .3-.1.7-.3 1.1-.2.4-.4.7-.6 1h-.6zm5.5-10.5h.8c.8 0 1.4.2 1.9.6.5.4.7 1.1.7 2.1v3.1h6v2.9h-6v10.3c0 2.2.9 3.3 2.6 3.3.4 0 .8-.1 1.2-.2s.7-.3 1-.5c.3-.2.6-.4.7-.6l.4-.4c.3.4.6.8.8 1.2.2.4.3.7.3 1.1 0 .2-.1.5-.4.8-.2.3-.6.5-1 .8-.4.2-1 .4-1.6.6-.6.2-1.3.2-2.1.2-1.4 0-2.5-.3-3.3-.8-.8-.5-1.4-1.3-1.8-2.2-.2-.5-.3-1.1-.3-1.7 0-.6-.1-1.2-.1-1.8v-18.8zm13.7-.4c0-.7.2-1.2.6-1.6.4-.4.9-.6 1.5-.6s1.1.2 1.5.6c.4.4.6 1 .6 1.6 0 .6-.2 1.1-.6 1.5-.4.4-.9.6-1.5.6s-1.1-.2-1.5-.6c-.4-.4-.6-.9-.6-1.5zm.6 6h.8c.8 0 1.4.2 1.9.6.5.4.7 1.1.7 2.1v12.7c0 .8.1 1.3.3 1.6s.8.5 1.6.5v1.4c-.2.1-.6.1-1 .2s-.8.1-1.2.1c-.8 0-1.4-.1-1.8-.4s-.7-.6-.9-1c-.2-.4-.3-.8-.4-1.3 0-.5-.1-1-.1-1.5v-15zm9.7-9.4h.8c.8 0 1.4.2 1.9.6.5.4.7 1.1.7 2.1v8.5c.5-.5 1.2-1 2.1-1.4.9-.4 2-.6 3.4-.6 1 0 2 .2 2.9.5s1.7.9 2.4 1.7c.7.8 1.3 1.7 1.7 3 .4 1.2.6 2.7.6 4.5 0 2-.2 3.7-.7 5-.5 1.3-1.1 2.4-1.9 3.1-.8.8-1.7 1.3-2.6 1.6s-1.9.5-2.8.5c-.8 0-1.4-.1-2-.2-.6-.2-1.1-.4-1.5-.6-.4-.2-.8-.5-1-.7-.3-.3-.5-.5-.6-.7v1.6h-3.3v-28.5zm3.4 23.9c.2.2.4.4.6.7.3.3.6.5 1 .7.4.2.8.4 1.3.6.5.2 1 .2 1.6.2 1.7 0 2.9-.6 3.8-1.8s1.2-3 1.2-5.3c0-1-.1-1.9-.3-2.7-.2-.9-.5-1.6-.8-2.2-.4-.6-.9-1.1-1.6-1.5-.7-.4-1.5-.5-2.4-.5-1.3 0-2.4.3-3.2.8-.8.6-1.2 1.2-1.2 2v9zm18.1-23.9h.8c.8 0 1.4.2 1.9.6.5.4.7 1.1.7 2.1v22.9c0 .3.1.5.2.7s.3.3.6.4c.3.1.6.1 1.1.1v1.4c-.2.1-.6.1-1 .2s-.8.1-1.2.1c-.8 0-1.4-.1-1.8-.4-.4-.2-.7-.6-.9-1s-.3-.8-.4-1.3c0-.5-.1-1-.1-1.5v-24.3zm11.7 19.6c.1 1.9.6 3.5 1.5 4.7s2.4 1.8 4.4 1.8c.7 0 1.4-.1 2-.2.6-.2 1.1-.4 1.5-.6.4-.2.8-.5 1.1-.7l.7-.7c.3.4.6.8.8 1.2.2.4.3.8.3 1 0 .2-.1.4-.2.7-.1.2-.4.5-.7.7-.6.5-1.4.8-2.4 1.1-1 .3-2.1.5-3.5.5-1.3 0-2.4-.2-3.5-.5-1.1-.4-2.1-.9-2.9-1.7-.8-.8-1.5-1.8-2-3.1s-.7-2.9-.7-4.7c0-1.7.2-3.1.7-4.4.5-1.2 1.1-2.2 1.9-3 .8-.8 1.7-1.4 2.7-1.7 1-.4 2.1-.6 3.2-.6 1.4 0 2.5.2 3.5.7s1.8 1.1 2.4 1.8 1.1 1.6 1.4 2.6c.3 1 .4 2 .4 3.1v1.1c0 .4 0 .8-.1 1.1h-12.5zm9.4-2.5c0-.7-.1-1.4-.2-2-.1-.6-.4-1.2-.7-1.6-.3-.5-.8-.8-1.4-1.1-.6-.3-1.3-.4-2.1-.4-1.4 0-2.5.5-3.4 1.4-.9.9-1.4 2.2-1.5 3.8h9.3z" fill="#FFF"/>
</svg>