<svg xmlns="http://www.w3.org/2000/svg" width="132.8" height="376.4" viewBox="0 0 132.8 376.4">
  <path fill="#FFF" d="M56.4 154.9s.3 10.7-4.8 13.7c-4.5 2.7-6.6 3.2-6.6 3.2s22.3 8.9 40.1 1.7c-9.6-2.6-9-5.9-9-5.9l-1.7-11.1-18-1.6z"/>
  <path fill="none" stroke="#00A78E" stroke-width="3.076" stroke-miterlimit="10" d="M56.4 154.9s.3 10.7-4.8 13.7c-4.5 2.7-6.6 3.2-6.6 3.2s22.3 8.9 40.1 1.7c-9.6-2.6-9-5.9-9-5.9l-1.7-11.1-18-1.6z"/>
  <path fill="#FFF" d="M30.3 375.5l-5.1-80.8h75.3l-1.7 80.8H68.1V310c0-1.7-1.1-3.1-4.5-3.1s-4.5 1.4-4.5 3.1v65.5H30.3zM17 286.2c.7 2.1.7 3.9-2.1 3.4l-.6-1-3.8-6.2-1.6 1.2c-.9.7-1.3 1.8-1 2.8.2.8.5 1.8.7 2.4.1.5.5.9 1 1.3l2.9 2.4c.7.6.3 1.1 0 1.6l-.5.3c-.8.4-2 .3-2.7-.4L6 291.4c-.3-.1-.6-.3-.8-.6l-4.4-8c-.3-.5-.5-2.5-.3-3l3.7-7.2c.1-.2.5-1.8.5-2l-3.2-33.9 1-5.7s6-28.4 8.1-27.6l20.5 7.5c1.6.6-6.1 14.5-6.1 14.5-3.6 6.8-4.8 9.1-6.1 13.3L15.1 274v.5l1.9 11.7z"/>
  <path fill="none" stroke="#00A78E" stroke-miterlimit="10" d="M17 286.2c.7 2.1.7 3.9-2.1 3.4l-.6-1-3.8-6.2-1.6 1.2c-.9.7-1.3 1.8-1 2.8.2.8.5 1.8.7 2.4.1.5.5.9 1 1.3l2.9 2.4c.7.6.3 1.1 0 1.6l-.5.3c-.8.4-2 .3-2.7-.4L6 291.4c-.3-.1-.6-.3-.8-.6l-4.4-8c-.3-.5-.5-2.5-.3-3l3.7-7.2c.1-.2.5-1.8.5-2l-3.2-33.9 1-5.7s6-28.4 8.1-27.6l20.5 7.5c1.6.6-6.1 14.5-6.1 14.5-3.6 6.8-4.8 9.1-6.1 13.3L15.1 274v.5l1.9 11.7z"/>
  <path fill="#FFF" d="M121.5 292.3c-.4 0-.8-.1-1.2-.3l-.7-.3-.2-.2c-.3-.4-.8-1.3.1-2.1l2.9-2.5c.5-.3.7-.7.8-1.1l.7-2.4c.2-.9-.1-1.7-.9-2.3l-1.2-.9-4.1 7h-.2c-.4.1-.8.1-1.1.1-.7 0-1.3-.2-1.6-.7-.5-.7-.5-1.8 0-3.4l1.6-11.6v-.4l-4.2-35.3c-.8-1.9-2-4.3-3.8-7.4-.1-.2-.2-.3-.2-.3-2.6-4.1-11.4-17.6-10.8-19.5.1-.2.2-.4.4-.5l20.4-8.1h.2c2.2 0 7.8 17.2 10.9 27.4l1.1 5.8-2.8 34.1c0 .2.4 1.6.5 1.8l3.8 7.1c.3.7.1 2.9-.3 3.5l-4.3 8.1c-.2.3-.5.6-.9.8l-3.1 2.8c-.3.5-1 .8-1.8.8"/>
  <path fill="#00A78E" d="M118.7 200.7c2.2 0 10.5 27.1 10.5 27.1l1.1 5.7-2.8 34c0 .2.4 1.8.5 2l3.8 7.1c.2.4 0 2.5-.3 3l-4.3 8.1c-.1.3-.4.5-.8.6l-3.2 2.8c-.5.4-1.1.6-1.8.6-.3 0-.7-.1-1-.2l-.5-.3c-.3-.5-.8-1-.1-1.6l2.9-2.5c.5-.4.9-.9 1-1.3.2-.6.4-1.6.7-2.4.3-1.1-.1-2.1-1-2.8l-1.6-1.2-3.7 6.3-.6 1c-.4.1-.7.1-1 .1-1.8 0-1.7-1.6-1.1-3.4l1.6-11.7v-.5l-4.2-35.3c-1.3-3.3-4-7.6-4-7.8 0 0-12.2-18.7-10.6-19.3l20.5-8.1c-.1.1-.1 0 0 0m0-1c-.2 0-.3 0-.5.1l-20.3 8c-.3.1-.6.4-.7.8-.2.6-.5 1.6 5.3 11.1 2.7 4.4 5.5 8.7 5.6 8.9 0 .1.1.2.2.3 1.7 3 3 5.4 3.8 7.2l4.1 35.2v.2l-1.6 11.6c-.5 1.7-.5 2.9.1 3.7.3.4.9.9 2 .9.4 0 .8 0 1.2-.1l.4-.1.2-.4.6-1 3.1-5.3.7.5c.4.3.9.9.7 1.7l-.7 2.4c-.1.3-.3.5-.6.8l-2.9 2.5c-1.3 1.2-.5 2.4-.2 2.8l.1.1.2.2.3.1.5.3c.4.2.9.3 1.4.3.9 0 1.8-.3 2.4-.9l3.1-2.7c.5-.2.9-.6 1.1-1l4.3-8.1c.4-.7.6-3.1.3-3.8l-3.8-7.1c-.1-.3-.4-1.3-.4-1.6l2.8-34v-.2l-1.1-5.7v-.2c0-.1-2.1-6.9-4.4-13.6-5.2-13.9-6.4-13.9-7.3-13.9"/>
  <path fill="#FFF" d="M130 207.9L105.9 226l-3.1-10.8 3.2 26.5c.4 4.5 16.3 86.8 16.3 86.8L16 325.7s7.8-81.9 8.3-86.1l4.4-24.7-3.7 10.2-21.4-16.4S1.3 212 10.9 195s30.8-23 30.8-23l25.6 3.4 24.4-1.6s22.6 4.7 32.2 21.7c9.5 16.9 6.1 12.4 6.1 12.4"/>
  <path fill="none" stroke="#00A78E" stroke-width="2.562" stroke-miterlimit="10" d="M130 207.9L105.9 226l-3.1-10.8 3.2 26.5c.4 4.5 16.3 86.8 16.3 86.8L16 325.7s7.8-81.9 8.3-86.1l4.4-24.7-3.7 10.2-21.4-16.4S1.3 212 10.9 195s30.8-23 30.8-23l25.6 3.4 24.4-1.6s22.6 4.7 32.2 21.7c9.5 16.9 6.1 12.4 6.1 12.4"/>
  <path fill="#FFF" d="M59.7 376.2s-1.3-12.3-22.2-11.2c-20.8 1.1-22.4 9.3-23.2 11.4m100.2-.2s-1.3-12.3-22.2-11.2c-20.8 1.1-22.4 9.3-23.2 11.4"/>
  <path fill="none" stroke="#FFF" stroke-miterlimit="10" d="M107.3 120.9s-5 6.7-11.2 12.8c-6.2 6.2 16.8 19.2 16.8 19.2s-13.2-14.6-5.6-32z"/>
  <path fill="#00A78E" d="M127.3 29.3c0 16.4-12.9 29.8-29.2 30.5-17.4.8-31.8-13.6-31.9-31C66.1 12.2 79.8.5 96.5.5c16.9 0 30.8 12 30.8 28.8"/>
  <path fill="none" stroke="#FFF" stroke-miterlimit="10" d="M127.3 29.3c0 16.4-12.9 29.8-29.2 30.5-17.4.8-31.8-13.6-31.9-31C66.1 12.2 79.8.5 96.5.5c16.9 0 30.8 12 30.8 28.8z"/>
  <path fill="#FFF" d="M10.8 79.1c4.6-49.9 22.6-54.3 35.6-54.9 13-.6 46.5-2.7 61.8 13.6 11.5 12.3 11.2 14.8 6.4 51.9-2.6 19.7.5 26.9-19.3 47.4-19.5 20.3-18.6 17.6-40 17.6-5.1 0-14.6-6.2-27.7-18.3-20-18.7-16.3-36.6-16.8-42.8"/>
  <path fill="#00A78E" d="M47.9 91.8c0 3.2-2.8 5.7-6.2 5.7-3.4 0-6.2-2.6-6.2-5.7s2.8-5.7 6.2-5.7c3.4 0 6.2 2.6 6.2 5.7"/>
  <path fill="#00A78E" d="M52.6 92s-.5-.4-1.3-1-2-1.4-3.4-2.1c-.7-.4-1.5-.7-2.3-1-.8-.3-1.7-.5-2.7-.6-.9-.1-1.9-.1-2.8 0-1 0-1.9.4-2.8.7-.9.4-1.9.8-2.7 1.4-.9.5-1.7 1.2-2.5 1.9-.8.6-1.7 1.6-2.6 2.1-.5.3-1 .5-1.4.6-.5.1-.9.2-1.4.2-1.7.2-3.2-.3-4.1-.8-.9-.5-1.3-1.1-1.3-1.1s.5.3 1.4.4c.9.1 2.2 0 3.6-.5.4-.1.7-.3 1.1-.5.4-.2.7-.4 1.1-.7.7-.5 1.2-1.3 2.1-2.2.8-.8 1.7-1.8 2.7-2.4 1-.8 2.1-1.3 3.2-1.8 1.1-.3 2.3-.7 3.5-.7 1.2-.1 2.3.1 3.4.3.5.2 1.1.3 1.5.5.5.2 1 .5 1.4.7.9.5 1.7 1.1 2.4 1.7.7.6 1.3 1.2 1.8 1.8.5.6.9 1.1 1.2 1.6.6.9.9 1.5.9 1.5"/>
  <path fill="#00A78E" d="M39.5 89.7c0 1.2-.6 2.1-1.3 2.1-.7 0-1.3-.9-1.3-2.1 0-1.2.6-2.1 1.3-2.1.7 0 1.3 1 1.3 2.1m15.8-18.9s3.5 3.7-5.9 4.7c-9.4 1.1-17.2-6.5-21.5-1-4.3 5.5-11.7 7.6-5.6 2.2 6.1-5.4 4.8-8.6 14.4-8 9.7.6 18 .5 18.6 2.1M71 73.1s-2.8 4.5 6.6 3.2C87 75 93.4 65.7 98.5 69.9c5.1 4.3 12.8 4.5 5.9.7-6.9-3.7-6.2-7.2-15.5-4.3-9.4 3.1-17.5 5.1-17.9 6.8"/>
  <path fill="#FFF" d="M63.6 101.7s3.3 9.9 6.2 13.1c10.7 11.6-18.6 9.8-11.2 5.6"/>
  <path fill="#00A78E" d="M63.6 101.7s.3.5.8 1.5c.5.9 1.2 2.3 2 3.9.4.8.9 1.7 1.4 2.6.5.9 1 1.9 1.6 2.7.3.4.6.9.9 1.3l.2.3.3.3c.2.2.4.5.6.7.8 1 1.6 2.2 1.7 3.8.1.8-.1 1.7-.6 2.4-.4.7-1 1.2-1.6 1.6-1.2.7-2.5 1-3.6 1.3-2.4.4-4.6.2-6.5-.1-.9-.2-1.8-.5-2.5-.8-.4-.2-.7-.4-.9-.7-.3-.3-.4-.7-.2-1 .3-.6.7-.7 1-.9.3-.1.4-.2.4-.2l-.3.3c-.2.2-.6.5-.7.9-.1.4.4.7 1.1.9.7.2 1.5.3 2.3.4.9.1 1.8.1 2.9 0 1-.1 2.1-.2 3.1-.5 1-.2 2.1-.6 2.9-1.2.8-.6 1.3-1.3 1.2-2.1-.1-.9-.7-1.8-1.3-2.7-.2-.2-.3-.4-.5-.6l-.3-.3-.3-.4c-.2-.3-.4-.5-.6-.8-.2-.3-.4-.5-.5-.8-.6-1-1.1-2.1-1.5-3-.4-1-.8-1.9-1.1-2.8-1-3.6-1.4-6-1.4-6m-14.8 30s19.3 9.4 30.5-5.8c-8.1 26-32.8 4-30.5 5.8m30.6-40.4c0 3.2 2.8 5.7 6.2 5.7 3.4 0 6.2-2.6 6.2-5.7s-2.8-5.7-6.2-5.7c-3.4 0-6.2 2.5-6.2 5.7"/>
  <path fill="#00A78E" d="M74.1 91.5s.5-.4 1.3-1 2-1.4 3.5-2.1c.7-.4 1.5-.7 2.4-1 .9-.3 1.7-.5 2.7-.6.9-.1 1.9-.1 2.8 0 1 0 1.9.4 2.9.7.9.4 1.9.8 2.7 1.4.9.5 1.7 1.2 2.5 1.9.8.6 1.7 1.6 2.7 2.1.5.3 1 .5 1.4.6.5.1.9.2 1.4.2 1.8.2 3.2-.3 4.1-.8.9-.5 1.3-1.1 1.3-1.1s-.5.3-1.4.4c-.9.1-2.2 0-3.7-.5-.4-.1-.7-.3-1.1-.5-.4-.2-.7-.4-1.1-.7-.7-.5-1.2-1.3-2.1-2.2-.8-.8-1.7-1.8-2.7-2.4-1-.8-2.1-1.3-3.2-1.8-1.2-.3-2.3-.7-3.5-.7-1.2-.1-2.3.1-3.4.3-.5.2-1.1.3-1.6.5s-1 .5-1.4.7c-.9.5-1.7 1.1-2.4 1.7-.7.6-1.3 1.2-1.8 1.8-.5.6-.9 1.1-1.2 1.6-.8.9-1.1 1.5-1.1 1.5m7.3-1.8c0 1.2.6 2.1 1.3 2.1.7 0 1.3-.9 1.3-2.1 0-1.2-.6-2.1-1.3-2.1-.7 0-1.3.9-1.3 2.1m5.3-49.5s21 17.4 23.3 31.5c2.3 14.1-.2 40.9-.2 40.9s8.4-24.8 9.7-36.1c.9-7.6 1.1-18.2.4-28.2-.7-9.9-12.8-21.2-22.7-20.4h-.4c-14.9 1.4-10.1 12.3-10.1 12.3"/>
  <path fill="none" stroke="#FFF" stroke-miterlimit="10" d="M86.7 40.2s21 17.4 23.3 31.5c2.3 14.1-.2 40.9-.2 40.9s8.4-24.8 9.7-36.1c.9-7.6 1.1-18.2.4-28.2-.7-9.9-12.8-21.2-22.7-20.4h-.4c-14.9 1.4-10.1 12.3-10.1 12.3z"/>
  <path fill="#00A78E" d="M8.9 76.5s.6-44.1 29.4-51.2c28.8-7.1 58.5 2.6 58.5 2.6s-22.7 39-87.9 48.6"/>
  <path fill="none" stroke="#FFF" stroke-miterlimit="10" d="M8.9 76.5s.6-44.1 29.4-51.2c28.8-7.1 58.5 2.6 58.5 2.6s-22.7 39-87.9 48.6z"/>
  <path fill="#FFF" d="M45.8 91.8c0 .9-.5 1.7-1.2 1.7-.6 0-1.2-.8-1.2-1.7 0-.9.5-1.7 1.2-1.7.6 0 1.2.7 1.2 1.7m44.2 0c0 .9-.5 1.7-1.2 1.7-.6 0-1.2-.8-1.2-1.7 0-.9.5-1.7 1.2-1.7s1.2.7 1.2 1.7m20.3-1.5s1.6-14.3 6-10.3c3.7 3.3 5.4 18.7 3.2 29.4-1 4.8-6.7 10.2-9.1 7.8-2.4-2.4-.1-26.9-.1-26.9m-95.7 1.1s-2.1-14.3-6.8-10.2c-5 4.3-4.5 22.7-2.8 29.4 1.2 4.8 7.5 10 10.1 7.6 2.5-2.4-.5-26.8-.5-26.8"/>
</svg>