<svg xmlns="http://www.w3.org/2000/svg" width="402.1" height="226.4" viewBox="0 0 402.1 226.4">
  <path fill="#32CFB6" d="M397.6 171c-1.3-1.4-2.6-2.8-4-4.1-30.4-28.1-64.2-50.9-102.9-66-16.6-6.4-33.8-11-51.8-11-5.9 0-11.9.2-14.8 6.7-5.2-3.6-31.9-15.6-38.1-17 2.9-6.5-1-11.1-4.9-15.5-12-13.4-26.8-23.2-42.7-31.3C101.3 14.1 61.8 4.1 20.6.2 18.7.1 16.8 0 14.9 0 6.6-.1 1.7 3.7 0 11.8c-.2 1.1.9 3.3 1.9 3.8 7.9 4 6.8 3 7.6 10 .3 3.2.6 5.8 2.8 8.3 7.6 8.5 10.7 8.6 8.9 20.8-1.1 7.3-.5 21.9 1.4 29 3.7 13.9 13.5 25 26.1 32.6 16.3 9.8 34 16.9 52.8 20.3 17.4 3.2 32.7-2.3 46.3-12.9 9.3-7.2 16.8-16.2 22.4-26.6 5.3-10 16.1-11.6 26.5-7.3 1.4.6 2.8 1.3 4.1 1.9l2.1.9 2.1.9 4.2 1.8c10.1 4.8 16.2 14 12.2 24.6-4.1 11.1-5.7 22.7-4.9 34.4 1.2 17.2 7.3 32.2 21.3 43.1 15.1 11.7 32.2 20.2 50.4 25.8 14 4.3 28.9 4.3 41.7-2.3 6.6-3.4 17.9-12.7 22.6-18.3 7.8-9.5 10-7.3 21.4-7.2 3.4 0 5.5-1.6 8.1-3.4 5.8-4.1 4.3-4.3 12.5-1 1.1.4 3.4-.2 4.1-1.1 5-6.6 4.6-12.7-1-18.9M166.4 99.2c-3.4 5-6.6 10.2-10.7 14.5-15.8 16.5-34.7 25.4-58 20.1-17.6-4-33.7-11.9-49.3-20.9-19.9-11.5-26.3-29.2-24.1-50.7.8-7.6 2.1-15.7 5.7-22.2 14.7-26.4 49.5-20.5 74.4-11.6 22.1 7.8 42.3 18.5 58.4 35.7 9.2 9.6 12.9 21.3 3.6 35.1M345 205.5c-14.6 16-32.1 23-53.8 15.8-17.1-5.6-33.8-12.3-48.5-22.8-19.5-13.9-25.5-33.8-23.7-56.6.5-5.9 2.2-11.8 3.7-17.6 4.1-16.2 15.2-21.1 28.5-20.8 23.6.6 45 8.4 65.6 19.7 23.2 12.7 50.8 34.7 41 63.2-2.5 7.1-7.7 13.5-12.8 19.1"/>
</svg>