<svg xmlns="http://www.w3.org/2000/svg" width="87.5" height="342.7" viewBox="0 0 87.5 342.7">
  <path fill="#FFF" d="M9 53.1s-1.5-10.5-5-7.5C.3 48.8.7 62.3 2 67.3c.9 3.5 5.5 7.4 7.4 5.6 1.9-1.8-.4-19.8-.4-19.8"/>
  <path fill="#00A78E" d="M83.2 84.8c0 10.5-8.5 19-19 19s-19-8.5-19-19 8.5-19 19-19 19 8.5 19 19"/>
  <circle fill="none" stroke="#FFF" stroke-width="2" stroke-miterlimit="10" cx="64.2" cy="84.8" r="19"/>
  <path fill="#FFF" d="M5.6 48c3.2-34.5 15.7-37.5 24.6-38 9-.4 32.2-1.9 42.7 9.4 8 8.5 7.7 10.2 4.4 35.9-1.7 13.6.4 18.6-13.3 32.8-13.5 14-12.8 12.2-27.6 12.2-3.5 0-10.1-4.3-19.1-12.7C3.4 74.7 6 62.3 5.6 58m73.1 162.1s3.5 7.5 3.1 9.1c-.3 1.6-3 7.6-5.5 9.6-2.4 2-6.6 3.1-5.5 1.5 1-1.6 1.2-.9 3.3-2.8 2.2-2.1 2.7-3.1 2.4-5.6-.3-2.4 0-2.2-2.2-2.7-3.4-.7-1.4 6.4-2.8 5.2-1.4-1.2-.9-3.7-.5-7.1.3-3.2 1.6-5.2 3.4-6 1.7-.8-5.1-40-5.1-40l-4.7-34.4c-.6 12.6-3.1 12-3.4 15.9-.9 10.8 3.5 28 2.4 28.3-1.9.4-42.9.5-44.3-.1-1.7-.7 2.9-15.1 2-29.5-.2-3.7-3.5-5.2-3-16.2 0 0-15-18.8-11.2-23.2 3.8-4.4 15.6-4.8 15.6-4.8l19.9 1.4 19.7-1.4s12.1.4 15.9 4.8c3.8 4.4 2.6 61.4 2.6 61.4l-2.1 36.6z"/>
  <path fill="#FFF" d="M3.7 220.1s-3.5 7.5-3.1 9.1c.3 1.6 3 7.6 5.5 9.6 2.4 2 6.6 3.1 5.5 1.5-1-1.6-1.2-.9-3.3-2.8-2.2-2.1-2.7-3.1-2.4-5.6.3-2.4 0-2.2 2.2-2.7 3.4-.7 1.4 6.4 2.8 5.2 1.4-1.2.9-3.7.5-7.1-.3-3.2-1.6-5.2-3.4-6-1.7-.8 5.1-40 5.1-40l4.7-34.4c.6 12.6 3.1 12 3.4 15.9.9 10.8-3.5 28-2.4 28.3 1.9.4 42.9.5 44.3-.1 1.7-.7-2.9-15.1-2-29.5.2-3.7 3.5-5.2 3-16.2 0 0 15-18.8 11.2-23.2-3.8-4.4-15.6-4.8-15.6-4.8l-19.9 1.4-19.7-1.4s-12.1.4-15.9 4.8c-3.8 4.4-2.6 61.4-2.6 61.4l2.1 36.6zm33.4-119.2s-2 3.7-4.3 7.6c-2.3 3.8-7.9 8.3-7.9 8.3s7.6 6 17.4 5.8c8-.2 11.6-.8 18.1-5.8-7.5-1.6-8.7-5.7-9.9-8.4-1.8-4-2.3-7.2-1.5-7.3-7.9 0-11.9-.2-11.9-.2"/>
  <path fill="none" stroke="#00A78E" stroke-width="2.188" stroke-miterlimit="10" d="M37.1 100.9s-2 3.7-4.3 7.6c-2.3 3.8-7.9 8.3-7.9 8.3s7.6 6 17.4 5.8c8-.2 11.6-.8 18.1-5.8-7.5-1.6-8.7-5.7-9.9-8.4-1.8-4-2.3-7.2-1.5-7.3-7.9 0-11.9-.2-11.9-.2z"/>
  <path fill="#FFF" d="M35.1 342.5s-.6-5.1-9.6-4.7c-9 .5-9.7 3.8-10 4.7m12.3.2l-4.4-71.2-5.5-55c-1.1-12-1-14 0-17.7.4-1.6 1.6-5.6 1.6-5.6l43.6.1s1.2 4.4 1.5 5.2c1.1 3 2.8 9.2 1 18.5l-8.7 55.2-7.6 70.1h-6.8l3.1-80.9-1.2-45.9c0-2.4-.3-2.9-2-2.9h-.9c-1.7 0-2.2.9-2.2 3.3L36.5 262l-1.8 80.4-6.9.3zm13.5-.2s.6-5.1 9.6-4.7c9 .5 9.7 3.8 10 4.7"/>
  <path fill="#00A78E" d="M28.4 56.5c0 2.2-1.9 3.9-4.3 3.9s-4.3-1.8-4.3-3.9c0-2.2 1.9-3.9 4.3-3.9 2.3-.1 4.3 1.7 4.3 3.9"/>
  <path fill="#00A78E" d="M34.5 56.9s-.3-.3-.9-.7c-.6-.4-1.4-.9-2.4-1.4-.5-.3-1.1-.5-1.6-.7-.6-.2-1.2-.3-1.8-.4-.6-.1-1.3-.1-1.9 0-.7 0-1.3.3-2 .5-.6.3-1.3.5-1.9 1-.6.4-1.2.8-1.7 1.3-.5.4-1.2 1.1-1.8 1.4-.3.2-.7.3-1 .4-.3.1-.7.2-1 .2-1.2.1-2.2-.2-2.8-.6-.6-.4-.9-.7-.9-.7s.4.2 1 .3c.6.1 1.5 0 2.5-.4.2-.1.5-.2.7-.3.3-.2.5-.3.7-.5.5-.4.8-.9 1.5-1.5.6-.6 1.2-1.2 1.9-1.7s1.4-.9 2.2-1.2c.8-.2 1.6-.5 2.4-.5.8-.1 1.6.1 2.3.2.4.1.7.2 1.1.3.3.2.7.3 1 .5.6.4 1.2.7 1.7 1.2.5.4.9.8 1.3 1.2.4.4.6.8.9 1.1l.5 1"/>
  <path fill="#FFF" d="M22.6 56.2c0 .8-.4 1.4-.9 1.4s-.9-.6-.9-1.4c0-.8.4-1.4.9-1.4.5-.1.9.6.9 1.4"/>
  <path fill="#00A78E" d="M36.4 42.3s2.4 2.5-4 3.3c-6.5.7-11.9-4.5-14.9-.7s-8.1 5.2-3.9 1.5c4.2-3.7 3.3-6 9.9-5.6 6.7.4 12.4.3 12.9 1.5m10.8 1.6s-2 3.1 4.5 2.2c6.5-.9 10.9-7.3 14.5-4.4 3.6 3 8.8 3.1 4 .5-4.8-2.6-4.3-5-10.7-3-6.4 2.1-12 3.5-12.3 4.7"/>
  <path fill="#FFF" d="M42.1 63.6s2.3 6.8 4.3 9c7.4 8-12.9 6.8-7.7 3.9"/>
  <path fill="#00A78E" d="M42.1 63.6s.2.4.6 1c.2.3.4.7.7 1.2.3.4.5 1 .8 1.5.3.5.6 1.1 1 1.7.4.6.7 1.3 1.1 1.9.4.6.8 1 1.5 1.8.6.7 1.1 1.6 1.2 2.8.1.6-.1 1.3-.4 1.8-.3.5-.8.9-1.2 1.2-.9.5-1.8.7-2.6.9-1.7.2-3.2.1-4.5-.2-.7-.1-1.2-.4-1.7-.6-.2-.1-.5-.3-.7-.5-.2-.2-.3-.6-.2-.8.2-.4.5-.5.7-.6.2-.1.3-.1.3-.1l-.2.2c-.1.1-.4.4-.4.6 0 .2.3.4.7.5.4.1 1 .2 1.6.2 1.2 0 2.6-.1 4-.4.7-.2 1.4-.4 1.9-.8s.7-.7.7-1.2-.4-1.1-.8-1.7c-.4-.5-1.1-1.3-1.5-2-.8-1.5-1.3-2.9-1.7-4.1-.7-2.6-.9-4.3-.9-4.3M31.9 84.4s13.3 6.5 21.1-4c-5.6 18-22.7 2.7-21.1 4m19.1-28c0 2.2 1.9 3.9 4.3 3.9s4.3-1.8 4.3-3.9c0-2.2-1.9-3.9-4.3-3.9S51 54.3 51 56.4"/>
  <path fill="#00A78E" d="M49.4 56.6s.3-.3.9-.7c.6-.4 1.4-.9 2.4-1.4.5-.3 1.1-.5 1.6-.7.6-.2 1.2-.3 1.8-.4.6-.1 1.3-.1 2 0 .7 0 1.3.3 2 .5.6.3 1.3.5 1.9 1 .6.4 1.2.8 1.7 1.3.5.4 1.2 1.1 1.8 1.4.3.2.7.3 1 .4.3.1.7.2 1 .2 1.2.1 2.2-.2 2.8-.6.6-.4.9-.7.9-.7s-.4.2-1 .3c-.6.1-1.5 0-2.5-.4-.2-.1-.5-.2-.7-.3-.3-.2-.5-.3-.7-.5-.5-.4-.8-.9-1.5-1.5-.6-.6-1.2-1.2-1.9-1.7s-1.4-.9-2.2-1.2c-.8-.2-1.6-.5-2.4-.5-.8-.1-1.6.1-2.3.2-.4.1-.7.2-1.1.3-.3.2-.7.3-1 .5-.6.4-1.2.7-1.7 1.2-.5.4-.9.8-1.3 1.2-.4.4-.6.8-.9 1.1-.4.5-.6 1-.6 1"/>
  <path fill="#FFF" d="M51.9 56c0 .8.4 1.4.9 1.4s.9-.6.9-1.4c0-.8-.4-1.4-.9-1.4-.5-.1-.9.6-.9 1.4"/>
  <path fill="none" stroke="#00A78E" stroke-width="2.117" stroke-miterlimit="10" d="M42.4 122.6v68.7"/>
  <path fill="#00A78E" d="M40.3 128.5c0 .6-.5 1-1 1-.6 0-1-.5-1-1 0-.6.5-1 1-1s1 .5 1 1m0 11.8c0 .6-.5 1-1 1-.6 0-1-.5-1-1 0-.6.5-1 1-1s1 .5 1 1m0 11.8c0 .6-.5 1-1 1-.6 0-1-.5-1-1 0-.6.5-1 1-1s1 .5 1 1m0 11.8c0 .6-.5 1-1 1-.6 0-1-.5-1-1 0-.6.5-1 1-1s1 .5 1 1m0 11.8c0 .6-.5 1-1 1-.6 0-1-.5-1-1 0-.6.5-1 1-1s1 .5 1 1m0 11.8c0 .6-.5 1-1 1-.6 0-1-.5-1-1 0-.6.5-1 1-1s1 .5 1 1"/>
  <path fill="#FFF" d="M73.5 53.3s1.5-10.5 5-7.5c3.7 3.2 3.3 16.7 2 21.7-.9 3.5-5.5 7.4-7.4 5.6-1.8-1.7.4-19.8.4-19.8"/>
  <path fill="#00A78E" d="M46.9 8.7s-.1 21.5 26.9 33.5c0 0 5.1 5 .8 17-4.2 12-1.2 16.4-1.2 16.4s-2.1-6.9 8.1-18.2 1-32.4 1-32.4S76 4.9 46.9 8.7"/>
  <path fill="none" stroke="#FFF" stroke-width="2" stroke-miterlimit="10" d="M46.9 8.7s-.1 21.5 26.9 33.5c0 0 5.1 5 .8 17-4.2 12-1.2 16.4-1.2 16.4s-2.1-6.9 8.1-18.2 1-32.4 1-32.4S76 4.9 46.9 8.7z"/>
  <path fill="#00A78E" d="M71 12.2s-10.7 26-50.1 18.6c0 0-8.7 1.1-9.4 14.7-.6 13.6-6.6 15.6-6.6 15.6s6-4.8-1.2-21.9c-7.1-17 11-30.5 11-30.5S36.9-10.8 71 12.2"/>
  <path fill="none" stroke="#FFF" stroke-width="2" stroke-miterlimit="10" d="M71 12.2s-10.7 26-50.1 18.6c0 0-8.7 1.1-9.4 14.7-.6 13.6-6.6 15.6-6.6 15.6s6-4.8-1.2-21.9c-7.1-17 11-30.5 11-30.5S36.9-10.8 71 12.2z"/>
</svg>