<svg xmlns="http://www.w3.org/2000/svg" xmlns:xlink="http://www.w3.org/1999/xlink" width="116.6" height="191.8" viewBox="0 0 116.6 191.8"><path fill="#FFF" d="M10 35.3v135.9c0 1.3.3 2.4.3 3.7 0 9.2 29.5 15.5 46.7 16.7 26.6 1.7 49.6-5.9 49.6-15.1V35.3H10z"/><g opacity=".44"><defs><path id="a" d="M.5 0h115.6v16.2H.5z"/></defs><clipPath id="b"><use xlink:href="#a" overflow="visible"/></clipPath><path clip-path="url(#b)" fill="#32CFB6" d="M116.1 8.1c0 4.5-25.9 8.1-57.8 8.1S.5 12.6.5 8.1 26.4 0 58.3 0s57.8 3.6 57.8 8.1"/></g><path fill="#FFF" d="M58.3 16.2C26.4 16.2.5 12.6.5 8.1v34.4c0 4.5 25.9 8.1 57.8 8.1s57.8-3.6 57.8-8.1V8.1c0 4.4-25.9 8.1-57.8 8.1"/><path fill="none" stroke="#00A78E" stroke-miterlimit="10" d="M58.3 16.2C26.4 16.2.5 12.6.5 8.1v34.4c0 4.5 25.9 8.1 57.8 8.1s57.8-3.6 57.8-8.1V8.1c0 4.4-25.9 8.1-57.8 8.1z"/><path fill="#00A78E" d="M82.6 102.2H66.3V85.9c0-1.9-1.5-3.4-3.4-3.4H47.8c-1.9 0-3.4 1.5-3.4 3.4v16.3H28.1c-1.9 0-3.4 1.5-3.4 3.4v15.1c0 1.9 1.5 3.4 3.4 3.4h16.3v16.3c0 1.9 1.5 3.4 3.4 3.4h15.1c1.9 0 3.4-1.5 3.4-3.4v-16.3h16.3c1.9 0 3.4-1.5 3.4-3.4v-15.1c-.1-1.9-1.6-3.4-3.4-3.4"/></svg>