<svg xmlns="http://www.w3.org/2000/svg" xmlns:xlink="http://www.w3.org/1999/xlink" width="77.1" height="126.2" viewBox="0 0 77.1 126.2"><path fill="#FFF" d="M6.7 23.2v89.4c0 .9.2 1.6.2 2.5 0 6 19.4 10.2 30.7 11 17.5 1.1 32.6-3.9 32.6-9.9v-93H6.7z"/><g opacity=".44"><defs><path id="a" d="M.5 0h76.1v10.6H.5z"/></defs><clipPath id="b"><use xlink:href="#a" overflow="visible"/></clipPath><path clip-path="url(#b)" fill="#32CFB6" d="M76.6 5.3c0 2.9-17 5.3-38 5.3S.6 8.2.6 5.3s17-5.3 38-5.3 38 2.4 38 5.3"/></g><path fill="#FFF" d="M38.5 10.6c-21 0-38-2.4-38-5.3V28c0 2.9 17 5.3 38 5.3s38-2.4 38-5.3V5.3c.1 3-17 5.3-38 5.3"/><path fill="none" stroke="#00A78E" stroke-miterlimit="10" d="M38.5 10.6c-21 0-38-2.4-38-5.3V28c0 2.9 17 5.3 38 5.3s38-2.4 38-5.3V5.3c.1 3-17 5.3-38 5.3z"/><path fill="#00A78E" d="M54.5 67.3H43.8V56.6c0-1.2-1-2.2-2.2-2.2h-10c-1.2 0-2.2 1-2.2 2.2v10.7H18.7c-1.2 0-2.2 1-2.2 2.2v10c0 1.2 1 2.2 2.2 2.2h10.7v10.7c0 1.2 1 2.2 2.2 2.2h10c1.2 0 2.2-1 2.2-2.2V81.7h10.7c1.2 0 2.2-1 2.2-2.2v-10c0-1.2-1-2.2-2.2-2.2"/></svg>