<svg xmlns="http://www.w3.org/2000/svg" xmlns:xlink="http://www.w3.org/1999/xlink" width="572.1" height="451.9" viewBox="0 0 572.1 451.9">
  <path fill="#FFF" d="M212.3 0h331.2v443.1H212.3z"/>
  <path fill="#00A78E" d="M345.6 22.8h62.1c.1.4.2.9.2 1.4.1.5.1 1.2.1 2 0 2.5-.7 4.5-2.1 6.2-1.4 1.7-4 2.5-7.7 2.5h-38.6V68h36.5v12.4h-36.5v38h40.9c3.4 0 6 .8 7.6 2.5 1.6 1.7 2.4 3.7 2.4 6.2v1.4c0 .5-.1 1.2-.2 2h-64.7V22.8zm-38.1 129.5H354c.1.4.1.7.2 1 0 .3.1.8.1 1.5 0 1.9-.5 3.4-1.6 4.6-1 1.2-3 1.9-5.9 1.9H318v24.1h27.4v9.2H318V233h-10.5v-80.7zm86.8.2c3-.3 6.1-.6 9.5-.8 3.3-.2 6.5-.3 9.6-.3 11.1 0 19.2 2 24.3 5.9 5.1 3.9 7.7 9.8 7.7 17.6 0 5.2-.9 9.6-2.6 13-1.7 3.5-4.1 6.2-7.1 8.3-3 2.1-6.4 3.6-10.3 4.4-3.9.8-7.9 1.3-12.1 1.3h-8.6v31h-10.5v-80.4zm15.2 40.7c3.9 0 7.5-.2 10.6-.7 3.1-.5 5.7-1.4 7.8-2.7 2.1-1.3 3.8-3.1 4.9-5.4 1.1-2.3 1.7-5.2 1.7-8.9 0-3-.5-5.4-1.6-7.4-1-2-2.5-3.5-4.3-4.7-1.8-1.2-4-2-6.5-2.5s-5.1-.7-8-.7c-2.1 0-3.9 0-5.4.1-1.5.1-3 .2-4.3.4h.2v32.5h4.9zm-116.2 61.9h-17.1c-.2-.7-.2-1.4-.2-2.3 0-1 .4-1.9 1.2-2.7.8-.8 2.1-1.2 3.7-1.2h36.9c.1.3.1.6.1 1v.8c0 1.2-.4 2.2-1.2 3-.8.8-2 1.2-3.7 1.2h-12.7v47.7h-7.1v-47.5zm101 20.6c0 3.9-.4 7.5-1.3 10.9-.9 3.4-2.3 6.4-4.1 9-1.9 2.6-4.3 4.6-7.3 6.2-3 1.5-6.6 2.3-10.7 2.3s-7.7-.8-10.7-2.4c-2.9-1.6-5.3-3.7-7.1-6.3-1.8-2.6-3.1-5.6-3.9-9-.8-3.4-1.2-7-1.2-10.7 0-3.7.5-7.2 1.4-10.6.9-3.4 2.3-6.3 4.3-8.8 1.9-2.5 4.4-4.6 7.4-6.1s6.5-2.3 10.7-2.3c4 0 7.5.7 10.3 2.2 2.9 1.4 5.2 3.4 7.1 5.9 1.8 2.5 3.2 5.4 4.1 8.8.6 3.5 1 7 1 10.9m-7.3 0c0-2.9-.3-5.7-.8-8.3-.5-2.6-1.4-4.9-2.6-6.8-1.2-2-2.8-3.5-4.8-4.7-2-1.2-4.5-1.7-7.4-1.7-3.1 0-5.6.6-7.6 1.7-2 1.2-3.7 2.7-4.9 4.7-1.3 2-2.2 4.2-2.7 6.8-.5 2.6-.8 5.4-.8 8.3 0 2.9.3 5.7.8 8.3.5 2.7 1.4 5 2.7 7 1.2 2 2.9 3.7 4.9 4.9s4.5 1.8 7.5 1.8c2.9 0 5.4-.6 7.5-1.8 2-1.2 3.7-2.9 4.9-4.9 1.2-2 2.1-4.4 2.7-7 .3-2.6.6-5.4.6-8.3m37.5 22l29.8-42.6h-27.4c-.2-.7-.2-1.4-.2-2.3 0-1 .4-1.9 1.2-2.7.8-.8 2-1.1 3.7-1.1h28.8c.9 0 1.6.2 2.1.6.5.4.8 1.1.8 2.1v2.3L433 296.8h25.7c1.7 0 2.9.4 3.7 1.2.8.8 1.2 1.8 1.2 3 0 .7-.1 1.3-.2 1.8h-38.8v-5.1zm-154.1 19.9c.3 0 .6-.1 1-.1h.9c.5 0 1 .1 1.5.2s1 .3 1.5.7c.4.3.8.8 1.1 1.4.3.6.4 1.4.4 2.4v39h17c1.6 0 2.7.4 3.4 1.1.7.8 1 1.7 1 2.7v.7c0 .2 0 .5-.1 1h-27.7v-49.1zm57 .2c1.8-.2 3.7-.4 5.7-.5 2-.1 4-.2 5.8-.2 6.7 0 11.6 1.2 14.7 3.6 3.1 2.4 4.6 6 4.6 10.7 0 3.2-.5 5.8-1.6 7.9-1 2.1-2.5 3.8-4.3 5-1.8 1.3-3.9 2.2-6.2 2.7-2.3.5-4.8.8-7.3.8h-5.2v18.8h-6.4v-48.8zm9.2 24.7c2.4 0 4.5-.1 6.4-.4 1.9-.3 3.5-.8 4.8-1.6 1.3-.8 2.3-1.9 3-3.3.7-1.4 1-3.2 1-5.4 0-1.8-.3-3.3-1-4.5-.6-1.2-1.5-2.1-2.6-2.9-1.1-.7-2.4-1.2-3.9-1.5-1.5-.3-3.1-.4-4.8-.4-1.3 0-2.4 0-3.3.1-.9 0-1.8.1-2.6.2h.1v19.7h2.9zm52.1-24.8H417c0 .2.1.4.1.6v.9c0 1.1-.3 2.1-1 2.8-.6.8-1.8 1.1-3.5 1.1H395v15.1h16.6v5.6H395v17.3h18.6c1.6 0 2.7.4 3.4 1.1.7.8 1.1 1.7 1.1 2.8v.6c0 .2 0 .5-.1.9h-29.4v-48.8zm59.3.2c2.6-.3 4.9-.5 6.9-.6 1.9-.1 3.8-.1 5.5-.1 4.7 0 8.6.6 11.7 1.9 3.1 1.3 5.6 3 7.5 5.2 1.9 2.2 3.2 4.8 4 7.7.8 2.9 1.2 6 1.2 9.4 0 4.4-.7 8.5-2.2 12.1-1.5 3.7-3.8 6.7-6.9 9-1.9 1.4-4.2 2.4-6.9 3.1-2.7.7-5.8 1.1-9.4 1.1H448v-48.8zm12.4 43.3c3.3 0 6-.5 8.3-1.5 2.3-1 4.1-2.4 5.5-4.2 1.4-1.8 2.4-3.8 3-6.2.6-2.4.9-4.9.9-7.6 0-2.7-.3-5.3-.8-7.6s-1.5-4.3-2.9-6c-1.4-1.7-3.2-3-5.5-3.9-2.3-.9-5.1-1.4-8.5-1.4-1 0-2 0-3 .1-1.1 0-2.1.1-3.1.3v38h6.1zM261 384.1c1.2-.1 2.5-.2 3.8-.3 1.3-.1 2.6-.1 3.9-.1 4.5 0 7.8.8 9.8 2.4 2.1 1.6 3.1 4 3.1 7.1 0 2.1-.3 3.9-1 5.3s-1.7 2.5-2.9 3.4c-1.2.8-2.6 1.4-4.1 1.8-1.6.3-3.2.5-4.9.5h-3.5v12.5H261v-32.6zm6.2 16.4c1.6 0 3-.1 4.3-.3 1.3-.2 2.3-.6 3.2-1.1.9-.5 1.5-1.2 2-2.2.5-.9.7-2.1.7-3.6 0-1.2-.2-2.2-.6-3-.4-.8-1-1.4-1.7-1.9s-1.6-.8-2.6-1c-1-.2-2.1-.3-3.2-.3h-2.2c-.6 0-1.2.1-1.8.1h.1v13.1h1.8zm46.9-16.5h18.8c0 .1.1.3.1.4v.6c0 .7-.2 1.4-.6 1.9-.4.5-1.2.8-2.3.8h-11.7v10h11.1v3.8h-11.1V413h12.4c1 0 1.8.3 2.3.8.5.5.7 1.1.7 1.9v1h-19.6V384zm72.8 6.6l-1.2-1.2c-.5-.4-1-.8-1.6-1.1-.6-.3-1.3-.6-2.1-.8-.8-.2-1.6-.3-2.6-.3-2 0-3.6.4-4.9 1.1-1.3.8-2.3 1.8-3.1 3-.8 1.3-1.3 2.7-1.6 4.2-.3 1.6-.5 3.2-.5 4.9 0 1.7.2 3.3.5 4.9.3 1.6.9 3 1.7 4.3.8 1.3 1.9 2.3 3.2 3 1.3.7 3 1.1 5 1.1 1.1 0 2-.2 2.9-.5.9-.3 1.6-.7 2.3-1.1.7-.4 1.2-.8 1.6-1.2l.9-.9c.4.3.7.7 1.1 1.2.4.5.6 1 .6 1.4 0 .5-.2 1-.7 1.5-.2.2-.5.4-.9.8-.5.4-1.1.7-1.8 1.1-.7.4-1.7.7-2.7 1-1.1.3-2.3.4-3.7.4-2.5 0-4.7-.4-6.5-1.3s-3.3-2-4.5-3.5c-1.2-1.5-2-3.3-2.6-5.4-.6-2.1-.8-4.3-.8-6.8 0-2.4.3-4.7.9-6.8.6-2.1 1.4-3.9 2.6-5.4 1.2-1.5 2.7-2.7 4.5-3.6 1.8-.9 4-1.3 6.5-1.3 1.3 0 2.5.1 3.7.4 1.2.3 2.2.7 3.1 1.1.9.5 1.6 1 2.1 1.5.5.6.8 1.1.8 1.6 0 .4-.1.9-.4 1.3-.3.5-.6.9-.9 1.2h-.9zm34.8-6.6h18.8c0 .2.1.3.1.4v.6c0 .7-.2 1.4-.6 1.9-.4.5-1.2.8-2.4.8h-11.7v9.8H437v3.7h-11.1v15.5h-4.2V384zm47.3.1c1.8-.2 3.3-.3 4.6-.4 1.3-.1 2.5-.1 3.7-.1 3.1 0 5.7.4 7.8 1.3 2.1.8 3.7 2 5 3.5 1.3 1.5 2.1 3.2 2.7 5.1.5 2 .8 4 .8 6.2 0 3-.5 5.7-1.5 8.1-1 2.4-2.5 4.4-4.6 6-1.3.9-2.8 1.6-4.6 2.1-1.8.5-3.9.7-6.2.7H469v-32.5zm8.3 28.9c2.2 0 4-.3 5.5-1s2.7-1.6 3.7-2.8c.9-1.2 1.6-2.5 2-4.1.4-1.6.6-3.3.6-5.1s-.2-3.5-.5-5c-.4-1.5-1-2.9-1.9-4-.9-1.1-2.1-2-3.6-2.6-1.5-.6-3.4-.9-5.7-.9h-2c-.7 0-1.4.1-2.1.2V413h4z"/>
  <path fill="#FFF" d="M83 294.3v135.9c0 1.3.3 2.4.3 3.7 0 9.2 29.5 15.5 46.7 16.7 26.6 1.7 49.6-5.9 49.6-15.1V294.3H83z"/>
  <g opacity=".44">
    <defs>
      <path id="a" d="M73.5 259.1h115.6v16.2H73.5z"/>
    </defs>
    <clipPath id="b">
      <use xlink:href="#a" overflow="visible"/>
    </clipPath>
    <path clip-path="url(#b)" fill="#32CFB6" d="M189.1 267.1c0 4.5-25.9 8.1-57.8 8.1s-57.8-3.6-57.8-8.1 25.9-8.1 57.8-8.1c31.9.1 57.8 3.7 57.8 8.1"/>
  </g>
  <path fill="#FFF" d="M131.3 275.2c-31.9 0-57.8-3.6-57.8-8.1v34.4c0 4.5 25.9 8.1 57.8 8.1s57.8-3.6 57.8-8.1v-34.4c0 4.5-25.9 8.1-57.8 8.1"/>
  <path fill="none" stroke="#00A78E" stroke-miterlimit="10" d="M131.3 275.2c-31.9 0-57.8-3.6-57.8-8.1v34.4c0 4.5 25.9 8.1 57.8 8.1s57.8-3.6 57.8-8.1v-34.4c0 4.5-25.9 8.1-57.8 8.1z"/>
  <path fill="#00A78E" d="M155.6 361.3h-16.3V345c0-1.9-1.5-3.4-3.4-3.4h-15.1c-1.9 0-3.4 1.5-3.4 3.4v16.3h-16.3c-1.9 0-3.4 1.5-3.4 3.4v15.1c0 1.9 1.5 3.4 3.4 3.4h16.3v16.3c0 1.9 1.5 3.4 3.4 3.4h15.1c1.9 0 3.4-1.5 3.4-3.4v-16.3h16.3c1.9 0 3.4-1.5 3.4-3.4v-15.1c-.1-1.9-1.6-3.4-3.4-3.4"/>
  <path fill="#FFF" d="M6.7 348.9v89.4c0 .9.2 1.6.2 2.5 0 6 19.4 10.2 30.7 11 17.5 1.1 32.6-3.9 32.6-9.9V349H6.7z"/>
  <g opacity=".44">
    <defs>
      <path id="c" d="M.5 325.7h76.1v10.6H.5z"/>
    </defs>
    <clipPath id="d">
      <use xlink:href="#c" overflow="visible"/>
    </clipPath>
    <path clip-path="url(#d)" fill="#32CFB6" d="M76.6 331c0 2.9-17 5.3-38 5.3s-38-2.4-38-5.3 17-5.3 38-5.3 38 2.3 38 5.3"/>
  </g>
  <path fill="#FFF" d="M38.5 336.3c-21 0-38-2.4-38-5.3v22.7c0 2.9 17 5.3 38 5.3s38-2.4 38-5.3V331c.1 2.9-17 5.3-38 5.3"/>
  <path fill="none" stroke="#00A78E" stroke-miterlimit="10" d="M38.5 336.3c-21 0-38-2.4-38-5.3v22.7c0 2.9 17 5.3 38 5.3s38-2.4 38-5.3V331c.1 2.9-17 5.3-38 5.3z"/>
  <path fill="#00A78E" d="M54.5 392.9H43.8v-10.7c0-1.2-1-2.2-2.2-2.2h-10c-1.2 0-2.2 1-2.2 2.2v10.7H18.7c-1.2 0-2.2 1-2.2 2.2v10c0 1.2 1 2.2 2.2 2.2h10.7V418c0 1.2 1 2.2 2.2 2.2h10c1.2 0 2.2-1 2.2-2.2v-10.7h10.7c1.2 0 2.2-1 2.2-2.2v-10c0-1.2-1-2.2-2.2-2.2"/>
  <path fill="#32CFB6" d="M567.6 395.8c-1.3-1.4-2.6-2.8-4-4.1-30.4-28.1-64.2-50.9-102.9-66-16.6-6.4-33.8-11-51.8-11-5.9 0-11.9.2-14.8 6.7-5.2-3.6-31.9-15.6-38.1-17 2.9-6.5-1-11.1-4.9-15.5-12-13.4-26.8-23.2-42.7-31.3-37-18.8-76.6-28.8-117.8-32.7-1.9-.2-3.8-.2-5.7-.2-8.3-.1-13.2 3.7-14.9 11.8-.2 1.1.9 3.3 1.9 3.8 7.9 4 6.8 3 7.6 10 .3 3.2.6 5.8 2.8 8.3 7.6 8.5 10.7 8.6 8.9 20.8-1.1 7.3-.5 21.9 1.4 29 3.7 13.9 13.5 25 26.1 32.6 16.3 9.8 34 16.9 52.8 20.3 17.4 3.2 32.7-2.3 46.3-12.9 9.3-7.2 16.8-16.2 22.4-26.6 5.3-10 16.1-11.6 26.5-7.3 1.4.6 2.8 1.3 4.1 1.9l2.1.9 2.1.9 4.2 1.8c10.1 4.8 16.2 14 12.2 24.6-4.1 11.1-5.7 22.7-4.9 34.4 1.2 17.2 7.3 32.2 21.3 43.1 15.1 11.7 32.2 20.2 50.4 25.8 14 4.3 28.9 4.3 41.7-2.3 6.6-3.4 17.9-12.7 22.6-18.3 7.8-9.5 10-7.3 21.4-7.2 3.4 0 5.5-1.6 8.1-3.4 5.8-4.1 4.3-4.3 12.5-1 1.1.4 3.4-.2 4.1-1.1 5.1-6.5 4.6-12.6-1-18.8M336.4 324c-3.4 5-6.6 10.2-10.7 14.5-15.8 16.5-34.7 25.4-58 20.1-17.6-4-33.7-11.9-49.3-20.9-19.9-11.5-26.3-29.2-24.1-50.7.8-7.6 2.1-15.7 5.7-22.2 14.7-26.4 49.5-20.5 74.4-11.6 22.1 7.8 42.3 18.5 58.4 35.7 9.2 9.6 12.9 21.3 3.6 35.1M515 430.3c-14.6 16-32.1 23-53.8 15.8-17.1-5.6-33.8-12.3-48.5-22.8-19.5-13.9-25.5-33.8-23.7-56.6.5-5.9 2.2-11.8 3.7-17.6 4.1-16.2 15.2-21.1 28.5-20.8 23.6.6 45 8.4 65.6 19.7 23.2 12.7 50.8 34.7 41 63.2-2.5 7.1-7.7 13.5-12.8 19.1"/>
</svg>