<svg xmlns="http://www.w3.org/2000/svg" width="106.3" height="161.7" viewBox="0 0 106.3 161.7"><path fill="#00A78E" d="M9.9 122.2c4.3 3.4 9.6 6.7 15.8 10 6.2 3.3 13.7 5 22.3 5 3.2 0 6.4-.4 9.5-1.2 3.1-.8 5.8-2 8.2-3.6 2.4-1.6 4.3-3.7 5.9-6.4 1.5-2.6 2.3-5.9 2.3-9.7 0-4-.8-7.4-2.5-10.2-1.7-2.8-3.9-5.1-6.7-7-2.8-1.9-6-3.6-9.7-5-3.7-1.4-7.5-2.8-11.3-4.2-4.9-1.7-9.9-3.5-14.9-5.5s-9.5-4.6-13.5-7.9c-4-3.2-7.3-7.4-9.8-12.4C3 59.1 1.7 52.7 1.7 45c0-7.4 1.5-13.9 4.4-19.6C9 19.7 13 15 18.1 11.2c5-3.5 10.9-6.4 17.5-8.3C42.2 1 49.2 0 56.6 0c5.1 0 9.8.4 14.2 1.2 4.4.8 8.3 1.7 11.8 2.8C86 5 89 6.1 91.4 7.3c2.4 1.2 4.2 2.2 5.4 3.1 4.3 2.5 6.5 5.9 6.5 10.4 0 1.8-.8 4.4-2.4 7.5-1.6 3.2-3.9 6.3-6.8 9.4-3.9-3.1-8.8-6-14.9-8.8-6.1-2.8-12.6-4.2-19.5-4.2-2.8 0-5.6.3-8.5.8-2.9.5-5.6 1.5-8 2.8-2.4 1.3-4.4 3.1-5.9 5.4-1.5 2.3-2.3 5.2-2.3 8.5 0 3.2.8 6 2.3 8.4 1.5 2.4 3.6 4.5 6.2 6.2 2.6 1.8 5.7 3.3 9.1 4.7 3.5 1.4 7 2.8 10.7 4.2 4.9 1.8 9.9 3.9 15 6 5.1 2.3 9.7 5 13.9 8.3 4.2 3.3 7.5 7.5 10.2 12.5 2.6 5 3.9 11.3 3.9 18.8 0 8.2-1.4 15.4-4.3 21.6-2.9 6.2-6.8 11.5-11.9 15.8-5.1 4.3-11.2 7.5-18.4 9.7-7.2 2.2-15 3.2-23.4 3.2-11.1 0-20.1-1.1-26.9-3.3-6.9-2.2-11.8-4.3-14.9-6.1-1.8-1.2-3.4-2.7-4.6-4.4C.7 146.1.1 144.2.1 142c0-2.6 1-5.8 3.1-9.5 2-3.6 4.3-7.1 6.7-10.3z"/></svg>