<svg xmlns="http://www.w3.org/2000/svg" width="104.6" height="118.9" viewBox="0 0 104.6 118.9"><path fill="#00A78E" d="M64.1 108.6c2.4-1.6 4.3-3.7 5.9-6.4 1.5-2.6 2.3-5.9 2.3-9.7 0-4-.8-7.4-2.5-10.2-1.7-2.8-3.9-5.1-6.7-7-2.8-1.9-6-3.6-9.7-5-3.7-1.4-7.5-2.8-11.3-4.2-4.9-1.7-9.9-3.5-14.9-5.5s-9.5-4.6-13.5-7.9c-4-3.2-7.3-7.4-9.8-12.4C1.3 35.4 0 29.1 0 21.4c0 0 .5-12.5 17.8-19.5s17.7 8 17.7 8c-1.5 2.3-2.3 5.2-2.3 8.5 0 3.2.8 6 2.3 8.4 1.5 2.4 3.6 4.5 6.2 6.2 2.6 1.8 5.7 3.3 9.1 4.7 3.5 1.4 7 2.8 10.7 4.2 4.9 1.8 9.9 3.9 15 6 5.1 2.2 9.7 4.9 13.9 8.2 4.2 3.3 7.5 7.5 10.2 12.5 2.6 5 3.9 11.3 3.9 18.8 0 8.2-1.4 15.4-4.3 21.6 0 0-3.2 9.8-21.9 9.8s-14.2-10.2-14.2-10.2z"/></svg>