<svg xmlns="http://www.w3.org/2000/svg" width="101.6" height="77.4" viewBox="0 0 101.6 77.4"><path fill="#00A78E" d="M13.6 76.7c-4-3.2-7.3-7.4-9.8-12.4C1.3 59.3 0 53 0 45.3c0-7.4 1.5-13.9 4.4-19.6 2.9-5.7 6.9-10.4 12-14.2C21.5 7.7 27.3 4.8 34 2.9 40.6 1 47.6 0 55 0c5.1 0 9.8.4 14.2 1.2C73.6 2 77.5 2.9 81 4c3.5 1.1 6.4 2.2 8.8 3.3 2.4 1.2 4.2 2.2 5.4 3.1 4.3 2.5 6.5 5.9 6.5 10.4 0 1.8-.8 4.4-2.4 7.5-1.6 3.2-3.9 6.3-6.8 9.4-3.9-3.1-8.8-6-14.9-8.8-6.1-2.8-12.6-4.2-19.5-4.2-2.8 0-5.6.3-8.5.8-2.9.5-5.6 1.5-8 2.8-2.4 1.3-4.4 3.1-5.9 5.4-1.5 2.3-2.3 5.2-2.3 8.5 0 3.2.8 6 2.3 8.4 0 0 5.3 8.1-4.1 19.1s-18 7-18 7z"/></svg>