<svg xmlns="http://www.w3.org/2000/svg" width="106.3" height="71.4" viewBox="0 0 106.3 71.4"><path fill="#00A78E" d="M102.3 2.3c2.6 5 3.9 11.3 3.9 18.8 0 8.2-1.4 15.4-4.3 21.6C99 48.9 95.1 54.2 90 58.5c-5.1 4.3-11.2 7.5-18.4 9.7-7.2 2.2-15 3.2-23.4 3.2-11.1 0-20.1-1.1-26.9-3.3-6.8-2.2-11.8-4.3-14.8-6.1-1.8-1.2-3.4-2.7-4.6-4.4C.6 55.9 0 54 0 51.8c0-2.6 1-5.8 3.1-9.5s4.3-7.2 6.8-10.4c4.3 3.4 9.6 6.7 15.8 10 6.2 3.3 13.7 5 22.3 5 3.2 0 6.4-.4 9.5-1.2 3.1-.8 5.8-2 8.2-3.6 2.4-1.6 4.3-3.7 5.9-6.4 1.5-2.6 2.3-5.9 2.3-9.7 0 0-1.5-13.2 7.5-20.3 13.5-10.4 20.9-3.4 20.9-3.4z"/></svg>