<svg xmlns="http://www.w3.org/2000/svg" width="185.5" height="135.8" viewBox="0 0 185.5 135.8"><path fill="#FFF" d="M21.3 121.6c1.4 2.8 1.9 5.5-1.6 5.5l-1-1.3-6.1-7.9-1.6 2.3c-.9 1.3-1.1 2.9-.5 4.4.5 1.1 1.1 2.4 1.4 3.3.3.7.8 1.2 1.5 1.6l4.1 2.7c1 .7.6 1.5.3 2.3l-.6.5c-.8.8-2.3.9-3.4.3l-4.6-3.1c-.4-.1-.8-.3-1.1-.6L.8 121.2c-.4-.6-1.2-3.6-1.1-4.3l2.7-11.6c.1-.4.2-2.7.1-3.1l4-47-.2-8.6S11.1-.6 13.8-.1l26.4 5.2c2 .4-9.6 35.5-9.6 35.5 0 .2-2.1 7.3-2.8 12.6l-12 51.1c0 .2.1.5.1.7l5.4 16.6zm142.9 0c-1.4 2.8-1.9 5.5 1.6 5.5l1-1.3 6.1-7.9 1.6 2.3c.9 1.3 1.1 2.9.5 4.4-.5 1.1-1.1 2.4-1.4 3.3-.3.7-.8 1.2-1.5 1.6l-4.1 2.7c-1 .7-.6 1.5-.3 2.3l.6.5c.8.8 2.3.9 3.4.3l4.6-3.1c.4-.1.8-.3 1.1-.6l7.3-10.4c.4-.6 1.2-3.6 1.1-4.3l-2.7-11.6c-.1-.4-.2-2.7-.1-3.1l-4-47 .2-8.6S174.4-.6 171.7-.1l-26.4 5.2c-2 .4 9.6 35.5 9.6 35.5 0 .2 2.1 7.3 2.8 12.6l12 51.1c0 .2-.1.5-.1.7l-5.4 16.6z"/></svg>