<svg xmlns="http://www.w3.org/2000/svg" width="70" height="84.1" viewBox="0 0 70 84.1"><path fill="#00BBA2" d="M0 16.2L53 0s14 38.7 7 69.4c-.6 2.6-8.2 4.8-7 8 0 0-32-51.3-53-61.2"/><path fill="#FFF" d="M8 17.2L61 1s14 38.7 7 69.4c-.6 2.6-8.2 4.8-7 8 0 0-32-51.3-53-61.2"/><path fill="#00BBA2" d="M35.5 28.6c-.8.4-1.7.2-1.9-.4l-.6-4.8-3.3-3.6c-.3-.6.1-1.4.9-1.8.8-.4 1.7-.2 1.9.4l3.9 8.4c.3.6-.1 1.4-.9 1.8"/><path fill="#55E1C8" d="M49.7 43.2s.5.4 1.2 1.1l1.3 1.3c.5.5 1 1.1 1.6 1.8.5.7 1.1 1.5 1.7 2.3.3.4.5.9.8 1.3.3.5.5.9.8 1.4.6 1 1 2 1.5 3.1s.9 2.2 1.3 3.3c.3 1.1.7 2.2 1 3.4.3 1.1.5 2.2.8 3.3.1 1.1.3 2.2.4 3.2.1 1 .1 2 .1 2.9V74c0 .7-.1 1.3-.1 1.9-.1 1-.1 1.6-.1 1.6h-.1s-.1-.6-.1-1.6c0-.5-.1-1.1-.1-1.8s-.1-1.5-.2-2.4c-.1-.9-.2-1.8-.3-2.8-.2-1-.3-2-.5-3.1l-.6-3.3-.9-3.3c-.4-1.1-.7-2.2-1.2-3.3-.5-1-.9-2.1-1.4-3-.3-.5-.5-1-.7-1.4-.3-.5-.5-.9-.8-1.3-.5-.9-1-1.6-1.5-2.4-.5-.7-1-1.3-1.5-1.9-.4-.6-.9-1-1.2-1.4-.8-.8-1.3-1.2-1.2-1.3z"/><path fill="#55E1C8" d="M47.3 52.1s.5.3 1.4.9c.4.3.9.7 1.5 1.1.6.4 1.2 1 1.8 1.6l2 2c.3.4.7.8 1 1.2.3.4.7.8 1 1.3.7.9 1.3 1.8 1.9 2.8l1.8 3c.5 1.1 1.1 2.1 1.5 3.2.4 1.1.9 2.1 1.2 3.2.3 1.1.6 2.1.9 3.1.2 1 .4 1.9.6 2.8.2.9.3 1.7.3 2.4.1.7.1 1.3.2 1.8.1 1 .1 1.6.1 1.6h-.1s-.1-.6-.4-1.6c-.1-.5-.2-1.1-.4-1.8-.1-.7-.3-1.5-.6-2.3-.2-.8-.4-1.8-.7-2.7-.3-.9-.6-1.9-.9-3-.3-1-.8-2.1-1.1-3.1-.4-1.1-.9-2.1-1.4-3.2-.5-1-1.1-2.1-1.6-3-.6-1-1.2-1.9-1.8-2.8-.3-.4-.6-.9-.9-1.3-.3-.4-.7-.8-1-1.2-.6-.8-1.3-1.5-1.9-2.1-.6-.6-1.2-1.2-1.7-1.6-.5-.5-1-.9-1.4-1.2-.9-.7-1.4-1.1-1.3-1.1zm6.6-17.6s1.3 1.9 2.8 5.1c.8 1.6 1.6 3.4 2.4 5.4.4 1 .8 2.1 1.1 3.1.4 1.1.7 2.2 1 3.3l.9 3.3c.3 1.1.5 2.2.7 3.3.2 1.1.3 2.1.5 3.1.1 1 .2 1.9.3 2.8.1.9.1 1.7.1 2.4v3.4h-.1s-.1-.6-.2-1.6c-.1-.5-.2-1.1-.2-1.8-.1-.7-.2-1.5-.4-2.3-.1-.9-.2-1.8-.4-2.7-.2-1-.3-2-.5-3-.2-1.1-.4-2.1-.6-3.3-.3-1.1-.5-2.2-.8-3.3l-.9-3.3c-.3-1.1-.7-2.1-1-3.2-.3-1-.7-2-1.1-2.9-.4-.9-.7-1.8-1.1-2.6-1.4-3.2-2.6-5.2-2.5-5.2z"/><path fill="#55E1C8" d="M64.1 45.3s.2.5.5 1.5c.1.5.3 1.1.5 1.8s.3 1.5.5 2.4c.1.9.3 1.8.3 2.8 0 .5.1 1 .1 1.6V57c0 1.1-.1 2.2-.2 3.4-.1 1.2-.3 2.3-.5 3.5-.2 1.2-.5 2.3-.7 3.4-.3 1.1-.6 2.2-1 3.3l-1.2 3c-.4.9-.9 1.8-1.3 2.6s-.8 1.5-1.2 2.1c-.4.6-.7 1.1-1 1.6-.6.9-.9 1.3-.9 1.3V81s.2-.5.7-1.5c.2-.5.5-1 .8-1.7.3-.6.6-1.4 1-2.2.3-.8.7-1.7 1.1-2.6.3-.9.7-1.9 1.1-2.9.4-1 .7-2.1 1-3.2l.9-3.3c.2-1.1.4-2.3.6-3.4.1-1.1.3-2.2.3-3.3 0-.5.1-1.1.1-1.6v-1.5c0-1-.1-1.9-.2-2.8-.1-.9-.2-1.7-.4-2.4-.1-.7-.3-1.3-.4-1.8-.4-.9-.6-1.5-.5-1.5z"/><path fill="#00BBA2" d="M44 20.2c-3.4 1.5-7.4 3.5-9.4 4-1.4.3-1.4-.6-1.6-1-.1-.3-.9-.9.2-1.7 1.7-1.2 6-2.8 9.4-4.3 5.7-2.5 10.6-3.8 11-3 .4.8-3.9 3.5-9.6 6"/><path fill="#00BBA2" d="M42.8 18.4v4.9c0 2 .6 3.5 1.4 3.5.8 0 1.4-1.6 1.4-3.5l.9-4.9h-3.7zm.2.7l-3.5-3.5c-1.4-1.4-2.1-2.9-1.5-3.5.5-.5 2.1.1 3.5 1.5l4.2 2.8-2.7 2.7z"/></svg>