<svg xmlns="http://www.w3.org/2000/svg" width="165.6" height="30.7" viewBox="0 0 165.6 30.7"><path fill="#FFF" d="M0 3.1l154.7-.7s19.7 11.8-.6 26H1.4"/><path fill="none" stroke="#0BA2C3" stroke-miterlimit="10" d="M0 3.1l154.7-.7s19.7 11.8-.6 26H1.4"/><path fill="none" stroke="#0BA2C3" stroke-width="4.731" stroke-miterlimit="10" d="M0 3.1l150.1-.7c3.8 0 7.4 1.6 9.8 4.5 2.8 3.4 5.1 8.4 1.6 14.1-2.8 4.6-8 7.3-13.4 7.3H1.4"/><path fill="#FFF" d="M6.1 18.9h143.7c10.8-4.7.3-9.5.3-9.5H6.1"/><path fill="none" stroke="#0BA2C3" stroke-miterlimit="10" d="M6.1 18.9h143.7c10.8-4.7.3-9.5.3-9.5H6.1"/><path fill="none" stroke="#0BA2C3" stroke-width="4.731" stroke-miterlimit="10" d="M6.1 18.9h143.7c10.8-4.7.3-9.5.3-9.5H6.1"/></svg>