<svg xmlns="http://www.w3.org/2000/svg" xmlns:xlink="http://www.w3.org/1999/xlink" viewBox="0 0 239.9 143.6"><defs><path id="a" d="M223.204.006l16.702 109.635L16.68 143.65-.022 34.01z"/></defs><clipPath id="b"><use xlink:href="#a" overflow="visible"/></clipPath><path clip-path="url(#b)" fill="#00BCE4" d="M22.5 141.3S-28.3 48.9 74.8 27.6C177.9 6.2 177.4 90.1 177.4 90.1s66.4-6.1 59 1.7c-28.2 30.1-213.9 49.5-213.9 49.5"/><defs><path id="c" d="M223.204.006l16.702 109.635L16.68 143.65-.022 34.01z"/></defs><clipPath id="d"><use xlink:href="#c" overflow="visible"/></clipPath><path clip-path="url(#d)" fill="none" stroke="#FFF" stroke-width="3.645" stroke-miterlimit="10" d="M65.7 124.2c109.2-13 111.7-34.1 111.7-34.1"/><defs><path id="e" d="M223.204.006l16.702 109.635L16.68 143.65-.022 34.01z"/></defs><clipPath id="f"><use xlink:href="#e" overflow="visible"/></clipPath><path clip-path="url(#f)" fill="#FFF" d="M83.3 26.2c.4 2.7-2.4 5.3-6.2 5.9-3.8.6-7.2-1.1-7.6-3.8s2.4-5.3 6.2-5.9c3.8-.5 7.2 1.2 7.6 3.8"/><defs><path id="g" d="M223.204.006l16.702 109.635L16.68 143.65-.022 34.01z"/></defs><clipPath id="h"><use xlink:href="#g" overflow="visible"/></clipPath><path clip-path="url(#h)" fill="none" stroke="#FFF" stroke-width="1.825" stroke-miterlimit="10" d="M72.5 32.2s-23.4 7.9-6.9 92"/></svg>