<svg xmlns="http://www.w3.org/2000/svg" width="36" height="89.5" viewBox="0 0 36 89.5"><path fill="#FFF" d="M33.1 39.6c7-15.2-6.8-15.2-15.2-15.2s-21.5 1-15.2 15.2 4 12 9.7 14.2v30.9s1.5 3.1 2.6 3.9h.2v-34c.5.1 1 .1 1.5.2v33.8h.1s2.4-1.1 3.4-3.1c0 0 1.3-3.4-.6-5.2 0 0-1.9-1.9-.5-2.7 0 0 1.8-1.8-.1-3.3 0 0 2.7-5.8 1.7-10 0 0-3.9-3.9.2-4 0 0 4-1.2 4.2-3.3v-4c4.7-2.6.9 1.8 8-13.4M15.5 31c0-1.3 1.1-2.4 2.4-2.4 1.3 0 2.4 1.1 2.4 2.4 0 1.3-1.1 2.4-2.4 2.4-1.4 0-2.4-1.1-2.4-2.4"/><path fill="none" stroke="#00A78E" stroke-width="2" stroke-miterlimit="10" d="M33.1 39.6c7-15.2-6.8-15.2-15.2-15.2s-21.5 1-15.2 15.2 4 12 9.7 14.2v30.9s1.5 3.1 2.6 3.9h.2v-34c.5.1 1 .1 1.5.2v33.8h.1s2.4-1.1 3.4-3.1c0 0 1.3-3.4-.6-5.2 0 0-1.9-1.9-.5-2.7 0 0 1.8-1.8-.1-3.3 0 0 2.7-5.8 1.7-10 0 0-3.9-3.9.2-4 0 0 4-1.2 4.2-3.3v-4c4.7-2.6.9 1.8 8-13.4zM15.5 31c0-1.3 1.1-2.4 2.4-2.4 1.3 0 2.4 1.1 2.4 2.4 0 1.3-1.1 2.4-2.4 2.4-1.4 0-2.4-1.1-2.4-2.4z"/><path fill="#FFF" d="M17.9 31.7c-2.7 0-5.4-5.4-5.4-15.6S15.2.5 17.9.5s5.4 5.4 5.4 15.6-2.8 15.6-5.4 15.6m0-29.6c-1.6 0-3.8 5.3-3.8 14s2.2 14 3.8 14c1.6 0 3.8-5.3 3.8-14s-2.2-14-3.8-14"/><path fill="none" stroke="#00A78E" stroke-miterlimit="10" d="M17.9 31.7c-2.7 0-5.4-5.4-5.4-15.6S15.2.5 17.9.5s5.4 5.4 5.4 15.6-2.8 15.6-5.4 15.6zm0-29.6c-1.6 0-3.8 5.3-3.8 14s2.2 14 3.8 14c1.6 0 3.8-5.3 3.8-14s-2.2-14-3.8-14z"/></svg>