<svg xmlns="http://www.w3.org/2000/svg" width="230" height="143.6" viewBox="0 0 230 143.6"><path fill="#FFF" d="M201 129.5c-1.3 2.8-1.7 5.6 1.8 5.5l1-1.3 5.9-8 1.7 2.2c1 1.3 1.2 2.9.6 4.4-.5 1.1-1 2.5-1.4 3.4-.3.7-.8 1.2-1.5 1.7l-4.1 2.8c-1 .7-.6 1.5-.3 2.3l.6.5c.9.8 2.3.9 3.4.2l4.5-3.2c.4-.1.8-.3 1.1-.7l7-10.6c.4-.6 1.1-3.6 1-4.3l-3-11.5c-.1-.4-.3-2.7-.2-3.1l11-48.9v-8.6s-2.3-47.2-4.9-46.6l-26.3 5.8c-2 .5 5.3 26.8 5.3 26.8 2.8 10.9 3.9 14.6 4.6 21l-3 52.8c0 .2 0 .5-.1.7l-4.7 16.7zM95.3 8.4S74.5 43.6 65.9 55.3l-9.4 3.2L16 24.4l-4 1.3L0 9.1S9.3-2.2 28 .4s1.3 18.7 1.3 18.7L56 33.7 70.7 1.1l24.6 7.3z"/></svg>