<svg xmlns="http://www.w3.org/2000/svg" viewBox="1.3 7.7 597.1 586"><path fill="#7D3F98" d="M235.1 173.6s-78.5 30.7-123-24C73.6 102.2 63.2 25 63.2 25L9.8 36.8S-1.3 238.5 169.9 367.5c16 12 12 224.4 12 224.4l221.9 1.8.7-225.3s109.4-103.2 136.1-156.6c26.7-53.4 54.9-189.7 54.9-189.7l-62.3-6s-8.9 170.6-175 163.9c-35.3-1.3-78.2 12.7-123.1-6.4"/><path d="M189.7 329.2c-.3.3-.7.6-1.3 1-.6.4-1.4.8-2.5 1.2-1 .4-2.3.8-3.8 1.1-1.5.3-3.2.4-5 .4-3.7 0-6.8-.6-9.5-1.8-2.7-1.2-4.9-2.8-6.6-4.9-1.7-2.1-3-4.6-3.8-7.5-.8-2.9-1.2-6-1.2-9.5 0-3.4.4-6.6 1.3-9.5.9-2.9 2.2-5.4 4-7.6 1.8-2.1 4-3.8 6.6-5 2.6-1.2 5.7-1.8 9.3-1.8 1.8 0 3.4.2 4.8.5s2.7.7 3.7 1.1c1.1.4 1.9.9 2.6 1.4.7.5 1.2.9 1.6 1.2.4.4.8.8 1.1 1.3.3.5.4 1 .4 1.6 0 .9-.3 1.8-1 2.7-.7.9-1.4 1.7-2.2 2.5-.5-.5-1.2-1.1-1.8-1.7-.7-.6-1.4-1.1-2.3-1.5-.8-.4-1.8-.8-2.8-1.1-1.1-.3-2.2-.4-3.6-.4-2.3 0-4.2.5-5.8 1.4-1.6.9-2.8 2.1-3.8 3.6-.9 1.5-1.6 3.2-2 5.1-.4 1.9-.6 3.9-.6 5.9 0 2.1.2 4.2.6 6.1.4 1.9 1.1 3.7 2.1 5.2s2.3 2.7 3.9 3.6c1.6.9 3.6 1.4 6 1.4 1.3 0 2.4-.2 3.5-.5s2-.7 2.8-1.2c.8-.5 1.5-.9 2.1-1.4s1.1-.9 1.5-1.3c.3.3.6.7.9 1.2.4.5.7.9 1 1.4.3.5.6 1 .8 1.5.2.5.3.9.3 1.4 0 .6-.1 1.1-.3 1.5-.1.5-.5.9-1 1.4zm46.4-20.3c0 3.3-.4 6.3-1.2 9.3-.8 2.9-2 5.5-3.7 7.7-1.7 2.2-3.8 3.9-6.4 5.2-2.6 1.3-5.8 1.9-9.5 1.9s-6.8-.6-9.4-1.9c-2.6-1.3-4.7-3-6.3-5.2-1.6-2.2-2.8-4.7-3.6-7.6-.7-2.9-1.1-5.9-1.1-9.2 0-3.2.4-6.2 1.2-9 .8-2.8 2.1-5.3 3.8-7.5 1.7-2.1 3.9-3.9 6.5-5.1 2.6-1.3 5.7-1.9 9.4-1.9 3.6 0 6.6.6 9.2 1.8 2.6 1.2 4.6 2.9 6.3 5 1.6 2.1 2.8 4.6 3.6 7.4.9 2.8 1.2 5.8 1.2 9.1zm-9.5.1c0-2.2-.2-4.2-.5-6.2-.4-1.9-1-3.6-1.8-5.1-.9-1.5-2-2.6-3.3-3.5-1.4-.9-3-1.3-5-1.3-2.1 0-3.8.4-5.3 1.3-1.4.9-2.6 2-3.5 3.5-.9 1.5-1.5 3.2-1.9 5.1-.4 1.9-.6 4-.6 6.2s.2 4.2.6 6.2c.4 2 1 3.8 1.9 5.3.9 1.5 2 2.8 3.4 3.7 1.4.9 3.1 1.4 5.2 1.4s3.8-.5 5.2-1.4c1.4-.9 2.5-2.1 3.4-3.7.8-1.5 1.4-3.3 1.8-5.3.2-1.9.4-4 .4-6.2zm26.9 15.3h13.2c1.1 0 2 .1 2.7.4.7.3 1.3.6 1.7 1.1.4.5.7 1 .8 1.6.2.6.2 1.2.2 1.8v1.6c0 .6-.1 1-.1 1.1h-27.9v-45.3c.6-.1 1.3-.2 1.9-.2.6-.1 1.1-.1 1.4-.1.7 0 1.4.1 2.1.2.7.1 1.4.4 2 .8.6.4 1.1.9 1.5 1.6.4.7.6 1.6.6 2.7v32.7zm34.1 0h13.2c1.1 0 2 .1 2.7.4.7.3 1.3.6 1.7 1.1.4.5.7 1 .8 1.6.2.6.2 1.2.2 1.8v1.6c0 .6-.1 1-.1 1.1h-27.9v-45.3c.6-.1 1.3-.2 1.9-.2.6-.1 1.1-.1 1.4-.1.7 0 1.4.1 2.1.2.7.1 1.4.4 2 .8.6.4 1.1.9 1.5 1.6.4.7.6 1.6.6 2.7v32.7zm48.7.3c2.2 0 3.6.5 4.4 1.5.8 1 1.2 2.1 1.2 3.3v1.3c0 .3-.1.7-.1 1.1h-29.3v-45.4h28.3c.1.5.1.9.2 1.3v1.3c0 1.6-.4 2.8-1.2 3.6-.8.8-2.3 1.2-4.5 1.2h-13.4V305h14.4v7.3h-14.4v12.5h14.4zm28.8-10.6v-6.9h16.5v20.3c-.4.5-1 1.1-1.9 1.7-.9.6-2 1.2-3.3 1.8-1.4.6-3 1-4.8 1.4-1.9.4-4 .6-6.3.6-3.7 0-6.8-.6-9.5-1.8-2.7-1.2-4.9-2.8-6.6-4.9-1.7-2.1-3-4.6-3.9-7.5-.8-2.9-1.3-6.1-1.3-9.5 0-3.4.4-6.5 1.3-9.4.9-2.9 2.2-5.4 4-7.5 1.8-2.1 4.1-3.8 6.8-5 2.8-1.2 6-1.8 9.8-1.8 1.8 0 3.6.2 5.3.6 1.7.4 3.3 1 4.6 1.7 1.3.7 2.4 1.4 3.2 2.3.8.8 1.2 1.7 1.2 2.5s-.3 1.6-1 2.6-1.4 1.8-2.3 2.6c-.5-.5-1.2-1-1.9-1.6-.7-.5-1.5-1-2.4-1.5-.9-.5-1.9-.8-3-1.1-1.1-.3-2.3-.4-3.7-.4-2.4 0-4.5.5-6.1 1.4-1.6.9-2.9 2.1-3.9 3.6-.9 1.5-1.6 3.2-2 5-.4 1.9-.6 3.9-.6 5.9 0 2.2.2 4.2.6 6.2.4 2 1.1 3.7 2.1 5.3 1 1.5 2.3 2.7 3.9 3.7 1.6.9 3.7 1.4 6.1 1.4 1.2 0 2.2-.1 3-.3.8-.2 1.5-.4 2-.6.6-.3 1.1-.6 1.6-.9V314h-7.5zm49.3 10.6c2.2 0 3.6.5 4.4 1.5.8 1 1.2 2.1 1.2 3.3v1.3c0 .3-.1.7-.1 1.1h-29.3v-45.4h28.3c.1.5.1.9.2 1.3v1.3c0 1.6-.4 2.8-1.2 3.6-.8.8-2.3 1.2-4.5 1.2H400V305h14.4v7.3H400v12.5h14.4z" fill="#FFF"/><path fill="#7D3F98" stroke="#FCFCFC" stroke-width="2" stroke-miterlimit="10" d="M2.4 15.5l4.5 40 58.9-6.7 2.3-40zm594.9 34.6l-3.7-33.5-57.6-4.7-12.5 30.7z"/><path fill="none" stroke="#FCFCFC" stroke-width="2" stroke-miterlimit="10" d="M181.5 561.9l221.2-1.2"/></svg>