<svg xmlns="http://www.w3.org/2000/svg" viewBox="18.4 0 563.1 600.3"><path fill="#7D3F98" d="M212 0S42.4 3.5 24.3 154.7s11.1 431.7 11.1 431.7l74.6-7.9s19.4-259.2 27-297c5.7-28-1 316.4-1 316.4l317 2.5 1-321.8 33.4 294.1 66.7 9.2S681.2 5.7 388 9.5c-50.5.7-111.8 17.8-176-9.5"/><path d="M147.3 222.3c-.4.4-1 .9-1.9 1.5-.9.6-2 1.2-3.5 1.7-1.5.6-3.3 1.1-5.4 1.5-2.1.4-4.5.6-7.2.6-5.2 0-9.7-.8-13.6-2.5-3.8-1.7-7-4-9.4-7-2.5-3-4.3-6.5-5.5-10.6-1.2-4.1-1.7-8.6-1.7-13.5s.6-9.4 1.9-13.6c1.3-4.2 3.1-7.8 5.7-10.8 2.5-3 5.7-5.4 9.4-7.1 3.8-1.7 8.2-2.6 13.3-2.6 2.5 0 4.8.2 6.8.7 2 .5 3.8 1 5.3 1.6 1.5.6 2.8 1.3 3.8 1.9 1 .7 1.8 1.2 2.3 1.7.6.5 1.1 1.1 1.5 1.8.4.7.6 1.5.6 2.3 0 1.3-.5 2.6-1.5 3.9-1 1.3-2 2.5-3.2 3.6-.8-.8-1.6-1.6-2.6-2.4-1-.8-2-1.5-3.2-2.1-1.2-.6-2.6-1.1-4.1-1.5-1.5-.4-3.2-.6-5.1-.6-3.3 0-6.1.7-8.3 2-2.2 1.3-4 3-5.4 5.2-1.4 2.1-2.3 4.6-2.9 7.3-.6 2.7-.9 5.5-.9 8.4 0 3 .3 5.9.9 8.7.6 2.8 1.6 5.2 3 7.4 1.4 2.1 3.3 3.8 5.6 5.1 2.3 1.3 5.1 1.9 8.6 1.9 1.8 0 3.5-.2 5-.7 1.5-.5 2.9-1 4-1.6 1.2-.6 2.2-1.3 3-2 .9-.7 1.6-1.3 2.2-1.8.4.5.8 1 1.4 1.6.5.6 1 1.3 1.5 2s.8 1.4 1.2 2.1c.3.7.5 1.4.5 1.9 0 .8-.2 1.5-.5 2.1-.4.5-.9 1.2-1.6 1.9zm66.3-29c0 4.6-.5 9.1-1.6 13.2-1.1 4.2-2.8 7.8-5.2 10.9-2.4 3.1-5.5 5.6-9.2 7.4-3.7 1.8-8.3 2.7-13.6 2.7-5.2 0-9.7-.9-13.4-2.8s-6.7-4.3-9-7.5c-2.3-3.1-4-6.8-5.1-10.9-1.1-4.1-1.6-8.5-1.6-13.1 0-4.5.6-8.8 1.7-12.9 1.2-4.1 3-7.6 5.4-10.7 2.5-3.1 5.5-5.5 9.3-7.3 3.7-1.8 8.2-2.7 13.4-2.7 5.1 0 9.5.9 13.1 2.6 3.6 1.7 6.6 4.1 9 7.1 2.3 3 4 6.5 5.1 10.6 1.2 4.3 1.7 8.7 1.7 13.4zm-13.6.1c0-3.1-.3-6-.8-8.8-.5-2.8-1.4-5.2-2.6-7.3-1.2-2.1-2.8-3.8-4.7-5-1.9-1.2-4.3-1.8-7.2-1.8-3 0-5.5.6-7.5 1.8-2 1.2-3.7 2.9-4.9 5-1.3 2.1-2.2 4.5-2.7 7.3s-.8 5.7-.8 8.8.3 6.1.8 8.9c.5 2.8 1.4 5.4 2.7 7.6 1.2 2.2 2.8 3.9 4.8 5.2 2 1.3 4.5 1.9 7.4 1.9 2.9 0 5.4-.6 7.4-1.9 2-1.3 3.6-3 4.8-5.2 1.2-2.2 2.1-4.7 2.6-7.6.4-2.8.7-5.8.7-8.9zm38.4 21.8h18.9c1.5 0 2.8.2 3.9.6 1 .4 1.8.9 2.4 1.5.6.6 1 1.4 1.2 2.2.2.8.3 1.7.3 2.5v2.3c0 .9-.1 1.4-.1 1.5h-39.9V161l2.7-.3c.9-.1 1.5-.1 2-.1 1 0 2 .1 3 .3 1 .2 1.9.6 2.8 1.1.9.5 1.6 1.3 2.1 2.3.5 1 .8 2.3.8 3.9v47zm48.8 0h18.9c1.5 0 2.8.2 3.9.6 1 .4 1.8.9 2.4 1.5.6.6 1 1.4 1.2 2.2.2.8.3 1.7.3 2.5v2.3c0 .9-.1 1.4-.1 1.5h-39.9V161l2.7-.3c.9-.1 1.5-.1 2-.1 1 0 2 .1 3 .3 1 .2 1.9.6 2.8 1.1.9.5 1.6 1.3 2.1 2.3.5 1 .8 2.3.8 3.9v47zm69.5.5c3.1 0 5.2.7 6.3 2.1 1.1 1.4 1.7 3 1.7 4.7v1.8c0 .5-.1 1-.1 1.6h-41.9V161H363c.1.7.2 1.3.2 1.8v1.8c0 2.3-.6 4-1.7 5.1-1.2 1.1-3.3 1.7-6.5 1.7h-19v16h20.5v10.4H336v17.9h20.7zm41.2-15.1v-9.9h23.5v29c-.6.7-1.5 1.5-2.7 2.4-1.2.9-2.8 1.8-4.7 2.6-1.9.8-4.2 1.5-6.9 2-2.6.5-5.6.8-9 .8-5.2 0-9.8-.9-13.6-2.6-3.8-1.7-7-4.1-9.5-7.1s-4.3-6.6-5.5-10.7c-1.2-4.2-1.8-8.7-1.8-13.6 0-4.8.6-9.3 1.9-13.4 1.3-4.1 3.2-7.7 5.8-10.7 2.6-3 5.8-5.4 9.8-7.1 3.9-1.7 8.6-2.6 13.9-2.6 2.6 0 5.1.3 7.6.9 2.5.6 4.7 1.4 6.6 2.4 1.9 1 3.4 2 4.6 3.2 1.2 1.2 1.7 2.4 1.7 3.6 0 1.1-.5 2.3-1.4 3.7-.9 1.4-2 2.6-3.3 3.7-.8-.7-1.7-1.5-2.7-2.2-1-.8-2.1-1.5-3.4-2.1-1.3-.6-2.7-1.2-4.3-1.6-1.6-.4-3.3-.6-5.3-.6-3.5 0-6.4.6-8.7 1.9-2.3 1.3-4.2 3-5.5 5.1-1.4 2.1-2.3 4.5-2.9 7.2s-.9 5.5-.9 8.4c0 3.1.3 6.1.9 8.9.6 2.8 1.6 5.3 3 7.5s3.3 3.9 5.6 5.2c2.4 1.3 5.3 2 8.8 2 1.7 0 3.1-.1 4.3-.4 1.2-.3 2.1-.5 2.9-.9.8-.4 1.6-.8 2.2-1.4v-13.8h-11zm70.3 15.1c3.1 0 5.2.7 6.3 2.1 1.1 1.4 1.7 3 1.7 4.7v1.8c0 .5-.1 1-.1 1.6h-41.9V161h40.4c.1.7.2 1.3.2 1.8v1.8c0 2.3-.6 4-1.7 5.1-1.2 1.1-3.3 1.7-6.5 1.7h-19.1v16H468v10.4h-20.5v17.9h20.7z" fill="#FFF"/><path fill="#7D3F98" stroke="#FCFCFC" stroke-width="2" stroke-miterlimit="10" d="M25.9 538.7l6.3 57.2 84.2-9.6 3.2-57.1zm452.6-7.9l6.4 47.6 69.2 3.2 13.3-44.5z"/><path fill="none" stroke="#FCFCFC" stroke-width="2" stroke-miterlimit="10" d="M135.5 554.6l316-1.6"/></svg>