<svg xmlns="http://www.w3.org/2000/svg" viewBox="0.6 146.5 598.8 307.1"><path fill="#7D3F98" d="M255.2 146.5s-72.5 16.1-113.6 34.4c-71.3 31.8-119.3 20.6-119.3 20.6l5.4 43.4s158.6 23.6 162.5 4.4c2.9-14.3 26.2 202.9 26.2 202.9l162.1 1.3 21.9-201L585.6 233l3.2-42.2S486 152.9 344.9 151.3c-25.5-.2-57 9.2-89.7-4.8"/><path d="M222 260.2c-.2.2-.5.4-1 .7-.4.3-1 .6-1.8.9-.8.3-1.7.6-2.7.8-1.1.2-2.3.3-3.7.3-2.7 0-5-.4-6.9-1.3-1.9-.9-3.6-2.1-4.8-3.6-1.3-1.5-2.2-3.4-2.8-5.4-.6-2.1-.9-4.4-.9-6.9s.3-4.8 1-7c.6-2.1 1.6-4 2.9-5.5 1.3-1.6 2.9-2.8 4.8-3.6 1.9-.9 4.2-1.3 6.8-1.3 1.3 0 2.5.1 3.5.3 1 .2 1.9.5 2.7.8.8.3 1.4.6 1.9 1 .5.3.9.6 1.2.9.3.3.6.6.8.9.2.4.3.8.3 1.2 0 .7-.2 1.3-.7 2-.5.7-1 1.3-1.6 1.8-.4-.4-.8-.8-1.3-1.2-.5-.4-1-.8-1.7-1.1-.6-.3-1.3-.6-2.1-.8-.8-.2-1.6-.3-2.6-.3-1.7 0-3.1.3-4.2 1s-2.1 1.6-2.7 2.6-1.2 2.3-1.5 3.7c-.3 1.4-.4 2.8-.4 4.3 0 1.6.1 3 .4 4.5.3 1.4.8 2.7 1.5 3.8.7 1.1 1.7 2 2.8 2.6 1.2.7 2.6 1 4.4 1 .9 0 1.8-.1 2.6-.3.8-.2 1.5-.5 2.1-.8.6-.3 1.1-.7 1.6-1 .4-.4.8-.7 1.1-.9.2.2.4.5.7.8.3.3.5.7.7 1s.4.7.6 1.1c.2.4.2.7.2 1 0 .4-.1.8-.2 1.1-.4.2-.6.6-1 .9zm33.9-14.8c0 2.4-.3 4.6-.8 6.8-.6 2.1-1.5 4-2.7 5.6-1.2 1.6-2.8 2.9-4.7 3.8-1.9.9-4.2 1.4-6.9 1.4s-5-.5-6.8-1.4-3.4-2.2-4.6-3.8c-1.2-1.6-2.1-3.5-2.6-5.6-.5-2.1-.8-4.3-.8-6.7 0-2.3.3-4.5.9-6.6.6-2.1 1.5-3.9 2.8-5.5 1.3-1.6 2.8-2.8 4.8-3.7 1.9-.9 4.2-1.4 6.8-1.4 2.6 0 4.8.4 6.7 1.3 1.9.9 3.4 2.1 4.6 3.6 1.2 1.5 2.1 3.3 2.6 5.4.5 2.2.7 4.4.7 6.8zm-6.9.1c0-1.6-.1-3.1-.4-4.5-.3-1.4-.7-2.7-1.3-3.7-.6-1.1-1.4-1.9-2.4-2.6-1-.6-2.2-.9-3.7-.9s-2.8.3-3.8.9c-1 .6-1.9 1.5-2.5 2.6-.6 1.1-1.1 2.3-1.4 3.7-.3 1.4-.4 2.9-.4 4.5s.1 3.1.4 4.6c.3 1.5.7 2.7 1.4 3.9.6 1.1 1.5 2 2.5 2.7 1 .7 2.3 1 3.8 1s2.7-.3 3.8-1c1-.7 1.8-1.6 2.5-2.7.6-1.1 1.1-2.4 1.3-3.9 0-1.5.2-3 .2-4.6zm19.6 11.1h9.7c.8 0 1.5.1 2 .3.5.2.9.5 1.2.8.3.3.5.7.6 1.1.1.4.2.9.2 1.3v1.2c0 .5 0 .7-.1.8h-20.4V229c.5-.1.9-.1 1.4-.2.4 0 .8-.1 1-.1.5 0 1 0 1.5.1s1 .3 1.4.6c.4.3.8.7 1.1 1.2.3.5.4 1.2.4 2v24zm25 0h9.7c.8 0 1.5.1 2 .3.5.2.9.5 1.2.8.3.3.5.7.6 1.1.1.4.2.9.2 1.3v1.2c0 .5 0 .7-.1.8h-20.4V229c.5-.1.9-.1 1.4-.2.4 0 .8-.1 1-.1.5 0 1 0 1.5.1s1 .3 1.4.6c.4.3.8.7 1.1 1.2.3.5.4 1.2.4 2v24zm35.5.3c1.6 0 2.7.4 3.2 1.1.6.7.9 1.5.9 2.4v.9c0 .2 0 .5-.1.8h-21.4v-33.2h20.6c.1.4.1.7.1.9v.9c0 1.2-.3 2-.9 2.6-.6.6-1.7.9-3.3.9h-9.8v8.2H329v5.3h-10.5v9.2h10.6zm21.1-7.8V244h12v14.9c-.3.4-.8.8-1.4 1.2-.6.5-1.4.9-2.4 1.3s-2.2.8-3.5 1c-1.4.3-2.9.4-4.6.4-2.7 0-5-.4-7-1.3s-3.6-2.1-4.9-3.6c-1.3-1.5-2.2-3.4-2.8-5.5-.6-2.1-.9-4.4-.9-7 0-2.5.3-4.8 1-6.9.6-2.1 1.6-3.9 2.9-5.5 1.3-1.6 3-2.8 5-3.6 2-.9 4.4-1.3 7.1-1.3 1.3 0 2.6.2 3.9.5 1.3.3 2.4.7 3.4 1.2s1.8 1 2.4 1.7c.6.6.9 1.2.9 1.9 0 .6-.2 1.2-.7 1.9s-1 1.3-1.7 1.9c-.4-.4-.9-.7-1.4-1.1-.5-.4-1.1-.8-1.7-1.1-.6-.3-1.4-.6-2.2-.8-.8-.2-1.7-.3-2.7-.3-1.8 0-3.3.3-4.5 1-1.2.7-2.1 1.5-2.8 2.6-.7 1.1-1.2 2.3-1.5 3.7-.3 1.4-.4 2.8-.4 4.3 0 1.6.2 3.1.5 4.6.3 1.5.8 2.7 1.5 3.8.7 1.1 1.7 2 2.9 2.7 1.2.7 2.7 1 4.5 1 .9 0 1.6-.1 2.2-.2.6-.1 1.1-.3 1.5-.4.4-.2.8-.4 1.1-.7v-7.1h-5.7zm36 7.8c1.6 0 2.7.4 3.2 1.1.6.7.9 1.5.9 2.4v.9c0 .2 0 .5-.1.8h-21.4v-33.2h20.6c.1.4.1.7.1.9v.9c0 1.2-.3 2-.9 2.6-.6.6-1.7.9-3.3.9h-9.8v8.2H386v5.3h-10.5v9.2h10.7z" fill="#FFF"/><path fill="#7D3F98" stroke="#FCFCFC" stroke-width="2" stroke-miterlimit="10" d="M39.3 204.1l-28.7-6-8.8 42.4L29.2 251zm533.1 28.7l24.4-3.2 1.6-35.3-22.8-7z"/><path fill="none" stroke="#FCFCFC" stroke-width="2" stroke-miterlimit="10" d="M216.1 430.2l161.6-.8"/></svg>