<svg xmlns="http://www.w3.org/2000/svg" width="176.3" height="216.1" viewBox="0 0 176.3 216.1"><path fill="#FFF" d="M0 0h176.3v216.1H0z"/><path fill="#009245" d="M44 193.8c.8.6 1.7 1.2 2.8 1.9 1.1.6 2.5.9 4 .9.6 0 1.1-.1 1.7-.2.6-.1 1-.3 1.5-.6.4-.3.8-.7 1-1.2.3-.5.4-1.1.4-1.8s-.1-1.3-.4-1.8c-.2-.5-.6-.9-1-1.3s-1-.7-1.5-.9c-.6-.3-1.3-.5-2-.7-1-.3-2.1-.6-3-1.1-1-.4-1.8-1-2.6-1.6-.7-.7-1.3-1.4-1.8-2.4-.4-.9-.7-2.1-.7-3.4 0-2.1.6-3.8 1.8-5.1 1.2-1.3 2.7-2.2 4.5-2.8v-4.4h2.7v3.9h1.8v-3.9h2.7v4.3c.9.2 1.7.5 2.3.8.6.3 1.1.5 1.4.7.8.5 1.1 1.1 1.1 1.9 0 .3-.1.8-.4 1.4-.3.6-.7 1.2-1.2 1.8-.7-.6-1.6-1.1-2.7-1.6s-2.3-.8-3.5-.8c-.5 0-1 0-1.5.1s-1 .2-1.4.5c-.4.2-.8.6-1.1 1-.3.4-.4 1-.4 1.6 0 .6.1 1.1.3 1.5.2.4.5.8.9 1.1.4.3 1 .6 1.6.9s1.4.5 2.3.8c1 .3 2 .8 2.9 1.2.9.5 1.7 1 2.4 1.7s1.3 1.5 1.7 2.4c.4.9.6 2 .6 3.2 0 2.1-.5 3.9-1.4 5.3-1 1.4-2.3 2.5-3.9 3.2v4.7h-2.7v-4c-.3.1-.6.1-.9.1-.3 0-.6.1-.9.1v3.8h-2.7v-3.9c-1.4-.1-2.5-.4-3.4-.7-.9-.3-1.5-.6-2-.9-.3-.2-.6-.5-.8-.8-.2-.3-.3-.7-.3-1.1 0-.5.2-1.1.6-1.8.3-.7.7-1.4 1.2-2zm80.1 0c.8.6 1.7 1.2 2.8 1.9 1.1.6 2.5.9 4 .9.6 0 1.1-.1 1.7-.2.6-.1 1-.3 1.5-.6.4-.3.8-.7 1-1.2.3-.5.4-1.1.4-1.8s-.1-1.3-.4-1.8c-.2-.5-.6-.9-1-1.3s-1-.7-1.5-.9c-.6-.3-1.3-.5-2-.7-1-.3-2.1-.6-3-1.1-1-.4-1.8-1-2.6-1.6-.7-.7-1.3-1.4-1.8-2.4-.4-.9-.7-2.1-.7-3.4 0-2.1.6-3.8 1.8-5.1 1.2-1.3 2.7-2.2 4.5-2.8v-4.4h2.7v3.9h1.8v-3.9h2.7v4.3c.9.2 1.7.5 2.3.8.6.3 1.1.5 1.4.7.8.5 1.1 1.1 1.1 1.9 0 .3-.1.8-.4 1.4-.3.6-.7 1.2-1.2 1.8-.7-.6-1.6-1.1-2.7-1.6s-2.3-.8-3.5-.8c-.5 0-1 0-1.5.1s-1 .2-1.4.5c-.4.2-.8.6-1.1 1-.3.4-.4 1-.4 1.6 0 .6.1 1.1.3 1.5.2.4.5.8.9 1.1.4.3 1 .6 1.6.9.7.3 1.4.5 2.3.8 1 .3 2 .8 2.9 1.2.9.5 1.7 1 2.4 1.7s1.3 1.5 1.7 2.4c.4.9.6 2 .6 3.2 0 2.1-.5 3.9-1.4 5.3-1 1.4-2.3 2.5-3.9 3.2v4.7h-2.7v-4c-.3.1-.6.1-.9.1s-.6.1-.9.1v3.8h-2.7v-3.9c-1.4-.1-2.5-.4-3.4-.7s-1.5-.6-2-.9c-.3-.2-.6-.5-.8-.8-.2-.3-.3-.7-.3-1.1 0-.5.2-1.1.6-1.8.4-.7.8-1.4 1.2-2zm-40.1 0c.8.6 1.7 1.2 2.8 1.9 1.1.6 2.5.9 4 .9.6 0 1.1-.1 1.7-.2.6-.1 1-.3 1.5-.6.4-.3.8-.7 1-1.2.3-.5.4-1.1.4-1.8s-.1-1.3-.4-1.8c-.2-.5-.6-.9-1-1.3s-1-.7-1.5-.9c-.6-.3-1.3-.5-2-.7-1-.3-2.1-.6-3-1.1-1-.4-1.8-1-2.6-1.6-.7-.7-1.3-1.4-1.8-2.4-.4-.9-.7-2.1-.7-3.4 0-2.1.6-3.8 1.8-5.1s2.7-2.2 4.5-2.8v-4.4h2.7v3.9h1.8v-3.9h2.7v4.3c.9.2 1.7.5 2.3.8.6.3 1.1.5 1.4.7.8.5 1.1 1.1 1.1 1.9 0 .3-.1.8-.4 1.4-.3.6-.7 1.2-1.2 1.8-.7-.6-1.6-1.1-2.7-1.6s-2.3-.8-3.5-.8c-.5 0-1 0-1.5.1s-1 .2-1.4.5c-.4.2-.8.6-1.1 1-.3.4-.4 1-.4 1.6 0 .6.1 1.1.3 1.5.2.4.5.8.9 1.1.4.3 1 .6 1.6.9.7.3 1.4.5 2.3.8 1 .3 2 .8 2.9 1.2.9.5 1.7 1 2.4 1.7s1.3 1.5 1.7 2.4c.4.9.6 2 .6 3.2 0 2.1-.5 3.9-1.4 5.3-1 1.4-2.3 2.5-3.9 3.2v4.7h-2.7v-4c-.3.1-.6.1-.9.1s-.6.1-.9.1v3.8h-2.7v-3.9c-1.4-.1-2.5-.4-3.4-.7s-1.5-.6-2-.9c-.3-.2-.6-.5-.8-.8-.2-.3-.3-.7-.3-1.1 0-.5.2-1.1.6-1.8.4-.7.8-1.4 1.2-2z"/><path fill="#45CDB6" d="M16.4 69.9h125.2v5.3H16.4zm0 20.5h137.1v5.3H16.4zm0-10.3h143.5v5.3H16.4zm0 20.6h121.9v5.3H16.4zm0 10.2h133v5.3h-133zm0 10.3h143.5v5.3H16.4zm0 10.2h125.2v5.3H16.4zm0 10.3h143.5v5.3H16.4zm0 10.3h137.1v5.3H16.4z"/><path fill="#E2066F" d="M114.7 49c0 4.7-3.8 8.5-8.5 8.5H77.4c-4.7 0-8.5-3.8-8.5-8.5V20.2c0-4.7 3.8-8.5 8.5-8.5h28.8c4.7 0 8.5 3.8 8.5 8.5V49z"/><path fill="#FFF" d="M107.1 32.6c0-1.4-1.1-2.5-2.5-2.5h-7.9c-.1 0-.1-.1-.1-.1v-7.9c0-1.4-1.1-2.5-2.5-2.5H90c-1.4 0-2.5 1.1-2.5 2.5V30c0 .1-.1.1-.1.1h-7.9c-1.4 0-2.5 1.1-2.5 2.5v4.1c0 1.4 1.1 2.5 2.5 2.5h7.9c.1 0 .1.1.1.1v7.9c0 1.4 1.1 2.5 2.5 2.5h4.1c1.4 0 2.5-1.1 2.5-2.5v-7.9c0-.1.1-.1.1-.1h7.9c1.4 0 2.5-1.1 2.5-2.5v-4.1z"/></svg>