<svg xmlns="http://www.w3.org/2000/svg" width="175.6" height="223.2" viewBox="0 0 175.6 223.2"><path fill="#FFF" d="M134.3 133c-2.4.8-17.9 5.8-38.3 8.7-13.7 1.9-31.6 3.1-49.5.6-8.7-1.2-17.3-3.3-25.6-6.6-5.3.7-9.3 1.1-11.5 1.3v24.9c7.2 1.3 46.8 9.3 82 35.9 13.8-28.2 33.9-40.9 48.6-46.5 12.7-4.9 23.4-5.6 27.7-5.6-3.9-6.5-10.6-11.2-18.5-12.4-1.2-.2-2.4-.3-3.6-.3h-11.3zm-94.9-4.4c20.3-3.6 48.1-10.1 66.2-21.2v-44C94.1 62 30 55.2 9.4 72.5l.1 60.2c4.6-.5 16-1.7 29.9-4.1zM11 62.3c5.7-6.2 13.8-14.7 23.9-25.3C47.7 23.7 60.6 10.4 66.6 4.2l-51 .1c-1.7 0-3.2.7-4.4 1.8-1.2 1.2-1.9 2.8-1.9 4.5L9.4 64c.5-.5 1-1.1 1.6-1.7zM9.5 166.1v46.7c0 3.1 2.3 5.8 5.4 6.2.3 0 .6.1.9.1l83.7-.1c.5 0 1.1-.1 1.6-.2l.3-.1h7.3C72 179.4 19.8 168 9.5 166.1z"/><path fill="#FFF" d="M171.4 192.8v-34.1c0-3.3-.7-6.5-1.8-9.4v.5c-.5 0-49.2-2.4-74.7 50.5 6.8 5.4 13.3 11.5 19.4 18.3h31.4c14.2 0 25.7-11.6 25.7-25.8zm-65.8-80.5c-18.7 10.6-45.6 17-65.5 20.4-.7.1-1.5.3-2.2.4l-11.1.3c37.1 12.7 82.2 2.5 99.3-2.3l-20.5.5v-19.3z"/><path fill="#00A78E" d="M175.6 192.8v-34.1c0-14.8-11.1-27.5-25.8-29.6-1.4-.2-2.8-.3-4.2-.3h-35.7l-.1-118.4c0-5.2-3.9-9.6-9-10.3-.6-.1-1.1-.1-1.5-.1L15.6.1c-2.8 0-5.4 1.1-7.4 3.1s-3.1 4.6-3.1 7.4l.1 58.1c-.7.8-1.4 1.6-2 2.2C.5 74-.9 75.6.6 77.2c.4.4.8.7 1.2.7.8.1 1.8-.4 3.4-1.7l.1 136.6c0 5.2 3.9 9.6 9 10.3.5.1 1 .1 1.5.1l83.7-.1c.8 0 1.6-.1 2.4-.3h43.8c16.5-.1 29.9-13.5 29.9-30zm-74.3 25.8l-.3.1c-.5.1-1.1.2-1.6.2l-83.6.1c-.3 0-.6 0-.9-.1-3.1-.4-5.4-3.1-5.4-6.2V166c10.3 1.9 62.5 13.3 99.1 52.6h-7.3zM11.2 6.1c1.2-1.2 2.8-1.8 4.4-1.8l51-.1c-6 6.2-18.9 19.5-31.7 32.8C24.8 47.6 16.7 56.1 11 62.3c-.6.6-1.1 1.2-1.6 1.7l-.1-53.4c0-1.7.7-3.3 1.9-4.5zm88.9-1.9c3.1.4 5.4 3.1 5.4 6.2V58l.7 1.2c-10.4-1.3-64.2-7.3-91.4 5C29.1 49 54.1 23.1 72.6 4l.1.2h27.4zm67.6 141.4c-4.3 0-14.9.6-27.7 5.6-14.6 5.7-34.7 18.4-48.6 46.5-35.2-26.5-74.8-34.6-82-35.9v-24.9c2.2-.2 6.2-.6 11.5-1.3 8.2 3.3 16.9 5.4 25.6 6.6 18 2.5 35.8 1.3 49.5-.6 20.4-2.9 35.9-7.9 38.3-8.7h11.3c1.2 0 2.4.1 3.6.3 7.9 1.1 14.6 5.9 18.5 12.4zm-54.3 75.1zm-21.1-19.9zM7.4 135zm98.2-71.7v44c-18.1 11.1-45.9 17.6-66.2 21.2-13.9 2.4-25.3 3.7-30 4.1V72.5C30 55.2 94.1 62 105.6 63.3zm-84.4 70.2zm5.7-.2L38 133c.7-.1 1.4-.2 2.2-.4 19.9-3.5 46.8-9.8 65.5-20.4v19.3l20.5-.5c-17.2 4.9-62.3 15.1-99.3 2.3zm87.4 85.3c-6.1-6.9-12.6-13-19.4-18.3 25.5-52.9 74.2-50.5 74.7-50.5v-.5c1.2 2.9 1.8 6.1 1.8 9.4v34.1c0 14.2-11.5 25.8-25.7 25.8h-31.4zm19.7-87.7z"/><path fill="#FFF" d="M72.6 4C54.1 23.1 29.1 49 14.9 64.2c27.2-12.3 81-6.3 91.4-5l-.7-1.2V10.4c0-3.1-2.3-5.8-5.4-6.2-.3 0-.6-.1-.9-.1H72.8l-.2-.1zM7.4 135l126.6-4.1-112.8 2.6 92.2 87.2-21.1-19.9"/></svg>