<svg xmlns="http://www.w3.org/2000/svg" width="562.1" height="371.1" viewBox="0 0 562.1 371.1"><path d="M170.7 371.1v-4.3c0-3 2.4-5.4 5.4-5.4h183c3 0 5.4 2.4 5.4 5.4v4.3H170.7zM276.9 43.8c0-3.4-2.4-6.2-5.4-6.2h-7.6c-3 0-5.4 2.8-5.4 6.2V332H277V43.8zm-5.6-38.4v28.9h-7.4V5.4c0-3 1.7-5.4 3.7-5.4 2.1 0 3.7 2.4 3.7 5.4zm-44.4 352.7v-4.3c0-3 2.4-5.4 5.4-5.4h70.5c3 0 5.4 2.4 5.4 5.4v4.3h-81.3zm19.8-13.1v-4.3c0-3 2.4-5.4 5.4-5.4h31c3 0 5.4 2.4 5.4 5.4v4.3h-41.8z" fill="#FFF"/><path fill="#FFF" d="M435.5 52.2c-4.2-1.7-9 9-15.5 8.3-4.7-.5-22.7-11.8-72.3-21.1-18.5-3.5-60.1 25-80.1 26.1-19.8-1-61.2-29.6-79.5-26.1-49.9 9.3-68.1 20.7-72.8 21.2-6.5.7-11.4-10-15.5-8.3-4.2 1.7-7 7-3.2 15 7.8 14.2 30.9 3.2 61.9-6.4 25.8-8 57.3 18.4 87.5 17.5 5 .2 38.4.2 43.3 0 30.3.8 61.7-25.6 87.5-17.5 31 9.6 54 20.6 61.9 6.4 3.8-8.1.9-13.4-3.2-15.1zm-89.7 254c.9 1.4 2.3 2.6 4.1 3.2l38.6 4.8c.3 5 4.5 8.9 9.6 8.9h111.7c5.1 0 9.2-3.9 9.6-8.9l38.7-4.8c1.8-.6 3.2-1.7 4.1-3.2H345.8zm158.5-93.3c-2.4.8-17.9 5.8-38.3 8.7-13.7 1.9-31.6 3.1-49.5.6-8.7-1.2-17.3-3.3-25.6-6.6-5.3.7-9.3 1.1-11.5 1.3v24.9c7.2 1.3 46.8 9.3 82 35.9 13.8-28.2 33.9-40.9 48.6-46.5 12.7-4.9 23.4-5.6 27.7-5.6-3.9-6.5-10.6-11.2-18.5-12.4-1.2-.2-2.4-.3-3.6-.3h-11.3zm-94.9-4.4c20.3-3.6 48.1-10.1 66.2-21.2v-44c-11.5-1.4-75.6-8.2-96.2 9.1l.1 60.2c4.6-.5 16-1.7 29.9-4.1zM381 142.2c5.7-6.2 13.8-14.7 23.9-25.3 12.7-13.3 25.7-26.7 31.7-32.8l-51 .1c-1.7 0-3.2.7-4.4 1.8-1.2 1.2-1.8 2.8-1.8 4.4l.1 53.5c.4-.5.9-1.1 1.5-1.7zm-1.5 103.7v46.7c0 3.1 2.3 5.8 5.4 6.2.3 0 .6.1.9.1l83.7-.1c.5 0 1.1-.1 1.6-.2l.3-.1h7.3c-36.7-39.3-88.9-50.6-99.2-52.6z"/><path fill="#FFF" d="M541.4 272.7v-34.1c0-3.3-.7-6.5-1.8-9.4v.5c-.5 0-49.2-2.4-74.7 50.5 6.8 5.4 13.3 11.5 19.4 18.3h31.4c14.2 0 25.7-11.6 25.7-25.8zm-65.8-80.6c-18.7 10.6-45.6 17-65.5 20.4-.7.1-1.5.3-2.2.4l-11.1.3c37.1 12.7 82.2 2.5 99.3-2.3l-20.5.5v-19.3z"/><path fill="#00A78E" d="M545.6 272.7v-34.1c0-14.8-11.1-27.5-25.8-29.6-1.4-.2-2.8-.3-4.2-.3h-35.7l-.1-118.4c0-5.2-3.9-9.6-9-10.3-.5-.1-1-.1-1.5-.1l-83.7.1c-2.8 0-5.4 1.1-7.4 3.1s-3.1 4.6-3.1 7.4l.1 58.1c-.7.8-1.4 1.6-2 2.2-2.7 3.1-4.1 4.7-2.6 6.3.4.4.8.7 1.2.7.8.1 1.8-.4 3.4-1.7l.1 136.6c0 5.2 3.9 9.6 9 10.3.5.1 1 .1 1.5.1l83.7-.1c.8 0 1.6-.1 2.4-.3h43.8c16.5-.1 29.9-13.5 29.9-30zm-74.3 25.8l-.3.1c-.5.1-1.1.2-1.6.2l-83.7.1c-.3 0-.6 0-.9-.1-3.1-.4-5.4-3.1-5.4-6.2v-46.7c10.3 1.9 62.5 13.3 99.1 52.6h-7.2zM381.2 86c1.2-1.2 2.8-1.8 4.4-1.8l51-.1c-6 6.2-18.9 19.5-31.7 32.8-10.2 10.6-18.2 19.1-23.9 25.3-.6.6-1.1 1.2-1.6 1.7l-.1-53.5c0-1.6.7-3.2 1.9-4.4zm88.9-1.9c3.1.4 5.4 3.1 5.4 6.2v47.6l.7 1.2c-10.4-1.3-64.2-7.3-91.4 5 14.2-15.2 39.2-41.2 57.7-60.3l.1.2h26.5c.4.1.7.1 1 .1zm67.6 141.4c-4.3 0-14.9.6-27.7 5.6-14.6 5.7-34.7 18.4-48.6 46.5-35.2-26.5-74.8-34.6-82-35.9v-24.9c2.2-.2 6.2-.6 11.5-1.3 8.2 3.3 16.9 5.4 25.6 6.6 18 2.5 35.8 1.3 49.5-.6 20.4-2.9 35.9-7.9 38.3-8.7h11.3c1.2 0 2.4.1 3.6.3 7.9 1.1 14.6 5.9 18.5 12.4zm-54.4 75.1zm-21-19.9zm-85-65.8zm98.3-71.7v44c-18.1 11.1-45.9 17.6-66.2 21.2-13.9 2.4-25.3 3.7-30 4.1l-.1-60.2c20.7-17.2 84.8-10.4 96.3-9.1zm-84.4 70.2zm5.6-.2l11.1-.3c.7-.1 1.4-.2 2.2-.4 19.9-3.5 46.8-9.8 65.5-20.4v19.3l20.5-.5c-17.1 4.9-62.2 15.1-99.3 2.3zm87.5 85.3c-6.1-6.9-12.6-13-19.4-18.3 25.5-52.9 74.2-50.5 74.7-50.5v-.5c1.2 2.9 1.8 6.1 1.8 9.4v34.1c0 14.2-11.5 25.8-25.7 25.8h-31.4zm19.7-87.7z"/><path fill="#FFF" d="M442.6 83.9C424 103 399 129 384.9 144.2c27.2-12.3 81-6.3 91.4-5l-.7-1.2V90.4c0-3.1-2.3-5.8-5.4-6.2-.3 0-.6-.1-.9-.1h-26.5l-.2-.2zm-65.3 131l126.7-4.1-112.8 2.6 92.1 87.2-21-19.9M20 84.8h176.3v216.1H20z"/><path fill="#009245" d="M63.9 278.6c.8.6 1.7 1.2 2.8 1.9 1.1.6 2.5.9 4 .9.6 0 1.1-.1 1.7-.2.6-.1 1-.3 1.5-.6.4-.3.8-.7 1-1.2.3-.5.4-1.1.4-1.8s-.1-1.3-.4-1.8c-.2-.5-.6-.9-1-1.3s-1-.7-1.5-.9c-.6-.3-1.3-.5-2-.7-1-.3-2.1-.6-3-1.1-1-.4-1.8-1-2.6-1.6s-1.3-1.4-1.8-2.4c-.4-.9-.7-2.1-.7-3.4 0-2.1.6-3.8 1.8-5.1 1.2-1.3 2.7-2.2 4.5-2.8v-4.4h2.7v3.9h1.8v-3.9h2.7v4.3c.9.2 1.7.5 2.3.8.6.3 1.1.5 1.4.7.8.5 1.1 1.1 1.1 1.9 0 .3-.1.8-.4 1.4-.3.6-.7 1.2-1.2 1.8-.7-.6-1.6-1.1-2.7-1.6s-2.3-.8-3.5-.8c-.5 0-1 0-1.5.1s-1 .2-1.4.5c-.4.2-.8.6-1.1 1-.3.4-.4 1-.4 1.6 0 .6.1 1.1.3 1.5.2.4.5.8.9 1.1.4.3 1 .6 1.6.9.7.3 1.4.5 2.3.8 1 .3 2 .8 2.9 1.2.9.5 1.7 1 2.4 1.7s1.3 1.5 1.7 2.4c.4.9.6 2 .6 3.2 0 2.1-.5 3.9-1.4 5.3-1 1.4-2.3 2.5-3.9 3.2v4.7h-2.7v-4c-.3.1-.6.1-.9.1-.3 0-.6.1-.9.1v3.8h-2.7V286c-1.4-.1-2.5-.4-3.4-.7-.9-.3-1.5-.6-2-.9-.3-.2-.6-.5-.8-.8-.2-.3-.3-.7-.3-1.1 0-.5.2-1.1.6-1.8.4-.8.8-1.5 1.2-2.1zm80.2 0c.8.6 1.7 1.2 2.8 1.9 1.1.6 2.5.9 4 .9.6 0 1.1-.1 1.7-.2.6-.1 1-.3 1.5-.6.4-.3.8-.7 1-1.2.3-.5.4-1.1.4-1.8s-.1-1.3-.4-1.8c-.2-.5-.6-.9-1-1.3s-1-.7-1.5-.9c-.6-.3-1.3-.5-2-.7-1-.3-2.1-.6-3-1.1-1-.4-1.8-1-2.6-1.6-.7-.7-1.3-1.4-1.8-2.4-.4-.9-.7-2.1-.7-3.4 0-2.1.6-3.8 1.8-5.1 1.2-1.3 2.7-2.2 4.5-2.8v-4.4h2.7v3.9h1.8v-3.9h2.7v4.3c.9.2 1.7.5 2.3.8.6.3 1.1.5 1.4.7.8.5 1.1 1.1 1.1 1.9 0 .3-.1.8-.4 1.4-.3.6-.7 1.2-1.2 1.8-.7-.6-1.6-1.1-2.7-1.6s-2.3-.8-3.5-.8c-.5 0-1 0-1.5.1s-1 .2-1.4.5c-.4.2-.8.6-1.1 1-.3.4-.4 1-.4 1.6 0 .6.1 1.1.3 1.5.2.4.5.8.9 1.1.4.3 1 .6 1.6.9.7.3 1.4.5 2.3.8 1 .3 2 .8 2.9 1.2.9.5 1.7 1 2.4 1.7s1.3 1.5 1.7 2.4c.4.9.6 2 .6 3.2 0 2.1-.5 3.9-1.4 5.3-1 1.4-2.3 2.5-3.9 3.2v4.7h-2.7v-4c-.3.1-.6.1-.9.1s-.6.1-.9.1v3.8h-2.7V286c-1.4-.1-2.5-.4-3.4-.7-.9-.3-1.5-.6-2-.9-.3-.2-.6-.5-.8-.8-.2-.3-.3-.7-.3-1.1 0-.5.2-1.1.6-1.8.3-.8.7-1.5 1.2-2.1zm-40.1 0c.8.6 1.7 1.2 2.8 1.9 1.1.6 2.5.9 4 .9.6 0 1.1-.1 1.7-.2.6-.1 1-.3 1.5-.6.4-.3.8-.7 1-1.2.3-.5.4-1.1.4-1.8s-.1-1.3-.4-1.8c-.2-.5-.6-.9-1-1.3s-1-.7-1.5-.9c-.6-.3-1.3-.5-2-.7-1-.3-2.1-.6-3-1.1-1-.4-1.8-1-2.6-1.6s-1.3-1.4-1.8-2.4c-.4-.9-.7-2.1-.7-3.4 0-2.1.6-3.8 1.8-5.1 1.2-1.3 2.7-2.2 4.5-2.8v-4.4h2.7v3.9h1.8v-3.9h2.7v4.3c.9.2 1.7.5 2.3.8.6.3 1.1.5 1.4.7.8.5 1.1 1.1 1.1 1.9 0 .3-.1.8-.4 1.4-.3.6-.7 1.2-1.2 1.8-.7-.6-1.6-1.1-2.7-1.6s-2.3-.8-3.5-.8c-.5 0-1 0-1.5.1s-1 .2-1.4.5c-.4.2-.8.6-1.1 1-.3.4-.4 1-.4 1.6 0 .6.1 1.1.3 1.5.2.4.5.8.9 1.1.4.3 1 .6 1.6.9.7.3 1.4.5 2.3.8 1 .3 2 .8 2.9 1.2.9.5 1.7 1 2.4 1.7s1.3 1.5 1.7 2.4c.4.9.6 2 .6 3.2 0 2.1-.5 3.9-1.4 5.3-1 1.4-2.3 2.5-3.9 3.2v4.7h-2.7v-4c-.3.1-.6.1-.9.1s-.6.1-.9.1v3.8h-2.7V286c-1.4-.1-2.5-.4-3.4-.7-.9-.3-1.5-.6-2-.9-.3-.2-.6-.5-.8-.8-.2-.3-.3-.7-.3-1.1 0-.5.2-1.1.6-1.8.4-.8.8-1.5 1.2-2.1z"/><path fill="#45CDB6" d="M36.4 154.7h125.2v5.3H36.4zm0 20.5h137.1v5.3H36.4zm0-10.3h143.5v5.3H36.4zm0 20.6h121.9v5.3H36.4zm0 10.2h133v5.3h-133zm0 10.3h143.5v5.3H36.4zm0 10.2h125.2v5.3H36.4zm0 10.3h143.5v5.3H36.4zm0 10.3h137.1v5.3H36.4z"/><path fill="#E2066F" d="M134.7 133.8c0 4.7-3.8 8.5-8.5 8.5H97.3c-4.7 0-8.5-3.8-8.5-8.5V105c0-4.7 3.8-8.5 8.5-8.5h28.8c4.7 0 8.5 3.8 8.5 8.5v28.8z"/><path fill="#FFF" d="M127.1 117.4c0-1.4-1.1-2.5-2.5-2.5h-7.9c-.1 0-.1-.1-.1-.1V107c0-1.4-1.1-2.5-2.5-2.5H110c-1.4 0-2.5 1.1-2.5 2.5v7.9c0 .1-.1.1-.1.1h-7.9c-1.4 0-2.5 1.1-2.5 2.5v4.1c0 1.4 1.1 2.5 2.5 2.5h7.9c.1 0 .1.1.1.1v7.9c0 1.4 1.1 2.5 2.5 2.5h4.1c1.4 0 2.5-1.1 2.5-2.5v-7.9c0-.1.1-.1.1-.1h7.9c1.4 0 2.5-1.1 2.5-2.5v-4.2zM0 309.3c.9 1.4 2.3 2.6 4.1 3.2l38.6 4.8c.3 5 4.5 8.9 9.6 8.9H164c5.1 0 9.2-3.9 9.6-8.9l38.7-4.8c1.8-.6 3.2-1.7 4.1-3.2H0z"/></svg>