<svg xmlns="http://www.w3.org/2000/svg" width="91.6" height="113.4" viewBox="0 0 91.6 113.4">
  <path fill="#FFF" stroke="#00A78E" stroke-width="1.323" stroke-miterlimit="10" d="M83 62.6s1.2-11.1 4.7-8c2.8 2.6 4.2 14.4 2.5 22.7-.8 3.7-5.2 7.9-7 6.1-1.9-1.8-.2-20.8-.2-20.8m-74 .9s-1.6-11.1-5.3-7.9C-.1 59 .3 73.2 1.6 78.4c.9 3.7 5.8 7.7 7.8 5.9 1.9-1.9-.4-20.8-.4-20.8"/>
  <path fill="#FFF" d="M7.3 45c0 3.9-2.5 35.1 8.4 48.8 6.2 7.8 14.9 15.3 19.9 16.5 8.2 1.9 13.5 3.4 20.8 1.8 7.2-1.6 17.9-9.1 24.4-23.7 3.1-6.9 11.6-61.5-4.1-76.9-10.3-10-32.9-8.7-41.6-8.3C26.3 3.5 6.9 6.7 7.3 45"/>
  <path fill="#FFF" stroke="#00A78E" stroke-width="1.111" stroke-miterlimit="10" d="M9.5 79.9c1.3 5.3 3.3 10.3 6.2 13.9 6.2 7.8 14.9 15.3 19.9 16.5 8.2 1.9 13.5 3.4 20.8 1.8 7.2-1.6 17.9-9.1 24.4-23.7.7-1.6 1.8-5.9 2.7-11.7"/>
  <path fill="#00A78E" stroke="#FFF" stroke-miterlimit="10" d="M8.6 63.7c-.8-.8-1.2-1.8-1.3-2.9-.3-6.2-1.1-28-.3-34.2 1-7.3-2.1-3.1 9.9-15.3 7.8-8 12.9-5.8 15.8-9.6 2.9-3.8 32.4 2 31.2 5 5.6-3.7 8.5-1.2 8.5-1.2S95.6-.1 87 57.5l-.8 5.1c-4.4.5-.5-1.4-1-22.4-.8-29-30-17.7-40-18.3-12.1-.7-31.6-3.9-34.3 11.8-2.2 12.8-1.7 23.7-1.5 27.2.1.8-.1 1.6-.5 2.3l-.3.5z"/>
  <path fill="#00A78E" d="M31.1 89.5s12.5 5.1 24.9 2.8c12.4-2.3 8.1-.1 6.2.1-1.9.3-18.5 9.6-31.1-2.9"/>
  <path opacity=".5" fill="#00A78E" d="M38.4 96.9s1 .6 2.6 1.2c.8.3 1.8.6 2.8.8 1 .2 2.2.4 3.3.5.8.1 1.7.1 2.5.1 1.4 0 2.7-.1 3.7-.2 1.7-.2 2.8-.5 2.8-.5s-1.1-.1-2.8-.3c-.8-.1-1.8-.1-2.8-.2-1-.1-2.1-.1-3.2-.2-2.2-.2-4.4-.4-6.1-.6-1.7-.4-2.8-.6-2.8-.6"/>
  <path fill="#00A78E" d="M43.3 75l3 .5c.9.1 2 .2 3 .1.5-.1 1-.2 1.2-.5.1-.1.1-.1.1-.2v-.1s0-.1 0 0v-.1l.1-.2c.1-.3.1-.5.1-.8.1-1.2 0-2.4 0-3.5-.1-1.1-.1-2.2-.2-3.1-.1-1.8-.2-3.1-.2-3.1s.5 1.2.9 3c.2.9.4 2 .6 3.1.2 1.2.3 2.4.2 3.7-.1.3-.1.8-.2 1l.1.3v.2l-.1.2c-.1.2-.2.4-.4.5-.6.6-1.4.7-2 .8-.6 0-1.2 0-1.8-.1-.5-.1-1-.2-1.5-.4-1.8-.6-2.9-1.3-2.9-1.3zM32.1 59.6c0 2.1-1.7 3.8-3.9 3.8-2.1 0-3.9-1.7-3.9-3.8 0-2.1 1.7-3.8 3.9-3.8 2.1 0 3.9 1.7 3.9 3.8"/>
  <path fill="#FFF" d="M26.7 59.6c0 .7-.4 1.3-.9 1.3s-.9-.6-.9-1.3c0-.7.4-1.3.9-1.3.5-.1.9.5.9 1.3"/>
  <path fill="#00A78E" d="M17.3 61.9l.2-.2c1-.9 5.6-4.6 10.6-4.6 2.9 0 6 1.2 8.8 4.9l.9-1.1c-3-4.1-6.6-5.5-9.8-5.4-6.3 0-11.6 5-11.6 5.1l.9 1.3zm47.1-2.8c0 2.1 1.7 3.8 3.9 3.8s3.9-1.7 3.9-3.8c0-2.1-1.7-3.8-3.9-3.8-2.1-.1-3.9 1.7-3.9 3.8"/>
  <path fill="#FFF" d="M67.3 59c0 .7-.4 1.3-.9 1.3s-.9-.6-.9-1.3c0-.7.4-1.3.9-1.3s.9.6.9 1.3"/>
  <path fill="#00A78E" d="M80 60.1S74.7 55 68.4 55c-3.2 0-6.7 1.4-9.8 5.4l.9 1.1c2.8-3.7 5.9-4.9 8.8-4.9 2.9 0 5.6 1.2 7.6 2.4 1 .6 1.8 1.2 2.4 1.6.3.2.5.4.6.5l.2.2.9-1.2zM35.8 35.4s4.9 4.4.8 5.2c-4.2.8-10.9-.7-14 0-3 .7-8.9 3-8.9 3l-.4-2.5s8.1-7.6 22.5-5.7zM58.1 37s-4.8 4.2-.6 5.2c4.2.9 10.9-.3 14 .5 3.1.8 9 3.3 9 3.3l.3-2.5s-8.3-8-22.7-6.5z"/>
</svg>