<svg xmlns="http://www.w3.org/2000/svg" width="30.6" height="138.8" viewBox="0 0 30.6 138.8">
  <path fill="#FFF" d="M20.9 129.6c.9 1.8 1.2 3.6-1 3.6l-.7-.8-3.9-5.1-1 1.5c-.6.9-.7 1.9-.3 2.8.3.7.7 1.6.9 2.1.2.4.5.8 1 1l2.7 1.7c.6.4.4 1 .2 1.5l-.4.4c-.5.5-1.5.6-2.2.2l-3-2c-.3-.1-.5-.2-.7-.4l-4.7-6.7c-.3-.4-.8-2.3-.7-2.7l1.7-7.5c0-.2.1-1.8.1-2l-8-31.3-.2-5.6s2.2-38.8 3.9-38.5L21.7 45c1.3.3-4.5 25.8-4.5 25.8-1.6 7.1-2.2 9.5-2.6 13.7l2.9 34c0 .2 0 .3.1.5l3.3 10.6z"/>
  <path fill="#FFF" stroke="#00A78E" stroke-width="1.589" stroke-miterlimit="10" d="M20 .9S8.7 14.2 1 42.9l21.7 7.5 7.2-23.2-3.8-24.1L20 .9z"/>
</svg>