<svg xmlns="http://www.w3.org/2000/svg" width="823.1" height="538.6" viewBox="0 0 823.1 538.6">
  <path fill="none" stroke="#FFF" stroke-width="9.997" d="M10.5 239.9c-1-7.2-9.6-14.9-3.1-21.8l9.6-16-10.5-24.2 26.4-76.5C32.5 93.8 30.4 87 29 80c10.4 2.3 20.4 9.7 31.4 12.4l1.2-2.7-6.2-18 266.6-.3 28.8.1 1.9-.1h115.5c7.3 1.1 17-.6 24.7 1.3L469.6 105c.3 1.7 1.4 5.3 3.8 3 15.1-7.1 30.1-14.7 45.6-20.9 4.2 3 6.2 11.3 12.5 8.8l36.5-9.7c1.7 2.2 2.8 5.6 3.2 9l-28.5 12.1-16.7 28.9c.7 2.3 3.2 3.4 4.9 5.3 4.3-2.3 9.2-3.4 13.4-5.7l7 60.5c1.8 1.4 3.8 2.3 6 2.3l19.4-21.1c-3.4-13.6-10.5-26.7-14.7-40.4l15.3-23.4 24.3 8.2c-.4 10.7-2.6 21.7-4.3 32.3 1.3 2.2 2.9 0 3.8-1 4.3-5.2 8.3-11.3 13.3-15.4 5.7 7.1 10.4 14.9 15.4 22.4L619.6 182c4 2.6 9.6 1.6 14.8 1.5 13.8-12.6 28.3-23.7 42-36.3l-3.2-6.3c9.6-5.3 19.9-9.3 28.9-16.1-.2-4.2-.1-12-.1-12l.9-13.8 63-37.3 2.2-2.4c-1-17.1 1.5-34.1 1.3-51.4 8.1-1.2 17.5-1.9 25.4-2.4l3.1 20.4c6.1 3.9 11.8 9.1 18.1 12.7-8.3 12.5-20.6 24.4-30 37 1 14.4-.6 29.6 1.1 42.5 2.3.3 4.8.7 7.3.9l-33.7 36.3-1.7 3.7c-2.3 23-5.6 45.6-8.6 68.4-4.5-2.2-8.5-5.8-13.2-7.7-2.2 1.7.6 3 .8 4.5l24.6 40.4-.3 1.7-61 79c-4.2 2.9-4.7 7.7-3.9 11.7l-.5 25.2 54.7 76.7c.9 8.7-1.1 17.8-1.7 26.6l-15.3 2.2-30.9-26.1-7.3-32-30.4-21.2c-4.9 1.6-6.1 7.6-9.1 11.4l-37.8-2.8-55.3 17.2.2 2.8c4.9 3 9.9 6.1 14.8 9.1.1 2.3-1.9 3.5-2.9 5.3-10.9-.3-24.3-.5-32.7-1-13 0-27.3-.2-40.7-.8l-57.2 34.7c-6.1 7.6-11.9 15.9-17 24.4.4 8 1.3 16.3 1 24.2l-20.6.6c-16.8-21-32.6-42.6-49-64l-23.6.4c-2.4 4.3 0 10.5-1.1 15.1l-21-6.1-16.1-25.2-3.8-2.5c-18.7-6.6-36.2-16.1-54.9-22.7-1.3 3.5-.3 7.7-1.7 11.2l-39.9.3-58.9-22.3c-2.3-3.5-3.3-8-6.5-10.7h-39l-1.4-1.6c-1.5-5.6 3.8-18-6.2-19.3l-46.4-26.8c10.1-14.3-5.8-27.7-8.8-41.7l-24-59.2 4.1-18.5z"/>
  <path fill="#FFF" d="M425.2 296.7l.9 15.3c-1.8.5-7.3 1.6-14.7 1.6-15.2 0-23.3-6.4-23.3-22.1 0-12.3.2-25.7.4-33.1h-7.9c.1-3.3-.1-8.1 0-11.6 11.8-2 15.6-8.6 17.3-21.6h13c-.5 5.3-.9 13.1-.9 18.4h13.8v14.8h-14.1v26.7c0 10.4 2.1 13.2 9.2 13.2 2.3 0 4.9-.7 6.3-1.6zm72.7-16.6c0-5.8.1-13.5.1-13.5 0-17.4-7.6-25.2-29.1-25.2-12.1 0-20.7 2.1-34.2 2.1.8 12.2.8 27.3.7 36.6.1 9.5-.3 26.5-.7 32h23.1c-.5-5.5-1-21.3-.9-32 0-6.1.1-13.4.3-23.3 2.3-.8 5.2-1.4 8.4-1.4 8.1 0 10.7 3.8 10.7 14.2 0 0 .1 6.5.1 10.4 0 9.5-.3 26.5-.7 32h23.1c-.5-5.4-1-21.2-.9-31.9zm-154.7 3.1c-2.5 0-6.7-.1-8.8-.2v.5c0 9.8 6.4 16 18.4 16 7.2 0 13.8-2.2 18.5-5l.8 15.3c-4.7 2.2-13.8 3.7-22.8 3.7-24.2 0-35.9-8.3-37.9-30.8-2.8-.1-6.9-.3-12.6-.3-.2 3.9-.3 7.4-.3 10.4 0 5.5 0 13.6 1 19.2-13.3 0-23.6 1.5-34 1.5-19.8 0-26.8-8.2-26.8-22.2 0-13.6 11.2-20.9 35.4-20.9h3.3V269c0-9.6-2.9-13.6-12.7-13.6-6.9 0-14.1 2.5-19 5.1l-.8-15.3c5.6-2.3 14.7-3.8 25.1-3.8 21.2 0 29.2 7 29.2 26.2v3.1c5.2 0 9 .1 12.4.3 2.1-19 11.6-29.6 35.4-29.6 19.6 0 28.6 8.2 28.6 20.6-.2 14.5-11.1 21.2-32.4 21.2zm-66.1 16.2c-.3-4.7-.2-11.4-.2-17.1-.8-.1-1.9-.1-2.9-.1-10.1 0-14.1 3.4-14.1 9.3 0 6.2 3.1 8.6 10.5 8.6 2.4.1 5-.2 6.7-.7zm63.5-27.9c9.3 0 13.8-3.1 13.8-9.8 0-4.8-3.2-7.4-8.2-7.4-8.8 0-11.9 7.1-11.9 16.7v.4c1.7 0 4.1.1 6.3.1zm227 40.6c-13.3 0-23.6 1.5-34 1.5-19.8 0-26.8-8.2-26.8-22.2 0-13.6 11.2-20.9 35.4-20.9h3.3v-1.4c0-9.6-2.9-13.6-12.7-13.6-6.9 0-14.1 2.5-19 5.1l-.8-15.3c5.6-2.3 14.7-3.8 25.1-3.8 21.2 0 29.2 7 29.2 26.2 0 10.3-.7 19.1-.7 25.3 0 5.4 0 13.5 1 19.1zm-22.3-12.7c-.3-4.7-.2-11.4-.2-17.1-.8-.1-1.9-.1-2.9-.1-10.1 0-14.1 3.4-14.1 9.3 0 6.2 3.1 8.6 10.5 8.6 2.3.1 4.9-.2 6.7-.7zm27.1-48.6c-.5-.6-.9-1.2-1.1-1.9-.3-.7-.4-1.5-.4-2.3 0-.8.1-1.6.4-2.3.3-.7.6-1.4 1.1-1.9.5-.5 1.1-1 1.8-1.3.7-.3 1.5-.5 2.4-.5.9 0 1.7.2 2.4.5s1.3.8 1.8 1.3.9 1.2 1.1 1.9c.3.7.4 1.5.4 2.3 0 .8-.1 1.6-.4 2.3-.3.7-.6 1.4-1.1 1.9-.5.5-1.1 1-1.8 1.3-.7.3-1.5.5-2.4.5-.9 0-1.7-.2-2.4-.5s-1.3-.7-1.8-1.3zm2.2.4c.6.3 1.2.4 2 .4.7 0 1.4-.1 2-.4.6-.3 1.1-.7 1.5-1.1.4-.5.7-1 .9-1.6.2-.6.3-1.3.3-1.9 0-.7-.1-1.3-.3-1.9-.2-.6-.5-1.1-.9-1.6s-.9-.8-1.5-1.1c-.6-.3-1.2-.4-2-.4-.7 0-1.4.1-2 .4s-1.1.6-1.5 1.1c-.4.5-.7 1-.9 1.6-.2.6-.3 1.2-.3 1.9 0 1 .2 2 .7 2.8.5.8 1.2 1.4 2 1.8zm-.1-8.3c.3 0 .7-.1 1-.1h.9c1 0 1.7.2 2.2.6.4.4.7.9.7 1.5 0 .3 0 .6-.1.8-.1.2-.2.5-.4.6-.1.2-.3.3-.5.4-.2.1-.4.2-.6.2l1.8 2.9c-.1.1-.2.1-.3.1h-.3c-.2 0-.3 0-.5-.1s-.3-.2-.4-.4l-1.5-2.4h-.9v2.9h-1.1v-7zm2.2 3.3c1 0 1.5-.4 1.5-1.3 0-.4-.1-.7-.4-.9-.3-.2-.7-.3-1.3-.3h-.9v2.4h1.1z"/>
</svg>