<svg xmlns="http://www.w3.org/2000/svg" width="72.5" height="66" viewBox="0 0 72.5 66">
  <path fill="#FFF" d="M9.6 44.6c-.6-.9-14-21.7-7-34.6C6 3.8 13.5.7 25 .7h.7c.1 0 3.5-.1 8.1-.1 10.4 0 23.7.6 28.6 3.3 1.3.4 7.2 2.6 9 8.6 1.8 6-1 13.5-8.5 22.4l-.4.4-2.1-1.8.4-.4c6.8-8.1 9.5-14.8 8-19.8-1.6-5.1-7.1-6.8-7.3-6.8l-.2-.1c-3.4-1.9-13.1-3-27.6-3-4.5 0-7.8.1-7.9.1h-.7c-10.4 0-17.1 2.7-20 7.9-6.2 11.3 6.8 31.5 6.9 31.7l.3.5L9.9 45l-.3-.4z"/>
  <path fill="#00A78E" d="M33.7 1.1c9.2 0 23.5.5 28.4 3.2.9.3 6.9 2.3 8.7 8.3 1.8 5.8-1 13.2-8.4 21.9l-1.3-1.1c7-8.3 9.7-15.1 8.1-20.4-1.7-5.4-7.6-7.2-7.7-7.2l-.2-.1c-4.5-2.6-18.7-3-27.8-3-4.6 0-7.9.1-8 .1h-.7C14.2 2.8 7.3 5.6 4.3 11c-6.4 11.7 6.8 32 6.9 32.2L10 44.3c-.6-.9-13.8-21.4-7-34 3.3-6 10.7-9.1 21.9-9.1h.7c.4 0 3.7-.1 8.1-.1m0-1.1c-4.4 0-7.6.1-8.1.1h-.7C13.3.1 5.6 3.4 2.1 9.8c-7.2 13.1 6.5 34.2 7 35.1l.6.9.9-.6 1.4-.9.9-.6-.6-.9c-.1-.2-12.9-20.1-6.9-31.1C8.3 6.6 14.8 4 25 4h.7s3.3-.1 7.9-.1c14.3 0 24 1 27.2 2.9h.2l.2.1h.2s5.4 1.6 6.9 6.4c1.5 4.8-1.2 11.3-7.9 19.3l-.7.8.8.7 1.3 1.1.9.7.7-.9C71 25.9 73.9 18.2 72 12c-1.9-6.2-7.9-8.5-9.3-9-5.1-2.4-18.6-3-29-3z"/>
  <circle fill="#FFF" stroke="#00A78E" stroke-width="1.589" stroke-miterlimit="10" cx="10.7" cy="43.8" r="6.5"/>
  <circle fill="#00A78E" cx="10.7" cy="43.8" r="4.4"/>
  <path fill="#FFF" d="M61.6 61.1l.5-.3c3.3-2.1 5.3-4.8 5.8-8.1 1.2-7.2-4-15.4-6-18.1-3.2.4-12.5 2.4-16.6 8.2-1.9 2.8-2.5 6.1-1.6 9.9l.1.5-3.3.8-.1-.5c-1.1-4.8-.4-9.1 2.1-12.7 5.9-8.3 19.5-9.8 20-9.9l.9-.1.6.7c.4.5 9 11.4 7.2 21.6-.7 4.3-3.2 7.9-7.4 10.5l-.4.4-1.8-2.9z"/>
  <path fill="#00A78E" d="M63.2 31.5l.4.5c.4.5 8.8 11.2 7.1 21.2-.7 4.2-3.1 7.6-7.2 10.1l-1.2-2c3.4-2.2 5.5-5 6.1-8.5 1.3-7.8-4.7-16.6-6.3-18.8-2.7.4-12.9 2.3-17.4 8.6-2 2.9-2.6 6.4-1.7 10.4l-2.3.5c-1.1-4.7-.4-8.8 2-12.2 5.7-8.1 19.1-9.6 19.6-9.7l.9-.1m.5-1.2l-.6.1-.6.1c-.6 0-14.5 1.5-20.5 10-2.6 3.7-3.4 8.1-2.2 13.1l.3 1.1 1.1-.3 2.3-.5 1.1-.3-.3-1.1c-.9-3.7-.4-6.9 1.5-9.5 3.9-5.5 12.9-7.5 15.9-8 1.8 2.6 6.9 10.6 5.7 17.4-.5 3.2-2.4 5.8-5.6 7.8l-.9.6.6.9 1.2 2 .6.9.9-.6c4.3-2.7 6.9-6.3 7.7-10.8 1.8-10.4-7-21.6-7.4-22l-.4-.5-.4-.4z"/>
  <g fill="#00A78E">
    <circle cx="41.7" cy="52.2" r="3.2"/>
    <circle cx="61.4" cy="62.8" r="3.2"/>
  </g>
</svg>