<svg xmlns="http://www.w3.org/2000/svg" viewBox="0 0 600 600">
  <path fill="#FFF" d="M256.8 1441.7s-3.7-34.9-65.6-32c-62 2.9-66.1 26.3-68.5 32.4m90.2 1.2l-30.8-489.1-38.2-377.9c-7.4-82.1-6.6-96.4 0-121.4 2.9-11.1 11.1-38.6 11.1-38.6l299.5.4s7.8 30 9.8 35.7c7.4 20.9 19.7 63.2 6.6 127.2l-59.5 379.1-51.7 481.7h-47.2l20.9-555.9-8.5-315.5c0-16.4-2.5-20.1-13.9-20.1h-6.2c-11.5 0-15.2 6.2-15.2 22.6L272 888.2l-12.7 552.3-46.4 2.8zm98.4-1.6s3.7-34.9 65.6-32c62 2.9 66.1 26.3 68.5 32.4"/>
  <path fill="#FFF" d="M511.1 751.1c-5.3 0-7.8-2.5-9-4.9-1.2-1.6-1.6-5.3 1.2-10.3 4.1-6.6 7.4-8.6 11.1-11.1 2.5-1.6 6.2-3.7 12.3-9 13.9-13.5 16.4-18.5 13.9-32.4-.4-2.5-.4-4.1-.4-6.2-.4-2.5-.4-4.9-1.2-5.3-.4 0-8.6-1.6-8.6-1.6h-1.6c-4.9 0-5.3 9.8-6.2 20.1 0 7.8-.4 16.4-8.6 16.4-1.6 0-3.7-.4-6.2-2.5-1.2-1.2-2.5-1.6-2.9-2.9 2.5 23.8 0 24.6-4.1 25.8h-1.6c-3.7 0-11.5-1.6-30.8-5.3-38.2-7.8-110-23.4-160.8-23.4S181.7 713.4 137 722c-20.9 4.1-30 6.2-33.6 6.2h-1.6c-4.1-1.2-6.2-1.2-4.1-22.2-1.6 1.2-3.7 2.5-5.3 2.5-7.8 0-7.8-8.6-8.6-16.4 0-10.3-1.2-20.1-6.2-20.1h-2.8c-2.9.4-6.6 1.2-7.4 1.6 0 0 0 2.9-.4 5.3 0 1.6-.4 3.7-.4 6.2-1.6 13.9 0 19.7 13.9 32.4 6.2 5.3 9 7.8 12.3 9 4.1 2.5 6.6 4.1 11.1 11.1 2.9 4.9 2.5 7.8 1.2 10.3-1.2 1.6-3.7 4.9-9 4.9-9.8 0-27.5-7.8-38.6-16.4C38.9 721.6 20 678.5 17.6 667c-2.5-11.5 14.8-51.7 21.3-65.2l-14-251.5C24.5 309.7 17.1-44.8 43.8-76c27.5-32 110.4-34.9 114.1-34.9h.4l9 .4c6.2-.4 9.8-.4 9.8-.4h.4l126 8.6 126-8.6h.4s3.7 0 9.8.4l9.8-.4h.4c3.7 0 85.8 3.7 114.1 34.9 27.1 31.2 20.1 386.1 18.9 425.9L569 601.4c6.2 13.9 23.8 54.2 21.3 65.6-2.5 11.5-21.3 54.6-39.8 69.3-11.9 7-29.5 14.8-39.4 14.8zm-44.7-602.3c-3.7 19.7-8.6 30-12.3 38.2-2.9 6.6-5.3 11.5-6.2 19.7-3.7 43.5 20.9 220.7 38.6 349.6 6.6 49.2 11.5 83.3 14.8 107.9 0-1.6.4-3.7.4-5.3.4-2.9.4-6.2 1.2-9.8 2.5-22.2 11.1-38.2 25-45.5 4.1-20.1-20.1-174.8-36.9-269.2l-24.6-185.6zm-387.7 455c13.9 7.4 22.6 23.4 25 45.5 0 1.2 0 2.9.4 4.1 2.9-23.4 7.8-54.2 13.5-95.2 18.9-130.1 44.7-308.1 41-352-.4-7.8-2.9-12.7-6.2-19.7-3.7-7.8-8.6-18.5-12.3-38.2l-25 185.9c-16.3 95.7-40.9 249.5-36.4 269.6z"/>
  <path fill="#00A78E" d="M449.2-107.2s83.3 2.9 109.1 33.2C584.6-44 576 348.2 576 348.2L562 601s23.8 52.1 21.3 62.8c-2.5 11.1-20.9 52.1-37.3 66.1-11.1 9-27.5 15.2-34.9 15.2-3.7 0-5.3-1.6-2.9-5.3 7.4-11.1 8.6-6.2 22.6-19.7 15.2-13.9 18.5-21.3 16-38.2-2.5-16.4 0-15.2-14.8-18.5-1.2 0-2.5-.4-2.9-.4-17.6 0-8.6 36.9-13.9 36.9-.4 0-1.2 0-1.6-1.2-9.8-7.8-6.2-25-3.7-49.2 2.5-22.2 11.1-35.7 23.4-41 12.3-5.3-34.9-274.9-34.9-274.9L466 96.7c-3.7 86.6-21.3 82.1-23.8 109.1-6.2 74.3 65.6 512.5 58.3 514.1h-.4c-11.1 0-119-29.5-191.6-29.5-71.8 0-192.8 29.5-204.3 29.5h-1.6c-7.4-1.6 67.3-439.8 61.5-514.1-2.5-27.1-19.7-22.6-23.8-109.1l-32.4 236.7S60.7 602.6 73 608.3c12.3 5.3 20.9 18.9 23.4 41 2.5 23.8 6.2 40.6-3.7 49.2-.4.4-1.2 1.2-1.6 1.2-5.3 0 3.7-36.9-13.9-36.9-1.2 0-1.6 0-2.9.4-14.8 2.9-12.3 1.6-14.8 18.5-2.5 16.4 1.2 23.8 16 38.2 13.9 13.5 15.2 8.6 22.6 19.7 2.5 3.7.4 5.3-2.9 5.3-7.4 0-23.8-6.2-34.9-15.2-16.4-13.5-34.9-55.4-37.3-66.1-2.6-10.9 21.2-62.6 21.2-62.6L30.3 348.2S21.7-43.2 47.9-74C74.2-104 157-107.2 157-107.2l9.8.4c6.2-.4 10.3-.4 10.3-.4l126 8.6 126-8.6s3.7 0 10.3.4l9.8-.4m-20.1-12.3l-126 8.6-125.1-8.6h-.8s-3.7 0-9.8.4l-8.6-.4h-.8c-9 .4-89.4 4.1-118.6 37.3C34-75.6 19.6-60 18 148c-1.2 100.5 1.2 198.6 1.2 199.8l13.9 249.9c-11.5 25-23.8 55.8-20.9 68.1 2.5 11.1 21.3 56.6 41.8 73 12.3 9.8 31.2 18.5 43.1 18.5 9 0 12.7-4.9 14.8-7.8 1.6-2.9 3.7-9-1.2-16.4l-.4-.4c5.3-.4 14.8-2.5 31.2-5.3 41.8-7.8 119-23.4 169.5-23.4s121.4 15.2 159.6 23.4c18.5 4.1 26.3 5.3 30.8 6.2 0 0 0 .4-.4.4-4.9 7.4-2.9 13.5-1.2 16.4 1.6 2.9 5.3 7.8 14.8 7.8 11.1 0 30.8-7.8 43.1-18.5 20.1-16.4 39.4-61.5 41.8-73s-9.8-43.1-20.9-67.3l13.9-249.9c0-1.2 2.5-99.3 1.2-199.8-2.5-208-16-223.2-22.2-230.2-28.7-33.2-109.1-36.9-118.6-37.3h-2l-8.6.4c-6.2-.4-9.8-.4-9.8-.4l-3.4-1.7zm73.4 745.1c-2.9-20.9-6.2-44.7-9.8-69.7C475 427 450.4 250.2 454.1 207.5c.4-7.4 2.5-11.1 5.3-17.6 1.2-2.9 2.9-6.6 4.9-10.3l21.3 156.3c19.7 113.7 38.2 239.2 36.9 264.2-8.9 5.8-15.5 14.4-20 25.5zM84 600.2c-1.2-25.8 17.2-151 36.9-264.2l21.3-156.3c1.6 4.1 2.9 7.4 4.9 10.3 2.9 6.6 4.9 10.3 5.3 17.6 3.7 43.1-22.2 220.7-41 350.8-2.9 22.6-6.2 44.3-9 63.2-4-9.6-10.2-16.5-18.4-21.4zm-10.6 76.3c.4 0 1.6-.4 2.9-.4h.4c1.2 3.7 1.2 10.3 1.2 13.9 0 7.4.4 22.2 13.5 22.6v4.1c-1.6-1.2-3.7-2.9-6.2-5.3-13.5-12.3-13.9-16-12.3-27.5.4-2.5.4-4.1.4-6.2-.8-.8-.8-.8.1-1.2zm441.4 35.7c13.9 0 13.9-15.2 14.8-22.6 0-2.9 0-10.3 1.2-13.9h.4c1.2 0 1.6.4 2.9.4v1.2c0 1.6.4 3.7.4 6.2 1.6 11.5.4 14.8-12.3 27.5-4.1 4.1-7.4 6.2-9.8 7.8v-6.6h2.4z"/>
  <path fill="none" stroke="#00A78E" stroke-width="7" stroke-miterlimit="10" d="M316.2-69v759.4"/>
  <path fill="#D20962" d="M289.2 48.7c11.5 0 11.5-18.5 0-18.5-12.3.1-12.3 18.5 0 18.5zm0 150.2c11.5 0 11.5-18.5 0-18.5-12.3.4-12.3 18.5 0 18.5zm0 151c11.5 0 11.5-18.5 0-18.5-12.3 0-12.3 18.5 0 18.5zm0 151c11.5 0 11.5-18.5 0-18.5-12.3 0-12.3 18.5 0 18.5zm0 150.9c11.5 0 11.5-18.5 0-18.5-12.3.1-12.3 18.5 0 18.5z"/>
  <path fill="#FFF" stroke="#00A78E" stroke-width="7" stroke-miterlimit="10" d="M36.4 574.7h43.5v36.9H36.4zm490.3 0h43.5v36.9h-43.5z"/>
  <path fill="none" stroke="#D20962" stroke-width="7" stroke-miterlimit="10" d="M139.4 598.9l123.5-52.5m207.2 52.5l-123.9-52.5"/>
  <path fill="#00A78E" stroke="#FFF" stroke-width="7" stroke-miterlimit="10" d="M70.9-659S75-352.1 47.5-162.1c0 0 295 84.5 536.3 0 0 0-28.7-103-16.4-495.6L312.6-774.3 70.9-659z"/>
  <path fill="#FFF" stroke="#00A78E" stroke-width="7" stroke-miterlimit="10" d="M276.9-218s-13.5 25.8-29.5 52.1c-16 25.8-54.2 57-54.2 57S245.3-67.8 313-69c54.6-1.2 79.6-5.3 123.9-39.8-51.7-11.1-59.5-39.4-68.1-58.3-12.3-27.1-15.2-49.6-10.3-50.5-54.6.9-81.6-.4-81.6-.4zm-83.3 109.2L173.9-69l107.9 50.8L313-69z"/>
  <path fill="#FFF" stroke="#00A78E" stroke-width="7" stroke-miterlimit="10" d="M435.6-108.8L454.9-69 347.4-18.2 316.2-69z"/>
  <path fill="#FFF" d="M60.2-581.9c22.2-237.6 107.5-257.7 169.5-260.9 62-2.9 220.7-12.7 293.4 64.4 54.6 58.3 53.3 69.7 30 246.6-12.3 93.1 2.5 127.6-91.5 225.3-92.7 96.4-88.2 84.1-189.6 84.1-24.6 0-69.3-29.5-131.3-87C45-398.5 62.7-483 60.2-513"/>
  <path d="M538.2-520.8s7.4-68.1 28.7-49.2c17.2 16 25.8 88.2 15.2 139.1-4.9 22.6-32 48.4-43.1 37.3-11.9-10.2-.8-127.2-.8-127.2m-454.6 5s-9.8-68.1-32.4-48.4c-23.4 20.9-20.9 108.7-12.7 140.3 5.3 22.6 35.7 47.2 48 36.1 11.1-11.1-2.9-128-2.9-128" fill="#FFF"/>
  <path fill="#00A78E" d="M240.8-332s91.5 44.7 144.8-27.5c-39 123.5-155.9 18.8-144.8 27.5z"/>
  <path fill="#FFF" d="M311.3-474.4s16 46.8 29.5 62c50.5 55.4-88.2 46.8-53.3 26.3"/>
  <path fill="#00A78E" d="M311.3-474.4s1.2 2.5 4.1 6.6c1.2 2.5 2.5 4.9 4.1 7.8s3.7 6.6 5.3 10.3c1.6 3.7 4.1 7.8 6.6 12.3 2.5 4.1 4.9 8.6 7.8 12.7s5.3 7.4 9.8 12.3c3.7 4.9 7.4 11.1 8.6 18.9.4 4.1-.4 8.6-2.9 12.3-2.5 3.7-4.9 6.2-7.8 7.8-6.2 3.7-12.3 4.9-17.6 6.2-11.5 1.6-22.2.4-31.2-1.2-4.1-1.2-8.6-2.5-11.5-4.1-1.6-.4-2.9-1.6-4.1-3.7-1.2-1.2-1.6-3.7-1.2-5.3 1.2-2.9 3.7-3.7 4.9-4.1 1.2-.4 1.6-.4 1.6-.4s-.4.4-1.6 1.2c-1.2.4-2.5 2.5-2.9 4.1s1.6 2.9 4.9 3.7c2.9 1.2 6.6 1.2 11.1 1.2 7.8 0 18.5 0 28.3-2.9 4.9-1.2 9.8-2.9 13.5-5.3 3.7-2.9 5.3-5.3 4.9-8.6 0-3.7-2.9-7.8-6.2-12.3-2.9-3.7-7.4-9-10.3-13.9-5.3-9.8-9-19.7-11.5-28.3-5.4-15.8-6.7-27.3-6.7-27.3zm-54.1-46.4c0 14.8-13.5 27.1-29.5 27.1-16.4 0-29.5-12.3-29.5-27.1s13.5-27.1 29.5-27.1 29.5 12.8 29.5 27.1"/>
  <path fill="#FFF" d="M251-518.3c0 4.1-2.5 7.8-5.3 7.8s-5.3-3.7-5.3-7.8 2.5-7.8 5.3-7.8 5.3 3.7 5.3 7.8"/>
  <path fill="#00A78E" d="M279.7-519.5s-2.5-1.6-6.2-4.9c-3.7-3.3-9.8-6.6-16.4-9.8-3.7-1.6-7.4-2.9-11.1-4.9-4.1-1.2-7.8-2.5-12.7-2.9-4.1-.4-8.6-.4-13.5 0-4.1 0-9 1.6-13.5 2.9-4.1 1.6-8.6 3.7-12.7 6.6-4.1 2.5-7.8 5.3-11.5 9-3.7 2.9-7.8 7.4-12.3 9.8-2.5 1.2-4.9 2.5-6.6 2.9-2.5.4-4.1 1.2-6.6 1.2-8.6.4-15.2-1.2-18.9-3.7-4.1-2.5-6.2-4.9-6.2-4.9s2.5 1.2 6.6 1.6c4.1.4 10.3 0 17.2-2.5 1.6-.4 3.7-1.2 4.9-2.5 1.6-1.2 3.7-1.6 4.9-2.9 2.9-2.5 5.3-6.2 9.8-10.3 4.1-4.1 7.8-8.6 12.7-11.5 4.1-3.7 9.8-6.2 15.2-8.6 5.3-1.6 11.1-3.7 16.4-3.7 5.3-.4 11.1.4 16 1.6 2.5.4 4.9 1.2 7.4 2.5s4.1 2.5 6.6 2.9c4.1 2.5 7.8 4.9 11.5 7.8 3.7 2.5 6.2 5.3 8.6 8.6 2.5 2.5 4.1 5.3 6.2 7.4 2.6 5.4 4.2 8.3 4.2 8.3m-7.8-101.8s16.4 17.2-27.5 22.6c-44.3 5.3-81.6-30.8-101.8-4.9-20.1 25.8-55.4 35.7-26.3 10.3 28.7-25 22.6-41 68.1-38.2 44.5 2.8 84.7 2.4 87.5 10.2zm99.3 103c0 14.8 13.5 27.1 29.5 27.1 16.4 0 29.5-12.3 29.5-27.1s-13.5-27.1-29.5-27.1c-15.9 0-29.5 12.7-29.5 27.1"/>
  <path fill="#FFF" d="M424.6-516.3c0 4.1-2.5 7.8-5.3 7.8s-5.3-3.7-5.3-7.8 2.5-7.8 5.3-7.8 5.3 3.3 5.3 7.8"/>
  <path fill="#00A78E" d="M346.6-517.5s2.5-1.6 6.2-4.9c3.7-3.3 9.8-6.6 16.4-9.8 3.7-1.6 7.4-2.9 11.1-4.9 4.1-1.2 8.6-2.5 12.7-2.9s9-.4 13.5 0c4.1 0 9 1.6 13.5 2.9 4.1 1.6 8.6 3.7 12.7 6.6 4.1 2.5 7.8 5.3 11.5 9 3.7 2.9 7.8 7.4 12.7 9.8 2.5 1.2 4.9 2.5 6.6 2.9 2.5.4 4.1 1.2 6.6 1.2 8.6.4 15.2-1.2 19.7-3.7 4.1-2.5 6.2-4.9 6.2-4.9s-2.5 1.2-6.6 1.6c-4.1.4-10.3 0-17.2-2.5-1.6-.4-3.7-1.2-4.9-2.5-1.6-1.2-3.7-1.6-4.9-2.9-2.9-2.5-5.3-6.2-10.3-10.3-4.1-4.1-7.8-8.6-12.7-11.5-4.9-3.7-9.8-6.2-15.2-8.6-5.3-1.6-11.1-3.7-16.4-3.7-5.3-.4-11.1.4-16 1.6-2.5.4-4.9 1.2-7.4 2.5-2.5 1.2-4.1 2.5-6.6 2.9-4.1 2.5-7.8 4.9-11.5 7.8-3.7 2.5-6.2 5.3-8.6 8.6-2.5 2.5-4.1 5.3-6.2 7.4-3.7 5.9-4.9 8.3-4.9 8.3m-.4-92.7s-13.5 20.9 31.2 14.8c44.7-6.2 74.7-50.5 99.3-30 24.6 20.1 60.7 20.9 27.5 3.7-33.2-17.6-29.5-34.5-73.4-20.1-44 13.9-83 23-84.6 31.6z"/>
  <path fill="#00A78E" stroke="#FFF" stroke-width="7" stroke-miterlimit="10" d="M445.5-835.9s-203.1-41-285.2 11.1c-82 52.1-100.1 159.6-100.1 159.6s223.2 44.7 523.9 7.8c.1 0 3.4-129.6-138.6-178.5z"/>
  <path fill="#00A78E" d="M186.6-802.6s-54.2 68.1-72.2 144"/>
  <path fill="#FFF" d="M186.6-802.6s-6.2 7.8-13.9 20.9c-7.8 13.1-17.6 30.8-26.3 49.2-4.1 9-7.8 18.5-11.5 27.1-1.6 4.1-2.9 8.6-4.1 12.7-1.2 4.1-2.5 7.8-3.7 11.5s-1.6 6.6-2.9 9.8c-.4 2.9-1.2 5.3-1.6 7.4-1.2 4.1-1.2 6.6-1.2 6.6l-11.5-2.9s.4-2.5 1.6-6.6c.4-2.5 1.2-4.9 2.5-7.8 1.2-2.9 2.5-6.2 3.7-9.8 1.2-3.7 2.9-7.4 4.9-11.5 1.6-4.1 3.7-8.6 5.3-12.7 4.1-8.6 8.6-17.6 13.9-26.3 9.8-17.6 21.3-34.9 30-47.2 8.2-13.1 14.8-20.4 14.8-20.4z"/>
  <path fill="#00A78E" d="M267.8-795.3s-53.3 71.8-71 147.3"/>
  <path fill="#FFF" d="M267.8-795.3s-5.3 8.6-13.5 22.2c-7.8 13.5-17.6 31.2-25.8 50.5-4.1 9-7.8 18.9-11.5 27.5-1.6 4.1-2.9 8.6-4.1 12.7-1.2 4.1-2.5 7.8-3.7 11.5s-1.6 6.6-2.9 9.8c-.4 2.9-1.2 5.3-1.6 7.8-1.2 4.1-1.2 6.6-1.2 6.6l-11.5-2.9s.4-2.5 1.6-6.6c.4-2.5 1.2-4.9 2.5-7.8 1.2-2.9 2.5-6.2 3.7-9.8 1.2-3.7 2.9-7.4 4.9-11.5 1.6-4.1 3.7-8.6 5.3-12.7 4.1-8.6 8.6-18.5 13.5-27.1 9.8-18.5 20.9-35.7 30-48.4 8.2-14 14.3-21.8 14.3-21.8z"/>
  <path fill="#00A78E" d="M321.6-803.5s30.8 86.6 16 163.3"/>
  <path fill="#FFF" d="M321.6-803.5s3.7 9.8 7.8 24.6c2.5 7.4 4.1 16 6.6 25.8 2.5 9 4.1 19.7 5.3 30 .4 4.9 1.6 10.3 1.6 15.2.4 4.9 1.2 10.3 1.2 15.2s.4 9.8.4 13.9v12.7c0 3.7-.4 7.4-.4 11.1 0 2.9-.4 6.2-1.2 8.6-.4 4.9-.4 7.4-.4 7.4l-12.3-2.5s.4-2.5 1.2-6.6c.4-2.5 1.2-4.9 1.2-7.8.4-2.9.4-6.6 1.2-10.3.4-3.7.4-7.8 1.2-12.3.4-4.1.4-9 .4-13.5v-14.8s-.4-10.3-.4-15.2c-.4-10.3-1.6-20.1-3.7-30-1.2-9.8-2.9-18.5-4.9-25.8-1.5-15.8-4.8-25.7-4.8-25.7z"/>
  <path fill="#00A78E" d="M457.4-798.5s54.2 46 84.5 144"/>
  <path fill="#FFF" d="M457.4-798.5s7.8 6.6 18.9 18.5c5.3 6.2 11.5 12.7 17.2 20.9 6.2 7.8 12.3 16.4 17.6 25.8 2.5 4.1 5.3 9 7.8 13.5 2.5 4.9 4.9 9 7.4 13.5 2.5 4.1 4.1 8.6 6.2 12.7 2.1 4.1 3.7 7.8 5.3 11.5 2.9 7.4 5.3 13.5 7.4 17.6 1.6 4.1 2.5 6.6 2.5 6.6l-12.3 5.3s-.4-2.5-1.6-6.6c-1.2-4.1-2.9-10.3-5.3-17.6-1.2-3.7-2.5-7.8-4.1-11.5-1.6-4.1-3.7-8.6-5.3-12.7-1.6-4.1-4.1-9-6.2-13.9-2.5-4.9-4.9-9-6.6-13.9-4.9-9-10.3-18.5-15.2-26.3-5.3-8.6-11.1-16-15.2-22.2-4.9-6.2-9-11.1-12.3-14.8-4.6-4.4-6.2-6.4-6.2-6.4z"/>
  <path fill="#00A78E" d="M390.9-792.4s54.2 46 84.5 144"/>
  <path fill="#FFF" d="M390.9-792.4s7.8 6.6 18.9 18.5c5.3 6.2 11.5 12.7 17.2 20.9 6.2 7.8 12.3 16.4 17.6 25.8 2.5 4.1 5.3 9 7.8 13.5 2.5 4.9 4.9 9 7.4 13.5 2.5 4.1 4.1 8.6 6.2 12.7 1.6 4.1 3.7 7.8 5.3 11.5 2.9 7.4 5.3 13.5 7.4 17.6 1.6 4.1 2.5 6.6 2.5 6.6l-11.5 5.3s-.4-2.5-1.6-6.6-2.9-10.3-5.3-17.6c-1.2-3.7-2.5-7.8-4.1-11.5-1.6-4.1-3.7-8.6-5.3-12.7-1.6-4.1-4.1-9-6.2-13.9-2.5-4.9-4.9-9-6.6-13.9-4.9-9-10.3-18.5-15.2-26.3-5.3-8.6-11.1-16-15.2-22.2-4.9-6.2-9-11.1-12.3-14.8-4.9-4.3-7-6.4-7-6.4z"/>
  <path fill="none" stroke="#D20962" stroke-width="7" stroke-miterlimit="10" d="M90.2-580.7c26.3 4.1 89.4 12.3 138.7 6.2 33.2-4.1 63.2 20.9 64 54.6v1.2c0 16-5.3 28.3-12.3 37.3-16 21.3-43.5 30-69.7 23.8-25.8-5.3-64-22.6-105.4-68.1C48.9-588.5 62-588.9 71.9-586c5.6 2 11.7 4.1 18.3 5.3zm444.7 1.7c-26.3 4.1-89.4 12.3-138.7 6.2-33.2-4.1-63.2 20.9-64 54.6v1.2c0 16 5.3 28.3 12.3 37.3 16 21.3 43.5 30 69.7 23.8 25.8-5.3 64-22.6 105.4-68.1 56.6-62.8 43.5-63.2 33.6-60.3-5.1 2.8-11.3 4.9-18.3 5.3zM292-511.3s21.3-19.7 41 0"/>
</svg>