<svg xmlns="http://www.w3.org/2000/svg" width="110.8" height="379.3" viewBox="0 0 110.8 379.3">
  <path fill="#FFF" d="M47.5 379.1s-.6-5.7-10.7-5.2-10.8 4.3-11.2 5.3m14.7.1l-5-79.7-6.1-61.6c-1.2-13.4-1.1-15.7 0-19.8.5-1.8 1.8-6.3 1.8-6.3l48.8.1s1.3 4.9 1.6 5.8c1.2 3.4 3.2 10.3 1.1 20.7l-9.7 61.8-8.5 78.5h-7.7l3.4-90.6-1.4-51.4c0-2.7-.4-3.3-2.3-3.3h-1c-1.9 0-2.5 1-2.5 3.7L50 289l-2 90-7.7.3zm17.1-.2s.6-5.7 10.7-5.2 10.8 4.3 11.2 5.3"/>
  <path fill="#FFF" stroke="#00A78E" stroke-width="2.188" stroke-miterlimit="10" d="M50.7 108.5s-2.2 4.2-4.8 8.5c-2.6 4.2-8.8 9.3-8.8 9.3s8.5 6.7 19.5 6.5c8.9-.2 13-.9 20.2-6.5-8.4-1.8-9.7-6.4-11.1-9.5-2-4.4-2.5-8.1-1.7-8.2-8.8.2-13.3-.1-13.3-.1z"/>
  <path fill="#FFF" d="M89 266.5c-.9 0-1.3-.4-1.5-.8-.2-.3-.3-.9.2-1.7.7-1.1 1.2-1.4 1.8-1.8.4-.3 1-.6 2-1.5 2.3-2.2 2.7-3 2.3-5.3-.1-.4-.1-.7-.1-1-.1-.4-.1-.8-.2-.9-.1 0-1.4-.3-1.4-.3h-.3c-.8 0-.9 1.6-1 3.3 0 1.3-.1 2.7-1.4 2.7-.3 0-.6-.1-1-.4-.2-.2-.4-.3-.5-.5.4 3.9 0 4-.7 4.2h-.3c-.6 0-1.9-.3-5-.9-6.2-1.3-17.9-3.8-26.2-3.8s-20.5 2.4-27.8 3.8c-3.4.7-4.9 1-5.5 1h-.3c-.7-.2-1-.2-.7-3.6-.3.2-.6.4-.9.4-1.3 0-1.3-1.4-1.4-2.7 0-1.7-.2-3.3-1-3.3h-.5c-.5.1-1.1.2-1.2.3 0 0 0 .5-.1.9 0 .3-.1.6-.1 1-.3 2.3 0 3.2 2.3 5.3 1 .9 1.5 1.3 2 1.5.7.4 1.1.7 1.8 1.8.5.8.4 1.3.2 1.7-.2.3-.6.8-1.5.8-1.6 0-4.5-1.3-6.3-2.7-3-2.4-6.1-9.4-6.5-11.3-.4-1.9 2.4-8.4 3.5-10.6l-2.3-41c-.1-6.6-1.3-64.4 3.1-69.5 4.5-5.2 18-5.7 18.6-5.7h.1l1.5.1c1-.1 1.6-.1 1.6-.1h.1l20.5 1.4 20.5-1.4h.1s.6 0 1.6.1l1.6-.1h.1c.6 0 14 .6 18.6 5.7 4.4 5.1 3.3 62.9 3.1 69.4l-2.3 41c1.1 2.3 3.9 8.8 3.5 10.7-.4 1.9-3.5 8.9-6.5 11.3-1.7 1.3-4.6 2.5-6.2 2.5zm-7.4-98.2c-.6 3.2-1.4 4.9-2 6.2-.5 1.1-.9 1.9-1 3.2-.6 7.1 3.4 36 6.3 57 1.1 8 1.9 13.6 2.4 17.6 0-.3.1-.6.1-.9.1-.5.1-1 .2-1.6.4-3.6 1.8-6.2 4.1-7.4.7-3.3-3.3-28.5-6-43.9l-4.1-30.2zm-63.2 74.3c2.3 1.2 3.7 3.8 4.1 7.4 0 .2 0 .5.1.7.5-3.8 1.3-8.8 2.2-15.5 3.1-21.2 7.3-50.2 6.7-57.4-.1-1.3-.5-2.1-1-3.2-.6-1.3-1.4-3-2-6.2l-4.1 30.3c-2.7 15.4-6.6 40.6-6 43.9z"/>
  <path fill="#00A78E" d="M78.9 126.6s13.6.5 17.8 5.4c4.3 4.9 2.9 68.8 2.9 68.8L97.3 242s3.9 8.5 3.5 10.2c-.4 1.8-3.4 8.5-6.1 10.8-1.8 1.5-4.5 2.5-5.7 2.5-.6 0-.9-.3-.5-.9 1.2-1.8 1.4-1 3.7-3.2 2.5-2.3 3-3.5 2.6-6.2-.4-2.7 0-2.5-2.4-3-.2 0-.4-.1-.5-.1-2.9 0-1.4 6-2.3 6-.1 0-.2 0-.3-.2-1.6-1.3-1-4.1-.6-8 .4-3.6 1.8-5.8 3.8-6.7 2-.9-5.7-44.8-5.7-44.8l-5.3-38.6c-.6 14.1-3.5 13.4-3.9 17.8-1 12.1 10.7 83.5 9.5 83.8H87c-1.8 0-19.4-4.8-31.2-4.8-11.7 0-31.4 4.8-33.3 4.8h-.1c-1.2-.3 11-71.7 10-83.8-.4-4.4-3.2-3.7-3.9-17.8l-5.3 38.6s-7.7 43.9-5.7 44.8c2 .9 3.4 3.1 3.8 6.7.4 3.9 1 6.6-.6 8-.1.1-.2.2-.3.2-.9 0 .6-6-2.3-6-.2 0-.3 0-.5.1-2.4.5-2 .3-2.4 3-.4 2.7.2 3.9 2.6 6.2 2.3 2.2 2.5 1.4 3.7 3.2.4.6.1.9-.5.9-1.2 0-3.9-1-5.7-2.5-2.7-2.2-5.7-9-6.1-10.8-.4-1.8 3.5-10.2 3.5-10.2l-2.3-41.2S9 137 13.3 132c4.3-4.9 17.8-5.4 17.8-5.4l1.6.1c1-.1 1.7-.1 1.7-.1l20.5 1.4 20.5-1.4s.6 0 1.7.1l1.8-.1m-3.3-2h-.1L55.1 126l-20.4-1.4h-.2s-.6 0-1.6.1l-1.4-.1h-.2c-1.5.1-14.6.7-19.3 6.1-.9 1.1-3.2 3.6-3.5 37.5-.2 16.4.2 32.4.2 32.6l2.3 40.7c-1.9 4.1-3.9 9.1-3.4 11.1.4 1.8 3.5 9.2 6.8 11.9 2 1.6 5.1 3 7 3 1.5 0 2.1-.8 2.4-1.3.3-.5.6-1.5-.2-2.7l-.1-.1c.9-.1 2.4-.4 5.1-.9 6.8-1.3 19.4-3.8 27.6-3.8 8.2 0 19.8 2.5 26 3.8 3 .7 4.3.9 5 1 0 0 0 .1-.1.1-.8 1.2-.5 2.2-.2 2.7s.9 1.3 2.4 1.3c1.8 0 5-1.3 7-3 3.3-2.7 6.4-10 6.8-11.9.4-1.9-1.6-7-3.4-11L102 201c0-.2.4-16.2.2-32.6-.4-33.9-2.6-36.4-3.6-37.5-4.7-5.4-17.8-6-19.3-6.1h-.2l-1.4.1c-1-.1-1.6-.1-1.6-.1l-.5-.2zm11.9 121.5c-.5-3.4-1-7.3-1.6-11.4-2.9-21-6.9-49.8-6.3-56.8.1-1.2.4-1.8.9-2.9.2-.5.5-1.1.8-1.7l3.5 25.5c3.2 18.5 6.2 39 6 43.1-1.5 1-2.6 2.4-3.3 4.2zM19.4 242c-.2-4.2 2.8-24.6 6-43.1l3.5-25.5c.3.7.5 1.2.8 1.7.5 1.1.8 1.7.9 2.9.6 7-3.6 36-6.7 57.2-.5 3.7-1 7.2-1.5 10.3-.8-1.6-1.8-2.8-3-3.5zm-1.9 12.3c.1 0 .3-.1.5-.1h.1c.2.6.2 1.7.2 2.3 0 1.2.1 3.6 2.2 3.7v.7c-.3-.2-.6-.5-1-.9-2.2-2-2.3-2.6-2-4.5.1-.4.1-.7.1-1-.1 0-.1-.1-.1-.2zm72 5.9c2.3 0 2.3-2.5 2.4-3.7 0-.5 0-1.7.2-2.3h.1c.2 0 .3.1.5.1v.2c0 .3.1.6.1 1 .3 1.9.1 2.4-2 4.5-.7.7-1.2 1-1.6 1.3v-1.1h.3z"/>
  <path fill="#FFF" stroke="#00A78E" stroke-width="2" stroke-miterlimit="10" d="M37.1 126.3l-3.1 6.5 17.6 8.4 5-8.4zm39.5 0l3.2 6.5-17.6 8.4-5.1-8.4zm-19.5 6.5v123.9"/>
  <path fill="#00A78E" d="M52.7 152c1.9 0 1.9-3 0-3s-1.9 3 0 3zm0 24.6c1.9 0 1.9-3 0-3s-1.9 3 0 3zm0 24.6c1.9 0 1.9-3 0-3s-1.9 3 0 3zm0 24.6c1.9 0 1.9-3 0-3s-1.9 3 0 3zm0 24.6c1.9 0 1.9-3 0-3s-1.9 3 0 3z"/>
  <path fill="#FFF" stroke="#00A78E" stroke-width="2" stroke-miterlimit="10" d="M11.6 237.8h7.1v6h-7.1zm79.8 0h7.1v6h-7.1zm-63.1 3.9l20.2-8.5m33.7 8.5l-20.1-8.5"/>
  <path fill="#FFF" d="M15.4 49.2C19 10.6 32.9 7.2 43 6.8c10.1-.5 36-2.1 47.8 10.5 8.9 9.5 8.7 11.4 4.9 40.2-2 15.2.4 20.8-14.9 36.7-15.1 15.7-14.4 13.6-31 13.6-4 0-11.3-4.8-21.4-14.2-15.4-14.4-12.5-28.3-13-33.1"/>
  <path fill="#00A78E" d="M35.6 19.3c2.6 9.3 1.6 17.7-3.2 26.2-3 5.2-7.6 9.3-10.3 14.6-2.7 5.2-3 12.6 1.6 16.2v.1c-1.9-.1-3.6 1.9-3.7 3.9-.1 2 .9 4 2 5.7 3 4.8 7.1 9.9 12.8 10.2-8.3 5.1-20.6 2.1-25.6-6.3-1.4-2.4-2.3-5-3.1-7.6-4.5-14.4-7.2-29.6-4.2-44.2s12.8-28.5 27-33.2c2.8-.9.8 3.2 3.4 5.4.2.2 2.6 2.5 2.6 5.5 0 1.1.1 2.2.6 3.3 2.4 5.2 8.3 7.6 13.8 9.1 6.1 1.6 12.3 2.6 18.5 2.9 2.4.1 4.9.2 7.2 1.2 1.5.7 2.7 1.7 3.9 2.8 6.6 6.1 11.6 14.4 12.1 23.3.5 9.2-4.2 18.9-12.7 22.6l10 .9c-1.1 4.8-3.9 9.2-7.8 12.2-1.9 1.4-4.8 3.8-6.4 5.5-.9 1-1.4.9.3 1.8.7.3 3 4.1 3 4.9 0 .4-.3.7-.5 1l-4.9 5.5c14.8.9 29.5-9 34.3-23 1.8-5.2 2.3-10.7 2.8-16.1.7-6.8.9-13.6.8-20.4-.1-5.6.4-11.5-1-17-1.8-6.8-6.3-12.6-10.6-18-1.7-2.1-3.5-4.1-5.4-6.1-3.7-3.7-7.9-7.3-13-8.9-2.7-.9-5.5-1.1-8.3-1.4C60.6 1 49.4.6 38.3.8c-3.1.1-7.8 1.4-9.4 4.1"/>
  <path fill="#FFF" d="M34.8 19.5c3.5 13.4-1.2 23.6-9.3 34-4.1 5.3-8.1 12.2-5.5 19.1.3.8 1.7 2.2 1.7 2.9.1 1.5.9-1.4-.8 1-1.7 2.3-2.2 4-1.2 6.8 2.3 6.3 8.2 12.6 14.9 13.5-.1-.5-.3-.9-.4-1.4-6.8 3.8-15.6 2.9-21.5-2.3C6.5 87.6 4.9 77 3.2 69.3c-3.6-17.2-3-36 8-50.5 2-2.7 4.3-5.1 6.8-7.2 1.9-1.6 9.2-7.1 11.3-5.5.6.5 1.7 3.9 2.4 4.9 1.7 2.4 1.8 3.5 2.4 6.5.2.9.5 1.8.9 2.6 2.6 5.1 8.7 7.4 13.9 8.8 3.7 1 7.4 1.7 11.1 2.2 4.2.6 9.1.1 13.2 1.4 9 2.8 15.6 15.8 16.6 24.4 1.1 9.5-3.4 19.2-12.2 23.4-.7.4-.3 1.3.4 1.4 1.8.2 3.6.3 5.5.5 1 .1 2.4 0 3.3.3 1.5.5.8 0-.3 2-2.4 4.6-4.9 7.5-8.9 10.7-1.6 1.3-5.1 3.3-5.2 5.5 0 .3.2.5.4.6 1.2.7 3.1 2.4 3.3 4 .3 1.8-.4 1.6-1.2 2.8-1 1.5-2.5 2.7-3.7 4.1-.4.5-.1 1.3.5 1.3 11.5.4 22.7-4.8 29.8-13.9 8.4-10.7 8.6-25.9 8.9-38.9.2-7 .6-14.4-.3-21.3-1-7-4.6-12.9-8.8-18.4-3.8-4.9-7.8-9.8-12.8-13.7-5.2-4.1-10.5-5.6-17-6.2C62.2.3 52.7 0 43.2 0c-5.3 0-11.4-.1-15 4.5-.5.8.8 1.5 1.3.7 3-3.9 8.4-3.7 12.7-3.7 3.9 0 7.8 0 11.8.1 8.2.3 17.9-.1 25.7 2.4 7.4 2.4 13.2 8.9 18 14.8 5.4 6.7 10.4 13.7 11.2 22.5.7 7.6.3 15.5 0 23.1-.4 8.3-.7 17.3-3.4 25.2-4.9 13.9-19 23-33.6 22.4.2.4.4.9.5 1.3 1.6-1.8 5.8-4.8 5.6-7.5-.1-2-2.8-3.3-3.1-5-.5-2.2 5.5-5.6 7.2-7.2 1.8-1.6 9-9.9 6.5-12.5-.6-.6-3.7-.4-4.5-.5-2-.2-4-.4-5.9-.5.1.5.3.9.4 1.4 15.4-7.5 15.9-27 7.1-39.8-2.1-3.1-4.7-6.2-7.7-8.5-3.7-2.8-7.6-2.8-12.1-3.1-5.8-.4-11.6-1.4-17.1-2.9-2.5-.7-5-1.5-7.2-2.9-3.7-2.2-4.9-4.5-5.9-8.8-.9-3.4-2.9-5.2-4.1-8.4-.6-1.5-.1-2.8-2-3.1-2.5-.4-7.5 3-9.3 4.3-3.4 2.3-6.5 5.1-9 8.3-12.1 15-13 34.9-9.2 53 1.9 9 3.8 20.6 12 26.2 6.3 4.2 14.5 4.6 21.1.9.7-.4.3-1.3-.4-1.4-3.7-.5-6.5-2.5-8.9-5.3-1.5-1.7-9.3-12-2-13 .3 0 .4-.3.5-.5v-.1c.1-.2 0-.6-.2-.7-10.3-9.1 3.6-21.4 8.4-29.2 5.2-8.5 6.2-17.9 3.7-27.4-.2-.9-1.7-.5-1.5.4z"/>
  <path fill="#00A78E" d="M44.8 90s14.9 7.3 23.6-4.5c-6.2 20.2-25.3 3.1-23.6 4.5z"/>
  <path fill="#FFF" d="M56.3 66.7s2.6 7.6 4.8 10.1c8.2 9-14.4 7.6-8.7 4.3"/>
  <path fill="#00A78E" d="M56.3 66.7s.2.4.7 1.1c.2.4.4.8.7 1.3.3.5.6 1.1.9 1.7.3.6.7 1.3 1.1 2 .4.7.8 1.4 1.3 2.1.5.7.9 1.2 1.6 2 .6.8 1.2 1.8 1.4 3.1.1.7-.1 1.4-.5 2-.4.6-.8 1-1.3 1.3-1 .6-2 .8-2.9 1-1.9.3-3.6.1-5.1-.2-.7-.2-1.4-.4-1.9-.7-.3-.1-.5-.3-.7-.6-.2-.2-.3-.6-.2-.9.2-.5.6-.6.8-.7.2-.1.3-.1.3-.1s-.1.1-.3.2c-.2.1-.4.4-.5.7-.1.3.3.5.8.6.5.2 1.1.2 1.8.2 1.3 0 3 0 4.6-.5.8-.2 1.6-.5 2.2-.9.6-.5.9-.9.8-1.4 0-.6-.5-1.3-1-2-.5-.6-1.2-1.5-1.7-2.3-.9-1.6-1.5-3.2-1.9-4.6-.8-2.4-1-4.4-1-4.4zm-12.2-7.6c0 2.4-2.2 4.4-4.8 4.4-2.7 0-4.8-2-4.8-4.4 0-2.4 2.2-4.4 4.8-4.4 2.7 0 4.8 2 4.8 4.4"/>
  <path fill="#FFF" d="M42.6 59.1c0 .7-.4 1.3-.9 1.3s-.9-.6-.9-1.3c0-.7.4-1.3.9-1.3s.9.6.9 1.3"/>
  <path fill="#00A78E" d="M47.8 59.3s-.4-.3-1-.8-1.6-1.1-2.7-1.6c-.6-.3-1.2-.5-1.8-.8-.7-.2-1.3-.4-2.1-.5-.7-.1-1.4-.1-2.2 0-.7 0-1.5.3-2.2.5-.7.3-1.4.6-2.1 1.1-.7.4-1.3.9-1.9 1.5-.6.5-1.3 1.2-2 1.6-.4.2-.8.4-1.1.5-.3.1-.7.2-1 .2-1.4.1-2.5-.2-3.1-.6-.7-.4-1-.8-1-.8s.4.2 1.1.3c.7.1 1.7 0 2.8-.4.3-.1.6-.2.8-.4.3-.2.6-.3.8-.5.5-.4.9-1 1.6-1.7.7-.7 1.3-1.4 2.1-1.9.7-.6 1.6-1 2.5-1.4.9-.3 1.8-.6 2.7-.6.9-.1 1.8.1 2.6.3.4.1.8.2 1.2.4.4.2.7.4 1.1.5.7.4 1.3.8 1.9 1.3.6.4 1 .9 1.4 1.4.4.4.7.9 1 1.2.4.7.6 1.2.6 1.2m2.1-16.5s2.7 2.8-4.5 3.7c-7.3.8-13.3-5-16.6-.8s-9 5.8-4.3 1.7 3.7-6.7 11.1-6.2 13.8.4 14.3 1.6zm18.6 15.9c0 2.4 2.2 4.4 4.8 4.4 2.7 0 4.8-2 4.8-4.4 0-2.4-2.2-4.4-4.8-4.4-2.6 0-4.8 2-4.8 4.4"/>
  <path fill="#FFF" d="M77.1 59.1c0 .7-.4 1.3-.9 1.3s-.9-.6-.9-1.3c0-.7.4-1.3.9-1.3s.9.6.9 1.3"/>
  <path fill="#00A78E" d="M64.5 58.8s.4-.3 1-.8 1.6-1.1 2.7-1.6c.6-.3 1.2-.5 1.8-.8.7-.2 1.4-.4 2.1-.5.7-.1 1.5-.1 2.2 0 .7 0 1.5.3 2.2.5.7.3 1.4.6 2.1 1.1.7.4 1.3.9 1.9 1.5.6.5 1.3 1.2 2.1 1.6.4.2.8.4 1.1.5.4.1.7.2 1.1.2 1.4.1 2.5-.2 3.2-.6.7-.4 1-.8 1-.8s-.4.2-1.1.3c-.7.1-1.7 0-2.8-.4-.3-.1-.6-.2-.8-.4-.3-.2-.6-.3-.8-.5-.5-.4-.9-1-1.7-1.7-.7-.7-1.3-1.4-2.1-1.9-.8-.6-1.6-1-2.5-1.4-.9-.3-1.8-.6-2.7-.6-.9-.1-1.8.1-2.6.3-.4.1-.8.2-1.2.4-.4.2-.7.4-1.1.5-.7.4-1.3.8-1.9 1.3-.6.4-1 .9-1.4 1.4-.4.4-.7.9-1 1.2-.6.8-.8 1.2-.8 1.2M62 44.6S59.8 48 67.1 47s12.2-8.2 16.2-4.9 9.9 3.4 4.5.6c-5.4-2.9-4.8-5.6-12-3.3-7.2 2.4-13.5 3.9-13.8 5.2z"/>
</svg>