<svg xmlns="http://www.w3.org/2000/svg" width="819.2" height="550.2" viewBox="0 0 819.2 550.2">
  <path fill="none" stroke="#FFF" stroke-width="20" stroke-miterlimit="10" d="M702.7 373.8l-584.4 105c-38.1 6.8-69.2-19.3-69.2-58.1V235.8c0-38.8 31.2-76.2 69.2-83l584.4-105C740.8 41 772 67.1 772 105.9v184.8c0 38.9-31.2 76.2-69.3 83.1z"/>
  <path fill="none" stroke="#FFF" stroke-width="20" stroke-miterlimit="10" d="M702.3 373.8l-584.4 105c-38.1 6.8-69.2-19.3-69.2-58.1V235.8c0-38.8 31.2-76.2 69.2-83l584.4-105c38.1-6.8 69.2 19.3 69.2 58.1v184.8c0 38.9-31.1 76.2-69.2 83.1z"/>
  <path d="M137.3 288.5c0 21.3 6.8 37.5 20.1 48.2 9.1 7.2 26.3 15.8 57.1 15.8h.8c19.1-.1 34.3-3.5 34.5-3.5l.9-.2v-38.9S175 325.8 175 281.1l-37.7 6.6v.8zm78.3 72h-1c-26.6 0-47.4-5.9-62.1-17.6-15.2-12.2-23-30.2-23.1-53.7l-36.8 6.5c0 143.3 158.2 96.7 158.2 96.7V357c-3.7.7-17.7 3.4-35.2 3.5zm427.5-173.9l-37.6-31-76.7 13.5.3 37.5M642 104.5l-113.7 19.8.4 36.7 76.8-13.6m-23.3 139.8l151.5-26.8-37.3-29.5-38.5-31.8v38.7l-75.2 13.4m-.6 44.1l-.5 38.3 78.8-13.9v35.2l35.2-41.4 38.2-45" fill="#FFF"/>
  <path fill="none" stroke="#FFF" stroke-width="20" stroke-miterlimit="10" d="M702.7 373.8l-584.4 105c-38.1 6.8-69.2-19.3-69.2-58.1V235.8c0-38.8 31.2-76.2 69.2-83l584.4-105C740.8 41 772 67.1 772 105.9v184.8c0 38.9-31.2 76.2-69.3 83.1z"/>
  <path fill="#FFF" d="M739.9 354.9V537s-3.2 1.5-3.5 6c-.3 4.5 2.4 5.8 3.5 5.8s3.4-3.1 3.8-7.3c.3-4.1-3.8-4.5-3.8-4.5"/>
  <path fill="none" stroke="#FFF" stroke-width="3" stroke-miterlimit="10" d="M739.9 354.9V537s-3.2 1.5-3.5 6c-.3 4.5 2.4 5.8 3.5 5.8s3.4-3.1 3.8-7.3c.3-4.1-3.8-4.5-3.8-4.5"/>
  <text transform="matrix(1 -.18 0 1 264.38 392.59)">
    <tspan x="0" y="0" fill="#FFF" font-family="'Foco-Italic'" font-size="177.509">n</tspan>
    <tspan x="90.3" y="0" fill="#FFF" font-family="'Foco-Italic'" font-size="177.509" letter-spacing="-1">o</tspan>
    <tspan x="177.9" y="0" fill="#FFF" font-family="'Foco-Italic'" font-size="177.509">w</tspan>
  </text>
  <text transform="matrix(1 -.18 0 1 91 267.29)">
    <tspan x="0" y="0" fill="#FFF" font-family="'Foco-Italic'" font-size="115" letter-spacing="-2">C</tspan>
    <tspan x="61.9" y="0" fill="#FFF" font-family="'Foco-Italic'" font-size="115">ompa</tspan>
    <tspan x="323" y="0" fill="#FFF" font-family="'Foco-Italic'" font-size="115" letter-spacing="-1">r</tspan>
    <tspan x="363.2" y="0" fill="#FFF" font-family="'Foco-Italic'" font-size="115">e</tspan>
  </text>
  <path fill="#FFF" d="M186.2 96.8h-.2c-4.7.8-8.5 5.4-8.5 10.2 0 4.8 3.8 8 8.5 7.1h.2c4.7-.8 8.5-5.4 8.5-10.2 0-4.8-3.8-8-8.5-7.1M204.7 491h-.2c-4.7.8-8.5 5.4-8.5 10.2 0 4.8 3.8 8 8.5 7.1h.2c4.7-.8 8.5-5.4 8.5-10.2.1-4.8-3.8-8-8.5-7.1m-85.4 15.4h-.2c-4.7.8-8.5 5.4-8.5 10.2 0 4.8 3.8 8 8.5 7.1h.2c4.7-.8 8.5-5.4 8.5-10.2 0-4.8-3.8-8-8.5-7.1m-18.6-394.3h-.3c-4.7.9-8.5 5.5-8.4 10.3.1 4.7 3.9 7.9 8.5 7h.3c4.7-.9 8.5-5.5 8.4-10.3 0-4.7-3.8-7.8-8.5-7M357.2 66h-.2c-4.7.8-8.5 5.4-8.5 10.2 0 4.8 3.8 8 8.5 7.1h.2c4.7-.8 8.5-5.4 8.5-10.2 0-4.7-3.8-7.9-8.5-7.1m-67 409.6h-.2c-4.7.8-8.5 5.4-8.5 10.2 0 4.8 3.8 8 8.5 7.1h.2c4.7-.8 8.5-5.4 8.5-10.2 0-4.7-3.8-7.9-8.5-7.1M271.7 81.4h-.2c-4.7.8-8.5 5.4-8.5 10.2 0 4.8 3.8 8 8.5 7.1h.2c4.7-.8 8.5-5.4 8.5-10.2 0-4.7-3.8-7.9-8.5-7.1M8.5 267.2c4.7-.8 8.5-5.4 8.5-10.2v-.2c0-4.8-3.8-8-8.5-7.1-4.7.8-8.5 5.4-8.5 10.2v.2c0 4.8 3.8 8 8.5 7.1m803-218.7l-.1-.3c-1.8-4.1-6.8-5.2-11.1-2.6s-6.3 8.1-4.5 12.2v.1c1.3 3.1 4.5 4.6 7.9 4 1.1-.2 2.1-.6 3.2-1.2M8.5 354.4c4.7-.8 8.5-5.4 8.5-10.2v-.2c0-4.8-3.8-8-8.5-7.1-4.7.8-8.5 5.3-8.5 10.1v.2c0 4.8 3.8 8 8.5 7.2m36.8 143.3l-.1-.1c-3.5-2.6-8.9-1.3-12 2.8-3.2 4.1-2.9 9.5.6 12.1l.2.2c1.6 1.2 3.6 1.5 5.7 1.2 2.3-.4 4.7-1.8 6.4-4 3.1-4.2 2.7-9.7-.8-12.2M17 431.3v-.2c0-4.8-3.8-8-8.5-7.1-4.7.8-8.5 5.4-8.5 10.2v.2c0 4.8 3.8 8 8.5 7.1 4.7-.9 8.5-5.4 8.5-10.2m358.7 29h-.2c-4.7.8-8.5 5.4-8.5 10.2 0 4.8 3.8 8 8.5 7.1h.2c4.7-.8 8.5-5.4 8.5-10.2 0-4.8-3.8-8-8.5-7.1M33.8 176.2l.1-.2c2.8-4.3 2.1-9.6-1.7-11.8-3.8-2.2-9.1-.5-11.9 3.8l-.1.2c-2.8 4.3-2.1 9.6 1.7 11.8 1.5.9 3.3 1.1 5.1.8 2.6-.3 5.2-2 6.8-4.6m776.9 83.6c-4.7.8-8.5 5.4-8.5 10.2v.2c0 4.8 3.8 8 8.5 7.1 4.7-.8 8.5-5.4 8.5-10.2v-.2c0-4.7-3.8-7.9-8.5-7.1m-96 139.7c-4.2 2.9-5.8 8.5-3.7 12.3 1.5 2.7 4.5 3.9 7.6 3.4 1.3-.2 2.6-.8 3.9-1.7l.3-.2c4.1-3 5.7-8.5 3.5-12.3-2.2-3.9-7.4-4.5-11.6-1.5m83.1-52.5c-3.8-2.1-9.1-.3-11.9 4.1l-.1.1c-2.8 4.4-2 9.6 1.8 11.8 1.5.9 3.3 1.1 5.1.8 2.6-.5 5.2-2.1 6.8-4.7l.2-.3c2.8-4.4 1.9-9.7-1.9-11.8M785.4 27c3.1-4.2 2.7-9.6-.9-12.1l-.1-.1c-3.5-2.5-8.9-1.2-12 3-3.1 4.2-2.7 9.6.8 12.1l.2.1c1.6 1.1 3.6 1.5 5.5 1.1 2.4-.3 4.8-1.8 6.5-4.1M699.1 4.6h-.2c-4.7.8-8.5 5.4-8.5 10.2 0 4.8 3.8 8 8.5 7.1h.2c4.7-.8 8.5-5.4 8.5-10.2 0-4.8-3.8-8-8.5-7.1m111.6 81c-4.7.8-8.5 5.4-8.5 10.2v.2c0 4.8 3.8 8 8.5 7.1 4.7-.8 8.5-5.4 8.5-10.2v-.2c0-4.8-3.8-8-8.5-7.1m0 87.1c-4.7.8-8.5 5.4-8.5 10.2v.2c0 4.8 3.8 8 8.5 7.1 4.7-.8 8.5-5.4 8.5-10.2v-.2c0-4.8-3.8-8-8.5-7.1M461.2 444.9h-.2c-4.7.8-8.5 5.4-8.5 10.2 0 4.8 3.8 8 8.5 7.1h.2c4.7-.8 8.5-5.4 8.5-10.2 0-4.7-3.8-7.9-8.5-7.1M442.7 50.7h-.2c-4.7.8-8.5 5.4-8.5 10.2 0 4.8 3.8 8 8.5 7.1h.2c4.7-.8 8.5-5.4 8.5-10.2 0-4.8-3.8-8-8.5-7.1m85.4-15.4h-.2c-4.7.8-8.5 5.4-8.5 10.2 0 4.8 3.8 8 8.5 7.1h.2c4.7-.8 8.5-5.4 8.5-10.2.1-4.7-3.8-7.9-8.5-7.1m85.5-15.4h-.2c-4.7.8-8.5 5.4-8.5 10.2 0 4.8 3.8 8 8.5 7.1h.2c4.7-.8 8.5-5.4 8.5-10.2 0-4.7-3.8-7.9-8.5-7.1m18.6 394.3h-.2c-4.7.8-8.5 5.4-8.5 10.2 0 4.8 3.8 8 8.5 7.1h.2c4.7-.8 8.5-5.4 8.5-10.2 0-4.8-3.8-8-8.5-7.1m-85.5 15.3h-.2c-4.7.8-8.5 5.4-8.5 10.2 0 4.8 3.8 8 8.5 7.1h.2c4.7-.8 8.5-5.4 8.5-10.2 0-4.7-3.8-7.9-8.5-7.1"/>
  <path fill="#FFF" d="M162 498.7h-.2c-4.7.8-8.5 5.4-8.5 10.2 0 4.8 3.8 8 8.5 7.1h.2c4.7-.8 8.5-5.4 8.5-10.2 0-4.8-3.8-8-8.5-7.1m67-409.6h-.2c-4.7.8-8.5 5.4-8.5 10.2 0 4.8 3.8 8 8.5 7.1h.2c4.7-.8 8.5-5.4 8.5-10.2 0-4.8-3.9-8-8.5-7.1m-85.5 15.3h-.2c-4.7.8-8.5 5.4-8.5 10.2 0 4.8 3.8 8 8.5 7.1h.2c4.7-.8 8.5-5.4 8.5-10.2 0-4.7-3.8-7.9-8.5-7.1m104 378.9h-.2c-4.7.8-8.5 5.4-8.5 10.2 0 4.8 3.8 8 8.5 7.1h.2c4.7-.8 8.5-5.4 8.5-10.2 0-4.7-3.8-7.9-8.5-7.1m85.5-15.4h-.2c-4.7.8-8.5 5.4-8.5 10.2 0 4.8 3.8 8 8.5 7.1h.2c4.7-.8 8.5-5.4 8.5-10.2 0-4.7-3.8-7.9-8.5-7.1M314.4 73.7h-.2c-4.7.8-8.5 5.4-8.5 10.2 0 4.8 3.8 8 8.5 7.1h.2c4.7-.8 8.5-5.4 8.5-10.2 0-4.7-3.8-7.9-8.5-7.1M23.1 469.4c-1.8-4.1-6.8-5.3-11.1-2.7-4.3 2.6-6.4 8-4.6 12.1l.1.2c1.3 3.1 4.5 4.6 7.9 4 1.1-.2 2.1-.6 3.2-1.2 4.4-2.6 6.5-8 4.7-12.1l-.2-.3zM8.5 310.8c4.7-.8 8.5-5.4 8.5-10.2v-.2c0-4.8-3.8-8-8.5-7.1-4.7.8-8.5 5.4-8.5 10.2v.2c0 4.8 3.8 8 8.5 7.1m70.6 199.7h-.2c-4.5-.5-9.2 3.1-10.5 7.9-1.3 4.8 1.4 9.1 5.9 9.6h.2c.8.1 1.5 0 2.3-.1 3.7-.7 7.1-3.8 8.2-7.8 1.3-4.9-1.4-9.2-5.9-9.6M795.7 57.8c1.3 3.1 4.5 4.6 7.9 4 1.1-.2 2.1-.6 3.2-1.2 4.4-2.6 6.5-8 4.7-12.1l-.1-.3c-1.8-4.1-6.8-5.2-11.1-2.6-4.4 2.6-6.4 8-4.6 12.2zM8.5 397.9c4.7-.8 8.5-5.4 8.5-10.2v-.2c0-4.8-3.8-8-8.5-7.1-4.7.8-8.5 5.4-8.5 10.2v.2c0 4.8 3.8 8 8.5 7.1m0-174.3c.5 0 1 0 1.5-.1 4-.7 7.6-4.3 8.4-8.7v-.2c.8-4.9-2.3-8.8-6.9-8.8-4.6 0-9 4-9.9 8.8v.2c-.8 4.9 2.3 8.8 6.9 8.8m47.2-92.2l-.2.2c-4.2 2.9-5.8 8.5-3.7 12.3 1.5 2.7 4.5 3.9 7.6 3.4 1.3-.2 2.6-.8 3.9-1.7l.2-.1c4.2-2.9 5.9-8.4 3.7-12.3-2.1-3.9-7.3-4.7-11.5-1.8m701 250.6c-4.2 2.9-5.8 8.5-3.7 12.3 1.5 2.7 4.5 3.9 7.6 3.4 1.3-.2 2.6-.8 3.9-1.7l.3-.2c4.1-3 5.7-8.5 3.5-12.3-2.3-3.8-7.5-4.5-11.6-1.5M399.9 58.4h-.2c-4.7.8-8.5 5.4-8.5 10.2 0 4.8 3.8 8 8.5 7.1h.2c4.7-.8 8.5-5.4 8.5-10.2 0-4.8-3.8-8-8.5-7.1m410.9 245c-4.6 0-9 4.1-9.8 8.9v.2c-.8 4.9 2.4 8.7 7 8.7.5 0 .9-.1 1.4-.1 4.1-.7 7.7-4.4 8.4-8.8v-.2c.7-4.8-2.4-8.7-7-8.7M674.9 406.5h-.2c-4.7.8-8.5 5.4-8.5 10.2 0 4.8 3.8 8 8.5 7.1h.2c4.7-.8 8.5-5.4 8.5-10.2 0-4.7-3.8-7.9-8.5-7.1m135.8-277.4c-4.7.8-8.5 5.4-8.5 10.2v.2c0 4.8 3.8 8 8.5 7.1 4.7-.8 8.5-5.4 8.5-10.2v-.2c0-4.7-3.8-7.9-8.5-7.1m0 87.1c-4.7.8-8.5 5.4-8.5 10.2v.2c0 4.8 3.8 8 8.5 7.1 4.7-.8 8.5-5.4 8.5-10.2v-.2c0-4.7-3.8-7.9-8.5-7.1M743.8.1h-.2c-4.5-.4-9.2 3.2-10.4 8-1.2 4.8 1.5 9.1 6 9.5h.2c.7.1 1.5 0 2.2-.1 3.8-.7 7.2-3.9 8.2-7.9 1.2-4.9-1.5-9.1-6-9.5M485.4 43h-.2c-4.7.8-8.5 5.4-8.5 10.2 0 4.8 3.8 8 8.5 7.1h.2c4.7-.8 8.5-5.4 8.5-10.2 0-4.8-3.8-8-8.5-7.1m18.5 394.2h-.2c-4.7.8-8.5 5.4-8.5 10.2 0 4.8 3.8 8 8.5 7.1h.2c4.7-.8 8.5-5.4 8.5-10.2 0-4.7-3.8-7.9-8.5-7.1m-85.4 15.4h-.2c-4.7.8-8.5 5.4-8.5 10.2 0 4.8 3.8 8 8.5 7.1h.2c4.7-.8 8.5-5.4 8.5-10.2 0-4.8-3.8-8-8.5-7.1m152.4-425h-.2c-4.7.8-8.5 5.4-8.5 10.2 0 4.8 3.8 8 8.5 7.1h.2c4.7-.8 8.5-5.4 8.5-10.2 0-4.7-3.8-7.9-8.5-7.1m18.5 394.3h-.2c-4.7.8-8.5 5.4-8.5 10.2 0 4.8 3.8 8 8.5 7.1h.2c4.7-.8 8.5-5.4 8.5-10.2 0-4.8-3.8-8-8.5-7.1m67-409.6h-.2c-4.7.8-8.5 5.4-8.5 10.2 0 4.8 3.8 8 8.5 7.1h.2c4.7-.8 8.5-5.4 8.5-10.2 0-4.8-3.8-8-8.5-7.1"/>
</svg>