<svg xmlns="http://www.w3.org/2000/svg" viewBox="-152 266.2 294.8 68.8">
  <path d="M-146.9 277.2c2.3-.3 4.4-.4 6.1-.5 1.7-.1 3.4-.1 4.9-.1 4.2 0 7.6.6 10.4 1.7 2.8 1.1 5 2.7 6.7 4.6 1.7 2 2.8 4.2 3.5 6.8.7 2.6 1 5.4 1 8.3 0 3.9-.6 7.5-2 10.8-1.3 3.2-3.3 5.9-6.1 8-1.7 1.2-3.7 2.1-6.1 2.8-2.4.6-5.2.9-8.3.9h-10.1v-43.3zm11.1 38.4c2.9 0 5.4-.5 7.4-1.4s3.6-2.1 4.9-3.7c1.2-1.6 2.1-3.4 2.7-5.5.5-2.1.8-4.4.8-6.8 0-2.4-.2-4.7-.7-6.7-.5-2.1-1.3-3.8-2.5-5.3s-2.8-2.7-4.8-3.5c-2-.8-4.5-1.2-7.6-1.2-.9 0-1.8 0-2.7.1-.9 0-1.9.1-2.8.3v33.8h5.3zm33.8-9.4c.1 3.2 1 5.7 2.5 7.6 1.5 1.9 3.9 2.9 7.1 2.9 1.2 0 2.3-.1 3.2-.4 1-.3 1.8-.6 2.5-.9.7-.4 1.3-.8 1.7-1.2.5-.4.8-.8 1.1-1.2.5.6.9 1.3 1.3 2s.6 1.2.6 1.6c0 .3-.1.7-.3 1.1-.2.4-.6.7-1.1 1.1-1 .7-2.3 1.4-3.8 1.9-1.6.5-3.4.7-5.7.7-2 0-4-.3-5.8-.9-1.8-.6-3.4-1.5-4.7-2.8-1.3-1.3-2.4-3-3.2-5.1-.8-2.1-1.2-4.7-1.2-7.7 0-2.7.4-5.1 1.2-7.1.8-2 1.9-3.6 3.2-4.9 1.3-1.3 2.8-2.2 4.5-2.8 1.7-.6 3.4-.9 5.2-.9 2.2 0 4.1.4 5.7 1.1 1.6.7 2.9 1.7 3.9 3 1 1.2 1.7 2.7 2.2 4.3.5 1.6.7 3.3.7 5v1.9c0 .6-.1 1.2-.2 1.8H-102zm15.2-4.2c0-1.2-.1-2.3-.4-3.2-.2-1-.6-1.9-1.2-2.6-.6-.8-1.3-1.4-2.2-1.8-.9-.4-2.1-.6-3.4-.6-2.3 0-4.1.7-5.6 2.2-1.5 1.5-2.3 3.5-2.4 6.1h15.2zm33.1 15.8c-.3.3-.8.7-1.3 1.2-.5.4-1.1.8-1.9 1.2-.7.3-1.5.6-2.4.9-.9.2-1.9.4-3 .4-1.7 0-3.3-.3-4.9-.8s-2.9-1.5-4.1-2.7c-1.2-1.2-2.1-2.9-2.8-4.9-.7-2-1-4.5-1-7.4 0-2.9.4-5.3 1.1-7.4.7-2.1 1.7-3.8 2.9-5.1 1.2-1.3 2.6-2.3 4.2-3 1.6-.7 3.2-1 4.9-1 2 0 3.6.3 5 1s2.5 1.4 3.3 2.2v-18c.3 0 .6-.1.7-.1h.4c1.3 0 2.4.3 3.2 1 .8.6 1.2 1.8 1.2 3.4v41.7h-5.4v-2.6zm-.2-20.6c-.2-.3-.5-.6-.9-.9-.4-.4-.9-.7-1.6-1.1-.6-.4-1.4-.7-2.2-.9-.8-.2-1.8-.4-2.8-.4-2.5 0-4.4.9-5.9 2.8-1.4 1.8-2.1 4.6-2.1 8.3 0 1.7.1 3.2.4 4.7.3 1.4.7 2.7 1.4 3.7.6 1.1 1.5 1.9 2.6 2.5 1.1.6 2.4.9 3.9.9 1 0 2-.1 2.9-.4.9-.3 1.7-.6 2.3-1 .6-.4 1.1-.8 1.5-1.4.3-.5.5-1 .5-1.6v-15.2zm14.9-7.6c.3 0 .6-.1.7-.1h.4c1.3 0 2.4.3 3.2 1 .8.6 1.2 1.8 1.2 3.4V309c0 1.7.1 3 .4 4 .2 1 .7 1.8 1.5 2.3.6.5 1.4.8 2.1 1 .8.2 1.6.3 2.6.3 1.2 0 2.2-.2 3.2-.5s1.8-.7 2.5-1.2 1.2-1 1.6-1.5c.4-.5.6-1 .6-1.5v-22.4c.3 0 .6-.1.7-.1h.4c1.3 0 2.4.3 3.2 1 .8.6 1.2 1.8 1.2 3.4v26.5H-19v-2.9c-.9 1-2.1 1.9-3.6 2.7-1.6.8-3.6 1.2-6 1.2-2.5 0-4.5-.4-5.8-1.2-1.4-.8-2.4-1.8-3.1-3-.7-1.2-1.1-2.5-1.2-4-.1-1.5-.2-2.8-.2-4.2v-19.3zm56.1 8c-.7-.9-1.7-1.7-2.9-2.4-1.2-.8-2.8-1.1-4.7-1.1-1.6 0-3.1.3-4.2.8-1.2.6-2.1 1.4-2.9 2.4-.8 1-1.3 2.2-1.7 3.6-.3 1.4-.5 2.8-.5 4.4 0 1.6.2 3.1.5 4.5s.9 2.6 1.7 3.7c.8 1 1.7 1.9 3 2.5 1.2.6 2.7.9 4.4.9 1.2 0 2.2-.2 3.2-.6.9-.4 1.7-.8 2.4-1.3.9-.6 1.6-1.2 2.1-1.8.2.2.4.4.6.7.2.3.5.6.7.9.2.3.4.7.6 1 .2.3.2.7.2 1 0 .6-.5 1.3-1.4 2.1-.8.7-2 1.4-3.5 1.9s-3.4.8-5.6.8c-1.4 0-2.9-.2-4.6-.6-1.7-.4-3.2-1.2-4.7-2.3-1.5-1.2-2.7-2.8-3.7-4.9-1-2.1-1.5-4.9-1.5-8.4 0-3.2.5-5.8 1.6-7.9 1-2.1 2.3-3.7 3.8-4.9 1.5-1.2 3.1-2 4.8-2.5 1.7-.5 3.2-.7 4.5-.7 1.6 0 3 .2 4.2.5 1.2.3 2.3.7 3.2 1.2.9.5 1.6 1 2 1.6.5.6.7 1.1.7 1.6s-.2 1.1-.5 1.8-.7 1.2-1 1.7h-.8zm9.1-17.1c.3 0 .6-.1.7-.1h.4c1.3 0 2.4.3 3.2 1s1.2 1.8 1.2 3.4v5h9.7v4.7h-9.7v16.8c0 3.6 1.4 5.3 4.2 5.3.7 0 1.3-.1 2-.4.6-.2 1.2-.5 1.7-.8s.9-.6 1.2-.9c.3-.3.5-.5.6-.7.5.7 1 1.3 1.3 1.9.4.6.6 1.2.6 1.8 0 .4-.2.8-.6 1.3s-.9.9-1.6 1.3c-.7.4-1.5.7-2.6 1-1 .3-2.1.4-3.3.4-2.3 0-4.1-.4-5.4-1.3s-2.3-2.1-2.9-3.6c-.3-.8-.5-1.7-.6-2.7-.1-1-.1-1.9-.1-2.9v-30.5zm22.2-.6c0-1.1.3-2 1-2.7s1.5-1 2.5-1 1.8.3 2.5 1 1 1.6 1 2.7c0 1-.3 1.8-1 2.5s-1.5 1-2.5 1-1.8-.3-2.5-1-1-1.5-1-2.5zm1 9.7c.3 0 .6-.1.7-.1h.4c1.3 0 2.3.3 3.2 1 .8.6 1.2 1.8 1.2 3.4v20.7c0 1.3.2 2.1.6 2.7.4.5 1.2.8 2.6.8v2.3c-.4.1-.9.2-1.6.3-.7.1-1.3.1-2 .1-1.3 0-2.2-.2-2.9-.6-.7-.4-1.2-.9-1.5-1.6-.3-.7-.5-1.4-.6-2.2-.1-.8-.1-1.6-.1-2.4v-24.4zm15.7-15.2c.3 0 .6-.1.7-.1h.4c1.3 0 2.4.3 3.2 1 .8.6 1.2 1.8 1.2 3.4v13.8c.9-.9 2-1.6 3.4-2.3 1.4-.7 3.2-1 5.5-1 1.7 0 3.3.3 4.8.8 1.5.6 2.8 1.5 4 2.7 1.1 1.2 2.1 2.8 2.7 4.8.7 2 1 4.4 1 7.2 0 3.2-.4 5.9-1.2 8.1-.8 2.1-1.8 3.8-3.1 5.1s-2.7 2.1-4.3 2.7c-1.6.5-3.1.8-4.5.8-1.3 0-2.4-.1-3.3-.4s-1.7-.6-2.4-.9c-.7-.4-1.3-.8-1.7-1.2-.4-.4-.8-.8-1-1.1v2.6h-5.4v-46zm5.5 38.7c.3.3.6.7 1 1.1.4.4 1 .8 1.6 1.1.6.3 1.3.7 2.1.9.8.3 1.7.4 2.6.4 2.7 0 4.8-1 6.1-3 1.3-2 2-4.8 2-8.6 0-1.6-.1-3-.4-4.4s-.7-2.6-1.4-3.6c-.6-1-1.5-1.8-2.5-2.4-1.1-.6-2.4-.9-3.9-.9-2.1 0-3.9.5-5.2 1.4-1.3.9-2 2-2 3.2v14.8zm29.5-38.7c.3 0 .6-.1.7-.1h.4c1.3 0 2.4.3 3.2 1 .8.6 1.2 1.8 1.2 3.4v35.6c0 .7 0 1.2.1 1.7 0 .5.2.8.4 1.1.2.3.5.5.9.7.4.2 1 .2 1.8.2v2.3c-.4.1-.9.2-1.6.3s-1.3.1-2 .1c-1.3 0-2.2-.2-2.9-.6-.7-.4-1.2-.9-1.5-1.6-.3-.7-.5-1.4-.6-2.2-.1-.8-.1-1.6-.1-2.4v-39.5zm19.1 31.8c.1 3.2 1 5.7 2.5 7.6 1.5 1.9 3.9 2.9 7.1 2.9 1.2 0 2.3-.1 3.2-.4 1-.3 1.8-.6 2.5-.9s1.3-.8 1.7-1.2c.5-.4.8-.8 1.1-1.2.5.6.9 1.3 1.3 2s.6 1.2.6 1.6c0 .3-.1.7-.3 1.1-.2.4-.6.7-1.1 1.1-1 .7-2.3 1.4-3.8 1.9-1.6.5-3.4.7-5.7.7-2 0-4-.3-5.8-.9-1.8-.6-3.4-1.5-4.7-2.8-1.3-1.3-2.4-3-3.2-5.1s-1.2-4.7-1.2-7.7c0-2.7.4-5.1 1.2-7.1.8-2 1.9-3.6 3.2-4.9 1.3-1.3 2.8-2.2 4.5-2.8 1.7-.6 3.4-.9 5.2-.9 2.2 0 4.1.4 5.7 1.1 1.6.7 2.9 1.7 3.9 3 1 1.2 1.7 2.7 2.2 4.3s.7 3.3.7 5v1.9c0 .6-.1 1.2-.2 1.8h-20.6zm15.2-4.2c0-1.2-.1-2.3-.4-3.2-.2-1-.6-1.9-1.2-2.6-.6-.8-1.3-1.4-2.2-1.8-.9-.4-2.1-.6-3.4-.6-2.3 0-4.1.7-5.6 2.2-1.5 1.5-2.3 3.5-2.4 6.1h15.2z" fill="#00A78E"/>
</svg>