<?xml version="1.0" encoding="utf-8"?>
<!-- Generator: Adobe Illustrator 17.1.0, SVG Export Plug-In . SVG Version: 6.00 Build 0)  -->
<!DOCTYPE svg PUBLIC "-//W3C//DTD SVG 1.1//EN" "http://www.w3.org/Graphics/SVG/1.1/DTD/svg11.dtd">
<svg version="1.1" id="Layer_1" xmlns="http://www.w3.org/2000/svg" xmlns:xlink="http://www.w3.org/1999/xlink" x="0px" y="0px"
	 viewBox="0 0 391.4 68.8" enable-background="new 0 0 391.4 68.8" xml:space="preserve">
<g enable-background="new    ">
	<path fill="#00A78E" d="M4.9,10.7c0.3,0,0.5-0.1,0.8-0.1c0.3,0,0.6,0,0.8,0c0.4,0,0.9,0,1.3,0.1s0.9,0.3,1.3,0.6
		c0.4,0.3,0.7,0.7,1,1.2c0.3,0.5,0.4,1.2,0.5,2.1v39.6H4.9V10.7z"/>
	<path fill="#00A78E" d="M20.4,23.6c0.3,0,0.5-0.1,0.7-0.1c0.2,0,0.3,0,0.4,0c1,0,1.9,0.2,2.7,0.7c0.8,0.5,1.3,1.4,1.5,2.6
		c1-1,2.4-1.9,4.1-2.7c1.7-0.8,3.7-1.2,6.1-1.2c2.9,0,5.2,0.6,6.8,1.9c1.6,1.3,2.6,2.9,3.1,4.9c0.2,0.9,0.3,1.8,0.4,2.9
		c0,1.1,0.1,2.1,0.1,3.1v18.5h-5.5V36c0-0.8,0-1.6,0-2.4c0-0.8-0.1-1.5-0.4-2.1c-0.3-1.1-1-2-1.9-2.6c-0.9-0.6-2.3-0.9-4.2-0.9
		c-1.3,0-2.4,0.1-3.4,0.4c-1,0.3-1.8,0.6-2.5,1c-0.7,0.4-1.2,0.9-1.6,1.5c-0.4,0.6-0.6,1.1-0.6,1.7v21.6h-5.5V23.6z"/>
	<path fill="#00A78E" d="M72.4,30.8c-0.7-0.9-1.8-1.7-3.2-2.4c-1.4-0.7-2.9-1-4.5-1c-0.6,0-1.2,0.1-1.9,0.2
		c-0.7,0.1-1.3,0.3-1.9,0.6c-0.6,0.3-1.1,0.7-1.5,1.2c-0.4,0.5-0.6,1.2-0.6,2c0,0.7,0.2,1.3,0.5,1.8c0.3,0.5,0.8,0.9,1.4,1.2
		s1.3,0.6,2,0.9c0.8,0.2,1.6,0.5,2.5,0.7c1.3,0.3,2.6,0.7,3.8,1.1c1.2,0.5,2.3,1,3.2,1.8c0.9,0.7,1.7,1.6,2.2,2.7
		c0.5,1.1,0.8,2.4,0.8,4c0,1.6-0.3,3-1,4.2c-0.6,1.2-1.5,2.2-2.6,3c-1.1,0.8-2.4,1.4-3.8,1.8c-1.5,0.4-3,0.6-4.5,0.6
		c-1.5,0-2.9-0.1-4.1-0.4c-1.2-0.2-2.2-0.5-3.1-0.9c-1.1-0.4-1.8-0.9-2.3-1.3c-0.4-0.5-0.6-0.9-0.6-1.4c0-0.6,0.2-1.1,0.5-1.8
		c0.3-0.6,0.7-1.3,1.2-2.1c0.3,0.3,0.7,0.6,1.3,0.9c0.5,0.4,1.2,0.7,2,1.1c0.8,0.4,1.6,0.7,2.5,0.9c0.9,0.2,1.9,0.4,2.9,0.4
		c0.8,0,1.5-0.1,2.3-0.2c0.7-0.2,1.4-0.4,2-0.7s1.1-0.8,1.4-1.4c0.4-0.6,0.6-1.4,0.6-2.3s-0.2-1.7-0.6-2.2s-0.9-1.1-1.6-1.5
		s-1.4-0.7-2.2-0.9c-0.8-0.2-1.6-0.4-2.4-0.6c-1.3-0.3-2.5-0.6-3.6-1c-1.1-0.4-2.2-1-3.1-1.7c-0.9-0.7-1.6-1.5-2.1-2.6
		c-0.5-1-0.8-2.3-0.8-3.8c0-1.4,0.3-2.7,0.9-3.8c0.6-1.1,1.4-2,2.5-2.7c1-0.7,2.2-1.3,3.5-1.6c1.3-0.4,2.7-0.6,4.1-0.6
		c1.6,0,3.2,0.2,4.5,0.5c1.4,0.3,2.5,0.8,3.3,1.2c0.9,0.5,1.5,0.9,1.8,1.3c0.3,0.4,0.5,0.8,0.5,1.2c0,0.5-0.1,1-0.4,1.7
		c-0.2,0.6-0.5,1.2-0.9,1.9L72.4,30.8z"/>
	<path fill="#00A78E" d="M82,23.4c0.3,0,0.6-0.1,0.7-0.1c0.2,0,0.3,0,0.4,0c1.3,0,2.4,0.3,3.2,1c0.8,0.6,1.2,1.8,1.2,3.4v15.1
		c0,1.7,0.1,3,0.4,4c0.2,1,0.7,1.8,1.5,2.3c0.6,0.5,1.4,0.8,2.1,1c0.8,0.2,1.6,0.3,2.6,0.3c1.2,0,2.2-0.2,3.2-0.5s1.8-0.7,2.5-1.2
		c0.7-0.5,1.2-1,1.6-1.5c0.4-0.5,0.6-1,0.6-1.5V23.4c0.3,0,0.6-0.1,0.7-0.1c0.2,0,0.3,0,0.4,0c1.3,0,2.4,0.3,3.2,1
		c0.8,0.6,1.2,1.8,1.2,3.4v26.5H102v-2.9c-0.9,1-2.1,1.9-3.6,2.7c-1.6,0.8-3.6,1.2-6,1.2c-2.5,0-4.5-0.4-5.8-1.2
		c-1.4-0.8-2.4-1.8-3.1-3c-0.7-1.2-1.1-2.5-1.2-4c-0.1-1.5-0.2-2.8-0.2-4.2V23.4z"/>
	<path fill="#00A78E" d="M117.2,23.6c0.3,0,0.6-0.1,0.8-0.1s0.3,0,0.4,0c1,0,1.9,0.2,2.7,0.7c0.8,0.5,1.3,1.3,1.5,2.5
		c0.6-0.9,1.5-1.8,2.7-2.6c1.2-0.8,2.6-1.2,4.2-1.2c0.5,0,1,0,1.5,0.1c0.5,0.1,1.1,0.2,1.5,0.4c0.5,0.2,0.9,0.5,1.2,0.8
		c0.3,0.3,0.5,0.8,0.5,1.4c0,0.7-0.2,1.4-0.5,2.2c-0.3,0.8-0.7,1.5-1,2c-0.6-0.5-1.2-0.9-1.8-1.2c-0.6-0.3-1.5-0.4-2.5-0.4
		c-0.7,0-1.4,0.1-2.1,0.4c-0.7,0.2-1.3,0.6-1.8,1c-0.5,0.4-0.9,0.9-1.2,1.4c-0.3,0.5-0.5,1.1-0.5,1.6v21.6h-5.5V23.6z"/>
	<path fill="#00A78E" d="M140.9,30.5c-0.3-0.6-0.6-1.2-0.9-1.8c-0.2-0.7-0.4-1.2-0.4-1.6c0-0.6,0.3-1.1,1-1.6
		c0.7-0.5,1.6-0.9,2.7-1.3c1.1-0.4,2.3-0.7,3.7-0.9c1.3-0.2,2.7-0.3,4-0.3c2.2,0,4.1,0.2,5.5,0.7c1.5,0.5,2.7,1.2,3.6,2.1
		c0.9,1,1.5,2.1,1.9,3.6c0.4,1.4,0.6,3.1,0.6,4.9v12.8c0,1,0,1.9,0.1,2.4c0.1,0.6,0.2,1,0.5,1.3c0.2,0.3,0.6,0.5,1,0.6
		c0.4,0.1,0.9,0.1,1.6,0.1v2.6c-0.4,0.1-0.9,0.2-1.4,0.3c-0.6,0.1-1.1,0.1-1.8,0.1c-1.3,0-2.5-0.3-3.5-0.8c-1-0.5-1.6-1.5-1.8-2.9
		c-1.1,1.1-2.4,2-3.9,2.8c-1.5,0.8-3.5,1.1-6,1.1c-1.1,0-2.3-0.1-3.4-0.4c-1.1-0.3-2.2-0.7-3.1-1.4c-0.9-0.7-1.7-1.6-2.3-2.8
		c-0.6-1.2-0.9-2.7-0.9-4.5c0-2.3,0.6-4.1,1.7-5.5c1.1-1.4,2.6-2.6,4.3-3.4c1.7-0.8,3.5-1.4,5.4-1.7c1.9-0.3,3.7-0.5,5.3-0.5
		c0.4,0,0.8,0,1.4,0s1,0,1.4,0.1v-1c0-2-0.5-3.4-1.4-4.5c-0.9-1-2.7-1.5-5.4-1.5c-1.9,0-3.6,0.2-4.9,0.7c-1.3,0.5-2.6,1.2-3.9,2
		H140.9z M157.2,38.8h-1.9c-1.4,0-2.8,0.1-4.2,0.3c-1.4,0.2-2.7,0.5-3.9,1c-1.2,0.5-2.1,1.1-2.9,2c-0.7,0.9-1.1,2-1.1,3.3
		c0,1.3,0.4,2.4,1.2,3.4c0.8,1,2.2,1.5,4.4,1.5c1.1,0,2.2-0.2,3.2-0.5c1-0.3,1.9-0.7,2.7-1.2c0.8-0.5,1.4-1,1.9-1.6
		c0.5-0.6,0.7-1.1,0.7-1.6V38.8z"/>
	<path fill="#00A78E" d="M172.6,23.6c0.3,0,0.5-0.1,0.7-0.1c0.2,0,0.3,0,0.4,0c1,0,1.9,0.2,2.7,0.7c0.8,0.5,1.3,1.4,1.5,2.6
		c1-1,2.4-1.9,4.1-2.7c1.7-0.8,3.7-1.2,6.1-1.2c2.9,0,5.2,0.6,6.8,1.9c1.6,1.3,2.6,2.9,3.1,4.9c0.2,0.9,0.3,1.8,0.4,2.9
		c0,1.1,0.1,2.1,0.1,3.1v18.5h-5.5V36c0-0.8,0-1.6,0-2.4c0-0.8-0.1-1.5-0.4-2.1c-0.3-1.1-1-2-1.9-2.6c-0.9-0.6-2.3-0.9-4.2-0.9
		c-1.3,0-2.4,0.1-3.4,0.4c-1,0.3-1.8,0.6-2.5,1c-0.7,0.4-1.2,0.9-1.6,1.5c-0.4,0.6-0.6,1.1-0.6,1.7v21.6h-5.5V23.6z"/>
	<path fill="#00A78E" d="M228.8,31.4c-0.7-0.9-1.7-1.7-2.9-2.4c-1.2-0.8-2.8-1.1-4.7-1.1c-1.6,0-3.1,0.3-4.2,0.8
		c-1.2,0.6-2.1,1.4-2.9,2.4c-0.8,1-1.3,2.2-1.7,3.6c-0.3,1.4-0.5,2.8-0.5,4.4c0,1.6,0.2,3.1,0.5,4.5c0.3,1.4,0.9,2.6,1.7,3.7
		c0.8,1,1.7,1.9,3,2.5c1.2,0.6,2.7,0.9,4.4,0.9c1.2,0,2.2-0.2,3.2-0.6c0.9-0.4,1.7-0.8,2.4-1.3c0.9-0.6,1.6-1.2,2.1-1.8
		c0.2,0.2,0.4,0.4,0.6,0.7c0.2,0.3,0.5,0.6,0.7,0.9c0.2,0.3,0.4,0.7,0.6,1c0.2,0.3,0.2,0.7,0.2,1c0,0.6-0.5,1.3-1.4,2.1
		c-0.8,0.7-2,1.4-3.5,1.9c-1.5,0.5-3.4,0.8-5.6,0.8c-1.4,0-2.9-0.2-4.6-0.6c-1.7-0.4-3.2-1.2-4.7-2.3s-2.7-2.8-3.7-4.9
		c-1-2.1-1.5-4.9-1.5-8.4c0-3.2,0.5-5.8,1.6-7.9s2.3-3.7,3.8-4.9c1.5-1.2,3.1-2,4.8-2.5c1.7-0.5,3.2-0.7,4.5-0.7
		c1.6,0,3,0.2,4.2,0.5s2.3,0.7,3.2,1.2c0.9,0.5,1.6,1,2,1.6c0.5,0.6,0.7,1.1,0.7,1.6c0,0.5-0.2,1.1-0.5,1.8c-0.3,0.7-0.7,1.2-1,1.7
		H228.8z"/>
	<path fill="#00A78E" d="M241,40c0.1,3.2,1,5.7,2.5,7.6c1.5,1.9,3.9,2.9,7.1,2.9c1.2,0,2.3-0.1,3.2-0.4c1-0.3,1.8-0.6,2.5-0.9
		s1.3-0.8,1.7-1.2c0.5-0.4,0.8-0.8,1.1-1.2c0.5,0.6,0.9,1.3,1.3,2c0.4,0.7,0.6,1.2,0.6,1.6c0,0.3-0.1,0.7-0.3,1.1
		c-0.2,0.4-0.6,0.7-1.1,1.1c-1,0.7-2.3,1.4-3.8,1.9c-1.6,0.5-3.4,0.7-5.7,0.7c-2,0-4-0.3-5.8-0.9c-1.8-0.6-3.4-1.5-4.7-2.8
		c-1.3-1.3-2.4-3-3.2-5.1s-1.2-4.7-1.2-7.7c0-2.7,0.4-5.1,1.2-7.1c0.8-2,1.9-3.6,3.2-4.9c1.3-1.3,2.8-2.2,4.5-2.8
		c1.7-0.6,3.4-0.9,5.2-0.9c2.2,0,4.1,0.4,5.7,1.1c1.6,0.7,2.9,1.7,3.9,3c1,1.2,1.7,2.7,2.2,4.3c0.5,1.6,0.7,3.3,0.7,5
		c0,0.6,0,1.2,0,1.9c0,0.6-0.1,1.2-0.2,1.8H241z M256.2,35.8c0-1.2-0.1-2.3-0.4-3.2c-0.2-1-0.6-1.9-1.2-2.6
		c-0.6-0.8-1.3-1.4-2.2-1.8c-0.9-0.4-2.1-0.6-3.4-0.6c-2.3,0-4.1,0.7-5.6,2.2c-1.5,1.5-2.3,3.5-2.4,6.1H256.2z"/>
	<path fill="#00A78E" d="M303.3,31.4c-0.7-0.9-1.7-1.7-2.9-2.4c-1.2-0.8-2.8-1.1-4.7-1.1c-1.6,0-3.1,0.3-4.2,0.8
		c-1.2,0.6-2.1,1.4-2.9,2.4c-0.8,1-1.3,2.2-1.7,3.6c-0.3,1.4-0.5,2.8-0.5,4.4c0,1.6,0.2,3.1,0.5,4.5c0.3,1.4,0.9,2.6,1.7,3.7
		c0.8,1,1.7,1.9,3,2.5c1.2,0.6,2.7,0.9,4.4,0.9c1.2,0,2.2-0.2,3.2-0.6c0.9-0.4,1.7-0.8,2.4-1.3c0.9-0.6,1.6-1.2,2.1-1.8
		c0.2,0.2,0.4,0.4,0.6,0.7c0.2,0.3,0.5,0.6,0.7,0.9c0.2,0.3,0.4,0.7,0.6,1c0.2,0.3,0.2,0.7,0.2,1c0,0.6-0.5,1.3-1.4,2.1
		c-0.8,0.7-2,1.4-3.5,1.9c-1.5,0.5-3.4,0.8-5.6,0.8c-1.4,0-2.9-0.2-4.6-0.6c-1.7-0.4-3.2-1.2-4.7-2.3s-2.7-2.8-3.7-4.9
		c-1-2.1-1.5-4.9-1.5-8.4c0-3.2,0.5-5.8,1.6-7.9s2.3-3.7,3.8-4.9c1.5-1.2,3.1-2,4.8-2.5c1.7-0.5,3.2-0.7,4.5-0.7
		c1.6,0,3,0.2,4.2,0.5s2.3,0.7,3.2,1.2c0.9,0.5,1.6,1,2,1.6c0.5,0.6,0.7,1.1,0.7,1.6c0,0.5-0.2,1.1-0.5,1.8c-0.3,0.7-0.7,1.2-1,1.7
		H303.3z"/>
	<path fill="#00A78E" d="M338.4,38.8c0,2.1-0.3,4.2-0.8,6.1c-0.5,2-1.4,3.7-2.5,5.2c-1.1,1.5-2.6,2.7-4.5,3.6
		c-1.8,0.9-4,1.4-6.6,1.4c-2.6,0-4.7-0.4-6.6-1.3s-3.3-2-4.4-3.5c-1.1-1.5-2-3.2-2.5-5.1c-0.5-2-0.8-4.1-0.8-6.3
		c0-2.2,0.3-4.2,0.9-6.2c0.6-2,1.5-3.7,2.7-5.1c1.2-1.5,2.7-2.6,4.5-3.5c1.8-0.9,3.9-1.3,6.3-1.3c2.5,0,4.7,0.4,6.5,1.3
		c1.8,0.9,3.3,2,4.4,3.5c1.1,1.5,2,3.1,2.5,5C338.1,34.7,338.4,36.7,338.4,38.8z M332.5,38.9c0-1.3-0.1-2.7-0.4-4
		c-0.2-1.3-0.7-2.5-1.3-3.6c-0.6-1.1-1.5-1.9-2.5-2.6c-1.1-0.6-2.5-1-4.2-1c-1.6,0-3,0.3-4.1,1c-1.1,0.7-2,1.5-2.6,2.6
		c-0.6,1.1-1.1,2.3-1.4,3.6c-0.3,1.3-0.4,2.7-0.4,4c0,1.3,0.1,2.7,0.4,4.1c0.2,1.4,0.7,2.6,1.3,3.7c0.7,1.1,1.5,2,2.6,2.8
		c1.1,0.7,2.5,1.1,4.2,1.1c1.7,0,3.2-0.4,4.3-1.1s2-1.6,2.6-2.7c0.6-1.1,1-2.3,1.3-3.7C332.4,41.6,332.5,40.2,332.5,38.9z"/>
	<path fill="#00A78E" d="M363,30.8c-0.7-0.9-1.8-1.7-3.2-2.4c-1.4-0.7-2.9-1-4.5-1c-0.6,0-1.2,0.1-1.9,0.2c-0.7,0.1-1.3,0.3-1.9,0.6
		c-0.6,0.3-1.1,0.7-1.5,1.2c-0.4,0.5-0.6,1.2-0.6,2c0,0.7,0.2,1.3,0.5,1.8c0.3,0.5,0.8,0.9,1.4,1.2s1.3,0.6,2,0.9
		c0.8,0.2,1.6,0.5,2.5,0.7c1.3,0.3,2.6,0.7,3.8,1.1c1.2,0.5,2.3,1,3.2,1.8c0.9,0.7,1.7,1.6,2.2,2.7c0.5,1.1,0.8,2.4,0.8,4
		c0,1.6-0.3,3-1,4.2c-0.6,1.2-1.5,2.2-2.6,3c-1.1,0.8-2.4,1.4-3.8,1.8c-1.5,0.4-3,0.6-4.5,0.6c-1.5,0-2.9-0.1-4.1-0.4
		c-1.2-0.2-2.2-0.5-3.1-0.9c-1.1-0.4-1.8-0.9-2.3-1.3c-0.4-0.5-0.7-0.9-0.7-1.4c0-0.6,0.2-1.1,0.5-1.8c0.3-0.6,0.7-1.3,1.2-2.1
		c0.3,0.3,0.7,0.6,1.3,0.9s1.2,0.7,2,1.1c0.8,0.4,1.6,0.7,2.5,0.9c0.9,0.2,1.9,0.4,2.9,0.4c0.8,0,1.5-0.1,2.3-0.2
		c0.7-0.2,1.4-0.4,2-0.7s1.1-0.8,1.4-1.4c0.4-0.6,0.6-1.4,0.6-2.3s-0.2-1.7-0.6-2.2c-0.4-0.6-0.9-1.1-1.6-1.5s-1.4-0.7-2.2-0.9
		s-1.6-0.4-2.4-0.6c-1.3-0.3-2.5-0.6-3.6-1c-1.1-0.4-2.2-1-3.1-1.7c-0.9-0.7-1.6-1.5-2.1-2.6c-0.5-1-0.8-2.3-0.8-3.8
		c0-1.4,0.3-2.7,0.9-3.8c0.6-1.1,1.4-2,2.5-2.7c1-0.7,2.2-1.3,3.5-1.6c1.3-0.4,2.7-0.6,4.1-0.6c1.6,0,3.2,0.2,4.5,0.5
		c1.4,0.3,2.5,0.8,3.3,1.2c0.9,0.5,1.5,0.9,1.8,1.3c0.3,0.4,0.5,0.8,0.5,1.2c0,0.5-0.1,1-0.4,1.7c-0.2,0.6-0.5,1.2-0.9,1.9L363,30.8
		z"/>
	<path fill="#00A78E" d="M372.8,14.3c0.3,0,0.6-0.1,0.7-0.1c0.2,0,0.3,0,0.4,0c1.3,0,2.4,0.3,3.2,1c0.8,0.7,1.2,1.8,1.2,3.4v5h9.7
		v4.7h-9.7v16.8c0,3.6,1.4,5.3,4.2,5.3c0.7,0,1.3-0.1,2-0.4c0.6-0.2,1.2-0.5,1.7-0.8s0.9-0.6,1.2-0.9c0.3-0.3,0.5-0.5,0.6-0.7
		c0.5,0.7,1,1.3,1.3,1.9c0.4,0.6,0.6,1.2,0.6,1.8c0,0.4-0.2,0.8-0.6,1.3s-0.9,0.9-1.6,1.3c-0.7,0.4-1.5,0.7-2.6,1
		c-1,0.3-2.1,0.4-3.3,0.4c-2.3,0-4.1-0.4-5.4-1.3c-1.3-0.9-2.3-2.1-2.9-3.6c-0.3-0.8-0.5-1.7-0.6-2.7c-0.1-1-0.1-1.9-0.1-2.9V14.3z"
		/>
</g>
</svg>
