<?xml version="1.0" encoding="utf-8"?>
<!-- Generator: Adobe Illustrator 17.1.0, SVG Export Plug-In . SVG Version: 6.00 Build 0)  -->
<!DOCTYPE svg PUBLIC "-//W3C//DTD SVG 1.1//EN" "http://www.w3.org/Graphics/SVG/1.1/DTD/svg11.dtd">
<svg version="1.1" id="Layer_1" xmlns="http://www.w3.org/2000/svg" xmlns:xlink="http://www.w3.org/1999/xlink" x="0px" y="0px"
	 viewBox="0 0 772.9 698.4" enable-background="new 0 0 772.9 698.4" xml:space="preserve">
<path fill="#00A78E" d="M384.8,368.2h243.1v81.1H384.8V368.2z M397.8,517.7h223.3V666H397.8V517.7z"/>
<text transform="matrix(1 0 0 1 584.61 423.647)" fill="#62BB46" font-family="'Foco-Bold'" font-size="49.038">$</text>
<text transform="matrix(1 0 0 1 522.333 423.647)" fill="#62BB46" font-family="'Foco-Bold'" font-size="49.038">$</text>
<text transform="matrix(1 0 0 1 460.055 423.647)" fill="#62BB46" font-family="'Foco-Bold'" font-size="49.038">$</text>
<text transform="matrix(1 0 0 1 397.776 423.647)" fill="#62BB46" font-family="'Foco-Bold'" font-size="49.038">$</text>
<path fill="#FFFFFF" d="M354.5,682H671c4.6,0,7.5-2.9,7.5-6.5V603c0-4.3-1.2-8.5-3.4-12.1l-54.6-89.4c-2.1-3.5-5.9-5.6-10-5.6h-38.1
	v-35.3h51c16.2,0,29.3-13.1,29.3-29.3v-48.8c0-16.2-13.1-29.3-29.3-29.3H388.3c-16.2,0-29.3,13.1-29.3,29.3v48.8
	c0,16.2,13.1,29.3,29.3,29.3h118.5v35.3h-90c-4.1,0-7.8,2.1-10,5.6l-54.6,89.4c-2.2,3.6-3.4,7.9-3.4,12.1v72.4
	c0,3.6,2.9,6.5,6.5,6.5 M383.4,431.3v-48.8c0-2.7,2.2-4.9,4.9-4.9h235.2c2.7,0,4.9,2.2,4.9,4.9v48.8c0,2.7-2.2,4.9-4.9,4.9H388.3
	C385.6,436.2,383.4,434,383.4,431.3 M598.5,559.3l2.3,5.4c1.3,3.1-0.2,5.7-3.5,5.7h-30.4c-3.3,0-6.4-2.6-7-5.7l-1.1-5.4
	c-0.6-2.8,1.4-5.1,4.4-5.1H591C593.9,554.2,597.3,556.5,598.5,559.3 M582,528c2.6,0,5.4,1.7,6.3,3.8l1.7,4c1,2.3-0.5,4.2-3.3,4.2
	h-26c-2.8,0-5.4-1.9-5.9-4.2l-0.8-4c-0.4-2.1,1.3-3.8,3.9-3.8H582z M498,531.8c0.2-2.1,2.5-3.8,5.1-3.8h24.1c2.6,0,4.9,1.7,5.1,3.8
	l0.4,4c0.3,2.3-1.8,4.2-4.6,4.2h-26c-2.8,0-4.8-1.9-4.6-4.2L498,531.8L498,531.8z M494.6,564.7l0.6-5.4c0.3-2.8,3-5.1,6-5.1H529
	c3,0,5.6,2.2,6,5.1l0.6,5.4c0.3,3.1-2,5.7-5.3,5.7h-30.4C496.6,570.5,494.2,567.9,494.6,564.7 M437.6,535.8l1.7-4
	c0.9-2.1,3.7-3.8,6.3-3.8h24.1c2.6,0,4.3,1.7,3.9,3.8l-0.8,4c-0.5,2.3-3.1,4.2-5.9,4.2h-26C438,540,436.6,538.1,437.6,535.8
	 M426.7,564.7l2.3-5.4c1.2-2.8,4.6-5.1,7.5-5.1h27.8c3,0,5,2.2,4.4,5.1l-1.1,5.4c-0.6,3.1-3.8,5.7-7,5.7h-30.4
	C426.9,570.5,425.4,567.9,426.7,564.7 M413.7,621.9h84.2c0.3-8.5,7.3-15.4,15.9-15.4c8.6,0,15.6,6.8,15.9,15.4h84.1v32.5H413.7
	V621.9z M164.5,130.3c0,0,2.2-20,8.4-14.4c5.1,4.6,7.5,26,4.4,40.9c-1.4,6.7-9.3,14.2-12.6,10.9
	C161.4,164.5,164.5,130.3,164.5,130.3 M31.2,126.9c0,0-2.9-19.9-9.5-14.2c-6.9,6-6.2,31.7-3.9,41c1.7,6.6,10.5,13.9,14,10.6
	C35.4,161,31.2,126.9,31.2,126.9"/>
<path fill="#FFFFFF" d="M28.1,98.7c0.1,7-4.5,63.3,15.1,87.9c11.2,14,26.8,27.5,35.8,29.6c14.8,3.5,24.4,6.1,37.4,3.3
	s32.2-16.4,44-42.7c5.6-12.5,20.9-110.7-7.4-138.4c-18.5-18.2-59.1-15.9-74.9-15.2C62.3,24,27.4,29.6,28.1,98.7 M91.1,674.5
	c0,0-2.5-19.2-41.9-17.5c-39.3,1.7-42.4,14.4-43.9,17.8 M48.5,674.6l-7.4-212.1h110.5l19.5,212.1H126l-22-171.9
	c0-4.5-1.6-8.2-6.7-8.2s-6.7,3.7-6.7,8.2v171.9C90.6,674.6,48.5,674.6,48.5,674.6z"/>
<path fill="#00A78E" d="M125,122c0,3.8,3.1,6.9,7,6.9s7-3.1,7-6.9s-3.1-6.9-7-6.9S125,118.2,125,122"/>
<path fill="#00A78E" d="M152.9,123.7c-0.1-0.1-9.6-9.1-20.9-9.1c-5.8,0-12.1,2.5-17.6,9.8l1.7,2c5.1-6.7,10.6-8.9,15.9-8.9
	c5.2,0,10.1,2.1,13.7,4.3c1.8,1.1,3.3,2.2,4.3,3c0.5,0.4,0.9,0.7,1.2,1l0.4,0.4C151.6,126.2,152.9,123.7,152.9,123.7z"/>
<path fill="#FFFFFF" d="M130.2,121.8c0,1.3-0.7,2.4-1.6,2.4c-0.9,0-1.6-1.1-1.6-2.4s0.7-2.4,1.6-2.4
	C129.5,119.4,130.2,120.5,130.2,121.8"/>
<path fill="#00A78E" d="M77.7,122c0,3.8-3.1,6.9-7,6.9s-7-3.1-7-6.9s3.1-6.9,7-6.9S77.7,118.2,77.7,122"/>
<path fill="#00A78E" d="M51.2,126.1l0.4-0.4c1.8-1.6,10.1-8.2,19.1-8.2c5.3,0,10.9,2.2,15.9,8.9l1.7-2c-5.5-7.3-11.8-9.8-17.6-9.8
	c-11.3,0-20.8,9.1-20.9,9.1C49.8,123.7,51.2,126.1,51.2,126.1z"/>
<path fill="#FFFFFF" d="M68,121.8c0,1.3-0.7,2.4-1.6,2.4s-1.6-1.1-1.6-2.4s0.7-2.4,1.6-2.4S68,120.5,68,121.8"/>
<path fill="#00A78E" d="M82.4,91.4c0,0,8.9,7.9,1.4,9.3s-19.7-1.2-25.2,0s-16.1,5.4-16.1,5.4l-0.7-4.5
	C41.9,101.6,56.5,87.8,82.4,91.4 M119.6,84.2c0,0-8.6,7.6-1.1,9.3c7.5,1.7,19.7-0.5,25.2,0.9s16.3,6,16.3,6l0.5-4.5
	C160.5,95.8,145.5,81.5,119.6,84.2 M92.9,158.7c0,0,0.6,0.1,1.5,0.3c1,0.2,2.3,0.4,4,0.6c1.6,0.2,3.6,0.4,5.4,0.2
	c0.9-0.1,1.8-0.4,2.2-0.9c0.1-0.1,0.1-0.1,0.1-0.2s0.1-0.1,0.1-0.2v-0.1v0.1v-0.1l0.1-0.4l0.1-0.4v-0.4l0.1-0.7
	c0.1-1,0.1-2.1,0.1-3.2s0-2.1-0.1-3.2c-0.1-2.1-0.2-4-0.3-5.7c-0.2-3.3-0.3-5.6-0.3-5.6s0.8,2.1,1.6,5.4c0.2,0.8,0.4,1.7,0.6,2.7
	s0.4,2,0.5,3c0.1,1.1,0.3,2.1,0.3,3.3c0.1,1.1,0.1,2.3,0,3.5c-0.1,0.6-0.2,1.4-0.3,1.8l-0.1,0.4v0.2l-0.1,0.3
	c-0.1,0.2-0.2,0.4-0.3,0.5c-0.1,0.2-0.2,0.3-0.4,0.5c-0.5,0.6-1.2,0.9-1.9,1.1c-0.6,0.2-1.2,0.3-1.8,0.3c-1.2,0.1-2.2-0.1-3.2-0.2
	c-1-0.2-1.9-0.4-2.7-0.7c-1.6-0.5-2.9-1.1-3.8-1.5S92.9,158.7,92.9,158.7 M124,182.9c0,0-24.8-10.3-45-1.6
	C81.8,175.4,108.8,160.7,124,182.9"/>
<path fill="#00A78E" d="M25.1,111c0,0-13-33.6-10.4-47.1s9.3-25.6,33-47.1c15.5-14.1,42.9-16.5,46-13c4.6,5.3,12.6,7.6,18.4,0.8
	c5.8-6.7,26.2-2.4,23.6,3.1c10.9-6.3,18.5,5.4,18.5,5.4s41.1,5.2,18.7,111.7c-2,9.4-4.3,20-4.3,20c-8.3,0.5-0.9-12.4,0.4-51.7
	c1.8-54.1-48.5-42.3-67.1-44.4c-22.5-2.5-60.3-5.5-67,23.6c-6.8,29-3.7,68.1-3.7,68.1l-6.2,6.3V111H25.1z"/>
<path fill="none" stroke="#FFFFFF" stroke-width="2.383" stroke-miterlimit="10" d="M25.1,111c0,0-13-33.6-10.4-47.1
	s9.3-25.6,33-47.1c15.5-14.1,42.9-16.5,46-13c4.6,5.3,12.6,7.6,18.4,0.8c5.8-6.7,26.2-2.4,23.6,3.1c10.9-6.3,18.5,5.4,18.5,5.4
	s41.1,5.2,18.7,111.7c-2,9.4-4.3,20-4.3,20c-8.3,0.5-0.9-12.4,0.4-51.7c1.8-54.1-48.5-42.3-67.1-44.4c-22.5-2.5-60.3-5.5-67,23.6
	c-6.8,29-3.7,68.1-3.7,68.1l-6.2,6.3V111H25.1z"/>
<path fill="#FFFFFF" d="M84.1,221.1c0,0,0.5,19.1-8.5,24.4c-8.1,4.7-11.7,5.8-11.7,5.8s39.6,15.9,71.2,3
	c-17-4.6-15.9-10.5-15.9-10.5l-3-19.8C116.2,224,84.1,221.1,84.1,221.1z"/>
<path fill="none" stroke="#00A78E" stroke-width="2.862" stroke-miterlimit="10" d="M84.1,221.1c0,0,0.5,19.1-8.5,24.4
	c-8.1,4.7-11.7,5.8-11.7,5.8s39.6,15.9,71.2,3c-17-4.6-15.9-10.5-15.9-10.5l-3-19.8C116.2,224,84.1,221.1,84.1,221.1z"/>
<path fill="#FFFFFF" d="M195,335.7l-39.6,9.1l-4.4-18.7l4.6,45.9c0.6,7.8,0.9,33.1-0.9,56l-3.9,30.5H42.5l-4-35.8
	c-1.2-18.9,0.1-47,0.8-54.2l6.3-42.8l-5.2,17.6l-38-9c0,0,4-13.9,17.7-43.3c13.6-29.4,43.8-39.8,43.8-39.8l36.4,5.8l34.8-2.8
	c0,0,32.2,8.1,45.9,37.6c13.6,29.5,13.6,43.6,13.6,43.6"/>
<path fill="none" stroke="#00A78E" stroke-width="2.383" stroke-miterlimit="10" d="M195,335.7l-39.6,9.1l-4.4-18.7l4.6,45.9
	c0.6,7.8,0.9,33.1-0.9,56l-3.9,30.5H42.5l-4-35.8c-1.2-18.9,0.1-47,0.8-54.2l6.3-42.8l-5.2,17.6l-38-9c0,0,4-13.9,17.7-43.3
	c13.6-29.4,43.8-39.8,43.8-39.8l36.4,5.8l34.8-2.8c0,0,32.2,8.1,45.9,37.6c13.6,29.5,13.6,43.6,13.6,43.6"/>
<path fill="#FFFFFF" d="M34.9,478.2c1.5,3.3,2,6.5-2.1,6.3l-1.1-1.6l-6.8-9.4l-1.9,2.6c-1.1,1.5-1.4,3.4-0.7,5.1
	c0.5,1.3,1.2,2.9,1.6,3.9c0.3,0.8,0.9,1.4,1.7,1.9l4.7,3.3c1.1,0.8,0.6,1.8,0.3,2.7l-0.7,0.6c-1,0.9-2.7,1-3.9,0.2l-5.2-3.7
	c-0.5-0.1-1-0.4-1.2-0.8L11.5,477c-0.5-0.7-1.3-4.2-1.1-5l3.5-13.4c0.1-0.4,0.3-3.2,0.2-3.6L1.2,398.5v-10c0,0,1.5-50.2,4.6-49.5
	l30.6,6.7c2.4,0.5-5,26.6-5,26.6c-3.3,12.6-4.5,17-5.3,24.5l3.5,61.4c0,0.3,0,0.6,0.1,0.9L34.9,478.2z"/>
<path fill="none" stroke="#00A78E" stroke-width="2.383" stroke-miterlimit="10" d="M34.9,478.2c1.5,3.3,2,6.5-2.1,6.3l-1.1-1.6
	l-6.8-9.4l-1.9,2.6c-1.1,1.5-1.4,3.4-0.7,5.1c0.5,1.3,1.2,2.9,1.6,3.9c0.3,0.8,0.9,1.4,1.7,1.9l4.7,3.3c1.1,0.8,0.6,1.8,0.3,2.7
	l-0.7,0.6c-1,0.9-2.7,1-3.9,0.2l-5.2-3.7c-0.5-0.1-1-0.4-1.2-0.8L11.5,477c-0.5-0.7-1.3-4.2-1.1-5l3.5-13.4c0.1-0.4,0.3-3.2,0.2-3.6
	L1.2,398.5v-10c0,0,1.5-50.2,4.6-49.5l30.6,6.7c2.4,0.5-5,26.6-5,26.6c-3.3,12.6-4.5,17-5.3,24.5l3.5,61.4c0,0.3,0,0.6,0.1,0.9
	L34.9,478.2z"/>
<path fill="#FFFFFF" d="M169,496.2c-1.1,0-2.2-0.4-3-1.2l-0.9-0.8l-0.2-0.5c-0.3-0.8-0.8-2.6,0.9-3.8l4.8-3.2
	c0.7-0.4,1.1-0.8,1.3-1.4l1.7-3.9c0.6-1.3,0.4-2.7-0.5-4l-0.9-1.3l-6.1,7.9l-1.5,2H164c-1.9,0-3.1-0.5-3.8-1.6
	c-0.9-1.4-0.7-3.4,0.7-6.4l6.1-19c0.1-0.2,0.1-0.4,0.1-0.6l5-61.2c-0.5-3.4-1.5-8.1-3.1-13.8c-0.1-0.2-0.1-0.4-0.1-0.5
	c-4-12.9-10.5-34.8-8.9-37.4c0.2-0.4,0.6-0.6,1-0.7l30.8-6.1h0.2c1.5,0,3,0,5.5,25.9c1.2,12.3,2,24.7,2,24.9v0.1l-0.3,10.1
	L185,456.4c0,0.3,0.1,2.6,0.1,3.1l3.1,13.4v0.1c0.2,1.2-0.8,4.9-1.5,5.8l-8.4,12.1c-0.4,0.6-1,1-1.7,1.2l-5.1,3.5
	C170.7,496,169.9,496.2,169,496.2"/>
<path fill="#00A78E" d="M192,339.9c3.1,0,6.3,49.6,6.3,49.6l-0.3,10L183.7,456c-0.1,0.4,0.1,3.2,0.1,3.6l3.1,13.4
	c0.1,0.8-0.8,4.2-1.3,5l-8.4,12.1c-0.3,0.4-0.7,0.6-1.2,0.8l-5.3,3.6c-0.5,0.3-1.2,0.5-1.8,0.5c-0.8,0-1.6-0.3-2.1-0.8l-0.7-0.6
	c-0.3-0.9-0.8-1.9,0.4-2.7l4.8-3.2c0.8-0.5,1.5-1.1,1.8-1.9c0.4-1,1.1-2.6,1.7-3.9c0.7-1.7,0.5-3.6-0.6-5.1l-1.9-2.6l-7.1,9.2
	l-1.2,1.5h-0.1c-4,0-3.4-3.1-1.8-6.4l5.8-19.1c0.1-0.3,0.1-0.6,0.2-0.9l5-61.3c-0.8-6.1-3.2-14.4-3.3-14.7c0,0-11.2-36.1-8.9-36.6
	L192,339.9 M192,337.5c-0.2,0-0.4,0-0.5,0.1l-30.7,6.1c-0.8,0.2-1.4,0.6-1.8,1.3c-0.7,1.2-1.5,2.5,3.7,21c2.3,8.3,4.8,16.4,5.1,17.3
	c0,0.1,0.1,0.3,0.2,0.6c1.5,5.6,2.5,10.2,3,13.5l-5,61c0,0.1,0,0.3-0.1,0.3l-5.8,19c-1,2.1-2.1,5.1-0.6,7.5c0.6,1,1.9,2.2,4.7,2.2
	h1.3l0.7-0.9l1.2-1.5l5.1-6.6c0.6,0.9,0.7,1.9,0.3,2.8c-0.6,1.3-1.2,2.9-1.7,3.9c-0.1,0.3-0.4,0.5-0.8,0.7h-0.2l-4.8,3.2
	c-2.5,1.7-1.7,4.2-1.4,5.2l0.1,0.2l0.2,0.6l0.4,0.4l0.7,0.6c1,0.9,2.3,1.5,3.8,1.5c1.1,0,2.2-0.3,3.1-0.9l5-3.4
	c0.9-0.3,1.7-0.8,2.2-1.6l8.4-12.1c0.8-1.1,1.9-5.2,1.7-6.7v-0.2l-3.1-13.3c0-0.5-0.1-2.2-0.1-2.7l14.2-56.4l0.1-0.3v-0.3l0.3-10
	v-0.2c0-0.1-0.8-12.6-2-24.9c-0.7-7.3-1.4-13-2.1-17.2C195.6,340.4,194.7,337.5,192,337.5"/>
<path fill="#FFFFFF" d="M234.9,660.9l-3.5-24.2c-1.6-10.9-11.7-18.5-22.6-17l-26.9,3.8L169.8,538c-0.5-3.3-3.5-5.6-6.8-5.1
	l-59.4,8.5c-3.3,0.5-5.6,3.5-5.1,6.8L119,691.7c0.5,3.3,3.5,5.6,6.8,5.1l59.4-8.5c0.5-0.1,1-0.2,1.5-0.4l31.3-4.5
	C228.8,681.9,236.4,671.7,234.9,660.9"/>
<path fill="none" stroke="#00A78E" stroke-width="3" stroke-miterlimit="10" d="M234.9,660.9l-3.5-24.2c-1.6-10.9-11.7-18.5-22.6-17
	l-26.9,3.8L169.8,538c-0.5-3.3-3.5-5.6-6.8-5.1l-59.4,8.5c-3.3,0.5-5.6,3.5-5.1,6.8L119,691.7c0.5,3.3,3.5,5.6,6.8,5.1l59.4-8.5
	c0.5-0.1,1-0.2,1.5-0.4l31.3-4.5C228.8,681.9,236.4,671.7,234.9,660.9L234.9,660.9z"/>
<path fill="#FFFFFF" d="M174.9,574.3c0,0-52.2-2.6-66.2,14.3c-17.1,20.6,34.6-52.9,34.6-52.9"/>
<path fill="none" stroke="#00A78E" stroke-width="3" stroke-miterlimit="10" d="M174.9,574.3c0,0-52.2-2.6-66.2,14.3
	c-17.1,20.6,34.6-52.9,34.6-52.9"/>
<path fill="#FFFFFF" d="M111.1,636.5c0,0,9.8-2.2,22.6-6.3c15.1-4.9,34.3-12.6,46-22.5"/>
<path fill="none" stroke="#00A78E" stroke-width="3" stroke-miterlimit="10" d="M111.1,636.5c0,0,9.8-2.2,22.6-6.3
	c15.1-4.9,34.3-12.6,46-22.5"/>
<path fill="#FFFFFF" d="M200.6,620.9c0,0-43.4,22.3-79.8,13.2"/>
<path fill="none" stroke="#00A78E" stroke-width="3" stroke-miterlimit="10" d="M200.6,620.9c0,0-43.4,22.3-79.8,13.2"/>
<path fill="#FFFFFF" d="M114.4,656.8c0,0,46.2,0.3,80.6,29.9"/>
<path fill="none" stroke="#00A78E" stroke-width="3" stroke-miterlimit="10" d="M114.4,656.8c0,0,46.2,0.3,80.6,29.9"/>
<path fill="#FFFFFF" d="M227.6,629.2c0,0-36.7,2.8-49.6,45.5"/>
<path fill="none" stroke="#00A78E" stroke-width="3" stroke-miterlimit="10" d="M227.6,629.2c0,0-36.7,2.8-49.6,45.5"/>
<path fill="#FFFFFF" d="M767.2,256.1H234.1v-85.4h533.1L767.2,256.1L767.2,256.1z M772.9,165H228.4v96.8h544.5V165z"/>
<path fill="#FFFFFF" d="M761.6,176.3H239.8v74.2h521.8v-69.9"/>
<g enable-background="new    ">
	<path fill="#00A78E" d="M310,190.2c0.3,0,0.5-0.1,0.8-0.1c0.3,0,0.6,0,0.8,0c0.4,0,0.9,0,1.3,0.1s0.9,0.3,1.3,0.6
		c0.4,0.3,0.7,0.7,1,1.2c0.3,0.5,0.4,1.2,0.5,2.1v39.6H310V190.2z"/>
	<path fill="#00A78E" d="M325.5,203.1c0.3,0,0.5-0.1,0.7-0.1c0.2,0,0.3,0,0.4,0c1,0,1.9,0.2,2.7,0.7c0.8,0.5,1.3,1.4,1.5,2.6
		c1-1,2.4-1.9,4.1-2.7c1.7-0.8,3.7-1.2,6.1-1.2c2.9,0,5.2,0.6,6.8,1.9c1.6,1.3,2.6,2.9,3.1,4.9c0.2,0.9,0.3,1.8,0.4,2.9
		c0,1.1,0.1,2.1,0.1,3.1v18.5h-5.5v-18.3c0-0.8,0-1.6,0-2.4c0-0.8-0.1-1.5-0.4-2.1c-0.3-1.1-1-2-1.9-2.6c-0.9-0.6-2.3-0.9-4.2-0.9
		c-1.3,0-2.4,0.1-3.4,0.4c-1,0.3-1.8,0.6-2.5,1c-0.7,0.4-1.2,0.9-1.6,1.5c-0.4,0.6-0.6,1.1-0.6,1.7v21.6h-5.5V203.1z"/>
</g>
<g enable-background="new    ">
	<path fill="#00A78E" d="M377.5,210.4c-0.7-0.9-1.8-1.7-3.2-2.4c-1.4-0.7-2.9-1-4.5-1c-0.6,0-1.2,0.1-1.9,0.2
		c-0.7,0.1-1.3,0.3-1.9,0.6c-0.6,0.3-1.1,0.7-1.5,1.2c-0.4,0.5-0.6,1.2-0.6,2c0,0.7,0.2,1.3,0.5,1.8c0.3,0.5,0.8,0.9,1.4,1.2
		s1.3,0.6,2,0.9c0.8,0.2,1.6,0.5,2.5,0.7c1.3,0.3,2.6,0.7,3.8,1.1c1.2,0.5,2.3,1,3.2,1.8c0.9,0.7,1.7,1.6,2.2,2.7
		c0.5,1.1,0.8,2.4,0.8,4c0,1.6-0.3,3-1,4.2c-0.6,1.2-1.5,2.2-2.6,3c-1.1,0.8-2.4,1.4-3.8,1.8c-1.5,0.4-3,0.6-4.5,0.6
		c-1.5,0-2.9-0.1-4.1-0.4c-1.2-0.2-2.2-0.5-3.1-0.9c-1.1-0.4-1.8-0.9-2.3-1.3c-0.4-0.5-0.6-0.9-0.6-1.4c0-0.6,0.2-1.1,0.5-1.8
		c0.3-0.6,0.7-1.3,1.2-2.1c0.3,0.3,0.7,0.6,1.3,0.9c0.5,0.4,1.2,0.7,2,1.1c0.8,0.4,1.6,0.7,2.5,0.9c0.9,0.2,1.9,0.4,2.9,0.4
		c0.8,0,1.5-0.1,2.3-0.2c0.7-0.2,1.4-0.4,2-0.7s1.1-0.8,1.4-1.4c0.4-0.6,0.6-1.4,0.6-2.3s-0.2-1.7-0.6-2.2s-0.9-1.1-1.6-1.5
		s-1.4-0.7-2.2-0.9c-0.8-0.2-1.6-0.4-2.4-0.6c-1.3-0.3-2.5-0.6-3.6-1c-1.1-0.4-2.2-1-3.1-1.7c-0.9-0.7-1.6-1.5-2.1-2.6
		c-0.5-1-0.8-2.3-0.8-3.8c0-1.4,0.3-2.7,0.9-3.8c0.6-1.1,1.4-2,2.5-2.7c1-0.7,2.2-1.3,3.5-1.6c1.3-0.4,2.7-0.6,4.1-0.6
		c1.6,0,3.2,0.2,4.5,0.5c1.4,0.3,2.5,0.8,3.3,1.2c0.9,0.5,1.5,0.9,1.8,1.3c0.3,0.4,0.5,0.8,0.5,1.2c0,0.5-0.1,1-0.4,1.7
		c-0.2,0.6-0.5,1.2-0.9,1.9L377.5,210.4z"/>
</g>
<g enable-background="new    ">
	<path fill="#00A78E" d="M387.1,202.9c0.3,0,0.6-0.1,0.7-0.1s0.3,0,0.4,0c1.3,0,2.3,0.3,3.2,1c0.8,0.6,1.2,1.8,1.2,3.4v15.1
		c0,1.7,0.1,3,0.4,4c0.2,1,0.7,1.8,1.5,2.3c0.6,0.5,1.4,0.8,2.1,1c0.8,0.2,1.6,0.3,2.6,0.3c1.2,0,2.2-0.2,3.2-0.5
		c1-0.3,1.8-0.7,2.5-1.2c0.7-0.5,1.2-1,1.6-1.5c0.4-0.5,0.6-1,0.6-1.5v-22.4c0.3,0,0.6-0.1,0.7-0.1c0.2,0,0.3,0,0.4,0
		c1.3,0,2.4,0.3,3.2,1c0.8,0.6,1.2,1.8,1.2,3.4v26.5h-5.5v-2.9c-0.9,1-2.1,1.9-3.6,2.7c-1.6,0.8-3.6,1.2-6,1.2
		c-2.5,0-4.5-0.4-5.8-1.2c-1.4-0.8-2.4-1.8-3.1-3s-1.1-2.5-1.2-4c-0.1-1.5-0.2-2.8-0.2-4.2V202.9z"/>
	<path fill="#00A78E" d="M422.3,203.1c0.3,0,0.6-0.1,0.8-0.1c0.2,0,0.3,0,0.4,0c1,0,1.9,0.2,2.7,0.7c0.8,0.5,1.3,1.3,1.5,2.5
		c0.6-0.9,1.5-1.8,2.7-2.6c1.2-0.8,2.6-1.2,4.2-1.2c0.5,0,1,0,1.5,0.1c0.5,0.1,1,0.2,1.5,0.4c0.5,0.2,0.9,0.5,1.2,0.8
		c0.3,0.3,0.5,0.8,0.5,1.4c0,0.7-0.2,1.4-0.5,2.2c-0.3,0.8-0.7,1.5-1,2c-0.6-0.5-1.2-0.9-1.8-1.2c-0.7-0.3-1.5-0.4-2.5-0.4
		c-0.7,0-1.4,0.1-2.1,0.4s-1.3,0.6-1.8,1c-0.5,0.4-0.9,0.9-1.2,1.4c-0.3,0.5-0.5,1.1-0.5,1.6v21.6h-5.5V203.1z"/>
	<path fill="#00A78E" d="M446,210.1c-0.3-0.6-0.6-1.2-0.9-1.8c-0.2-0.7-0.4-1.2-0.4-1.6c0-0.6,0.3-1.1,1-1.6
		c0.7-0.5,1.6-0.9,2.7-1.3c1.1-0.4,2.3-0.7,3.7-0.9c1.3-0.2,2.7-0.3,4-0.3c2.2,0,4.1,0.2,5.5,0.7c1.5,0.5,2.7,1.2,3.6,2.1
		c0.9,1,1.5,2.1,1.9,3.6s0.6,3.1,0.6,4.9v12.8c0,1,0,1.9,0.1,2.4s0.2,1,0.5,1.3c0.2,0.3,0.6,0.5,1,0.6c0.4,0.1,0.9,0.1,1.6,0.1v2.6
		c-0.4,0.1-0.9,0.2-1.4,0.3s-1.1,0.1-1.8,0.1c-1.3,0-2.5-0.3-3.5-0.8c-1-0.5-1.6-1.5-1.8-2.9c-1.1,1.1-2.4,2-3.9,2.8s-3.5,1.1-6,1.1
		c-1.1,0-2.3-0.1-3.4-0.4c-1.1-0.3-2.2-0.7-3.1-1.4c-0.9-0.7-1.7-1.6-2.3-2.8c-0.6-1.2-0.9-2.7-0.9-4.5c0-2.3,0.6-4.1,1.7-5.5
		c1.1-1.4,2.6-2.6,4.3-3.4c1.7-0.8,3.5-1.4,5.4-1.7c1.9-0.3,3.7-0.5,5.3-0.5c0.4,0,0.8,0,1.4,0c0.5,0,1,0,1.4,0.1v-1
		c0-2-0.5-3.4-1.4-4.5c-0.9-1-2.7-1.5-5.4-1.5c-2,0-3.6,0.2-4.9,0.7c-1.3,0.5-2.6,1.2-3.9,2H446z M462.3,218.4h-1.9
		c-1.4,0-2.8,0.1-4.2,0.3s-2.7,0.5-3.9,1c-1.2,0.5-2.1,1.1-2.9,2c-0.7,0.9-1.1,2-1.1,3.3c0,1.3,0.4,2.4,1.2,3.4
		c0.8,1,2.2,1.5,4.4,1.5c1.1,0,2.2-0.2,3.2-0.5c1-0.3,1.9-0.7,2.7-1.2c0.8-0.5,1.4-1,1.9-1.6c0.5-0.6,0.7-1.1,0.7-1.6V218.4z"/>
	<path fill="#00A78E" d="M477.6,203.1c0.3,0,0.5-0.1,0.7-0.1s0.3,0,0.4,0c1,0,1.9,0.2,2.7,0.7c0.8,0.5,1.3,1.4,1.5,2.6
		c1-1,2.3-1.9,4.1-2.7c1.7-0.8,3.7-1.2,6.1-1.2c2.9,0,5.2,0.6,6.8,1.9c1.6,1.3,2.6,2.9,3.1,4.9c0.2,0.9,0.3,1.8,0.4,2.9
		c0,1.1,0.1,2.1,0.1,3.1v18.5h-5.5v-18.3c0-0.8,0-1.6,0-2.4c0-0.8-0.1-1.5-0.4-2.1c-0.3-1.1-1-2-1.9-2.6c-0.9-0.6-2.3-0.9-4.2-0.9
		c-1.3,0-2.4,0.1-3.4,0.4c-1,0.3-1.8,0.6-2.5,1c-0.7,0.4-1.2,0.9-1.6,1.5c-0.4,0.6-0.6,1.1-0.6,1.7v21.6h-5.5V203.1z"/>
</g>
<g enable-background="new    ">
	<path fill="#00A78E" d="M533.9,210.9c-0.7-0.9-1.7-1.7-2.9-2.4c-1.2-0.8-2.8-1.1-4.7-1.1c-1.6,0-3.1,0.3-4.2,0.8
		c-1.2,0.6-2.1,1.4-2.9,2.4c-0.8,1-1.3,2.2-1.7,3.6c-0.3,1.4-0.5,2.8-0.5,4.4c0,1.6,0.2,3.1,0.5,4.5c0.3,1.4,0.9,2.6,1.7,3.7
		s1.7,1.9,3,2.5c1.2,0.6,2.7,0.9,4.4,0.9c1.2,0,2.2-0.2,3.2-0.6c0.9-0.4,1.7-0.8,2.4-1.3c0.9-0.6,1.6-1.2,2.1-1.8
		c0.2,0.2,0.4,0.4,0.6,0.7c0.2,0.3,0.5,0.6,0.7,0.9c0.2,0.3,0.4,0.7,0.6,1c0.2,0.3,0.2,0.7,0.2,1c0,0.6-0.5,1.3-1.4,2.1
		c-0.8,0.7-2,1.4-3.5,1.9c-1.5,0.5-3.4,0.8-5.6,0.8c-1.4,0-2.9-0.2-4.6-0.6c-1.7-0.4-3.2-1.2-4.7-2.3c-1.5-1.2-2.7-2.8-3.7-4.9
		c-1-2.1-1.5-4.9-1.5-8.4c0-3.2,0.5-5.8,1.6-7.9s2.3-3.7,3.8-4.9c1.5-1.2,3.1-2,4.8-2.5c1.7-0.5,3.2-0.7,4.5-0.7
		c1.6,0,3,0.2,4.2,0.5c1.2,0.3,2.3,0.7,3.2,1.2c0.9,0.5,1.6,1,2,1.6c0.5,0.6,0.7,1.1,0.7,1.6c0,0.5-0.2,1.1-0.5,1.8
		c-0.3,0.7-0.7,1.2-1,1.7H533.9z"/>
</g>
<g enable-background="new    ">
	<path fill="#00A78E" d="M546.1,219.5c0.1,3.2,1,5.7,2.5,7.6c1.5,1.9,3.9,2.9,7.1,2.9c1.2,0,2.3-0.1,3.2-0.4c1-0.3,1.8-0.6,2.5-0.9
		c0.7-0.4,1.3-0.8,1.7-1.2c0.5-0.4,0.8-0.8,1.1-1.2c0.5,0.6,0.9,1.3,1.3,2c0.4,0.7,0.6,1.2,0.6,1.6c0,0.3-0.1,0.7-0.3,1.1
		c-0.2,0.4-0.6,0.7-1.1,1.1c-1,0.7-2.3,1.4-3.8,1.9s-3.4,0.7-5.7,0.7c-2,0-4-0.3-5.8-0.9c-1.8-0.6-3.4-1.5-4.7-2.8
		c-1.3-1.3-2.4-3-3.2-5.1c-0.8-2.1-1.2-4.7-1.2-7.7c0-2.7,0.4-5.1,1.2-7.1c0.8-2,1.9-3.6,3.2-4.9c1.3-1.3,2.8-2.2,4.5-2.8
		c1.7-0.6,3.4-0.9,5.2-0.9c2.2,0,4.1,0.4,5.7,1.1c1.6,0.7,2.9,1.7,3.9,3c1,1.2,1.7,2.7,2.2,4.3s0.7,3.3,0.7,5c0,0.6,0,1.2,0,1.9
		c0,0.6-0.1,1.2-0.2,1.8H546.1z M561.3,215.4c0-1.2-0.1-2.3-0.4-3.2c-0.2-1-0.6-1.9-1.2-2.6c-0.6-0.8-1.3-1.4-2.2-1.8
		c-0.9-0.4-2.1-0.6-3.4-0.6c-2.3,0-4.1,0.7-5.6,2.2c-1.5,1.5-2.3,3.5-2.4,6.1H561.3z"/>
</g>
<g enable-background="new    ">
	<path fill="#00A78E" d="M608.4,210.9c-0.7-0.9-1.7-1.7-2.9-2.4c-1.2-0.8-2.8-1.1-4.7-1.1c-1.6,0-3.1,0.3-4.2,0.8
		c-1.2,0.6-2.1,1.4-2.9,2.4c-0.8,1-1.3,2.2-1.7,3.6c-0.3,1.4-0.5,2.8-0.5,4.4c0,1.6,0.2,3.1,0.5,4.5c0.3,1.4,0.9,2.6,1.7,3.7
		s1.7,1.9,3,2.5c1.2,0.6,2.7,0.9,4.4,0.9c1.2,0,2.2-0.2,3.2-0.6c0.9-0.4,1.7-0.8,2.4-1.3c0.9-0.6,1.6-1.2,2.1-1.8
		c0.2,0.2,0.4,0.4,0.6,0.7c0.2,0.3,0.5,0.6,0.7,0.9c0.2,0.3,0.4,0.7,0.6,1c0.2,0.3,0.2,0.7,0.2,1c0,0.6-0.5,1.3-1.4,2.1
		c-0.8,0.7-2,1.4-3.5,1.9c-1.5,0.5-3.4,0.8-5.6,0.8c-1.4,0-2.9-0.2-4.6-0.6c-1.7-0.4-3.2-1.2-4.7-2.3c-1.5-1.2-2.7-2.8-3.7-4.9
		c-1-2.1-1.5-4.9-1.5-8.4c0-3.2,0.5-5.8,1.6-7.9s2.3-3.7,3.8-4.9c1.5-1.2,3.1-2,4.8-2.5c1.7-0.5,3.2-0.7,4.5-0.7
		c1.6,0,3,0.2,4.2,0.5c1.2,0.3,2.3,0.7,3.2,1.2c0.9,0.5,1.6,1,2,1.6c0.5,0.6,0.7,1.1,0.7,1.6c0,0.5-0.2,1.1-0.5,1.8
		c-0.3,0.7-0.7,1.2-1,1.7H608.4z"/>
</g>
<g enable-background="new    ">
	<path fill="#00A78E" d="M643.6,218.4c0,2.1-0.3,4.2-0.8,6.1c-0.5,2-1.4,3.7-2.5,5.2c-1.1,1.5-2.6,2.7-4.5,3.6
		c-1.8,0.9-4,1.4-6.6,1.4c-2.6,0-4.7-0.4-6.6-1.3c-1.8-0.9-3.3-2-4.4-3.5c-1.1-1.5-2-3.2-2.5-5.1c-0.5-2-0.8-4.1-0.8-6.3
		c0-2.2,0.3-4.2,0.9-6.2c0.6-2,1.5-3.7,2.7-5.1c1.2-1.5,2.7-2.6,4.5-3.5c1.8-0.9,3.9-1.3,6.3-1.3c2.5,0,4.7,0.4,6.5,1.3
		c1.8,0.9,3.3,2,4.4,3.5c1.1,1.5,1.9,3.1,2.5,5C643.3,214.2,643.6,216.3,643.6,218.4z M637.7,218.4c0-1.3-0.1-2.7-0.4-4
		c-0.2-1.3-0.7-2.5-1.3-3.6c-0.6-1.1-1.5-1.9-2.5-2.6c-1.1-0.6-2.5-1-4.2-1c-1.6,0-3,0.3-4.1,1c-1.1,0.7-2,1.5-2.6,2.6
		c-0.7,1.1-1.1,2.3-1.4,3.6c-0.3,1.3-0.4,2.7-0.4,4c0,1.3,0.1,2.7,0.4,4.1c0.2,1.4,0.7,2.6,1.3,3.7c0.6,1.1,1.5,2,2.6,2.8
		c1.1,0.7,2.5,1.1,4.2,1.1c1.7,0,3.2-0.4,4.3-1.1c1.1-0.7,2-1.6,2.6-2.7c0.6-1.1,1-2.3,1.3-3.7C637.6,221.2,637.7,219.8,637.7,218.4
		z"/>
</g>
<g enable-background="new    ">
	<path fill="#00A78E" d="M668.2,210.4c-0.7-0.9-1.8-1.7-3.2-2.4c-1.4-0.7-2.9-1-4.5-1c-0.6,0-1.2,0.1-1.9,0.2s-1.3,0.3-1.9,0.6
		c-0.6,0.3-1.1,0.7-1.5,1.2c-0.4,0.5-0.6,1.2-0.6,2c0,0.7,0.2,1.3,0.5,1.8c0.3,0.5,0.8,0.9,1.4,1.2c0.6,0.3,1.3,0.6,2,0.9
		c0.8,0.2,1.6,0.5,2.5,0.7c1.3,0.3,2.6,0.7,3.8,1.1c1.2,0.5,2.3,1,3.2,1.8s1.7,1.6,2.2,2.7c0.5,1.1,0.8,2.4,0.8,4c0,1.6-0.3,3-1,4.2
		c-0.6,1.2-1.5,2.2-2.6,3c-1.1,0.8-2.4,1.4-3.8,1.8c-1.5,0.4-3,0.6-4.5,0.6c-1.5,0-2.9-0.1-4.1-0.4c-1.2-0.2-2.2-0.5-3.1-0.9
		c-1.1-0.4-1.8-0.9-2.3-1.3c-0.4-0.5-0.7-0.9-0.7-1.4c0-0.6,0.2-1.1,0.5-1.8c0.3-0.6,0.7-1.3,1.2-2.1c0.3,0.3,0.7,0.6,1.3,0.9
		c0.5,0.4,1.2,0.7,1.9,1.1c0.8,0.4,1.6,0.7,2.5,0.9c0.9,0.2,1.9,0.4,2.9,0.4c0.8,0,1.5-0.1,2.3-0.2c0.7-0.2,1.4-0.4,2-0.7
		s1.1-0.8,1.4-1.4c0.4-0.6,0.6-1.4,0.6-2.3s-0.2-1.7-0.6-2.2s-0.9-1.1-1.6-1.5c-0.7-0.4-1.4-0.7-2.2-0.9c-0.8-0.2-1.6-0.4-2.4-0.6
		c-1.3-0.3-2.5-0.6-3.6-1c-1.1-0.4-2.2-1-3.1-1.7c-0.9-0.7-1.6-1.5-2.1-2.6c-0.5-1-0.8-2.3-0.8-3.8c0-1.4,0.3-2.7,0.9-3.8
		c0.6-1.1,1.4-2,2.5-2.7c1-0.7,2.2-1.3,3.5-1.6c1.3-0.4,2.7-0.6,4.1-0.6c1.6,0,3.2,0.2,4.5,0.5c1.4,0.3,2.5,0.8,3.3,1.2
		c0.9,0.5,1.5,0.9,1.8,1.3c0.3,0.4,0.5,0.8,0.5,1.2c0,0.5-0.1,1-0.4,1.7c-0.2,0.6-0.5,1.2-0.9,1.9L668.2,210.4z"/>
</g>
<g enable-background="new    ">
	<path fill="#00A78E" d="M678,193.9c0.3,0,0.6-0.1,0.7-0.1s0.3,0,0.4,0c1.3,0,2.3,0.3,3.2,1c0.8,0.7,1.2,1.8,1.2,3.4v5h9.7v4.7h-9.7
		v16.8c0,3.6,1.4,5.3,4.2,5.3c0.7,0,1.3-0.1,1.9-0.4c0.6-0.2,1.2-0.5,1.7-0.8c0.5-0.3,0.9-0.6,1.2-0.9c0.3-0.3,0.5-0.5,0.6-0.7
		c0.5,0.7,1,1.3,1.3,1.9c0.4,0.6,0.6,1.2,0.6,1.8c0,0.4-0.2,0.8-0.6,1.3c-0.4,0.5-0.9,0.9-1.6,1.3c-0.7,0.4-1.5,0.7-2.6,1
		c-1,0.3-2.1,0.4-3.3,0.4c-2.3,0-4.1-0.4-5.4-1.3c-1.3-0.9-2.3-2.1-2.9-3.6c-0.3-0.8-0.5-1.7-0.6-2.7c-0.1-1-0.1-1.9-0.1-2.9V193.9z
		"/>
</g>
</svg>
