<svg xmlns="http://www.w3.org/2000/svg" width="584.8" height="600" viewBox="0 0 584.8 600">
  <path fill="#00BBA2" d="M262.4 519.4c10.1 19.9 27 36.3 49.2 45.4 19.3 7.9 39.6 9 58.4 4.6 9.9 8.9 21.5 16.4 34.6 21.7 60.8 24.9 130.2-4.2 155.1-65 13.2-32.2 11.2-66.9-2.7-96.1 7.6-4.2 13.9-10.9 17.5-19.6 7-17 1.2-36-12.8-46.6 6.5-24.1 7.6-48.7 4-72.3 6.9-4.4 12.7-11 16-19.2 8.7-21.2-1.5-45.4-22.7-54.1-7.9-3.2-16.1-3.8-23.9-2.3-11-15.5-24.5-29.4-40.2-40.9 9.6-4.8 17.6-12.9 22-23.6 9.6-23.4-1.6-50.2-25-59.8-11.9-4.9-24.7-4.4-35.6.4-8.6-36.2-33.9-67.9-71-83.1-61.1-25-130.9 4.2-155.9 65.3 0 .1 0 .1-.1.2-1.1-.6-2.2-1.1-3.3-1.6-18.3-7.5-39.2 1.3-46.7 19.5-2.8 6.8-3.3 13.9-2 20.6-5.2-3.2-10.8-6-16.7-8.4C101 80.1 33 108.6 8.6 168.2c-24.4 59.6 4.1 127.6 63.7 152 4.4 1.8 8.9 3.3 13.3 4.5-.4.9-.8 1.8-1.2 2.6-8.4 1.3-15.9 6.8-19.4 15.3-4.3 10.6-.9 22.4 7.6 29.2-5.8 60.8 28.3 120.9 87.7 145.2 34.1 14 70.2 13.8 102.1 2.4"/>
</svg>