<svg xmlns="http://www.w3.org/2000/svg" width="388.8" height="451.8" viewBox="0 0 388.8 451.8">
  <path fill="#32CFB6" d="M363.3 194.4c10.2-11.8 16.4-27.1 16.4-43.9 0-14.6-4.7-28-12.5-39.1 3.2-8.8 4.9-18.3 4.9-28.1 0-46-37.3-83.2-83.2-83.2-24.4 0-46.3 10.5-61.6 27.2-4.8-3.8-10.8-6.1-17.3-6.1-12.9 0-23.7 8.8-26.8 20.7-17.3 2.2-33.6 8-47.9 16.6-4.7-3.3-10.5-5.3-16.7-5.3-16 0-29 13-29 29 0 5.9 1.8 11.5 4.9 16.1-7.1 11.2-12.5 23.6-15.8 36.9-5.6-5-13-8-21.1-8-17.7 0-32.1 14.4-32.1 32.1 0 9 3.7 17.1 9.7 22.9-21.2 15.2-35 40-35 68 0 46.2 37.5 83.7 83.7 83.7h.1c-.1.8-.1 1.7-.1 2.6 0 13.8 11.2 25 25 25 5.1 0 9.9-1.5 13.9-4.2-.7 4.2-1 8.6-1 13 0 45.1 36.5 81.6 81.6 81.6 45.1 0 81.6-36.5 81.6-81.6 0-3.3-.2-6.6-.6-9.8.7 0 1.3 0 2 .1 3.1 5.1 8.6 8.5 15 8.5 8 0 14.7-5.3 16.9-12.7 41-12.4 70.8-50.4 70.8-95.4-.3-25.6-10-49-25.8-66.6"/>
</svg>