<svg xmlns="http://www.w3.org/2000/svg" width="282.2" height="249.3" viewBox="0 0 282.2 249.3">
  <path fill="#55E1C8" d="M67.4 68c-10.1 1.3-19.9 6-27.3 14.1C33.7 89.2 30 97.7 29 106.5c-5.4 2.9-10.4 6.7-14.8 11.5-20.3 22.3-18.6 56.7 3.6 77 11.8 10.7 27.1 15.3 41.8 13.9.6 3.9 2.5 7.7 5.7 10.6 6.2 5.7 15.3 6.2 22.1 1.8 9.4 6.6 19.8 10.9 30.5 13.1.8 3.7 2.7 7.2 5.7 9.9 7.8 7.1 19.8 6.5 26.8-1.3 2.6-2.9 4.2-6.3 4.7-9.9 8.4-2.3 16.5-5.9 23.9-10.9.5 4.9 2.8 9.6 6.7 13.2 8.6 7.8 21.9 7.2 29.7-1.4 4-4.4 5.7-9.9 5.4-15.4 16.9 2 34.6-3.9 46.9-17.5 20.4-22.4 18.7-57-3.7-77.4l-.1-.1 1.2-1.2c6.1-6.7 5.6-17.1-1.1-23.2-2.5-2.3-5.5-3.6-8.6-4.1 2.2-1.8 4.3-3.7 6.2-5.8 19.8-21.8 18.3-55.6-3.6-75.5-21.8-19.8-55.6-18.3-75.5 3.6-1.5 1.6-2.8 3.3-4 5-.3-.3-.6-.6-1-.9.7-3.8-.4-7.9-3.5-10.7-3.9-3.5-9.5-3.9-13.7-1.3C135-2.6 103.8 2.7 84 24.5 73.1 36.9 67.5 52.5 67.4 68"/>
</svg>