<svg xmlns="http://www.w3.org/2000/svg" viewBox="-185 211.9 228.3 178.1">
  <ellipse transform="rotate(-92.75 -63.38 355.764)" fill="#FFF" stroke="#00A78E" stroke-width="2" stroke-miterlimit="10" cx="-63.4" cy="355.8" rx="33" ry="73.4"/>
  <path fill="#FFF" d="M30.3 357.9H-172c-6.6 0-12-5.4-12-12V241.4c0-6.6 5.4-12 12-12H30.3c6.6 0 12 5.4 12 12v104.5c0 6.6-5.4 12-12 12"/>
  <path fill="none" stroke="#00AB9F" stroke-width="2" stroke-miterlimit="10" d="M30.3 357.9H-172c-6.6 0-12-5.4-12-12V241.4c0-6.6 5.4-12 12-12H30.3c6.6 0 12 5.4 12 12v104.5c0 6.6-5.4 12-12 12z"/>
  <path d="M-156.7 276.1c.3 0 .5-.1.8-.1h.6c.3 0 .6 0 .9.1.3.1.6.2.8.3.2.2.4.4.6.7.2.3.2.7.2 1.1v16.7h-3.8v-18.8zm11.2 18.7h-3.8v-13.2l.3-.1h.9c.6 0 1.1.1 1.6.3.4.2.7.6.8 1.1.3-.4.8-.8 1.5-1.2.7-.4 1.5-.5 2.7-.5 1.3 0 2.3.3 2.9.8s1 1.2 1.2 2.1c.1.4.2.9.2 1.4v9.4h-3.8v-8.8c0-.4-.1-.7-.2-.9-.1-.3-.3-.4-.6-.6-.3-.1-.6-.2-1.1-.2-.7 0-1.3.1-1.8.4-.5.3-.7.6-.7 1.1v8.9zm20.7-11.7c0 .3-.1.6-.3 1s-.4.7-.6 1.1c-.2-.1-.4-.3-.7-.4-.3-.2-.6-.3-.9-.5s-.7-.3-1.1-.3c-.4-.1-.7-.1-1.1-.1h-.6c-.2 0-.4.1-.6.2-.2.1-.3.2-.4.4-.1.2-.2.4-.2.6 0 .6.7 1.1 2 1.4.6.1 1.1.3 1.7.4.6.2 1 .4 1.5.7.4.3.8.7 1.1 1.2.3.5.4 1.1.4 1.8s-.1 1.4-.4 2c-.3.6-.7 1.1-1.2 1.5-.5.4-1.1.7-1.8.9-.7.2-1.4.3-2.2.3-.8 0-1.5-.1-2.1-.2-.6-.1-1-.3-1.4-.4-.3-.1-.5-.3-.9-.5-.3-.2-.5-.5-.5-.9 0-.3.1-.6.3-1 .2-.3.4-.7.6-1.1.2.1.4.3.6.5s.5.3.9.4c.3.1.7.3 1 .4.4.1.8.1 1.1.1.2 0 .5 0 .8-.1s.5-.1.7-.2c.2-.1.4-.3.5-.4.1-.2.2-.4.2-.7 0-.5-.2-.9-.6-1.2-.4-.2-1-.4-1.9-.6-.5-.1-1.1-.3-1.6-.4-.5-.2-1-.4-1.3-.7-.4-.3-.7-.7-.9-1.2s-.3-1-.3-1.7.1-1.3.4-1.8c.3-.5.7-.9 1.2-1.3s1.1-.6 1.7-.8c.7-.2 1.3-.3 2-.3s1.4.1 2 .2c.6.1 1.1.3 1.5.4.9.3 1.3.8 1.4 1.3zm14.4 11.7h-2.5c-.5 0-.8-.1-.9-.4s-.2-.6-.2-1.1c-.3.4-.8.8-1.5 1.2-.7.4-1.5.5-2.7.5-1.3 0-2.3-.3-2.9-.8-.6-.5-1-1.2-1.2-2.1-.1-.4-.2-.9-.2-1.4v-9.3s.2 0 .4-.1h.8c.3 0 .6 0 .9.1.3.1.6.2.8.3.2.2.4.4.6.7.1.3.2.7.2 1.1v6.7c0 .3.1.6.2.9.1.3.3.4.6.6.3.1.6.2 1.1.2.7 0 1.3-.1 1.8-.4.5-.3.7-.6.7-1.1v-8.9s.2 0 .4-.1h.8c.3 0 .6 0 .9.1.3.1.6.2.8.4.2.2.4.4.6.7s.2.7.2 1.2v11zm7.2-11.9c.1-.2.3-.4.5-.6.2-.2.4-.4.7-.6.3-.2.6-.3.9-.4.3-.1.7-.2 1.1-.2.2 0 .5 0 .7.1.3 0 .5.1.7.2s.4.2.5.4c.1.2.2.4.2.7 0 .4-.1.9-.3 1.4-.2.5-.4 1-.6 1.4-.3-.3-.6-.5-1-.6-.3-.1-.7-.2-1.1-.2-.6 0-1.1.2-1.5.5s-.6.7-.6 1.2v8.6h-3.8v-13.2l.3-.1h.9c.6 0 1.1.1 1.6.4.4.1.7.5.8 1zm17.9 8.7c0 1.5.2 2.5.6 3.2l-.9.3c-.3.1-.6.1-.9.1-.7 0-1.2-.1-1.5-.4-.3-.3-.6-.6-.7-1.1-.4.4-1 .8-1.6 1.1-.7.3-1.5.4-2.5.4-.5 0-1-.1-1.5-.2s-1-.4-1.4-.7c-.4-.3-.7-.7-1-1.3-.3-.5-.4-1.2-.4-1.9 0-1 .2-1.7.7-2.3.5-.6 1-1.1 1.7-1.4.7-.3 1.4-.6 2.2-.7.8-.1 1.5-.2 2.2-.3h1.3v-.5c0-.7-.2-1.2-.6-1.5-.4-.3-1-.4-1.9-.4-.8 0-1.5.1-2.1.4l-1.8.9c-.3-.3-.5-.7-.6-1-.2-.4-.2-.7-.2-.9 0-.2.1-.5.4-.7.3-.3.7-.5 1.2-.7.5-.2 1.1-.4 1.7-.5.7-.1 1.3-.2 2.1-.2 1 0 1.9.1 2.6.3.7.2 1.3.5 1.7 1s.8 1 .9 1.6c.2.6.3 1.4.3 2.3v5.1zm-3.6-3.3h-.8c-.5 0-.9.1-1.4.2-.5.1-.9.2-1.2.4-.4.2-.6.4-.9.7-.2.3-.3.7-.3 1.1 0 .5.1 1 .4 1.3.3.4.8.5 1.5.5.4 0 .7 0 1-.1.3-.1.6-.2.8-.4s.4-.3.6-.5c.1-.2.2-.3.2-.5v-2.7zm10.3 6.5h-3.8v-13.2l.3-.1h.9c.6 0 1.1.1 1.6.3.4.2.7.6.8 1.1.3-.4.8-.8 1.5-1.2.7-.4 1.5-.5 2.7-.5 1.3 0 2.3.3 2.9.8s1 1.2 1.2 2.1c.1.4.2.9.2 1.4v9.4h-3.8v-8.8c0-.4-.1-.7-.2-.9-.1-.3-.3-.4-.6-.6-.3-.1-.6-.2-1.1-.2-.7 0-1.3.1-1.8.4-.5.3-.7.6-.7 1.1v8.9zm18.3-2.4c.4 0 .8 0 1.1-.1s.6-.2.9-.4c.3-.1.5-.3.7-.4s.3-.3.4-.4c.1.1.2.3.3.4l.3.6c.1.2.2.4.2.6.1.2.1.4.1.5 0 .2 0 .4-.1.5s-.2.4-.5.5c-.4.3-.9.5-1.5.7-.7.2-1.5.3-2.5.3-.7 0-1.4-.1-2.2-.3-.8-.2-1.5-.5-2.2-1.1-.7-.5-1.2-1.2-1.7-2.2-.4-.9-.7-2.1-.7-3.6 0-1.4.2-2.6.7-3.5.5-.9 1-1.6 1.7-2.1s1.4-.9 2.2-1.1c.8-.2 1.5-.3 2.1-.3.8 0 1.5.1 2.1.3s1.2.4 1.6.7c.4.2.6.4.7.6.1.2.2.4.2.7 0 .3-.1.6-.3 1s-.4.7-.6 1c-.3-.3-.7-.6-1.3-1-.6-.3-1.2-.5-1.9-.5-1.2 0-2.1.4-2.6 1.1s-.8 1.7-.8 2.9c0 .6.1 1.2.2 1.7s.3 1 .6 1.4.6.7 1 .9c.7.5 1.2.6 1.8.6zm12.8 0c.5 0 .9-.1 1.2-.2s.7-.2 1-.4.5-.3.7-.5c.2-.2.4-.3.6-.5.2.3.5.6.7 1.1.2.4.4.8.4 1.1 0 .4-.2.8-.7 1.1-.4.3-.9.6-1.7.8-.7.2-1.6.3-2.5.3-.9 0-1.7-.1-2.6-.3-.8-.2-1.6-.6-2.3-1.2-.7-.6-1.2-1.3-1.6-2.3-.4-.9-.6-2.1-.6-3.6 0-1.2.2-2.2.5-3 .4-.8.8-1.6 1.5-2.1.6-.6 1.3-1 2.1-1.2.8-.3 1.5-.4 2.4-.4 1 0 1.9.2 2.7.5.7.3 1.3.8 1.8 1.3s.8 1.2 1 1.9c.2.7.3 1.5.3 2.2v1.8h-8.2c.1 1 .4 1.9 1 2.6.2.7 1.1 1 2.3 1zm1.3-5.7c0-.9-.2-1.6-.5-2.2s-1-.8-1.9-.8c-.8 0-1.4.3-1.8.8-.4.5-.7 1.3-.7 2.2h4.9zm18.8 5.7c.4 0 .8 0 1.1-.1s.6-.2.9-.4c.3-.1.5-.3.7-.4s.3-.3.4-.4c.1.1.2.3.3.4l.3.6c.1.2.2.4.2.6.1.2.1.4.1.5 0 .2 0 .4-.1.5-.1.2-.2.4-.5.5-.4.3-.9.5-1.5.7-.7.2-1.5.3-2.5.3-.7 0-1.4-.1-2.2-.3-.8-.2-1.5-.5-2.2-1.1-.7-.5-1.2-1.2-1.7-2.2s-.7-2.1-.7-3.6c0-1.4.2-2.6.7-3.5.5-.9 1-1.6 1.7-2.1s1.4-.9 2.2-1.1c.8-.2 1.5-.3 2.1-.3.8 0 1.5.1 2.1.3.6.2 1.2.4 1.6.7.4.2.6.4.7.6.1.2.2.4.2.7 0 .3-.1.6-.3 1s-.4.7-.6 1c-.3-.3-.7-.6-1.3-1-.6-.3-1.2-.5-1.9-.5-1.2 0-2.1.4-2.6 1.1s-.8 1.7-.8 2.9c0 .6.1 1.2.2 1.7s.3 1 .6 1.4.6.7 1.1.9c.6.5 1.1.6 1.7.6zm17.2-.8c0 1.5.2 2.5.6 3.2l-.9.3c-.3.1-.6.1-.9.1-.7 0-1.2-.1-1.5-.4-.3-.3-.6-.6-.7-1.1-.4.4-1 .8-1.6 1.1-.7.3-1.5.4-2.5.4-.5 0-1-.1-1.5-.2s-1-.4-1.4-.7c-.4-.3-.7-.7-1-1.3-.3-.5-.4-1.2-.4-1.9 0-1 .2-1.7.7-2.3.5-.6 1-1.1 1.7-1.4.7-.3 1.4-.6 2.2-.7.8-.1 1.5-.2 2.2-.3h1.3v-.5c0-.7-.2-1.2-.6-1.5-.4-.3-1-.4-1.9-.4-.8 0-1.5.1-2.1.4l-1.8.9c-.3-.3-.5-.7-.6-1s-.2-.7-.2-.9c0-.2.1-.5.4-.7.3-.3.7-.5 1.2-.7.5-.2 1.1-.4 1.7-.5.7-.1 1.3-.2 2.1-.2 1 0 1.9.1 2.6.3.7.2 1.3.5 1.7 1s.8 1 .9 1.6c.2.6.3 1.4.3 2.3v5.1zm-3.5-3.3h-.8c-.5 0-.9.1-1.4.2-.5.1-.9.2-1.2.4-.4.2-.6.4-.9.7-.2.3-.3.7-.3 1.1 0 .5.1 1 .4 1.3s.8.5 1.5.5c.4 0 .7 0 1-.1.3-.1.6-.2.8-.4.2-.1.4-.3.6-.5.1-.2.2-.3.2-.5v-2.7zm10.5-5.4c.1-.2.3-.4.5-.6.2-.2.4-.4.7-.6s.6-.3.9-.4c.3-.1.7-.2 1-.2.2 0 .5 0 .7.1.3 0 .5.1.7.2s.4.2.5.4c.1.2.2.4.2.7 0 .4-.1.9-.3 1.4-.2.5-.4 1-.6 1.4-.3-.3-.6-.5-1-.6s-.7-.2-1.1-.2c-.6 0-1.1.2-1.5.5-.4.3-.6.7-.6 1.2v8.6h-3.8v-13.2l.3-.1h.9c.6 0 1.1.1 1.6.4.5.1.8.5.9 1zm15.9 11.9c-.3 0-.6-.1-.8-.3-.2-.2-.3-.5-.3-.8-.3.3-.7.6-1.3 1s-1.4.5-2.4.5c-.7 0-1.4-.1-2-.3-.6-.2-1.2-.6-1.7-1.1-.5-.5-.9-1.2-1.2-2.1s-.4-1.9-.4-3.2c0-1.3.2-2.4.5-3.3.3-.9.7-1.7 1.2-2.2s1.1-1 1.8-1.3c.7-.3 1.4-.4 2.1-.4.8 0 1.5.1 2.1.4.5.3.9.6 1.2.9v-7.4s.2 0 .4-.1h.8s.6 0 .9.1c.3.1.6.2.8.3.2.2.4.4.6.7.1.3.2.7.2 1.1v17.6h-2.5zm-6.2-6.6c0 .7 0 1.2.1 1.8.1.5.3 1 .5 1.4.2.4.5.7.9.9s.8.3 1.4.3c.5 0 1-.1 1.4-.3.4-.2.6-.5.6-1V285c-.1-.1-.4-.3-.8-.5s-.8-.3-1.3-.3c-1 0-1.7.3-2.2 1s-.6 1.6-.6 3zm-105.9 39.6h134v4.9h-134zm-77.4 0h75.2v4.9h-75.2zm0 8.5H34.6v4.9h-211.4zm0 8h52.7v4.9h-52.7zm55.1 0h68.8v4.9h-68.8zm71.3 0h85v4.9h-85z" fill="#00A78E"/>
  <path fill="#FFF" d="M-101.1 228.3c0 6.6-6.7 12-15 12s-15-5.4-15-12 6.7-12 15-12c8.3.1 15 5.4 15 12"/>
  <ellipse fill="none" stroke="#00A78E" stroke-width="2" stroke-miterlimit="10" cx="-116.1" cy="228.3" rx="15" ry="12"/>
  <path fill="#FFF" d="M-36.8 228.3c0 6.6-6.7 12-15 12s-15-5.4-15-12 6.7-12 15-12c8.3.1 15 5.4 15 12"/>
  <ellipse fill="none" stroke="#00A78E" stroke-width="2" stroke-miterlimit="10" cx="-51.8" cy="228.3" rx="15" ry="12"/>
  <path fill="#FFF" d="M-11 230c0 5.7-5.8 10.3-12.9 10.3-7.1 0-12.9-4.6-12.9-10.3s5.8-10.3 12.9-10.3c7.1.1 12.9 4.7 12.9 10.3"/>
  <ellipse fill="none" stroke="#00A78E" stroke-width="2" stroke-miterlimit="10" cx="-23.9" cy="230" rx="12.9" ry="10.3"/>
  <path fill="#FFF" d="M-66.8 226.6c0 7.6-7.7 13.7-17.2 13.7s-17.2-6.1-17.2-13.7c.1-7.6 7.8-13.7 17.3-13.7 9.4 0 17.1 6.1 17.1 13.7"/>
  <ellipse fill="none" stroke="#00A78E" stroke-width="2" stroke-miterlimit="10" cx="-83.9" cy="226.6" rx="17.2" ry="13.7"/>
  <path fill="#FFF" d="M-124.5 382.6c-12.1 4-23.7 1.6-26-5.3-2.3-6.9 5.7-15.8 17.8-19.8s23.7-1.6 26 5.3c2.2 7-5.7 15.8-17.8 19.8"/>
  <ellipse transform="rotate(-18.3 -128.69 370.046)" fill="none" stroke="#00A78E" stroke-width="2" stroke-miterlimit="10" cx="-128.7" cy="370.1" rx="23.1" ry="13.2"/>
</svg>