<svg xmlns="http://www.w3.org/2000/svg" width="371.3" height="727.9" viewBox="0 0 371.3 727.9">
  <path fill="#FFF" d="M332.4 154.6s2.2-20 8.4-14.4c5.1 4.6 7.5 26 4.4 40.9-1.4 6.7-9.3 14.2-12.6 10.9-3.4-3.2-.2-37.4-.2-37.4M199 151.2s-2.9-19.9-9.5-14.2c-6.9 6-6.2 31.7-3.9 41 1.7 6.6 10.5 13.9 14 10.6 3.6-3.3-.6-37.4-.6-37.4"/>
  <path fill="#FFF" d="M195.9 123c.1 7-4.5 63.3 15.1 87.9 11.2 14 26.8 27.5 35.8 29.6 14.8 3.5 24.4 6.1 37.4 3.3s32.2-16.4 44-42.7c5.6-12.5 20.9-110.7-7.4-138.4-18.5-18.2-59.1-15.9-74.9-15.2-15.7.8-50.7 6.4-50 75.5M259 727.6s-2.5-21.8-41.9-19.9c-39.3 1.9-42.4 16.4-43.9 20.2m186.5-.3s-2.5-21.8-41.9-19.9c-39.3 1.9-42.4 16.4-43.9 20.2"/>
  <path fill="#FFF" d="M216.4 727.7L209 486.8h110.5L317 727.7h-45.1V532.5c0-5.1-1.6-9.3-6.7-9.3s-6.7 4.2-6.7 9.3v195.3h-42.1z"/>
  <path fill="#00A78E" d="M298.9 148.3c0 3.8 3.1 6.9 7 6.9s7-3.1 7-6.9c0-3.8-3.1-6.9-7-6.9s-7 3.1-7 6.9"/>
  <path fill="#00A78E" d="M326.8 150c-.1-.1-9.6-9.1-20.9-9.1-5.8 0-12.1 2.5-17.6 9.8l1.7 2c5.1-6.7 10.6-8.9 15.9-8.9 5.2 0 10.1 2.1 13.7 4.3 1.8 1.1 3.3 2.2 4.3 3 .5.4.9.7 1.2 1l.4.4 1.3-2.5z"/>
  <path fill="#FFF" d="M304 148.1c0 1.3-.7 2.4-1.6 2.4-.9 0-1.6-1.1-1.6-2.4 0-1.3.7-2.4 1.6-2.4.9 0 1.6 1.1 1.6 2.4"/>
  <path fill="#00A78E" d="M240.6 149.3c0 3.8-3.1 6.9-7 6.9s-7-3.1-7-6.9c0-3.8 3.1-6.9 7-6.9 3.8 0 7 3.1 7 6.9"/>
  <path fill="#00A78E" d="M214 153.4l.4-.4c1.8-1.6 10.1-8.2 19.1-8.2 5.3 0 10.9 2.2 15.9 8.9l1.7-2c-5.5-7.3-11.8-9.8-17.6-9.8-11.3 0-20.8 9.1-20.9 9.1l1.4 2.4z"/>
  <path fill="#FFF" d="M230.8 149.1c0 1.3-.7 2.4-1.6 2.4-.9 0-1.6-1.1-1.6-2.4 0-1.3.7-2.4 1.6-2.4.9 0 1.6 1.1 1.6 2.4"/>
  <path fill="#00A78E" d="M250.2 115.7s8.9 7.9 1.4 9.3c-7.5 1.4-19.7-1.2-25.2 0s-16.1 5.4-16.1 5.4l-.7-4.5c.1 0 14.7-13.8 40.6-10.2m37.3-7.2s-8.6 7.6-1.1 9.3c7.5 1.7 19.7-.5 25.2.9s16.3 6 16.3 6l.5-4.5c0-.1-15.1-14.4-40.9-11.7M260.8 177s.6.1 1.5.3c1 .2 2.3.4 4 .6 1.6.2 3.6.4 5.4.2.9-.1 1.8-.4 2.2-.9.1-.1.1-.1.1-.2s.1-.1.1-.2v-.1.1-.1l.1-.4.1-.4v-.4l.1-.7c.1-1 .1-2.1.1-3.2s0-2.1-.1-3.2c-.1-2.1-.2-4-.3-5.7-.2-3.3-.3-5.6-.3-5.6s.8 2.1 1.6 5.4c.2.8.4 1.7.6 2.7.2 1 .4 2 .5 3 .1 1.1.3 2.1.3 3.3.1 1.1.1 2.3 0 3.5-.1.6-.2 1.4-.3 1.8l-.1.4v.2l-.1.3c-.1.2-.2.4-.3.5-.1.2-.2.3-.4.5-.5.6-1.2.9-1.9 1.1-.6.2-1.2.3-1.8.3-1.2.1-2.2-.1-3.2-.2-1-.2-1.9-.4-2.7-.7-1.6-.5-2.9-1.1-3.8-1.5-1-.4-1.4-.7-1.4-.7"/>
  <path fill="#FFF" d="M251.9 245.4s.5 19.1-8.5 24.4c-8.1 4.7-11.7 5.8-11.7 5.8s39.6 15.9 71.2 3c-17-4.6-15.9-10.5-15.9-10.5l-3-19.8-32.1-2.9z"/>
  <path fill="none" stroke="#00A78E" stroke-width="2.862" stroke-miterlimit="10" d="M251.9 245.4s.5 19.1-8.5 24.4c-8.1 4.7-11.7 5.8-11.7 5.8s39.6 15.9 71.2 3c-17-4.6-15.9-10.5-15.9-10.5l-3-19.8-32.1-2.9z"/>
  <path fill="#FFF" d="M362.8 360l-35.6 8.2-8.3-17.8s11.4 34.1 13.6 45.9c1.4 7.7 4.5 33.7-.9 56-2 8-12.9 30.5-12.9 30.5H210.3s-11-26.5-13-35.8c-3.9-18.5.1-47 .8-54.2l-.3-45.4-20.1 24.5-40-26s24.8-47.5 53.9-58.3c30.1-11.2 40-12.1 40-12.1l36.4 5.8 34.8-2.8s32.2 8.1 45.9 37.6c13.6 29.5 17.4 41.9 17.4 41.9l-3.3 2z"/>
  <path fill="none" stroke="#00A78E" stroke-width="2.383" stroke-miterlimit="10" d="M362.8 360l-35.6 8.2-8.3-17.8s11.4 34.1 13.6 45.9c1.4 7.7 4.5 33.7-.9 56-2 8-12.9 30.5-12.9 30.5H210.3s-11-26.5-13-35.8c-3.9-18.5.1-47 .8-54.2l-.3-45.4-20.1 24.5-40-26s24.8-47.5 53.9-58.3c30.1-11.2 40-12.1 40-12.1l36.4 5.8 34.8-2.8s32.2 8.1 45.9 37.6c13.6 29.5 17.4 41.9 17.4 41.9l-3.3 2z"/>
  <path fill="#FFF" d="M46.3 420.7c-1.9 3-8.5-2.8-8.5-2.8l-3.8-4.6s-2.3-5.3-11-1c-2.9 1.4-14.7 1.3-15.7 1.5l-6.2-1.5c-.6-1.9 4.5-4 4.5-5.4l8.3-6.4c9.8-2.1 18.5-2 19.2-2.3l16.1.6c.4-.2 14.6-2.4 14.9-2.7L93 385.4l8.4-5.4s41.1-31.9 42.2-29l29.5 18.7c.8 2.3-30.3 21.7-41.6 26.8-11.9 5.3-16.7 5.5-23.4 8.8l-49.6 6.3c-.2.2-.5.3-.6.6l-11.6 8.5z"/>
  <path fill="none" stroke="#00A78E" stroke-width="2.383" stroke-miterlimit="10" d="M46.3 420.7c-1.9 3-8.5-2.8-8.5-2.8l-3.8-4.6s-2.3-5.3-11-1c-2.9 1.4-14.7 1.3-15.7 1.5l-6.2-1.5c-.6-1.9 4.5-4 4.5-5.4l8.3-6.4c9.8-2.1 18.5-2 19.2-2.3l16.1.6c.4-.2 14.6-2.4 14.9-2.7L93 385.4l8.4-5.4s41.1-31.9 42.2-29l29.5 18.7c.8 2.3-30.3 21.7-41.6 26.8-11.9 5.3-16.7 5.5-23.4 8.8l-49.6 6.3c-.2.2-.5.3-.6.6l-11.6 8.5z"/>
  <path fill="#FFF" d="M339.5 518.4c-1.1 0-2.2-.4-3-1.1l-.9-.8-.2-.5c-.3-.8-.8-2.6.9-3.8l4.8-3.2c.7-.4 1.1-.8 1.4-1.4l1.7-3.9c.6-1.3.4-2.7-.5-4l-.9-1.3-6.1 7.9-1.5 2h-.6c-1.9 0-3.1-.5-3.8-1.6-.9-1.4-.7-3.4.7-6.4l5.8-19.1c.1-.2.1-.4.1-.6l5-61.2c-.5-3.4-1.5-8.1-3.1-13.8-.1-.2-.1-.4-.1-.5-4-12.9-10.5-34.8-8.9-37.4.2-.4.6-.6 1-.7l30.8-6.1h.2c1.5 0 3 0 5.5 25.9 1.2 12.3 2 24.7 2 24.9v.1l-.3 10.1-14.3 56.7c0 .4.1 2.7.1 3.1l3.1 13.4c.2 1.2-.8 4.9-1.5 5.8l-8.4 12.1c-.4.6-1 1-1.7 1.2l-5.1 3.5c-.4.5-1.3.7-2.2.7"/>
  <path fill="#00A78E" d="M362.5 362.1c3.1 0 6.3 49.6 6.3 49.6l-.3 10-14.3 56.5c-.1.4.1 3.2.1 3.6l3.1 13.4c.1.8-.8 4.2-1.3 5l-8.4 12.1c-.3.4-.7.6-1.2.8l-5.3 3.6c-.5.3-1.2.5-1.8.5-.8 0-1.6-.3-2.1-.8l-.7-.6c-.3-.9-.8-1.9.4-2.7l4.8-3.2c.8-.5 1.5-1.1 1.8-1.9.4-1 1.1-2.6 1.7-3.9.7-1.7.5-3.6-.6-5.1l-1.9-2.6-7.1 9.2-1.2 1.5h-.1c-4 0-3.4-3.1-1.8-6.4l5.8-19.1c.1-.3.1-.6.2-.9l5-61.3c-.8-6.1-3.2-14.4-3.3-14.7 0 0-11.2-36.1-8.9-36.6l31.1-6m0-2.4c-.2 0-.4 0-.5.1l-30.7 6.1c-.8.2-1.4.6-1.8 1.3-.7 1.2-1.5 2.5 3.7 21 2.3 8.3 4.8 16.4 5.1 17.3 0 .1.1.3.1.6 1.5 5.6 2.5 10.2 3 13.5l-5 61c0 .1 0 .3-.1.3l-5.8 19c-1 2.1-2.1 5.1-.6 7.5.6 1 1.9 2.2 4.7 2.2h1.3l.7-.9 1.2-1.5 5.1-6.6c.6.9.7 1.9.3 2.8-.6 1.3-1.2 2.9-1.7 3.9-.1.3-.4.5-.8.7h-.2l-4.8 3.2c-2.5 1.7-1.7 4.2-1.4 5.2l.1.2.2.6.4.4.7.6c1 .9 2.3 1.5 3.8 1.5 1.1 0 2.2-.3 3.1-.9l5-3.4c.9-.3 1.7-.8 2.2-1.6l8.4-12.1c.8-1.1 1.9-5.2 1.7-6.7v-.2l-3.1-13.3c0-.5-.1-2.2-.1-2.7l14.2-56.4.1-.3v-.3l.3-10v-.2c0-.1-.8-12.6-2-24.9-.7-7.3-1.4-13-2.1-17.2-1.1-6.9-2-9.8-4.7-9.8"/>
  <path fill="none" stroke="#00A78E" stroke-width="2.383" stroke-miterlimit="10" d="M217.6 275.3l38.1 26 12.4-18 14.3 18 30.7-26"/>
  <path fill="#FFF" d="M269.4 482.7s15.2-134.4-1.2-199.4"/>
  <path fill="none" stroke="#00A78E" stroke-width="2.383" stroke-miterlimit="10" d="M269.4 482.7s15.2-134.4-1.2-199.4"/>
  <path fill="#00A78E" d="M268.2 298.3c0 1.7-1.3 3-3 3s-3-1.3-3-3 1.3-3 3-3 3 1.4 3 3m1 34.1c0 1.7-1.3 3-3 3s-3-1.3-3-3 1.3-3 3-3 3 1.3 3 3m2 34c0 1.7-1.3 3-3 3s-3-1.3-3-3 1.3-3 3-3 3 1.4 3 3m0 34.1c0 1.7-1.3 3-3 3s-3-1.3-3-3 1.3-3 3-3 3 1.3 3 3m0 34c0 1.7-1.3 3-3 3s-3-1.3-3-3 1.3-3 3-3 3 1.4 3 3m-3 34.1c0 1.7-1.3 3-3 3s-3-1.3-3-3 1.3-3 3-3c1.7-.1 3 1.3 3 3m-75.5-336.1s-13-33.6-10.4-47c2.6-13.4 3.7-34 32.9-47s28.2-6.7 31.7-14.3c3.5-7.6 4.2 4.2 4.2 4.2l7.3-12.4s-.4 6 2.6 9.4c4.6 5.3 9-7.6 8.3-16.8 3.8 14.3 4.3 24.3 10.1 17.6 5.8-6.7 7.7-23.5 3.3-25.2 12.9 7.6 21.8 25.6 19.2 31.1 10.9-6.3 10.9-11.7 10.9-11.7l4.9 10.9s44.8 8.6 22.4 114.9l-4.3 20c-8.3.5-.9-12.4.4-51.5 1.8-54-48.4-42.2-66.9-44.3-22.5-2.5-60.1-5.5-66.9 23.5-6.7 29-3.7 67.9-3.7 67.9l-6.2 6.3v-35.6z"/>
  <path fill="none" stroke="#FFF" stroke-width="2.378" stroke-miterlimit="10" d="M192.7 132.5s-13-33.6-10.4-47c2.6-13.4 3.7-34 32.9-47s28.2-6.7 31.7-14.3c3.5-7.6 4.2 4.2 4.2 4.2l7.3-12.4s-.4 6 2.6 9.4c4.6 5.3 9-7.6 8.3-16.8 3.8 14.3 4.3 24.3 10.1 17.6 5.8-6.7 7.7-23.5 3.3-25.2 12.9 7.6 21.8 25.6 19.2 31.1 10.9-6.3 10.9-11.7 10.9-11.7l4.9 10.9s44.8 8.6 22.4 114.9l-4.3 20c-8.3.5-.9-12.4.4-51.5 1.8-54-48.4-42.2-66.9-44.3-22.5-2.5-60.1-5.5-66.9 23.5-6.7 29-3.7 67.9-3.7 67.9l-6.2 6.3v-35.6z"/>
  <path fill="#00A78E" d="M217.8 335.1v26.6h.1c.5 2.8 3 4.9 5.9 4.9h14.4c2.9 0 5.4-2.1 5.9-4.9h.1v-26.6h-26.4z"/>
  <path fill="none" stroke="#FFF" stroke-width=".5" stroke-miterlimit="10" d="M216.5 338.6h.5"/>
  <path fill="none" stroke="#FFF" stroke-width=".5" stroke-miterlimit="10" stroke-dasharray="1.026,1.026" d="M218 338.6h28.2"/>
  <path fill="none" stroke="#FFF" stroke-width=".5" stroke-miterlimit="10" d="M246.8 338.6h.5"/>
  <path fill="#00A78E" d="M345.8 140.9c-.6-.3-1.3-.5-1.9-.8-14.3-4.9-29-7.4-44.2-6.7-6.5.3-12.9 1.4-18.9 4.1-2 .9-3.9 1.8-3.9 4.4-2.3-.4-13-.4-15.3 0 0-2.6-2-3.6-3.9-4.4-6-2.7-12.4-3.7-18.9-4.1-15.2-.8-29.9 1.8-44.2 6.7-.7.2-1.3.5-1.9.8-2.8 1.2-3.8 3.2-3.2 6.2.1.4.8 1 1.2 1 3.2.1 2.7 0 4 2.2.6 1 1.1 1.9 2.2 2.4 3.8 1.7 4.9 1.3 6.1 5.6.7 2.6 3.1 7.4 4.8 9.5 3.3 4.1 8.2 6.3 13.6 7 6.9.8 13.9.6 20.7-1.1 6.3-1.5 10.6-5.6 13.5-11.2 2-3.8 3.2-7.9 3.5-12.2.3-4.1 3.7-6.3 7.8-6.4h5c4.1.1 7.5 2.3 7.8 6.4.3 4.3 1.5 8.4 3.5 12.2 3 5.6 7.2 9.7 13.5 11.2 6.8 1.7 13.7 1.9 20.7 1.1 5.3-.6 10.3-2.9 13.6-7 1.7-2.1 4.1-6.9 4.8-9.5 1.2-4.3 2.3-3.9 6.1-5.6 1.1-.5 1.6-1.3 2.2-2.4 1.3-2.2.8-2.1 4-2.2.4 0 1.1-.6 1.2-1 .4-3.1-.7-5-3.5-6.2M258 151.4c-.4 2.2-.7 4.4-1.4 6.4-2.8 7.9-7.8 13.6-16.4 15.4-6.5 1.3-13 1-19.6.4-8.3-.9-13.1-5.8-15.6-13.3-.9-2.6-1.6-5.6-1.4-8.3 1-11 13.5-14.2 23.1-15 8.6-.7 16.9-.1 24.8 3.2 4.5 1.8 7.5 5.2 6.5 11.2m75.4 8.8c-2.5 7.5-7.3 12.4-15.6 13.3-6.6.7-13.1.9-19.6-.4-8.6-1.7-13.6-7.5-16.4-15.4-.7-2-1-4.3-1.4-6.4-1-6 1.9-9.3 6.4-11.2 8-3.3 16.3-3.9 24.8-3.2 9.7.8 22.1 4 23.1 15 .4 2.8-.4 5.7-1.3 8.3m-93.9 39.4s21.3 11.7 44 10.2 14.4 1.5 11 1.5c-3.4.1-35 13.3-55-11.7"/>
  <path fill="#32CFB6" d="M251.9 216.4s1.7 1.1 4.7 2.1c1.5.5 3.2 1 5.1 1.4 1.9.4 3.9.7 6 .9 1.5.1 3 .2 4.5.2 2.5 0 4.8-.2 6.7-.4 3-.4 5-1 5-1s-2-.3-5.1-.5c-1.5-.1-3.2-.2-5.1-.3-1.9-.2-3.9-.3-5.8-.4-4-.3-7.9-.8-10.9-1.1-3.1-.6-5.1-.9-5.1-.9"/>
  <path fill="#FFF" d="M350.4 609.8h-17c-2.4 0-4.3-2-4.3-4.3v-82c0-2.4 2-4.4 4.3-4.4h17c2.4 0 4.3 2 4.3 4.4v82c.1 2.4-1.9 4.3-4.3 4.3"/>
  <path fill="none" stroke="#00AB9F" stroke-width="3" stroke-miterlimit="10" d="M350.4 609.8h-17c-2.4 0-4.3-2-4.3-4.3v-82c0-2.4 2-4.4 4.3-4.4h17c2.4 0 4.3 2 4.3 4.4v82c.1 2.4-1.9 4.3-4.3 4.3z"/>
  <path fill="#FFF" d="M341.5 527.8c-2.4 0-4.4-2-4.4-4.4v-18.1c0-2.4 2-4.4 4.4-4.4 2.4 0 4.4 2 4.4 4.4v18.1c-.1 2.5-2 4.4-4.4 4.4"/>
  <path fill="#00AB9F" d="M341.5 502c1.9 0 3.4 1.5 3.4 3.4v18.1c0 1.9-1.5 3.4-3.4 3.4s-3.4-1.5-3.4-3.4v-18.1c0-1.8 1.5-3.4 3.4-3.4m0-2c-3 0-5.4 2.4-5.4 5.4v18.1c0 3 2.4 5.4 5.4 5.4 3 0 5.4-2.4 5.4-5.4v-18.1c-.1-2.9-2.5-5.4-5.4-5.4"/>
</svg>