<svg xmlns="http://www.w3.org/2000/svg" width="210.5" height="256.1" viewBox="0 0 210.5 256.1">
  <path fill="#FFF" d="M167 98.6s-8.3-18.3-.1-16.7c6.8 1.4 19.7 18.5 24.7 33 2.2 6.4-.8 16.9-5.3 15.8-4.5-1.1-19.3-32.1-19.3-32.1m-116.4 65s-12.7-15.7-15.4-7.3c-2.9 8.7 10.8 30.4 17.6 37.3 4.8 4.9 16.1 6.6 17.4 1.9 1.3-4.7-19.6-31.9-19.6-31.9"/>
  <path fill="#FFF" d="M33.5 140.9c3.6 6 28.3 56.8 57.8 68 16.7 6.4 37.1 10 45.9 7.3 14.5-4.6 24.1-7.2 33.8-16.2 9.8-9 19.3-30.5 16.1-59.1-1.5-13.6-38.4-105.9-76.9-115.3C85 19.4 51.2 42.1 38 50.7c-13 8.5-40.3 31.1-4.5 90.2"/>
  <path fill="#00A78E" d="M128.8 111.6c1.9 3.3 6.2 4.3 9.5 2.4 3.3-2 4.5-6.2 2.5-9.5-1.9-3.3-6.2-4.3-9.5-2.4s-4.4 6.2-2.5 9.5"/>
  <path fill="#00A78E" d="M153.7 98.9c-.1 0-12.9-3-22.6 2.8-5 2.9-9.2 8.3-10.2 17.4l2.5.9c.9-8.4 4.6-13 9.2-15.8 4.4-2.6 9.8-3.3 13.9-3.3 2.1 0 3.9.2 5.2.4.6.1 1.1.2 1.5.2l.5.1v-2.7z"/>
  <path fill="#FFF" d="M133.2 108.8c.7 1.1.6 2.4-.2 2.9s-1.9-.1-2.6-1.2c-.7-1.1-.6-2.4.2-2.9.7-.5 1.9.1 2.6 1.2"/>
  <path fill="#00A78E" d="M88.1 135.7c1.9 3.3.8 7.5-2.5 9.5s-7.6.9-9.6-2.4c-1.9-3.3-.8-7.5 2.5-9.5 3.4-2 7.7-.9 9.6 2.4"/>
  <path fill="#00A78E" d="M67.4 152.8l.2-.5c.8-2.3 4.5-12.2 12.3-16.8 4.6-2.7 10.4-3.7 18.2-.5l.4-2.6c-8.4-3.5-15.2-2.4-20.1.5-9.7 5.8-13.3 18.4-13.3 18.5l2.3 1.4z"/>
  <path fill="#FFF" d="M79.7 140.5c.7 1.1.6 2.4-.2 2.9s-1.9-.1-2.6-1.2c-.7-1.1-.6-2.4.2-2.9.7-.5 1.9.1 2.6 1.2"/>
  <path fill="#00A78E" d="M119.9 159.5s.5-.2 1.4-.5c.9-.4 2.2-.9 3.7-1.5 1.5-.7 3.3-1.5 4.7-2.6.7-.6 1.3-1.3 1.4-1.9v-.5.1-.1l-.1-.4-.1-.4c0-.1-.1-.2-.1-.3l-.3-.6c-.5-.9-1-1.9-1.5-2.8-.6-.9-1.1-1.8-1.7-2.7-1.2-1.7-2.2-3.3-3.2-4.7-1.9-2.7-3.1-4.7-3.1-4.7s1.8 1.4 4.1 3.8c.6.6 1.2 1.3 1.9 2 .6.7 1.3 1.5 2 2.3.6.8 1.3 1.7 1.9 2.6.6.9 1.2 1.9 1.8 3 .2.6.5 1.3.7 1.8l.1.4v1.1c0 .2 0 .4-.1.6-.2.8-.6 1.4-1 1.9s-.9.9-1.4 1.2c-1 .6-1.9 1.1-2.9 1.4-.9.4-1.8.6-2.7.8-1.7.4-3.1.6-4 .7h-1.5M37.3 153S9 130.7 4.4 117.8C-.2 104.9-.7 91 8.8 60.4c6.2-20 28.5-36.1 32.9-34.6 6.7 2.2 14.7.1 16.3-8.7 1.5-8.7 21.3-15.4 21.9-9.4 6.2-11 18.7-4.8 18.7-4.8s38.1-16.5 73 86.6c3.1 9.1 6.5 19.4 6.5 19.4-6.9 4.7-7.1-10.2-26-44.7-26.1-47.5-63.3-11.7-80.3-4-20.7 9.3-54.7 26-45.7 54.4s31.5 60.5 31.5 60.5l-2.1 8.6L37.3 153z"/>
  <path fill="none" stroke="#FFF" stroke-width="2.383" stroke-miterlimit="10" d="M37.3 153S9 130.7 4.4 117.8C-.2 104.9-.7 91 8.8 60.4c6.2-20 28.5-36.1 32.9-34.6 6.7 2.2 14.7.1 16.3-8.7 1.5-8.7 21.3-15.4 21.9-9.4 6.2-11 18.7-4.8 18.7-4.8s38.1-16.5 73 86.6c3.1 9.1 6.5 19.4 6.5 19.4-6.9 4.7-7.1-10.2-26-44.7-26.1-47.5-63.3-11.7-80.3-4-20.7 9.3-54.7 26-45.7 54.4s31.5 60.5 31.5 60.5l-2.1 8.6L37.3 153z"/>
  <path fill="#FFF" d="M146 217.8s10.2 16.1 5.1 25.3c-4.5 8.2-7.2 10.9-7.2 10.9s42.1-6.5 62.8-33.7c-17 4.7-19.1-.9-19.1-.9L175.1 204 146 217.8z"/>
  <path fill="none" stroke="#00A78E" stroke-width="2.862" stroke-miterlimit="10" d="M146 217.8s10.2 16.1 5.1 25.3c-4.5 8.2-7.2 10.9-7.2 10.9s42.1-6.5 62.8-33.7c-17 4.7-19.1-.9-19.1-.9L175.1 204 146 217.8z"/>
  <path fill="#00A78E" d="M76.8 99.8s11.7-2.3 8.3 4.5c-3.4 6.8-12.9 15-15.2 20-2.3 5.1-5.5 16.1-5.5 16.1l-4-2.2c0 .1-2.2-19.9 16.4-38.4m32.3-22.4s-8.4 7.9-.8 9.3c7.6 1.4 19.6-1.2 25.2 0 5.6 1.2 16.5 5.4 16.5 5.4l.4-4.5s-15.6-13.8-41.3-10.2m58.2 91.1c2.9 4.4.7 10.9-4.8 14.5-5.5 3.6-12.3 3-15.2-1.4-2.9-4.4-.7-10.9 4.8-14.5 5.5-3.6 12.3-3 15.2 1.4"/>
</svg>