<svg xmlns="http://www.w3.org/2000/svg" width="93.4" height="182.1" viewBox="0 0 93.4 182.1">
  <path fill="#FFF" d="M12 80.5l36.6-13.4-7.1-16.9S26.4 26.6 38.9 9c3.7-5.3 14-13.7 25.8.1.6.7 1.4 1.5 1.9 2.5 9.4 20.3 6.3 27.9 6.5 36.8.2 11.6 2.6 19.9 10.4 28.6 6.7 7.5 11.7 24.7 5.2 39.9 0 0-1 31-6.2 31.8L15 132.5"/>
  <path fill="#00A78E" d="M12 80.5l9.1-3.6 9.1-3.5 18.2-7-.5 1.1c-2.5-5.6-4.9-11.2-7.4-16.8l.1.2c-2.2-3.5-3.8-7.1-5.2-10.9-1.3-3.8-2.3-7.8-2.7-11.8-.3-4.1-.1-8.2 1.2-12.2.6-2 1.4-3.9 2.5-5.7.5-.9 1.1-1.8 1.7-2.6.7-.9 1.4-1.7 2.1-2.4 1.5-1.5 3.2-2.8 5.2-3.7 2-.9 4.2-1.5 6.4-1.4 2.3 0 4.5.7 6.4 1.6 1.9 1 3.7 2.2 5.2 3.7.8.7 1.5 1.4 2.2 2.2l1 1.1c.3.4.7.8 1.1 1.3.2.3.4.5.5.9l.2.4.2.3.6 1.3 1.2 2.7c1.5 3.7 2.8 7.5 3.8 11.5.9 4 1.4 8.1 1.3 12.1 0 2-.2 4-.2 5.9-.1 1.9-.1 3.8 0 5.7.2 3.8.7 7.6 1.8 11.2 1.1 3.6 2.8 6.9 5 10 .5.8 1.1 1.5 1.7 2.2l1.9 2.2c1.4 1.7 2.5 3.4 3.4 5.3 1.9 3.7 3.1 7.6 3.9 11.7 1.5 8 .8 16.5-2.5 24.1l.1-.6c-.1 2.8-.3 5.6-.5 8.3-.2 2.8-.5 5.5-.9 8.3-.4 2.8-.8 5.5-1.4 8.3-.3 1.4-.7 2.8-1.2 4.2-.3.7-.6 1.4-1 2.1-.2.4-.5.7-.9 1.1-.4.3-.9.7-1.6.8h-.3l-.2-.1-16.8-4.3c-5.6-1.4-11.2-2.9-16.8-4.3L31.8 137c-5.6-1.4-11.2-3-16.8-4.5 5.7 1.2 11.3 2.4 17 3.6l17 3.7c5.7 1.2 11.3 2.5 16.9 3.8l16.9 3.8h-.5s.4-.2.7-.7c.3-.5.5-1 .8-1.6.4-1.2.8-2.5 1-3.8.6-2.6.9-5.3 1.2-8 .3-2.7.5-5.5.7-8.2.2-2.7.3-5.5.4-8.2v-.3l.1-.3c2.9-6.9 3.5-14.8 2-22.2-.7-3.7-1.9-7.3-3.6-10.6-.8-1.6-1.9-3.2-3-4.6l-2-2.3c-.6-.8-1.3-1.6-1.9-2.4-2.4-3.3-4.3-7.1-5.5-11-1.2-4-1.8-8-2-12.1-.1-1.9-.1-4.1 0-6.1s.2-3.9.3-5.8c.1-3.8-.3-7.6-1.1-11.3-.8-3.7-2.1-7.4-3.5-10.9-.3-.9-.7-1.8-1.1-2.7-.4-.9-.8-2-1.1-2.4-.2-.3-.5-.6-.8-1l-1-1.1c-.6-.7-1.3-1.4-1.9-2-2.7-2.5-5.9-4.4-9.3-4.5-3.4-.1-6.7 1.6-9.3 4.1-.6.6-1.3 1.3-1.8 2-.3.4-.5.7-.8 1.1-.2.4-.5.8-.8 1.2-1 1.6-1.7 3.3-2.3 5-1.2 3.5-1.5 7.3-1.3 11.1.3 3.8 1.1 7.5 2.3 11.2 1.2 3.6 2.8 7.2 4.7 10.5l.1.1v.1c2.3 5.7 4.6 11.3 6.9 17l.3.8-.8.3-18.4 6.3-9.2 3.2-9.3 3.2z"/>
  <path fill="#FFF" d="M7.7 76.9c1.1-1.4-8.3 11 2 21.1 0 0-2.4-4.1-8.4 8.4 0 0-3.3 10.7 10.4 17.2l-3.4-1c-3.6-1.1-7.1 1.8-6.7 5.5.9 9.9 3.3 25.6 9 24.9 0 0-3.3 12.3 11.6 17.5 0 0 30.2 13.4 56.1 0 0 0 8.5-6.1 0-18.6 0 0 12.3-6.9-1.3-23.4 0 0 7.7-10.4.4-22.5 0 0 11.1-15.2-10.2-31.2 0 0-57.4-1.5-59.5 2.1"/>
  <path fill="#FFF" d="M14.8 166.8s31.4 24.7 63 7c0 0 9.4-9.1 1.9-20.8"/>
  <path fill="#00A78E" d="M14.8 166.8c1.2.7 2.4 1.4 3.7 2 1.2.6 2.5 1.3 3.7 1.9 1.3.6 2.5 1.1 3.8 1.7l3.9 1.5c2.6.9 5.2 1.8 7.9 2.4 1.3.3 2.6.6 4 .9 1.3.3 2.7.5 4 .6 2.7.3 5.4.5 8.1.5 1.3 0 2.7-.1 4-.2 1.3-.1 2.7-.3 4-.5 2.7-.4 5.3-1.1 7.8-2 1.3-.4 2.5-.9 3.8-1.4 1.2-.5 2.5-1.1 3.7-1.7l-.3.2c.2-.2.6-.6.8-.9.3-.3.6-.7.8-1 .5-.7 1-1.5 1.4-2.2.9-1.5 1.5-3.2 1.7-5 .1-.4.1-.9.2-1.3 0-.4.1-.9 0-1.3 0-.5 0-.9-.1-1.4 0-.5-.1-.9-.2-1.4-.2-.9-.4-1.8-.7-2.7-.1-.5-.3-.9-.5-1.3s-.4-.9-.6-1.3c.3.4.6.8.8 1.1.3.4.5.8.8 1.2.5.8.9 1.7 1.2 2.6.7 1.8 1 3.8.9 5.8-.1 2-.6 4-1.4 5.9-.4.9-.9 1.8-1.4 2.7-.3.4-.6.9-.9 1.3-.3.4-.6.8-1 1.2l-.1.1-.2.1c-1.2.7-2.5 1.5-3.8 2.1-1.3.6-2.6 1.2-4 1.7-1.3.5-2.7 1-4.1 1.4-1.4.4-2.8.7-4.2 1-2.8.5-5.8.8-8.6.8-1.4 0-2.9 0-4.3-.2-1.4-.1-2.9-.3-4.3-.5-2.8-.5-5.6-1.2-8.4-2-2.7-.9-5.4-1.9-7.9-3.2-1.3-.6-2.5-1.3-3.8-2-1.2-.7-2.4-1.4-3.6-2.2-2.2-1.3-4.5-3-6.6-5"/>
  <path fill="#FFF" d="M12.5 74.8s35.8-5.7 62 6.1c0 0 17.5 17 0 25 0 0-33.1 1.2-49.6-3.6"/>
  <path fill="#00A78E" d="M12.5 74.8c2.6-.5 5.2-1 7.8-1.3 1.3-.2 2.6-.3 3.9-.5l3.9-.3c1.3-.1 2.6-.2 4-.2 1.3-.1 2.6-.1 4-.1h4c1.3 0 2.7 0 4 .1l4 .3c1.3.1 2.6.3 4 .4l2 .2 2 .3c1.3.2 2.6.4 3.9.7l3.9.9c1.3.3 2.6.7 3.9 1.1 1.3.4 2.6.8 3.8 1.3l3.8 1.5.3.1.3.2c.5.5 1 1 1.4 1.5.4.5.9 1 1.3 1.5.8 1.1 1.6 2.1 2.3 3.3.4.6.7 1.2 1 1.8.3.6.6 1.2.9 1.9.3.6.5 1.3.7 2 .2.7.4 1.4.5 2.1.1.4.1.7.1 1.1 0 .4.1.7 0 1.1 0 .7-.1 1.5-.2 2.3-.1.4-.2.8-.3 1.1l-.4 1.1-.5 1c-.2.3-.4.6-.6 1-.2.3-.5.6-.7.9-.2.3-.5.6-.8.8l-.8.7-.9.6c-.6.4-1.2.8-1.8 1.1-.6.3-1.2.6-1.9.9l-.3.2h-.4c-4.2.1-8.4.1-12.6-.1-4.2-.1-8.4-.3-12.5-.7-1-.1-2.1-.2-3.1-.3l-3.1-.3-3.1-.4c-1-.1-2.1-.3-3.1-.5s-2.1-.3-3.1-.6c-1-.2-2.1-.4-3.1-.7-1-.3-2-.5-3-.8l-3-1 3.1.6 3.1.4c1 .2 2.1.2 3.1.3 1 .1 2.1.2 3.1.3 1 .1 2.1.2 3.1.2l3.1.2 3.1.1c1 0 2.1.1 3.1.1 2.1 0 4.1 0 6.2.1h6.2l6.2-.1c2.1 0 4.1-.1 6.2-.2l-.7.2c.5-.3 1.1-.5 1.6-.8.5-.3 1-.6 1.4-1l.7-.5.6-.6c.2-.2.4-.4.5-.6.2-.2.4-.4.5-.6.1-.2.3-.4.4-.7l.3-.7.3-.7c.1-.2.1-.5.2-.7.1-.5.2-1 .1-1.6V95c0-.3 0-.5-.1-.8-.1-.5-.2-1.1-.4-1.6s-.4-1.1-.6-1.6c-.2-.5-.5-1.1-.8-1.6-.3-.5-.6-1-.9-1.6-.6-1-1.3-2-2.1-3-.4-.5-.8-.9-1.2-1.4-.4-.5-.8-.9-1.2-1.3l.5.4-3.6-1.4c-1.2-.5-2.4-.9-3.6-1.3-1.2-.4-2.4-.9-3.7-1.1l-3.7-1c-1.3-.3-2.5-.5-3.8-.8l-1.9-.4-1.9-.3c-1.3-.2-2.6-.4-3.8-.6l-3.9-.4-3.9-.3-3.9-.3c-1.3-.1-2.6-.1-3.9-.2-1.3 0-2.6-.1-3.9-.1h-3.9c-1.3 0-2.6 0-3.9.1-1.3 0-2.6.1-3.9.1-1.3.2-2.6.2-3.9.3"/>
  <path fill="#FFF" d="M77.1 108.8s6.1 13 0 21.7c0 0-17.2 10-52.8-2.6"/>
  <path fill="#00A78E" d="M77.1 108.8c.5.8.9 1.7 1.3 2.5.4.9.7 1.8 1.1 2.7.3.9.6 1.8.8 2.8.1.5.2.9.3 1.4l.2 1.5c0 .5.1 1 .1 1.5.1.5 0 1 0 1.5s0 1-.1 1.5-.1 1-.2 1.5l-.4 1.5c-.1.5-.3 1-.5 1.5s-.4 1-.6 1.4c-.2.5-.5.9-.8 1.4l-.2.3-.4.2c-1.2.7-2.2 1.1-3.4 1.5-1.1.4-2.2.8-3.4 1.1-1.1.3-2.3.5-3.4.8-1.2.2-2.3.3-3.5.5-1.2.1-2.3.2-3.5.3H57c-1.2 0-2.3-.1-3.5-.1-.6 0-1.2-.1-1.7-.1l-1.7-.2c-1.1-.2-2.3-.3-3.4-.4-1.1-.2-2.3-.4-3.4-.6-.6-.1-1.1-.2-1.7-.3l-1.7-.4-3.3-.9c-1.1-.3-2.2-.7-3.3-1.1l-3.2-1.1c-2.1-.9-4.2-1.8-6.2-2.8 2.2.4 4.4.9 6.6 1.4l3.3.6c1.1.2 2.2.5 3.3.6 1.1.2 2.2.3 3.3.5l1.6.3c.6.1 1.1.1 1.7.2 1.1.1 2.2.2 3.3.4 1.1.1 2.2.2 3.3.2l1.7.1h1.7c1.1 0 2.2.1 3.3.1l3.3-.1c1.1-.1 2.2-.2 3.3-.2 1.1-.1 2.2-.3 3.2-.4 1.1-.2 2.1-.4 3.2-.6 1.1-.2 2.1-.5 3.1-.8.5-.2 1-.3 1.5-.5s1-.4 1.4-.6l-.5.5c.2-.4.4-.7.7-1 .3-.3.4-.7.6-1.1.2-.4.4-.7.5-1.2l.7-1.6c.1-.4.2-.8.3-1.3.1-.4.2-.9.2-1.3.1-.4.1-.9.1-1.3l.1-1.3v-1.4c0-.5 0-.9-.1-1.4l-.3-2.7c-.1-.9-.3-1.8-.5-2.7-.2-1-.4-1.9-.7-2.8"/>
  <path fill="#FFF" d="M79.8 132.2s10.1 10.8 0 20.8c0 0-15.6 11.3-53.4 0"/>
  <path fill="#00A78E" d="M79.8 132.2c.7.6 1.4 1.4 2 2.2l.9 1.2c.3.4.5.8.8 1.3.3.4.4.9.7 1.4.2.5.4.9.5 1.4.2.5.3 1 .4 1.5.1.5.2 1 .2 1.5s.1 1 .1 1.6l-.1 1.6c-.1.5-.2 1-.3 1.6-.1.5-.3 1-.5 1.5s-.4 1-.7 1.5l-.8 1.4c-.2.5-.6.8-.9 1.3l-1 1.2-.1.1-.1.1c-.6.4-1.1.7-1.7 1-.5.3-1.1.5-1.6.8l-1.7.7c-.6.2-1.1.4-1.7.6-1.1.4-2.3.6-3.4 1-1.2.2-2.3.5-3.5.7-1.2.2-2.3.4-3.5.4l-3.5.2h-3.5c-1.2 0-2.3-.1-3.5-.2-1.2-.1-2.3-.1-3.5-.3-1.2-.1-2.3-.3-3.4-.5-1.2-.1-2.3-.4-3.4-.7-1.1-.2-2.3-.5-3.4-.7-2.2-.6-4.4-1.2-6.6-1.9-2.2-.8-4.3-1.6-6.4-2.5 2.3.3 4.5.7 6.8 1.1l3.4.5 3.4.5c1.1.1 2.2.2 3.4.4 1.1.1 2.2.3 3.4.3 1.1.1 2.2.1 3.4.2 1.1.1 2.2.1 3.4.1 1.1 0 2.2.1 3.3 0l3.3-.1 3.3-.3 3.3-.4c1.1-.2 2.2-.4 3.2-.6 1.1-.3 2.1-.5 3.2-.8.5-.2 1-.3 1.6-.5l1.5-.5 1.5-.6c.5-.2 1-.5 1.3-.7l-.2.2c.3-.3.6-.6.9-1 .3-.3.7-.6.9-1l.8-1.1c.3-.3.4-.7.6-1.1.2-.4.4-.8.5-1.2.1-.4.3-.8.4-1.2l.2-1.3c.1-.4.1-.9.1-1.3v-1.3c0-.5-.1-.9-.2-1.4-.1-.4-.1-.9-.3-1.4-.1-.4-.2-.9-.4-1.3s-.3-.9-.5-1.3-.4-.9-.6-1.3c-.7-1-1.1-1.8-1.7-2.6M67.4 85.6s.9.9 1.8 2.6c.5.8.9 1.9 1.2 3 .2.6.3 1.2.4 1.8.1.6.2 1.3.2 1.9 0 .6 0 1.3-.1 1.9 0 .3-.1.6-.1.9-.1.3-.1.6-.2.9-.1.6-.3 1.1-.6 1.6-.1.3-.2.5-.3.7-.1.2-.3.4-.4.6-.3.4-.5.8-.7 1.1-.2.3-.5.5-.7.7l-.6.6s.1-.3.4-.8c.1-.2.3-.5.4-.9.2-.3.3-.7.4-1.2.1-.2.2-.4.2-.7.1-.2.1-.5.2-.7.1-.5.3-1 .3-1.6 0-.3.1-.5.1-.8 0-.3 0-.6.1-.9.1-.6 0-1.2 0-1.7 0-.6-.1-1.2-.1-1.8-.1-.6-.2-1.1-.3-1.7-.1-.5-.2-1.1-.4-1.6-.1-.5-.3-1-.4-1.4-.4-1.3-.8-2.5-.8-2.5m-1.5 26.6s.9.7 1.7 2.2c.4.7.9 1.6 1.2 2.6.2.5.3 1 .4 1.6.1.6.2 1.1.2 1.7 0 .6 0 1.2-.1 1.7 0 .6-.2 1.1-.3 1.6-.1.5-.4 1-.6 1.4l-.3.6c-.1.2-.3.4-.4.5-.3.3-.5.7-.7.9l-.6.6c-.4.3-.6.5-.6.5s.1-.3.4-.7c.1-.2.3-.5.4-.7.2-.3.3-.6.4-1 .2-.4.3-.8.4-1.2.1-.4.3-.9.4-1.4 0-.2.1-.5.1-.7 0-.2 0-.5.1-.8 0-.3.1-.5.1-.8v-.8c0-.5-.1-1-.1-1.5l-.3-1.5c-.1-.5-.2-.9-.4-1.4-.1-.4-.3-.8-.4-1.2l-1-2.2"/>
  <path fill="#00A78E" d="M74.5 137s.9.7 1.7 2.2c.4.7.9 1.6 1.2 2.6.2.5.3 1 .4 1.6.1.6.2 1.1.2 1.7 0 .6 0 1.2-.1 1.7 0 .6-.2 1.1-.3 1.6-.1.5-.4 1-.6 1.4l-.3.6c-.1.2-.3.4-.4.5-.3.3-.5.7-.7.9l-.6.6c-.4.3-.6.5-.6.5s.1-.3.4-.7c.1-.2.3-.5.4-.7.2-.3.3-.6.4-1 .2-.4.3-.8.4-1.2.1-.4.3-.9.4-1.4 0-.2.1-.5.1-.7 0-.2 0-.5.1-.8 0-.3.1-.5.1-.8v-.8c0-.5-.1-1-.1-1.5l-.3-1.5c-.1-.5-.2-.9-.4-1.4-.1-.4-.3-.8-.4-1.2-.5-1.2-1-2.2-1-2.2m-4.2 28.5s.7.4 1.6 1.3c.2.2.4.5.6.8.2.3.4.6.6 1 .2.3.3.8.5 1.2.1.4.2.8.2 1.3v.7l-.1.6c0 .4-.3.8-.4 1.2-.1.4-.4.7-.6 1-.2.3-.5.5-.7.8-.2.2-.4.4-.7.5-.2.1-.4.3-.5.4-.3.2-.5.3-.5.3s.1-.2.3-.5c.1-.1.2-.3.4-.5s.3-.4.5-.7c.1-.3.4-.5.5-.8.1-.3.3-.6.4-.9.1-.3.2-.7.2-1l.1-.5v-.5c0-.4-.1-.7-.1-1.1-.1-.3-.2-.7-.3-1-.1-.3-.3-.6-.4-.9-.1-.3-.3-.6-.4-.8-.7-1.2-1.2-1.9-1.2-1.9"/>
  <path fill="none" stroke="#00A78E" stroke-width="3" stroke-miterlimit="10" d="M33.9 73.5L8.2 75.9c-10.6 9.1 2 21.1 2 21.1-17.1 10.7-1.9 24.5-1.9 24.5-3.5-1.1-7 1.7-6.7 5.4 1.8 21.3 8 26.3 8 26.3S4 166.7 31.2 176"/>
</svg>