<svg xmlns="http://www.w3.org/2000/svg" width="299.9" height="576.6" viewBox="0 0 299.9 576.6">
  <path fill="#FFF" d="M86.8 283.8h-1c-3.3 0-6-2.7-6-6v-58c0-3.3 2.7-6 6-6h1c3.3 0 6 2.7 6 6v58c0 3.3-2.7 6-6 6"/>
  <path fill="none" stroke="#00A78E" stroke-width="1.698" stroke-miterlimit="10" d="M86.8 283.8h-1c-3.3 0-6-2.7-6-6v-58c0-3.3 2.7-6 6-6h1c3.3 0 6 2.7 6 6v58c0 3.3-2.7 6-6 6z"/>
  <path fill="#FFF" d="M200.6 283.8h-1c-3.3 0-6-2.7-6-6v-58c0-3.3 2.7-6 6-6h1c3.3 0 6 2.7 6 6v58c0 3.3-2.7 6-6 6"/>
  <path fill="none" stroke="#00A78E" stroke-width="1.698" stroke-miterlimit="10" d="M200.6 283.8h-1c-3.3 0-6-2.7-6-6v-58c0-3.3 2.7-6 6-6h1c3.3 0 6 2.7 6 6v58c0 3.3-2.7 6-6 6z"/>
  <path fill="#FFF" d="M207.7 428.5H83.8c-3.3 0-6-2.7-6-6V308.7c0-3.3 2.7-6 6-6h123.9c3.3 0 6 2.7 6 6v113.7c0 3.4-2.7 6.1-6 6.1"/>
  <path fill="none" stroke="#00A78E" stroke-width="2.876" stroke-miterlimit="10" d="M207.7 428.5H83.8c-3.3 0-6-2.7-6-6V308.7c0-3.3 2.7-6 6-6h123.9c3.3 0 6 2.7 6 6v113.7c0 3.4-2.7 6.1-6 6.1z"/>
  <path fill="#FFF" d="M207.7 472.3H83.8c-3.3 0-6-2.7-6-6v-31.8c0-3.3 2.7-6 6-6h123.9c3.3 0 6 2.7 6 6v31.8c0 3.3-2.7 6-6 6"/>
  <path fill="none" stroke="#00A78E" stroke-width="1.698" stroke-miterlimit="10" d="M207.7 472.3H83.8c-3.3 0-6-2.7-6-6v-31.8c0-3.3 2.7-6 6-6h123.9c3.3 0 6 2.7 6 6v31.8c0 3.3-2.7 6-6 6z"/>
  <path fill="#FFF" d="M214.1 130.3s2.2-20 8.4-14.4c5.1 4.6 7.5 26 4.4 40.9-1.4 6.7-9.3 14.2-12.6 10.9-3.3-3.2-.2-37.4-.2-37.4"/>
  <path fill="none" stroke="#00AB9F" stroke-width="2.383" stroke-miterlimit="10" d="M214.1 130.3s2.2-20 8.4-14.4c5.1 4.6 7.5 26 4.4 40.9-1.4 6.7-9.3 14.2-12.6 10.9-3.3-3.2-.2-37.4-.2-37.4"/>
  <path fill="#FFF" d="M80.8 126.9s-2.9-19.9-9.5-14.2c-6.9 6-6.2 31.7-3.9 41 1.7 6.6 10.5 13.9 14 10.6 3.6-3.3-.6-37.4-.6-37.4"/>
  <path fill="#FFF" d="M77.7 98.7c.1 7-4.5 63.3 15.1 87.9 11.2 14 26.8 27.5 35.8 29.6 14.8 3.5 24.4 6.1 37.4 3.3s32.2-16.4 44-42.7c5.6-12.5 20.9-110.7-7.4-138.4-18.5-18.2-59.1-15.9-74.9-15.2-15.8.8-50.7 6.4-50 75.5"/>
  <path fill="#00A78E" d="M174.6 122c0 3.8 3.1 6.9 7 6.9s7-3.1 7-6.9c0-3.8-3.1-6.9-7-6.9s-7 3.1-7 6.9"/>
  <path fill="#00A78E" d="M202.5 123.7c-.1-.1-9.6-9.1-20.9-9.1-5.8 0-12.1 2.5-17.6 9.8l1.7 2c5.1-6.7 10.6-8.9 15.9-8.9 5.2 0 10.1 2.1 13.7 4.3 1.8 1.1 3.3 2.2 4.3 3 .5.4.9.7 1.2 1l.4.4 1.3-2.5z"/>
  <path fill="#FFF" d="M179.8 121.8c0 1.3-.7 2.4-1.6 2.4-.9 0-1.6-1.1-1.6-2.4 0-1.3.7-2.4 1.6-2.4.9 0 1.6 1.1 1.6 2.4"/>
  <path fill="#00A78E" d="M127.3 122c0 3.8-3.1 6.9-7 6.9s-7-3.1-7-6.9c0-3.8 3.1-6.9 7-6.9s7 3.1 7 6.9"/>
  <path fill="#00A78E" d="M100.8 126.1l.4-.4c1.8-1.6 10.1-8.2 19.1-8.2 5.3 0 10.9 2.2 15.9 8.9l1.7-2c-5.5-7.3-11.8-9.8-17.6-9.8-11.3 0-20.8 9.1-20.9 9.1l1.4 2.4z"/>
  <path fill="#FFF" d="M117.6 121.8c0 1.3-.7 2.4-1.6 2.4-.9 0-1.6-1.1-1.6-2.4 0-1.3.7-2.4 1.6-2.4.9 0 1.6 1.1 1.6 2.4"/>
  <path fill="#00A78E" d="M135.7 87.5s10.4 5.7 3.5 8.8c-7 3.1-19.5 3.2-24.5 5.6-5 2.4-14.5 8.9-14.5 8.9l-1.7-4.2c0-.1 11.1-16.8 37.2-19.1m32.4-1.9s-10.2 5.3-3.3 8.8c6.9 3.4 19.2 4.2 24.2 6.9s14.4 9.7 14.4 9.7l1.6-4.2c0-.1-11.2-17.6-36.9-21.2m-25.6 73.1s.6.1 1.5.3c1 .2 2.3.4 4 .6 1.6.2 3.6.4 5.4.2.9-.1 1.8-.4 2.2-.9.1-.1.1-.1.1-.2s.1-.1.1-.2v-.1.1-.1l.1-.4.1-.4v-.4l.1-.7c.1-1 .1-2.1.1-3.2s0-2.1-.1-3.2c-.1-2.1-.2-4-.3-5.7-.2-3.3-.3-5.6-.3-5.6s.8 2.1 1.6 5.4c.2.8.4 1.7.6 2.7.2 1 .4 2 .5 3 .1 1.1.3 2.1.3 3.3.1 1.1.1 2.3 0 3.5-.1.6-.2 1.4-.3 1.8l-.1.4v.2l-.1.3c-.1.2-.2.4-.3.5-.1.2-.2.3-.4.5-.5.6-1.2.9-1.9 1.1-.6.2-1.2.3-1.8.3-1.2.1-2.2-.1-3.2-.2-1-.2-1.9-.4-2.7-.7-1.6-.5-2.9-1.1-3.8-1.5-.9-.4-1.4-.7-1.4-.7m31.1 26.2s-24.8-10.3-45-1.6c2.8-5.9 29.8-20.6 45 1.6"/>
  <path fill="#00A78E" d="M74.7 111s-13-33.6-10.4-47.1c2.6-13.5 9.3-25.6 33-47.1 15.5-14.1 42.9-16.5 46-13 4.6 5.3 12.6 7.6 18.4.8 5.8-6.7 26.2-2.4 23.6 3.1 10.9-6.3 18.5 5.4 18.5 5.4s41.1 5.2 18.7 111.7c-2 9.4-4.3 20-4.3 20-8.3.5-.9-12.4.4-51.7 1.8-54.1-48.5-42.3-67.1-44.4-22.5-2.5-60.3-5.5-67 23.6-6.8 29-3.7 68.1-3.7 68.1l-6.2 6.3V111z"/>
  <path fill="none" stroke="#FFF" stroke-width="2.383" stroke-miterlimit="10" d="M74.7 111s-13-33.6-10.4-47.1c2.6-13.5 9.3-25.6 33-47.1 15.5-14.1 42.9-16.5 46-13 4.6 5.3 12.6 7.6 18.4.8 5.8-6.7 26.2-2.4 23.6 3.1 10.9-6.3 18.5 5.4 18.5 5.4s41.1 5.2 18.7 111.7c-2 9.4-4.3 20-4.3 20-8.3.5-.9-12.4.4-51.7 1.8-54.1-48.5-42.3-67.1-44.4-22.5-2.5-60.3-5.5-67 23.6-6.8 29-3.7 68.1-3.7 68.1l-6.2 6.3V111z"/>
  <path fill="#FFF" d="M133.6 221.1s.5 19.1-8.5 24.4c-8.1 4.7-11.7 5.8-11.7 5.8s39.6 15.9 71.2 3c-17-4.6-15.9-10.5-15.9-10.5l-3-19.8-32.1-2.9z"/>
  <path fill="none" stroke="#00A78E" stroke-width="2.862" stroke-miterlimit="10" d="M133.6 221.1s.5 19.1-8.5 24.4c-8.1 4.7-11.7 5.8-11.7 5.8s39.6 15.9 71.2 3c-17-4.6-15.9-10.5-15.9-10.5l-3-19.8-32.1-2.9z"/>
  <path fill="#FFF" d="M253.5 306.8l-40.6 28.7-12.3-9.4 4.6 45.9c.6 7.8.9 33.1-.9 56l-.7 30.5H92.1l-4-35.8c-1.2-18.9.1-47 .8-54.2l6.7-61.9-21.2 41-57.1-24s22-16.2 36-45c15.9-32.7 60.3-27.3 60.3-27.3l36.4 5.8 34.8-2.8s23.2-1.4 47.2 24.3c22 23.6 21.5 28.2 21.5 28.2"/>
  <path fill="none" stroke="#00A78E" stroke-width="2.383" stroke-miterlimit="10" d="M253.5 306.8l-40.6 28.7-12.3-9.4 4.6 45.9c.6 7.8.9 33.1-.9 56l-.7 30.5H92.1l-4-35.8c-1.2-18.9.1-47 .8-54.2l6.7-61.9-21.2 41-57.1-24s22-16.2 36-45c15.9-32.7 60.3-27.3 60.3-27.3l36.4 5.8 34.8-2.8s23.2-1.4 47.2 24.3c22 23.6 21.5 28.2 21.5 28.2"/>
  <path fill="#FFF" d="M287.6 465.5c-.5 0-1-.1-1.4-.2l-1.1-.4-.4-.4c-.6-.7-1.8-2-.7-3.8l3.2-4.8c.5-.6.7-1.2.7-1.8v-4.2c0-1.4-.7-2.7-2-3.4l-1.4-.8-2.4 9.7-.6 2.4-.5.2c-.8.4-1.6.6-2.3.6-.9 0-1.7-.3-2.3-1-1-1.1-1.5-2.9-1.4-5.7l-2.3-19.8c0-.2-.1-.4-.1-.6l-19.9-58.1c-1.8-2.9-4.6-6.8-8.3-11.4-.2-.2-.3-.4-.4-.4-8.8-10.2-23.6-27.7-23.2-30.7.1-.4.3-.8.6-1l25.7-17.9c.2-.2.5-.3.9-.3 1.1 0 2.8 0 15.1 22.1 5.9 10.6 11.5 21.4 11.6 21.5v.1l3.8 9.4 9.6 57.6c.1.3 1.1 2.3 1.4 2.8l8.3 11.1c.6 1 1.2 4.8 1 5.9l-2.9 14.5c-.1.7-.5 1.3-1.1 1.8l-3.3 5.2c-1 1.1-2.4 1.8-3.9 1.8"/>
  <path fill="#00A78E" d="M247.9 312.7c3.3 0 25.6 43 25.6 43l3.8 9.3 9.6 57.5c.1.4 1.3 2.9 1.5 3.2l8.3 11.1c.4.7 1 4.2.8 5.1l-2.9 14.5c-.1.5-.4.9-.8 1.2l-3.4 5.4c-.6.9-1.7 1.5-2.7 1.5-.3 0-.7-.1-1-.2l-.9-.3c-.6-.7-1.5-1.5-.7-2.6l3.1-4.8c.6-.8.9-1.6.9-2.4V450c0-1.8-1-3.5-2.6-4.5l-2.8-1.7-2.8 11.3-.5 1.9c-.7.3-1.3.5-1.8.5-2.1 0-2.6-2.6-2.5-5.5l-2.3-19.9c0-.3-.1-.6-.2-.8l-20-58.2c-3.2-5.3-8.7-11.9-8.9-12.1 0 0-24.8-28.6-22.8-30l25.7-17.9c.2-.4.3-.4.3-.4m0-2.4c-.6 0-1.1.2-1.5.5l-25.7 17.9c-.6.4-1 1.1-1.1 1.9-.2 1.3-.3 2.8 11.8 17.8 5.4 6.7 11 13.1 11.6 13.8.1.1.2.2.4.5 3.6 4.5 6.4 8.3 8.2 11.2l19.9 57.9c.1.1.1.2.1.3l2.3 19.7c-.1 3.1.5 5.2 1.7 6.5.8.9 1.9 1.3 3.2 1.3.9 0 1.8-.2 2.8-.7l1.1-.5.3-1.1.5-1.9 2-8.1c.9.6 1.4 1.4 1.4 2.4v4.2c0 .3-.1.6-.4 1l-.1.1v.1l-3.1 4.8c-1.6 2.6.1 4.6.8 5.3l.2.2.4.5.6.2.9.3c.6.2 1.2.3 1.8.3 1.9 0 3.7-1 4.7-2.5l3.2-5.1c.7-.6 1.2-1.5 1.4-2.3l2.9-14.5c.3-1.4-.3-5.5-1.1-6.8l-.1-.1-.1-.1-8.2-11c-.2-.4-1-1.9-1.2-2.5l-9.6-57.4v-.3l-.1-.2-3.8-9.3v-.2c-.1-.1-5.6-10.9-11.6-21.5-3.5-6.3-6.4-11.3-8.7-14.9-4.6-6.6-6.1-7.7-7.8-7.7"/>
  <path fill="#FFF" d="M117 418.8c-14.5 0-26.5 10.5-26.5 24.9v1.2l.5 3.2.3 1.8 19.2 123.9h32.6V445c.1-14.5-11.6-26.2-26.1-26.2"/>
  <path fill="none" stroke="#00A78E" stroke-width="2.383" stroke-miterlimit="10" d="M117 418.8c-14.5 0-26.5 10.5-26.5 24.9v1.2l.5 3.2.3 1.8 19.2 123.9h32.6V445c.1-14.5-11.6-26.2-26.1-26.2z"/>
  <path fill="#FFF" d="M235.7 575.3h-16.8c-3.3 0-6-2.7-6-6V381.1c0-3.3 2.7-6 6-6h16.8c3.3 0 6 2.7 6 6v188.2c0 3.3-2.7 6-6 6"/>
  <path fill="none" stroke="#00A78E" stroke-width="2.484" stroke-miterlimit="10" d="M235.7 575.3h-16.8c-3.3 0-6-2.7-6-6V381.1c0-3.3 2.7-6 6-6h16.8c3.3 0 6 2.7 6 6v188.2c0 3.3-2.7 6-6 6z"/>
  <path fill="#FFF" d="M141.3 573.6s-1.3-19.2-22.3-17.5c-21 1.7-22.6 14.4-23.4 17.8l45.7-.3z"/>
  <path fill="none" stroke="#00A78E" stroke-width="2.383" stroke-miterlimit="10" d="M141.3 573.6s-1.3-19.2-22.3-17.5c-21 1.7-22.6 14.4-23.4 17.8l45.7-.3z"/>
  <path fill="#FFF" d="M248.4 554.4c-2.1 0-3.8-1.7-3.8-3.8V399.8c0-2.1 1.7-3.8 3.8-3.8 2.1 0 3.8 1.7 3.8 3.8v150.8c0 2.1-1.7 3.8-3.8 3.8"/>
  <path fill="none" stroke="#00A78E" stroke-width="2.484" stroke-miterlimit="10" d="M248.4 554.4c-2.1 0-3.8-1.7-3.8-3.8V399.8c0-2.1 1.7-3.8 3.8-3.8 2.1 0 3.8 1.7 3.8 3.8v150.8c0 2.1-1.7 3.8-3.8 3.8z"/>
  <path fill="#FFF" d="M54 375.1h16.8c3.3 0 6 2.7 6 6v188.2c0 3.3-2.7 6-6 6H54c-3.3 0-6-2.7-6-6V381.1c0-3.3 2.7-6 6-6"/>
  <path fill="none" stroke="#00A78E" stroke-width="2.484" stroke-miterlimit="10" d="M54 375.1h16.8c3.3 0 6 2.7 6 6v188.2c0 3.3-2.7 6-6 6H54c-3.3 0-6-2.7-6-6V381.1c0-3.3 2.7-6 6-6z"/>
  <path fill="#FFF" d="M41.4 396c2.1 0 3.8 1.7 3.8 3.8v150.8c0 2.1-1.7 3.8-3.8 3.8-2.1 0-3.8-1.7-3.8-3.8V399.8c0-2.1 1.7-3.8 3.8-3.8"/>
  <path fill="none" stroke="#00A78E" stroke-width="2.484" stroke-miterlimit="10" d="M41.4 396c2.1 0 3.8 1.7 3.8 3.8v150.8c0 2.1-1.7 3.8-3.8 3.8-2.1 0-3.8-1.7-3.8-3.8V399.8c0-2.1 1.7-3.8 3.8-3.8z"/>
  <path fill="#FFF" d="M150.4 486.1h51.7v11.4h-51.7z"/>
  <path fill="none" stroke="#00A78E" stroke-width="3.285" stroke-miterlimit="10" d="M150.4 486.1h51.7v11.4h-51.7z"/>
  <path fill="#00A78E" d="M198.4 452.7l.3 1.2c-.2-1-.5-2-.8-2.9-.3-3.1.1-9 4.1-19.2 3.7-6.8 6.7-15.2 8.5-24.5 4.9-26.1-1.9-49.3-15.2-51.8-13.3-2.5-28.1 16.6-33 42.7-1.6 8.3-1.9 16.3-1.3 23.4l.3 2.7c.3 4-.2 12.4-3.8 19.9l-.3.5c-2.7 3.2-4 6.2-4.8 10.7-2.5 13.4 5.8 26.2 18.7 28.7 12.8 2.4 25.3-6.5 27.8-19.9.7-3.5.4-4.8-.1-10.1l-.4-1.4z"/>
  <path fill="none" stroke="#FFF" stroke-width="2.916" stroke-miterlimit="10" d="M198.4 452.7l.3 1.2c-.2-1-.5-2-.8-2.9-.3-3.1.1-9 4.1-19.2 3.7-6.8 6.7-15.2 8.5-24.5 4.9-26.1-1.9-49.3-15.2-51.8-13.3-2.5-28.1 16.6-33 42.7-1.6 8.3-1.9 16.3-1.3 23.4l.3 2.7c.3 4-.2 12.4-3.8 19.9l-.3.5c-2.7 3.2-4 6.2-4.8 10.7-2.5 13.4 5.8 26.2 18.7 28.7 12.8 2.4 25.3-6.5 27.8-19.9.7-3.5.4-4.8-.1-10.1l-.4-1.4z"/>
  <path fill="#FFF" stroke="#00A78E" stroke-width="3" stroke-miterlimit="10" d="M65.3 345.3S51.6 381 33 375.6c-18.7-5.3-31.3-69.3-31.3-69.3l24-16.7 10 42.7 29.6 13z"/>
</svg>