<?xml version="1.0" encoding="utf-8"?>
<!-- Generator: Adobe Illustrator 17.1.0, SVG Export Plug-In . SVG Version: 6.00 Build 0)  -->
<!DOCTYPE svg PUBLIC "-//W3C//DTD SVG 1.1//EN" "http://www.w3.org/Graphics/SVG/1.1/DTD/svg11.dtd">
<svg version="1.1" id="Layer_1" xmlns="http://www.w3.org/2000/svg" xmlns:xlink="http://www.w3.org/1999/xlink" x="0px" y="0px"
	 viewBox="0 0 267 67" enable-background="new 0 0 267 67" xml:space="preserve">
<g id="AETNA_LOGO_15_">
	<defs>
		<rect id="SVGID_3_" y="0" width="260.8" height="67.1"/>
	</defs>
	<clipPath id="SVGID_1_">
		<use xlink:href="#SVGID_3_"  overflow="visible"/>
	</clipPath>
	<path clip-path="url(#SVGID_1_)" fill="#FFFFFF" d="M232.6,56.3c-0.3-3.5-0.2-8.6-0.1-13c-0.6-0.1-1.5,0-2.2,0
		c-7.6,0-10.7,2.6-10.7,7.1c0,4.7,2.4,6.5,8,6.5C229.3,56.8,231.3,56.6,232.6,56.3 M249.6,65.9c-10.1,0-17.9,1.1-25.8,1.1
		c-15,0-20.3-6.2-20.3-16.8c0-10.3,8.5-15.8,26.8-15.8c0.7,0,2,0,2.5,0l0-1.1c0-7.3-2.2-10.3-9.6-10.3c-5.2,0-10.7,1.9-14.4,3.8
		l-0.6-11.6c4.2-1.7,11.2-2.9,19-2.9c16.1,0,22.1,5.3,22.1,19.9c0,7.8-0.5,14.5-0.5,19.2C248.8,55.5,248.8,61.6,249.6,65.9
		 M77.4,35.1c7.1,0,10.4-2.4,10.4-7.5c0-3.6-2.5-5.6-6.3-5.6c-6.7,0-9,5.4-9,12.7v0.3C73.9,35,75.7,35.1,77.4,35.1 M29.2,56.3
		c-0.3-3.5-0.2-8.6-0.1-13c-0.6-0.1-1.5,0-2.2,0c-7.6,0-10.7,2.6-10.7,7.1c0,4.7,2.4,6.5,8,6.5C25.9,56.8,27.9,56.6,29.2,56.3
		 M79.3,43.9c-1.9,0-5.1-0.1-6.7-0.1l0,0.4c0,7.5,4.9,12.2,13.9,12.2c5.5,0,10.4-1.7,14-3.8l0.6,11.6C97.6,65.9,90.7,67,83.9,67
		c-18.4,0-27.2-6.3-28.8-23.4c-2.1-0.1-5.3-0.2-9.6-0.2c-0.1,3-0.2,5.6-0.2,7.9c0,4.2,0,10.3,0.8,14.6C36,65.9,28.2,67,20.3,67
		C5.3,67,0,60.7,0,50.1c0-10.3,8.5-15.8,26.8-15.8c0.7,0,2,0,2.5,0l0-1.1c0-7.3-2.2-10.3-9.6-10.3c-5.2,0-10.7,1.9-14.4,3.8
		L4.7,15.1c4.2-1.7,11.2-2.9,19-2.9c16.1,0,22.1,5.3,22.1,19.9c0,0.8,0,1.6,0,2.4c3.9,0,6.8,0.1,9.4,0.2
		c1.6-14.4,8.8-22.4,26.8-22.4c14.9,0,21.7,6.3,21.7,15.7C103.8,38.9,95.5,43.9,79.3,43.9 M196.7,41.6c0-4.4,0.1-10.3,0.1-10.3
		c0-13.2-5.8-19.1-22.1-19.1c-9.2,0-15.7,1.6-25.9,1.6c0.6,9.2,0.6,20.7,0.5,27.7c0,7.2-0.2,20.1-0.5,24.2h17.6
		c-0.4-4.2-0.8-16.2-0.7-24.2c0-4.6,0.1-10.2,0.2-17.7c1.7-0.6,4-1,6.4-1c6.1,0,8.1,2.9,8.1,10.8c0,0,0.1,5,0.1,7.9
		c0,7.2-0.2,20.1-0.6,24.2h17.6C197,61.7,196.7,49.7,196.7,41.6 M141.5,54.2l0.7,11.6c-1.4,0.4-5.5,1.2-11.1,1.2
		c-11.6,0-17.7-4.9-17.7-16.7c0-9.3,0.2-19.5,0.3-25.1h-6c0.1-2.5,0-6.1,0-8.8c9-1.5,11.8-6.6,13.1-16.4h9.9
		C130.3,4,130,9.9,130,13.9h10.5v11.3h-10.7v20.3c0,7.9,1.6,10,7,10C138.5,55.4,140.5,54.9,141.5,54.2"/>
	<path clip-path="url(#SVGID_1_)" fill="#FFFFFF" d="M256.5,15.9c0.7,0,1.1-0.3,1.1-1c0-0.3-0.1-0.5-0.3-0.7s-0.5-0.2-1-0.2
		c-0.2,0-0.3,0-0.4,0c-0.1,0-0.2,0-0.3,0h0v1.8H256.5z M254.8,13.4c0.2,0,0.5,0,0.8-0.1c0.3,0,0.5,0,0.7,0c0.8,0,1.3,0.2,1.7,0.5
		c0.3,0.3,0.5,0.7,0.5,1.2c0,0.2,0,0.4-0.1,0.6c-0.1,0.2-0.2,0.3-0.3,0.5c-0.1,0.1-0.2,0.3-0.4,0.3c-0.2,0.1-0.3,0.2-0.5,0.2h0
		l1.3,2.2c-0.1,0-0.2,0.1-0.2,0.1c-0.1,0-0.2,0-0.2,0c-0.1,0-0.3,0-0.4-0.1c-0.1-0.1-0.2-0.2-0.3-0.3l-1.1-1.8h-0.7v2.2h-0.8V13.4z
		 M254.9,19.7c0.4,0.2,0.9,0.3,1.5,0.3c0.6,0,1.1-0.1,1.5-0.3c0.4-0.2,0.8-0.5,1.1-0.9c0.3-0.3,0.5-0.8,0.7-1.2
		c0.2-0.5,0.2-0.9,0.2-1.4c0-0.5-0.1-1-0.2-1.4c-0.2-0.5-0.4-0.9-0.7-1.2c-0.3-0.4-0.7-0.6-1.1-0.8c-0.4-0.2-0.9-0.3-1.5-0.3
		c-0.6,0-1.1,0.1-1.5,0.3c-0.4,0.2-0.8,0.5-1.1,0.8c-0.3,0.4-0.5,0.8-0.7,1.2c-0.2,0.5-0.2,0.9-0.2,1.4c0,0.8,0.2,1.5,0.5,2.1
		C253.8,18.9,254.3,19.4,254.9,19.7 M253.2,19.4c-0.4-0.4-0.6-0.9-0.8-1.5c-0.2-0.6-0.3-1.1-0.3-1.8c0-0.6,0.1-1.2,0.3-1.8
		c0.2-0.6,0.5-1,0.9-1.4c0.4-0.4,0.8-0.7,1.4-1c0.5-0.2,1.1-0.4,1.8-0.4c0.7,0,1.3,0.1,1.8,0.4c0.5,0.2,1,0.6,1.4,1
		c0.4,0.4,0.7,0.9,0.9,1.4c0.2,0.6,0.3,1.1,0.3,1.8c0,0.6-0.1,1.2-0.3,1.8c-0.2,0.6-0.5,1-0.9,1.5c-0.4,0.4-0.8,0.7-1.4,1
		c-0.5,0.2-1.1,0.4-1.8,0.4c-0.7,0-1.3-0.1-1.8-0.4C254.1,20.1,253.6,19.8,253.2,19.4"/>
</g>
</svg>
